<svg width="38" height="39" viewBox="0 0 38 39" fill="none" xmlns="http://www.w3.org/2000/svg">
<path d="M18.9994 36.8616C28.4309 36.8616 36.0766 29.0795 36.0766 19.4799C36.0766 9.88021 28.4309 2.09814 18.9994 2.09814C9.56796 2.09814 1.92224 9.88021 1.92224 19.4799C1.92224 29.0795 9.56796 36.8616 18.9994 36.8616Z" fill="#32BAD4" stroke="black" stroke-width="2.8" stroke-miterlimit="10"/>
<path d="M17.6064 27.3227C17.1692 27.3227 16.7457 27.1141 16.4588 26.7665L11.24 20.3144C10.7209 19.6747 10.8165 18.7152 11.4449 18.1868C12.087 17.6584 13.016 17.7558 13.5352 18.3954L17.5108 23.3179L24.3963 13.2922C24.8608 12.6108 25.7898 12.4439 26.4592 12.9167C27.1286 13.3895 27.2926 14.335 26.8281 15.0164L18.8223 26.683C18.5627 27.0724 18.1256 27.3088 17.6611 27.3227C17.6474 27.3227 17.6201 27.3227 17.6064 27.3227Z" fill="black"/>
</svg>
