<svg width="864" height="110" viewBox="0 0 864 110" fill="none" xmlns="http://www.w3.org/2000/svg">
<path d="M289.807 67.6046C289.734 67.6046 289.668 67.6046 289.596 67.5881L287.675 67.3075C286.926 67.1975 286.393 66.5373 286.449 65.7891C286.687 62.5761 287.098 58.7911 288.363 55.0775C288.841 53.6856 289.074 52.1837 289.318 50.5992C289.412 49.9995 289.507 49.3944 289.612 48.8002C289.945 46.9297 290.267 45.0371 290.6 43.029C290.75 42.1268 290.911 41.1915 291.072 40.2177C291.15 39.7556 291.449 39.365 291.871 39.1669L296.184 37.1313C296.378 37.0378 296.594 36.9938 296.805 36.9938C296.977 36.9938 297.149 37.0213 297.31 37.0818C297.677 37.2194 297.971 37.4944 298.126 37.852C298.903 39.6236 299.253 41.4446 299.592 43.1996C299.936 44.9876 300.258 46.6931 301.012 48.1895C301.168 47.9915 301.312 47.6834 301.517 47.2157C301.584 47.0617 301.651 46.9021 301.723 46.7536C302.711 44.6245 303.493 42.6549 304.115 40.7404C304.714 38.9028 305.885 37.9731 307.606 37.9731C307.734 37.9731 307.867 37.9731 308 37.9896C308.111 38.0006 308.217 38.0006 308.328 38.0006C308.455 38.0006 308.577 37.9951 308.694 37.9841C309.521 37.8961 310.109 37.83 310.62 37.83C311.175 37.83 311.985 37.9016 312.601 38.5177C313.378 39.299 313.367 40.3168 313.351 42.1598C313.339 43.2931 313.334 44.4319 313.334 45.5708C313.328 48.4371 313.323 51.4024 313.151 54.3293C313.001 56.9095 312.579 59.4788 312.174 61.9655C312.096 62.4441 312.018 62.9172 311.941 63.3959C311.796 64.3091 311.525 66.0091 309.254 66.0091C308.888 66.0091 308.461 65.9706 307.85 65.9101C307.162 65.8386 306.624 65.2939 306.563 64.6117C306.552 64.4742 306.529 64.3312 306.513 64.1826C306.463 63.7865 306.402 63.3354 306.429 62.8457C306.674 58.1474 306.896 54.3018 307.118 50.7533C307.156 50.1041 307.051 49.7465 306.812 49.4989C306.335 49.741 305.791 50.2416 305.325 51.3474C304.137 54.1642 301.923 55.9247 299.78 57.6247L299.192 58.0924C298.931 58.3014 298.609 58.4114 298.287 58.4114C298.165 58.4114 298.038 58.3949 297.915 58.3619C297.471 58.2464 297.111 57.9218 296.944 57.4982L295.446 53.6636C295.423 53.6031 295.401 53.5371 295.379 53.471C295.379 53.4545 295.368 53.4435 295.362 53.427C295.224 53.2125 295.107 52.9924 294.996 52.7943C294.874 52.5743 294.674 52.2002 294.569 52.1286C294.546 52.1396 294.513 52.1396 294.463 52.1507C294.391 52.1617 294.352 52.1782 294.347 52.1837C294.252 52.2827 294.147 52.7668 294.086 53.0584C294.058 53.1794 294.036 53.3005 294.008 53.416C293.231 56.7445 292.471 60.0124 291.727 63.3409C291.605 63.8965 291.516 64.4907 291.416 65.1784C291.361 65.5525 291.305 65.9486 291.238 66.3887C291.127 67.0929 290.511 67.5991 289.818 67.5991L289.807 67.6046Z" fill="white"/>
<path d="M296.805 38.4187C298.481 42.2313 298.032 46.55 300.402 49.972C302.189 49.8125 302.539 48.4206 303.033 47.3533C303.965 45.3452 304.803 43.2876 305.486 41.186C305.869 40.0032 306.468 39.409 307.606 39.409C307.695 39.409 307.789 39.409 307.889 39.42C308.033 39.431 308.183 39.4365 308.328 39.4365C308.5 39.4365 308.677 39.4255 308.849 39.409C309.615 39.3265 310.187 39.2659 310.62 39.2659C311.935 39.2659 311.93 39.8381 311.907 42.1543C311.863 46.1869 311.941 50.2306 311.708 54.2523C311.53 57.2396 310.986 60.2105 310.514 63.1758C310.337 64.2761 310.176 64.5842 309.249 64.5842C308.933 64.5842 308.522 64.5457 307.995 64.4907C307.95 63.9901 307.839 63.4564 307.867 62.9282C308.078 58.9011 308.3 54.8739 308.555 50.8468C308.638 49.5374 308.255 48.5306 307.007 47.9254C305.403 48.305 304.526 49.5319 303.987 50.8028C302.844 53.515 300.613 55.1215 298.282 56.9865C297.754 55.6331 297.266 54.3898 296.783 53.1519C296.728 53.0034 296.689 52.8438 296.6 52.7118C296.056 51.8921 295.762 50.7202 294.563 50.7202C294.463 50.7202 294.352 50.7312 294.236 50.7477C292.92 50.9513 292.826 52.1066 292.593 53.1024C291.821 56.4144 291.05 59.7263 290.306 63.0438C290.101 63.957 290.006 64.8978 289.801 66.1797C289.135 66.0807 288.536 65.9981 287.881 65.8991C288.147 62.2846 288.585 58.8791 289.723 55.5396C290.428 53.471 290.633 51.2264 291.022 49.0533C291.505 46.3465 291.949 43.6287 292.487 40.4598C293.597 39.9316 295.14 39.2054 296.8 38.4242M296.805 35.5634C296.378 35.5634 295.956 35.6569 295.562 35.844L293.442 36.8453L291.25 37.8796C290.4 38.2812 289.801 39.0679 289.646 39.9867C289.479 40.9659 289.324 41.9067 289.168 42.8145C288.835 44.8115 288.513 46.6986 288.186 48.5581C288.075 49.1743 287.98 49.7905 287.886 50.3901C287.653 51.9141 287.425 53.35 286.993 54.6264C285.677 58.483 285.25 62.3836 285.006 65.6845C284.895 67.181 285.966 68.5013 287.464 68.7214L287.786 68.7654L289.385 68.9965C289.529 69.0185 289.668 69.0295 289.807 69.0295C291.205 69.0295 292.432 68.0227 292.654 66.6143C292.726 66.1687 292.781 65.7616 292.837 65.382C292.937 64.6943 293.015 64.1496 293.126 63.6545C293.686 61.1402 294.274 58.593 294.852 56.1228L295.318 57.3166L295.595 58.0208C295.928 58.8736 296.65 59.5173 297.543 59.7538C297.788 59.8199 298.037 59.8529 298.287 59.8529C298.942 59.8529 299.58 59.6328 300.102 59.2147C300.296 59.0606 300.491 58.9011 300.685 58.7525C302.394 57.3992 304.143 56.0073 305.475 54.0707C305.319 56.6785 305.164 59.5173 304.992 62.7852C304.959 63.4014 305.031 63.946 305.086 64.3807C305.103 64.5072 305.12 64.6282 305.131 64.7493C305.253 66.1137 306.335 67.1975 307.706 67.3405C308.25 67.3955 308.783 67.445 309.26 67.445C310.609 67.445 311.663 66.9939 312.401 66.1082C313.056 65.3159 313.245 64.4082 313.373 63.6214C313.45 63.1483 313.528 62.6752 313.606 62.1965C314.017 59.6768 314.444 57.0691 314.599 54.4173C314.771 51.4464 314.782 48.4591 314.788 45.5708C314.788 44.4594 314.788 43.3096 314.805 42.1818C314.827 40.2507 314.843 38.7213 313.639 37.5164C312.529 36.4051 311.103 36.4051 310.636 36.4051C310.048 36.4051 309.393 36.4766 308.561 36.5647C308.489 36.5702 308.422 36.5757 308.344 36.5757C308.278 36.5757 308.205 36.5757 308.128 36.5647C307.956 36.5537 307.784 36.5427 307.623 36.5427C306.263 36.5427 303.821 37.0323 302.755 40.3002C302.344 41.5711 301.856 42.8695 301.279 44.2284C301.19 43.8103 301.107 43.3756 301.023 42.93C300.674 41.0925 300.307 39.1944 299.464 37.2744C299.153 36.5647 298.559 36.009 297.827 35.7394C297.499 35.6184 297.161 35.5579 296.816 35.5579L296.805 35.5634Z" fill="black"/>
<path d="M371.45 66.9994C370.751 66.9994 370.079 66.7408 369.574 66.5208C366.682 65.2444 364.623 63.2693 363.452 60.6451C361.815 56.9755 360.178 52.5578 360.483 47.6119C360.594 45.8128 360.849 44.0193 361.093 42.2863C361.16 41.8352 361.221 41.3841 361.282 40.9274C361.349 40.4488 361.46 40.0142 361.565 39.5905C361.654 39.2384 361.737 38.9083 361.782 38.5948C362.475 33.8029 366.105 30.4524 370.606 30.4524C371.988 30.4524 373.376 30.7605 374.73 31.3767C376.817 32.3175 378.343 34.1825 379.137 36.7627C379.825 38.9854 377.894 39.7886 377.261 40.0527C377.045 40.1407 376.778 40.2562 376.673 40.3388C376.401 40.5698 376.068 40.6854 375.729 40.6854C375.391 40.6854 375.024 40.5588 374.752 40.3058L374.075 39.6896C373.62 39.277 373.198 38.8863 372.771 38.4957C372.244 38.0061 371.755 37.7585 371.311 37.7585C370.867 37.7585 370.362 38.0006 369.807 38.4737C367.382 40.5423 366.527 42.8475 367.127 45.7358C367.41 47.1112 367.648 48.5031 367.876 49.851C368.164 51.562 368.464 53.328 368.858 55.0225C369.108 56.0953 369.674 57.2781 370.529 58.5325C370.579 58.604 370.706 58.7911 371.223 58.7911C371.45 58.7911 371.717 58.7526 371.983 58.6755C374.259 58.0373 376.19 56.5464 377.877 54.1257C378.033 53.9002 378.083 53.6966 378.033 53.5095C377.966 53.2785 377.738 53.0584 377.4 52.9154C376.368 52.4697 375.269 52.0791 374.103 51.6665C373.554 51.4685 372.982 51.2704 372.388 51.0503C371.822 50.8413 371.45 50.3076 371.45 49.708V47.2047C371.45 46.4125 372.094 45.7743 372.893 45.7743H383.538C384.155 45.7743 384.698 46.1594 384.898 46.7316C386.18 50.3901 387.052 61.5749 386.38 65.7286C386.269 66.4218 385.664 66.9334 384.954 66.9334H382.828C382.134 66.9334 381.54 66.4438 381.413 65.7726C381.307 65.2224 381.202 64.6723 381.102 64.1276C380.885 62.9778 380.686 61.8774 380.441 60.7881C378.654 64.5787 375.097 66.0421 372.133 66.8949C371.911 66.9609 371.672 66.9884 371.428 66.9884L371.45 66.9994Z" fill="white"/>
<path d="M370.612 31.8883C371.75 31.8883 372.943 32.1414 374.136 32.6806C376.029 33.5333 377.172 35.2773 377.761 37.1809C378.21 38.6388 376.584 38.5287 375.735 39.2549C375.024 38.6058 374.392 38.0336 373.765 37.4504C372.96 36.6967 372.144 36.3226 371.317 36.3226C370.49 36.3226 369.702 36.6747 368.875 37.3789C366.183 39.6731 364.984 42.4569 365.722 46.0164C366.366 49.1138 366.738 52.2662 367.459 55.3416C367.787 56.7445 368.514 58.1254 369.335 59.3302C369.774 59.9739 370.479 60.216 371.223 60.216C371.605 60.216 372 60.15 372.377 60.0454C375.28 59.2312 377.405 57.3111 379.065 54.929C379.953 53.6581 379.415 52.2167 377.977 51.595C376.406 50.9183 374.769 50.3901 372.899 49.6969V47.1937H383.544C384.759 50.6542 385.598 61.5804 384.965 65.4975H382.839C382.456 63.5059 382.134 61.5694 381.674 59.6713C381.551 59.1542 381.013 58.736 380.663 58.2684C380.247 58.6645 379.62 58.9891 379.442 59.4788C378.11 63.0658 375.119 64.5512 371.744 65.5195C371.65 65.547 371.55 65.558 371.445 65.558C371.028 65.558 370.545 65.3765 370.157 65.2004C367.743 64.1331 365.839 62.4551 364.768 60.0564C363.014 56.1283 361.648 52.0681 361.92 47.6944C362.059 45.4937 362.414 43.3041 362.714 41.1145C362.82 40.3333 363.103 39.574 363.214 38.7928C363.83 34.5566 366.916 31.8773 370.612 31.8773M370.612 29.0275C365.378 29.0275 361.16 32.8786 360.361 38.3967C360.327 38.6333 360.25 38.9304 360.172 39.2439C360.061 39.6841 359.933 40.1847 359.856 40.7404C359.795 41.1915 359.728 41.6426 359.667 42.0938C359.417 43.8543 359.156 45.6753 359.045 47.5293C358.718 52.7778 360.422 57.3992 362.131 61.2283C363.452 64.1826 365.756 66.4052 368.986 67.8302C369.574 68.0887 370.468 68.4353 371.45 68.4353C371.833 68.4353 372.205 68.3858 372.555 68.2813C374.919 67.5991 377.622 66.5593 379.703 64.4137C379.803 64.9583 379.909 65.503 380.014 66.0531C380.275 67.401 381.463 68.3748 382.845 68.3748H384.97C386.386 68.3748 387.596 67.357 387.818 65.9706C388.534 61.5694 387.64 50.1591 386.275 46.275C385.87 45.1251 384.776 44.3549 383.55 44.3549H372.904C371.311 44.3549 370.018 45.6368 370.018 47.2157V49.719C370.018 50.9128 370.767 51.9801 371.894 52.3982C372.494 52.6183 373.065 52.8218 373.62 53.0199C374.525 53.3445 375.391 53.6526 376.207 53.9772C374.841 55.7267 373.326 56.8215 371.589 57.3111C371.544 57.3221 371.5 57.3331 371.461 57.3441C370.862 56.3979 370.451 55.4901 370.268 54.7089C369.879 53.0584 369.602 51.3914 369.302 49.6199C369.075 48.261 368.836 46.8526 368.547 45.4552C368.053 43.062 368.714 41.3015 370.756 39.563C371.062 39.3045 371.25 39.2219 371.311 39.1999C371.383 39.2274 371.55 39.321 371.789 39.5465C372.216 39.9426 372.649 40.3388 373.11 40.7569C373.326 40.9549 373.548 41.153 373.776 41.3676C374.325 41.8737 375.03 42.1268 375.735 42.1268C376.368 42.1268 377.006 41.9177 377.533 41.5051C377.605 41.4721 377.727 41.4226 377.822 41.3786C378.327 41.1695 379.093 40.8504 379.731 40.1682C380.669 39.1614 380.958 37.775 380.519 36.3556C379.614 33.4178 377.772 31.1896 375.33 30.0893C373.787 29.3906 372.199 29.0385 370.606 29.0385L370.612 29.0275Z" fill="black"/>
<path d="M325.916 74.5696C325.35 74.5696 324.684 74.4816 323.868 74.3605C323.48 74.3055 323.13 74.091 322.902 73.7774C322.675 73.4583 322.586 73.0622 322.658 72.6825C322.875 71.5602 323.097 70.4434 323.324 69.3266C323.863 66.6528 324.418 63.891 324.817 61.1732C325.045 59.6163 324.989 57.8888 324.656 56.3153C323.946 52.9594 323.102 49.5594 322.281 46.275C321.931 44.8776 321.587 43.4802 321.248 42.0773C321.071 41.351 320.91 40.6248 320.732 39.8546L320.471 38.7048C320.299 37.9621 320.743 37.2194 321.487 37.0103L325.039 36.02C325.172 35.9815 325.3 35.965 325.433 35.965C326.033 35.965 326.582 36.3336 326.793 36.9168C326.887 37.1864 326.987 37.4504 327.087 37.7035C327.304 38.2702 327.52 38.8533 327.692 39.464C328.541 42.5339 329.418 45.7138 330.206 48.8772L330.268 49.1303C330.301 49.2678 330.345 49.4549 330.39 49.5924C330.456 49.4989 330.551 49.3393 330.689 49.0588C332.332 45.6973 334.241 41.7912 336.084 37.9731L336.106 37.9291C336.833 36.4216 337.361 35.3323 339.403 35.3323C339.797 35.3323 340.252 35.3653 340.824 35.4038C341.368 35.4424 341.845 35.7835 342.056 36.2841C342.084 36.3501 342.112 36.4051 342.139 36.4546C342.262 36.6912 342.495 37.1368 342.367 37.72C342.117 38.8478 341.94 39.9812 341.751 41.175C341.435 43.1941 341.107 45.2792 340.413 47.3423C338.848 52.0076 336.245 56.2438 332.449 60.282C332.227 60.5186 332.044 61.1732 331.921 61.6024C331.483 63.1813 331.05 64.7933 330.634 66.3557C330.245 67.8137 329.857 69.2716 329.452 70.724C328.88 72.7871 328.386 74.5696 325.933 74.5696H325.916Z" fill="white"/>
<path d="M339.387 36.7572C339.725 36.7572 340.152 36.7847 340.707 36.8288C340.83 37.1258 340.968 37.2854 340.941 37.4119C340.252 40.5588 340.069 43.7772 339.031 46.8856C337.433 51.65 334.785 55.6772 331.378 59.3027C330.922 59.7868 330.706 60.5461 330.517 61.2173C329.668 64.2541 328.891 67.3075 328.047 70.3444C327.442 72.523 327.204 73.1392 325.916 73.1392C325.455 73.1392 324.867 73.0622 324.073 72.9466C324.812 69.0955 325.672 65.2554 326.244 61.3713C326.499 59.6273 326.432 57.7458 326.066 56.0183C325.05 51.2319 323.802 46.495 322.647 41.7417C322.392 40.6744 322.153 39.607 321.87 38.3802C323.069 38.0446 324.107 37.753 325.422 37.3899C325.733 38.2592 326.066 39.0349 326.288 39.8381C327.148 42.9575 328.009 46.0769 328.791 49.2128C328.991 50.0215 329.091 50.8468 330.012 51.0503C330.145 51.0778 330.262 51.0943 330.379 51.0943C331.2 51.0943 331.627 50.3901 331.971 49.6804C333.775 45.9834 335.579 42.2918 337.366 38.5893C338.082 37.1038 338.238 36.7572 339.387 36.7572ZM339.387 33.9019C336.434 33.9019 335.557 35.7119 334.785 37.3129L334.763 37.3569C333.437 40.1022 332.077 42.8915 330.811 45.4937C330.245 43.3316 329.651 41.186 329.069 39.0844C328.886 38.4132 328.652 37.797 328.425 37.1974C328.33 36.9498 328.236 36.6967 328.142 36.4326C327.726 35.2663 326.615 34.5291 325.422 34.5236C325.161 34.5236 324.9 34.5566 324.64 34.6336L322.558 35.2168L321.087 35.6294C319.606 36.042 318.718 37.533 319.056 39.0184C319.145 39.4145 319.234 39.7941 319.317 40.1627C319.495 40.9384 319.661 41.6701 319.839 42.4074C320.183 43.8158 320.532 45.2462 320.877 46.6271C321.687 49.9005 322.531 53.2785 323.235 56.6069C323.535 58.0208 323.585 59.5668 323.38 60.9642C322.986 63.649 322.436 66.3887 321.903 69.0405C321.681 70.1408 321.454 71.2852 321.237 72.413C321.087 73.1777 321.265 73.9699 321.72 74.6081C322.175 75.2408 322.875 75.6644 323.657 75.7799C324.529 75.9065 325.25 76 325.911 76C329.463 76 330.251 73.1722 330.823 71.1036C331.228 69.6402 331.622 68.1603 332.005 66.7243C332.421 65.1619 332.848 63.5499 333.292 61.9765C333.353 61.7509 333.47 61.3493 333.553 61.1787C337.455 57.003 340.141 52.6238 341.762 47.7824C342.489 45.6093 342.828 43.4582 343.155 41.3841C343.338 40.2122 343.516 39.1009 343.755 38.0116C343.993 36.9278 343.566 36.1025 343.399 35.7945C343.388 35.7724 343.377 35.7504 343.366 35.7229C342.95 34.7216 342.001 34.045 340.907 33.9679C340.33 33.9294 339.831 33.8909 339.381 33.8909L339.387 33.9019Z" fill="black"/>
<path d="M575.448 69.211L572.417 69.0845C569.864 68.98 567.45 68.8755 565.008 68.7929C563.06 68.7269 561.872 67.4781 561.905 65.5305C561.911 65.0464 561.95 64.5732 561.983 64.1166C562.022 63.6269 562.055 63.1648 562.055 62.7137C562.055 61.0577 562.038 59.4072 562.027 57.7513C562.011 55.5011 561.994 53.1739 562.005 50.8743C562.011 49.5154 561.9 48.162 561.783 46.7316C561.578 44.2614 561.361 41.7031 561.822 39.0899C562.322 36.2401 563.021 35.6459 565.985 35.5799C566.445 35.5689 566.912 35.5359 567.4 35.5029C567.949 35.4644 568.516 35.4203 569.098 35.4148C569.92 35.4038 570.747 35.3983 571.574 35.3983C572.157 35.3983 572.745 35.3983 573.333 35.3983C573.933 35.3983 574.543 35.3983 575.159 35.3983C575.825 35.3983 576.402 35.8495 576.558 36.4876C576.858 37.709 577.174 38.9689 576.475 39.9261C575.82 40.8284 574.671 40.9219 573.838 40.9879C573.538 41.0099 573.217 41.0209 572.823 41.0209C572.628 41.0209 572.434 41.0209 572.245 41.0209C572.068 41.0209 571.885 41.0209 571.707 41.0209C571.413 41.0209 571.174 41.0265 570.963 41.043C570.303 41.0925 569.62 41.2355 568.899 41.3841L568.826 41.4006C568.305 41.5106 568.188 41.6481 568.188 42.1708C568.188 42.5999 568.16 43.018 568.133 43.4251C568.11 43.8158 568.083 44.1844 568.083 44.5365C568.083 45.4497 568.227 45.6368 568.233 45.6423C568.233 45.6423 568.416 45.7798 569.265 45.7798H569.343C570.325 45.7688 571.313 45.6643 572.362 45.5543C572.745 45.5157 573.122 45.4717 573.505 45.4387C574.005 45.3947 574.499 45.3287 575.076 45.2572C575.353 45.2242 575.642 45.1856 575.947 45.1526C576.003 45.1471 576.064 45.1416 576.119 45.1416C576.469 45.1416 576.813 45.2682 577.08 45.5047C577.39 45.7743 577.562 46.1649 577.562 46.572V50.2031C577.562 50.9293 577.018 51.5345 576.291 51.6225C576.291 51.6225 571.868 52.1451 570.552 52.2992C570.014 52.3652 569.742 52.4202 569.609 52.4642C569.592 52.5743 569.581 52.7723 569.592 53.1189C569.687 56.6399 569.809 59.5613 569.97 62.3011C570.025 63.2088 570.158 63.2143 570.669 63.2143C570.83 63.2143 571.013 63.2033 571.213 63.1758C572.173 63.0548 573.106 62.9613 574.188 62.8567C574.687 62.8072 575.215 62.7577 575.781 62.6972C575.831 62.6972 575.881 62.6917 575.931 62.6917C576.314 62.6917 576.685 62.8457 576.957 63.1153C577.263 63.4234 577.413 63.8525 577.368 64.2816L576.946 67.9347C576.863 68.6609 576.241 69.2 575.514 69.2C575.492 69.2 575.476 69.2 575.453 69.2L575.448 69.211Z" fill="white"/>
<path d="M571.574 36.8342C572.745 36.8342 573.933 36.8398 575.159 36.8398C575.736 39.1614 575.587 39.4255 573.722 39.574C573.422 39.596 573.122 39.607 572.823 39.607C572.451 39.607 572.079 39.596 571.707 39.596C571.424 39.596 571.141 39.6015 570.858 39.6235C570.075 39.6786 569.298 39.8436 568.527 40.0087C567.356 40.2507 566.745 40.9549 566.74 42.1763C566.74 42.9685 566.64 43.7552 566.64 44.5475C566.64 46.561 567.233 47.2212 569.265 47.2212C569.298 47.2212 569.326 47.2212 569.359 47.2212C570.786 47.2047 572.218 47.0067 573.644 46.8746C574.415 46.8031 575.187 46.6986 576.119 46.583V50.2141C574.132 50.4507 572.256 50.6707 570.38 50.8908C568.466 51.1164 568.099 51.4354 568.144 53.1684C568.227 56.2438 568.344 59.3247 568.527 62.3946C568.621 63.99 569.282 64.6502 570.669 64.6502C570.891 64.6502 571.135 64.6337 571.396 64.6007C572.789 64.4247 574.182 64.3036 575.931 64.1221C575.764 65.558 575.642 66.5978 575.509 67.7751C571.885 67.6266 568.471 67.4781 565.058 67.357C563.842 67.313 563.332 66.6693 563.348 65.547C563.365 64.6007 563.498 63.6489 563.498 62.7027C563.498 58.758 563.426 54.8189 563.448 50.8743C563.47 47.0232 562.566 43.1886 563.243 39.3265C563.631 37.1258 563.742 37.0543 566.018 36.9993C567.05 36.9773 568.083 36.8453 569.121 36.8342C569.936 36.8232 570.758 36.8177 571.579 36.8177M571.574 33.9734C570.602 33.9734 569.809 33.9734 569.071 33.9899C568.449 34.0009 567.861 34.0394 567.289 34.0835C566.817 34.1165 566.368 34.1495 565.946 34.1605C564.547 34.1935 563.221 34.221 562.066 35.1838C560.867 36.1796 560.629 37.5385 560.396 38.8533C559.907 41.6481 560.129 44.2944 560.34 46.8581C560.457 48.2555 560.568 49.5759 560.562 50.8743C560.551 53.1794 560.562 55.5176 560.584 57.7788C560.595 59.4017 560.612 61.0742 560.612 62.7192C560.612 63.1153 560.579 63.5499 560.545 64.0176C560.507 64.4962 560.473 64.9858 560.462 65.514C560.418 68.2373 562.222 70.1298 564.958 70.2288C567.389 70.3114 569.787 70.4104 572.334 70.5204C573.339 70.5644 574.36 70.6029 575.392 70.647C575.431 70.647 575.47 70.647 575.514 70.647C576.974 70.647 578.212 69.5631 578.378 68.1162L578.8 64.4632C578.9 63.5994 578.6 62.7412 577.984 62.125C577.44 61.5804 576.702 61.2778 575.936 61.2778C575.836 61.2778 575.736 61.2778 575.637 61.2943C575.076 61.3548 574.554 61.4043 574.055 61.4538C573.128 61.5473 572.251 61.6299 571.379 61.7344C571.241 59.3247 571.135 56.7445 571.046 53.7021C572.251 53.5591 573.455 53.416 574.693 53.273L576.458 53.0639C577.907 52.8934 579 51.672 579 50.2251V46.5941C579 45.7743 578.645 44.9986 578.029 44.4539C577.496 43.9863 576.813 43.7332 576.114 43.7332C576.003 43.7332 575.886 43.7387 575.77 43.7552C575.459 43.7937 575.17 43.8268 574.893 43.8598C574.332 43.9313 573.844 43.9918 573.366 44.0358C572.978 44.0743 572.589 44.1128 572.201 44.1514C571.263 44.2504 570.369 44.3439 569.52 44.3659C569.526 44.1018 569.542 43.8213 569.565 43.5297C569.581 43.2656 569.598 42.996 569.609 42.7154C570.125 42.6109 570.619 42.5229 571.063 42.4899C571.235 42.4789 571.441 42.4734 571.701 42.4734C571.873 42.4734 572.046 42.4734 572.223 42.4734C572.423 42.4734 572.623 42.4734 572.823 42.4734C573.255 42.4734 573.616 42.4624 573.955 42.4349C574.876 42.3633 576.597 42.2258 577.646 40.7844C578.734 39.288 578.306 37.5605 577.962 36.1686C577.646 34.8922 576.491 33.9899 575.159 33.9899C574.543 33.9899 573.938 33.9899 573.339 33.9899C572.745 33.9899 572.157 33.9899 571.574 33.9899V33.9734Z" fill="black"/>
<path d="M524.774 70.1683C524.453 70.1683 523.476 70.1683 522.754 69.4311C522.055 68.7159 521.983 67.7201 522.005 66.8399C522.033 65.7891 522.077 64.7383 522.121 63.6875C522.216 61.4758 522.31 59.1927 522.244 56.9755L522.188 55.2205C522.088 52.0021 522.055 50.9128 522.077 47.7879C522.088 45.9009 522.133 40.1572 523.22 36.4326C523.365 35.943 523.764 35.5634 524.264 35.4424C525.429 35.1618 526.662 35.0352 527.849 34.9087C528.865 34.8042 529.825 34.7051 530.641 34.5181C530.919 34.4521 531.196 34.4246 531.462 34.4246C532.584 34.4246 533.516 34.9582 534.226 36.0145C536.274 39.0404 537.446 42.1488 538.572 45.8734C539.943 50.4067 540.254 54.7034 540.559 58.8626C540.715 61.0302 540.881 63.2693 541.192 65.503C541.231 65.7781 541.236 66.0366 541.247 66.3062C541.247 66.4272 541.259 66.5593 541.264 66.7078C541.303 67.4781 540.72 68.1382 539.949 68.2043C539.127 68.2758 538.617 68.2923 538.123 68.3088C537.607 68.3253 537.118 68.3418 536.252 68.4188C536.208 68.4188 536.169 68.4188 536.13 68.4188C535.42 68.4188 534.804 67.8962 534.704 67.1865C534.67 66.9664 534.643 66.7518 534.609 66.5483C534.543 66.0972 534.482 65.6735 534.432 65.2499C534.326 64.2926 534.226 63.3354 534.127 62.3781C533.91 60.3205 533.688 58.1914 533.399 56.1173C533.327 55.6056 533.3 55.3911 532.212 55.3911C532.134 55.3911 532.051 55.3911 531.968 55.3911C531.507 55.4076 531.03 55.4736 530.524 55.5396L530.408 55.5561C529.065 55.7358 528.404 56.3557 528.426 57.4157C528.482 59.9299 528.454 62.4826 528.426 64.9473C528.421 65.6845 528.41 66.4273 528.404 67.1645C528.404 67.5716 528.321 67.9402 528.26 68.2373C528.238 68.3363 528.221 68.4298 528.204 68.5289C528.121 69.024 527.783 69.4421 527.311 69.6237C527.222 69.6567 527.144 69.6952 527.067 69.7282C526.834 69.8327 526.539 69.9648 526.173 70.0253C525.596 70.1188 525.152 70.1628 524.769 70.1628L524.774 70.1683ZM528.515 49.6914C528.743 49.8125 529.398 50.0105 530.408 50.0105C531.596 50.0105 532.323 49.7465 532.495 49.6144C532.656 49.3944 532.817 49.1248 532.894 48.9597C532.85 48.5966 532.806 48.2335 532.761 47.8704C532.467 45.3287 532.212 43.1281 530.486 41.0815C530.38 40.9549 530.297 40.8999 530.053 40.8999C529.736 40.8999 529.303 41.01 528.887 41.1255C528.321 41.285 528.193 41.4611 528.11 41.9507C527.938 44.1899 527.699 47.5073 528.51 49.6859L528.515 49.6914Z" fill="white"/>
<path d="M531.462 35.855C532.162 35.855 532.645 36.2401 533.033 36.8122C535.031 39.7666 536.169 42.886 537.196 46.286C539.233 53.0034 538.85 59.1487 539.766 65.701C539.81 66.0091 539.804 66.3172 539.827 66.7794C538.223 66.9169 537.89 66.8454 536.13 66.9939C536.036 66.3007 535.936 65.701 535.869 65.0959C535.525 62.037 535.259 58.9726 534.826 55.9192C534.626 54.4998 533.805 53.9607 532.212 53.9607C532.117 53.9607 532.017 53.9607 531.912 53.9662C531.346 53.9882 530.78 54.0652 530.219 54.1422C527.439 54.5108 526.933 55.1215 526.989 57.4542C527.061 60.6891 526.989 63.924 526.967 67.1535C526.967 67.5386 526.845 67.9237 526.784 68.2923C526.451 68.4243 526.206 68.5729 525.946 68.6114C525.479 68.6884 525.091 68.7324 524.774 68.7324C523.687 68.7324 523.409 68.2318 523.448 66.8729C523.537 63.5554 523.781 60.238 523.687 56.926C523.548 52.2882 523.498 51.3969 523.526 47.7934C523.542 45.7083 523.609 40.2562 524.614 36.8232C526.662 36.3281 529.081 36.3336 530.968 35.9045C531.146 35.866 531.313 35.844 531.468 35.844M530.408 51.4409C531.773 51.4409 533.161 51.1274 533.627 50.5002C533.86 50.1921 534.399 49.3668 534.349 48.9982C533.938 45.9449 533.921 42.9355 531.59 40.1682C531.152 39.6511 530.624 39.475 530.053 39.475C529.553 39.475 529.02 39.607 528.493 39.7556C527.333 40.0857 526.845 40.7404 526.684 41.7857C526.484 44.4264 526.251 47.9254 527.239 50.3681C527.527 51.0833 528.959 51.4409 530.413 51.4409M531.462 32.9941C531.091 32.9941 530.702 33.0382 530.319 33.1262C529.586 33.2912 528.671 33.3848 527.699 33.4893C526.462 33.6158 525.185 33.7534 523.925 34.056C522.921 34.298 522.127 35.0517 521.838 36.0365C521.067 38.6718 520.673 42.5119 520.64 47.7824C520.617 50.9348 520.651 52.0296 520.751 55.2755L520.806 57.0195C520.873 59.1872 520.778 61.3438 520.684 63.6269C520.64 64.6667 520.595 65.7396 520.567 66.8014C520.54 67.9127 520.645 69.3266 521.722 70.4269C522.482 71.2026 523.509 71.5932 524.774 71.5932C525.241 71.5932 525.757 71.5437 526.412 71.4337C526.961 71.3457 527.383 71.1531 527.666 71.0266C527.722 70.9991 527.777 70.9771 527.844 70.9496C528.787 70.5809 529.464 69.7502 529.625 68.7599C529.636 68.6829 529.653 68.6059 529.67 68.5289C529.742 68.1878 529.842 67.7256 529.842 67.1755C529.847 66.4383 529.858 65.6955 529.864 64.9583C529.892 62.4826 529.919 59.9244 529.864 57.3882C529.864 57.2781 529.864 57.1791 529.864 57.0966C530.042 57.0636 530.28 57.0195 530.597 56.981L530.719 56.9645C531.19 56.904 531.635 56.8435 532.023 56.827C532.023 56.827 532.034 56.827 532.04 56.827C532.295 58.714 532.495 60.6451 532.689 62.5211C532.789 63.4839 532.889 64.4522 533 65.415C533.05 65.8716 533.116 66.3062 533.183 66.7683C533.211 66.9719 533.244 67.1755 533.272 67.3955C533.472 68.8204 534.698 69.8657 536.125 69.8657C536.208 69.8657 536.291 69.8657 536.374 69.8547C537.201 69.7832 537.673 69.7667 538.173 69.7502C538.689 69.7337 539.216 69.7117 540.076 69.6402C541.625 69.5081 542.79 68.1823 542.713 66.6418C542.707 66.5043 542.702 66.3777 542.696 66.2677C542.685 65.9761 542.674 65.668 542.629 65.3214C542.324 63.1373 542.163 60.9202 542.008 58.7746C541.703 54.5383 541.381 50.1591 539.965 45.4772C538.955 42.1433 537.706 38.5948 535.436 35.2333C534.193 33.3903 532.595 33.0052 531.474 33.0052L531.462 32.9941ZM529.525 42.4404C529.586 42.4239 529.642 42.4129 529.692 42.3963C530.863 44.0138 531.074 45.8073 531.329 48.0355C531.346 48.1895 531.363 48.3381 531.385 48.4921C531.146 48.5361 530.813 48.5801 530.408 48.5801C530.114 48.5801 529.864 48.5581 529.67 48.5306C529.242 46.7426 529.392 44.2119 529.525 42.4349V42.4404Z" fill="black"/>
<path d="M442.015 67.0159C441.754 67.0159 441.499 66.9444 441.272 66.8124C440.9 66.5923 440.65 66.2182 440.589 65.7946C440.422 64.6612 440.256 63.5664 440.089 62.4991C439.718 60.1114 439.368 57.8613 439.118 55.5726C438.957 54.0762 438.868 52.5633 438.791 51.0998C438.669 48.9157 438.552 46.8526 438.202 44.806C437.714 41.9727 438.241 39.3705 438.752 36.8508C439.068 35.2938 439.368 33.8194 439.423 32.334C439.451 31.7013 439.829 31.3217 440.034 31.1181C440.084 31.0686 440.139 31.0136 440.206 30.9366C440.483 30.612 440.889 30.4359 441.305 30.4359C441.399 30.4359 441.494 30.4469 441.594 30.4634C442.393 30.623 443.198 30.777 444.013 30.9366C445.934 31.3052 447.921 31.6903 449.891 32.1579C452.683 32.8291 454.481 34.8702 455.735 36.5757C458.189 39.9151 459.654 43.7607 460.087 48.0025C460.459 51.672 459.843 54.9234 458.194 57.9548C457.067 60.0289 455.58 61.4483 453.649 62.3066C451.107 63.4289 448.32 64.6447 445.118 66.0146C444.641 66.2182 444.169 66.3777 443.575 66.5758C443.264 66.6803 442.92 66.7959 442.504 66.9389C442.348 66.9939 442.187 67.0214 442.021 67.0214L442.015 67.0159ZM444.591 41.9617C444.607 42.0497 444.618 42.1378 444.618 42.2258C444.618 42.4404 444.618 42.6494 444.607 42.864C444.596 43.2656 444.585 43.6452 444.618 43.9863C445.173 49.763 445.634 54.4723 446.084 58.8241C446.111 59.1212 446.156 59.3192 446.189 59.4402C446.322 59.4072 446.522 59.3467 446.816 59.2202C449.047 58.2739 450.84 56.4969 451.867 54.2247C453.932 49.6584 452.694 43.3096 445.268 39.4255C445.14 39.3595 445.046 39.332 444.99 39.321C444.951 39.3705 444.863 39.5025 444.785 39.7831C444.657 40.2507 444.635 40.8064 444.613 41.4006C444.607 41.5876 444.596 41.7747 444.585 41.9617H444.591Z" fill="white"/>
<path d="M441.299 31.8608C443.975 32.4 446.783 32.8841 449.541 33.5443C451.75 34.0725 453.304 35.7119 454.559 37.4174C456.89 40.5863 458.239 44.1844 458.638 48.1455C458.966 51.3859 458.483 54.3898 456.912 57.2726C455.996 58.9561 454.786 60.227 453.049 60.9972C450.219 62.2516 447.377 63.4784 444.53 64.6998C443.88 64.9803 443.198 65.1729 442.01 65.591C441.477 61.96 440.9 58.703 440.545 55.4241C440.151 51.8151 440.223 48.1345 439.612 44.5695C438.885 40.3333 440.694 36.4711 440.855 32.3945C440.855 32.2734 441.044 32.1579 441.294 31.8663M445.995 60.8982C446.367 60.8982 446.822 60.7771 447.388 60.5351C450.058 59.3962 452.045 57.3276 453.182 54.8134C456.368 47.7714 451.9 41.2795 445.945 38.1656C445.59 37.9786 445.262 37.8906 444.963 37.8906C444.219 37.8906 443.664 38.4352 443.403 39.42C443.164 40.3168 443.214 41.285 443.137 42.2203C443.153 42.2203 443.17 42.2203 443.186 42.2258C443.186 42.8585 443.137 43.4967 443.192 44.1238C443.664 49.0753 444.147 54.0212 444.657 58.9671C444.79 60.2765 445.173 60.8982 446.006 60.8982M441.299 29C440.467 29 439.662 29.3576 439.107 30.0013C439.085 30.0233 439.057 30.0563 439.013 30.1003C438.741 30.3699 438.025 31.0796 437.98 32.2734C437.925 33.6488 437.636 35.0627 437.337 36.5647C436.826 39.0899 436.249 41.9452 436.776 45.0426C437.115 47.0067 437.226 49.0313 437.348 51.1769C437.431 52.6568 437.52 54.1917 437.686 55.7212C437.936 58.0428 438.291 60.3095 438.663 62.7082C438.83 63.77 438.996 64.8703 439.163 65.9926C439.285 66.8399 439.784 67.5881 440.528 68.0282C440.983 68.3033 441.499 68.4408 442.021 68.4408C442.343 68.4408 442.67 68.3858 442.981 68.2758C443.386 68.1327 443.73 68.0172 444.03 67.9182C444.657 67.7091 445.157 67.5386 445.684 67.313C448.948 65.9156 451.662 64.7328 454.231 63.5939C456.463 62.6037 458.172 60.9807 459.46 58.6205C461.247 55.3306 461.924 51.8096 461.519 47.8484C461.058 43.3536 459.504 39.2715 456.901 35.7284C455.613 33.9734 453.515 31.5527 450.23 30.7605C448.226 30.2819 446.222 29.8968 444.285 29.5227C443.475 29.3686 442.67 29.2146 441.882 29.055C441.693 29.0165 441.499 29 441.311 29L441.299 29ZM446.039 41.8847C446.045 41.7747 446.05 41.6646 446.056 41.5546C450.063 44.2339 452.777 48.7287 450.552 53.6416C449.841 55.204 448.759 56.4584 447.382 57.3166C446.977 53.3445 446.555 49.0258 446.056 43.8488C446.034 43.5902 446.039 43.2546 446.05 42.897C446.056 42.6714 446.061 42.4459 446.061 42.2203C446.061 42.1048 446.056 41.9892 446.039 41.8792V41.8847Z" fill="black"/>
<path d="M483.453 68.5013C482.465 68.5013 481.433 68.2758 480.101 67.7751C479.529 67.5606 479.157 67.0104 479.168 66.3997C479.407 56.9425 480.19 47.5458 481.039 37.9456C481.094 37.2964 481.588 36.7737 482.232 36.6637C483.009 36.5317 483.764 36.3941 484.508 36.2566C486.223 35.9375 487.843 35.6404 489.525 35.4589C489.88 35.4203 490.247 35.4038 490.607 35.4038C492.783 35.4038 495.009 36.0915 497.218 37.4504C499.593 38.9083 500.542 43.9588 499.388 46.2805C498.028 49.0203 495.958 50.6872 493.227 51.2319L492.717 51.3364C491.09 51.6665 489.409 52.0021 487.71 52.2112C487.355 52.2552 487.25 52.3267 487.25 52.3322C487.25 52.3322 487.189 52.4257 487.15 52.7283C487.044 53.6581 486.905 54.5934 486.772 55.4956C486.522 57.1791 486.284 58.7746 486.234 60.3755C486.195 61.6354 486.395 62.9503 486.606 64.3477C486.706 65.0133 486.811 65.6955 486.894 66.4052C486.961 66.9884 486.667 67.5551 486.145 67.8302C485.307 68.2758 484.402 68.5013 483.442 68.5013H483.453ZM488.72 46.7921C488.892 46.7921 489.153 46.7921 489.425 46.8471C489.969 46.8141 490.491 46.6326 490.957 46.4675C491.19 46.385 491.396 46.3135 491.573 46.264C491.934 46.1649 492.267 46.0989 492.567 46.0439C493.516 45.8623 493.555 45.8238 493.71 45.4387C494.154 44.3219 493.366 41.9232 492.611 41.5381C492.289 41.3786 491.795 41.285 491.207 41.285C489.486 41.285 487.871 42.0002 487.566 42.3908C487.538 42.4239 487.505 42.4734 487.477 42.5064C487.427 42.7705 487.372 43.029 487.316 43.2931C487.144 44.1183 486.983 44.8941 486.972 45.6258C486.966 46.0989 487.039 46.462 487.166 46.5941C487.294 46.7261 487.655 46.8031 488.126 46.8031C488.243 46.8031 488.36 46.8031 488.487 46.7921C488.565 46.7921 488.643 46.7866 488.72 46.7866V46.7921Z" fill="white"/>
<path d="M490.613 36.8342C492.705 36.8342 494.687 37.5715 496.463 38.6663C498.084 39.6621 499.01 43.8048 498.1 45.6478C497.04 47.7769 495.397 49.3393 492.95 49.829C491.157 50.1921 489.359 50.5662 487.549 50.7918C486.384 50.9348 485.862 51.4409 485.734 52.5688C485.44 55.16 484.891 57.7403 484.807 60.337C484.741 62.3561 485.224 64.3917 485.479 66.5758C484.813 66.9279 484.147 67.0764 483.459 67.0764C482.56 67.0764 481.627 66.8234 480.617 66.4438C480.856 56.9865 481.644 47.5843 482.487 38.0776C485.007 37.6485 487.338 37.1368 489.692 36.8838C490.002 36.8508 490.313 36.8342 490.619 36.8342M488.126 48.239C488.271 48.239 488.421 48.239 488.582 48.2225C488.626 48.2225 488.676 48.2225 488.72 48.2225C489.009 48.2225 489.259 48.272 489.253 48.283C489.253 48.283 489.253 48.283 489.248 48.283C489.248 48.283 489.237 48.283 489.231 48.283C489.237 48.283 489.242 48.283 489.248 48.283H489.253H489.259C490.402 48.283 491.373 47.8044 491.956 47.6449C493.333 47.2707 494.459 47.4468 495.048 45.9669C495.719 44.2834 494.792 41.0485 493.26 40.2727C492.7 39.9867 491.973 39.8656 491.201 39.8656C489.309 39.8656 487.139 40.6083 486.423 41.5271C486.278 41.7086 486.117 41.9177 486.078 42.1323C485.868 43.2931 485.551 44.4539 485.529 45.6203C485.496 47.4578 486.345 48.25 488.126 48.25M490.613 33.9734C490.202 33.9734 489.786 33.9954 489.381 34.0394C487.644 34.221 485.995 34.5291 484.247 34.8482C483.514 34.9857 482.754 35.1233 481.993 35.2553C480.7 35.4754 479.723 36.5317 479.607 37.8245C478.758 47.4413 477.97 56.8655 477.731 66.3667C477.698 67.5826 478.447 68.6829 479.59 69.112C481.094 69.6787 482.288 69.9318 483.453 69.9318C484.619 69.9318 485.784 69.6512 486.833 69.09C487.877 68.5344 488.471 67.4065 488.337 66.2402C488.254 65.5085 488.143 64.8098 488.043 64.1386C487.838 62.8072 487.649 61.5528 487.688 60.425C487.738 58.9011 487.966 57.3496 488.21 55.7102C488.315 55.006 488.421 54.2798 488.515 53.548C490.052 53.3335 491.556 53.0309 493.016 52.7338L493.521 52.6293C496.663 51.9966 499.144 50.016 500.687 46.9076C501.719 44.828 501.28 42.2258 501.047 41.197C500.737 39.8546 499.932 37.4229 497.984 36.2291C495.542 34.7326 493.066 33.9734 490.613 33.9734ZM488.792 43.2656C489.248 43.029 490.23 42.7209 491.201 42.7209C491.512 42.7209 491.729 42.7539 491.851 42.787C492.134 43.1611 492.389 44.0523 492.389 44.6245C492.356 44.63 492.322 44.6355 492.289 44.641C491.984 44.7015 491.601 44.773 491.185 44.8831C490.935 44.9491 490.696 45.0371 490.463 45.1196C490.113 45.2462 489.753 45.3727 489.436 45.4112C489.214 45.3782 488.97 45.3617 488.709 45.3617C488.615 45.3617 488.515 45.3617 488.415 45.3727C488.459 44.839 488.582 44.2284 488.715 43.5902C488.737 43.4802 488.759 43.3756 488.781 43.2656H488.792Z" fill="black"/>
<path d="M552.853 67.6761C552.348 67.6761 551.854 67.6541 551.371 67.6376H551.271C548.651 67.5276 546.82 66.0917 546.115 63.5939C545.604 61.7839 545.105 59.8309 544.916 57.8118C544.694 55.5011 544.578 53.1519 544.461 50.8853C544.4 49.6584 544.333 48.3876 544.256 47.1442C543.945 42.3138 547.68 36.8232 552.248 35.3928C552.786 35.2223 553.302 35.2223 553.758 35.2223L553.813 36.6527V35.2223H553.824C553.996 35.2223 554.179 35.2223 554.379 35.2113C554.407 35.2113 554.435 35.2113 554.462 35.2113C555.19 35.2113 555.811 35.7504 555.894 36.4766L556.277 39.7446C556.316 40.0692 556.239 40.3938 556.066 40.6743C556.055 40.6909 556.044 40.7074 556.039 40.7239C555.961 40.8724 555.772 41.219 555.351 41.4446C552.342 43.073 550.883 45.7578 550.633 50.1536C550.605 50.6322 550.533 51.0833 550.461 51.518C550.427 51.727 550.394 51.9306 550.366 52.1396C549.983 55.039 550.267 60.0729 556.477 61.2393C557.088 61.3548 557.559 61.8444 557.637 62.4551C557.654 62.5871 557.676 62.7247 557.698 62.8622C557.759 63.2418 557.826 63.6765 557.843 64.1386C557.854 64.5677 557.804 64.9638 557.759 65.3434C557.743 65.481 557.72 65.6295 557.709 65.7726C557.659 66.2842 557.337 66.7298 556.866 66.9389C555.395 67.5991 553.952 67.6816 552.864 67.6816L552.853 67.6761Z" fill="white"/>
<path d="M554.451 36.6362C554.607 37.9566 554.723 38.9689 554.834 39.9041C554.74 40.0527 554.712 40.1462 554.651 40.1792C550.694 42.3138 549.423 45.9009 549.179 50.06C549.14 50.6872 549.001 51.3144 548.918 51.9416C548.207 57.3111 550.489 61.5639 556.189 62.6312C556.255 63.1153 556.366 63.6434 556.383 64.1716C556.4 64.6392 556.305 65.1069 556.255 65.624C555.129 66.1247 553.991 66.2402 552.847 66.2402C552.342 66.2402 551.832 66.2182 551.321 66.1962C549.295 66.1137 548.019 65.0408 547.497 63.1978C546.986 61.3878 546.52 59.5338 546.343 57.6687C546.01 54.1367 545.91 50.5882 545.682 47.0452C545.416 42.8915 548.701 37.9896 552.67 36.7462C552.992 36.6472 553.341 36.6417 553.741 36.6417H553.808C554.007 36.6417 554.218 36.6417 554.446 36.6307M554.457 33.7754C554.401 33.7754 554.346 33.7754 554.296 33.7754C554.152 33.7809 554.002 33.7864 553.819 33.7864H553.752C553.253 33.7864 552.564 33.7864 551.81 34.0229C546.576 35.6624 542.457 41.7141 542.813 47.2322C542.89 48.4646 542.957 49.73 543.018 50.9513C543.135 53.2345 543.257 55.6001 543.479 57.9438C543.678 60.0784 544.2 62.103 544.727 63.979C545.604 67.0764 547.963 68.9305 551.21 69.0625H551.31C551.81 69.0845 552.32 69.1065 552.853 69.1065C554.085 69.1065 555.728 69.0075 557.449 68.2373C558.392 67.8136 559.036 66.9279 559.136 65.9046C559.147 65.7726 559.164 65.6405 559.18 65.514C559.23 65.1014 559.291 64.6337 559.275 64.0891C559.258 63.5389 559.18 63.0383 559.114 62.6312C559.091 62.5046 559.075 62.3781 559.058 62.2571C558.897 61.0357 557.959 60.0509 556.733 59.8254C552.886 59.1046 551.221 56.5794 551.782 52.3157C551.81 52.1231 551.837 51.9306 551.871 51.738C551.943 51.2924 552.026 50.7808 552.059 50.2251C552.287 46.3245 553.469 44.0743 556.028 42.6879C556.821 42.2588 557.177 41.6041 557.293 41.3841C557.626 40.8394 557.77 40.2012 557.693 39.5685L557.621 38.9469L557.31 36.2951C557.138 34.8482 555.9 33.7644 554.446 33.7644L554.457 33.7754Z" fill="black"/>
<path d="M514.185 68.7764C512.941 68.7544 511.587 68.7434 509.922 68.7434C508.94 68.7434 507.952 68.7434 506.942 68.7489C505.898 68.7489 504.838 68.7544 503.75 68.7544C503.351 68.7544 502.973 68.5894 502.701 68.3033C502.429 68.0172 502.291 67.6266 502.313 67.236C502.33 66.9499 502.341 66.6583 502.352 66.3667C502.379 65.6625 502.407 64.9363 502.524 64.1881C502.735 62.8457 502.979 61.4868 503.212 60.172C503.628 57.8338 504.061 55.4186 504.316 53.0474C504.422 52.0571 504.572 51.0613 504.711 50.0986C505.143 47.1552 505.549 44.3714 504.96 41.5601C504.716 40.3993 505.027 39.1834 505.399 38.0446C505.998 36.2181 507.691 36.0915 508.601 36.0255C508.79 36.009 508.99 35.998 509.19 35.9705C509.256 35.9595 509.323 35.9595 509.384 35.9595C510.017 35.9595 510.588 36.3776 510.771 36.9993C511.593 39.8491 511.526 42.5009 511.465 45.0646C511.448 45.6478 511.437 46.2309 511.432 46.8141C511.41 51.3144 510.538 55.7212 509.695 59.9849L509.611 60.3975C509.561 60.6396 509.506 60.8872 509.445 61.1292C509.373 61.4208 509.306 61.6959 509.267 61.949C509.228 62.2185 509.223 62.3891 509.223 62.4826C509.306 62.5046 509.439 62.5321 509.645 62.5541C510.738 62.6697 511.898 62.6807 512.897 62.6807H513.99H514.496C514.751 62.6807 515.051 62.6367 515.395 62.5871C515.606 62.5541 515.828 62.5211 516.061 62.4936C516.116 62.4881 516.177 62.4826 516.233 62.4826C516.56 62.4826 516.877 62.5926 517.132 62.7962C517.437 63.0383 517.626 63.3849 517.665 63.7645C517.687 63.9625 517.715 64.1496 517.737 64.3256C517.803 64.7768 517.876 65.2444 517.826 65.7616C517.692 67.2525 517.182 68.7764 514.407 68.7764C514.335 68.7764 514.257 68.7764 514.179 68.7764H514.185Z" fill="white"/>
<path d="M509.384 37.3954C510.327 40.6689 510.005 43.7552 509.989 46.8031C509.967 51.3089 509.067 55.7157 508.196 60.1224C508.091 60.6671 507.924 61.1952 507.841 61.7399C507.624 63.2088 507.985 63.8195 509.495 63.979C510.621 64.1001 511.759 64.1111 512.897 64.1111C513.263 64.1111 513.624 64.1111 513.99 64.1111C514.157 64.1111 514.323 64.1111 514.49 64.1111C514.495 64.1111 514.501 64.1111 514.507 64.1111C515.034 64.1111 515.567 63.9956 516.233 63.913C516.299 64.5842 516.444 65.1179 516.394 65.635C516.266 67.0544 515.833 67.346 514.407 67.346C514.34 67.346 514.273 67.346 514.201 67.346C512.78 67.324 511.36 67.313 509.917 67.313C507.918 67.313 505.876 67.324 503.745 67.324C503.806 66.3722 503.789 65.3764 503.939 64.4082C504.527 60.6671 505.338 56.959 505.743 53.2015C506.17 49.2513 507.214 45.3177 506.364 41.274C506.181 40.4048 506.475 39.376 506.764 38.4902C507.141 37.3459 508.235 37.5495 509.378 37.3954M509.389 34.5346C509.262 34.5346 509.128 34.5456 508.995 34.5621C508.856 34.5786 508.679 34.5951 508.496 34.6061C507.519 34.6776 504.927 34.8647 504.028 37.61C503.595 38.9359 503.234 40.3663 503.545 41.8572C504.083 44.4209 503.689 47.0837 503.279 49.895C503.134 50.8688 502.99 51.8811 502.879 52.8989C502.629 55.2205 502.218 57.5092 501.786 59.9299C501.547 61.2503 501.303 62.6147 501.092 63.9735C500.959 64.8043 500.931 65.613 500.903 66.3227C500.892 66.6033 500.881 66.8784 500.864 67.1535C500.814 67.9402 501.097 68.7159 501.641 69.2881C502.185 69.8657 502.945 70.1903 503.745 70.1903C504.833 70.1903 505.898 70.1903 506.942 70.1848C507.946 70.1848 508.94 70.1793 509.917 70.1793C511.571 70.1793 512.919 70.1903 514.151 70.2123C514.24 70.2123 514.323 70.2123 514.407 70.2123C517.37 70.2123 519.008 68.7599 519.263 65.8936C519.324 65.2114 519.235 64.6062 519.163 64.1221C519.135 63.946 519.113 63.781 519.097 63.6214C519.019 62.8567 518.63 62.158 518.031 61.6794C517.515 61.2723 516.882 61.0522 516.227 61.0522C516.111 61.0522 516 61.0577 515.883 61.0742C515.633 61.1017 515.395 61.1402 515.173 61.1732C514.895 61.2118 514.64 61.2503 514.501 61.2503C514.329 61.2503 514.157 61.2503 513.985 61.2503H513.435H512.897C512.248 61.2503 511.576 61.2503 510.904 61.2173C510.943 61.0467 510.988 60.8652 511.027 60.6726L511.11 60.2655C511.965 55.9357 512.853 51.4575 512.875 46.8196C512.875 46.2585 512.891 45.6973 512.908 45.1031C512.969 42.5559 513.041 39.6731 512.159 36.6087C511.804 35.3653 510.66 34.5346 509.389 34.5346Z" fill="black"/>
<path d="M402.925 68.0227C402.731 68.0227 402.531 68.0117 402.326 67.9842C399.651 67.6651 397.658 66.0751 396.404 63.2583C394.644 59.3082 393.884 55.9027 394.017 52.5413C394.089 50.7092 394.078 48.8277 394.067 47.0067C394.062 46.1209 394.056 45.2352 394.062 44.3494C394.073 42.0553 395.016 40.2177 395.932 38.4407C396.237 37.8465 396.526 37.2854 396.776 36.7132C398.152 33.5773 401.066 33.5773 402.021 33.5773C402.587 33.5773 403.142 33.6158 403.675 33.6543L403.93 33.6708C406.2 33.8304 407.904 35.3928 408.603 37.9621C409.341 40.6634 409.935 43.5297 410.363 46.484C410.518 47.5458 410.573 49.1908 410.618 50.3846C410.634 50.8138 410.651 51.3364 410.668 51.562C410.707 51.7105 410.718 51.8701 410.707 52.0241C410.651 52.6953 410.607 53.372 410.562 54.0432C410.446 55.7212 410.329 57.4597 410.096 59.1817C409.919 60.4965 409.252 61.7179 408.764 62.5211C408.253 63.3629 407.682 64.1441 407.121 64.8978C406.777 65.3654 406.45 65.8056 406.139 66.2622C405.345 67.423 404.268 68.0117 402.925 68.0117V68.0227ZM400.006 50.3571C399.945 52.4257 400.444 54.7144 401.532 57.3496C401.926 58.3014 402.054 58.3069 402.209 58.3124C402.248 58.3124 402.281 58.3124 402.32 58.3124C402.936 58.3124 403.336 58.0869 403.514 57.6357C404.019 56.3594 404.546 55.039 404.596 53.8396C404.685 51.694 404.574 49.4714 404.468 47.3258C404.44 46.7151 404.407 46.0989 404.379 45.4882C404.352 44.817 404.241 44.1128 404.063 43.4582C403.902 42.8695 403.214 42.3303 402.587 42.2973C402.542 42.2973 402.498 42.2973 402.453 42.2973C401.787 42.2973 401.438 42.5339 401.21 43.1446C401.005 43.6947 400.755 44.4154 400.65 45.1196C400.472 46.3025 400.333 47.4963 400.183 48.7617C400.122 49.2788 400.061 49.807 400 50.3461L400.006 50.3571Z" fill="white"/>
<path d="M402.009 35.0132C402.609 35.0132 403.219 35.0627 403.819 35.1068C405.745 35.2443 406.766 36.7352 407.204 38.3472C407.954 41.087 408.52 43.8873 408.925 46.6986C409.169 48.4041 409.164 51.9196 409.264 51.9251C409.075 54.2853 408.975 56.6619 408.659 59.0056C408.525 59.9739 408.037 60.9422 407.521 61.8004C406.749 63.0768 405.784 64.2431 404.94 65.4755C404.418 66.2347 403.791 66.5978 402.925 66.5978C402.786 66.5978 402.648 66.5868 402.498 66.5703C400.045 66.2787 398.607 64.6722 397.719 62.6862C396.298 59.5008 395.31 56.1778 395.455 52.6018C395.56 49.8565 395.488 47.1057 395.493 44.3604C395.505 41.6976 397.081 39.596 398.091 37.2909C398.929 35.3818 400.417 35.0132 402.015 35.0132M402.326 59.7428C403.469 59.7428 404.44 59.2202 404.862 58.1584C405.406 56.7885 405.983 55.3361 406.044 53.9002C406.161 51.0833 405.95 48.25 405.828 45.4277C405.795 44.641 405.673 43.8488 405.467 43.0895C405.14 41.8792 403.902 40.9329 402.664 40.8724C402.598 40.8724 402.531 40.8724 402.465 40.8724C401.221 40.8724 400.317 41.4556 399.867 42.6549C399.595 43.3866 399.351 44.1459 399.234 44.9161C398.973 46.6271 398.801 48.3546 398.568 50.2471C398.474 52.8273 399.168 55.3911 400.2 57.8943C400.577 58.8021 401.005 59.6878 402.143 59.7428C402.204 59.7428 402.265 59.7428 402.326 59.7428ZM402.009 32.1524C398.812 32.1524 396.604 33.4948 395.444 36.1521C395.21 36.6802 394.933 37.2249 394.639 37.797C393.695 39.6291 392.618 41.7087 392.613 44.3494C392.613 45.2462 392.613 46.1484 392.618 47.0232C392.63 48.8277 392.641 50.6927 392.574 52.4917C392.435 56.0733 393.235 59.6823 395.083 63.836C396.92 67.9622 399.945 69.1395 402.154 69.4036C402.415 69.4366 402.675 69.4531 402.925 69.4531C404.196 69.4531 405.989 69.0405 407.332 67.0764C407.632 66.6418 407.948 66.2072 408.287 65.7506C408.864 64.9693 409.458 64.1606 410.002 63.2638C410.557 62.3506 411.312 60.9587 411.528 59.3797C411.767 57.6137 411.889 55.8532 412.005 54.1532C412.05 53.482 412.094 52.8163 412.15 52.1451C412.172 51.8811 412.15 51.6225 412.105 51.3694C412.094 51.1384 412.077 50.7037 412.061 50.3406C412.016 49.1083 411.955 47.4248 411.789 46.286C411.356 43.2766 410.751 40.3498 409.996 37.588C409.136 34.4466 406.905 32.4495 404.03 32.2459L403.78 32.2294C403.219 32.1909 402.637 32.1469 402.021 32.1469L402.009 32.1524ZM401.449 50.4617C401.51 49.9445 401.571 49.4329 401.626 48.9377C401.771 47.6834 401.91 46.5005 402.082 45.3397C402.165 44.8005 402.359 44.2174 402.531 43.7442C402.587 43.7717 402.653 43.8268 402.681 43.8653C402.825 44.4099 402.914 44.9876 402.942 45.5488C402.97 46.1594 402.997 46.7756 403.031 47.3918C403.142 49.6089 403.247 51.6995 403.158 53.7846C403.131 54.4613 402.886 55.259 402.581 56.0788C401.782 53.9662 401.41 52.1231 401.449 50.4617Z" fill="black"/>
<path d="M430.393 66.0091C428.639 65.9926 426.242 65.9651 424.549 63.9405C423.905 63.1703 423.3 62.3781 422.706 61.6079C422.517 61.3603 422.329 61.1127 422.134 60.8652C421.724 60.337 421.319 59.8033 420.913 59.2752C420.192 58.3344 419.448 57.3551 418.699 56.4199C416.668 53.8781 414.642 50.7147 414.991 46.561C415.119 45.0261 415.397 43.8598 415.863 42.886C417.389 39.6896 419.559 36.8948 422.307 34.5841C423.095 33.9184 423.949 33.5828 424.849 33.5828C425.465 33.5828 426.097 33.7424 426.741 34.0615C429.672 35.5139 431.509 37.9016 432.064 40.9714C432.624 44.0688 433.03 47.2322 433.429 50.2911C433.59 51.5125 433.746 52.7338 433.912 53.9552C434.079 55.193 434.239 56.4254 434.389 57.5917L434.578 59.0606C434.595 59.1762 434.595 59.2972 434.578 59.4127C434.528 59.8144 434.489 60.194 434.45 60.5516C434.367 61.3273 434.289 62.059 434.162 62.7852C433.829 64.6833 432.291 66.0091 430.421 66.0091C430.421 66.0091 430.388 66.0091 430.382 66.0091H430.393ZM424.205 42.985C423.755 42.985 423.239 43.2656 422.739 43.7827C421.069 45.5047 420.847 47.7329 420.952 49.3008C421.124 51.8481 422.107 54.2468 423.861 56.4419C424.371 57.0801 425.27 57.4872 426.153 57.4872C426.43 57.4872 426.697 57.4487 426.935 57.3661C428.029 56.9975 428.756 55.9027 428.784 54.6154C428.7 54.2523 428.623 53.8616 428.534 53.4545C428.312 52.3872 428.057 51.1769 427.707 50.038L427.59 49.6529C427.008 47.7549 426.408 45.7853 425.526 44.0688C425.32 43.6672 424.871 42.9905 424.21 42.9905L424.205 42.985Z" fill="white"/>
<path d="M424.86 35.0077C425.259 35.0077 425.67 35.1178 426.108 35.3378C428.595 36.5702 430.182 38.6003 430.654 41.219C431.425 45.4992 431.897 49.8345 432.491 54.1422C432.735 55.9137 432.957 57.6852 433.157 59.2367C433.007 60.502 432.93 61.5253 432.752 62.5321C432.53 63.7975 431.564 64.5732 430.432 64.5732C430.421 64.5732 430.415 64.5732 430.404 64.5732C428.717 64.5567 426.897 64.5127 425.659 63.0218C424.837 62.037 424.066 61.0027 423.278 59.9849C422.129 58.4995 421.002 56.992 419.831 55.5231C417.755 52.9209 416.135 50.1371 416.429 46.6711C416.518 45.5928 416.706 44.4484 417.167 43.4857C418.61 40.4543 420.647 37.841 423.244 35.6624C423.772 35.2168 424.299 35.0022 424.854 35.0022M426.153 58.9121C426.58 58.9121 427.002 58.8461 427.396 58.714C429.056 58.1584 430.26 56.5024 430.221 54.4448C429.905 53.0694 429.605 51.3089 429.083 49.6089C428.439 47.5073 427.807 45.3562 426.808 43.4086C426.169 42.1708 425.226 41.5491 424.205 41.5491C423.378 41.5491 422.495 41.9617 421.696 42.787C419.942 44.597 419.348 46.9902 419.515 49.3889C419.715 52.3157 420.869 54.995 422.734 57.3221C423.539 58.3289 424.865 58.9121 426.153 58.9121ZM424.86 32.1524C423.611 32.1524 422.445 32.6035 421.385 33.4893C418.477 35.932 416.185 38.8918 414.57 42.2698C414.031 43.4031 413.709 44.729 413.565 46.4345C413.171 51.1164 415.502 54.6979 417.578 57.3001C418.316 58.2244 419.054 59.1927 419.77 60.1279C420.175 60.6616 420.586 61.1952 420.997 61.7289C421.185 61.9765 421.374 62.2185 421.563 62.4661C422.162 63.2473 422.778 64.0561 423.439 64.8428C425.559 67.3845 428.578 67.412 430.382 67.4285H430.438C433.024 67.4285 435.144 65.613 435.599 63.0163C435.738 62.2406 435.816 61.4868 435.905 60.6891C435.943 60.337 435.982 59.9629 436.032 59.5668C436.06 59.3302 436.06 59.0936 436.032 58.8626C435.971 58.3949 435.91 57.9053 435.843 57.4047C435.694 56.2218 435.533 55.0005 435.361 53.7516C435.194 52.5413 435.033 51.3034 434.878 50.1041C434.478 47.0287 434.067 43.8488 433.501 40.7074C432.874 37.2249 430.71 34.4081 427.402 32.7686C426.558 32.3505 425.703 32.1414 424.865 32.1414L424.86 32.1524ZM426.153 56.0568C425.714 56.0568 425.226 55.8422 424.993 55.5506C423.422 53.5866 422.545 51.452 422.395 49.2018C422.307 47.9254 422.479 46.1209 423.783 44.773C423.911 44.641 424.022 44.553 424.11 44.4925C424.149 44.5475 424.194 44.619 424.238 44.7125C425.059 46.319 425.62 48.1345 426.208 50.0656L426.325 50.4507C426.658 51.529 426.891 52.6568 427.119 53.7461C427.191 54.0927 427.257 54.4228 427.329 54.7419C427.268 55.4406 426.874 55.8807 426.469 56.0183C426.38 56.0458 426.269 56.0623 426.147 56.0623L426.153 56.0568Z" fill="black"/>
</svg>
