<svg width="972" height="102" viewBox="0 0 972 102" fill="none" xmlns="http://www.w3.org/2000/svg">
<path d="M966.354 7.692C962.123 3.56715 961.245 6.57285 955.384 6.57285C949.522 6.57285 949.522 6.28507 943.661 6.28507C937.799 6.28507 937.799 8.74719 931.938 8.74719C926.076 8.74719 926.076 7.46817 920.214 7.46817C914.353 7.46817 914.353 5.67754 908.491 5.67754C902.63 5.67754 902.63 6.2531 896.768 6.2531C890.907 6.2531 890.907 7.692 885.045 7.692C879.184 7.692 879.184 7.40422 873.322 7.40422C867.46 7.40422 867.461 5.13395 861.599 5.13395C855.737 5.13395 855.737 6.31705 849.876 6.31705C844.014 6.31705 844.014 8.68324 838.153 8.68324C832.291 8.68324 832.291 5.74149 826.43 5.74149C820.568 5.74149 820.568 5.45371 814.707 5.45371C808.845 5.45371 808.845 4.78222 802.983 4.78222C797.122 4.78222 797.122 7.91583 791.26 7.91583C785.399 7.91583 785.399 7.72397 779.537 7.72397C773.676 7.72397 773.676 6.95656 767.814 6.95656C761.953 6.95656 761.953 5.00605 756.091 5.00605C750.23 5.00605 750.23 6.86063 744.368 6.86063C738.506 6.86063 738.506 8.42744 732.645 8.42744C726.783 8.42744 726.783 5.16593 720.922 5.16593C715.06 5.16593 715.06 6.22112 709.199 6.22112C703.337 6.22112 703.337 8.81114 697.476 8.81114C691.614 8.81114 691.614 6.47693 685.752 6.47693C679.891 6.47693 679.891 4.78222 674.029 4.78222C668.168 4.78222 668.168 6.95656 662.306 6.95656C656.445 6.95656 656.445 8.81114 650.583 8.81114C644.722 8.81114 644.722 7.5641 638.86 7.5641C632.999 7.5641 632.999 8.01175 627.137 8.01175C621.275 8.01175 621.275 6.06124 615.414 6.06124C609.552 6.06124 609.552 5.99729 603.691 5.99729C597.829 5.99729 597.829 8.77917 591.968 8.77917C586.106 8.77917 586.106 8.29953 580.245 8.29953C574.383 8.29953 574.383 5.77346 568.521 5.77346C562.66 5.77346 562.66 6.09322 556.767 6.09322C550.874 6.09322 550.906 6.82866 545.044 6.82866C539.182 6.82866 539.182 8.74719 533.321 8.74719C527.459 8.74719 527.459 6.70075 521.598 6.70075C515.736 6.70075 515.736 5.67754 509.875 5.67754C504.013 5.67754 504.013 8.71522 498.152 8.71522C492.29 8.71522 492.29 6.76471 486.429 6.76471C480.567 6.76471 480.567 7.21236 474.705 7.21236C468.844 7.21236 468.844 6.02927 462.951 6.02927C457.058 6.02927 457.089 7.24434 451.228 7.24434C445.366 7.24434 445.366 6.92458 439.505 6.92458C433.643 6.92458 433.643 5.22988 427.782 5.22988C421.92 5.22988 421.92 5.45371 416.059 5.45371C410.197 5.45371 410.197 5.58161 404.304 5.58161C398.411 5.58161 398.443 7.53212 392.55 7.53212C386.657 7.53212 386.688 7.14841 380.827 7.14841C374.965 7.14841 374.965 5.77346 369.104 5.77346C363.242 5.77346 363.242 7.14841 357.38 7.14841C351.519 7.14841 351.519 6.34902 345.626 6.34902C339.733 6.34902 339.764 7.5641 333.903 7.5641C328.041 7.5641 328.041 7.34027 322.18 7.34027C316.318 7.34027 316.318 8.04373 310.425 8.04373C304.532 8.04373 304.564 8.87509 298.671 8.87509C292.778 8.87509 292.809 7.9478 286.916 7.9478C281.024 7.9478 281.055 6.47693 275.162 6.47693C269.269 6.47693 269.3 6.22112 263.408 6.22112C257.515 6.22112 257.546 8.26756 251.653 8.26756C245.76 8.26756 245.792 8.90707 239.899 8.90707C234.006 8.90707 234.037 8.23558 228.144 8.23558C222.251 8.23558 222.283 8.87509 216.39 8.87509C210.497 8.87509 210.528 5.22988 204.635 5.22988C198.742 5.22988 198.774 5.35778 192.881 5.35778C186.988 5.35778 187.019 4.91012 181.126 4.91012C175.234 4.91012 175.265 6.06124 169.372 6.06124C163.479 6.06124 163.51 7.27632 157.649 7.27632C151.787 7.27632 151.787 8.61929 145.894 8.61929C140.002 8.61929 140.033 5.16593 134.14 5.16593C128.247 5.16593 128.278 6.76471 122.386 6.76471C116.493 6.76471 116.524 7.75595 110.631 7.75595C104.738 7.75595 104.77 6.02927 98.8767 6.02927C92.9838 6.02927 93.0152 8.87509 87.1223 8.87509C81.2294 8.87509 81.2607 7.02051 75.3678 7.02051C69.4749 7.02051 69.5063 7.02051 63.6134 7.02051C57.7205 7.02051 57.7518 4.75024 51.8589 4.75024C45.9661 4.75024 45.9974 8.29953 40.1045 8.29953C34.2116 8.29953 34.2116 8.07571 28.3501 8.07571C22.4885 8.07571 22.4572 8.36349 16.5643 8.36349C10.6714 8.36349 9.13547 3.11949 4.87252 7.24434C0.609576 11.3692 6.47113 12.5843 6.47113 18.3079C6.47113 24.0315 3.27392 23.9995 3.27392 29.7232C3.27392 35.4468 6.37709 35.4148 6.37709 41.1385C6.37709 46.8621 3.46199 46.8301 3.46199 52.5537C3.46199 58.2774 2.64701 58.2454 2.64701 63.969C2.64701 69.6927 4.87252 69.6607 4.87252 75.3843C4.87252 81.108 3.30526 81.108 3.30526 86.8316C3.30526 92.5552 0.734957 94.0261 4.77848 97.9911C8.82201 101.956 10.3893 98.1829 16.2508 98.1829C22.1124 98.1829 22.1124 100.165 27.9739 100.165C33.8355 100.165 33.8355 98.5666 39.697 98.5666C45.5586 98.5666 45.5586 96.2964 51.4201 96.2964C57.2817 96.2964 57.2817 97.9911 63.1432 97.9911C69.0048 97.9911 69.0048 99.1422 74.8663 99.1422C80.7279 99.1422 80.7279 97.4795 86.5894 97.4795C92.451 97.4795 92.451 98.9183 98.3125 98.9183C104.174 98.9183 104.174 98.4707 110.036 98.4707C115.897 98.4707 115.897 100.006 121.759 100.006C127.62 100.006 127.62 98.055 133.482 98.055C139.343 98.055 139.343 96.4882 145.205 96.4882C151.066 96.4882 151.066 96.5522 156.928 96.5522C162.79 96.5522 162.79 96.8719 168.651 96.8719C174.513 96.8719 174.513 96.5202 180.374 96.5202C186.236 96.5202 186.236 99.43 192.097 99.43C197.959 99.43 197.959 100.261 203.82 100.261C209.682 100.261 209.682 99.2381 215.543 99.2381C221.405 99.2381 221.405 96.5522 227.267 96.5522C233.128 96.5522 233.128 98.6945 238.99 98.6945C244.851 98.6945 244.851 97.4475 250.713 97.4475C256.574 97.4475 256.574 98.8864 262.436 98.8864C268.297 98.8864 268.297 99.8137 274.159 99.8137C280.021 99.8137 280.02 98.2788 285.882 98.2788C291.744 98.2788 291.744 97.3835 297.605 97.3835C303.467 97.3835 303.467 98.7585 309.328 98.7585C315.19 98.7585 315.19 96.2644 321.051 96.2644C326.913 96.2644 326.913 98.087 332.774 98.087C338.636 98.087 338.636 97.0957 344.498 97.0957C350.359 97.0957 350.359 99.3021 356.221 99.3021C362.082 99.3021 362.082 96.6801 367.944 96.6801C373.805 96.6801 373.805 99.4939 379.667 99.4939C385.528 99.4939 385.528 97.9591 391.39 97.9591C397.251 97.9591 397.251 99.9096 403.113 99.9096C408.975 99.9096 408.975 98.023 414.867 98.023C420.76 98.023 420.729 97.1917 426.591 97.1917C432.452 97.1917 432.452 96.5202 438.314 96.5202C444.175 96.5202 444.175 99.5579 450.037 99.5579C455.898 99.5579 455.898 99.8137 461.76 99.8137C467.621 99.8137 467.621 99.6538 473.483 99.6538C479.344 99.6538 479.344 99.0143 485.206 99.0143C491.068 99.0143 491.068 99.9735 496.929 99.9735C502.791 99.9735 502.791 96.9998 508.684 96.9998C514.576 96.9998 514.545 99.5579 520.407 99.5579C526.268 99.5579 526.268 100.006 532.13 100.006C537.991 100.006 537.991 99.0463 543.853 99.0463C549.714 99.0463 549.714 99.0463 555.576 99.0463C561.438 99.0463 561.438 100.197 567.33 100.197C573.223 100.197 573.192 96.3603 579.085 96.3603C584.978 96.3603 584.946 99.366 590.808 99.366C596.669 99.366 596.669 96.6161 602.531 96.6161C608.393 96.6161 608.393 98.1829 614.254 98.1829C620.116 98.1829 620.116 98.119 626.009 98.119C631.901 98.119 631.87 98.119 637.732 98.119C643.593 98.119 643.593 97.7033 649.455 97.7033C655.316 97.7033 655.316 98.087 661.209 98.087C667.102 98.087 667.071 96.4243 672.964 96.4243C678.857 96.4243 678.825 100.261 684.718 100.261C690.611 100.261 690.58 99.1102 696.473 99.1102C702.365 99.1102 702.334 98.023 708.227 98.023C714.12 98.023 714.089 99.5259 719.981 99.5259C725.874 99.5259 725.843 100.357 731.736 100.357C737.629 100.357 737.597 99.1422 743.49 99.1422C749.383 99.1422 749.352 96.8399 755.245 96.8399C761.138 96.8399 761.106 99.3021 766.999 99.3021C772.892 99.3021 772.861 99.8776 778.754 99.8776C784.647 99.8776 784.615 96.8719 790.508 96.8719C796.401 96.8719 796.37 98.9823 802.262 98.9823C808.155 98.9823 808.124 99.9416 813.986 99.9416C819.847 99.9416 819.847 97.4155 825.74 97.4155C831.633 97.4155 831.602 99.5259 837.495 99.5259C843.387 99.5259 843.356 96.2644 849.249 96.2644C855.142 96.2644 855.111 96.9359 861.003 96.9359C866.896 96.9359 866.865 96.6801 872.758 96.6801C878.651 96.6801 878.619 100.325 884.512 100.325C890.405 100.325 890.374 100.325 896.267 100.325C902.16 100.325 902.128 100.261 908.021 100.261C913.914 100.261 913.883 100.261 919.776 100.261C925.669 100.261 925.637 99.0463 931.53 99.0463C937.423 99.0463 937.423 98.3748 943.284 98.3748C949.146 98.3748 949.177 97.8312 955.07 97.8312C960.963 97.8312 963.408 103.427 967.671 99.2701C971.934 95.1133 966.981 92.6511 966.981 86.9595C966.981 81.2678 968.298 81.2678 968.298 75.5442C968.298 69.8206 968.549 69.8525 968.549 64.1289C968.549 58.4053 965.665 58.4373 965.665 52.7136C965.665 46.99 966.01 47.022 966.01 41.2983C966.01 35.5747 968.329 35.6067 968.329 29.8831C968.329 24.1594 965.665 24.0315 966.699 18.4358C967.734 12.8401 970.147 11.7849 966.072 7.8199L966.354 7.692Z" fill="#F4BC1B"/>
<path d="M966.354 5.69444C962.123 1.56959 961.245 4.57529 955.384 4.57529C949.522 4.57529 949.522 4.28751 943.661 4.28751C937.799 4.28751 937.799 6.74963 931.938 6.74963C926.076 6.74963 926.076 5.47061 920.214 5.47061C914.353 5.47061 914.353 3.67998 908.491 3.67998C902.63 3.67998 902.63 4.25554 896.768 4.25554C890.907 4.25554 890.907 5.69444 885.045 5.69444C879.184 5.69444 879.184 5.40666 873.322 5.40666C867.46 5.40666 867.461 3.13639 861.599 3.13639C855.737 3.13639 855.737 4.31949 849.876 4.31949C844.014 4.31949 844.014 6.68568 838.153 6.68568C832.291 6.68568 832.291 3.74393 826.43 3.74393C820.568 3.74393 820.568 3.45615 814.707 3.45615C808.845 3.45615 808.845 2.78466 802.983 2.78466C797.122 2.78466 797.122 5.91827 791.26 5.91827C785.399 5.91827 785.399 5.72642 779.537 5.72642C773.676 5.72642 773.676 4.959 767.814 4.959C761.953 4.959 761.953 3.00849 756.091 3.00849C750.23 3.00849 750.23 4.86307 744.368 4.86307C738.506 4.86307 738.506 6.42988 732.645 6.42988C726.783 6.42988 726.783 3.16837 720.922 3.16837C715.06 3.16837 715.06 4.22356 709.199 4.22356C703.337 4.22356 703.337 6.81359 697.476 6.81359C691.614 6.81359 691.614 4.47937 685.752 4.47937C679.891 4.47937 679.891 2.78466 674.029 2.78466C668.168 2.78466 668.168 4.959 662.306 4.959C656.445 4.959 656.445 6.81359 650.583 6.81359C644.722 6.81359 644.722 5.56654 638.86 5.56654C632.999 5.56654 632.999 6.0142 627.137 6.0142C621.275 6.0142 621.275 4.06368 615.414 4.06368C609.552 4.06368 609.552 3.99973 603.691 3.99973C597.829 3.99973 597.829 6.78161 591.968 6.78161C586.106 6.78161 586.106 6.30198 580.245 6.30198C574.383 6.30198 574.383 3.7759 568.521 3.7759C562.66 3.7759 562.66 4.09566 556.767 4.09566C550.874 4.09566 550.906 4.8311 545.044 4.8311C539.182 4.8311 539.182 6.74963 533.321 6.74963C527.459 6.74963 527.459 4.7032 521.598 4.7032C515.736 4.7032 515.736 3.67998 509.875 3.67998C504.013 3.67998 504.013 6.71766 498.152 6.71766C492.29 6.71766 492.29 4.76715 486.429 4.76715C480.567 4.76715 480.567 5.21481 474.705 5.21481C468.844 5.21481 468.844 4.03171 462.951 4.03171C457.058 4.03171 457.089 5.24678 451.228 5.24678C445.366 5.24678 445.366 4.92703 439.505 4.92703C433.643 4.92703 433.643 3.23232 427.782 3.23232C421.92 3.23232 421.92 3.45615 416.059 3.45615C410.197 3.45615 410.197 3.58405 404.304 3.58405C398.411 3.58405 398.443 5.53456 392.55 5.53456C386.657 5.53456 386.688 5.15085 380.827 5.15085C374.965 5.15085 374.965 3.7759 369.104 3.7759C363.242 3.7759 363.242 5.15085 357.38 5.15085C351.519 5.15085 351.519 4.35146 345.626 4.35146C339.733 4.35146 339.764 5.56654 333.903 5.56654C328.041 5.56654 328.041 5.34271 322.18 5.34271C316.318 5.34271 316.318 6.04617 310.425 6.04617C304.532 6.04617 304.564 6.87754 298.671 6.87754C292.778 6.87754 292.809 5.95024 286.916 5.95024C281.024 5.95024 281.055 4.47937 275.162 4.47937C269.269 4.47937 269.3 4.22356 263.408 4.22356C257.515 4.22356 257.546 6.27 251.653 6.27C245.76 6.27 245.792 6.90951 239.899 6.90951C234.006 6.90951 234.037 6.23802 228.144 6.23802C222.251 6.23802 222.283 6.87754 216.39 6.87754C210.497 6.87754 210.528 3.23232 204.635 3.23232C198.742 3.23232 198.774 3.36022 192.881 3.36022C186.988 3.36022 187.019 2.91256 181.126 2.91256C175.234 2.91256 175.265 4.06368 169.372 4.06368C163.479 4.06368 163.51 5.27876 157.649 5.27876C151.787 5.27876 151.787 6.62173 145.894 6.62173C140.002 6.62173 140.033 3.16837 134.14 3.16837C128.247 3.16837 128.278 4.76715 122.386 4.76715C116.493 4.76715 116.524 5.75839 110.631 5.75839C104.738 5.75839 104.77 4.03171 98.8767 4.03171C92.9838 4.03171 93.0152 6.87754 87.1223 6.87754C81.2294 6.87754 81.2607 5.02295 75.3678 5.02295C69.4749 5.02295 69.5063 5.02295 63.6134 5.02295C57.7205 5.02295 57.7518 2.75269 51.8589 2.75269C45.9661 2.75269 45.9974 6.30198 40.1045 6.30198C34.2116 6.30198 34.2116 6.07815 28.3501 6.07815C22.4885 6.07815 22.4572 6.36593 16.5643 6.36593C10.6714 6.36593 9.13547 1.12193 4.87252 5.24678C0.609576 9.37163 6.47113 10.5867 6.47113 16.3103C6.47113 22.034 3.27392 22.002 3.27392 27.7256C3.27392 33.4493 6.37709 33.4173 6.37709 39.1409C6.37709 44.8645 3.46199 44.8326 3.46199 50.5562C3.46199 56.2798 2.64701 56.2478 2.64701 61.9715C2.64701 67.6951 4.87252 67.6631 4.87252 73.3868C4.87252 79.1104 3.30526 79.1104 3.30526 84.834C3.30526 90.5577 0.734957 92.0285 4.77848 95.9935C8.82201 99.9585 10.3893 96.1854 16.2508 96.1854C22.1124 96.1854 22.1124 98.1678 27.9739 98.1678C33.8355 98.1678 33.8355 96.5691 39.697 96.5691C45.5586 96.5691 45.5586 94.2988 51.4201 94.2988C57.2817 94.2988 57.2817 95.9935 63.1432 95.9935C69.0048 95.9935 69.0048 97.1446 74.8663 97.1446C80.7279 97.1446 80.7279 95.4819 86.5894 95.4819C92.451 95.4819 92.451 96.9208 98.3125 96.9208C104.174 96.9208 104.174 96.4731 110.036 96.4731C115.897 96.4731 115.897 98.008 121.759 98.008C127.62 98.008 127.62 96.0575 133.482 96.0575C139.343 96.0575 139.343 94.4907 145.205 94.4907C151.066 94.4907 151.066 94.5546 156.928 94.5546C162.79 94.5546 162.79 94.8744 168.651 94.8744C174.513 94.8744 174.513 94.5226 180.374 94.5226C186.236 94.5226 186.236 97.4324 192.097 97.4324C197.959 97.4324 197.959 98.2638 203.82 98.2638C209.682 98.2638 209.682 97.2405 215.543 97.2405C221.405 97.2405 221.405 94.5546 227.267 94.5546C233.128 94.5546 233.128 96.697 238.99 96.697C244.851 96.697 244.851 95.4499 250.713 95.4499C256.574 95.4499 256.574 96.8888 262.436 96.8888C268.297 96.8888 268.297 97.8161 274.159 97.8161C280.021 97.8161 280.02 96.2813 285.882 96.2813C291.744 96.2813 291.744 95.386 297.605 95.386C303.467 95.386 303.467 96.7609 309.328 96.7609C315.19 96.7609 315.19 94.2668 321.051 94.2668C326.913 94.2668 326.913 96.0894 332.774 96.0894C338.636 96.0894 338.636 95.0982 344.498 95.0982C350.359 95.0982 350.359 97.3045 356.221 97.3045C362.082 97.3045 362.082 94.6825 367.944 94.6825C373.805 94.6825 373.805 97.4964 379.667 97.4964C385.528 97.4964 385.528 95.9615 391.39 95.9615C397.251 95.9615 397.251 97.912 403.113 97.912C408.975 97.912 408.975 96.0255 414.867 96.0255C420.76 96.0255 420.729 95.1941 426.591 95.1941C432.452 95.1941 432.452 94.5226 438.314 94.5226C444.175 94.5226 444.175 97.5603 450.037 97.5603C455.898 97.5603 455.898 97.8161 461.76 97.8161C467.621 97.8161 467.621 97.6562 473.483 97.6562C479.344 97.6562 479.344 97.0167 485.206 97.0167C491.068 97.0167 491.068 97.976 496.929 97.976C502.791 97.976 502.791 95.0023 508.684 95.0023C514.576 95.0023 514.545 97.5603 520.407 97.5603C526.268 97.5603 526.268 98.008 532.13 98.008C537.991 98.008 537.991 97.0487 543.853 97.0487C549.714 97.0487 549.714 97.0487 555.576 97.0487C561.438 97.0487 561.438 98.1998 567.33 98.1998C573.223 98.1998 573.192 94.3627 579.085 94.3627C584.978 94.3627 584.946 97.3685 590.808 97.3685C596.669 97.3685 596.669 94.6186 602.531 94.6186C608.393 94.6186 608.393 96.1854 614.254 96.1854C620.116 96.1854 620.116 96.1214 626.009 96.1214C631.901 96.1214 631.87 96.1214 637.732 96.1214C643.593 96.1214 643.593 95.7057 649.455 95.7057C655.316 95.7057 655.316 96.0894 661.209 96.0894C667.102 96.0894 667.071 94.4267 672.964 94.4267C678.857 94.4267 678.825 98.2638 684.718 98.2638C690.611 98.2638 690.58 97.1126 696.473 97.1126C702.365 97.1126 702.334 96.0255 708.227 96.0255C714.12 96.0255 714.089 97.5283 719.981 97.5283C725.874 97.5283 725.843 98.3597 731.736 98.3597C737.629 98.3597 737.597 97.1446 743.49 97.1446C749.383 97.1446 749.352 94.8424 755.245 94.8424C761.138 94.8424 761.106 97.3045 766.999 97.3045C772.892 97.3045 772.861 97.8801 778.754 97.8801C784.647 97.8801 784.615 94.8744 790.508 94.8744C796.401 94.8744 796.37 96.9847 802.262 96.9847C808.155 96.9847 808.124 97.944 813.986 97.944C819.847 97.944 819.847 95.4179 825.74 95.4179C831.633 95.4179 831.602 97.5283 837.495 97.5283C843.387 97.5283 843.356 94.2668 849.249 94.2668C855.142 94.2668 855.111 94.9383 861.003 94.9383C866.896 94.9383 866.865 94.6825 872.758 94.6825C878.651 94.6825 878.619 98.3277 884.512 98.3277C890.405 98.3277 890.374 98.3277 896.267 98.3277C902.16 98.3277 902.128 98.2638 908.021 98.2638C913.914 98.2638 913.883 98.2638 919.776 98.2638C925.669 98.2638 925.637 97.0487 931.53 97.0487C937.423 97.0487 937.423 96.3772 943.284 96.3772C949.146 96.3772 949.177 95.8336 955.07 95.8336C960.963 95.8336 963.408 101.429 967.671 97.2725C971.934 93.1157 966.981 90.6536 966.981 84.9619C966.981 79.2703 968.298 79.2703 968.298 73.5466C968.298 67.823 968.549 67.855 968.549 62.1314C968.549 56.4077 965.665 56.4397 965.665 50.7161C965.665 44.9924 966.01 45.0244 966.01 39.3008C966.01 33.5772 968.329 33.6091 968.329 27.8855C968.329 22.1619 965.665 22.034 966.699 16.4382C967.734 10.8425 970.147 9.78732 966.072 5.82234L966.354 5.69444Z" fill="#F4BC1B" stroke="#231815" stroke-width="5" stroke-miterlimit="10"/>
<path d="M433.492 68.5859H427.762V35.9609H433.492V68.5859ZM415.598 38.123C417.262 38.123 418.756 38.6035 420.08 39.5645C421.416 40.5137 422.453 41.8789 423.191 43.6602C423.941 45.4414 424.316 47.5039 424.316 49.8477C424.316 52.2266 423.941 54.3125 423.191 56.1055C422.453 57.8867 421.416 59.2578 420.08 60.2188C418.756 61.168 417.262 61.6426 415.598 61.6426C413.922 61.6543 412.416 61.1797 411.08 60.2188C409.756 59.2578 408.713 57.8867 407.951 56.1055C407.189 54.3125 406.814 52.2266 406.826 49.8477C406.814 47.5039 407.189 45.4414 407.951 43.6602C408.713 41.8789 409.756 40.5137 411.08 39.5645C412.416 38.6035 413.922 38.123 415.598 38.123ZM415.598 43.2383C414.918 43.2266 414.32 43.4609 413.805 43.9414C413.301 44.4102 412.92 45.1426 412.662 46.1387C412.404 47.1348 412.281 48.3711 412.293 49.8477C412.281 51.3359 412.404 52.5781 412.662 53.5742C412.92 54.5586 413.301 55.2969 413.805 55.7891C414.309 56.2695 414.906 56.5039 415.598 56.4922C416.266 56.5039 416.846 56.2695 417.338 55.7891C417.83 55.2969 418.211 54.5586 418.48 53.5742C418.75 52.5781 418.885 51.3359 418.885 49.8477C418.885 48.3711 418.75 47.1406 418.48 46.1562C418.211 45.1719 417.83 44.4395 417.338 43.959C416.846 43.4668 416.266 43.2266 415.598 43.2383ZM440.91 47.2812C444.508 47.2695 447.344 47.1934 449.418 47.0527C451.504 46.9121 453.508 46.6367 455.43 46.2266L456.01 50.5156C454.732 50.832 453.402 51.0664 452.02 51.2188C450.637 51.3711 449.125 51.4707 447.484 51.5176C445.844 51.5645 443.652 51.5879 440.91 51.5879H438.062V47.2812H440.91ZM452.811 41.9375H443.688V49.6367H438.062V37.5605H452.811V41.9375ZM463.164 52.0098H457.504V35.9609H463.164V52.0098ZM467.225 46.2266H461.564V41.6738H467.225V46.2266ZM463.164 62.7148H446.676V65.9141H441.121V58.584H457.539V57.5645H441.086V53.1348H463.164V62.7148ZM463.938 68.1816H441.121V63.6816H463.938V68.1816ZM478.721 38.0176C480.432 38.0176 481.984 38.375 483.379 39.0898C484.773 39.793 485.869 40.7715 486.666 42.0254C487.475 43.2793 487.879 44.6797 487.879 46.2266C487.879 47.7852 487.475 49.1914 486.666 50.4453C485.869 51.6875 484.773 52.666 483.379 53.3809C481.984 54.084 480.432 54.4355 478.721 54.4355C477.021 54.4355 475.469 54.084 474.062 53.3809C472.668 52.666 471.561 51.6875 470.74 50.4453C469.932 49.1914 469.527 47.7852 469.527 46.2266C469.527 44.6797 469.932 43.2793 470.74 42.0254C471.561 40.7715 472.668 39.793 474.062 39.0898C475.469 38.375 477.021 38.0176 478.721 38.0176ZM478.721 42.8691C478.041 42.8809 477.432 43.0098 476.893 43.2559C476.354 43.502 475.926 43.8828 475.609 44.3984C475.305 44.9023 475.152 45.5117 475.152 46.2266C475.152 46.9648 475.305 47.5859 475.609 48.0898C475.926 48.582 476.354 48.9512 476.893 49.1973C477.432 49.4434 478.041 49.5723 478.721 49.584C479.424 49.5723 480.051 49.4434 480.602 49.1973C481.164 48.9512 481.604 48.582 481.92 48.0898C482.236 47.5859 482.395 46.9648 482.395 46.2266C482.395 45.5117 482.236 44.9023 481.92 44.3984C481.604 43.8828 481.164 43.502 480.602 43.2559C480.051 43.0098 479.424 42.8809 478.721 42.8691ZM495.982 68.5859H490.375V35.9609H495.982V68.5859ZM468.367 57.7754C472.152 57.7637 475.738 57.6934 479.125 57.5645C482.512 57.4238 485.717 57.1543 488.74 56.7559L489.145 60.7812C486.965 61.2148 484.703 61.543 482.359 61.7656C480.016 61.9766 477.795 62.1172 475.697 62.1875C473.6 62.2461 471.361 62.2695 468.982 62.2578L468.367 57.7754ZM535.34 56.2285H529.996V35.9609H535.34V56.2285ZM531.367 48.0898H526.674V43.5195H531.367V48.0898ZM528.52 55.2266H523.264V36.5586H528.52V55.2266ZM522.543 43.3086H507.074V38.9668H522.543V43.3086ZM514.861 43.9941C516.221 43.9941 517.445 44.2344 518.535 44.7148C519.637 45.1836 520.492 45.8574 521.102 46.7363C521.723 47.6152 522.033 48.6172 522.033 49.7422C522.033 50.8438 521.723 51.8281 521.102 52.6953C520.492 53.5508 519.637 54.2188 518.535 54.6992C517.445 55.168 516.221 55.4023 514.861 55.4023C513.514 55.4023 512.301 55.168 511.223 54.6992C510.156 54.2188 509.312 53.5508 508.691 52.6953C508.082 51.8281 507.777 50.8438 507.777 49.7422C507.777 48.6172 508.082 47.6152 508.691 46.7363C509.312 45.8574 510.156 45.1836 511.223 44.7148C512.301 44.2344 513.514 43.9941 514.861 43.9941ZM514.861 47.9844C514.451 47.9727 514.088 48.0371 513.771 48.1777C513.467 48.3066 513.227 48.5059 513.051 48.7754C512.875 49.0332 512.787 49.3555 512.787 49.7422C512.787 50.1172 512.869 50.4395 513.033 50.709C513.197 50.9668 513.438 51.166 513.754 51.3066C514.07 51.4473 514.439 51.5176 514.861 51.5176C515.283 51.5176 515.646 51.4473 515.951 51.3066C516.268 51.166 516.514 50.9668 516.689 50.709C516.865 50.4395 516.953 50.1172 516.953 49.7422C516.953 49.3555 516.865 49.0332 516.689 48.7754C516.514 48.5059 516.268 48.3066 515.951 48.1777C515.646 48.0371 515.283 47.9727 514.861 47.9844ZM517.621 42.1484H511.996V36.3125H517.621V42.1484ZM524.02 56.4219C526.387 56.4219 528.426 56.6562 530.137 57.125C531.859 57.582 533.178 58.2676 534.092 59.1816C535.018 60.0957 535.48 61.1914 535.48 62.4688C535.48 63.7461 535.018 64.8359 534.092 65.7383C533.178 66.6523 531.859 67.3438 530.137 67.8125C528.426 68.293 526.387 68.5332 524.02 68.5332C521.664 68.5332 519.625 68.293 517.902 67.8125C516.191 67.3438 514.867 66.6523 513.93 65.7383C513.004 64.8359 512.541 63.7461 512.541 62.4688C512.541 61.1914 513.004 60.0957 513.93 59.1816C514.867 58.2676 516.191 57.582 517.902 57.125C519.625 56.6562 521.664 56.4219 524.02 56.4219ZM524.02 60.5527C522.648 60.5527 521.541 60.6172 520.697 60.7461C519.854 60.8633 519.227 61.0684 518.816 61.3613C518.406 61.6426 518.201 62.0117 518.201 62.4688C518.201 62.9023 518.406 63.2539 518.816 63.5234C519.227 63.793 519.854 63.998 520.697 64.1387C521.553 64.2676 522.66 64.332 524.02 64.332C525.367 64.332 526.463 64.2676 527.307 64.1387C528.162 63.998 528.789 63.7988 529.188 63.541C529.598 63.2715 529.809 62.9141 529.82 62.4688C529.809 62 529.598 61.625 529.188 61.3438C528.789 61.0625 528.168 60.8633 527.324 60.7461C526.48 60.6172 525.379 60.5527 524.02 60.5527ZM549.877 42.4473C549.865 45.4707 549.566 48.2539 548.98 50.7969C548.406 53.3398 547.451 55.5898 546.115 57.5469C544.791 59.4922 543.051 60.9746 540.895 61.9941L537.467 57.3887C539.377 56.5566 540.912 55.3672 542.072 53.8203C543.232 52.2734 544.059 50.5449 544.551 48.6348C545.043 46.7129 545.295 44.6504 545.307 42.4473V38.2812H549.877V42.4473ZM550.949 42.4473C550.949 44.5801 551.172 46.5664 551.617 48.4062C552.074 50.2344 552.836 51.8984 553.902 53.3984C554.969 54.8867 556.393 56.0527 558.174 56.8965L554.799 61.3613C552.736 60.377 551.096 58.9414 549.877 57.0547C548.658 55.168 547.785 53 547.258 50.5508C546.73 48.1016 546.473 45.4004 546.484 42.4473V38.2812H550.949V42.4473ZM564.273 68.4805H558.613V35.9609H564.273V68.4805ZM568.686 52.8359H563.043V48.0898H568.686V52.8359Z" fill="black"/>
</svg>
