<svg width="47" height="57" viewBox="0 0 47 57" fill="none" xmlns="http://www.w3.org/2000/svg">
<path d="M29 31C34.0367 34.6207 39.1705 38.9999 44.1667 42.8164C46.4352 44.6057 43.4916 47.15 42.2088 48.1286C41.6686 48.5899 39.13 50.547 34.5794 54C29.4077 51.1622 26.113 49.3588 24.7222 48.6179C21.954 47.0382 18.0111 43.6411 16.8903 42.6765C15.7156 41.6281 11.8536 37.9375 10.6788 36.875C8.20775 34.7362 5.68269 32.6951 3.11709 30.7939C1.71276 29.7035 1.61821 28.8228 2.91451 27.5786C4.42686 26.0129 6.56036 24.0558 7.9782 22.4761C8.61284 21.7771 9.16647 21.148 9.66609 20.5888C11.5565 18.2123 14.6623 15.2906 18.9833 11.8516C23.3043 8.39864 26.275 5.78445 27.8954 4.02303C27.9764 3.93915 28.287 3.75742 28.368 3.67354C28.5166 2.82078 28.8136 1.6605 29.7588 2.09386C30.407 2.40141 30.704 2.79283 31.2172 3.32405C33.5532 5.51884 36.3484 8.3567 39.5891 11.8516C39.7647 12.0333 39.8591 12.3688 39.8591 12.8302C39.8591 13.2915 39.7647 13.641 39.5891 13.8786C37.3341 17.6531 35.025 20.505 32.635 22.4062C30.8256 23.8321 29.6238 25.1042 27.9089 26.8796L25.7484 29.1164C27.7739 30.2767 29 31 29 31Z" fill="#F4BC1B" stroke="black" stroke-width="3.53" stroke-miterlimit="10"/>
</svg>
