<svg width="48" height="57" viewBox="0 0 48 57" fill="none" xmlns="http://www.w3.org/2000/svg">
<path d="M19.4982 26.8805C17.7302 25.0911 16.5148 23.833 14.6639 22.4072C12.2192 20.492 9.85733 17.6542 7.5507 13.8799C7.37114 13.6422 7.27444 13.2927 7.27444 12.8314C7.27444 12.3701 7.37114 12.0346 7.5507 11.8529C10.8656 8.35812 13.7247 5.50637 16.1142 3.32562C16.6252 2.80839 16.9568 2.40301 17.6059 2.09547C18.5313 1.66212 18.8629 2.79441 19.0286 3.6751C19.1115 3.75898 19.4291 3.9407 19.512 4.02458C21.1695 5.79993 24.2081 8.41403 28.628 11.8529C33.0479 15.3057 36.2248 18.2134 38.1585 20.5899C40.2855 22.9384 42.8546 25.3428 45.0646 27.5794C46.3905 28.8236 46.2938 29.7043 44.8573 30.7946C40.838 33.7163 37.675 36.3164 33.9043 39.8111C30.1059 43.3479 29.9816 43.3759 25.0231 47.2201C24.4291 47.6395 23.6695 48.1008 22.7441 48.618C21.8739 49.0793 18.5037 50.8827 12.6611 54C8.00643 50.5472 5.40979 48.5901 4.85731 48.1287C3.53134 47.1362 0.534074 44.606 2.85452 42.8167C4.63629 41.4887 10.8656 36.582 12.5231 35.2679C14.222 33.9679 16.2109 32.514 18.4623 30.9344C18.559 30.8925 19.6364 30.2774 21.7082 29.1171L19.4982 26.8805Z" fill="#F4BC1B" stroke="black" stroke-width="3.53" stroke-miterlimit="10"/>
</svg>
