<svg width="34" height="40" viewBox="0 0 34 40" fill="none" xmlns="http://www.w3.org/2000/svg">
<path d="M20.8372 21.5192C24.3512 23.9562 27.9329 26.9038 31.4186 29.4725C33.0013 30.6769 30.9476 32.3894 30.0526 33.0481C29.6758 33.3586 27.9047 34.6759 24.7298 37C21.1217 35.0899 18.823 33.8761 17.8527 33.3774C15.9214 32.3142 13.1705 30.0277 12.3886 29.3784C11.569 28.6727 8.87461 26.1887 8.055 25.4736C6.33099 24.034 4.56932 22.6602 2.77937 21.3805C1.7996 20.6466 1.73363 20.0538 2.63803 19.2164C3.69316 18.1625 5.18165 16.8452 6.17083 15.782C6.61361 15.3115 6.99987 14.8881 7.34844 14.5117C8.66735 12.9121 10.8342 10.9456 13.8488 8.63088C16.8635 6.30678 18.936 4.54723 20.0665 3.36165C20.1231 3.3052 20.3398 3.18288 20.3963 3.12642C20.4999 2.55245 20.7072 1.77149 21.3666 2.06318C21.8188 2.27018 22.0261 2.53363 22.3841 2.89119C24.0139 4.36845 25.964 6.27855 28.225 8.63088C28.3475 8.7532 28.4134 8.97902 28.4134 9.28953C28.4134 9.60004 28.3475 9.83527 28.225 9.99523C26.6517 12.5357 25.0407 14.4553 23.3732 15.7349C22.1109 16.6947 21.2724 17.5509 20.076 18.7459L18.5687 20.2514C19.9818 21.0324 20.8372 21.5192 20.8372 21.5192Z" fill="#F4BC1B" stroke="black" stroke-width="3.53" stroke-miterlimit="10"/>
</svg>
