<svg width="972" height="102" viewBox="0 0 972 102" fill="none" xmlns="http://www.w3.org/2000/svg">
<path d="M966.354 7.69224C962.123 3.56739 961.245 6.5731 955.384 6.5731C949.522 6.5731 949.522 6.28532 943.661 6.28532C937.799 6.28532 937.799 8.74744 931.938 8.74744C926.076 8.74744 926.076 7.46841 920.214 7.46841C914.353 7.46841 914.353 5.67778 908.491 5.67778C902.63 5.67778 902.63 6.25334 896.768 6.25334C890.907 6.25334 890.907 7.69224 885.045 7.69224C879.184 7.69224 879.184 7.40446 873.322 7.40446C867.461 7.40446 867.461 5.1342 861.599 5.1342C855.737 5.1342 855.737 6.31729 849.876 6.31729C844.014 6.31729 844.014 8.68349 838.153 8.68349C832.291 8.68349 832.291 5.74173 826.43 5.74173C820.568 5.74173 820.568 5.45395 814.706 5.45395C808.845 5.45395 808.845 4.78246 802.983 4.78246C797.122 4.78246 797.122 7.91607 791.26 7.91607C785.399 7.91607 785.399 7.72422 779.537 7.72422C773.676 7.72422 773.676 6.9568 767.814 6.9568C761.953 6.9568 761.953 5.00629 756.091 5.00629C750.23 5.00629 750.229 6.86088 744.368 6.86088C738.506 6.86088 738.506 8.42768 732.645 8.42768C726.783 8.42768 726.783 5.16617 720.922 5.16617C715.06 5.16617 715.06 6.22137 709.199 6.22137C703.337 6.22137 703.337 8.81139 697.476 8.81139C691.614 8.81139 691.614 6.47717 685.753 6.47717C679.891 6.47717 679.891 4.78246 674.029 4.78246C668.168 4.78246 668.168 6.9568 662.306 6.9568C656.445 6.9568 656.445 8.81139 650.583 8.81139C644.722 8.81139 644.722 7.56434 638.86 7.56434C632.999 7.56434 632.999 8.012 627.137 8.012C621.275 8.012 621.275 6.06149 615.414 6.06149C609.552 6.06149 609.552 5.99754 603.691 5.99754C597.829 5.99754 597.829 8.77941 591.968 8.77941C586.106 8.77941 586.106 8.29978 580.245 8.29978C574.383 8.29978 574.383 5.77371 568.521 5.77371C562.66 5.77371 562.66 6.09346 556.767 6.09346C550.874 6.09346 550.906 6.8289 545.044 6.8289C539.182 6.8289 539.182 8.74744 533.321 8.74744C527.459 8.74744 527.459 6.701 521.598 6.701C515.736 6.701 515.736 5.67778 509.875 5.67778C504.013 5.67778 504.013 8.71546 498.152 8.71546C492.29 8.71546 492.29 6.76495 486.428 6.76495C480.567 6.76495 480.567 7.21261 474.705 7.21261C468.844 7.21261 468.844 6.02951 462.951 6.02951C457.058 6.02951 457.089 7.24458 451.228 7.24458C445.366 7.24458 445.366 6.92483 439.505 6.92483C433.643 6.92483 433.643 5.23012 427.782 5.23012C421.92 5.23012 421.92 5.45395 416.059 5.45395C410.197 5.45395 410.197 5.58185 404.304 5.58185C398.411 5.58185 398.443 7.53236 392.55 7.53236C386.657 7.53236 386.688 7.14866 380.827 7.14866C374.965 7.14866 374.965 5.77371 369.104 5.77371C363.242 5.77371 363.242 7.14866 357.38 7.14866C351.519 7.14866 351.519 6.34927 345.626 6.34927C339.733 6.34927 339.764 7.56434 333.903 7.56434C328.041 7.56434 328.041 7.34051 322.18 7.34051C316.318 7.34051 316.318 8.04397 310.425 8.04397C304.532 8.04397 304.564 8.87534 298.671 8.87534C292.778 8.87534 292.809 7.94805 286.916 7.94805C281.024 7.94805 281.055 6.47717 275.162 6.47717C269.269 6.47717 269.3 6.22137 263.408 6.22137C257.515 6.22137 257.546 8.2678 251.653 8.2678C245.76 8.2678 245.792 8.90731 239.899 8.90731C234.006 8.90731 234.037 8.23583 228.144 8.23583C222.251 8.23583 222.283 8.87534 216.39 8.87534C210.497 8.87534 210.528 5.23012 204.635 5.23012C198.742 5.23012 198.774 5.35802 192.881 5.35802C186.988 5.35802 187.019 4.91037 181.126 4.91037C175.234 4.91037 175.265 6.06149 169.372 6.06149C163.479 6.06149 163.51 7.27656 157.649 7.27656C151.787 7.27656 151.787 8.61953 145.894 8.61953C140.002 8.61953 140.033 5.16617 134.14 5.16617C128.247 5.16617 128.278 6.76495 122.386 6.76495C116.493 6.76495 116.524 7.75619 110.631 7.75619C104.738 7.75619 104.77 6.02951 98.8767 6.02951C92.9838 6.02951 93.0152 8.87534 87.1223 8.87534C81.2294 8.87534 81.2607 7.02076 75.3678 7.02076C69.4749 7.02076 69.5063 7.02076 63.6134 7.02076C57.7205 7.02076 57.7518 4.75049 51.8589 4.75049C45.9661 4.75049 45.9974 8.29978 40.1045 8.29978C34.2116 8.29978 34.2116 8.07595 28.3501 8.07595C22.4885 8.07595 22.4572 8.36373 16.5643 8.36373C10.6714 8.36373 9.13547 3.11973 4.87252 7.24458C0.609576 11.3694 6.47113 12.5845 6.47113 18.3081C6.47113 24.0318 3.27392 23.9998 3.27392 29.7234C3.27392 35.4471 6.37709 35.4151 6.37709 41.1387C6.37709 46.8623 3.46199 46.8304 3.46199 52.554C3.46199 58.2776 2.64701 58.2457 2.64701 63.9693C2.64701 69.6929 4.87252 69.6609 4.87252 75.3846C4.87252 81.1082 3.30526 81.1082 3.30526 86.8318C3.30526 92.5555 0.734957 94.0263 4.77848 97.9913C8.82201 101.956 10.3893 98.1832 16.2508 98.1832C22.1124 98.1832 22.1124 100.166 27.9739 100.166C33.8355 100.166 33.8355 98.5669 39.697 98.5669C45.5586 98.5669 45.5586 96.2966 51.4201 96.2966C57.2817 96.2966 57.2817 97.9913 63.1432 97.9913C69.0048 97.9913 69.0048 99.1424 74.8663 99.1424C80.7279 99.1424 80.7279 97.4797 86.5894 97.4797C92.451 97.4797 92.451 98.9186 98.3125 98.9186C104.174 98.9186 104.174 98.4709 110.036 98.4709C115.897 98.4709 115.897 100.006 121.759 100.006C127.62 100.006 127.62 98.0553 133.482 98.0553C139.343 98.0553 139.343 96.4885 145.205 96.4885C151.066 96.4885 151.066 96.5524 156.928 96.5524C162.79 96.5524 162.79 96.8722 168.651 96.8722C174.513 96.8722 174.513 96.5204 180.374 96.5204C186.236 96.5204 186.236 99.4302 192.097 99.4302C197.959 99.4302 197.959 100.262 203.82 100.262C209.682 100.262 209.682 99.2383 215.543 99.2383C221.405 99.2383 221.405 96.5524 227.267 96.5524C233.128 96.5524 233.128 98.6948 238.99 98.6948C244.851 98.6948 244.851 97.4477 250.713 97.4477C256.574 97.4477 256.574 98.8866 262.436 98.8866C268.297 98.8866 268.297 99.8139 274.159 99.8139C280.021 99.8139 280.021 98.2791 285.882 98.2791C291.744 98.2791 291.744 97.3838 297.605 97.3838C303.467 97.3838 303.467 98.7587 309.328 98.7587C315.19 98.7587 315.19 96.2646 321.051 96.2646C326.913 96.2646 326.913 98.0872 332.774 98.0872C338.636 98.0872 338.636 97.096 344.498 97.096C350.359 97.096 350.359 99.3023 356.221 99.3023C362.082 99.3023 362.082 96.6803 367.944 96.6803C373.805 96.6803 373.805 99.4942 379.667 99.4942C385.528 99.4942 385.528 97.9593 391.39 97.9593C397.251 97.9593 397.251 99.9098 403.113 99.9098C408.975 99.9098 408.975 98.0233 414.867 98.0233C420.76 98.0233 420.729 97.1919 426.591 97.1919C432.452 97.1919 432.452 96.5204 438.314 96.5204C444.175 96.5204 444.175 99.5581 450.037 99.5581C455.898 99.5581 455.898 99.8139 461.76 99.8139C467.621 99.8139 467.621 99.654 473.483 99.654C479.344 99.654 479.344 99.0145 485.206 99.0145C491.068 99.0145 491.068 99.9738 496.929 99.9738C502.791 99.9738 502.791 97.0001 508.684 97.0001C514.576 97.0001 514.545 99.5581 520.407 99.5581C526.268 99.5581 526.268 100.006 532.13 100.006C537.991 100.006 537.991 99.0465 543.853 99.0465C549.714 99.0465 549.714 99.0465 555.576 99.0465C561.438 99.0465 561.438 100.198 567.33 100.198C573.223 100.198 573.192 96.3605 579.085 96.3605C584.978 96.3605 584.946 99.3663 590.808 99.3663C596.669 99.3663 596.669 96.6164 602.531 96.6164C608.393 96.6164 608.393 98.1832 614.254 98.1832C620.116 98.1832 620.116 98.1192 626.009 98.1192C631.901 98.1192 631.87 98.1192 637.732 98.1192C643.593 98.1192 643.593 97.7035 649.455 97.7035C655.316 97.7035 655.316 98.0872 661.209 98.0872C667.102 98.0872 667.071 96.4245 672.964 96.4245C678.857 96.4245 678.825 100.262 684.718 100.262C690.611 100.262 690.58 99.1105 696.473 99.1105C702.365 99.1105 702.334 98.0233 708.227 98.0233C714.12 98.0233 714.089 99.5261 719.981 99.5261C725.874 99.5261 725.843 100.357 731.736 100.357C737.629 100.357 737.597 99.1424 743.49 99.1424C749.383 99.1424 749.352 96.8402 755.245 96.8402C761.138 96.8402 761.106 99.3023 766.999 99.3023C772.892 99.3023 772.861 99.8779 778.754 99.8779C784.647 99.8779 784.615 96.8722 790.508 96.8722C796.401 96.8722 796.37 98.9825 802.262 98.9825C808.155 98.9825 808.124 99.9418 813.986 99.9418C819.847 99.9418 819.847 97.4157 825.74 97.4157C831.633 97.4157 831.602 99.5261 837.495 99.5261C843.387 99.5261 843.356 96.2646 849.249 96.2646C855.142 96.2646 855.111 96.9361 861.003 96.9361C866.896 96.9361 866.865 96.6803 872.758 96.6803C878.651 96.6803 878.619 100.326 884.512 100.326C890.405 100.326 890.374 100.326 896.267 100.326C902.16 100.326 902.128 100.262 908.021 100.262C913.914 100.262 913.883 100.262 919.776 100.262C925.669 100.262 925.637 99.0465 931.53 99.0465C937.423 99.0465 937.423 98.375 943.284 98.375C949.146 98.375 949.177 97.8314 955.07 97.8314C960.963 97.8314 963.408 103.427 967.671 99.2703C971.934 95.1135 966.981 92.6514 966.981 86.9597C966.981 81.2681 968.298 81.2681 968.298 75.5444C968.298 69.8208 968.549 69.8528 968.549 64.1292C968.549 58.4055 965.665 58.4375 965.665 52.7139C965.665 46.9902 966.01 47.0222 966.01 41.2986C966.01 35.575 968.329 35.6069 968.329 29.8833C968.329 24.1597 965.665 24.0318 966.699 18.436C967.734 12.8403 970.147 11.7851 966.072 7.82014L966.354 7.69224Z" fill="#F4BC1B"/>
<path d="M966.354 5.69468C962.123 1.56983 961.245 4.57554 955.384 4.57554C949.522 4.57554 949.522 4.28776 943.661 4.28776C937.799 4.28776 937.799 6.74988 931.938 6.74988C926.076 6.74988 926.076 5.47085 920.214 5.47085C914.353 5.47085 914.353 3.68022 908.491 3.68022C902.63 3.68022 902.63 4.25578 896.768 4.25578C890.907 4.25578 890.907 5.69468 885.045 5.69468C879.184 5.69468 879.184 5.4069 873.322 5.4069C867.461 5.4069 867.461 3.13664 861.599 3.13664C855.737 3.13664 855.737 4.31973 849.876 4.31973C844.014 4.31973 844.014 6.68593 838.153 6.68593C832.291 6.68593 832.291 3.74417 826.43 3.74417C820.568 3.74417 820.568 3.45639 814.706 3.45639C808.845 3.45639 808.845 2.78491 802.983 2.78491C797.122 2.78491 797.122 5.91851 791.26 5.91851C785.399 5.91851 785.399 5.72666 779.537 5.72666C773.676 5.72666 773.676 4.95925 767.814 4.95925C761.953 4.95925 761.953 3.00873 756.091 3.00873C750.23 3.00873 750.229 4.86332 744.368 4.86332C738.506 4.86332 738.506 6.43012 732.645 6.43012C726.783 6.43012 726.783 3.16861 720.922 3.16861C715.06 3.16861 715.06 4.22381 709.199 4.22381C703.337 4.22381 703.337 6.81383 697.476 6.81383C691.614 6.81383 691.614 4.47961 685.753 4.47961C679.891 4.47961 679.891 2.78491 674.029 2.78491C668.168 2.78491 668.168 4.95925 662.306 4.95925C656.445 4.95925 656.445 6.81383 650.583 6.81383C644.722 6.81383 644.722 5.56678 638.86 5.56678C632.999 5.56678 632.999 6.01444 627.137 6.01444C621.275 6.01444 621.275 4.06393 615.414 4.06393C609.552 4.06393 609.552 3.99998 603.691 3.99998C597.829 3.99998 597.829 6.78185 591.968 6.78185C586.106 6.78185 586.106 6.30222 580.245 6.30222C574.383 6.30222 574.383 3.77615 568.521 3.77615C562.66 3.77615 562.66 4.0959 556.767 4.0959C550.874 4.0959 550.906 4.83134 545.044 4.83134C539.182 4.83134 539.182 6.74988 533.321 6.74988C527.459 6.74988 527.459 4.70344 521.598 4.70344C515.736 4.70344 515.736 3.68022 509.875 3.68022C504.013 3.68022 504.013 6.7179 498.152 6.7179C492.29 6.7179 492.29 4.76739 486.428 4.76739C480.567 4.76739 480.567 5.21505 474.705 5.21505C468.844 5.21505 468.844 4.03195 462.951 4.03195C457.058 4.03195 457.089 5.24703 451.228 5.24703C445.366 5.24703 445.366 4.92727 439.505 4.92727C433.643 4.92727 433.643 3.23256 427.782 3.23256C421.92 3.23256 421.92 3.45639 416.059 3.45639C410.197 3.45639 410.197 3.5843 404.304 3.5843C398.411 3.5843 398.443 5.53481 392.55 5.53481C386.657 5.53481 386.688 5.1511 380.827 5.1511C374.965 5.1511 374.965 3.77615 369.104 3.77615C363.242 3.77615 363.242 5.1511 357.38 5.1511C351.519 5.1511 351.519 4.35171 345.626 4.35171C339.733 4.35171 339.764 5.56678 333.903 5.56678C328.041 5.56678 328.041 5.34295 322.18 5.34295C316.318 5.34295 316.318 6.04642 310.425 6.04642C304.532 6.04642 304.564 6.87778 298.671 6.87778C292.778 6.87778 292.809 5.95049 286.916 5.95049C281.024 5.95049 281.055 4.47961 275.162 4.47961C269.269 4.47961 269.3 4.22381 263.408 4.22381C257.515 4.22381 257.546 6.27024 251.653 6.27024C245.76 6.27024 245.792 6.90976 239.899 6.90976C234.006 6.90976 234.037 6.23827 228.144 6.23827C222.251 6.23827 222.283 6.87778 216.39 6.87778C210.497 6.87778 210.528 3.23256 204.635 3.23256C198.742 3.23256 198.774 3.36047 192.881 3.36047C186.988 3.36047 187.019 2.91281 181.126 2.91281C175.234 2.91281 175.265 4.06393 169.372 4.06393C163.479 4.06393 163.51 5.279 157.649 5.279C151.787 5.279 151.787 6.62198 145.894 6.62198C140.002 6.62198 140.033 3.16861 134.14 3.16861C128.247 3.16861 128.278 4.76739 122.386 4.76739C116.493 4.76739 116.524 5.75864 110.631 5.75864C104.738 5.75864 104.77 4.03195 98.8767 4.03195C92.9838 4.03195 93.0152 6.87778 87.1223 6.87778C81.2294 6.87778 81.2607 5.0232 75.3678 5.0232C69.4749 5.0232 69.5063 5.0232 63.6134 5.0232C57.7205 5.0232 57.7518 2.75293 51.8589 2.75293C45.9661 2.75293 45.9974 6.30222 40.1045 6.30222C34.2116 6.30222 34.2116 6.07839 28.3501 6.07839C22.4885 6.07839 22.4572 6.36617 16.5643 6.36617C10.6714 6.36617 9.13547 1.12217 4.87252 5.24703C0.609576 9.37188 6.47113 10.5869 6.47113 16.3106C6.47113 22.0342 3.27392 22.0022 3.27392 27.7259C3.27392 33.4495 6.37709 33.4175 6.37709 39.1412C6.37709 44.8648 3.46199 44.8328 3.46199 50.5564C3.46199 56.2801 2.64701 56.2481 2.64701 61.9717C2.64701 67.6954 4.87252 67.6634 4.87252 73.387C4.87252 79.1106 3.30526 79.1106 3.30526 84.8343C3.30526 90.5579 0.734957 92.0288 4.77848 95.9937C8.82201 99.9587 10.3893 96.1856 16.2508 96.1856C22.1124 96.1856 22.1124 98.1681 27.9739 98.1681C33.8355 98.1681 33.8355 96.5693 39.697 96.5693C45.5586 96.5693 45.5586 94.299 51.4201 94.299C57.2817 94.299 57.2817 95.9937 63.1432 95.9937C69.0048 95.9937 69.0048 97.1449 74.8663 97.1449C80.7279 97.1449 80.7279 95.4821 86.5894 95.4821C92.451 95.4821 92.451 96.921 98.3125 96.921C104.174 96.921 104.174 96.4734 110.036 96.4734C115.897 96.4734 115.897 98.0082 121.759 98.0082C127.62 98.0082 127.62 96.0577 133.482 96.0577C139.343 96.0577 139.343 94.4909 145.205 94.4909C151.066 94.4909 151.066 94.5548 156.928 94.5548C162.79 94.5548 162.79 94.8746 168.651 94.8746C174.513 94.8746 174.513 94.5229 180.374 94.5229C186.236 94.5229 186.236 97.4326 192.097 97.4326C197.959 97.4326 197.959 98.264 203.82 98.264C209.682 98.264 209.682 97.2408 215.543 97.2408C221.405 97.2408 221.405 94.5548 227.267 94.5548C233.128 94.5548 233.128 96.6972 238.99 96.6972C244.851 96.6972 244.851 95.4502 250.713 95.4502C256.574 95.4502 256.574 96.8891 262.436 96.8891C268.297 96.8891 268.297 97.8164 274.159 97.8164C280.021 97.8164 280.021 96.2815 285.882 96.2815C291.744 96.2815 291.744 95.3862 297.605 95.3862C303.467 95.3862 303.467 96.7612 309.328 96.7612C315.19 96.7612 315.19 94.2671 321.051 94.2671C326.913 94.2671 326.913 96.0897 332.774 96.0897C338.636 96.0897 338.636 95.0984 344.498 95.0984C350.359 95.0984 350.359 97.3047 356.221 97.3047C362.082 97.3047 362.082 94.6827 367.944 94.6827C373.805 94.6827 373.805 97.4966 379.667 97.4966C385.528 97.4966 385.528 95.9618 391.39 95.9618C397.251 95.9618 397.251 97.9123 403.113 97.9123C408.975 97.9123 408.975 96.0257 414.867 96.0257C420.76 96.0257 420.729 95.1944 426.591 95.1944C432.452 95.1944 432.452 94.5229 438.314 94.5229C444.175 94.5229 444.175 97.5605 450.037 97.5605C455.898 97.5605 455.898 97.8164 461.76 97.8164C467.621 97.8164 467.621 97.6565 473.483 97.6565C479.344 97.6565 479.344 97.017 485.206 97.017C491.068 97.017 491.068 97.9762 496.929 97.9762C502.791 97.9762 502.791 95.0025 508.684 95.0025C514.576 95.0025 514.545 97.5605 520.407 97.5605C526.268 97.5605 526.268 98.0082 532.13 98.0082C537.991 98.0082 537.991 97.0489 543.853 97.0489C549.714 97.0489 549.714 97.0489 555.576 97.0489C561.438 97.0489 561.438 98.2001 567.33 98.2001C573.223 98.2001 573.192 94.363 579.085 94.363C584.978 94.363 584.946 97.3687 590.808 97.3687C596.669 97.3687 596.669 94.6188 602.531 94.6188C608.393 94.6188 608.393 96.1856 614.254 96.1856C620.116 96.1856 620.116 96.1216 626.009 96.1216C631.901 96.1216 631.87 96.1216 637.732 96.1216C643.593 96.1216 643.593 95.706 649.455 95.706C655.316 95.706 655.316 96.0897 661.209 96.0897C667.102 96.0897 667.071 94.4269 672.964 94.4269C678.857 94.4269 678.825 98.264 684.718 98.264C690.611 98.264 690.58 97.1129 696.473 97.1129C702.365 97.1129 702.334 96.0257 708.227 96.0257C714.12 96.0257 714.089 97.5286 719.981 97.5286C725.874 97.5286 725.843 98.3599 731.736 98.3599C737.629 98.3599 737.597 97.1449 743.49 97.1449C749.383 97.1449 749.352 94.8426 755.245 94.8426C761.138 94.8426 761.106 97.3047 766.999 97.3047C772.892 97.3047 772.861 97.8803 778.754 97.8803C784.647 97.8803 784.615 94.8746 790.508 94.8746C796.401 94.8746 796.37 96.985 802.262 96.985C808.155 96.985 808.124 97.9443 813.986 97.9443C819.847 97.9443 819.847 95.4182 825.74 95.4182C831.633 95.4182 831.602 97.5286 837.495 97.5286C843.387 97.5286 843.356 94.2671 849.249 94.2671C855.142 94.2671 855.111 94.9386 861.003 94.9386C866.896 94.9386 866.865 94.6827 872.758 94.6827C878.651 94.6827 878.619 98.328 884.512 98.328C890.405 98.328 890.374 98.328 896.267 98.328C902.16 98.328 902.128 98.264 908.021 98.264C913.914 98.264 913.883 98.264 919.776 98.264C925.669 98.264 925.637 97.0489 931.53 97.0489C937.423 97.0489 937.423 96.3774 943.284 96.3774C949.146 96.3774 949.177 95.8339 955.07 95.8339C960.963 95.8339 963.408 101.43 967.671 97.2728C971.934 93.1159 966.981 90.6538 966.981 84.9622C966.981 79.2705 968.298 79.2705 968.298 73.5469C968.298 67.8232 968.549 67.8552 968.549 62.1316C968.549 56.408 965.665 56.4399 965.665 50.7163C965.665 44.9927 966.01 45.0247 966.01 39.301C966.01 33.5774 968.329 33.6094 968.329 27.8857C968.329 22.1621 965.665 22.0342 966.699 16.4385C967.734 10.8428 970.147 9.78756 966.072 5.82259L966.354 5.69468Z" fill="#F4BC1B" stroke="#231815" stroke-width="5" stroke-miterlimit="10"/>
<path d="M433.492 68.5859H427.762V35.9609H433.492V68.5859ZM415.598 38.123C417.262 38.123 418.756 38.6035 420.08 39.5645C421.416 40.5137 422.453 41.8789 423.191 43.6602C423.941 45.4414 424.316 47.5039 424.316 49.8477C424.316 52.2266 423.941 54.3125 423.191 56.1055C422.453 57.8867 421.416 59.2578 420.08 60.2188C418.756 61.168 417.262 61.6426 415.598 61.6426C413.922 61.6543 412.416 61.1797 411.08 60.2188C409.756 59.2578 408.713 57.8867 407.951 56.1055C407.189 54.3125 406.814 52.2266 406.826 49.8477C406.814 47.5039 407.189 45.4414 407.951 43.6602C408.713 41.8789 409.756 40.5137 411.08 39.5645C412.416 38.6035 413.922 38.123 415.598 38.123ZM415.598 43.2383C414.918 43.2266 414.32 43.4609 413.805 43.9414C413.301 44.4102 412.92 45.1426 412.662 46.1387C412.404 47.1348 412.281 48.3711 412.293 49.8477C412.281 51.3359 412.404 52.5781 412.662 53.5742C412.92 54.5586 413.301 55.2969 413.805 55.7891C414.309 56.2695 414.906 56.5039 415.598 56.4922C416.266 56.5039 416.846 56.2695 417.338 55.7891C417.83 55.2969 418.211 54.5586 418.48 53.5742C418.75 52.5781 418.885 51.3359 418.885 49.8477C418.885 48.3711 418.75 47.1406 418.48 46.1562C418.211 45.1719 417.83 44.4395 417.338 43.959C416.846 43.4668 416.266 43.2266 415.598 43.2383ZM465.273 60.5H459.93V35.9609H465.273V60.5ZM454.463 49.1797H449.84V44.6973H454.463V49.1797ZM458.4 59.4453H453.109V36.4004H458.4V59.4453ZM443.406 43.0449H446.025V38.4219H451.211V55.1562H438.062V38.4219H443.406V43.0449ZM446.025 50.709V47.2812H443.406V50.709H446.025ZM465.994 68.041H442.791V63.541H465.994V68.041ZM448.416 66.248H442.791V57.3008H448.416V66.248ZM494.857 56.6855H471.549V52.3086H494.857V56.6855ZM497.969 65H468.297V60.4648H497.969V65ZM494.682 42.6406H477.279V53.4336H471.549V38.1055H494.682V42.6406ZM493.873 49.5312H475.645V45.1719H493.873V49.5312ZM533.23 59.498H527.57V36.0312H533.23V59.498ZM537.291 49.6016H531.666V44.9961H537.291V49.6016ZM534.18 68.041H511.662V63.541H534.18V68.041ZM517.322 65.6328H511.662V57.002H517.322V65.6328ZM516.338 37.9473C518.002 37.9473 519.531 38.3105 520.926 39.0371C522.32 39.752 523.416 40.7539 524.213 42.043C525.021 43.332 525.426 44.7734 525.426 46.3672C525.426 47.9492 525.021 49.3848 524.213 50.6738C523.416 51.9629 522.32 52.9766 520.926 53.7148C519.531 54.4414 518.002 54.8047 516.338 54.8047C514.662 54.8047 513.121 54.4414 511.715 53.7148C510.32 52.9766 509.213 51.9629 508.393 50.6738C507.584 49.3848 507.18 47.9492 507.18 46.3672C507.18 44.7734 507.584 43.332 508.393 42.043C509.213 40.7539 510.32 39.752 511.715 39.0371C513.109 38.3105 514.65 37.9473 516.338 37.9473ZM516.338 42.8516C515.658 42.8516 515.043 42.9805 514.492 43.2383C513.953 43.4961 513.52 43.8945 513.191 44.4336C512.863 44.9609 512.699 45.6055 512.699 46.3672C512.699 47.1172 512.863 47.7559 513.191 48.2832C513.52 48.7988 513.953 49.1973 514.492 49.4785C515.043 49.748 515.658 49.8828 516.338 49.8828C517.018 49.8828 517.627 49.7539 518.166 49.4961C518.717 49.2266 519.145 48.8281 519.449 48.3008C519.766 47.7617 519.924 47.1172 519.924 46.3672C519.924 45.6055 519.766 44.9609 519.449 44.4336C519.145 43.8945 518.717 43.4961 518.166 43.2383C517.627 42.9805 517.018 42.8516 516.338 42.8516ZM566.541 68.4805H561.145V35.9609H566.541V68.4805ZM562.551 52.6074H557.594V48.125H562.551V52.6074ZM559.158 66.9863H553.867V36.4355H559.158V66.9863ZM545.078 58.1621H539.436V39.3711H545.078V58.1621ZM541.738 56.0352C543.578 56.0352 545.359 55.9766 547.082 55.8594C548.816 55.7305 550.586 55.4961 552.391 55.1562L552.936 59.9727C550.932 60.3125 549.004 60.5527 547.152 60.6934C545.312 60.834 543.508 60.8984 541.738 60.8867H539.436V56.0352H541.738Z" fill="black"/>
</svg>
