<svg xmlns="http://www.w3.org/2000/svg" width="960" height="418" viewBox="0 0 960 418" fill="none">
<mask id="mask0_258_43" style="mask-type:luminance" maskUnits="userSpaceOnUse" x="0" y="0" width="960" height="418">
<path d="M960 0H0V418H960V0Z" fill="white"/>
</mask>
<g mask="url(#mask0_258_43)">
<path d="M523.693 502.242L492.643 473.047L456.895 471.914L410.218 500.55L343.146 501.542L330.477 470.068L357.774 452.157L366.293 448.102L371.786 431.673L378.346 412.545L389.454 382.483L370.868 375.716L339.791 370.291L306.755 355.623L292.99 355.805L275.773 346.255L248.38 300.352L244.847 273.687L218.399 266.892L202.566 279.294L175.337 303.428L140 274.792L144.492 227.015L166.9 184.173L200.018 149.273L243.45 131.404L269.514 145.302L280.608 120.512L309.672 73.1956L366.211 60.3878L390.481 40.0716L424.421 6.20654L465.086 -7.52404L508.038 -9.43961L533.692 -3.62299L541.334 -5.44069L547.689 -16.7384L556.578 -66.0958L560.208 -91.949L577.507 -96.8148L608.269 -38.1452L605.982 1.0331L590.395 37.2472L594.874 52.4179L608.201 60.3739L629.389 62.7788L675.738 96.6858L669.52 142.24L636.456 186.116L632.512 212.837L629.978 233.978L650.016 223.659L662.822 210.222L699.255 178.762L704.583 143.107L717.252 121.77L726.305 110.221L745.768 103.313L757.643 96.574L767.847 94.8961L784.118 83.7662L810.717 86.5487L820.948 104.6L816.702 121.7L812.977 129.432L816.25 141.275L815.127 155.845L809.867 184.676L815.908 237.921L814.346 268.933L794.349 284.691L747.192 293.528L725.278 286.845L705.952 291.417L692.79 302.449L642.894 340.243L620.678 351.848L609.885 358.098L612.693 369.662L613.871 386.776L620.13 447.193L618.582 458.91L622.185 487.812L587.875 497.222L524.008 502.899L523.734 502.297L523.693 502.242ZM263.885 234.034L276.143 250.756L287.785 256.168L292.606 245.541L287.443 237.054L277.198 218.192L271.596 202.014L258.68 207.272L262.83 220.471L263.693 233.712L263.885 234.034Z" fill="white"/>
<path d="M400.644 389.321C402.205 387.685 402.739 385.322 403.726 383.28C405.369 379.463 409.108 376.555 410.985 372.836C411.3 371.158 410.177 369.564 410.19 367.858C409.437 361.538 412.56 354.281 419.49 354.393C421.23 353.848 419.203 353.037 418.011 353.107C414.19 352.855 410.423 353.876 406.574 353.778C399 353.358 391.495 352.03 384.044 350.716C373.484 348.884 362.937 346.395 352.501 343.906C343.831 340.718 335.353 336.831 327.368 332.105C325.094 331.071 323.177 328.33 320.519 328.875C315.904 330.777 309.795 333.392 305.001 330.875C298.715 325.799 295.291 318.067 290.141 311.761C285.621 305.567 282.334 298.59 279.745 291.319C278.129 286.957 278.636 281.937 280.526 277.798C281.306 276.008 282.649 274.456 284.224 273.184C285.361 272.303 286.634 270.891 285.484 269.521C277.526 263.131 269.747 256.223 262.392 249.107C260.707 247.582 258.625 247.834 256.516 248.533C253.229 249.344 250.092 251.246 246.723 251.344C240.107 250.812 235.149 245.569 229.794 242.157C228.287 241.304 227.493 243.164 227.041 244.394C224.356 250.686 221.508 257.006 218.946 263.326C217.536 266.892 216.659 270.779 214.317 273.883C212.441 276.54 209.688 278.26 207.523 280.595C205.524 282.86 202.716 284.482 199.662 284.188C195.484 283.824 191.951 280.762 188.595 278.399C180.377 272.485 177.542 261.299 178.364 251.456C180.418 229.084 190.649 208.432 203.593 190.591C210.372 182.383 217.536 174.357 225.699 167.646C230.013 163.171 234.56 158.669 239.957 155.691C249.174 150.629 260.2 144.799 270.788 149.707C274.499 152.811 277.896 156.935 279.718 161.577C281.731 166.08 280.485 170.834 279.32 175.392C278.622 178.314 278.595 181.446 277.786 184.257C276.787 187.039 272.404 191.514 270.336 193.835C268.089 196.631 265.104 198.533 262.309 200.686C261.419 201.343 260.515 202.238 260.529 203.329C261.323 205.971 264.186 207.775 265.72 210.068C273.335 217.758 275.431 227.798 270.486 237.613C269.884 239.235 270.39 240.661 271.623 241.724C281.224 250.505 291.825 257.985 302.604 265.144C305.481 266.962 304.905 263.732 306.001 261.942C306.659 260.908 307.645 260.18 308.713 259.593C313.151 257.3 317.78 254.727 323.026 254.588C333.052 252.994 350.775 268.989 338.955 257.622C333.065 252.057 326.984 246.674 321.903 240.284C320.903 238.746 319.04 238.368 318.068 236.788C313.082 227.56 306.042 219.254 303.248 208.88C299.824 199.358 298.098 189.151 297.249 179.209C297.824 174.707 299.783 170.386 299.934 165.842C301.961 158.893 304.056 151.44 308.343 145.596C310.685 143.331 311.658 140.199 310.453 137.081C309.206 133.403 308.96 129.544 309.357 125.713C309.302 122.777 308.015 120.036 309.22 117.17C312.206 105.634 321.533 96.1404 332.983 93.5397C339.201 91.1907 345.296 88.5061 351.843 87.2477C360.417 84.9826 369.238 84.4373 378.031 84.633C379.976 84.6051 382.099 84.8288 383.742 83.6403C385.742 81.6688 388.344 80.2426 390.536 78.4808C393.7 75.2929 396.48 71.5456 399.37 68.0361C400.548 66.3023 402.424 65.3235 403.876 63.8973C405.369 62.3173 406.41 60.3318 408.026 59.0734C410.355 57.2138 411.45 54.3195 413.669 52.2781C416.148 49.3977 418.573 46.4474 421.175 43.679C424.106 41.3579 426.873 39.0229 429.68 36.6179C430.776 35.8769 432.201 35.751 433.214 34.996C434.31 34.199 434.94 32.6889 436.104 31.9199C442.514 28.1726 449.54 25.2364 456.936 24.4254C461.662 22.3141 466.62 21.1675 471.824 21.1395C479.919 19.7972 488.178 19.0702 496.396 19.7413C498.067 19.9231 499.752 19.6574 501.395 19.8112C503.272 19.979 505.011 21.2654 506.819 21.4891C508.065 21.6569 509.298 21.1955 510.544 21.1395C512.503 20.9438 514.27 22.3001 516.078 22.6916C526.761 23.3068 537.02 27.865 545.895 33.8215C548.497 35.2756 548.607 31.9618 548.169 30.228C546.224 15.3089 554.811 1.41056 557.071 -12.9492C559.742 -24.8202 561.221 -36.9009 559.838 -49.0654C559.907 -52.1555 559.29 -55.3435 559.838 -58.3637C560.317 -59.9576 562.399 -60.6288 564.029 -61.1182C565.303 -61.5236 566.632 -61.1461 567.577 -60.1534C572.959 -55.721 576.137 -49.6946 578.027 -43.0391C581.437 -35.209 584.136 -27.1273 585.368 -18.64C587.395 -7.91562 588.861 3.42401 585.752 14.0226C582.026 29.2772 569.946 41.1062 567.741 56.8083C567.741 58.0387 568.193 59.1853 568.809 60.234C572.096 65.8968 575.973 71.1122 579.356 76.7191C581.574 79.6833 583.684 84.7309 588.025 84.2695C594.463 83.2488 600.873 83.6403 607.31 84.2695C618.911 86.4507 643.455 94.3227 648.085 105.928C649.701 109.927 650.029 114.192 649.865 118.484C650.276 126.146 648.742 133.683 645.14 140.464C640.278 151.259 632.402 160.767 622.171 166.555C619.39 168.345 615.528 169.324 613.391 171.868C612.446 173.602 612.775 175.937 612.898 177.881C612.652 184.676 612.665 191.779 611.666 198.547C609.871 208.334 607.173 218.136 601.763 226.385C601.667 227.979 602.982 229.35 603.722 230.678C605.434 234.062 607.077 237.949 608.926 241.388C609.036 246.1 609.556 251.022 608.707 255.734C608.337 257.286 608.063 259.565 610.2 257.831C621.911 249.218 632.512 239.221 642.674 228.79C644.934 226.483 646.893 223.813 649.221 221.603C649.92 221.044 650.742 220.806 651.577 220.527C653.81 219.912 655.686 217.996 657.891 217.171C659.37 216.57 660.096 215.255 659.877 213.494C658.056 197.148 677.642 191.751 690.119 190.982C692.187 190.591 694.255 190.087 696.282 189.78C696.817 189.626 697.228 189.374 697.46 188.955C698.036 183.669 695.995 178.16 696.803 172.623C696.899 171.813 697.022 170.96 697.337 170.219C697.789 168.932 699.159 168.247 698.926 166.919C698.72 166.206 698.104 165.548 697.652 164.933C695.83 162.053 695.063 158.334 694.543 154.95C694.803 152.615 694.968 150.224 695.502 148.001C697.008 145.218 699.323 142.771 702.186 141.331C703.418 140.688 705.117 140.702 705.87 139.513C706.541 138.143 706.117 136.214 706.39 134.69C706.788 131.46 709.308 128.775 711.636 126.678C714.773 123.951 719.361 123.364 723.265 124.189C725.456 124.566 728.154 126.412 729.414 123.616C731.825 119.617 735.29 115.38 740.015 115.044C746.562 114.122 750 120.833 753.424 125.391C754.616 126.412 756.369 125.979 757.793 126.23C763.272 127.601 767.422 133.221 769.969 138.185C772.791 141.974 777.064 145.148 777.119 150.336C777.941 156.558 772.832 160.417 767.97 162.654C764.929 166.793 769.011 178.244 769.339 183.474C771.682 200.169 774.024 216.752 775.119 233.586C775.612 243.975 781.584 260.111 769.367 265.536C759.3 269.591 748.74 271.436 738.166 273.422C733.893 274.121 729.551 274.862 725.209 274.484C718.457 273.45 717.964 273.03 715.293 266.892C714.923 266.305 714.376 265.857 713.691 265.787C708.691 266.277 703.692 268.304 698.597 268.011C697.118 267.885 695.557 267.451 694.091 267.787C692.297 268.192 690.9 269.646 689.338 270.569C685.407 273.575 679.354 270.415 675.971 274.484C673.423 278.553 669.67 281.825 666.41 285.321C659.247 292.899 651.865 300.296 643.072 305.888C636.579 310.293 630.074 314.739 623.308 318.696C615.87 322.597 608.241 325.995 600.749 329.798C597.983 331.112 595.12 332.259 592.189 333.112C588.382 334.286 584.382 334.636 580.629 335.545C579.424 335.852 578.534 336.496 578.465 337.782C578.808 341.921 579.917 345.99 580.068 350.156C580.218 351.652 580.492 353.764 582.259 353.904C585.135 353.946 588.532 355.064 590.491 357.245C592.258 360.839 591.381 365.607 589.628 369.13C589.368 369.759 589.162 370.389 589.217 371.046C590.368 374.709 593.846 377.422 594.627 381.435C595.6 387.783 599.243 393.571 600.503 399.654C600.64 402.366 602.407 404.645 602.27 407.4C602.051 412.965 600.311 418.348 596.723 422.543C594.052 425.101 590.025 425.521 586.505 425.619C584.656 425.493 583.519 426.989 582.382 428.233C580.054 430.75 576.397 430.918 573.192 430.862C569.193 430.484 569.7 435.952 573.096 436.301C582.862 438.063 593.6 440.09 601.106 447.193C603.27 449.64 605.927 454.338 601.968 456.436C595.339 459.54 587.82 459.959 580.643 460.337C577.972 459.917 575.562 461.064 572.877 461.301C558.016 462.672 543.197 465.3 528.295 464.615C526.871 464.615 525.46 465.216 524.09 465.23C522.871 465.244 521.68 464.811 520.406 464.811C518.351 464.909 515.859 465.636 513.9 464.503C510.695 462.742 510.079 458.058 510.161 454.548C510.366 450.507 509.764 446.522 509.367 442.537C509.271 441.824 509.052 441.041 508.558 440.552C508.052 440.034 507.298 439.853 506.572 439.727C503.189 439.405 500.121 438.105 497.081 436.651C494.684 435.812 492.643 438.105 490.246 438.063C486.315 438.329 482.302 437.378 478.81 435.434C477.563 434.735 476.221 434.497 474.906 435.169C468.715 438.93 464.291 437.042 458.484 433.896C457.69 433.826 456.854 434.427 456.238 435.001C452.376 438.608 448.321 442.244 444.377 445.879C441.185 448.759 437.967 451.556 435.419 454.925C432.625 459.106 428.79 462.728 423.49 462.728C404.465 462.909 385.564 464.601 366.553 465.091C360.842 464.867 353.994 465.482 350.748 459.651C349.994 458.533 349.556 457.428 349.939 456.296C356.76 444.69 370.238 439.223 383.058 438.301C386.646 437.364 387.208 433.029 388.413 429.995C389.454 427.688 390.933 425.535 391.947 423.256C392.467 422.109 392.371 420.879 391.974 419.704C390.33 414.349 391.837 407.665 395.453 403.443C397.795 399.052 396.466 392.886 400.603 389.377L400.726 389.237L400.644 389.321ZM355.103 271.408C354.98 271.129 354.774 270.933 354.473 270.947C354.268 270.947 354.185 271.198 354.322 271.254C354.569 271.352 354.857 271.338 355.117 271.38C355.404 271.646 355.363 272.247 356.034 272.289C355.678 271.954 355.391 271.688 355.089 271.422L355.103 271.408ZM357.897 273.338C356.459 273.1 358.075 274.275 358.431 274.792C359.664 276.134 360.719 277.532 361.897 278.959C363.074 280.441 364.745 279.993 366.252 279.448C364.047 277.001 360.582 275.589 358.089 273.422L357.911 273.338H357.897ZM398.644 409.455C398.192 409.889 398.247 411.72 398.357 412.545C398.274 416.6 401.685 417.579 405.177 417.201C406.081 417.215 407.04 417.677 407.917 417.425C408.396 417.313 408.711 417.061 408.999 416.698C409.369 416.195 409.999 416.083 410.533 415.831C410.752 415.635 410.889 415.412 410.492 415.23C409.245 414.796 407.889 414.433 406.629 413.985C404.561 413.3 402.424 412.475 400.822 410.923C400.26 410.434 399.315 409.693 398.74 409.469H398.644V409.455ZM639.196 123.811C639.332 120.609 639.305 117.282 639.332 114.052C639.415 113.255 639.168 111.717 638.196 111.982C637.525 112.206 637.045 112.863 636.538 113.353C634.785 115.24 632.32 116.373 630.334 118.051C629.06 119.057 627.553 119.575 626.348 120.707C622.897 124.357 618.007 125.629 614.062 128.439C607.721 133.138 599.503 134.284 592.08 136.521C587.231 137.752 582.246 137.933 577.356 138.675C574.192 139.08 571.165 140.143 567.988 140.338C559.277 141.163 550.757 142.198 542.115 142.771C534.02 142.813 525.857 142.911 517.776 142.408C516.598 142.254 515.448 142.464 514.284 142.659C512.462 143.023 510.531 142.086 508.627 142.31C505.833 142.939 503.231 141.807 500.423 141.681C496.615 142.31 493.04 141.709 489.205 141.681C475.564 141.513 462.018 140.073 448.458 139.29C438.816 137.947 429.133 136.395 419.518 134.983C399.863 132.69 380.647 128.132 361.568 122.847C352.816 120.735 344.009 118.764 335.435 115.967C331.449 114.639 327.601 112.905 324.149 110.193C323.368 109.535 322.273 109.326 321.711 110.444C321.314 111.101 321.013 111.926 320.711 112.654C320.273 113.772 319.958 114.877 319.739 116.065C318.821 120.833 318.698 125.825 318.506 130.635C319.876 135.011 321.369 139.639 324.396 143.247C326.888 146.029 328.313 149.888 331.709 151.566C332.367 152.07 333.038 152.783 333.75 153.342C335.654 154.628 336.681 157.187 338.859 158.166C341.859 159.983 344.639 162.137 348.118 163.046C357.473 165.842 367.06 168.96 376.059 173.029C384.331 176.021 392.59 179.531 401.479 179.838C409.108 180.314 416.135 183.949 423.681 184.634C430.215 185.529 436.926 185.026 443.5 185.361C451.088 185.823 458.69 187.025 466.264 186.857C473.441 186.969 480.631 186.983 487.808 186.648C494.533 186.522 501.34 186.871 508.079 185.921C522.186 184.536 536.499 183.781 550.237 179.936C554.223 179.88 557.975 178.692 561.92 178.035C567.604 177.643 573.233 177.238 578.78 175.783C583.56 175.014 588.08 173.253 592.751 172.008C594.011 171.645 595.216 171.141 596.353 170.456C600.188 168.107 603.831 165.339 608.05 163.773C612.049 162.319 615.323 159.438 619.295 157.788C620.034 157.453 620.746 157.047 621.349 156.502C624.431 153.104 628.17 150.238 630.827 146.421C635.374 139.807 638.387 132.131 639.182 124.091V123.853L639.196 123.811ZM363.129 93.7355C352.295 94.2668 341.667 98.2238 331.764 102.81C331.244 103.048 330.545 103.439 330.395 103.901C330.134 104.558 331.381 105.215 332.504 105.634C352.076 111.801 372.224 115.827 392.056 120.931C410.724 123.322 429.461 126.16 448.239 128.244C475.632 130.075 503.052 131.837 530.528 131.404C549.566 130.789 568.933 128.565 587.601 124.58C592.847 123.35 598.216 123.098 603.256 121.057C613.693 117.184 623.568 111.703 632.635 105.355C633.895 104.18 633.059 103.243 631.649 102.656C626.074 100.055 620.02 98.2797 614.254 96.0146C609.734 94.2528 604.872 93.3999 600.092 92.8406C599.12 92.8406 592.792 91.1907 594.422 93.8334C598.188 96.8675 602.859 99.5381 607.57 100.447C613.008 102.237 620.568 99.7059 624.088 105.509C625.321 108.151 622.061 109.773 620.144 110.724C618.815 111.213 617.322 111.157 615.925 111.046C611.994 110.682 608.022 110.584 604.119 109.787C594.613 107.592 587.19 101.356 581.136 93.9173C578.246 90.5475 574.986 87.4714 572.548 83.7242C571.165 81.7107 570.398 79.3337 569.015 77.3343C566.947 74.9293 565.015 72.4685 563.276 69.8118C562.18 68.6932 560.632 68.3157 560.263 66.7078C559.592 62.583 557.181 59.0035 554.812 55.6757C551.47 51.5789 547.936 47.2724 543.58 44.1823C539.376 41.5956 535.212 39.1068 530.678 37.1492C517.201 32.2415 502.751 29.9624 488.466 30.3119C486.247 30.5636 484.22 30.3259 481.974 30.2C477.591 30.7873 473.249 30.8292 468.88 31.6962C454.361 34.0452 439.843 37.7505 429.201 48.8664C411.67 66.8616 397.644 89.8065 374.525 100.978C368.731 103.761 362.294 105.159 355.925 105.383C354.199 105.495 352.514 104.879 351.419 103.425C349.529 101.314 351.665 98.7691 353.706 97.8323C355.24 97.0213 357.007 97.0353 358.514 96.4341C360.267 95.735 362.17 94.5744 363.937 94.0291C365.211 93.5397 363.937 93.6796 363.335 93.7635L363.129 93.7914V93.7355ZM377.839 183.446C377.552 183.767 377.524 184.369 377.565 184.858C377.894 188.801 378.894 192.632 379.784 196.435C380.359 198.784 380.551 201.133 381.524 203.343C382.044 204.573 382.455 205.845 382.77 207.146C383.345 209.928 385.235 212.235 384.592 215.032C383.783 217.618 380.537 218.29 379.346 220.695C375.634 227.07 366.156 229.979 359.815 226.064C355.459 222.918 351.378 219.464 348.022 215.297C347.502 214.682 346.94 214.109 346.241 213.745C342.598 212.459 338.667 211.942 335.202 209.984C330.641 207.355 324.19 203.315 325.08 197.176C325.943 194.618 329.669 195.722 331.271 197.218C336.01 200.966 341.174 203.776 347.241 203.636C351.898 203.301 356.76 204.084 361.253 202.294C362.335 201.832 363.581 201.735 364.622 201.357C367.046 200.183 368.594 196.967 367.622 194.38C365.718 189.304 366.279 183.6 364.376 178.594C363.8 177.559 362.677 177.126 361.595 176.832C358.527 175.867 355.5 174.162 352.213 173.714C346.365 172.26 339.859 170.26 334.75 167.086C330.641 163.339 326.45 159.676 321.999 156.348C319.958 154.782 317.766 151.846 315 152.433C314.315 152.657 313.808 153.328 313.493 153.999C312.274 156.488 311.206 159.117 310.713 161.899C309.754 165.716 309.316 169.561 309.329 173.476C309.014 176.035 308.754 178.608 308.521 181.139C307.891 183.53 306.467 185.991 307.001 188.619C309.288 204.349 318.342 217.493 327.121 230.147C329.367 233.418 332.093 236.243 334.682 239.263C342.119 247.191 350.638 253.846 359.459 260.041C365.088 264.473 370.799 268.682 376.757 272.625C395.357 283.153 415.628 290.396 436.337 295.318C447.171 297.122 458.169 297.807 469.113 298.785C471.263 298.66 472.934 300.379 474.988 300.505C475.865 300.533 476.742 300.351 477.604 300.254C479.536 299.932 481.371 300.575 483.234 300.421C489.507 299.694 495.834 299.121 502.107 298.632C509.052 298.156 516.05 297.667 522.926 296.632C527.227 295.765 531.39 294.171 535.65 293.179C539.54 292.493 543.621 291.99 547.552 291.207C554.798 288.606 562.139 286.775 569.111 284.006C578.465 279.895 587.697 274.428 593.764 265.871C594.915 264.221 596.394 262.809 597.462 261.061C599.53 257.692 600.147 253.623 600.051 249.694C599.955 241.626 595.285 235.18 591.477 228.483C590.45 226.148 592.285 224.022 592.984 221.869C594.805 215.745 597.024 209.732 598.147 203.384C599.736 197.134 601.832 190.814 601.119 184.271C601.092 182.677 601.708 181.125 601.366 179.559C601.092 178.818 600.421 178.902 599.585 179.181C598.161 179.754 596.641 180.188 595.12 180.523C583.999 184.48 572.329 185.501 560.701 186.997C550.853 188.661 541.101 190.968 531.144 191.863C520.83 192.66 510.586 193.863 500.327 194.995C484.124 195.093 467.798 195.82 451.65 194.38C442.815 193.303 433.94 193.932 425.106 193.233C419.819 192.632 414.724 191.178 409.56 189.961C402.055 188.116 394.248 188.381 386.92 185.781C384.427 184.872 381.921 184.089 379.373 183.376C378.757 183.208 378.236 183.152 377.935 183.348L377.826 183.432L377.839 183.446ZM758.56 163.801C758.232 163.563 757.711 163.577 757.081 163.703C751.575 164.807 746.11 165.982 740.563 166.835C732.729 168.205 724.497 168.471 717.211 172.26C713.8 174.203 710.088 174.819 706.267 175.168C703.843 175.588 706.185 182.215 706.185 184.033C707.856 192.8 709.417 201.581 710.951 210.362C712.883 219.758 714.923 229.126 718.019 238.2C719.114 241.682 719.334 245.331 719.662 248.981C719.936 252.085 720.525 265.955 724.757 264.837C734.126 263.005 743.234 260.362 752.493 258.055C756.259 257.034 759.615 254.895 763.272 253.539C766.121 252.7 765.792 250.113 765.655 247.526C763.614 232.943 763.327 218.276 762.368 203.566C761.505 194.1 760.04 184.662 759.122 175.21C758.834 171.854 759.149 168.415 759.04 165.101C759.012 164.556 758.903 164.136 758.643 163.885L758.533 163.787L758.56 163.801ZM441.487 381.561C441.281 381.211 440.679 381.071 440.254 380.987C438.405 380.596 436.789 380.036 434.926 380.092C432.036 379.631 429.201 379.239 426.284 378.792C424.188 378.233 422.134 377.687 420.12 376.876C418.833 376.303 417.395 376.387 416.518 377.631C413.19 382.05 411.272 387.321 408.533 392.103C405.917 396.703 403.15 403.261 410.793 404.212C419.435 406.016 428.133 407.148 436.857 408.379C452.526 410.658 467.894 415.468 483.727 415.999C492.438 416.978 501.409 416.894 510.01 418.278C512.202 418.376 515.174 417.607 517.735 417.551C520.365 417.327 522.844 417.453 525.446 416.838C536.581 416.139 547.662 413.79 558.66 412C563.249 410.28 568.166 409.749 572.631 408.337C578.15 406.239 583.93 405.121 589.121 402.212C591.162 401.234 591.806 399.849 590.806 397.78C589.45 394.424 588.204 391.208 587.546 387.727C586.916 383.35 584.738 379.477 581.794 376.303C580.164 374.164 577.739 375.031 575.589 375.618C571.768 376.387 567.851 376.876 563.961 377.604C562.81 377.841 561.345 378.191 561.208 379.575C561.427 385.224 565.55 392.676 558.962 396.13C556.743 397.99 554.565 400.437 551.648 401.276C547.333 402.856 542.786 403.191 538.348 403.471C536.143 403.275 534.335 404.45 532.034 404.533C529.172 404.897 526.295 405.456 523.433 405.414C519.557 406.253 515.64 406.631 511.709 406.295C509.284 406.617 506.915 407.414 504.244 407.456C490.37 407.134 476.577 406.099 462.935 403.359C455.95 401.443 442.487 401.737 438.213 395.305C436.446 391.166 439.693 386.972 441.281 383.099C441.446 382.651 441.733 382.092 441.542 381.672L441.473 381.547L441.487 381.561ZM236.259 171.659C235.711 171.379 234.93 172.19 234.464 172.623C231.013 176.161 227.452 179.629 223.973 183.222C220.521 186.312 220.96 189.71 221.11 193.904C220.973 195.484 221.028 197.064 221.316 198.63C221.905 202.028 221.645 205.566 222.37 208.935C222.494 209.649 222.603 210.376 222.494 211.089C221.686 214.78 217.782 213.494 215.947 211.117C214.139 209.089 213.372 206.447 213.221 203.678C213.016 202.28 213.235 197.568 211.317 200.868C208.017 206.055 205.25 211.075 202.305 216.108C201.716 217.185 201.196 218.387 201.072 219.604C200.935 220.806 201.155 222.037 201.456 223.225C203.168 229.07 203.223 235.18 204.442 241.095C204.853 242.479 204.154 243.737 202.853 244.213C201.374 244.87 199.812 245.247 198.744 244.422C198.182 244.003 197.731 243.444 197.361 242.842C195.676 239.85 195.868 236.341 194.827 233.111C194.608 231.894 194.046 231.195 193.32 232.663C191.704 235.963 191.033 239.682 190.444 243.304C189.814 247.988 189.088 252.714 190.115 257.398C191.704 262.907 194.553 270.318 200.785 271.282C203.579 270.723 206.072 268.416 207.592 266.095C211.523 256.377 215.755 246.785 219.891 237.18C221.001 234.495 222.316 231.852 223.466 229.224C225.302 226.721 227.507 224.568 229.013 221.771C230.629 219.38 231.766 216.919 233.821 214.948C234.738 213.41 234.985 211.69 236.382 210.515C238.505 208.292 240.231 205.356 242.847 203.944C244.668 203.161 245.244 201.119 246.627 199.833C248.668 197.834 251.475 197.134 253.681 195.484C254.516 194.646 254.804 193.275 255.667 192.338C256.557 191.374 257.653 190.689 258.68 189.822C263.282 185.949 268.117 181.796 269.706 175.742C271.486 170.065 272.349 160.165 264.432 159.494C258.173 157.774 252.16 160.976 246.846 163.857C244.449 164.849 244.682 166.919 244.586 169.184C243.888 174.078 244.175 179.111 245.024 183.949C245.668 187.598 240.998 192.352 238.409 188.186C236.615 184.844 236.149 180.845 236.396 177.084C236.327 175.364 236.957 173.323 236.327 171.743L236.245 171.673L236.259 171.659ZM665.054 248.114C661.904 249.372 660.48 253.874 659.617 257.02C659.302 257.999 659.055 259.369 658.056 259.817C656.85 260.278 654.673 259.929 653.563 258.936C650.057 254.657 651.016 246.506 655.549 243.276C657.658 242.059 658.357 239.599 660.137 238.06C663.493 235.614 667.027 233.628 668.876 229.559C670.807 226.539 668.122 223.519 664.917 224.036C660.644 224.861 656.001 226.539 653.084 229.825C652.276 231.069 651.769 232.496 650.783 233.614C648.441 236.439 645.619 238.927 642.948 241.416C641.414 243.248 640.264 245.779 637.894 246.66C635.991 247.149 635.292 248.449 634.046 249.987C630.457 253.315 626.992 256.741 623.253 259.901C622.253 260.81 622.582 262.068 623.294 263.061C624.828 265.27 625.239 267.829 625.389 270.471C625.417 272.233 626.43 273.645 628.005 274.358C642.784 282.762 633.416 284.887 638.99 291.151C640.305 292.605 641.853 292.493 643.236 291.193C649.619 286.187 655.741 280.86 661.918 275.589C676.765 264.123 665.096 269.423 665.452 249.736C665.465 249.246 665.479 248.407 665.164 248.17L665.068 248.128L665.054 248.114ZM562.646 296.912C562.728 298.869 564.454 300.687 565.166 302.533C568.385 309.859 572.548 316.795 574.973 324.485C575.26 325.464 575.808 326.442 576.808 326.708C578.109 327.072 579.588 326.862 580.89 326.512C584.533 325.352 588.272 324.247 591.806 322.709C600.092 318.654 608.283 314.194 616.514 310.139C618.815 309.104 617.582 307.538 616.72 305.93C614.254 301.344 611.077 297.178 609.337 292.2C607.433 287.362 605.05 282.748 602.722 278.12C602.023 276.484 600.777 276.246 599.421 277.337C591.313 282.65 583.423 288.732 574.795 292.983C571.329 294.101 567.631 294.297 564.221 295.765C563.495 296.017 562.879 296.311 562.673 296.744L562.618 296.898L562.646 296.912ZM384.592 298.422C384.372 298.632 384.277 299.009 384.249 299.485C384.208 302.435 384.235 305.357 384.235 308.14C384.359 311.985 383.962 316.012 384.112 319.913C384.4 324.904 384.701 329.896 384.619 334.916C384.619 335.755 384.619 336.789 385.112 337.432C386.235 338.691 388.303 338.425 389.824 338.873C398.822 340.942 407.985 341.459 417.176 341.487C418.285 341.445 419.764 341.641 420.641 340.942C421.367 340.285 421.243 338.775 421.271 337.95C421.271 332.748 420.463 327.533 421.353 322.36C422.106 317.536 422.558 312.67 423.942 308.028C424.147 307.007 425.01 305.497 424.325 304.602C422.627 303.749 420.12 304.63 418.23 304.546C406.616 305.329 395.836 299.457 384.687 298.324L384.564 298.422H384.592ZM757.465 136.2C756.835 136.353 756.314 137.402 755.547 138.073C754.917 138.647 754.136 139.094 753.301 139.262C751.972 139.569 750.699 138.856 749.589 138.157C748.452 137.528 747.425 136.759 747.069 135.403C746.74 134.158 746.275 132.816 745.987 131.516C745.727 129.838 745.549 128.342 744.549 127.097C743.7 126.021 743.001 124.147 741.467 124.273C736.92 125.629 737.714 132.103 737.454 135.948C737.413 136.969 737.166 137.947 736.441 138.73C734.14 141.093 731.784 140.59 729.154 138.996C726.812 138.227 726.949 135.291 725.072 134.06C722.58 132.55 716.827 131.795 716.183 135.78C715.882 138.619 715.718 141.569 717.074 144.184C717.759 145.61 718.799 146.854 719.594 148.196C721.21 150.839 717.964 152.825 715.54 152.671C712.828 152.461 710.746 150.14 708.212 149.441C701.912 148.742 701.419 157.243 703.405 161.759C707.966 171.519 714.047 164.164 720.772 162.654C733.071 159.27 746.384 159.564 758.396 155.23C759.889 154.922 761.382 155.481 762.875 155.23C766.628 154.698 769.928 153.244 768.477 148.728C767.942 146.547 765.231 147.511 763.847 146.323C762.012 145.33 760.985 143.61 761.231 141.485C761.354 139.402 760.245 137.905 758.766 136.647C758.437 136.367 758.04 136.13 757.643 136.172L757.492 136.2H757.465ZM528.007 395.948C531.664 395.934 535.061 394.62 538.8 394.466C544.169 393.599 551.045 393.865 554.948 389.53C555.195 388.999 555.222 388.356 555.126 387.769C554.606 385.42 554.003 382.889 552.743 380.819C552.059 379.925 550.922 379.771 549.867 379.813C546.196 379.981 542.567 379.967 538.924 380.26C536.047 380.4 533.253 381.197 530.418 381.644C527.336 381.924 523.994 381.98 520.803 382.33C515.544 382.987 510.353 384.077 505.066 384.343C486.877 385.056 468.578 384.203 450.499 382.903C449.39 382.847 448.075 382.19 447.226 383.099C446.294 384.315 446.144 386.161 445.87 387.643C445.486 390.467 449.088 390.034 450.896 390.551C458.854 392.131 466.784 393.921 474.797 395.221C488.315 397.598 501.998 397.976 515.598 397.43C519.625 396.48 523.871 396.27 527.775 395.976H528.007V395.948ZM353.72 305.092C353.829 303.525 352.419 302.141 352.131 300.645C351.474 298.52 351.501 296.325 352.199 294.227C352.761 292.13 354.706 290.27 354.391 288.047C353.898 285.041 351.022 283.391 348.912 281.573C341.201 275.687 333.805 269.213 325.478 264.207C323.889 263.089 322.368 264.445 320.725 264.851C316.397 265.759 314.767 270.443 313.219 274.107C310.685 280.119 310.343 286.411 318.725 285.363C322.314 284.566 325.532 282.86 329.162 281.923C330.669 281.447 332.257 281.336 333.805 281.615C337.12 282.286 340.599 282.72 343.721 284.09C346.009 285.446 344.05 289.292 343.584 291.361C342.201 294.87 337.681 294.493 334.641 294.353C333.709 294.549 335.627 296.045 335.887 296.464C337.626 298.478 339.873 300.1 340.681 303.008C341.187 304.938 341.379 307.119 340.475 308.937C339.503 310.712 337.681 312.264 335.764 313.047C334.12 313.579 332.49 311.719 331.066 310.461C330.586 310.013 330.189 309.608 329.696 309.3C329.477 309.174 329.313 309.16 329.217 309.272C328.915 309.608 329.272 311.3 329.148 312.488C329.011 315.229 327.902 317.871 327.327 320.444C327.107 321.479 327.587 322.374 328.546 322.835C335.668 326.079 343.036 328.847 350.706 331.043C352.254 331.546 352.843 330.805 352.912 329.281C352.912 326.974 355.103 325.282 354.733 323.045C354.555 322.402 354.035 321.842 353.542 321.367C352.062 320.066 350.98 318.514 350.2 316.739C348.118 313.019 349.707 308.825 352.761 306.35C353.172 305.972 353.514 305.623 353.665 305.231L353.72 305.064V305.092ZM443.076 434.33C442.569 433.575 440.665 433.169 439.802 432.456C437.775 431.323 436.625 427.129 433.721 428.443C426.475 431.1 413.806 436.93 410.314 426.555C409.547 424.43 407.602 425.311 405.986 425.507C403.78 425.731 401.534 425.437 399.356 425.297C396.836 425.563 396.823 429.072 396.261 431.044C395.604 434.749 394.33 438.44 393.659 442.146C393.316 444.774 390.919 446.704 388.372 446.732C380.989 447.137 373.361 448.578 366.909 452.409C365.964 452.996 361.705 454.856 364.581 455.023C368.06 455.093 371.69 455.135 375.21 454.925C385.55 454.31 396.069 455.247 406.314 453.989C408.355 453.933 410.409 454.66 412.45 454.156C416.587 453.01 420.969 453.905 425.092 452.94C426.065 452.563 426.804 451.738 427.462 450.913C429.872 447.683 432.584 444.718 435.501 441.964C437.871 439.685 440.336 437.56 442.747 435.336C443.048 435.015 443.213 434.721 443.144 434.455L443.089 434.33H443.076ZM560.564 47.8317C561.249 47.608 561.482 46.6292 561.728 45.972C562.769 42.7561 564.399 39.722 565.906 36.6738C570.836 28.0887 575.63 19.1401 577.507 9.36647C579.862 -0.407139 577.561 -10.3485 576.096 -20.0103C575.356 -26.3163 571.795 -31.4757 569.85 -37.5021C569.33 -38.7605 569.193 -38.397 569.22 -37.1106C569.439 -25.3795 567.042 -14.0398 564.139 -2.82606C561.893 2.73888 560.852 8.80718 558.633 14.442C557.345 17.8118 556.4 21.3213 556.044 24.9287C555.674 30.5496 555.085 36.2124 556.126 41.7914C556.469 43.8747 557.825 45.4267 559.153 47.0207C559.468 47.3703 559.92 47.8597 560.4 47.8457L560.55 47.8177L560.564 47.8317ZM515.338 437.182C514.571 442.104 517.708 446.83 518.214 451.779C518.351 455.387 519.255 455.541 522.597 455.443C531.048 454.967 539.554 455.065 547.895 453.695C549.552 453.527 551.264 453.807 552.908 453.555C554.469 453.29 555.976 452.632 557.551 452.465C561.112 452.073 564.687 452.255 568.261 451.947C574.288 451.5 580.369 450.437 586.464 450.563C590.313 450.004 587.135 448.508 585.437 447.892C583.519 447.026 581.369 446.914 579.205 446.382C576.246 445.669 573.37 444.649 570.357 444.103C566.262 443.796 564.18 439.643 564.536 435.77C564.522 435.127 564.865 433.351 564.125 433.393C562.084 434.497 560.153 436.483 557.701 436.832C553.072 437.825 548.566 436.735 544.169 435.56C533.253 431.827 537.376 444.858 517.913 437.56C517.16 437.294 516.146 436.609 515.448 437.07L515.352 437.168L515.338 437.182ZM419.545 361.678C419.038 362.041 418.97 362.852 419.025 363.467C419.545 367.914 425.818 369.34 429.365 370.808C430.612 371.144 431.844 370.766 432.858 370.962C433.899 371.102 434.543 371.256 435.543 371.242C438.241 370.892 440.72 372.262 443.226 373.087C444.5 373.493 445.924 373.94 447.171 373.451C447.938 373.283 447.965 373.255 448.568 373.339C449.65 373.605 450.746 374.583 451.951 374.681C457.21 375.199 462.634 375.716 467.921 375.157C471.646 375.199 475.646 376.107 479.796 376.135C481.59 376.345 483.275 375.646 485.028 375.436C488.082 375.143 491.123 375.828 494.136 375.87C496.588 376.387 498.861 374.947 501.258 375.814C501.888 375.898 502.518 376.052 503.162 376.01C504.203 375.898 505.271 375.157 506.189 375.199C507.244 375.157 508.339 375.828 509.558 375.59C511.626 375.366 513.681 374.486 515.722 373.94C520.337 373.912 524.926 373.563 529.363 372.136C532.692 371.004 536.171 370.263 539.622 369.69C541.512 369.718 543.443 370.137 545.265 369.326C547.772 368.221 550.086 368.865 552.825 368.893C554.318 368.753 555.359 368.012 556.66 368.221C557.332 368.305 558.016 368.473 558.688 368.375C559.934 368.221 561.016 367.396 562.221 367.061C567.864 365.733 574.096 366.879 579.397 364.055C580.999 362.978 578.89 362.922 577.972 362.894C575.384 362.824 572.822 361.706 570.165 361.859C568.316 361.943 566.508 362.363 564.687 362.684C558.058 363.859 551.497 365.173 544.758 365.173C537.198 365.733 529.719 367.355 522.241 367.942C513.654 368.166 504.929 367.438 496.41 368.571C494.328 368.459 492.219 367.76 490.096 367.816C488.452 367.774 486.863 368.515 485.384 368.235C484.288 368.082 483.234 367.662 482.111 367.676C479.522 367.886 476.947 368.823 474.276 368.599C472.989 368.613 471.742 368.054 470.482 367.928C469.455 367.802 468.455 368.249 467.551 368.221C466.497 368.249 465.593 367.886 464.524 367.718C460.224 367.257 455.69 366.949 451.43 366.488C450.184 366.474 448.992 366.921 447.773 366.753C446.322 366.572 444.884 365.621 443.418 365.383C437.309 365.271 431.324 364.181 425.38 363.09C423.832 362.852 422.216 362.321 420.791 361.692C420.353 361.538 419.997 361.482 419.723 361.58L419.6 361.65L419.545 361.678ZM692.119 234.928C692.119 228.399 691.379 221.743 688.38 215.857C687.859 214.906 687.174 213.913 686.216 213.438C684.531 212.711 682.805 213.871 681.189 214.333C679.408 215.004 677.148 215.507 676.176 217.185C675.519 218.304 675.669 219.758 676.135 220.946C679.285 227.979 676.82 235.879 671.958 241.388C670.793 243.206 671.3 245.457 671.779 247.429C672.944 251.4 672.834 255.692 674.423 259.523C674.847 261.187 676.381 261.998 677.957 262.306C681.23 263.243 684.887 261.858 687.051 259.3C689.434 256.615 689.927 252.728 690.585 249.4C690.996 246.576 691.475 243.891 692.091 241.221C692.201 239.235 692.064 237.11 692.132 235.152V234.914L692.119 234.928ZM302.947 279.518C302.632 279.266 302.125 279.294 301.687 279.308C299.728 279.504 297.975 278.539 296.153 278.987C294.948 279.462 294.25 280.86 292.853 280.902C291.004 281.112 288.333 281.056 287.771 282.944C286.854 286.887 289.428 290.816 291.127 294.241C294.893 300.883 299.29 307.161 303.796 313.299C306.07 315.886 307.973 321.996 312.151 320.864C317.013 319.605 321.574 313.761 319.917 308.545C319.287 305.469 318.643 302.365 317.219 299.541C316.862 298.841 316.342 298.212 315.63 297.905C315.137 297.667 314.562 297.555 314 297.457C308.74 296.52 303.823 291.375 303.371 285.866C303.084 284.118 303.029 282.175 303.207 280.259C303.207 279.993 303.139 279.784 303.029 279.63L302.933 279.532L302.947 279.518ZM504.614 351.261C504.997 350.128 506.709 349.821 507.6 349.052C509.175 348.087 512.161 344.004 508.901 343.151C504.641 342.256 501.464 345.934 497.382 347.15C494.547 348.478 491.643 346.675 488.972 345.402C487.096 344.577 484.699 342.592 482.686 343.822C481.891 344.354 481.823 345.444 482.097 346.311C482.672 348.464 484.74 349.289 486.124 350.702C486.425 351.149 486.192 351.485 485.781 351.778C484.631 352.407 483.343 353.135 482.412 354.155C481.59 355.358 478.385 357.371 479.905 358.825C480.727 359.538 481.796 360.433 482.905 360.112C485.028 359.063 487.493 357.917 489.698 356.812C493.273 354.309 497.067 355.26 500.642 357.455C503.71 358.588 507.709 360.349 511.01 360.056C512.64 359.566 512.9 357.357 511.777 356.183C510.134 354.253 507.791 353.079 505.463 352.072C505.175 351.918 504.696 351.666 504.628 351.387L504.6 351.261H504.614ZM374.36 335.209C374.703 334.79 374.579 333.965 374.497 333.378C372.662 321.353 373.593 309.286 373.443 297.429C373.114 296.814 372.306 296.758 371.621 296.716C369.443 296.716 367.498 295.765 365.622 294.801C364.54 294.255 363.116 293.822 362.143 294.801C359.568 297.681 364.636 298.841 366.594 299.708C368.389 300.268 370.402 300.729 371.155 302.323C372.278 304.155 372.703 306.532 370.662 307.608C367.649 309.118 364.335 309.929 361.157 310.992C358.062 311.887 358.445 313.621 361.445 314.837C363.02 315.55 364.855 315.522 366.471 316.137C368.567 316.879 369.662 319.577 369.553 321.786C369.306 323.618 367.252 324.247 365.718 324.723C363.307 325.478 361.294 327.561 360.91 330.05C360.897 331.364 361.801 332.511 362.732 333.364C364.595 334.902 367.238 334.664 369.484 335.181C370.895 335.307 373.004 336.034 374.237 335.363L374.347 335.251L374.36 335.209ZM505.477 329.714C505.97 328.554 507.764 328.386 508.832 327.701C511.079 326.68 512.503 323.366 509.188 322.737C507.271 321.996 505.271 322.975 503.559 323.884C501.34 324.862 499.067 325.855 496.779 326.694C495.41 327.142 494.068 326.61 492.712 326.065C489.534 325.156 486.315 322.681 482.946 323.632C476.385 325.799 485.151 327.631 486.137 330.302C486.329 330.819 486.041 331.252 485.603 331.532C484.138 332.315 481.96 332.776 481.179 334.538C479.467 338.859 485.439 337.81 487.671 336.719C490.479 335.321 493.479 333.937 496.67 334.552C500.683 335.111 505.696 338.998 509.421 335.475C510.161 334.468 509.353 332.287 507.97 331.434C507.257 330.875 505.874 330.693 505.504 329.84V329.714H505.477ZM453.444 307.958C453.184 308.377 453.663 309.58 454.129 310.307C454.772 311.244 456.005 311.649 456.882 312.558C458.648 314.697 460.361 316.739 462.607 318.417C464.442 319.997 466.168 321.688 467.907 323.366C469.291 324.876 470.797 325.617 472.455 323.996C477.015 320.067 481.576 316.165 486.083 312.25C486.548 311.831 487.329 311.118 487.247 310.545C487.165 310.027 486.329 309.901 485.809 309.859C475.495 308.979 465.1 309.734 454.54 307.748C454.06 307.678 453.69 307.678 453.512 307.86L453.43 307.958H453.444ZM539.047 301.931C537.335 301.414 535.28 302.589 533.513 302.84C529.377 303.707 525.049 304.141 521.173 306.042C516.365 307.371 511.462 307.063 506.518 308.098C505.627 308.279 505.504 308.587 506.107 309.062C507.641 310.461 509.312 311.593 511.051 312.782C513.133 314.823 515.352 316.627 517.817 318.137C518.845 319.13 519.516 320.947 521.146 320.668C522.063 320.528 522.953 319.731 523.625 319.046C526.953 315.494 530.226 311.985 533.39 308.377C535.075 306.42 537.088 304.672 538.787 302.715C539.019 302.421 539.129 302.183 539.088 302.015L539.047 301.931ZM617.473 280.93C617.062 280.637 616.815 280.063 616.405 279.504C615.747 278.707 615.323 277.812 615.624 276.763C616.487 273.422 616.952 269.577 615.446 266.389C614.35 265.48 613.241 267.283 612.309 267.759C611.227 268.612 609.488 269.129 609.241 270.248C609.159 270.639 609.241 271.073 609.433 271.534C611.679 276.19 613.994 280.86 616.336 285.432C618.747 290.718 621.911 295.598 625.102 300.435C627.06 303.567 630.485 301.414 632.361 299.373C633.662 297.793 631.484 296.464 629.964 296.618C628.047 296.856 626.526 295.374 626.211 293.542C626.061 292.242 626.485 290.872 626.841 289.501C627.759 286.887 627.389 284.719 625.129 283.419C623.116 282.119 621.102 281.308 618.843 281.238C618.445 281.21 617.952 281.182 617.637 281L617.487 280.902L617.473 280.93ZM261.912 232.761C266.706 230.706 264.117 222.638 261.378 219.618C258.269 216.626 255.872 213.018 252.749 210.068C251.914 209.201 250.955 209.746 250.311 210.515C248.695 212.347 246.764 213.703 244.942 215.409C244.6 215.773 244.271 216.192 244.381 216.682C244.641 217.562 245.627 218.262 246.271 218.905C251.106 223.379 255.982 227.881 260.803 232.314C261.104 232.565 261.405 232.747 261.72 232.775H261.912V232.761ZM666.835 211.802C667.862 211.173 668.821 209.411 670.04 208.698C673.231 206.279 677.135 205.678 680.723 204.419C681.559 204.14 682.435 204 683.326 204.042C686.736 204.126 690.379 205.23 692.625 208.152C693.297 208.879 693.817 209.984 694.79 210.222C696.063 210.446 697.364 209.816 698.652 209.802C699.487 209.718 700.364 209.607 700.775 209.061C701.104 208.656 701.158 208.083 701.117 207.551C700.884 205.552 700.638 203.706 700.159 201.693C699.857 200.532 699.46 199.274 698.036 199.358C694.885 199.567 692.023 200.169 688.927 199.861C685.969 199.693 683.161 200.714 680.381 201.567C675.847 202.448 671.862 204.699 668.629 208.11C667.739 208.838 666.356 210.837 666.78 211.788L666.849 211.816L666.835 211.802ZM237.834 224.875C236.861 225.462 236.272 226.847 235.574 227.728C234.944 228.86 233.725 230.202 233.821 231.615C233.958 232.174 234.629 232.705 235.095 233.125C237.806 235.362 240.655 237.473 243.586 239.473C246.737 241.71 250.599 241.71 253.544 239.417C254.324 238.284 252.16 236.97 251.558 236.131C247.476 231.908 243.175 227.574 238.012 224.847L237.848 224.875H237.834ZM698.926 259.481C702.638 258.223 706.459 257.398 710.321 256.349C711.691 256.042 712.02 255.105 711.664 253.791C710.869 250.323 710.088 246.911 709.294 243.458C709.157 242.926 708.993 242.311 708.555 242.004C707.445 241.444 706.117 242.297 704.966 242.423C703.952 242.703 702.761 242.647 701.802 243.15C701.336 243.444 701.145 243.947 701.021 244.492C700.391 249.302 699.994 254.336 698.857 259.411L698.94 259.481H698.926ZM416.956 416.852C417.176 418.082 417.449 419.173 417.326 420.571C417.258 422.682 419.038 425.493 421.312 424.975C422.832 424.332 424.12 423.563 425.777 423.507C429.242 423.186 432.201 421.27 435.296 419.816C435.652 419.634 435.967 419.425 435.406 419.285C429.338 418.544 423.079 416.908 417.011 416.754L416.956 416.852ZM543.69 426.681C545.662 428.974 549.141 427.45 551.716 428.401C554.113 429.478 555.62 429.939 557.469 427.576C562.386 419.578 568.001 423.885 575.247 423.158C577.109 422.934 577.342 420.935 578.137 419.48C578.438 418.879 579.849 417.215 578.15 417.831C566.974 422.529 554.907 423.256 543.704 426.583V426.681H543.69ZM701.09 234.817C701.693 234.719 703.117 234.048 703.952 233.964C704.898 233.782 706.13 233.684 706.459 232.901C706.883 230.3 705.582 227.63 705.021 225.099C704.377 222.918 703.761 220.387 703.227 218.262C703.103 217.87 702.966 217.562 702.761 217.479C702.24 217.283 701.473 217.786 700.967 217.982C700.131 218.387 698.871 218.919 699.2 220.051C699.392 220.764 699.885 221.533 700.022 222.261C700.35 224.26 700.2 226.329 700.83 228.259C700.515 230.021 701.062 231.754 701.158 233.502C701.158 234.006 700.953 234.579 701.049 234.747L701.117 234.803L701.09 234.817ZM372.498 208.027C369.019 210.166 366.06 212.431 362.075 213.312C361.513 213.578 360.075 213.214 360.061 213.983C361.664 216.374 364.608 218.821 367.635 217.521C369.252 216.821 371.005 216.472 372.141 215.074C372.881 213.717 374.141 212.012 373.648 210.418C373.319 209.718 373.045 208.642 372.635 208.069L372.511 208.027H372.498ZM441.802 420.249C441.185 425.059 445.924 427.45 449.773 426.304C451.937 425.703 454.183 424.528 455.854 423.074C455.923 422.948 455.854 422.836 455.676 422.752C451.184 421.592 446.472 420.487 441.898 420.138L441.788 420.249H441.802ZM522.501 346.591C523.844 346.549 525.638 346.241 526.679 345.291C527.46 344.452 528.062 342.9 527.24 341.879C526.843 341.459 526.241 341.348 525.706 341.208C523.775 340.732 521.625 339.963 519.844 340.858C516.735 342.872 519.036 346.871 522.323 346.591H522.501ZM535.472 427.59C530.665 427.52 525.391 428.751 520.392 428.583C518.68 428.415 517.749 429.701 519.913 430.079C521.913 430.303 523.994 430.624 525.734 431.449C527.021 432.12 528.679 432.47 529.884 431.449C531.459 429.827 533.65 428.932 535.431 427.66L535.458 427.576L535.472 427.59ZM524.57 355.162C523.132 355.721 520.721 355.26 519.954 357.064C519.598 358.588 520.488 360.545 522.159 360.713C524.624 361.174 528.186 359.678 528.254 356.868C527.802 355.637 525.816 355.526 524.734 355.148H524.57V355.162ZM593.34 411.413C590.724 412.489 588.203 414.111 585.766 415.104C583.78 415.901 581.205 415.985 579.602 417.509C581.629 417.229 584.204 416.936 586.382 417.523C590.463 418.404 593.299 415.062 593.422 411.483L593.34 411.413ZM465.702 359.301C467.25 358.867 469.414 358.839 470.126 357.022C470.701 355.302 469.044 353.19 467.222 353.526C465.25 353.708 463.1 355.358 463.237 356.938C463.223 358.154 464.333 359.427 465.538 359.343L465.702 359.315V359.301ZM468.715 340.047C466.962 339.991 465.113 341.599 465.305 343.487C465.483 344.703 467.51 345.318 468.524 345.64C469.099 345.696 469.729 345.165 470.29 344.983C470.797 344.773 471.331 344.591 471.701 344.186C473.358 342.312 470.838 339.921 468.907 340.047H468.715ZM462.867 424.137C463.73 425.059 465.127 426.066 465.99 427.087C466.565 427.786 467.25 428.891 468.318 428.849C469.975 428.821 471.359 427.758 472.824 427.059C473.098 426.905 473.386 426.681 473.564 426.402C473.728 425.926 473.208 425.353 473.413 424.878C473.427 424.57 472.934 425.185 472.55 425.423C469.441 425.381 465.976 424.668 462.881 424.109L462.853 424.151L462.867 424.137ZM482.453 426.989C482.453 428.96 484.754 429.072 486.192 429.394C486.726 429.492 487.192 430.009 487.617 430.177C488.082 430.275 488.712 430.051 489.055 429.771C489.767 429.128 491.027 428.793 491.287 427.73C491.205 427.492 490.589 427.562 490.219 427.506C487.699 427.338 485.028 426.989 482.549 426.905L482.467 427.003L482.453 426.989ZM509.791 429.086C507.298 428.863 504.545 427.898 502.094 428.793C504.148 431.184 507.846 432.26 509.819 429.17L509.791 429.1V429.086Z" fill="#161716"/>
<path d="M780.447 114.947C780.529 117.757 779.625 121.98 777.174 123.755C772.804 126.608 766.723 125.867 763.053 122.343C760.313 119.505 758.944 115.31 757.574 111.689C756.081 104.222 765.326 101.873 770.969 102.642C776.667 103.411 780.954 108.99 780.447 114.723V114.947ZM764.217 111.157C764.765 112.024 766.312 111.926 767.134 112.458C768.326 113.087 768.983 114.136 769.298 115.548C769.49 116.541 769.997 117.198 770.846 117.533C771.462 117.813 772.366 117.813 772.503 116.974C772.777 114.415 772.613 111.591 770.764 109.633C769.723 109.13 768.476 109.745 767.326 109.745C766.312 109.913 765.011 110.151 764.203 111.018V111.157H764.217Z" fill="#161716"/>
<path d="M400.164 389.167V389.083L400.205 389.153L400.164 389.167Z" fill="#161716"/>
<path d="M377.935 183.362C378.237 183.166 378.757 183.222 379.373 183.39C381.921 184.103 384.441 184.9 386.92 185.795C394.248 188.395 402.068 188.144 409.56 189.975C414.724 191.192 419.819 192.646 425.106 193.247C428.818 193.681 432.543 193.597 436.269 193.597C445.897 193.457 455.43 195.177 465.072 195.177C478.221 194.995 491.438 195.722 504.559 194.632C513.366 193.261 522.255 192.744 531.144 191.877C541.115 190.982 550.853 188.675 560.701 187.011C572.329 185.529 584.013 184.494 595.12 180.537C596.641 180.216 598.161 179.782 599.585 179.195C600.435 178.916 601.092 178.832 601.366 179.573C601.791 181.167 601.024 182.649 601.119 184.285C601.832 190.828 599.736 197.148 598.147 203.398C597.024 209.746 594.805 215.773 592.984 221.883C592.299 224.022 590.45 226.162 591.477 228.497C595.271 235.18 599.969 241.64 600.051 249.708C600.161 253.637 599.544 257.706 597.462 261.075C588.258 275.225 574.151 283.447 558.263 287.67C554.962 288.411 551.922 289.865 548.73 290.913C544.443 291.976 539.924 292.396 535.637 293.179C531.377 294.171 527.213 295.765 522.913 296.632C516.037 297.667 509.038 298.156 502.094 298.632C495.821 299.135 489.479 299.708 483.22 300.421C481.371 300.575 479.536 299.932 477.591 300.254C476.728 300.352 475.851 300.533 474.975 300.505C472.92 300.366 471.249 298.66 469.099 298.786C458.156 297.807 447.171 297.122 436.323 295.318C415.628 290.396 395.343 283.153 376.744 272.625C370.799 268.668 365.074 264.473 359.445 260.041C350.611 253.846 342.105 247.191 334.668 239.263C326.943 230.79 320.684 221.114 314.863 211.229C311.617 205.174 309.097 198.812 307.686 192.059C307.179 189.864 306.577 187.64 307.111 185.403C307.508 183.53 308.563 182.062 308.631 180.188C309.343 174.12 309.152 167.869 310.686 161.899C311.179 159.117 312.233 156.488 313.466 153.999C313.795 153.328 314.274 152.657 314.973 152.433C317.739 151.832 319.958 154.796 321.971 156.348C327.135 159.914 331.408 164.751 336.558 168.289C341.626 170.414 346.776 172.596 352.186 173.714C355.473 174.162 358.5 175.867 361.568 176.832C362.65 177.126 363.759 177.559 364.348 178.594C366.266 183.865 365.814 189.794 367.786 195.121C368.307 197.064 367.307 198.812 366.06 200.322C365.047 201.567 363.581 201.595 362.143 202C358.431 203.608 354.35 203.566 350.446 203.538C343.324 204.405 336.764 201.846 331.244 197.232C328.642 194.869 323.889 194.855 325.026 199.609C326.245 204.615 331.025 207.621 335.161 209.998C338.64 211.956 342.557 212.473 346.201 213.759C346.913 214.123 347.474 214.696 347.981 215.311C351.816 219.814 356.322 224.176 361.554 227.015C367.211 229.168 374.593 227.001 378.319 222.191C379.141 221.058 379.812 219.758 380.88 218.835C381.989 217.856 383.647 217.087 384.304 215.717C385.592 212.795 383.318 210.138 382.729 207.188C382.4 205.887 381.989 204.615 381.483 203.384C380.51 201.189 380.318 198.826 379.743 196.477C378.853 192.674 377.853 188.829 377.524 184.9C377.47 184.411 377.511 183.809 377.798 183.488L377.908 183.404L377.935 183.362ZM491.356 282.412C496.273 282.175 500.669 278.106 504.943 275.813C511.49 271.632 517.749 263.732 516.078 255.468C515.092 253.008 512.804 251.232 510.777 249.638C506.203 246.366 500.259 247.82 495.232 249.442C492.506 250.183 490.068 252.532 487.343 253.036C485.316 253.147 483.302 251.232 481.262 250.659C474.893 248.449 467.14 247.233 461.128 251.05C451.595 259.328 452.403 270.471 463.853 276.078C472.194 280.678 481.823 281.294 491.123 282.398H491.356V282.412ZM464.387 202.462C463.812 201.259 464.839 199.637 464.415 198.337C464.1 196.365 461.004 195.554 459.553 196.729C458.347 197.638 458.224 199.358 457.717 200.686C457.06 202.643 455.334 203.636 453.444 204.223C444.596 206.279 436.994 215.773 437.049 225.071C437.734 229.531 437.09 234.145 438.323 238.494C439.802 241.962 440.487 246.072 442.925 249.023C445.24 251.581 449.184 253.902 452.841 253.315C455.279 252.141 458.142 251.637 460.32 249.931C461.306 249.079 461.799 247.848 462.128 246.604C462.881 243.779 464.25 241.123 464.634 238.102C466.168 228.93 463.566 217.507 454.088 213.997C451.321 210.543 466.332 210.515 468.058 209.76C472.153 208.446 469.332 205.468 466.921 204.056C466.058 203.468 464.949 203.231 464.483 202.615L464.387 202.476V202.462ZM536.527 204.601C536.034 203.65 536.787 202.35 536.609 201.287C536.65 199.609 534.445 198.057 532.925 198.617C530.089 200.169 530.131 204.615 527.419 206.265C522.83 208.404 518.174 210.487 515.694 215.353C510.736 223.253 510.503 235.809 516.434 243.318C517.639 244.702 518.667 246.464 520.324 247.191C522.913 248.058 525.542 249.162 528.528 248.505C533.692 247.331 537.91 243.066 538.376 237.585C538.896 230.496 539.403 220.401 534.322 214.948C532.774 213.55 533.445 212.948 535.637 212.864C538.636 212.571 542.389 214.598 544.772 211.914C545.936 210.306 544.923 207.481 543.197 206.433C541.334 205.118 538.54 205.538 536.623 204.713L536.527 204.601Z" fill="#5BCAE5"/>
<path d="M362.595 94.1969C361.678 95.1896 359.788 95.7769 358.527 96.3921C355.706 97.217 351.72 97.6085 350.734 101.062C350.488 104.236 354.254 105.802 356.925 105.327C363.924 104.935 370.813 103.146 377.031 99.6919C398.85 88.0167 412.396 66.0506 429.42 48.6566C440.761 36.8556 456.909 33.4719 472.332 31.1089C475.591 30.7733 478.618 30.6335 481.768 30.1721C484.097 30.228 486.206 30.5496 488.507 30.2699C501.094 29.8365 513.613 31.8919 525.734 35.3455C533.021 37.6526 539.937 41.3439 546.019 46.014C551.305 50.9218 556.236 56.5007 559.332 63.0584C559.962 64.4566 559.948 66.1624 560.674 67.5047C561.249 68.5114 562.482 68.861 563.331 69.7838C565.399 73.2514 568.07 75.6005 569.987 78.8164C571.713 82.6755 574.069 86.1571 576.959 89.1912C584.711 98.014 591.71 106.781 603.681 109.647C608.064 110.626 612.515 110.696 616.98 111.087C619.856 111.353 623.322 109.745 624.404 106.991C624.568 106.096 624.034 105.047 623.267 104.264C619.103 99.9995 612.734 102.111 607.612 100.433C604.229 99.8317 600.983 98.2797 598.052 96.3082C584.163 88.4921 611.433 94.4905 614.296 95.9866C620.048 98.2517 626.116 100.027 631.69 102.628C632.416 102.95 633.484 103.593 633.306 104.376C632.8 105.662 631.129 106.375 630.047 107.2C617.829 114.919 604.64 122.441 590.066 124.035C570.59 128.384 550.47 130.761 530.569 131.404C503.094 131.837 475.673 130.075 448.28 128.244C429.503 126.16 410.766 123.322 392.098 120.931C371.991 115.66 351.392 111.815 331.655 105.257C330.162 104.572 330.011 103.677 331.367 103.048C338.394 99.608 345.543 97.0073 353.104 95.2036C356.021 94.5464 359.774 93.3719 362.636 94.1409V94.1969H362.595Z" fill="#FECE13"/>
<path d="M638.963 124.552C639.141 124.706 639.154 125.112 639.1 125.643C638.045 133.054 635.155 140.185 630.936 146.295C628.279 150.126 624.54 152.992 621.458 156.39C620.856 156.935 620.144 157.341 619.404 157.676C615.418 159.34 612.145 162.221 608.146 163.675C603.913 165.255 600.284 168.023 596.435 170.372C595.298 171.057 594.093 171.561 592.833 171.924C588.176 173.169 583.643 174.93 578.862 175.7C573.302 177.154 567.686 177.573 561.988 177.951C558.044 178.608 554.305 179.81 550.305 179.866C536.554 183.725 522.241 184.48 508.12 185.865C501.381 186.829 494.574 186.466 487.836 186.592C480.659 186.927 473.468 186.913 466.277 186.801C458.69 186.955 451.074 185.767 443.486 185.291C436.912 184.956 430.201 185.473 423.654 184.564C418.805 184.047 414.039 182.593 409.327 181.097C404.862 179.852 400.082 179.74 395.494 179.111C384.578 177.084 374.538 171.84 364.115 168.149C358.13 165.982 352.117 164.22 346.2 162.263C343.42 161.354 341.283 159.424 338.777 158.04C336.435 156.893 335.312 154.153 333.148 152.783C332.107 151.734 331.148 151.035 329.888 150.364C328.231 148.854 327.176 146.924 325.847 145.05C323.245 141.834 320.67 138.339 319.67 134.228C319.396 132.62 318.273 131.236 318.369 129.642C318.876 124.846 318.575 119.701 319.917 114.988C320.287 113.94 321.67 117.365 322.108 117.659C327.655 124.133 335.75 127.251 343.721 129.069C354.624 131.39 365.06 135.375 376.059 137.304C383.605 139.541 391.317 140.94 399 142.576C409.286 145.288 419.846 146.085 430.447 147.693C440.884 149.679 451.266 151.692 461.908 151.328C481.152 151.58 500.546 154.88 519.721 152.377C532.733 152.643 545.566 152.125 558.578 151.356C562.18 150.853 565.673 149.888 569.343 149.818C585.245 147.637 600.188 141.303 615.144 135.528C620.459 133.375 625.828 131.278 630.991 128.747C633.347 127.573 635.703 126.188 637.867 124.79C638.319 124.524 638.661 124.385 638.88 124.482L638.963 124.538V124.552Z" fill="#FECE13"/>
<path d="M758.671 163.899C758.931 164.15 759.027 164.57 759.068 165.115C759.177 168.429 758.876 171.854 759.15 175.224C760.054 184.676 761.533 194.114 762.396 203.58C763.355 218.29 763.629 232.957 765.683 247.54C765.806 250.113 766.162 252.742 763.3 253.553C759.643 254.909 756.287 257.048 752.521 258.069C743.248 260.376 734.154 263.019 724.785 264.837C720.526 265.983 719.951 251.945 719.69 248.981C719.362 245.331 719.143 241.696 718.047 238.2C714.965 229.126 712.911 219.744 710.979 210.362C709.445 201.581 707.87 192.8 706.213 184.033C705.857 181.922 705.501 179.866 705.241 177.671C705.117 176.525 705.131 175.476 706.295 175.168C710.021 174.847 713.897 174.176 717.239 172.26C724.525 168.485 732.743 168.205 740.591 166.835C746.138 165.968 751.603 164.807 757.109 163.703C757.739 163.591 758.26 163.577 758.588 163.801L758.698 163.899H758.671ZM741.523 180.593C740.701 180.523 739.838 181.922 739.427 183.04C738.961 184.62 739.906 186.494 739.906 188.214C739.838 190.661 739.263 193.108 739.372 195.554C740.084 210.026 742.906 224.302 744.769 238.662C745.536 241.416 745.577 247.96 749.412 247.554C754.137 246.883 752.973 242.255 752.589 238.83C752.137 225.253 748.33 212.026 745.919 198.742C744.591 194.715 745.974 181.446 741.701 180.593H741.55H741.523ZM719.457 187.067C715.828 187.752 718.978 195.051 718.992 197.61C720.197 204.797 721.074 212.026 722.005 219.254C723.731 227.084 726.593 234.579 728.251 242.437C728.867 245.695 730.99 248.897 734.209 249.82C736.797 250.001 737.756 246.198 737.811 244.255C737.824 241.682 736.085 239.375 735.811 236.872C735.647 234.285 734.236 232.146 733.688 229.657C732.647 224.777 731.072 219.995 729.387 215.325C728.552 207.048 727.1 198.365 723.265 190.926C722.512 189.137 722.046 186.815 719.69 187.067H719.471H719.457Z" fill="#FECE13"/>
<path d="M638.798 123.797C633.402 128.719 625.786 131.096 619.198 134.074C605.748 139.429 592.312 145.12 578.287 148.504C571.74 150.182 565.084 150.406 558.509 151.748C545.511 152.531 532.691 153.048 519.694 152.783C500.546 155.299 481.152 151.972 461.922 151.734C451.28 152.111 440.911 150.07 430.475 148.071C418.86 146.407 407.396 145.26 396.124 142.24C389.385 141.037 382.729 139.471 376.127 137.584C371.58 136.507 366.95 135.78 362.485 134.41C351.104 130.089 338.284 129.754 327.943 122.833C324.163 120.162 318.643 116.051 321.41 110.934C322.067 109.34 323.053 109.13 324.176 110.053C327.628 112.793 331.476 114.555 335.448 115.897C349.282 120.358 363.691 123 377.565 127.251C384.989 128.551 392.179 130.942 399.671 132.089C405.328 133.179 410.93 133.907 416.586 134.69C428.694 136.297 440.761 138.8 452.951 139.835C468.701 140.492 484.685 142.715 500.409 141.89C503.217 142.016 505.819 143.163 508.613 142.52C511.106 142.45 513.448 143.359 515.872 142.617C525.323 142.855 534.856 143.331 544.32 142.841C555.277 141.723 566.453 141.177 577.328 138.842C587.436 138.003 597.394 135.64 606.995 132.257C610.556 131.306 613.364 128.803 616.473 126.915C619.911 125.238 623.54 123.49 626.321 120.679C627.334 119.701 628.581 119.183 629.731 118.414C631.909 116.582 634.58 115.282 636.511 113.241C637.045 112.751 637.497 112.08 638.168 111.856C639.25 111.591 639.277 113.157 639.305 113.94C639.127 117.1 639.661 120.553 638.894 123.63L638.798 123.811V123.797Z" fill="white"/>
<path d="M441.555 381.686C441.747 382.106 441.473 382.665 441.295 383.113C439.692 386.972 436.474 391.18 438.227 395.319C442.459 401.723 456.032 401.471 462.949 403.373C476.591 406.099 490.383 407.134 504.258 407.47C506.928 407.428 509.298 406.631 511.722 406.309C515.653 406.645 519.57 406.267 523.446 405.428C527.87 405.33 532.472 404.645 536.787 403.541C541.786 403.303 546.826 403.037 551.661 401.289C555.304 400.185 557.674 396.885 560.728 394.844C564.125 391.726 562.344 386.916 561.66 382.959C561.098 380.204 560.468 378.079 563.974 377.604C567.864 376.89 571.781 376.387 575.603 375.618C577.424 375.241 579.479 374.178 581.108 375.632C583.423 377.883 585.341 380.61 586.532 383.672C587.833 388.468 588.696 393.18 590.833 397.78C591.737 399.835 591.285 401.206 589.148 402.212C583.957 405.121 578.177 406.225 572.658 408.337C568.494 409.693 563.933 410.112 559.619 411.692C549.346 413.901 538.827 415.272 528.404 416.726C525.693 416.6 523.282 417.439 520.625 417.397C517.365 417.397 514.105 417.886 510.887 418.348C499.053 416.824 487.055 416.418 475.153 415.44C462.346 413.594 449.691 410.336 436.871 408.379C428.146 407.148 419.449 406.015 410.806 404.212C403.273 403.289 405.848 396.759 408.547 392.103C411.286 387.321 413.19 382.05 416.532 377.631C417.422 376.401 418.805 376.303 420.134 376.876C422.147 377.687 424.215 378.233 426.297 378.792C429.215 379.239 432.05 379.631 434.94 380.092C436.816 380.036 438.405 380.596 440.268 380.987C440.678 381.071 441.295 381.197 441.5 381.561L441.569 381.686H441.555Z" fill="#FECE13"/>
<path d="M236.355 171.729C236.985 173.323 236.355 175.364 236.423 177.07C236.177 180.537 236.615 184.117 237.985 187.305C239.711 191.723 244.244 189.514 244.956 185.683C245.148 184.76 245.066 183.851 244.915 182.942C244.066 178.44 243.998 173.7 244.6 169.156C244.682 166.933 244.491 164.779 246.86 163.829C252.174 160.934 258.187 157.732 264.446 159.466C272.363 160.137 271.5 170.037 269.72 175.714C268.131 181.782 263.296 185.921 258.694 189.794C257.667 190.661 256.571 191.332 255.681 192.31C254.818 193.247 254.516 194.618 253.695 195.456C251.49 197.106 248.695 197.806 246.641 199.819C245.258 201.105 244.696 203.147 242.861 203.93C240.245 205.342 238.519 208.278 236.396 210.501C235.013 211.676 234.766 213.396 233.835 214.934C231.78 216.905 230.643 219.38 229.027 221.771C227.521 224.568 225.316 226.721 223.48 229.224C222.343 231.852 221.015 234.495 219.905 237.18C215.769 246.785 211.523 256.377 207.606 266.095C206.086 268.43 203.593 270.709 200.799 271.282C194.553 270.318 191.718 262.893 190.129 257.398C189.102 252.714 189.828 247.974 190.458 243.304C191.047 239.682 191.732 235.963 193.334 232.663C194.101 231.153 194.594 231.936 194.841 233.111C195.882 236.341 195.69 239.85 197.375 242.842C198.525 245.094 200.758 245.331 202.867 244.199C205.373 243.318 204.387 240.871 204.031 238.885C203.264 233.67 202.936 228.343 201.484 223.211C201.182 222.023 200.963 220.792 201.1 219.59C201.223 218.387 201.744 217.171 202.333 216.094C205.387 210.893 208.277 205.552 211.756 200.238C213.29 198.099 213.057 202.797 213.249 203.65C213.413 206.419 214.167 209.061 215.975 211.089C218.303 214.109 222.768 214.528 222.535 209.886C221.754 206.181 221.905 202.336 221.33 198.616C221.042 197.05 220.987 195.47 221.124 193.89C221.275 191.737 220.672 189.542 221.289 187.445C221.713 185.823 222.837 184.397 223.987 183.208C227.452 179.629 231.013 176.147 234.478 172.609C234.958 172.148 235.711 171.365 236.273 171.645L236.355 171.715V171.729Z" fill="#FECE13"/>
<path d="M665.151 248.17C665.466 248.393 665.452 249.246 665.438 249.736C665.082 269.423 676.751 264.109 661.904 275.589C655.727 280.86 649.605 286.187 643.222 291.193C641.182 293.248 639.086 291.836 637.799 289.655C636.333 287.46 637.484 284.579 636.73 282.244C635.005 278.581 631.375 276.232 627.992 274.358C626.431 273.645 625.39 272.247 625.376 270.471C625.225 267.829 624.814 265.27 623.28 263.061C622.842 262.376 622.404 261.579 622.65 260.796C622.815 260.25 623.308 259.775 623.76 259.397C628.06 255.706 632.457 251.749 636.114 247.498C636.991 246.855 638.305 246.674 639.305 245.821C641.346 244.213 642.264 241.584 644.373 240.046C646.893 237.879 649.331 235.446 651.358 232.817C652.481 230.943 653.317 228.748 655.385 227.728C658.686 226.022 664.712 222.288 668.219 224.903C669.794 226.176 669.807 227.909 668.849 229.559C667 233.628 663.466 235.614 660.11 238.06C658.33 239.598 657.631 242.059 655.522 243.276C650.947 245.877 649.536 257.636 654.947 259.719C657.768 260.502 658.96 259.957 659.603 257.034C660.425 253.832 661.589 250.672 664.219 248.463C664.562 248.198 664.849 248.072 665.041 248.128L665.137 248.17H665.151Z" fill="#5BCAE5"/>
<path d="M562.7 296.772C563.07 296.003 564.727 295.654 565.919 295.206C568.809 294.101 571.932 294.018 574.822 293.011C581.766 289.725 588.08 284.859 594.64 280.637C596.476 279.434 598.229 278.134 600.092 276.959C600.516 276.735 600.913 276.61 601.283 276.666C601.941 276.735 602.447 277.505 602.762 278.134C605.42 283.377 608.049 288.606 610.145 294.115C612.035 298.646 615.13 302.645 617.322 306.993C618.185 308.503 618.102 309.398 616.541 310.153C609.378 313.761 602.338 317.34 595.243 321.059C590.942 323.436 586.244 324.821 581.629 326.317C580.108 326.792 578.383 327.142 576.835 326.722C575.835 326.442 575.287 325.478 575 324.499C572.575 316.809 568.412 309.873 565.193 302.547C564.481 300.701 562.755 298.883 562.673 296.926L562.728 296.772H562.7Z" fill="white"/>
<path d="M384.701 298.324C395.85 299.457 406.629 305.329 418.243 304.546C420.134 304.63 422.64 303.749 424.338 304.602C425.023 305.497 424.147 307.007 423.955 308.028C421.736 316.809 420.407 326.051 421.229 335.139C421.27 336.328 421.298 337.516 421.27 338.705C421.229 339.46 421.202 340.481 420.64 340.928C419.764 341.613 418.285 341.431 417.175 341.473C407.985 341.445 398.822 340.928 389.823 338.859C388.289 338.411 386.235 338.677 385.112 337.418C384.619 336.775 384.619 335.741 384.619 334.902C384.797 327.281 383.742 319.717 384.235 312.097C384.249 308.112 384.235 304.239 384.235 299.974C384.235 299.471 384.276 298.688 384.591 298.408L384.714 298.31L384.701 298.324Z" fill="white"/>
<path d="M757.616 136.172C758.013 136.13 758.41 136.367 758.739 136.647C760.054 137.808 761.191 139.136 761.191 140.982C761.232 142.31 761.081 143.862 762.053 144.869C763.012 145.875 764.286 146.868 765.779 147.05C766.409 147.148 767.135 147.176 767.683 147.539C768.902 148.602 769.011 151.035 768.436 152.517C767.943 153.538 766.751 154.167 765.642 154.544C763.286 155.621 760.807 155.02 758.369 155.202C746.357 159.536 733.044 159.242 720.745 162.64C714.047 164.15 707.925 171.505 703.378 161.745C701.378 157.229 701.885 148.728 708.185 149.427C710.719 150.126 712.801 152.447 715.513 152.657C717.951 152.811 721.183 150.825 719.567 148.182C718.773 146.84 717.732 145.596 717.047 144.17C715.691 141.555 715.855 138.605 716.157 135.766C716.8 131.781 722.553 132.55 725.046 134.046C726.936 135.277 726.785 138.199 729.127 138.982C730.647 139.695 732.017 140.702 733.647 140.296C735.277 139.933 736.989 138.647 737.29 137.095C738.002 132.956 736.427 125.867 741.454 124.259C743.002 124.133 743.686 126.007 744.536 127.083C746.672 129.978 745.618 134.843 748.398 137.36C750.521 139.024 753.342 140.296 755.548 138.059C756.315 137.388 756.835 136.339 757.465 136.186L757.616 136.158V136.172Z" fill="white"/>
<path d="M527.774 395.962C523.885 396.256 519.625 396.466 515.598 397.416C501.984 397.962 488.315 397.584 474.796 395.207C466.784 393.907 458.854 392.117 450.896 390.537C449.348 390.076 447.171 390.397 446.102 389.055C445.459 387.489 446.294 385.615 446.678 384.035C447.034 382.987 447.842 382.399 448.965 382.665C467.524 384.357 486.37 384.958 505.066 384.343C510.353 384.077 515.557 382.987 520.803 382.329C523.994 381.98 527.336 381.924 530.418 381.644C533.253 381.197 536.047 380.4 538.923 380.26C542.553 379.966 546.196 379.98 549.867 379.813C550.921 379.771 552.072 379.925 552.743 380.819C554.003 382.889 554.592 385.42 555.126 387.769C555.222 388.37 555.195 388.999 554.948 389.53C551.058 393.865 544.169 393.599 538.8 394.466C535.075 394.62 531.651 395.934 528.007 395.948H527.774V395.962Z" fill="white"/>
<path d="M353.68 305.259C353.159 306.364 351.749 307.077 351.077 308.168C349.105 310.656 348.653 313.844 350.215 316.767C350.995 318.556 352.077 320.094 353.556 321.395C354.05 321.856 354.57 322.43 354.748 323.073C355.118 325.31 352.913 326.988 352.926 329.309C352.844 330.749 352.31 331.63 350.721 331.071C343.051 328.861 335.683 326.107 328.56 322.863C327.602 322.388 327.122 321.521 327.341 320.472C327.834 318.207 328.766 315.914 329.067 313.523C329.368 312.418 328.916 310.181 329.232 309.3C329.327 309.174 329.492 309.188 329.711 309.328C331.437 310.419 333.491 313.677 335.778 313.075C339.024 311.747 341.736 308.601 341.065 304.882C340.805 300.519 337.121 298.072 334.669 295.122C334.436 294.815 334.176 294.465 334.669 294.381C337.655 294.521 342.257 294.898 343.613 291.389C344.147 289.026 346.338 284.873 343.106 283.811C338.655 282.622 333.779 280.72 329.177 281.937C325.547 282.874 322.328 284.58 318.74 285.377C310.358 286.425 310.7 280.133 313.234 274.121C313.727 273.184 314.124 272.191 314.453 271.185C315.384 268.654 317.507 265.843 320.055 265.06C321.918 264.767 323.712 263.019 325.492 264.221C333.82 269.227 341.216 275.701 348.927 281.587C351.036 283.405 353.913 285.069 354.406 288.061C354.721 290.284 352.776 292.144 352.214 294.241C351.187 297.303 351.653 300.324 353.255 303.26C353.529 303.819 353.871 304.476 353.735 305.105L353.68 305.273V305.259Z" fill="#5BCAE5"/>
<path d="M560.413 47.8457C559.318 47.6919 558.715 46.3356 557.921 45.4967C557.03 44.4061 556.387 43.2036 556.14 41.8054C555.044 34.0732 555.455 25.9215 557.345 18.3431C559.934 11.4079 561.619 4.09517 564.152 -2.81208C565.865 -8.89436 566.988 -15.2004 568.179 -21.4504C568.933 -26.6379 569.316 -31.7134 569.248 -37.0966C569.22 -38.369 569.357 -38.7745 569.864 -37.4881C571.768 -31.5596 575.384 -26.2603 576.109 -19.9963C577.561 -10.3485 579.876 -0.393139 577.52 9.38047C575.644 19.1541 570.85 28.0887 565.919 36.6878C564.413 39.736 562.783 42.7701 561.742 45.986C561.495 46.6432 561.263 47.608 560.578 47.8457L560.427 47.8737L560.413 47.8457Z" fill="white"/>
<path d="M419.682 361.608C419.956 361.496 420.312 361.566 420.75 361.72C422.188 362.349 423.791 362.88 425.338 363.118C431.283 364.222 437.268 365.313 443.377 365.411C444.842 365.635 446.28 366.599 447.732 366.781C448.951 366.935 450.143 366.488 451.389 366.516C455.649 366.977 460.182 367.285 464.483 367.746C465.551 367.914 466.455 368.277 467.51 368.249C468.428 368.263 469.414 367.83 470.441 367.956C471.701 368.082 472.947 368.641 474.235 368.627C476.906 368.851 479.481 367.914 482.069 367.704C483.192 367.676 484.247 368.11 485.343 368.263C486.822 368.543 488.397 367.802 490.054 367.844C492.177 367.788 494.287 368.487 496.368 368.599C504.888 367.48 513.612 368.193 522.2 367.97C529.692 367.382 537.157 365.761 544.717 365.201C551.456 365.201 558.016 363.887 564.645 362.712C566.467 362.391 568.275 361.971 570.124 361.887C573.302 361.845 576.356 363.006 579.479 363.062C579.958 363.174 580.122 363.397 579.78 363.747C574.562 367.089 567.919 365.663 562.18 367.089C560.975 367.424 559.893 368.249 558.646 368.403C557.4 368.529 556.085 367.928 554.88 368.403C553.688 368.837 552.209 369.074 550.894 368.823C548.004 368.221 546.141 369.144 543.498 369.787C542.183 370.025 540.882 369.62 539.595 369.69C536.143 370.263 532.664 371.004 529.336 372.136C524.898 373.549 520.31 373.898 515.694 373.926C513.653 374.471 511.599 375.338 509.531 375.576C508.312 375.814 507.216 375.143 506.161 375.185C505.244 375.143 504.189 375.87 503.135 375.996C501.874 376.051 500.724 375.604 499.464 375.506C497.779 375.394 496.327 376.275 494.574 375.926C493.944 375.828 493.3 375.758 492.67 375.758C490.164 375.828 487.575 375.059 485.014 375.436C483.494 375.59 482.042 376.205 480.494 376.163C476.07 376.163 471.715 375.213 467.907 375.157C463.018 375.688 457.977 375.24 453.129 374.821C451.458 374.919 450.006 373.87 448.554 373.353C447.992 373.269 447.897 373.297 447.157 373.465C446.157 373.828 444.993 373.688 443.938 373.311C441.911 372.849 440.035 371.647 437.98 371.353C436.364 371.116 434.816 371.395 433.241 371.032C432.009 370.752 430.653 371.158 429.365 370.822C425.749 369.312 419.613 367.956 419.024 363.481C418.97 362.866 419.052 362.055 419.559 361.692L419.682 361.622V361.608Z" fill="white"/>
<path d="M692.133 235.152C691.996 237.585 692.461 240.409 691.763 242.842C690.297 248.184 690.79 254.741 687.051 259.299C684.298 262.669 678.614 263.872 675.176 260.935C674.04 259.146 673.437 256.783 673.081 254.643C673.19 249.778 669.082 244.101 672.971 239.962C677.436 234.845 678.888 227.238 676.135 220.932C675.67 219.744 675.519 218.276 676.176 217.171C677.135 215.479 679.409 214.976 681.189 214.319C682.805 213.857 684.531 212.697 686.216 213.424C687.188 213.899 687.873 214.892 688.38 215.843C691.379 221.729 692.119 228.385 692.119 234.914V235.152H692.133Z" fill="#5BCAE5"/>
<path d="M303.042 279.616C303.508 280.609 302.932 282.035 303.124 283.209C303.384 285.908 303.412 288.592 305.083 290.927C307.288 294.171 310.191 296.842 314.026 297.443C314.574 297.555 315.15 297.667 315.656 297.891C316.369 298.198 316.889 298.827 317.245 299.527C318.67 302.337 319.3 305.455 319.943 308.531C320.176 309.692 320.45 310.88 320.286 312.013C319.204 316.375 315.739 320.444 311.205 320.989C309.959 321.101 309.014 320.43 308.205 319.465C306.576 317.522 305.288 315.34 303.823 313.271C297.947 304.826 291.099 296.478 287.839 286.551C286.798 282.021 288.578 281.07 292.879 280.888C294.29 280.846 294.975 279.448 296.18 278.973C298.002 278.525 299.741 279.476 301.713 279.294C302.152 279.28 302.658 279.266 302.973 279.504L303.069 279.602L303.042 279.616Z" fill="#5BCAE5"/>
<path d="M504.641 351.387C505.093 352.17 506.285 352.324 507.107 352.813C509.01 353.75 511.065 354.966 512.202 356.798C513.339 358.951 511.188 360.741 509.12 360.07C505.354 359.189 501.71 358.182 498.355 356.295C494.424 353.946 490.959 356.155 487.466 357.93C485.959 358.462 484.384 359.552 482.932 360.112C482.056 360.405 481.207 359.832 480.303 359.147C479.59 358.63 479.193 357.861 479.81 357.106C481.439 355.204 483.097 353.051 485.439 352.002C486.343 351.569 486.644 350.911 485.74 350.254C484.48 349.303 483.042 348.464 482.302 346.801C481.864 345.836 481.741 344.466 482.7 343.808C484.987 342.508 487.562 344.899 489.698 345.738C492.328 346.982 494.711 348.339 497.396 347.136C501.491 346.018 506.216 340.928 510.134 343.85C510.887 344.871 509.969 346.269 509.421 347.206C508.271 349.01 506.655 349.527 505.217 350.478C504.984 350.66 504.6 350.953 504.628 351.247L504.655 351.373L504.641 351.387Z" fill="white"/>
<path d="M374.251 335.321C373.662 335.839 372.032 335.489 370.786 335.349C369.498 335.167 368.211 334.916 366.937 334.734C362.088 334.496 358.651 330.385 362.883 326.386C364.444 324.401 367.923 324.793 369.265 322.597C370.005 321.129 369.265 319.353 368.594 317.969C367.197 315.271 363.787 315.886 361.431 314.809C358.445 313.593 358.034 311.859 361.143 310.964C364.033 310.083 366.855 309.132 369.704 308.084C372.881 306.923 372.47 304.099 370.772 301.75C370.019 300.491 367.252 299.974 365.841 299.429C364.307 298.604 361.39 298.156 361.417 296.129C361.76 294.018 364.047 293.836 365.608 294.787C367.485 295.751 369.43 296.702 371.608 296.702C372.292 296.73 373.1 296.8 373.429 297.415C373.58 309.286 372.662 321.339 374.497 333.364C374.58 333.951 374.703 334.776 374.361 335.195L374.251 335.307V335.321Z" fill="white"/>
<path d="M505.491 329.84C505.752 330.567 506.916 330.777 507.546 331.182C509.628 332.133 510.806 335.727 507.97 336.468C503.93 337.936 500.424 335.097 496.643 334.538C493.452 333.923 490.453 335.307 487.645 336.705C485.919 337.349 482.947 338.397 481.399 337.097C480.482 336.258 480.851 334.776 481.55 333.895C482.509 332.581 484.33 332.217 485.59 331.504C486.727 330.833 485.974 329.7 485.138 329.043C483.728 327.757 481.961 327.295 480.673 325.841C479.742 324.191 483.686 323.268 484.81 323.366C488.617 323.73 492.233 326.736 496.068 326.82C498.657 326.191 501.108 324.876 503.56 323.87C504.971 323.199 506.56 322.262 508.053 322.499C509.915 322.681 512.148 323.716 510.792 325.925C509.86 327.645 507.779 328.078 506.162 328.959C505.902 329.127 505.491 329.421 505.491 329.714V329.84Z" fill="white"/>
<path d="M453.526 307.86C453.704 307.692 454.074 307.678 454.553 307.748C465.113 309.734 475.509 308.979 485.822 309.859C486.342 309.901 487.178 310.027 487.26 310.545C487.329 311.118 486.548 311.831 486.096 312.25C481.59 316.165 477.029 320.08 472.468 323.996C470.811 325.603 469.304 324.876 467.921 323.366C466.181 321.688 464.455 319.997 462.62 318.417C460.374 316.739 458.662 314.697 456.895 312.558C456.018 311.649 454.786 311.244 454.142 310.307C453.676 309.58 453.197 308.377 453.457 307.958L453.539 307.86H453.526Z" fill="white"/>
<path d="M539.102 302.015C539.143 302.183 539.033 302.421 538.8 302.714C537.513 304.211 535.924 305.665 534.582 307.077C530.637 311.356 526.884 315.872 522.638 319.927C519.557 322.415 518.844 318.123 516.379 317.158C513.982 315.984 512.393 313.663 510.216 312.153C508.531 311.132 506.997 309.999 505.723 308.587C505.668 308.349 505.97 308.196 506.504 308.084C511.352 307.063 516.379 307.357 521.159 306.042C525.035 304.127 529.363 303.693 533.5 302.84C535.266 302.589 537.335 301.414 539.033 301.931L539.074 302.015H539.102Z" fill="white"/>
<path d="M617.61 281.028C620.473 281.461 623.349 281.895 625.746 283.922C627.609 285.251 627.554 287.236 626.828 289.529C626.486 290.913 626.047 292.27 626.198 293.57C626.499 295.276 627.91 296.814 629.718 296.632C631.033 296.534 633.156 297.205 632.676 298.869C631.101 301.232 627.129 303.749 625.102 300.463C621.911 295.626 618.747 290.746 616.336 285.46C613.981 280.888 611.68 276.204 609.433 271.562C609.242 271.101 609.146 270.667 609.242 270.276C609.488 269.157 611.228 268.64 612.31 267.787C613.241 267.283 614.364 265.522 615.446 266.417C616.953 269.605 616.487 273.478 615.624 276.791C615.145 278.232 616.35 279.364 616.994 280.427C617.117 280.623 617.295 280.818 617.473 280.958L617.624 281.056L617.61 281.028Z" fill="white"/>
<path d="M666.766 211.774C666.356 210.823 667.725 208.838 668.615 208.096C672.122 204.265 676.642 202.28 681.545 201.203C685.188 199.665 689.078 199.889 692.913 199.861C698.227 199.511 699.843 197.512 700.693 204.391C701.131 207.873 702.213 209.76 697.638 209.9C697.159 209.97 696.638 210.082 696.145 210.18C693.543 210.907 692.694 207.481 690.776 206.349C687.873 204.209 684.079 203.538 680.709 204.405C676.094 205.943 670.711 206.824 667.575 211.145C667.396 211.34 667.027 211.816 666.821 211.788L666.753 211.76L666.766 211.774Z" fill="#FECE13"/>
<path d="M698.857 259.411C699.967 254.56 700.391 249.442 701.022 244.492C701.282 242.507 703.542 242.828 704.966 242.423C706.623 242.115 708.924 240.815 709.28 243.458C710.089 246.911 710.856 250.337 711.65 253.79C711.773 254.392 711.897 255.175 711.527 255.664C710.13 256.797 708.034 256.769 706.391 257.398C703.692 257.985 701.405 258.698 698.926 259.481L698.844 259.411H698.857Z" fill="#FECE13"/>
<path d="M417.012 416.754C423.12 416.908 429.311 418.53 435.406 419.285C435.968 419.424 435.639 419.634 435.297 419.816C432.201 421.27 429.243 423.186 425.778 423.507C424.12 423.563 422.833 424.346 421.313 424.975C419.039 425.521 417.258 422.654 417.327 420.571C417.45 419.173 417.162 418.082 416.957 416.852L417.012 416.754Z" fill="white"/>
<path d="M543.689 426.597C554.852 423.27 566.864 422.57 578.136 417.844C579.191 417.439 579.067 417.984 578.643 418.641C577.561 419.956 577.561 421.955 576.123 422.864C571.37 424.444 566.193 421.144 561.495 423.479C558.509 424.584 557.687 429.687 554.126 429.296C553.304 429.128 552.51 428.681 551.716 428.429C549.154 427.478 545.662 429.002 543.689 426.709V426.611V426.597Z" fill="white"/>
<path d="M398.74 409.469C400.192 410.126 401.424 411.65 402.849 412.447C405.259 413.72 407.958 414.377 410.505 415.244C410.697 415.342 410.793 415.468 410.765 415.593C410.683 415.887 410.108 416.013 409.724 416.153C409.286 416.32 409.012 416.726 408.711 417.02C407.684 417.97 406.163 417.159 404.944 417.187C401.739 417.607 398.37 416.502 398.397 412.783C398.329 411.762 398.082 410.266 398.658 409.455H398.767L398.74 409.469Z" fill="white"/>
<path d="M522.31 346.591C519.077 346.884 516.708 342.885 519.831 340.858C521.625 339.963 523.762 340.732 525.693 341.208C526.227 341.347 526.83 341.459 527.227 341.879C528.049 342.899 527.446 344.452 526.665 345.29C525.57 346.255 523.912 346.521 522.488 346.591H522.31Z" fill="white"/>
<path d="M524.748 355.148C525.844 355.54 527.803 355.637 528.268 356.868C528.309 359.636 524.187 361.454 521.694 360.587C520.297 360.196 519.653 358.378 519.968 357.064C520.735 355.26 523.146 355.721 524.584 355.162H524.748V355.148Z" fill="white"/>
<path d="M593.422 411.483C593.299 414.95 590.601 418.278 586.656 417.565C584.273 416.978 581.999 417.145 579.603 417.509C581.205 415.985 583.78 415.901 585.766 415.104C588.19 414.125 590.724 412.489 593.34 411.413L593.422 411.483Z" fill="white"/>
<path d="M465.524 359.329C464.333 359.413 463.21 358.14 463.223 356.924C463.073 355.344 465.237 353.694 467.209 353.512C469.031 353.176 470.688 355.288 470.113 357.008C469.414 358.825 467.264 358.853 465.689 359.287L465.524 359.315V359.329Z" fill="white"/>
<path d="M468.906 340.047C470.824 339.921 473.358 342.298 471.701 344.186C471.317 344.591 470.797 344.787 470.29 344.983C469.728 345.179 469.167 345.64 468.523 345.64C467.646 345.458 466.468 344.843 465.797 344.368C465.126 343.948 465.208 342.774 465.606 341.935C466.112 340.76 467.523 340.033 468.715 340.047H468.906Z" fill="white"/>
<path d="M364.02 93.9173C364.622 93.2042 365.307 93.2182 366.184 93.6656C365.376 94.0012 364.704 94.099 364.006 93.9033L364.02 93.9173Z" fill="#FECE13"/>
<path d="M398.768 409.497L398.645 409.595L398.686 409.441L398.768 409.497Z" fill="white"/>
<path d="M764.218 111.018C764.711 110.346 766.217 109.927 767.094 109.787C768.34 109.759 769.669 109.13 770.778 109.633C772.586 111.507 772.805 114.457 772.518 116.974C772.381 117.813 771.491 117.813 770.861 117.533C769.998 117.198 769.491 116.527 769.313 115.548C768.929 113.674 767.738 112.416 765.971 112.024C765.355 111.885 764.492 111.689 764.218 111.157V111.018Z" fill="white"/>
<path d="M491.122 282.412C481.822 281.308 472.194 280.692 463.853 276.092C452.416 270.485 451.58 259.355 461.127 251.064C467.14 247.247 474.892 248.463 481.261 250.672C484.89 252.001 486.63 254.532 490.492 251.763C495.656 248.827 502.408 246.59 508.161 248.323C511.393 249.652 514.571 252.266 516.091 255.482C517.776 263.746 511.489 271.632 504.956 275.827C500.682 278.12 496.286 282.188 491.369 282.426H491.136L491.122 282.412Z" fill="#161716"/>
<path d="M488.864 273.785C481.084 272.918 473.729 272.093 467.73 268.78C467.621 268.724 467.497 268.654 467.388 268.598C464.649 267.255 462.964 265.522 462.745 263.844C462.526 262.138 463.703 259.929 465.909 257.859C467.114 257.23 468.579 256.923 470.374 256.923C472.729 256.923 475.482 257.468 478.564 258.531C478.989 258.698 479.482 258.95 480.043 259.23C481.646 260.069 484.084 261.327 487.248 261.327C489.809 261.327 492.343 260.502 494.767 258.852C498.013 257.048 501.3 256.028 503.848 256.028C504.45 256.028 505.012 256.084 505.505 256.195C506.656 256.741 507.614 257.524 508.203 258.251C508.149 261.886 504.587 266.137 500.835 268.612C499.424 269.395 498.109 270.248 496.822 271.087C494.972 272.289 492.713 273.771 491.329 274.051C490.507 273.953 489.699 273.869 488.878 273.771L488.864 273.785Z" fill="#C67355"/>
<path d="M464.497 202.615C464.962 203.231 466.072 203.468 466.935 204.056C469.332 205.496 472.18 208.432 468.072 209.76C466.428 210.487 451.293 210.557 454.101 213.997C463.579 217.507 466.181 228.93 464.647 238.102C464.278 241.123 462.894 243.779 462.141 246.604C461.799 247.848 461.319 249.078 460.333 249.931C458.169 251.637 455.293 252.141 452.855 253.315C449.622 253.93 446.007 251.861 443.76 249.889C441.226 247.666 440.473 244.087 439.295 241.067C437.035 236.466 437.789 231.307 437.186 226.357C436.104 216.807 444.418 206.251 453.457 204.237C455.348 203.65 457.073 202.657 457.731 200.7C458.237 199.372 458.361 197.652 459.566 196.743C461.004 195.568 464.113 196.379 464.428 198.351C464.839 199.665 463.826 201.273 464.401 202.476L464.497 202.615ZM458.155 228.399C458.237 227.56 457.676 226.609 457.498 225.756C457.388 225.043 457.046 224.372 456.471 224.19C455.484 223.868 453.896 223.715 453.238 224.623C451.965 226.511 452.553 229.657 453.827 231.405C455.813 233.069 458.169 230.846 458.142 228.594V228.413L458.155 228.399Z" fill="#161716"/>
<path d="M536.622 204.727C538.54 205.552 541.32 205.132 543.197 206.447C544.922 207.481 545.936 210.32 544.772 211.928C542.388 214.612 538.649 212.585 535.636 212.878C533.431 212.976 532.774 213.564 534.321 214.962C539.389 220.359 538.91 230.538 538.375 237.599C537.554 246.198 528.445 251.022 520.981 247.457C519.474 247.037 518.557 245.974 517.557 244.716C516.269 243.178 515.023 241.584 514.16 239.738C510.887 232.048 511.284 222.442 515.694 215.381C518.173 210.515 522.83 208.432 527.418 206.293C530.144 204.643 530.089 200.182 532.924 198.644C534.321 198.127 536.362 199.441 536.554 200.896C536.896 202.098 536.006 203.538 536.526 204.629L536.622 204.741V204.727ZM525.98 225.938C526.09 226.371 526.144 227.909 526.542 228.441C527.062 229.419 528.623 229.797 529.555 229.419C531.555 228.371 532.198 225.337 531.705 223.309C531.198 220.988 529.596 219.604 527.541 221.282C526.131 222.288 525.898 224.162 525.966 225.798V225.938H525.98Z" fill="#161716"/>
<path d="M719.676 187.053C722.045 186.829 722.497 189.123 723.251 190.912C727.099 198.351 728.551 207.048 729.387 215.311C731.071 219.995 732.646 224.763 733.687 229.643C734.235 232.132 735.646 234.271 735.81 236.858C736.084 239.361 737.824 241.668 737.81 244.241C737.769 246.198 736.796 249.973 734.208 249.806C730.989 248.869 728.866 245.681 728.25 242.423C726.593 234.565 723.73 227.07 722.004 219.24C721.073 212.012 720.196 204.783 718.991 197.596C718.964 194.953 715.813 187.822 719.457 187.053H719.676Z" fill="#161716"/>
<path d="M741.603 180.845C745.753 180.733 744.658 193.751 745.603 197.009C746.863 204.475 748.671 211.802 750.027 219.268C751.383 225.952 752.437 232.719 752.615 239.529C752.739 241.207 753.341 242.968 752.835 244.674C752.259 247.415 747.767 248.785 746.562 245.905C745.836 244.087 745.425 242.087 745 240.13C743.37 230.258 742.233 220.303 740.686 210.432C739.754 203.049 738.809 195.666 739.878 188.242C739.878 186.606 739.028 184.844 739.344 183.306C739.59 182.201 740.426 181.153 741.384 180.887L741.576 180.845H741.603Z" fill="#161716"/>
<path d="M741.207 181.013C740.988 180.957 740.714 180.845 740.919 180.593C741.097 180.37 741.316 180.579 741.426 180.803C741.358 180.873 741.275 180.943 741.207 181.013Z" fill="#161716"/>
<path d="M458.142 228.58C458.142 230.818 455.841 233.069 453.828 231.391C452.814 230.119 452.54 228.329 452.54 226.721C452.718 224.05 454.293 223.533 456.471 224.19C457.046 224.372 457.389 225.043 457.498 225.756C457.704 226.693 458.21 227.462 458.156 228.399V228.58H458.142Z" fill="white"/>
<path d="M525.967 225.798C525.898 224.204 526.131 222.288 527.542 221.282C530.021 219.212 531.692 221.827 531.856 224.288C531.938 226.469 530.911 230.105 528.049 229.475C526.295 229.168 526.145 227.392 525.967 225.938V225.798Z" fill="white"/>
</g>
<mask id="mask1_258_43" style="mask-type:luminance" maskUnits="userSpaceOnUse" x="0" y="286" width="186" height="112">
<path d="M185.122 286H0V397.858H185.122V286Z" fill="white"/>
</mask>
<g mask="url(#mask1_258_43)">
<path d="M27.3859 379.986C23.2219 379.881 19.8235 379.709 17.1907 379.485C14.4908 379.261 13.067 377.771 12.8924 375.015V368.803H12.6371C13.4162 353.414 13.8192 344.974 13.8192 343.484C13.9267 342.706 13.9401 340.042 13.8595 335.453C13.7789 330.877 13.7386 328.2 13.7386 327.422C13.7386 326.169 13.2819 325.773 11.9655 325.773C8.64772 325.826 5.75975 324.362 3.28819 321.382C2.85836 320.855 2.95238 319.615 3.28819 319.061C6.65973 313.984 9.61485 309.711 12.1401 306.243C12.758 305.412 13.7386 304.951 15.0953 304.832C15.4311 304.832 18.8832 304.806 25.4651 304.753C27.4262 304.753 28.5814 304.7 28.9172 304.595C30.8246 304.041 32.0873 304.674 32.7052 306.494C33.2156 307.931 33.4305 309.553 33.3768 311.373C33.3768 313.259 32.9066 319.971 32.7858 321.633C32.1141 336.363 31.6574 346.649 31.4425 352.491C31.3619 354.232 31.4291 365.915 31.2679 367.551C31.0933 369.265 30.3411 373.089 28.9978 379.05C28.9978 379.446 27.8158 379.96 27.3994 379.96L27.3859 379.986Z" fill="#161716"/>
<path d="M48.3399 369.239C47.44 368.025 46.7952 365.731 46.4057 362.368C45.5594 354.429 45.1699 348.877 45.2236 345.739V341.018C45.2236 335.558 45.4251 330.864 46.9967 326.868C49.4683 320.419 51.6578 315.448 53.5652 311.979C56.3725 307.074 59.7709 304.647 63.7604 304.7C66.2588 304.806 72.2362 303.737 74.5063 303.54C79.8792 303.091 88.1536 306.757 90.1416 307.931C93.3251 309.724 94.2654 312.863 95.2056 317.109C95.9041 320.314 96.0519 323.228 95.6623 327C95.2056 331.457 95.0579 331.958 94.2653 336.468C93.7012 339.501 92.1027 347.915 89.4565 361.709C87.9924 369.041 84.097 374.566 77.7435 378.259C75.7824 379.38 72.1287 379.472 69.4826 379.999C60.8321 380.052 53.7801 376.465 48.3265 369.239H48.3399ZM76.5749 332.499V328.609C76.4674 326.617 75.5674 325.47 73.875 325.127C71.5243 324.666 69.2273 324.626 67.9378 325.747C67.4543 326.156 67.1587 326.565 67.0513 326.947C65.5872 332.301 64.8081 335.993 64.6872 338.037C64.3245 342.191 65.211 347.189 65.4528 351.106C65.6678 353.862 68.3945 354.746 71.0944 355.405C73.4988 355.999 74.3182 355.115 74.6272 353.176C74.8018 351.581 75.6077 344.71 77.0719 332.578L76.5614 332.499H76.5749Z" fill="#161716"/>
<path d="M166.667 359.559V359.15C166.72 358.926 164.41 358.808 159.709 358.781C147.807 358.715 131.272 359.203 118.538 359.652C118.243 359.652 116.161 359.81 115.838 359.81C113.837 359.81 112.561 358.873 112.386 357.08C112.265 356.276 111.795 354.746 111.795 353.77C111.795 351.805 112.373 349.88 114.495 349.88H125.281C125.026 347.308 124.999 345.211 122.581 344.789C120.244 344.381 118.431 344.75 115.167 344.75C109.794 344.75 104.864 344.961 105.052 340.121C105.16 338.526 105.563 337.457 106.234 336.93C106.906 336.402 108.652 336.007 111.459 335.73C115.059 335.347 121.144 335.097 129.754 334.978C139.023 334.873 144.53 334.846 146.276 334.899C146.787 334.952 147.284 334.978 147.794 334.978C148.976 334.978 150.158 334.899 151.327 334.728C154.752 334.385 158.862 334.807 158.07 338.038C157.559 340.359 157.277 341.598 157.224 341.756C156.068 345.053 151.824 346.623 147.109 346.306C144.584 346.135 142.354 346.082 140.446 346.135C139.318 346.24 138.203 347.453 137.827 348.245C137.666 348.601 137.438 349.168 137.156 349.946C153.839 350.051 164.571 350.249 169.353 350.526C171.972 350.684 175.518 351.093 175.921 352.847C176.257 353.836 176.432 354.891 176.432 355.985C176.432 356.737 176.512 359.942 176.432 360.706C176.432 362.816 176.969 365.718 175.76 366.786C174.645 367.775 172.268 368.276 170.32 368.487C168.775 368.645 166.452 368.711 163.362 368.645C154.819 368.593 149.312 368.619 146.84 368.724C144.906 368.724 123.28 368.935 122.232 369.226L122.313 371.217C128.062 371.217 145.309 370.966 151.058 370.966C155.947 370.966 159.238 370.94 160.917 370.887C162.691 370.887 171.314 370.386 173.06 370.386H173.235C174.807 370.386 175.599 370.887 175.599 371.876V372.285C175.263 374.158 174.847 375.846 174.336 377.336C173.544 379.92 172.698 379.657 168.695 379.657H167.687C165.605 379.591 145.994 379.643 143.925 379.577C141.293 379.459 117.705 378.984 115.019 378.918C112.359 378.826 111.003 377.296 111.392 374.698C111.741 372.39 111.231 371.467 111.231 368.658C111.231 368.276 111.258 367.551 111.312 366.509C111.432 362.988 113.246 362.302 117.128 362.21C118.646 362.17 162.852 361.933 164.235 361.88H164.907C165.901 361.88 166.761 361.788 166.761 360.799C166.72 360.403 166.68 359.981 166.68 359.559H166.667ZM112.803 327.857C108.142 326.143 105.697 323.505 105.468 319.918C105.133 315.29 106.704 311.861 110.183 309.659C113.944 307.232 115.368 306.124 119.828 304.858C123.36 303.856 125.08 304.199 129.351 304.199C134.953 304.199 138.485 304.977 142.797 306.098C144.57 306.56 144.449 306.652 146.048 307.219C147.472 307.72 147.928 308.116 149.084 308.828C151.367 310.239 154.255 313.878 154.389 316.239C154.47 317.703 153.651 319.668 151.904 322.16C149.258 325.8 146.652 328.358 144.073 329.809C141.494 331.273 138.23 331.998 134.294 331.998C127.887 332.103 120.728 330.732 112.803 327.857ZM133.112 324.389C136.43 324.27 137.357 322.754 138.257 319.918C138.875 317.769 137.894 316.358 135.302 315.698C131.93 314.762 128.022 314.01 123.589 313.47C120.741 313.1 118.753 315.527 118.364 317.94C118.028 320.419 119.21 321.989 121.91 322.661C123.696 323.176 127.713 323.848 129.741 324.151L131.433 324.402H133.112V324.389ZM168.01 335.057C168.077 334.015 167.943 330.785 166.908 329.967C165.458 328.806 162.771 328.952 160.246 328.596C158.903 328.319 158.11 327.963 157.882 327.514C156.203 324.033 155.974 321.092 157.21 318.665C157.855 317.386 157.815 316.068 159.91 316.265C161.71 316.345 166.908 315.421 166.908 313.694C166.908 312.533 167.137 309.645 167.58 305.003C167.755 303.737 168.681 303.131 170.36 303.184C172.442 303.236 174.578 303.184 176.768 303.012C178.514 302.907 179.696 303.487 180.3 304.753C182.208 308.775 183.027 313.72 182.745 319.562C182.651 321.277 183 326.96 183 328.582C183 331.985 182.141 333.633 181.899 336.772C181.617 341.73 181.174 345.291 180.556 347.44C179.884 349.761 176.029 350.196 169.004 348.759C167.822 348.535 166.975 347.823 166.478 346.609C166.196 345.95 166.264 344.724 166.693 342.93C167.11 341.137 167.244 339.91 167.07 339.251C167.19 336.719 167.996 337.563 167.996 335.031L168.01 335.057Z" fill="#161716"/>
</g>
</svg>