<svg xmlns="http://www.w3.org/2000/svg" width="960" height="418" viewBox="0 0 960 418" fill="none">
<mask id="mask0_258_61" style="mask-type:luminance" maskUnits="userSpaceOnUse" x="0" y="0" width="960" height="418">
<path d="M960 0H0V418H960V0Z" fill="white"/>
</mask>
<g mask="url(#mask0_258_61)">
<path d="M479.168 199.019L481.351 196.93L486.834 198.317L488.422 198.707L486.544 204.163L484.177 209.573L483.566 209.791L480.557 206.237L478.312 199.299L479.137 199.019H479.168Z" fill="white"/>
<path d="M610.972 435.64L550.041 417.291L529.364 405.396L516.475 399.737L510.718 398.505L503.143 402.013L490.987 403.541L423.458 403.51L357.808 404.554L288.538 405.318L232.035 405.505L208.288 404.429L194.392 404.648L185 362.54L194.59 324.906L204.944 287.475L211.892 271.605L227.133 249.405L233.623 243.372L235.776 235.327L257.721 198.146L269.312 181.184L268.518 162.087L298.541 112.324L307.795 108.084L308.696 94.2401L309.383 77.5591L314.087 63.1073L313.842 35.2796L340.063 14.8415L363.275 15.9016L380.44 66.9892L384.487 86.3984L382.471 94.9884L382.746 108.037L394.917 115.38L409.287 130.408L425.78 162.445L427.017 167.372L444.96 167.496L456.841 169.149L463.973 156.225L466.233 142.116L464.904 134.025L484.909 101.178L491.232 94.4116L520.293 54.2056L559.753 24.6162L602.955 8.48083L648.264 0L694.276 2.18257L738.837 13.7813L782.696 44.8361L817.835 97.3113L831.64 105.964L846.041 100.881L868.123 107.694L875.483 109.939L891.778 116.081L897.352 124.219L903.368 137.252L909.126 144.579L915.524 167.138L913.585 198.754L907.919 212.161L898.115 221.281L893.977 225.709L884.295 239.116L894.114 255.204L907.171 278.059L910.79 288.972L917.402 299.526L923.74 328.991L917.494 346.046L917.189 361.199L901.826 386.189L887.089 395.886L871.375 411.788L857.341 414.313L846.392 413.83L821.332 421.344L807.115 417.665L797.891 415.639L792.103 416.496L773.32 418.304L761.881 416.605L753.849 415.031L695.727 414.859L683.235 418.133L663.108 426.567L611.263 436.42L611.003 435.656L610.972 435.64ZM479.748 192.611L474.861 200.547L477.213 209.589L487.872 212.192L491.827 202.511L491.079 195.605L486.314 193.531L480.038 192.378L479.748 192.627V192.611Z" fill="white"/>
<path d="M780.267 402.777H671.277L613.232 417.26L551.384 402.777L499.172 378.847V314.056H822.66L780.267 402.777Z" fill="#FECE13"/>
<path d="M812.504 189.291C815.574 193.422 820.293 195.885 824.553 198.411C827.669 200.001 831.288 199.066 834.51 200.001C835.533 200.297 836.511 200.703 837.549 200.968C839.626 201.498 841.856 201.576 843.581 202.838C845.887 204.818 848.59 206.143 851.537 204.678C854.943 203.509 855.279 198.785 857.921 196.805C859.142 195.729 860.7 196.088 862.09 196.54C863.754 197.117 865.617 197.055 867.511 197.85C871.726 200.172 876.185 195.184 880.4 197.413C881.515 197.928 882.538 198.723 883.775 198.91C885.287 199.19 887.028 198.395 887.211 196.774C887.302 195.043 886.646 193.251 887.363 191.583C891.059 184.739 901.932 179.984 888.646 175.307C885.21 174.075 883.454 169.601 883.546 166.14C883.79 162.632 889.349 161.51 888.952 157.862C887.226 152.639 879.148 155.726 878.018 149.397C877.453 147.557 876.735 145.624 877.682 143.691C882.965 134.337 874.032 130.19 866.457 133.23C863.983 134.68 863.143 137.439 859.677 136.099C855.966 134.914 856.363 130.034 854.515 127.259C850.591 121.912 844.894 122.847 840.848 127.446C839.091 129.239 838.068 131.468 837.473 133.854C837.045 135.366 836.404 137.548 834.846 137.954C830.555 139.248 824.706 131.702 821.102 135.413C813.39 146.606 808.641 149.755 809.175 164.643V164.908C808.794 173 807.984 182.151 812.489 189.306L812.504 189.291Z" fill="white"/>
<path d="M354.279 75.8598C348.827 74.8464 343.253 74.597 338.29 77.1693C336.458 78.0423 334.045 78.8686 333.846 81.2382C333.755 85.1045 334.534 89.0643 334.839 92.8214C334.931 93.5385 335.114 94.3492 335.587 94.8637C336.503 96.142 339.329 94.9105 340.092 96.5786C340.443 97.3269 339.787 98.4493 339.329 99.1664C336.977 101.941 339.726 104.062 341.894 105.574C346.414 108.318 351.561 106.494 352.141 100.959C352.08 99.2444 349.53 97.966 348.705 96.3759C347.865 94.8637 349.53 93.9751 350.904 93.8503C352.584 93.6165 354.508 94.4272 355.424 93.4606C355.928 92.9773 356.157 92.1667 356.356 91.4651C357.318 87.1779 358.372 83.1869 358.815 79.0089V78.7751C358.692 76.4834 356.051 76.1872 354.294 75.8754L354.279 75.8598ZM338 88.6278C336.931 88.7057 335.236 87.3182 335.236 86.3673C335.236 84.8862 336.656 83.0466 337.832 83.0934C338.916 83.1402 339.756 83.6235 339.909 84.8706C340.092 86.3049 338.947 88.5654 338 88.6434V88.6278ZM347.01 92.7279C346.781 94.1933 346.17 95.3937 344.429 95.6588C342.566 95.9394 341.864 95.6588 341.467 93.71C340.749 90.2335 341.253 86.8038 342.169 83.4208C342.459 82.3295 343.253 81.4253 344.353 81.8306C345.452 82.2204 347.086 82.2516 347.117 84.1379C347.132 85.4631 347.239 86.8038 347.331 88.581C347.27 89.6567 347.27 91.2157 347.041 92.7279H347.01ZM353.729 86.0243C353.073 86.7882 352.37 87.6456 351.225 87.365C349.927 87.0532 350.11 85.8684 350.095 84.8706C350.095 84.4653 350.141 84.06 350.186 83.6546C350.37 82.0177 351.301 81.0823 352.584 81.2226C353.653 81.3474 354.355 82.4698 354.31 84.0288C354.371 84.7771 354.187 85.4631 353.729 86.0243Z" fill="#DDDDDD"/>
<path d="M336.229 112.028C334.015 111.778 333.175 114.834 333.924 116.627C335.726 122.021 337.772 127.509 341.712 131.843C342.995 133.277 344.445 134.493 345.514 136.099C346.705 137.439 346.492 140.074 348.126 140.838C349.134 141.025 349.744 139.731 349.989 138.842C350.92 135.553 348.309 132.856 346.583 130.455L346.431 130.252C343.117 126.121 340.887 121.273 339.07 116.284C338.398 114.834 337.894 112.464 336.229 112.044V112.028Z" fill="#DDDDDD"/>
<path d="M519.131 163.459C519.726 163.864 520.383 163.817 521.101 163.692C524.934 162.539 528.92 160.886 532.569 159.187C535.41 157.441 537.838 155.024 540.068 152.483C543.885 149.537 547.031 146.014 549.765 141.96C554.178 137.782 558.698 145.25 563.219 145.795C568.884 147.042 574.825 147.214 580.567 146.481C582.46 146.279 584.369 146.481 586.018 145.515C588.202 144.065 589.683 141.368 590.432 138.842C590.997 136.8 592.554 135.07 594.799 135.553C596.158 135.771 597.747 136.644 598.495 137.813C599.457 139.404 599.655 141.617 600.892 143.129C603.763 147.308 608.192 150.394 613.277 150.192C617.477 150.503 621.631 150.722 625.555 148.742C629.022 147.37 632.107 144.751 634.565 142.101C636.505 139.715 638.872 138.749 641.514 140.838C643.758 142.412 645.591 144.548 647.897 146.029C651.394 148.321 655.655 149.038 659.656 149.537C661.076 149.63 662.496 149.428 663.916 149.272C668.314 148.648 673.048 149.584 677.049 147.432C682.242 144.158 682.348 135.07 689.984 142.116C693.466 146.294 695.97 151.486 700.674 154.557C706.263 158.189 713.899 156.007 719.992 154.635C722.038 154.089 724.268 153.606 726.146 152.639C727.933 151.688 729.46 150.114 730.987 149.147C732.025 148.477 733.262 148.555 734.316 149.225C735.69 150.036 737.279 150.893 737.935 152.374C738.928 155.477 739.279 159.249 741.417 161.977C742.944 164.207 744.655 166.545 747.235 167.169C752.687 168.182 759.223 167.652 763.316 163.568C765.408 161.151 768.416 162.897 770.188 165.095C771.959 167.325 771.181 171.409 774.051 172.719C774.937 173.14 776.021 173.171 776.999 173.187C780.756 173.109 784.757 174.013 787.948 171.518C789.475 170.396 790.621 168.977 792.026 167.481C794.927 164.784 798.119 161.572 798.226 157.363C797.966 153.855 795.904 150.987 793.446 148.43C790.987 145.359 787.46 144.268 783.932 145.452C780.862 145.951 777.09 144.127 776.388 140.822C776.067 139.544 776.189 138.094 775.991 136.769C775.533 133.324 772.143 130.611 768.829 130.112C765.607 129.676 762.216 129.317 759.3 130.798C758.475 131.188 757.589 131.546 756.704 131.687C751.221 132.762 748.488 126.854 744.426 124.281C736.439 118.903 727.123 119.979 718.694 123.455C715.93 124.281 713.013 123.408 711.47 120.852C709.882 118.233 709.088 115.099 706.996 112.776C704.018 109.331 699.681 107.195 695.466 106.416C688.106 106.306 680.669 108.099 674.178 111.794C667.505 115.816 663 109.939 658.296 105.886C654.25 102.331 650.294 98.2466 644.995 96.7655C637.253 94.7389 628.426 96.6876 622.669 102.362C620.653 103.921 618.118 104.701 615.98 102.97C613.919 101.131 611.292 99.4937 608.757 98.2622C600.48 94.2556 590.218 99.0884 585.514 106.478C584.14 109.003 581.208 109.534 578.765 108.208C576.963 107.164 575.374 105.589 573.542 104.545C568.64 101.645 562.913 101.427 557.4 102.004C551.811 102.487 546.222 104.56 541.625 107.912C540.022 109.144 539.151 111.186 537.762 112.574C533.058 116.892 530.447 110.017 528.736 106.213C526.033 102.331 518.688 104.202 515.023 105.73C511.098 107.476 509.418 111.934 509.159 116.034C509.098 117.609 509.968 119.121 509.754 120.649C509.296 122.894 506.303 122.177 504.73 121.803C500.042 120.711 495.018 120.337 490.314 121.849C482.847 124.734 485.153 133.682 490.757 137.221C493.582 139.404 498.545 139.326 499.737 143.067C500.195 145.998 497.797 149.397 494.941 149.895C491.796 150.036 488.818 150.737 486.848 153.465C483.671 157.301 483.366 162.055 484.557 166.686C484.908 167.964 485.443 169.383 486.435 170.24C487.504 171.129 489.047 171.098 490.436 170.832C496.468 169.445 501.477 165.532 506.166 161.666C508.136 159.966 509.663 156.942 512.595 157.269L512.839 157.301C514.351 157.534 515.939 158.127 517.054 159.218C518.306 160.387 518.016 162.804 519.085 163.49L519.131 163.459Z" fill="white"/>
<path d="M355.502 192.268C355.013 190.632 353.608 190.538 352.142 190.725C351.425 190.803 350.386 191.177 350.692 192.113C353.135 197.475 353.242 203.431 356.097 208.56C356.983 210.649 357.197 217.056 360.526 216.199L360.694 216.105C361.87 215.107 360.847 213.299 360.709 211.943C359.625 205.301 357.105 198.863 355.502 192.284V192.268Z" fill="#DDDDDD"/>
<path d="M333.267 69.9512V70.2006C333.435 73.6148 335.71 73.0223 337.65 71.5413C344.171 67.223 352.86 69.8109 359.93 71.0892C361.519 71.2607 361.793 69.6082 361.809 68.2675C361.931 59.7399 361.366 51.1655 359.823 42.7782C359.243 40.0968 358.541 37.4153 357.701 34.8118C357.258 33.2685 356.219 32.0836 354.662 33.1282C351.562 35.1081 348.874 40.9386 344.705 37.3374C342.903 35.9967 341.498 33.4244 339.482 32.8943C328.411 33.3776 331.74 50.7134 332.733 58.1653C333.175 61.9692 333.068 66.1473 333.267 69.9356V69.9512Z" fill="#DDDDDD"/>
<path d="M366.482 86.6945C367.596 85.0732 368.345 82.8127 366.986 81.0043C366.146 79.8351 364.756 80.4742 364.68 81.7838L364.649 81.9864C364.42 83.3116 364.13 85.0888 363.901 86.5075C362.817 90.9506 365 88.8459 366.482 86.6945Z" fill="#DDDDDD"/>
<path d="M372.804 179.672C369.169 178.674 365.459 177.1 361.656 176.788C359.976 176.554 359.029 178.097 357.777 179.001C356.617 179.765 355.074 179.563 353.822 179.079C352.249 178.487 350.875 177.287 349.241 177.037C347.805 176.803 346.309 177.224 344.888 177.52C339.192 178.471 333.817 178.206 328.243 178.705C326.762 178.83 326.777 179.687 327.632 180.919C331.847 187.124 339.345 188.121 346.064 187.467C349.103 186.921 351.715 184.926 354.876 184.785C356.937 184.318 358.831 184.832 360.694 185.565C361.717 185.845 362.847 185.362 363.809 184.941C366.237 183.834 368.94 182.992 371.277 182.213L371.521 182.119C373.43 181.402 374.759 180.186 372.804 179.672Z" fill="#DDDDDD"/>
<path d="M453.374 275.331C451.801 277.077 449.663 278.745 447.571 279.961C443.997 281.894 440.852 284.856 436.927 285.994C435.827 286.29 434.728 286.586 433.689 287.039C426.68 290.079 427.016 289.954 431.399 296.049C435.247 301.334 438.622 307.04 443.127 311.748C448.166 316.706 452.412 322.349 457.054 327.681C462.17 333.075 467.683 338.048 473.272 342.85C475.471 344.159 480.19 351.471 480.648 345.298C481.916 336.739 489.154 329.988 496.958 327.556C498.943 326.621 502.073 326.933 503.402 325.093C504.013 323.378 502.883 321.227 502.562 319.45C499.248 309.207 502.532 298.793 507.357 289.704C507.953 288.395 507.876 287.413 506.716 286.555C504.822 285.246 502.684 284.108 500.943 282.705C492.147 274.115 481.656 267.162 474.478 256.888C473.929 256.109 473.119 254.908 472.249 254.924H472.096C471.516 255.033 470.936 255.688 470.355 256.514C466.828 261.253 464.125 266.678 459.91 270.888C458.154 273.039 455.496 273.803 453.404 275.331H453.374Z" fill="#FECE13"/>
<path d="M355.058 112.231C353.47 115.38 353.226 119.807 352.34 123.128C352.111 124.375 351.271 125.513 350.676 126.511C350.553 126.791 350.523 127.072 350.599 127.337C351.195 128.413 352.386 130.237 353.348 130.892C353.76 131.11 354.127 130.969 354.432 130.626C355.394 129.099 356.036 127.353 356.769 125.716C357.548 123.861 358.25 121.99 358.922 120.103C359.395 118.607 360.266 116.939 359.533 115.707L359.411 115.489C358.983 114.865 358.388 114.273 357.761 113.665C356.937 113.026 356.005 111.732 355.074 112.215L355.058 112.231Z" fill="#DDDDDD"/>
<path d="M531.943 98.1375C533.868 100.195 536.494 99.9771 538.663 98.5584C543.824 95.8458 549.307 93.5541 555.079 92.9773C561.982 91.9016 569.067 91.9016 575.435 95.191C578.474 96.5941 580.689 93.7256 583.025 92.2134C589.851 87.8638 597.334 85.7904 605.413 86.1802C609.918 86.1022 613.293 90.2179 617.553 90.6388C621.463 89.7346 625.067 87.2091 629.113 86.4919C641.162 83.1557 649.775 85.4319 659.121 93.6477C661.106 95.269 662.954 97.0306 664.817 98.6987C667.032 100.944 669.506 102.035 672.254 100.289C677.813 97.3112 684.196 96.7032 690.32 95.8614C699.895 94.3024 710.05 98.8702 715.517 107.117C718.404 112.589 721.549 110.407 726.39 109.845C735.355 108.957 745.311 109.986 752.046 116.518C753.802 118.435 756.398 119.885 758.903 118.654C760.552 117.859 760.353 115.832 760.063 114.257C759.086 108.583 758.2 102.83 757.238 97.1865C756.642 93.8503 755.07 89.7658 757.513 86.8505C765.576 80.9108 773.41 111.888 774.586 117.266C775.487 121.304 780.129 122.146 782.267 125.326C783.657 126.901 784.848 128.631 785.49 130.72C785.887 131.811 786.146 133.074 786.971 133.885C788.04 134.945 789.796 134.976 791.201 135.335C794.072 135.88 796.179 137.751 798.271 139.435C800.99 141.555 801.433 139.232 801.28 136.847C800.822 128.491 801.036 119.792 798.119 111.841C794.744 102.331 792.392 91.8548 786.559 83.3116C782.741 77.3719 777.32 72.5235 772.448 67.4101C757.299 51.7891 739.417 38.4443 718.572 32.0525C700.109 25.5048 680.547 23.2287 661.106 23.447C630.167 22.4492 599.61 31.0392 571.847 44.4776C548.314 54.0341 534.86 66.7553 519.62 87.022L519.452 87.2247C506.547 103.89 523.33 89.532 531.928 98.1531L531.943 98.1375Z" fill="#FECE13"/>
<path d="M446.914 247.612C441.813 251.525 436.957 255.563 431.246 258.494C427.016 261.128 422.205 263.264 417.257 264.543C412.004 265.961 406.537 265.836 401.131 264.917C400.215 264.885 399.757 265.166 399.894 265.805C400.658 267.848 402.49 269.531 403.742 271.308C408.4 278.293 413.699 279.805 421.625 278.277C429.337 276.578 436.392 272.867 442.928 268.44C445.998 266.507 449.235 264.808 452.075 262.547C456.061 259.554 458.703 255.08 461.818 251.073C465.132 247.565 469.79 234.813 465.27 231.383C463.162 230.245 460.307 230.105 458.627 231.898C457.848 232.739 457.634 233.067 456.886 234.158L456.733 234.392C453.877 239.069 451.236 244.104 446.914 247.628V247.612Z" fill="white"/>
<path d="M348.019 114.616C347.423 114.023 346.079 114.444 345.438 114.288H345.24C343.056 114.678 344.797 117.188 345.148 118.451C345.621 119.558 346.186 121.366 346.996 122.161C347.362 119.573 348.141 117.141 348.034 114.6L348.019 114.616Z" fill="#DDDDDD"/>
<path d="M647.042 293.01C673.827 286.898 702.094 286.774 728.712 293.758C731.598 294.413 734.316 293.134 737.034 292.308C741.585 291.076 746.121 289.767 750.534 288.13C767.271 283.032 783.214 275.596 799.066 268.175C801.509 266.99 803.784 265.431 806.197 264.184C809.038 262.937 811.924 262.189 814.306 260.131C815.055 259.039 826.538 254.861 821.636 253.77C807.068 252.196 793.354 246.24 781.26 237.713C766.951 228.25 762.079 210.524 760.369 194.061C759.498 189.291 760.888 183.881 759.223 179.407C757.62 177.77 754.688 179.235 752.535 178.97C749.587 179.298 746.671 179.064 744.044 177.926C744.013 177.926 743.968 177.942 743.937 177.957C743.937 177.926 743.952 177.91 743.968 177.895C743.433 177.661 742.914 177.411 742.41 177.1C737.431 174.746 733.797 170.63 731.461 165.485C730.773 163.739 729.384 162.726 727.612 163.63C716.861 168.837 702.4 171.176 693.313 161.619C691.297 159.468 688.869 157.846 687.067 155.539C685.754 153.668 684.135 153.746 682.654 155.196C680.058 157.519 676.866 159.748 673.507 159.639C671.567 159.577 669.628 159.312 667.673 159.436C662.847 159.374 656.8 160.762 652.585 157.737C651.99 157.316 651.257 156.724 650.585 156.693C649.684 156.661 651.18 157.987 650.02 157.768C648.08 157.41 646.278 156.287 644.568 155.18C642.308 154.011 639.788 150.94 637.1 152.499C631.679 157.955 624.685 161.198 616.942 161.011C609.124 161.37 601.946 158.018 596.174 152.78C594.555 151.252 592.783 151.361 591.088 152.624C581.91 158.969 569.006 157.223 558.882 154.058C556.286 153.372 553.521 150.067 551.292 152.982C546.222 158.953 540.969 165.329 534.097 169.383C531.882 171.3 524.338 172.688 524.705 176.008C525.865 181.278 530.065 186.111 524.903 190.928C520.292 195.231 517.085 200.781 513.542 205.972C509.388 211.366 510.029 218.257 509.602 224.695C508.426 235.592 513.404 245.585 519.62 254.144C521.758 257.34 523.926 260.598 526.583 263.373C529.027 266.039 531.928 268.378 535.425 267.084C538.785 266.18 542.374 266.164 545.901 266.133C549.719 266.133 553.689 265.603 557.461 266.242C570.763 268.877 582.323 277.638 590.447 288.551C593.944 293.29 597.976 297.842 600.969 302.784C603.489 306.152 608.421 305.746 612.056 304.982L612.3 304.936C615.461 304.717 618.424 303.252 621.279 301.818C629.327 297.998 638.139 294.849 646.996 292.978L647.042 293.01ZM646.614 217.243C648.202 211.382 650.065 205.66 653.669 200.64C656.708 196.4 660.45 193.064 664.863 190.445C666.253 189.618 667.658 188.776 669.17 188.215C671.537 187.327 673.537 188.184 674.835 190.117C675.354 190.897 675.431 191.489 674.621 191.863C669.872 193.999 667.016 198.208 663.809 202.012C661.641 204.569 659.167 206.938 657.93 210.197C657.793 210.571 657.732 210.992 657.64 211.382C657.396 211.475 657.167 211.647 657.38 211.896C657.579 212.13 657.823 211.912 657.991 211.74C660.465 210.867 662.404 208.825 665.153 208.513C667.688 208.232 670.147 207.063 672.758 208.217C673.262 208.435 673.949 208.264 674.545 208.232C676.53 208.108 678.485 209.246 678.851 210.758C679.218 212.301 677.813 214.577 676.026 215.232C675.37 215.482 674.667 215.762 673.995 215.778C669.979 215.871 666.451 217.867 662.649 218.724C660.801 219.145 659.366 220.268 657.884 221.343C656.067 222.653 654.25 223.962 652.463 225.319C651.363 226.145 650.493 226.27 649.271 225.272C645.912 222.544 645.469 221.484 646.629 217.228L646.614 217.243ZM571.236 225.366C568.502 223.822 565.906 222.154 563.921 219.597C560.913 215.684 559.783 211.272 559.935 206.346C560.119 200.484 561.585 194.997 564.074 189.759C564.944 187.95 566.258 186.485 567.937 185.534C568.945 184.972 569.694 184.224 570.533 183.429C568.716 178.409 565.051 176.913 560.363 177.302C559.065 177.411 557.767 177.521 556.469 177.77C554.789 178.097 553.812 177.146 553.964 175.369C554.025 174.73 553.873 174.184 553.827 173.592C553.72 172.438 554.804 170.879 555.843 170.957C558.576 171.144 561.233 170.38 563.952 170.396C568.67 170.412 572.427 172.75 575.787 175.806C578.978 178.705 581.651 182.057 583.102 186.266C583.85 188.418 584.888 190.398 585.988 192.378C587.164 194.482 587.652 196.758 587.714 199.175C587.851 204.241 587.79 209.261 585.896 214.079C584.445 217.758 582.475 221.063 579.727 223.885C577.222 226.457 574.473 227.174 571.251 225.366H571.236ZM609.292 257.621C608.788 257.808 608.314 257.823 608.116 257.714C607.093 257.309 606.421 257.621 605.764 257.823C601.076 259.289 596.372 258.728 591.73 257.683C587.133 256.654 583.529 253.895 580.658 250.122C580.108 249.389 579.513 248.688 578.826 248.08C576.382 245.897 575.558 242.951 575.008 239.864C574.733 238.352 574.977 236.933 576.505 236.169C577.971 235.452 579.269 236.013 580.307 237.042C582.323 239.038 584.216 241.174 586.202 243.2C588.66 245.726 591.547 247.581 595.105 247.815C598.189 248.017 601.29 247.597 604.374 247.332C609.353 246.926 614.346 246.131 619.019 244.588C624.288 242.857 629.602 240.737 633.756 236.637C636.031 234.376 638.994 233.223 641.727 231.757C643.087 231.025 645.133 231.929 646.446 233.503C647.332 234.564 647.332 235.811 646.156 237.385C645.179 238.679 644.049 239.895 642.842 240.986C639.376 244.136 635.68 247.004 631.954 249.81C629.892 251.369 627.311 251.697 625.021 252.772C620.012 255.126 614.438 255.719 609.261 257.605L609.292 257.621Z" fill="#5BC9E4"/>
<path d="M890.48 307.087C888.769 306.167 886.005 306.916 884.264 305.918C882.966 304.904 881.989 303.33 881.607 301.631C881.241 298.606 882.691 295.894 883.455 292.963C884.921 285.526 882.645 277.014 876.109 272.758C869.497 268.206 862.579 264.059 854.959 261.612C847.95 259.944 840.619 260.302 833.488 260.489C831.243 260.676 829.12 261.471 827.196 262.672C822.905 265.369 818.69 267.972 814.338 270.56C794.501 282.424 773.06 291.061 751.726 299.604C750.779 300.493 752.016 301.272 752.856 301.724C760.492 305.45 768.463 308.849 776.053 312.808C779.779 314.648 780.008 317.875 777.87 321.118C777.153 322.287 776.725 323.784 775.503 324.501C773.747 325.452 770.769 324.189 768.723 323.332C760.431 319.761 752.368 315.677 744.152 311.904C729.446 305.372 713.579 302.675 697.911 299.916C692.688 299.744 687.511 299.323 682.334 298.902C678.119 299.339 673.66 299.121 669.537 299.885C667.857 300.321 666.177 300.695 664.437 300.493C656.098 299.308 647.883 301.443 640.201 304.577C634.475 306.401 628.595 307.601 623.22 310.345C619.081 312.325 615.141 313.338 616.271 318.951C616.577 320.853 616.607 322.895 617.02 324.75C617.249 325.623 617.692 326.231 618.348 326.403C619.203 326.621 620.15 326.231 620.99 325.904C626.473 323.628 632.535 323.144 638.384 322.209C644.248 320.993 649.898 321.445 655.747 320.962C680.334 321.585 696.292 337.082 712.724 353.841C716.526 358.003 719.596 362.789 722.757 367.466C728.926 375.838 738.898 381.653 748.977 383.477C752.383 384.334 756.369 382.463 759.637 383.882C765.776 388.964 756.811 393.922 773.411 394.483C778.894 394.343 784.681 394.998 789.889 393.002C794.119 391.802 797.326 387.639 801.693 387.047C803.068 387 804.274 387.811 805.419 388.808C811.192 394.015 819.591 395.512 827.104 394.92C829.624 394.686 831.884 393.47 833.976 392.098C837.412 389.869 841.169 388.091 845.079 387.125C848.408 386.018 851.279 388.154 854.348 389.261C858.044 390.461 864.946 390.43 864.977 385.145C864.87 383.991 864.58 382.417 864.305 381.185C863.755 378.504 862.457 375.744 864.839 374.076C866 373.172 867.481 372.315 868.886 372.127C870.749 371.925 872.643 372.969 874.582 372.689C878.583 372.018 882.34 370.023 885.975 368.292C888.693 367.341 890.831 365.829 892.205 363.569C894.129 360.778 893.885 355.852 892.587 352.671C891.716 350.785 889.456 349.476 888.265 347.62C885.684 343.816 889.227 339.981 891.762 337.347C893.992 335.725 895.947 333.917 897.092 331.298L897.214 331.064C902.345 323.737 897.886 311.062 890.48 307.025V307.087Z" fill="#FECE13"/>
<path d="M794.088 179.157C790.438 182.494 786.315 184.053 781.596 184.084C778.252 184.333 774.8 184.442 771.487 183.335C770.647 183.086 769.501 182.883 769.165 183.819C768.463 188.355 770.54 192.767 771.655 197.273C773.182 202.215 774.312 207.375 777.183 211.6C783.215 224.149 795.248 231.695 807.755 236.341C810.611 237.479 813.436 238.913 816.552 239.084C820.125 239.256 823.698 239.552 827.257 239.474C829.914 239.287 832.479 238.367 835.152 238.133C842.91 237.37 849.308 232.646 855.691 228.499C859.005 226.098 863.144 224.96 865.725 221.671C867.985 218.537 871.94 215.466 871.864 211.241C871.436 209.495 868.947 210.041 866.946 209.729C865.19 209.495 863.48 209.729 862.029 210.883C856.974 215.482 850.973 217.836 844.192 217.118C839.229 217.243 835.763 213.081 830.968 212.473C828.097 211.989 825.332 211.272 822.538 210.508C820.446 209.978 818.277 209.62 816.597 208.31C814.368 206.424 812.062 204.475 809.786 202.698L809.588 202.526C806.228 199.658 803.296 195.542 801.525 191.317C800.181 186.781 799.433 182.213 798.409 177.443C797.631 175.135 795.172 178.518 794.072 179.189L794.088 179.157Z" fill="#FECE13"/>
<path d="M376.422 137.19C375.735 135.444 374.895 131.671 376.682 130.938C377.583 130.611 378.453 131.297 379.003 131.998L379.156 132.186C387.708 145.094 390.487 161.635 387.448 176.803C386.929 179.843 389.128 178.643 390.609 177.521C394.121 174.948 397.878 173.202 402.368 173.14C403.422 173.093 404.597 173.109 405.575 172.859C410.385 171.144 407.804 164.269 405.941 160.949C403.483 155.492 400.902 150.098 396.214 146.357C392.961 143.176 391.51 138.655 388.945 134.976C383.6 128.007 374.681 125.622 367.565 121.132C363.961 119.542 363.411 125.123 362.266 127.446C360.891 131.172 358.769 134.477 357.41 138.203C356.6 139.934 355.486 141.477 354.493 143.098C352.355 147.105 350.034 150.753 345.773 146.809C341.192 142.771 338.855 138.016 334.503 133.308C331.601 129.629 330.7 124.562 328.624 120.524C327.875 118.794 326.791 118.17 325.264 119.137C320.179 123.159 313.429 123.44 308.267 127.306C305.702 129.333 303.778 132.139 301.914 134.836C297.226 141.976 292.95 149.506 289.698 157.441C288.735 160.107 287.926 162.913 287.56 165.735C287.224 168.759 288.17 171.69 288.125 174.714C288.277 179.282 287.651 184.177 289.209 188.527C290.339 191.052 291.087 194.248 292.904 196.213C296.661 200.095 300.479 204.023 304.877 207.203C308.389 209.776 311.734 212.94 316.071 213.658C325.692 214.281 335.526 215.107 344.842 212.083C347.209 211.647 347.942 209.885 347.239 207.671C346.476 204.725 345.834 201.685 345.529 198.629C345.269 194.202 342.444 193.952 338.672 193.297C337.405 193.017 336.198 192.533 334.961 192.128C332.625 191.255 330.151 191.629 327.753 190.569C321.706 187.56 318.331 181.527 316.223 175.12C314.467 169.726 314.941 163.989 314.024 158.454C312.955 152.14 312.131 145.499 312.772 139.154C313.429 135.366 316.239 136.254 317.14 139.154C319.186 145.873 320.224 153.512 322.179 160.512C323.248 164.456 322.118 174.496 327.906 174.138C335.022 173.109 342.383 172.423 349.637 172.049C351.53 171.971 353.241 170.833 354.829 170.053C357.532 168.884 359.945 172.049 362.907 172.002C367.092 172.345 371.108 173.639 375.277 174.278C376.758 174.481 378.682 174.979 379.889 173.904C381.278 172.329 380.469 169.835 380.713 167.808C381.492 162.476 381.187 157.145 380.209 151.875C379.629 146.824 378.53 141.851 376.468 137.19H376.422Z" fill="#DDDDDD"/>
<path d="M325.906 85.1823C325.6 86.5386 325.524 87.8326 326.028 88.6433C326.471 89.4539 327.586 90.2022 328.456 89.5786C328.96 89.2201 328.761 88.4406 328.807 87.8794C328.853 87.0999 328.945 86.1177 328.991 85.3538V85.1511C328.96 84.3249 329.174 82.875 328.792 82.0488C327.418 80.8796 326.257 83.7169 325.906 85.1511V85.1823Z" fill="#DDDDDD"/>
<path d="M231.347 284.295C232.248 284.918 233.393 284.903 234.462 284.825C239.425 284.497 244.312 284.466 249.214 283.827C255.353 284.217 261.477 284.544 267.57 283.656C276.274 283.453 284.872 281.535 293.592 281.613C296.585 281.613 299.502 281.083 302.48 280.959C309.016 280.865 315.659 281.894 322.164 280.771C330.502 281.333 339.023 280.927 347.392 280.226C361.166 279.524 374.972 279.898 388.746 278.947C390.227 278.885 392.579 278.667 393.022 277.311C393.526 276.017 392.289 274.816 390.731 274.738C386.608 274.801 382.439 274.957 378.346 275.346C371.322 275.783 364.389 277.809 357.303 277.685C346.995 277.139 336.702 278.838 326.44 277.965C315.2 279.259 303.885 278.293 292.63 278.698C290.66 278.776 288.72 278.604 286.781 278.386C281.085 278.152 276.32 278.106 270.594 277.201C263.859 276.999 257.002 277.482 250.268 276.625L250.008 276.593C243.426 275.907 236.401 275.58 229.789 274.458C227.895 274.614 228.644 276.983 228.919 278.262C229.468 280.522 229.774 283.219 231.362 284.279L231.347 284.295Z" fill="#DDDDDD"/>
<path d="M488.865 374.107C480.939 375.089 476.877 372.392 478.526 363.678C479.152 361.667 478.771 359.515 477.121 358.175C464.355 346.903 450.351 336.817 439.906 323.129C435.691 318.156 431.613 312.949 428.116 307.461C425.429 303.408 422.848 299.308 420.206 295.223C419.503 294.147 418.679 293.243 417.64 292.838C416.709 292.464 415.64 292.448 414.601 292.495C409.959 292.776 405.485 292.012 402.125 288.785C400.903 287.584 399.605 286.228 397.864 286.056C394.611 285.885 391.16 286.571 387.877 286.914C377.981 287.787 367.795 287.366 357.732 287.553C340.353 288.613 323.005 288.052 305.596 288.145C290.707 288.364 276.001 290.453 261.142 290.811C254.575 291.435 247.963 291.045 241.366 291.357C237.426 291.669 233.394 291.014 229.47 291.731C226.309 292.183 222.735 292.199 221.773 295.722C220.17 302.706 217.619 309.379 215.588 316.207C212.946 326.902 210.824 337.69 207.861 348.275C205.677 360.201 202.089 371.784 199.844 383.711C199.676 384.615 199.615 385.457 199.859 386.049C201.569 389.011 210.167 385.893 213.695 386.236C228.248 386.642 242.862 387.499 257.431 387.187C276.337 386.797 295.212 386.501 314.148 386.532C324.38 385.519 334.779 385.675 344.98 385.067C354.418 385.613 363.886 384.942 373.354 385.098C382.547 385.987 391.863 385.613 400.934 384.958C411.257 384.225 421.855 384.147 432.24 383.461C447.511 383.461 462.797 383.321 478.083 383.212C482.191 383.243 486.238 383.757 490.27 383.913C492.148 384.022 494.24 383.492 494.332 381.279V381.045C494.378 375.931 495.34 373.078 488.834 374.061L488.865 374.107Z" fill="#DDDDDD"/>
<path d="M601.841 318.67C600.054 318.156 598.313 319.652 597.321 321.149C595.809 323.316 593.946 325.28 592.098 327.167C586.982 332.327 579.912 334.619 573.742 338.126C566.504 343.162 557.708 343.988 549.492 346.591C542.299 348.54 547.048 359.687 548.438 364.551C548.957 365.595 549.828 366.016 550.973 365.767C553.309 365.096 555.676 364.099 558.089 363.522C570.566 360.264 580.904 352.017 591.838 345.485C594.984 343.536 597.855 341.244 600.986 339.28C603.093 338.173 604.071 335.881 604.712 333.745L604.788 333.512C605.949 330.643 604.819 327.65 604.513 324.61C604.178 322.505 604.239 319.403 601.856 318.655L601.841 318.67Z" fill="white"/>
<path d="M396.444 242.514C397.696 244.541 397.33 247.363 398.826 249.249C399.452 250.091 400.262 250.808 401.147 251.354C408.981 254.97 417.579 249.701 425.047 247.3C429.903 243.917 435.248 241.08 439.646 237.089C441.356 235.436 442.731 233.457 444.09 231.508C447.694 226.301 451.68 220.985 453.1 214.593C454.749 207.453 454.673 185.799 442.7 192.362C439.936 194.155 439.295 199.237 438.287 202.526C437.493 205.411 437.264 208.684 434.942 210.602C433.705 211.771 431.934 211.615 430.666 210.618C429.2 209.511 427.582 208.513 426.757 206.814C423.55 198.738 419.961 187.997 410.631 185.643C405.179 184.536 399.04 186.407 395.222 190.554C391.13 193.687 388.198 198.629 385.418 203.072C383.57 205.582 383.601 208.825 382.639 211.709C380.257 219.862 380.944 226.27 386.686 232.49L386.854 232.693C389.404 236.154 393.787 238.851 396.429 242.499L396.444 242.514Z" fill="#FECE13"/>
<path d="M239.731 269.843C250.008 271.386 260.408 271.262 270.792 271.355C286.17 272.306 301.762 272.977 317.14 272.072C324.058 271.371 331.052 272.322 337.924 271.62C345.315 270.716 352.829 271.262 360.235 270.841C368.955 269.562 377.69 268.456 386.502 267.863C388.991 267.661 389.708 264.917 386.99 265.088C385.066 265.447 383.203 266.507 381.157 266.585C365.748 267.879 349.973 267.785 334.473 268.362C319.11 269.5 303.473 271.324 288.11 268.612C277.374 266.18 254.452 270.42 248.939 258.4C247.702 256.046 245.274 258.26 243.839 259.258C240.311 261.83 236.112 263.124 232.889 266.039L232.706 266.211C229.056 270.498 237.303 269.516 239.746 269.843H239.731Z" fill="#DDDDDD"/>
<path d="M553.751 336.255C556.255 335.632 558.546 334.322 561.127 333.901C573.817 330.316 585.133 322.022 593.456 311.717C594.708 309.956 592.998 308.537 592.005 307.196C586.492 299.931 581.01 292.277 574.535 285.791C569.297 280.959 562.776 276.89 555.629 276.547C550.086 276.812 544.222 275.876 539.106 278.277C535.135 279.898 530.951 281.286 527.225 283.437C524.659 285.916 522.185 288.629 519.635 291.217C511.969 300.882 510.427 314.118 516.291 325.093C520.109 332.483 529.76 336.146 537.655 336.302H537.915C543.183 336.598 548.543 337.082 553.766 336.271L553.751 336.255Z" fill="#FECE13"/>
<path d="M533.304 344.565C529.745 344.144 526.264 343.208 522.904 341.946C520.125 340.979 517.406 339.95 515.207 338.048C512.474 335.819 509.679 332.389 505.8 333.465C500.318 334.65 495.049 337.503 491.232 341.868C490.56 342.632 489.766 343.988 491.033 344.502C493.813 345.391 497.386 343.208 499.86 344.565C501.036 345.142 501.998 346.202 502.548 347.418C503.22 348.93 503.281 350.723 502.548 352.219C501.754 353.981 499.448 354.558 497.783 355.618C495.431 357.333 493.064 359.375 491.094 361.511C490.819 361.854 490.254 362.587 490.529 362.867C490.697 363.023 491.14 362.961 491.766 362.742C493.797 361.963 495.966 360.731 497.768 359.422C500.685 357.255 502.761 353.311 506.885 354.277C509.542 354.667 511.466 357.426 511.283 360.03C511.069 363.834 505.648 365.97 506.335 369.976C507.404 374.7 518.506 367.528 520.216 365.377C523.591 361.885 527.653 358.689 531.227 355.524L531.425 355.353C533.899 353.108 536.22 349.756 535.961 346.233C535.701 345.001 534.418 344.69 533.319 344.549L533.304 344.565Z" fill="white"/>
<path d="M287.912 200.936C286.721 199.268 285.652 197.507 284.705 195.651C285.637 197.507 286.721 199.253 287.912 200.936Z" fill="#DDDDDD"/>
<path d="M293.47 135.459C292.432 137.034 291.439 138.64 290.523 140.261C286.629 147.635 281.681 154.728 280.597 163.225C281.666 154.728 286.629 147.635 290.523 140.261C291.439 138.64 292.432 137.018 293.47 135.444V135.459Z" fill="#DDDDDD"/>
<path d="M286.431 201.638C287.546 202.324 288.111 203.275 288.081 204.085C288.111 203.275 287.546 202.308 286.431 201.638C284.538 200.484 282.43 200.328 280.308 200.671C282.43 200.328 284.522 200.5 286.431 201.638Z" fill="#DDDDDD"/>
<path d="M301.533 125.575C302.511 124.609 303.518 123.674 304.572 122.816C303.518 123.689 302.511 124.625 301.533 125.575Z" fill="#DDDDDD"/>
<path d="M304.588 122.816C306.13 121.756 307.856 121.039 309.627 120.462C307.841 121.039 306.13 121.756 304.588 122.816Z" fill="#DDDDDD"/>
<path d="M268.364 205.348C264.409 207.359 260.775 209.978 257.919 213.439C260.775 209.994 264.409 207.359 268.364 205.348Z" fill="#DDDDDD"/>
<path d="M430.832 192.019C429.229 195.184 428.236 193.469 427.702 191.395C426.587 187.591 424.724 183.897 422.128 180.826C424.709 183.897 426.587 187.591 427.702 191.395C428.252 193.469 429.229 195.199 430.832 192.019Z" fill="#DDDDDD"/>
<path d="M370.742 77.1381C370.115 76.2651 369.52 75.4077 369.337 74.4567C369.535 75.4233 370.115 76.2651 370.742 77.1381Z" fill="#DDDDDD"/>
<path d="M392 127.275C391.312 126.682 390.595 126.137 389.877 125.591C390.595 126.121 391.312 126.682 392 127.275Z" fill="#DDDDDD"/>
<path d="M284.2 202.293H290.492L310.253 214.967L337.39 216.277H354.784L361.258 220.533L365.825 215.591L360.235 189.493L377.935 180.826L383.524 187.295L379.446 206.782L378.393 230.526L391.251 244.291L392.457 257.34L368.711 261.892L298.525 266.367C298.525 266.367 260.866 261.58 260.408 261.736C259.95 261.892 249.825 254.908 249.825 254.908L253.154 232.708L263.172 211.865L284.216 202.277L284.2 202.293Z" fill="#DDDDDD"/>
<path d="M911.4 314.539L911.37 314.399L911.339 314.274C911.11 313.432 910.851 312.606 910.56 311.795C910.56 311.78 910.56 311.748 910.545 311.733C910.362 311.218 910.133 310.719 909.919 310.205C909.782 309.893 909.675 309.581 909.537 309.27C908.988 308.054 908.331 306.9 907.644 305.762C905.567 302.363 902.925 299.308 899.886 296.813C899.657 296.626 899.428 296.439 899.214 296.252C897.748 294.896 896.878 293.181 897.046 291.045C897.046 291.014 897.046 290.983 897.046 290.952C897.229 289.393 897.29 287.865 897.244 286.368C897.076 281.894 895.87 277.763 893.884 273.99C892.999 272.306 891.93 270.685 890.754 269.157C889.746 267.848 888.646 266.569 887.455 265.369C885.913 263.81 884.218 262.344 882.431 260.988C881.24 260.084 879.988 259.226 878.72 258.416C876.796 257.2 874.796 256.093 872.749 255.111C871.375 254.456 869.985 253.832 868.58 253.271C867.878 252.991 867.175 252.726 866.473 252.476C865.053 251.962 863.632 251.51 862.212 251.104C857.952 249.904 853.721 249.187 849.766 248.984C849.11 248.906 848.743 248.781 848.56 248.61C848.453 248.516 848.392 248.423 848.422 248.314C848.483 248.017 849.018 247.643 849.827 247.269C850.117 247.176 850.377 247.066 850.667 246.973C852.775 246.24 854.806 245.43 856.776 244.556C863.968 241.376 870.275 237.198 875.467 231.523C875.559 231.43 875.651 231.321 875.727 231.212C877.437 229.31 879.026 227.252 880.492 224.991C881.515 223.417 882.462 221.764 883.363 220.003C884.676 218.241 885.592 216.121 886.814 214.266C887.394 213.377 888.051 212.535 888.845 211.834C889.44 211.304 890.158 210.898 890.922 210.54C891.746 210.15 892.602 209.807 893.442 209.464C894.938 208.84 896.343 208.186 897.198 207.048C898.237 205.832 898.619 204.304 898.863 202.729C898.939 202.199 899.016 201.669 899.092 201.155C899.26 199.985 899.458 198.816 899.901 197.772C905.384 190.195 910.377 179.204 903.505 170.692C903.353 170.49 903.185 170.287 903.017 170.1C901.978 168.946 900.634 167.933 900.085 166.499C899.993 166.265 899.932 166 899.886 165.735C900.237 162.476 900.695 159.873 900.711 157.55C900.711 157.067 900.695 156.615 900.65 156.163C900.604 155.664 900.527 155.165 900.42 154.682C900.268 153.996 900.054 153.325 899.749 152.655C898.863 150.675 897.275 148.695 894.511 146.388C893.945 145.967 893.396 145.515 892.892 145.047C892.388 144.579 891.914 144.065 891.517 143.519C890.708 142.428 890.174 141.181 890.097 139.669C890.006 135.21 888.448 130.689 885.76 127.228C884.859 126.074 883.836 125.03 882.691 124.141C880.614 122.535 878.155 121.46 875.376 121.148C874.032 120.836 872.642 120.852 871.237 120.93C868.901 121.07 866.534 121.382 864.381 120.618C863.709 120.181 863.037 119.714 862.365 119.23C862.029 118.997 861.693 118.747 861.357 118.498C860.685 117.999 860.013 117.5 859.341 117.017C859.005 116.767 858.654 116.533 858.318 116.284C857.631 115.801 856.944 115.349 856.226 114.928C855.875 114.709 855.523 114.507 855.157 114.32C854.073 113.743 852.958 113.26 851.797 112.932C851.415 112.823 851.018 112.729 850.621 112.652C849.43 112.433 848.178 112.387 846.865 112.574C842.741 112.839 840.1 113.587 838.252 114.585C836.603 115.473 835.595 116.58 834.724 117.734C834.19 118.451 833.701 119.199 833.166 119.932C832.739 120.509 832.265 121.086 831.7 121.631C831.41 121.896 831.105 122.177 830.769 122.426C830.097 122.941 829.288 123.424 828.295 123.845C823.576 123.939 820.186 123.845 817.33 125.872C816.811 126.246 816.307 126.682 815.819 127.212C815.635 127.415 815.452 127.618 815.269 127.836C814.734 128.506 814.2 129.286 813.681 130.206C813.36 130.517 813.039 130.627 812.749 130.549C812.657 130.517 812.566 130.471 812.474 130.393C811.741 129.754 811.665 128.506 811.68 127.306C811.68 127.072 811.68 126.823 811.68 126.589C811.68 126.339 811.68 126.105 811.68 125.872C811.68 125.685 811.649 125.498 811.634 125.326C811.634 124.11 811.573 122.878 811.466 121.678C811.161 118.03 810.458 114.429 809.313 110.952C809.008 109.892 808.702 108.832 808.397 107.772C806.243 100.351 803.922 92.9461 800.7 85.9931C800.334 85.198 799.952 84.4029 799.555 83.6234C797.585 79.7104 795.294 75.9688 792.545 72.4455C791.843 71.5569 791.11 70.6683 790.392 69.7953C788.941 68.0337 787.46 66.3032 785.948 64.5727C781.413 59.4281 776.587 54.4861 771.517 49.856C764.111 43.1056 756.139 36.9944 747.679 31.8186C747.175 31.5224 746.686 31.2106 746.182 30.9144C743.525 29.3399 740.822 27.8432 738.073 26.4558C733.92 24.3667 729.644 22.496 725.276 20.9058C724.36 20.5784 723.459 20.251 722.527 19.9392C716.098 17.7723 709.455 16.1509 702.614 15.2155C663.23 7.09328 614.331 12.2535 574.016 30.7118C568.258 33.3464 562.669 36.2617 557.324 39.4264C554.652 41.0166 552.025 42.6379 549.475 44.3684C547.872 45.4597 546.283 46.5666 544.726 47.7046C538.495 52.2568 532.692 57.2455 527.424 62.6708C525.118 65.1184 522.842 67.753 520.628 70.5436C519.88 71.479 519.147 72.4144 518.414 73.3809C516.948 75.2985 515.512 77.2784 514.077 79.305C513.359 80.3184 512.656 81.3317 511.954 82.3606C511.251 83.3896 510.549 84.4341 509.862 85.4786C509.205 86.2269 508.594 86.9908 508.014 87.7859C506.93 89.2825 506.013 90.8571 505.204 92.4784C503.463 96.0017 502.272 99.79 501.218 103.656C500.806 105.168 500.409 106.696 500.012 108.208C500.012 108.286 499.997 108.364 499.981 108.442C499.936 109.035 499.844 109.565 499.722 110.017C499.661 110.235 499.6 110.422 499.538 110.594C499.218 111.436 498.76 111.981 498.195 112.324C498.011 112.433 497.828 112.527 497.63 112.589C497.034 112.807 496.362 112.87 495.614 112.854C494.423 112.839 493.079 112.636 491.674 112.558C491.445 112.558 491.2 112.542 490.971 112.542C489.902 112.496 488.879 112.558 487.917 112.761C481.167 114.101 477.227 121.039 476.617 128.101C476.555 128.803 476.525 129.504 476.54 130.206C476.54 130.814 476.571 131.422 476.632 132.03C476.8 133.838 477.212 135.584 477.853 137.174C478.785 138.453 479.396 139.591 479.808 140.62C480.816 143.114 480.526 145 479.701 146.84C479.579 147.105 479.457 147.37 479.32 147.619C479.121 148.009 478.892 148.399 478.648 148.804C478.403 149.21 478.144 149.63 477.884 150.067C476.952 151.61 475.975 153.325 475.318 155.508C472.142 169.242 477.227 185.736 493.812 182.447C498.928 181.137 503.234 177.832 507.342 174.746C508.319 173.95 509.175 173.592 509.908 173.576C509.938 173.576 509.953 173.576 509.984 173.576C510.152 173.576 510.32 173.607 510.488 173.654C510.656 173.701 510.824 173.779 510.992 173.873C511.053 173.919 511.129 173.95 511.19 174.013C511.343 174.122 511.481 174.262 511.618 174.418C511.786 174.605 511.939 174.808 512.076 175.042C512.519 175.79 512.87 176.803 513.099 178.019C513.191 178.253 513.267 178.456 513.344 178.69C513.542 179.189 513.71 179.672 513.848 180.124C514.122 180.95 514.306 181.683 514.428 182.338C514.519 182.79 514.565 183.211 514.596 183.616C514.626 184.006 514.611 184.38 514.596 184.723C514.245 188.153 511.114 189.275 507.922 194.342C506.777 196.166 505.677 198.052 504.654 200.001C503.982 201.295 503.341 202.62 502.761 203.976C502.471 204.647 502.18 205.333 501.921 206.019C501.57 206.923 501.249 207.843 500.943 208.762C500.348 210.602 499.844 212.457 499.493 214.344C499.371 214.967 499.264 215.606 499.172 216.23C499.05 217.087 498.958 217.96 498.897 218.833C498.851 219.41 498.836 220.003 498.821 220.595C498.79 222.357 498.912 224.118 499.172 225.88C499.248 226.41 499.325 226.94 499.432 227.455C499.6 230.401 499.951 233.316 500.47 236.2C501.05 239.427 501.844 242.608 502.837 245.726C504.089 249.654 505.677 253.474 507.525 257.153C510.32 262.672 513.756 267.863 517.711 272.602C517.879 272.961 517.986 273.288 518.062 273.553C518.139 273.818 518.169 274.052 518.154 274.239C518.047 276.812 510.534 271.355 509.297 270.42C504.12 265.805 499.065 261.035 493.491 256.904C491.155 254.939 488.711 253.068 486.344 251.089C485.565 250.434 484.787 249.763 484.038 249.078C482.236 247.425 480.541 245.648 479.075 243.668C478.831 243.216 478.648 242.764 478.51 242.296C478.51 242.28 478.51 242.265 478.495 242.249C478.373 241.813 478.281 241.361 478.22 240.908C478.159 240.363 478.128 239.817 478.128 239.256C478.128 238.975 478.128 238.71 478.159 238.43C478.189 237.962 478.22 237.479 478.266 236.995C478.327 236.434 478.373 235.857 478.434 235.296C478.48 234.813 478.51 234.33 478.525 233.846C478.525 233.581 478.525 233.301 478.525 233.036C478.525 232.521 478.48 232.007 478.403 231.508C478.327 230.838 478.205 230.167 478.052 229.512C477.915 228.936 477.747 228.359 477.533 227.782C476.128 223.775 473.272 220.112 469.775 218.023C467.744 216.542 463.911 218.584 462.857 215.965C462.918 215.092 462.995 214.234 463.086 213.361C463.178 212.41 463.27 211.444 463.361 210.493C463.514 208.887 463.667 207.281 463.758 205.676C463.758 205.582 463.758 205.489 463.774 205.395C463.865 203.68 463.88 201.981 463.774 200.266C463.774 200.141 463.743 200.017 463.743 199.892C463.621 198.239 463.407 196.587 462.995 194.934C462.72 193.703 462.399 192.565 462.017 191.473C461.116 188.948 459.94 186.812 458.551 185.082C452.534 177.567 442.638 177.521 435.476 185.035C434.972 185.565 434.499 186.126 434.025 186.718C433.751 187.061 433.491 187.42 433.231 187.779C432.346 189.026 431.521 190.413 430.788 191.941C429.184 195.106 428.192 193.391 427.657 191.317C426.543 187.514 424.679 183.819 422.083 180.748C421.717 180.311 421.335 179.89 420.938 179.469C420.48 179.002 420.007 178.549 419.518 178.113C416.876 176.57 415.563 175.478 414.967 174.34C414.173 172.828 414.585 171.238 414.723 168.385C414.753 167.652 414.784 166.826 414.753 165.891C414.509 164.176 414.158 162.492 413.715 160.839C413.364 159.546 412.967 158.267 412.493 157.02C412.34 156.599 412.172 156.163 412.004 155.742C411.714 155.009 411.394 154.276 411.058 153.559C410.829 153.045 410.584 152.546 410.325 152.047C409.363 150.145 408.294 148.305 407.118 146.528C406.889 146.185 406.66 145.827 406.415 145.484C404.98 143.426 403.407 141.446 401.712 139.591C401.666 139.544 401.635 139.497 401.59 139.45C401.162 138.983 400.734 138.515 400.291 138.063C398.825 136.301 397.619 134.337 396.336 132.419C396.016 131.936 395.695 131.468 395.359 131.001C394.855 130.284 394.305 129.613 393.725 128.958C393.175 128.335 392.595 127.711 391.953 127.166C391.266 126.573 390.549 126.028 389.831 125.482C385.54 122.317 380.699 120.088 375.842 117.859C375.14 117.531 374.422 117.204 373.72 116.876C371.964 116.066 370.223 115.208 368.512 114.32C367.764 113.93 367.031 113.525 366.298 113.104C365.046 112.371 363.824 111.607 362.633 110.765C362.053 110.36 361.488 109.939 360.938 109.487C360.526 109.159 360.113 108.832 359.701 108.489C359.441 108.318 359.227 108.115 359.029 107.912C358.83 107.71 358.662 107.507 358.525 107.273C358.433 107.133 358.357 106.977 358.296 106.821C358.174 106.509 358.097 106.182 358.067 105.854C358.021 105.356 358.067 104.825 358.174 104.295C358.25 103.937 358.357 103.578 358.479 103.22C358.678 102.674 358.922 102.128 359.197 101.583C359.38 101.224 359.563 100.866 359.762 100.523C360.877 98.3557 363.183 97.5607 365.305 96.7968C365.687 96.6564 366.069 96.485 366.435 96.2823C367.168 95.8925 367.84 95.4249 368.467 94.8948C369.093 94.3648 369.673 93.7412 370.192 93.0864C370.711 92.4316 371.17 91.7145 371.567 90.9506C372.361 89.4384 372.88 87.7703 373.109 86.0866C373.17 85.6657 373.201 85.2447 373.216 84.8082C373.216 84.8082 373.216 84.8082 373.216 84.7926C373.277 83.0934 373.002 81.4097 372.376 79.8507C372.315 79.6792 372.238 79.5233 372.162 79.3518C371.765 78.4944 371.2 77.7305 370.681 76.9978C370.055 76.1247 369.459 75.2673 369.276 74.3163C369.108 67.9557 368.986 61.4704 368.421 55.0474C368.283 53.5196 368.131 52.0074 367.932 50.4952C367.825 49.6066 367.703 48.7335 367.566 47.8449C367.123 44.992 366.558 42.1858 365.825 39.3953C365.534 38.2884 365.229 37.1971 364.878 36.1058C364.618 35.0301 364.282 33.9856 363.885 33.019C361.533 27.2508 356.769 23.899 350.08 28.5916C349.897 28.7163 349.836 28.7631 349.668 28.8878C349.591 28.9345 349.5 28.9969 349.362 29.0904C349.317 29.1216 349.301 29.1372 349.24 29.1684C348.492 29.6673 347.744 30.0102 346.995 30.0258C346.201 30.057 345.392 29.6828 344.567 29.1996C344.292 29.0281 344.002 28.8566 343.727 28.6851C343.04 28.2642 342.322 27.8121 341.559 27.5159C341.467 27.4847 341.391 27.4379 341.299 27.4067C340.948 27.282 340.581 27.2041 340.23 27.1261C338.398 26.7052 336.458 26.7676 334.641 27.2976C332.472 27.9368 330.472 29.2307 329.021 31.008C327.54 32.8164 326.456 34.7339 325.692 36.7606C325.539 37.1659 325.402 37.5713 325.265 37.9766C324.623 40.0344 324.272 42.1702 324.134 44.3528C324.058 45.6623 324.058 47.0031 324.119 48.3438C324.165 49.248 324.226 50.1366 324.318 51.0408C324.394 51.8983 324.501 52.7557 324.623 53.6131C325.387 59.241 326.792 64.9157 327.601 70.185C327.723 70.9333 327.815 71.6817 327.906 72.4144C327.952 72.617 327.952 72.7729 327.968 72.96C328.059 73.7863 327.937 74.4099 327.647 74.9243C327.555 75.0958 327.433 75.2517 327.311 75.392C327.158 75.5635 326.99 75.7194 326.792 75.8597C326.013 76.4521 324.944 76.9198 323.86 77.5902C323.188 78.0111 322.516 78.51 321.92 79.1803C320.912 80.3028 320.088 81.8929 319.767 84.3561C319.507 85.5254 319.4 86.6322 319.446 87.6923C319.446 87.8638 319.477 88.0353 319.492 88.2068C319.874 92.5096 322.745 95.7522 327.204 97.093C327.311 97.1241 327.418 97.1709 327.54 97.2021C327.738 97.3268 327.922 97.4827 328.105 97.6386C328.151 97.6854 328.227 97.7165 328.273 97.7789C328.319 97.8257 328.365 97.9036 328.41 97.966C328.578 98.1531 328.731 98.3713 328.884 98.6052C329.327 99.2911 329.663 100.117 329.983 100.975C330.441 102.191 330.854 103.485 331.434 104.514C331.633 104.872 331.785 105.231 331.877 105.589C333.251 110.937 322.623 115.707 318.606 117.547C316.423 118.498 314.086 119.075 311.78 119.714C311.047 119.916 310.314 120.135 309.596 120.368C307.81 120.945 306.099 121.662 304.557 122.723C303.503 123.596 302.495 124.531 301.518 125.482C299.319 127.633 297.288 130.003 295.44 132.513C294.753 133.448 294.081 134.384 293.44 135.35C292.401 136.925 291.408 138.531 290.492 140.167C286.598 147.541 281.65 154.635 280.566 163.131C280.367 164.067 280.306 164.986 280.306 165.906C280.306 165.937 280.306 165.969 280.306 166.015C280.337 168.899 281.1 171.768 281.345 174.683C281.635 179.594 280.994 184.598 282.231 189.431C282.521 190.382 282.857 191.317 283.208 192.237C283.3 192.471 283.391 192.689 283.483 192.908C283.803 193.672 284.139 194.435 284.506 195.168C284.567 195.293 284.628 195.433 284.689 195.558C285.621 197.413 286.705 199.159 287.896 200.843C292.691 207.578 299.349 212.956 306.267 217.384C315.46 222.138 329.571 220.907 339.574 219.317C343.116 218.288 346.644 219.457 350.065 220.408C351.943 220.891 353.516 222.06 355.181 223.043C358.922 225.147 365.153 225.178 366.939 220.424C369.505 212.239 365.473 203.368 363.091 195.542C363.015 195.277 362.938 195.028 362.877 194.778C362.816 194.28 362.45 192.892 362.786 192.253C365.107 188.262 372.513 188.885 376.331 186.282C379.004 184.692 382.104 184.006 380.179 187.716C367.489 206.19 363.87 230.697 383.615 245.632C395.817 256.108 387.723 259.476 375.995 259.242C367.413 259.554 358.892 260.474 350.309 260.271C333.343 260.271 316.529 263.046 299.411 262.968C286.965 261.393 274.244 261.892 261.783 260.255C260.362 260.037 258.56 259.897 257.552 259.055C256.331 257.932 256.483 256.077 256.147 254.44C254.788 250.559 254.849 246.568 255.17 242.452C254.758 231.726 259.385 221.375 266.486 213.626C272.411 209.932 278.978 205.738 286.094 205.551C286.094 205.551 286.109 205.551 286.125 205.551C286.445 205.535 286.736 205.473 286.98 205.395C287.53 205.208 287.866 204.865 288.018 204.444C288.064 204.304 288.095 204.163 288.095 204.008C288.125 203.197 287.56 202.23 286.445 201.56C284.552 200.406 282.444 200.25 280.322 200.593C279.986 200.656 279.634 200.718 279.283 200.796C276.825 201.373 274.366 202.526 272.197 203.54C270.899 204.054 269.617 204.647 268.364 205.286C264.409 207.297 260.775 209.916 257.919 213.377C257.354 214.063 256.819 214.764 256.331 215.513C254.926 217.461 253.689 219.551 252.589 221.717C250.344 226.145 248.787 230.947 248.13 235.857C248.008 236.793 247.901 237.728 247.84 238.664C247.779 238.929 247.733 239.209 247.703 239.505C247.672 239.786 247.641 240.082 247.641 240.378C247.641 240.675 247.641 240.971 247.641 241.283C247.641 241.922 247.687 242.561 247.733 243.216C247.779 243.777 247.809 244.338 247.855 244.884C247.916 245.85 247.962 246.801 247.901 247.721C247.871 248.173 247.809 248.594 247.733 249.015C247.641 249.452 247.535 249.888 247.367 250.294C247.367 250.294 247.367 250.309 247.367 250.325C247.153 250.839 246.878 251.307 246.511 251.743C246.511 251.743 246.496 251.759 246.481 251.775C246.298 251.993 246.099 252.195 245.87 252.383C245.702 252.507 245.519 252.616 245.336 252.741C244.969 252.991 244.603 253.224 244.221 253.443C242.785 254.316 241.304 255.126 239.807 255.89C238.967 256.327 238.128 256.748 237.288 257.184C236.341 257.667 235.409 258.166 234.493 258.681C233.806 259.071 233.119 259.46 232.447 259.881C230.446 261.128 228.568 262.547 226.949 264.324C225.59 265.992 224.857 267.894 224.475 269.905C224.445 270.046 224.414 270.186 224.399 270.326C224.17 271.761 224.124 273.257 224.155 274.769C224.2 276.282 224.338 277.809 224.49 279.306C224.49 279.4 224.506 279.478 224.521 279.571C224.704 281.286 224.888 282.97 224.964 284.575C224.933 284.762 224.887 284.95 224.826 285.105C224.46 285.963 223.483 286.368 222.566 286.649C222.276 286.742 222.001 286.82 221.742 286.898C219.023 287.522 217.435 289.346 216.351 291.606C215.404 293.571 214.839 295.862 214.244 298.061C213.877 299.417 213.511 300.726 213.022 301.88C212.335 303.969 211.602 306.058 210.899 308.132C210.395 309.628 209.907 311.109 209.464 312.621C208.853 315.069 208.273 317.517 207.662 319.98C205.05 330.628 202.546 341.291 200.133 351.97C198.087 360.95 196.086 369.961 194.101 378.987C193.719 381.325 192.742 385.051 192.711 388.154C192.665 391.661 193.811 394.358 198.362 393.236C201.584 393.018 205.05 393.018 208.441 392.862C209.601 392.799 210.746 392.737 211.877 392.612C221.894 393.548 231.927 394 241.961 394.218C245.305 394.281 248.665 394.327 252.009 394.358C260.042 394.421 268.074 394.358 276.107 394.343C291.21 393.61 306.389 393.938 321.538 393.844C325.035 393.828 328.517 393.782 332.014 393.704C338.657 393.314 345.27 393.158 351.852 393.111C354.127 393.111 356.387 393.096 358.662 393.111C363.992 393.127 369.306 393.189 374.621 393.252C378.133 393.283 381.645 393.33 385.158 393.33H385.188C390.503 393.345 395.832 393.33 401.177 393.174C406.522 393.018 411.898 392.784 417.304 392.363C422.603 392.082 428.238 392.051 433.476 391.272C434.987 391.318 436.53 391.381 438.072 391.443C442.577 391.646 447.159 391.88 451.633 391.552C460.353 391.817 469.134 391.771 477.93 391.849C479.686 391.864 481.442 391.895 483.198 391.926C486.711 391.989 490.223 392.082 493.735 392.254C494.071 392.269 494.438 392.301 494.804 392.301C497.11 392.379 499.844 392.176 501.218 390.367C501.417 390.118 501.585 389.853 501.722 389.541C502.364 388.294 502.119 386.189 502.226 384.412C502.287 383.43 502.471 382.557 502.959 381.965C503.005 381.902 503.036 381.824 503.097 381.762C503.188 381.668 503.31 381.606 503.417 381.544C503.891 381.232 504.547 381.06 505.204 380.998C505.479 380.967 505.754 380.951 505.998 380.951C510.106 380.842 514.397 379.922 518.337 378.239C520.46 377.334 522.46 376.181 524.308 374.824C524.522 374.669 524.736 374.528 524.934 374.372C528.355 372.018 531.348 368.09 535.12 366.578C535.349 366.593 535.548 366.655 535.731 366.765C536.449 367.154 536.861 368.121 537.182 369.259C537.212 369.352 537.228 369.462 537.258 369.555C537.472 370.35 537.655 371.208 537.869 372.018C538.235 374.404 538.694 376.695 539.243 378.893C540.068 382.183 541.076 385.238 542.282 388.107C546.268 397.632 552.254 404.866 559.63 410.244C560.363 410.774 561.112 411.305 561.875 411.803C569.511 416.808 578.475 420.019 588.172 421.843C589.684 422.124 591.226 422.389 592.769 422.607C594.571 422.872 596.388 423.09 598.236 423.262C603.886 423.792 609.689 423.963 615.568 423.823C626.136 423.714 636.688 421.89 646.92 419.053C648.386 418.647 649.837 418.226 651.288 417.774C653.38 417.135 655.472 416.465 657.533 415.748C658.618 415.467 659.687 415.155 660.74 414.828C661.076 414.719 661.412 414.61 661.733 414.5C662.481 414.251 663.23 413.986 663.978 413.705C664.314 413.581 664.665 413.456 665.001 413.316C665.933 412.957 666.849 412.567 667.765 412.162C668.269 411.944 668.773 411.694 669.262 411.46C669.704 411.258 670.147 411.039 670.575 410.837C671.171 410.541 671.751 410.26 672.331 409.948C672.545 409.839 672.774 409.714 672.988 409.605C674.393 408.857 675.798 408.062 677.172 407.236C679.631 405.755 682.044 404.18 684.411 402.512C690.901 398.24 696.857 393.22 702.156 387.593C705.24 384.599 707.149 380.671 704.798 376.602C700.537 370.787 694.291 380.296 690.565 382.994C681.799 391.131 670.987 396.151 660.832 401.982C650.127 405.645 638.735 409.418 627.48 409.418C602.145 412.318 563.082 406.113 553.522 377.958C553.247 374.388 569.602 371.94 573.267 369.976C584.4 365.549 594.479 358.611 604.436 351.986C606.055 350.582 608.162 349.865 608.696 352.656C610.269 358.876 609.781 365.486 611.842 371.488C613.156 374.918 618.806 377.584 621.387 373.718C621.952 373.032 622.883 373.297 623.265 371.894C623.387 371.457 623.448 370.865 623.448 370.257C623.128 361.074 620.959 352.032 618.806 343.131C617.004 337.565 620.974 335.336 625.77 334.977C630.626 334.4 635.512 333.449 640.46 334.198C643.24 334.65 644.996 332.561 647.592 331.89C648.982 331.625 650.616 331.766 652.112 331.844C673.828 332.483 691.848 347.09 705.531 363.132C713.212 373.172 720.42 384.443 732.041 390.118C736.5 392.301 741.158 394.125 745.999 395.138C749.298 395.824 752.84 395.169 755.085 397.897C755.162 397.991 755.253 398.1 755.33 398.209C756.903 400.548 758.918 402.418 761.178 403.806C761.942 404.274 762.721 404.679 763.53 405.037C763.943 405.209 764.355 405.38 764.767 405.536C767.684 406.612 770.876 407.033 774.083 406.846C776.098 406.721 778.206 406.861 780.267 406.877C782.344 406.893 784.375 406.784 786.284 406.176C786.544 406.066 786.803 405.957 787.063 405.864C787.552 405.677 788.04 405.505 788.529 405.365C789.293 405.147 790.041 404.944 790.82 404.757C792.209 404.414 793.599 404.055 794.958 403.525C795.096 403.463 795.248 403.416 795.386 403.369C795.584 403.291 795.768 403.213 795.966 403.12C797.111 402.605 798.287 401.966 799.509 401.904C799.707 401.904 799.921 401.904 800.12 401.92C800.379 401.951 800.639 401.997 800.883 402.075C802.64 402.59 804.212 404.164 805.831 405.022C805.862 405.037 805.892 405.053 805.923 405.069C805.953 405.084 805.999 405.1 806.03 405.131C807.19 405.801 808.412 406.378 809.695 406.861C810.351 407.111 811.039 407.329 811.726 407.532C815.162 408.545 818.857 408.982 822.37 408.966C823.989 408.53 825.623 408.296 827.241 407.953C827.654 407.875 828.051 407.781 828.448 407.672C829.654 407.376 830.861 406.986 832.021 406.378C835.579 405.536 838.404 403.432 841.566 401.92C842.024 401.701 842.482 401.499 842.955 401.311C843.49 401.093 844.04 400.906 844.62 400.75C850.912 401.046 857.493 404.585 863.892 402.06C866.732 400.657 869.099 398.802 871.054 396.572C871.558 395.995 872.031 395.403 872.474 394.795C872.81 394.343 873.116 393.875 873.421 393.392C874.322 391.958 875.116 390.414 875.788 388.777C875.895 388.528 876.048 388.325 876.17 388.107C877.071 386.532 878.522 385.503 880.247 384.942C885.317 383.134 890.051 380.639 894.465 377.537C897.565 375.713 900.1 373.203 901.993 370.272C902.268 369.851 902.513 369.43 902.757 368.994C904.681 365.564 905.75 361.667 905.842 357.691C905.872 356.366 905.796 355.041 905.597 353.716C905.506 353.046 905.368 352.391 905.216 351.72C905.063 351.066 904.88 350.395 904.666 349.741C904.574 349.507 904.498 349.257 904.406 348.992C904.33 348.758 904.254 348.525 904.192 348.291C903.841 347.075 903.566 345.734 903.551 344.58C903.551 344.113 903.582 343.692 903.673 343.302C904.208 341.852 905.017 340.589 906.101 339.264C907.674 337.253 908.972 335.008 909.965 332.623C910.301 331.828 910.591 331.017 910.851 330.207C911.263 328.913 911.584 327.588 911.813 326.247C912.103 324.532 912.256 322.786 912.24 321.04C912.24 321.024 912.24 320.993 912.24 320.977C912.21 318.81 911.935 316.644 911.4 314.523V314.539ZM329.006 85.1668V85.3695C328.945 86.1334 328.853 87.1155 328.807 87.895C328.762 88.4562 328.96 89.2357 328.456 89.5943C327.586 90.2023 326.486 89.4696 326.028 88.6589C325.524 87.8326 325.6 86.5387 325.906 85.198C326.257 83.7637 327.402 80.9264 328.792 82.0956C329.174 82.9063 328.96 84.3561 329.006 85.198V85.1668ZM821.118 135.413C824.722 131.687 830.586 139.248 834.862 137.954C836.419 137.548 837.061 135.366 837.488 133.854C838.084 131.468 839.107 129.239 840.863 127.446C844.91 122.847 850.606 121.927 854.531 127.259C856.363 130.034 855.982 134.914 859.692 136.099C863.144 137.439 863.984 134.68 866.473 133.23C874.047 130.19 882.981 134.337 877.697 143.691C876.75 145.624 877.468 147.557 878.033 149.397C879.163 155.726 887.241 152.639 888.967 157.862C889.364 161.51 883.821 162.632 883.561 166.14C883.485 169.601 885.226 174.075 888.662 175.307C901.932 179.984 891.075 184.739 887.379 191.582C886.661 193.251 887.303 195.059 887.226 196.774C887.028 198.395 885.287 199.19 883.79 198.91C882.553 198.723 881.53 197.928 880.415 197.413C876.216 195.199 871.741 200.172 867.526 197.85C865.633 197.055 863.785 197.117 862.105 196.54C860.716 196.088 859.158 195.729 857.936 196.805C855.294 198.801 854.958 203.509 851.553 204.678C848.606 206.143 845.887 204.818 843.597 202.838C841.871 201.576 839.641 201.498 837.565 200.968C836.541 200.703 835.549 200.282 834.526 200.001C831.303 199.066 827.684 200.001 824.569 198.411C820.308 195.87 815.589 193.422 812.52 189.291C808.015 182.135 808.824 172.999 809.191 164.893V164.628C808.656 149.74 813.421 146.606 821.133 135.397L821.118 135.413ZM809.603 202.495L809.802 202.667C812.077 204.444 814.383 206.408 816.613 208.279C818.292 209.604 820.461 209.947 822.553 210.477C825.332 211.257 828.112 211.974 830.983 212.442C835.763 213.034 839.229 217.212 844.207 217.087C850.988 217.804 856.989 215.45 862.044 210.851C863.495 209.713 865.205 209.464 866.961 209.698C868.977 210.01 871.451 209.464 871.879 211.21C871.955 215.45 868 218.506 865.74 221.64C863.159 224.945 859.021 226.083 855.707 228.468C849.323 232.615 842.925 237.323 835.167 238.102C832.495 238.336 829.929 239.272 827.272 239.443C823.714 239.521 820.14 239.225 816.567 239.053C813.451 238.882 810.626 237.448 807.771 236.31C795.248 231.664 783.23 224.118 777.198 211.569C774.327 207.344 773.197 202.184 771.67 197.242C770.555 192.736 768.463 188.309 769.18 183.788C769.516 182.868 770.677 183.055 771.502 183.304C774.8 184.411 778.252 184.302 781.611 184.053C786.33 184.037 790.453 182.478 794.103 179.126C795.202 178.456 797.646 175.089 798.44 177.38C799.463 182.151 800.211 186.718 801.555 191.255C803.327 195.48 806.259 199.596 809.618 202.464L809.603 202.495ZM843.719 249.686C843.52 250.216 843.108 250.403 842.604 250.356C842.482 250.356 842.253 250.091 842.268 250.06C842.497 249.608 842.848 249.296 843.383 249.327C843.505 249.327 843.597 249.561 843.719 249.686ZM816.277 251.541C815.941 251.821 815.559 251.899 815.162 251.697C814.811 251.525 814.414 251.307 814.673 250.808C814.872 250.449 815.223 250.668 815.498 250.73C815.925 250.824 816.216 251.073 816.277 251.541ZM519.467 87.2091L519.635 87.0064C534.891 66.7397 548.33 54.0185 571.862 44.4619C599.625 31.0392 630.183 22.4492 661.122 23.4314C680.562 23.1975 700.125 25.4892 718.587 32.0369C739.432 38.4443 757.315 51.7891 772.464 67.3945C777.335 72.5079 782.757 77.3563 786.574 83.296C792.408 91.8392 794.76 102.316 798.135 111.825C801.051 119.776 800.853 128.475 801.296 136.831C801.448 139.216 800.99 141.539 798.287 139.419C796.195 137.751 794.088 135.865 791.217 135.319C789.812 134.96 788.056 134.914 786.987 133.869C786.162 133.059 785.902 131.796 785.505 130.704C784.849 128.615 783.673 126.885 782.283 125.31C780.13 122.13 775.503 121.288 774.602 117.251C773.426 111.856 765.592 80.8796 757.529 86.8349C755.085 89.7502 756.658 93.8191 757.254 97.1709C758.216 102.814 759.102 108.551 760.079 114.242C760.369 115.816 760.568 117.843 758.918 118.638C756.429 119.885 753.818 118.435 752.062 116.502C745.327 109.97 735.37 108.941 726.406 109.83C721.565 110.391 718.419 112.574 715.533 107.102C710.051 98.8546 699.911 94.2868 690.336 95.8458C684.212 96.6876 677.829 97.2956 672.27 100.273C669.521 102.019 667.047 100.944 664.833 98.6831C662.97 97.015 661.122 95.2534 659.137 93.632C649.791 85.4318 641.178 83.1557 629.129 86.4763C625.082 87.1935 621.478 89.7346 617.569 90.6232C613.308 90.1867 609.933 86.0866 605.428 86.1645C597.35 85.7904 589.867 87.8638 583.041 92.1978C580.704 93.71 578.505 96.5785 575.451 95.1754C569.083 91.886 561.997 91.8704 555.095 92.9617C549.322 93.5229 543.84 95.8302 538.678 98.5428C536.495 99.9615 533.883 100.18 531.959 98.1219C523.361 89.5007 506.563 103.859 519.483 87.1935L519.467 87.2091ZM511.832 82.688L511.786 82.7348C511.786 82.7348 511.664 82.8595 511.618 82.9063C511.557 82.9686 511.969 82.5321 511.816 82.688H511.832ZM488.94 182.307C488.391 182.385 487.948 182.275 487.566 181.948C487.383 181.792 487.215 181.574 487.047 181.309C487.322 181.137 487.581 181.059 487.826 181.044C488.559 180.997 489.154 181.527 489.841 182.026C489.505 182.166 489.215 182.26 488.94 182.307ZM512.901 157.269L512.656 157.238C509.724 156.911 508.197 159.935 506.227 161.635C501.539 165.485 496.53 169.414 490.498 170.801C489.108 171.066 487.566 171.098 486.497 170.209C485.52 169.351 484.97 167.948 484.619 166.654C483.427 162.024 483.733 157.285 486.909 153.434C488.879 150.706 491.842 150.005 495.003 149.864C497.859 149.365 500.256 145.967 499.798 143.036C498.607 139.294 493.644 139.372 490.819 137.19C485.214 133.667 482.908 124.702 490.376 121.818C495.064 120.306 500.104 120.696 504.792 121.772C506.365 122.146 509.358 122.847 509.816 120.618C510.03 119.09 509.159 117.578 509.22 116.003C509.48 111.919 511.16 107.445 515.084 105.699C518.75 104.186 526.095 102.3 528.798 106.182C530.508 109.986 533.12 116.861 537.823 112.542C539.213 111.155 540.083 109.113 541.687 107.881C546.283 104.529 551.873 102.456 557.462 101.973C562.959 101.396 568.686 101.614 573.603 104.514C575.436 105.558 577.024 107.133 578.826 108.177C581.269 109.487 584.202 108.957 585.576 106.447C590.279 99.0729 600.542 94.2244 608.819 98.231C611.354 99.4782 613.98 101.1 616.042 102.939C618.18 104.654 620.715 103.89 622.731 102.331C628.488 96.672 637.299 94.7233 645.057 96.7344C650.356 98.2154 654.311 102.3 658.358 105.854C663.062 109.923 667.567 115.785 674.24 111.763C680.73 108.068 688.167 106.275 695.528 106.384C699.758 107.164 704.08 109.3 707.058 112.745C709.15 115.068 709.944 118.201 711.532 120.821C713.09 123.377 716.006 124.25 718.755 123.424C727.17 119.932 736.485 118.872 744.487 124.25C748.549 126.823 751.268 132.731 756.765 131.655C757.636 131.515 758.537 131.157 759.361 130.767C762.278 129.286 765.683 129.644 768.89 130.081C772.219 130.58 775.61 133.292 776.052 136.738C776.236 138.063 776.129 139.513 776.45 140.791C777.152 144.112 780.924 145.92 783.993 145.421C787.521 144.236 791.049 145.328 793.507 148.399C795.966 150.956 798.028 153.824 798.287 157.332C798.18 161.541 794.973 164.753 792.087 167.45C790.697 168.946 789.537 170.349 788.01 171.487C784.818 173.982 780.817 173.062 777.06 173.155C776.083 173.155 775.014 173.109 774.113 172.688C771.242 171.378 772.021 167.294 770.249 165.064C768.478 162.851 765.47 161.12 763.377 163.537C759.285 167.637 752.749 168.167 747.297 167.138C744.701 166.514 743.006 164.176 741.479 161.946C739.341 159.218 738.99 155.43 737.997 152.343C737.34 150.862 735.752 150.005 734.378 149.194C733.339 148.539 732.102 148.446 731.049 149.116C729.537 150.098 727.994 151.657 726.208 152.608C724.314 153.575 722.1 154.058 720.053 154.604C713.96 155.975 706.325 158.142 700.735 154.526C696.032 151.454 693.527 146.263 690.046 142.085C682.425 135.054 682.318 144.127 677.111 147.401C673.125 149.553 668.376 148.617 663.978 149.241C662.573 149.397 661.137 149.599 659.717 149.506C655.716 149.022 651.456 148.305 647.958 145.998C645.652 144.517 643.805 142.381 641.575 140.807C638.933 138.718 636.566 139.684 634.627 142.069C632.168 144.72 629.083 147.339 625.617 148.711C621.692 150.691 617.538 150.472 613.339 150.16C608.254 150.363 603.825 147.276 600.954 143.098C599.732 141.586 599.518 139.372 598.556 137.782C597.808 136.613 596.205 135.74 594.861 135.522C592.616 135.038 591.058 136.769 590.493 138.811C589.745 141.337 588.264 144.034 586.08 145.484C584.431 146.45 582.522 146.247 580.628 146.45C574.871 147.183 568.946 147.011 563.28 145.764C558.76 145.234 554.224 137.751 549.826 141.929C547.093 145.982 543.932 149.506 540.129 152.452C537.9 154.993 535.471 157.41 532.631 159.156C528.981 160.871 524.995 162.508 521.162 163.661C520.445 163.786 519.773 163.833 519.192 163.427C518.123 162.741 518.414 160.325 517.161 159.156C516.047 158.065 514.458 157.457 512.947 157.238L512.901 157.269ZM756.414 176.928C756.414 177.271 756.154 177.411 755.895 177.505C755.62 177.598 755.314 177.661 755.131 177.365C754.963 177.084 755.039 176.803 755.36 176.725C755.727 176.632 756.108 176.647 756.414 176.928ZM625.8 158.423C625.8 158.423 625.647 158.595 625.571 158.595C625.403 158.563 625.235 158.485 625.067 158.423L625.281 158.236C625.449 158.298 625.617 158.361 625.785 158.423H625.8ZM623.54 159.047C623.54 159.047 623.402 159.187 623.341 159.187C623.28 159.187 623.219 159.078 623.173 159.015C623.234 158.969 623.311 158.922 623.372 158.875C623.433 158.938 623.494 158.984 623.555 159.047H623.54ZM470.325 256.514C470.89 255.703 471.485 255.048 472.066 254.939H472.218C473.104 254.892 473.898 256.108 474.448 256.888C481.625 267.162 492.101 274.099 500.913 282.705C502.654 284.108 504.792 285.261 506.685 286.555C507.846 287.397 507.922 288.379 507.327 289.704C502.501 298.793 499.218 309.223 502.532 319.45C502.852 321.227 503.982 323.378 503.372 325.093C502.043 326.948 498.912 326.637 496.927 327.556C489.139 329.988 481.885 336.723 480.618 345.297C480.175 351.471 475.441 344.159 473.242 342.85C467.652 338.033 462.14 333.075 457.024 327.681C452.397 322.349 448.136 316.706 443.096 311.748C438.591 307.04 435.232 301.334 431.368 296.049C426.97 289.954 426.649 290.079 433.659 287.039C434.697 286.586 435.797 286.29 436.896 285.994C440.821 284.856 443.967 281.894 447.54 279.961C449.648 278.745 451.786 277.077 453.343 275.331C455.436 273.803 458.093 273.023 459.849 270.888C464.064 266.694 466.782 261.269 470.294 256.514H470.325ZM489.948 363.491C489.994 363.662 489.948 363.771 489.75 363.74C489.75 363.74 489.734 363.615 489.75 363.553C489.826 363.163 489.704 363.631 489.963 363.491H489.948ZM456.871 234.158C457.619 233.067 457.833 232.739 458.612 231.898C460.292 230.105 463.147 230.261 465.255 231.383C469.76 234.813 465.117 247.565 461.804 251.073C458.688 255.08 456.046 259.554 452.061 262.547C449.22 264.823 445.983 266.522 442.913 268.44C436.377 272.867 429.322 276.578 421.61 278.277C413.7 279.805 408.385 278.277 403.727 271.309C402.46 269.531 400.643 267.863 399.879 265.805C399.742 265.151 400.215 264.87 401.116 264.917C406.522 265.821 411.989 265.946 417.242 264.543C422.19 263.249 427.001 261.113 431.231 258.494C436.957 255.563 441.798 251.541 446.899 247.612C451.205 244.089 453.863 239.069 456.718 234.376L456.871 234.143V234.158ZM359.38 115.489L359.502 115.707C360.22 116.939 359.365 118.607 358.892 120.103C358.22 121.99 357.517 123.861 356.738 125.716C356.005 127.353 355.379 129.099 354.402 130.627C354.112 130.985 353.73 131.11 353.318 130.892C352.355 130.237 351.164 128.413 350.569 127.337C350.492 127.056 350.523 126.791 350.645 126.511C351.241 125.513 352.081 124.375 352.31 123.128C353.211 119.807 353.44 115.38 355.028 112.231C355.959 111.732 356.891 113.041 357.716 113.68C358.326 114.288 358.937 114.881 359.365 115.504L359.38 115.489ZM356.357 91.4495C356.158 92.1666 355.914 92.9617 355.425 93.445C354.509 94.4271 352.585 93.6009 350.905 93.8347C349.515 93.9594 347.866 94.848 348.706 96.3602C349.53 97.9504 352.081 99.2288 352.142 100.944C351.561 106.478 346.415 108.318 341.895 105.558C339.726 104.046 336.977 101.926 339.329 99.1508C339.803 98.4337 340.444 97.3112 340.093 96.5629C339.314 94.8948 336.504 96.1108 335.588 94.848C335.114 94.3336 334.931 93.5229 334.84 92.8058C334.534 89.0486 333.755 85.0889 333.847 81.2226C334.045 78.8529 336.458 78.0267 338.291 77.1537C343.254 74.5814 348.843 74.8308 354.28 75.8441C356.051 76.1403 358.678 76.4365 358.785 78.7438V78.9777C358.357 83.1557 357.303 87.1467 356.341 91.4339L356.357 91.4495ZM346.43 130.252L346.583 130.455C348.309 132.84 350.92 135.553 349.988 138.842C349.744 139.715 349.149 141.025 348.125 140.838C346.491 140.074 346.705 137.439 345.514 136.099C344.445 134.508 342.979 133.277 341.712 131.843C337.772 127.509 335.725 122.037 333.923 116.627C333.19 114.834 334.03 111.779 336.229 112.028C337.909 112.449 338.398 114.819 339.07 116.268C340.887 121.273 343.101 126.105 346.43 130.237V130.252ZM345.239 114.304H345.438C346.079 114.444 347.423 114.023 348.019 114.616C348.125 117.141 347.347 119.589 346.98 122.177C346.171 121.382 345.606 119.573 345.132 118.467C344.781 117.188 343.055 114.694 345.224 114.304H345.239ZM363.9 86.5075C364.13 85.0888 364.42 83.3116 364.649 81.9865L364.679 81.7838C364.756 80.4743 366.145 79.8507 366.985 81.0043C368.344 82.7972 367.596 85.0577 366.481 86.6946C365 88.846 362.831 90.9506 363.9 86.5075ZM339.482 32.9099C341.498 33.44 342.903 36.0123 344.705 37.353C348.874 40.9387 351.546 35.1081 354.661 33.1438C356.219 32.0993 357.258 33.2841 357.7 34.8275C358.54 37.431 359.243 40.1124 359.823 42.7938C361.365 51.1655 361.93 59.7555 361.808 68.2831C361.808 69.6238 361.518 71.2607 359.93 71.1048C352.844 69.8265 344.155 67.2542 337.649 71.5569C335.695 73.038 333.435 73.6304 333.282 70.2162V69.9668C333.068 66.1785 333.175 62.0004 332.732 58.1965C331.724 50.7446 328.41 33.4088 339.482 32.9255V32.9099ZM360.694 216.09L360.526 216.183C357.196 217.041 356.983 210.633 356.097 208.544C353.241 203.431 353.134 197.46 350.691 192.097C350.386 191.162 351.424 190.787 352.142 190.709C353.608 190.522 355.028 190.616 355.501 192.253C357.105 198.832 359.625 205.27 360.709 211.912C360.846 213.268 361.869 215.076 360.694 216.074V216.09ZM371.521 182.119L371.276 182.213C368.94 182.993 366.237 183.834 363.809 184.941C362.847 185.362 361.717 185.845 360.694 185.565C358.846 184.832 356.937 184.318 354.875 184.785C351.699 184.91 349.103 186.906 346.064 187.467C339.344 188.122 331.846 187.124 327.632 180.919C326.792 179.688 326.776 178.83 328.242 178.705C333.801 178.206 339.192 178.471 344.888 177.521C346.308 177.224 347.805 176.803 349.24 177.037C350.874 177.287 352.249 178.471 353.822 179.079C355.074 179.563 356.616 179.781 357.777 179.002C359.029 178.113 359.991 176.57 361.656 176.788C365.458 177.1 369.169 178.674 372.804 179.672C374.758 180.186 373.43 181.402 371.521 182.119ZM380.668 167.808C380.439 169.835 381.233 172.329 379.843 173.904C378.637 174.979 376.713 174.481 375.232 174.278C371.063 173.639 367.046 172.345 362.862 172.002C359.899 172.049 357.487 168.899 354.784 170.053C353.195 170.833 351.485 171.971 349.591 172.049C342.353 172.423 334.977 173.109 327.861 174.138C322.073 174.481 323.203 164.456 322.134 160.512C320.179 153.512 319.141 145.873 317.094 139.154C316.194 136.254 313.368 135.35 312.727 139.154C312.07 145.499 312.895 152.156 313.979 158.454C314.895 164.004 314.422 169.726 316.178 175.12C318.286 181.527 321.661 187.56 327.708 190.569C330.105 191.645 332.595 191.255 334.916 192.128C336.138 192.533 337.359 193.017 338.627 193.297C342.399 193.952 345.224 194.202 345.483 198.629C345.789 201.685 346.43 204.725 347.194 207.671C347.896 209.885 347.179 211.646 344.796 212.083C335.481 215.107 325.631 214.281 316.026 213.658C311.689 212.94 308.344 209.791 304.832 207.203C300.434 204.023 296.631 200.095 292.859 196.213C291.057 194.248 290.294 191.052 289.164 188.527C287.606 184.162 288.232 179.267 288.079 174.714C288.125 171.706 287.178 168.775 287.514 165.735C287.881 162.913 288.69 160.107 289.652 157.441C292.905 149.506 297.181 141.976 301.869 134.836C303.732 132.139 305.656 129.333 308.222 127.306C313.384 123.44 320.149 123.175 325.219 119.137C326.746 118.17 327.83 118.794 328.578 120.524C330.655 124.578 331.556 129.629 334.458 133.308C338.81 138.016 341.147 142.771 345.728 146.809C350.004 150.753 352.31 147.105 354.448 143.098C355.425 141.477 356.555 139.934 357.364 138.203C358.739 134.477 360.846 131.157 362.221 127.446C363.366 125.123 363.916 119.542 367.52 121.132C374.636 125.622 383.554 128.007 388.899 134.976C391.465 138.655 392.916 143.176 396.168 146.357C400.857 150.114 403.422 155.492 405.896 160.949C407.759 164.269 410.34 171.16 405.53 172.859C404.552 173.093 403.376 173.077 402.323 173.14C397.818 173.218 394.061 174.948 390.564 177.521C389.083 178.643 386.883 179.859 387.403 176.803C390.442 161.635 387.678 145.094 379.11 132.186L378.958 131.998C378.408 131.297 377.538 130.611 376.637 130.938C374.85 131.687 375.705 135.444 376.377 137.19C378.439 141.851 379.538 146.824 380.118 151.875C381.096 157.145 381.386 162.476 380.622 167.808H380.668ZM386.868 232.708L386.7 232.506C380.958 226.285 380.271 219.878 382.653 211.724C383.615 208.825 383.585 205.598 385.433 203.088C388.227 198.645 391.159 193.703 395.237 190.569C399.07 186.422 405.194 184.536 410.645 185.658C419.976 188.012 423.565 198.754 426.772 206.829C427.581 208.544 429.2 209.542 430.681 210.633C431.964 211.631 433.72 211.787 434.957 210.618C437.278 208.7 437.507 205.442 438.301 202.542C439.324 199.253 439.966 194.17 442.715 192.378C454.687 185.799 454.764 207.453 453.114 214.609C451.679 221 447.708 226.316 444.104 231.523C442.73 233.457 441.356 235.452 439.66 237.105C435.262 241.111 429.917 243.948 425.061 247.316C417.578 249.701 408.981 254.97 401.162 251.369C400.276 250.839 399.452 250.122 398.841 249.265C397.344 247.378 397.711 244.556 396.458 242.53C393.817 238.882 389.418 236.185 386.883 232.724L386.868 232.708ZM232.691 266.211L232.874 266.039C236.097 263.124 240.311 261.83 243.824 259.258C245.259 258.244 247.687 256.046 248.924 258.4C254.437 270.42 277.359 266.164 288.095 268.611C303.457 271.324 319.095 269.5 334.458 268.362C349.958 267.77 365.733 267.863 381.142 266.585C383.188 266.522 385.051 265.462 386.975 265.088C389.709 264.917 388.976 267.66 386.486 267.863C377.69 268.456 368.94 269.547 360.22 270.841C352.814 271.277 345.3 270.716 337.909 271.62C331.037 272.322 324.043 271.371 317.125 272.072C301.747 272.992 286.155 272.322 270.777 271.355C260.408 271.262 250.008 271.386 239.716 269.843C237.288 269.516 229.041 270.513 232.676 266.211H232.691ZM229.79 274.473C236.402 275.596 243.427 275.923 250.008 276.609L250.268 276.64C257.003 277.498 263.859 277.014 270.594 277.217C276.321 278.121 281.085 278.152 286.781 278.402C288.721 278.62 290.66 278.792 292.63 278.714C303.885 278.293 315.216 279.259 326.44 277.981C336.718 278.854 347.011 277.155 357.303 277.7C364.374 277.825 371.322 275.798 378.347 275.362C382.455 274.957 386.624 274.801 390.732 274.754C392.289 274.847 393.526 276.032 393.022 277.326C392.58 278.698 390.228 278.901 388.747 278.963C374.972 279.914 361.182 279.54 347.392 280.241C339.024 280.927 330.487 281.348 322.164 280.787C315.674 281.925 309.031 280.881 302.48 280.974C299.487 281.114 296.57 281.645 293.592 281.629C284.872 281.551 276.275 283.469 267.57 283.671C261.477 284.575 255.353 284.232 249.214 283.843C244.312 284.497 239.426 284.513 234.463 284.84C233.394 284.934 232.248 284.934 231.347 284.31C229.759 283.25 229.469 280.553 228.904 278.293C228.629 277.014 227.881 274.645 229.774 274.489L229.79 274.473ZM494.377 381.076V381.31C494.27 383.524 492.178 384.038 490.299 383.945C486.268 383.773 482.221 383.274 478.113 383.243C462.827 383.352 447.54 383.477 432.269 383.492C421.885 384.163 411.287 384.241 400.963 384.989C391.892 385.644 382.577 386.034 373.384 385.129C363.916 384.973 354.448 385.659 345.01 385.098C334.794 385.706 324.409 385.55 314.178 386.564C295.242 386.517 276.366 386.813 257.461 387.218C242.877 387.53 228.278 386.673 213.724 386.267C210.197 385.924 201.599 389.042 199.889 386.08C199.644 385.488 199.69 384.63 199.873 383.742C202.118 371.816 205.722 360.232 207.891 348.306C210.853 337.721 212.976 326.917 215.618 316.238C217.649 309.41 220.199 302.737 221.803 295.753C222.765 292.23 226.338 292.199 229.499 291.762C233.424 291.045 237.456 291.7 241.396 291.388C247.993 291.076 254.605 291.466 261.172 290.842C276.015 290.484 290.737 288.395 305.626 288.177C323.035 288.083 340.383 288.644 357.761 287.584C367.825 287.397 378.011 287.818 387.907 286.945C391.19 286.602 394.641 285.916 397.894 286.088C399.65 286.259 400.948 287.615 402.155 288.816C405.514 292.043 409.973 292.807 414.631 292.526C415.654 292.479 416.738 292.495 417.67 292.869C418.708 293.274 419.533 294.179 420.236 295.254C422.877 299.339 425.474 303.439 428.146 307.492C431.643 312.98 435.721 318.187 439.935 323.16C450.381 336.848 464.384 346.95 477.151 358.206C478.8 359.547 479.182 361.714 478.556 363.709C476.907 372.424 480.969 375.121 488.895 374.139C495.385 373.141 494.438 376.009 494.407 381.123L494.377 381.076ZM531.425 355.384L531.226 355.556C527.637 358.72 523.575 361.916 520.216 365.408C518.52 367.544 507.403 374.731 506.334 370.007C505.632 366.016 511.068 363.865 511.282 360.061C511.481 357.458 509.556 354.698 506.884 354.308C502.761 353.342 500.684 357.286 497.767 359.453C495.965 360.747 493.797 361.994 491.765 362.774C491.139 362.992 490.697 363.054 490.529 362.898C490.254 362.633 490.819 361.885 491.094 361.542C493.064 359.406 495.431 357.364 497.782 355.649C499.447 354.589 501.753 354.012 502.547 352.251C503.265 350.754 503.204 348.961 502.547 347.449C501.997 346.233 501.035 345.173 499.859 344.596C497.385 343.224 493.812 345.422 491.032 344.534C489.78 344.019 490.559 342.647 491.231 341.899C495.064 337.534 500.317 334.696 505.8 333.496C509.679 332.42 512.473 335.85 515.207 338.079C517.406 339.966 520.124 341.01 522.903 341.977C526.263 343.24 529.745 344.175 533.303 344.596C534.402 344.736 535.685 345.048 535.945 346.28C536.204 349.803 533.883 353.155 531.409 355.4L531.425 355.384ZM537.9 336.287H537.64C529.745 336.115 520.109 332.452 516.276 325.078C510.427 314.102 511.954 300.867 519.62 291.201C522.155 288.613 524.644 285.901 527.21 283.422C530.936 281.27 535.12 279.883 539.091 278.262C544.206 275.861 550.071 276.796 555.614 276.531C562.761 276.858 569.282 280.927 574.52 285.776C580.995 292.261 586.492 299.916 591.99 307.181C592.998 308.521 594.693 309.94 593.441 311.702C585.118 322.006 573.802 330.3 561.112 333.886C558.531 334.322 556.24 335.616 553.736 336.24C548.513 337.051 543.153 336.567 537.884 336.271L537.9 336.287ZM604.787 333.543L604.711 333.777C604.069 335.912 603.092 338.204 600.984 339.311C597.854 341.275 594.968 343.567 591.837 345.516C580.888 352.048 570.564 360.295 558.088 363.553C555.675 364.114 553.293 365.128 550.972 365.798C549.826 366.032 548.941 365.627 548.437 364.582C547.062 359.734 542.298 348.587 549.49 346.623C557.721 344.004 566.502 343.193 573.741 338.157C579.926 334.65 586.981 332.342 592.097 327.198C593.944 325.311 595.808 323.347 597.319 321.18C598.312 319.684 600.053 318.187 601.84 318.701C604.237 319.45 604.176 322.552 604.497 324.657C604.802 327.697 605.932 330.69 604.772 333.558L604.787 333.543ZM612.346 304.967L612.102 305.014C608.452 305.777 603.535 306.167 601.015 302.815C598.007 297.873 593.99 293.321 590.493 288.582C582.384 277.669 570.824 268.892 557.508 266.273C553.736 265.618 549.75 266.164 545.947 266.164C542.42 266.195 538.846 266.211 535.471 267.115C531.974 268.409 529.073 266.07 526.629 263.404C523.972 260.63 521.804 257.371 519.666 254.175C513.45 245.617 508.472 235.624 509.648 224.726C510.076 218.288 509.449 211.397 513.588 206.003C517.131 200.812 520.353 195.262 524.95 190.959C530.127 186.142 525.912 181.309 524.751 176.039C524.369 172.719 531.913 171.331 534.143 169.414C541.015 165.361 546.268 158.984 551.338 153.013C553.568 150.098 556.332 153.403 558.928 154.089C569.053 157.254 581.957 159 591.135 152.655C592.83 151.377 594.601 151.283 596.22 152.811C601.977 158.049 609.17 161.401 616.989 161.042C624.731 161.245 631.725 157.987 637.146 152.53C639.834 150.971 642.354 154.027 644.614 155.212C646.324 156.303 648.126 157.441 650.066 157.799C651.226 158.018 649.73 156.693 650.631 156.724C651.288 156.755 652.021 157.347 652.631 157.768C656.846 160.793 662.909 159.405 667.719 159.468C669.659 159.343 671.613 159.608 673.553 159.67C676.912 159.795 680.104 157.55 682.7 155.227C684.182 153.793 685.816 153.699 687.114 155.57C688.916 157.877 691.344 159.499 693.359 161.65C702.446 171.207 716.908 168.868 727.658 163.661C729.415 162.757 730.819 163.77 731.507 165.516C733.843 170.661 737.478 174.761 742.456 177.131C742.96 177.443 743.479 177.692 744.014 177.926C744.472 176.944 744.502 176.959 745.617 177.817C745.144 178.238 744.594 177.817 744.09 177.957C746.717 179.095 749.633 179.329 752.581 179.002C754.734 179.267 757.666 177.801 759.27 179.438C760.934 183.912 759.544 189.322 760.415 194.092C762.125 210.555 766.997 228.281 781.306 237.744C793.4 246.256 807.114 252.211 821.683 253.801C826.585 254.877 815.101 259.071 814.352 260.162C811.97 262.22 809.084 262.968 806.244 264.215C803.815 265.462 801.555 267.006 799.112 268.206C783.245 275.627 767.317 283.063 750.58 288.161C746.167 289.798 741.647 291.107 737.081 292.339C734.362 293.15 731.659 294.444 728.758 293.789C702.14 286.82 673.858 286.929 647.088 293.041C638.231 294.911 629.435 298.061 621.371 301.88C618.5 303.299 615.538 304.78 612.392 304.998L612.346 304.967ZM897.214 331.111L897.091 331.345C895.946 333.979 894.007 335.772 891.762 337.393C889.227 340.028 885.684 343.848 888.265 347.667C889.441 349.522 891.716 350.832 892.586 352.718C893.884 355.899 894.129 360.825 892.205 363.615C890.83 365.876 888.692 367.388 885.974 368.339C882.34 370.07 878.583 372.065 874.582 372.735C872.642 373.016 870.749 371.956 868.886 372.174C867.481 372.346 865.999 373.219 864.839 374.123C862.456 375.807 863.755 378.55 864.304 381.232C864.579 382.464 864.854 384.038 864.976 385.192C864.946 390.477 858.043 390.508 854.348 389.307C851.278 388.216 848.422 386.065 845.078 387.172C841.169 388.138 837.397 389.915 833.976 392.145C831.884 393.517 829.624 394.733 827.104 394.966C819.59 395.543 811.191 394.062 805.419 388.855C804.258 387.858 803.052 387.047 801.693 387.094C797.34 387.686 794.118 391.833 789.888 393.049C784.681 395.044 778.878 394.39 773.411 394.53C756.811 393.969 765.775 389.011 759.636 383.929C756.383 382.51 752.382 384.381 748.977 383.524C738.898 381.7 728.926 375.885 722.756 367.513C719.595 362.836 716.526 358.05 712.723 353.887C696.292 337.128 680.333 321.617 655.747 321.009C649.913 321.508 644.263 321.04 638.383 322.256C632.535 323.191 626.472 323.674 620.99 325.951C620.15 326.278 619.203 326.668 618.348 326.449C617.691 326.278 617.248 325.686 617.019 324.797C616.622 322.942 616.576 320.9 616.271 318.998C615.156 313.385 619.096 312.372 623.219 310.392C628.595 307.648 634.474 306.448 640.201 304.624C647.882 301.49 656.098 299.354 664.436 300.539C666.177 300.742 667.857 300.368 669.536 299.931C673.66 299.167 678.119 299.386 682.334 298.949C687.511 299.37 692.688 299.775 697.91 299.962C713.594 302.706 729.445 305.403 744.151 311.951C752.352 315.739 760.415 319.808 768.722 323.378C770.784 324.236 773.747 325.499 775.503 324.548C776.724 323.83 777.152 322.334 777.87 321.165C779.992 317.922 779.763 314.695 776.052 312.855C768.463 308.895 760.491 305.497 752.856 301.771C752.001 301.319 750.779 300.539 751.726 299.651C773.059 291.092 794.5 282.471 814.337 270.607C818.689 268.019 822.904 265.416 827.195 262.719C829.12 261.518 831.242 260.723 833.487 260.536C840.634 260.349 847.949 259.975 854.958 261.658C862.563 264.106 869.496 268.237 876.109 272.805C882.645 277.046 884.92 285.573 883.454 293.009C882.691 295.94 881.24 298.653 881.606 301.677C881.973 303.377 882.95 304.936 884.264 305.965C886.004 306.962 888.769 306.214 890.479 307.134C897.885 311.172 902.345 323.846 897.214 331.173V331.111Z" fill="#171616"/>
<path d="M373.186 86.2112C372.972 87.8949 372.438 89.563 371.644 91.0753C372.438 89.563 372.957 87.8949 373.186 86.2112Z" fill="#DDDDDD"/>
<path d="M281.361 174.777C281.132 171.861 280.353 168.993 280.322 166.109C280.353 168.993 281.116 171.861 281.361 174.777Z" fill="#DDDDDD"/>
<path d="M585.881 214.078C587.775 209.261 587.836 204.241 587.699 199.175C587.638 196.758 587.149 194.482 585.973 192.378C584.873 190.413 583.835 188.418 583.087 186.266C581.636 182.073 578.964 178.721 575.772 175.806C572.412 172.75 568.656 170.412 563.937 170.396C561.234 170.396 558.577 171.144 555.828 170.957C554.789 170.879 553.705 172.438 553.812 173.592C553.873 174.184 554.011 174.73 553.949 175.369C553.797 177.146 554.759 178.082 556.454 177.77C557.752 177.521 559.05 177.411 560.348 177.302C565.036 176.928 568.701 178.409 570.519 183.429C569.679 184.209 568.915 184.957 567.923 185.534C566.243 186.485 564.929 187.934 564.059 189.758C561.57 194.997 560.119 200.484 559.92 206.346C559.768 211.272 560.898 215.684 563.906 219.597C565.876 222.17 568.488 223.838 571.221 225.365C574.443 227.174 577.192 226.457 579.697 223.884C582.461 221.063 584.415 217.758 585.866 214.078H585.881Z" fill="#171616"/>
<path d="M577.956 216.121C580.595 216.121 582.735 211.116 582.735 204.943C582.735 198.77 580.595 193.765 577.956 193.765C575.316 193.765 573.176 198.77 573.176 204.943C573.176 211.116 575.316 216.121 577.956 216.121Z" fill="white"/>
<path d="M631.971 249.826C635.697 247.02 639.393 244.151 642.859 241.002C644.065 239.911 645.196 238.71 646.173 237.401C647.349 235.826 647.349 234.579 646.463 233.519C645.134 231.944 643.103 231.025 641.744 231.773C639.011 233.254 636.048 234.408 633.773 236.652C629.619 240.753 624.289 242.873 619.036 244.603C614.363 246.147 609.37 246.942 604.391 247.347C601.306 247.596 598.206 248.033 595.122 247.83C591.563 247.596 588.677 245.757 586.218 243.216C584.233 241.173 582.34 239.053 580.324 237.058C579.285 236.029 577.972 235.468 576.521 236.185C574.994 236.949 574.75 238.367 575.025 239.88C575.575 242.951 576.384 245.913 578.843 248.095C579.514 248.703 580.11 249.42 580.675 250.138C583.561 253.91 587.15 256.67 591.747 257.699C596.389 258.743 601.093 259.304 605.781 257.839C606.437 257.636 607.125 257.324 608.133 257.73C608.331 257.823 608.789 257.808 609.308 257.636C614.485 255.75 620.059 255.158 625.068 252.803C627.359 251.728 629.924 251.4 632.001 249.841L631.971 249.826Z" fill="#171616"/>
<path d="M649.256 225.288C650.463 226.27 651.348 226.161 652.448 225.334C654.235 223.978 656.052 222.668 657.869 221.359C659.35 220.283 660.786 219.161 662.634 218.74C666.452 217.882 669.964 215.887 673.98 215.793C674.667 215.778 675.355 215.482 676.011 215.248C677.798 214.593 679.203 212.317 678.836 210.773C678.47 209.277 676.515 208.123 674.53 208.248C673.934 208.279 673.247 208.451 672.743 208.232C670.132 207.079 667.673 208.248 665.138 208.529C662.405 208.825 660.45 210.867 657.976 211.756C657.793 211.943 657.564 212.145 657.365 211.912C657.151 211.662 657.365 211.491 657.625 211.397C657.716 210.992 657.778 210.586 657.915 210.212C659.152 206.938 661.626 204.584 663.794 202.028C667.017 198.239 669.872 194.014 674.606 191.879C675.416 191.505 675.339 190.912 674.82 190.133C673.522 188.184 671.522 187.342 669.154 188.231C667.658 188.792 666.238 189.634 664.848 190.46C660.435 193.079 656.709 196.415 653.654 200.656C650.05 205.676 648.187 211.381 646.599 217.259C645.438 221.515 645.881 222.575 649.241 225.303L649.256 225.288Z" fill="#171616"/>
<path d="M288.171 219.348C290.66 221.141 292.294 223.822 294.6 225.786C297.089 227.907 299.365 230.261 301.884 232.319C306.512 236.107 310.787 240.41 316.438 242.748C321.584 244.884 326.792 246.801 332.198 248.095C335.328 248.844 338.459 249.857 341.406 249.233C341.956 249.233 342.154 249.233 342.353 249.233C343.559 249.202 344.781 249.233 345.987 249.109C347.545 248.937 347.072 247.129 348.049 246.318C349.118 245.43 348.843 244.728 347.469 244.276C345.453 243.606 343.391 243.122 341.238 243.169C339.314 243.216 337.451 242.826 335.557 242.421C330.594 241.345 325.921 239.381 321.126 237.791C315.888 236.06 311.307 233.192 307.184 229.419C302.755 225.366 297.914 221.795 292.661 218.896C291.699 218.366 290.645 217.96 289.591 217.586C288.935 217.352 288.461 217.789 288.034 218.288C287.682 218.693 287.804 219.098 288.14 219.348H288.171Z" fill="#DDDDDD"/>
<path d="M344.338 81.8306C343.238 81.4409 342.444 82.3295 342.154 83.4207C341.253 86.8037 340.749 90.2335 341.452 93.71C341.849 95.6431 342.551 95.9237 344.414 95.6587C346.17 95.3937 346.766 94.1933 346.995 92.7278C347.224 91.2156 347.224 89.6722 347.285 88.581C347.193 86.7881 347.102 85.463 347.071 84.1379C347.041 82.2359 345.407 82.2203 344.307 81.8306H344.338Z" fill="#171616"/>
<path d="M352.585 81.2226C351.303 81.0823 350.371 82.0176 350.188 83.6546C350.142 84.0599 350.081 84.4652 350.096 84.8706C350.127 85.8683 349.928 87.0375 351.226 87.3649C352.356 87.6455 353.074 86.7881 353.731 86.0242C354.204 85.4786 354.387 84.777 354.311 84.0287C354.357 82.4853 353.654 81.3473 352.585 81.2226Z" fill="#171616"/>
<path d="M337.833 83.0934C336.658 83.0466 335.253 84.8862 335.237 86.3672C335.237 87.3182 336.932 88.7213 338.001 88.6277C338.933 88.5498 340.094 86.2892 339.91 84.855C339.758 83.6234 338.933 83.1245 337.833 83.0778V83.0934Z" fill="#171616"/>
</g>
<mask id="mask1_258_61" style="mask-type:luminance" maskUnits="userSpaceOnUse" x="0" y="286" width="186" height="112">
<path d="M185.122 286H0V397.858H185.122V286Z" fill="white"/>
</mask>
<g mask="url(#mask1_258_61)">
<path d="M27.3193 380C23.1666 379.894 19.7775 379.723 17.1519 379.499C14.4594 379.275 13.0395 377.784 12.8653 375.027V368.815H12.6108C13.3878 353.423 13.7896 344.982 13.7896 343.491C13.8968 342.713 13.9102 340.049 13.8298 335.459C13.7494 330.882 13.7093 328.204 13.7093 327.426C13.7093 326.173 13.2538 325.777 11.941 325.777C8.63229 325.83 5.75221 324.366 3.2874 321.385C2.85874 320.858 2.95251 319.618 3.2874 319.064C6.64972 313.986 9.59678 309.712 12.1152 306.244C12.7314 305.413 13.7093 304.951 15.0622 304.832C15.3971 304.832 18.8398 304.806 25.4037 304.753C27.3595 304.753 28.5115 304.7 28.8464 304.595C30.7486 304.041 32.0078 304.674 32.624 306.494C33.133 307.932 33.3473 309.554 33.2938 311.374C33.2938 313.26 32.8249 319.974 32.7043 321.636C32.0346 336.369 31.5791 346.657 31.3648 352.5C31.2844 354.241 31.3514 365.927 31.1906 367.562C31.0165 369.277 30.2663 373.102 28.9268 379.064C28.9268 379.459 27.7479 379.974 27.3327 379.974L27.3193 380Z" fill="#161716"/>
<path d="M87.627 361.627C89.4756 361.574 90.5741 362.405 90.909 364.107C91.2439 366.204 91.5252 369.132 91.7529 372.878C91.8735 374.777 90.5473 375.674 88.471 375.357C86.9706 375.357 85.5239 375.463 84.1843 375.687L57.9556 377.177C53.4144 377.454 50.7889 377.613 50.0521 377.679C45.3904 378.153 45.0957 370.622 45.0957 365.848C45.0957 362.286 46.529 360.809 49.3823 359.807C54.1512 358.039 58.0627 354.65 61.1437 349.624C61.5858 348.846 62.5905 347.448 64.131 345.404C65.6715 343.359 66.7565 341.737 67.3727 340.523C68.6051 337.991 70.1189 333.744 71.9139 327.782C72.731 324.96 69.5294 323.39 67.1182 322.902C63.354 322.19 57.2322 322.757 53.2135 323.852C51.2845 324.379 49.9717 324.696 49.3019 324.801C46.1272 325.5 45.5244 324.709 45.5244 321.741C45.4708 316.228 45.4708 313.195 45.5244 312.641C45.6449 309.726 48.2571 307.615 50.8157 307.009C56.4686 305.901 64.6266 305.597 75.2762 306.099C83.3404 306.428 89.3417 310.517 93.2666 318.352C94.4454 320.726 94.7803 323.759 94.2713 327.453C93.3738 335.01 90.5205 341.803 85.698 347.804C84.747 348.965 83.26 350.534 81.2373 352.526L77.7946 355.916C77.5669 356.14 75.8388 358.066 72.5837 361.706C81.4918 361.706 86.5018 361.68 87.627 361.627Z" fill="#161716"/>
<path d="M165.711 359.556V359.147C165.765 358.923 163.461 358.804 158.772 358.778C146.903 358.712 130.413 359.2 117.714 359.648C117.42 359.648 115.343 359.807 115.022 359.807C113.026 359.807 111.753 358.87 111.579 357.076C111.458 356.272 110.99 354.742 110.99 353.766C110.99 351.801 111.566 349.875 113.682 349.875H124.439C124.184 347.303 124.158 345.206 121.746 344.784C119.415 344.375 117.607 344.744 114.352 344.744C109.007 344.744 104.077 344.955 104.265 340.115C104.372 338.519 104.774 337.45 105.444 336.923C106.114 336.395 107.855 335.999 110.655 335.722C114.245 335.34 120.313 335.089 128.9 334.971C138.143 334.865 143.635 334.839 145.376 334.891C145.885 334.944 146.381 334.971 146.89 334.971C148.069 334.971 149.248 334.892 150.427 334.72C153.842 334.377 157.941 334.799 157.151 338.031C156.642 340.352 156.361 341.592 156.307 341.75C155.155 345.048 150.922 346.617 146.22 346.301C143.702 346.129 141.492 346.076 139.576 346.129C138.451 346.235 137.339 347.448 136.964 348.239C136.79 348.596 136.575 349.163 136.294 349.941C152.931 350.046 163.635 350.244 168.404 350.521C171.016 350.679 174.552 351.088 174.954 352.843C175.289 353.832 175.463 354.887 175.463 355.982C175.463 356.734 175.543 359.939 175.463 360.704C175.463 362.814 175.999 365.716 174.793 366.784C173.681 367.773 171.31 368.274 169.368 368.485C167.828 368.644 165.51 368.71 162.429 368.644C153.909 368.591 148.417 368.617 145.952 368.723C144.023 368.723 122.456 368.934 121.411 369.224L121.492 371.216C127.225 371.216 144.425 370.965 150.159 370.965C155.035 370.965 158.317 370.939 159.991 370.886C161.759 370.886 170.359 370.385 172.101 370.385H172.275C173.842 370.385 174.633 370.886 174.633 371.875V372.284C174.298 374.157 173.882 375.845 173.373 377.336C172.583 379.921 171.739 379.657 167.747 379.657H166.742C164.666 379.591 145.108 379.644 143.045 379.578C140.42 379.459 116.897 378.984 114.218 378.918C111.566 378.826 110.213 377.296 110.601 374.698C110.949 372.39 110.427 371.466 110.427 368.657C110.427 368.274 110.454 367.549 110.507 366.507C110.628 362.985 112.436 362.3 116.308 362.207C117.821 362.168 161.907 361.93 163.286 361.877H163.956C164.947 361.877 165.805 361.785 165.805 360.796C165.765 360.4 165.724 359.978 165.724 359.556H165.711ZM111.994 327.861C107.346 326.147 104.908 323.509 104.68 319.921C104.345 315.292 105.913 311.862 109.382 309.66C113.133 307.233 114.553 306.125 119 304.859C122.523 303.856 124.238 304.199 128.498 304.199C134.084 304.199 137.607 304.977 141.907 306.099C143.675 306.56 143.555 306.653 145.149 307.22C146.569 307.721 147.011 308.117 148.176 308.829C150.453 310.24 153.333 313.88 153.467 316.241C153.548 317.705 152.731 319.671 150.989 322.164C148.35 325.804 145.751 328.363 143.166 329.814C140.581 331.264 137.339 332.003 133.414 332.003C127.024 332.108 119.884 330.737 111.981 327.861H111.994ZM132.249 324.393C135.557 324.274 136.482 322.757 137.379 319.921C137.995 317.771 137.017 316.36 134.432 315.701C131.07 314.764 127.172 314.012 122.751 313.472C119.911 313.102 117.929 315.529 117.54 317.943C117.205 320.422 118.384 321.992 121.063 322.665C122.845 323.179 126.85 323.852 128.886 324.155L130.561 324.406H132.235L132.249 324.393ZM167.051 335.063C167.118 334.021 166.984 330.79 165.952 329.972C164.505 328.811 161.826 328.956 159.308 328.6C157.968 328.323 157.178 327.967 156.95 327.519C155.262 324.036 155.048 321.095 156.28 318.668C156.923 317.389 156.883 316.07 158.973 316.268C160.768 316.347 165.952 315.424 165.952 313.696C165.952 312.535 166.18 309.647 166.622 305.004C166.783 303.738 167.72 303.131 169.395 303.184C171.471 303.236 173.601 303.184 175.785 303.012C177.526 302.907 178.691 303.487 179.308 304.753C181.21 308.776 182.027 313.722 181.746 319.565C181.652 321.28 182 326.965 182 328.587C182 331.99 181.143 333.638 180.902 336.778C180.62 341.737 180.178 345.298 179.562 347.448C178.892 349.769 175.048 350.205 168.042 348.767C166.863 348.543 166.019 347.831 165.523 346.617C165.242 345.958 165.309 344.731 165.738 342.937C166.153 341.143 166.287 339.917 166.113 339.257C166.233 336.725 167.037 337.569 167.037 335.037L167.051 335.063Z" fill="#161716"/>
</g>
</svg>