<svg width="966" height="68" viewBox="0 0 966 68" fill="none" xmlns="http://www.w3.org/2000/svg">
<path d="M961.267 5.29313C957.934 1.81824 957.319 3.72882 952.538 3.72882C947.757 3.72882 947.757 4.07492 942.962 4.07492C938.167 4.07492 938.181 3.6319 933.4 3.6319C928.618 3.6319 928.618 4.31025 923.837 4.31025C919.056 4.31025 919.056 3.03661 914.275 3.03661C909.493 3.03661 909.493 4.58715 904.712 4.58715C899.931 4.58715 899.931 5.34857 895.15 5.34857C890.368 5.34857 890.368 2.8704 885.587 2.8704C880.806 2.8704 880.806 4.68407 876.025 4.68407C871.244 4.68407 871.243 4.04721 866.449 4.04721C861.654 4.04721 861.667 3.77031 856.872 3.77031C852.078 3.77031 852.091 5.73616 847.296 5.73616C842.501 5.73616 842.515 5.5424 837.72 5.5424C832.925 5.5424 832.939 4.04721 828.144 4.04721C823.349 4.04721 823.363 5.66695 818.582 5.66695C813.8 5.66695 813.8 4.01949 809.019 4.01949C804.238 4.01949 804.238 4.57329 799.457 4.57329C794.675 4.57329 794.675 3.61804 789.894 3.61804C785.113 3.61804 785.113 4.93326 780.318 4.93326C775.523 4.93326 775.537 3.41034 770.742 3.41034C765.947 3.41034 765.961 3.77031 761.166 3.77031C756.371 3.77031 756.385 6.15155 751.59 6.15155C746.795 6.15155 746.808 5.51469 742.014 5.51469C737.219 5.51469 737.232 3.45192 732.437 3.45192C727.643 3.45192 727.656 4.69784 722.861 4.69784C718.066 4.69784 718.08 4.54558 713.285 4.54558C708.49 4.54558 708.504 3.0781 703.709 3.0781C698.914 3.0781 698.928 5.95771 694.133 5.95771C689.338 5.95771 689.352 4.26868 684.557 4.26868C679.762 4.26868 679.776 5.97157 674.981 5.97157C670.186 5.97157 670.199 5.44548 665.405 5.44548C660.61 5.44548 660.623 5.80545 655.828 5.80545C651.034 5.80545 651.047 5.98534 646.252 5.98534C641.457 5.98534 641.471 5.97157 636.676 5.97157C631.881 5.97157 631.895 5.9992 627.1 5.9992C622.305 5.9992 622.319 4.35174 617.524 4.35174C612.729 4.35174 612.743 5.91614 607.948 5.91614C603.153 5.91614 603.167 4.25482 598.372 4.25482C593.577 4.25482 593.59 3.82565 588.796 3.82565C584.001 3.82565 584.014 5.41777 579.219 5.41777C574.424 5.41777 574.438 3.65953 569.643 3.65953C564.848 3.65953 564.862 5.86079 560.067 5.86079C555.272 5.86079 555.272 5.12701 550.491 5.12701C545.71 5.12701 545.71 3.1473 540.915 3.1473C536.12 3.1473 536.134 4.42103 531.339 4.42103C526.544 4.42103 526.558 4.17176 521.763 4.17176C516.968 4.17176 516.981 3.99186 512.187 3.99186C507.392 3.99186 507.405 4.07492 502.61 4.07492C497.815 4.07492 497.815 4.57329 493.034 4.57329C488.253 4.57329 488.253 2.88426 483.458 2.88426C478.663 2.88426 478.677 3.92257 473.882 3.92257C469.087 3.92257 469.101 3.83951 464.306 3.83951C459.511 3.83951 459.511 5.30699 454.73 5.30699C449.949 5.30699 449.948 4.51786 445.154 4.51786C440.359 4.51786 440.372 5.93 435.578 5.93C430.783 5.93 430.796 4.85019 426.001 4.85019C421.206 4.85019 421.206 5.51469 416.425 5.51469C411.644 5.51469 411.644 5.45934 406.849 5.45934C402.054 5.45934 402.068 4.13027 397.273 4.13027C392.478 4.13027 392.478 6.08226 387.697 6.08226C382.916 6.08226 382.902 5.1963 378.121 5.1963C373.339 5.1963 373.339 4.10255 368.545 4.10255C363.75 4.10255 363.75 3.93643 358.968 3.93643C354.187 3.93643 354.174 3.23036 349.392 3.23036C344.611 3.23036 344.611 4.49023 339.816 4.49023C335.021 4.49023 335.021 3.65953 330.24 3.65953C325.459 3.65953 325.445 4.25482 320.664 4.25482C315.883 4.25482 315.869 5.68081 311.088 5.68081C306.307 5.68081 306.293 5.80545 301.512 5.80545C296.73 5.80545 296.717 2.81505 291.936 2.81505C287.154 2.81505 287.141 3.31343 282.359 3.31343C277.578 3.31343 277.578 5.90228 272.783 5.90228C267.988 5.90228 268.002 3.95029 263.207 3.95029C258.412 3.95029 258.426 3.1473 253.631 3.1473C248.836 3.1473 248.836 3.77031 244.055 3.77031C239.274 3.77031 239.274 3.4242 234.479 3.4242C229.684 3.4242 229.698 2.81505 224.903 2.81505C220.108 2.81505 220.108 3.27194 215.327 3.27194C210.545 3.27194 210.545 4.9886 205.75 4.9886C200.956 4.9886 200.956 5.5424 196.174 5.5424C191.393 5.5424 191.393 5.73616 186.598 5.73616C181.803 5.73616 181.803 4.68407 177.022 4.68407C172.241 4.68407 172.227 5.87465 167.446 5.87465C162.665 5.87465 162.651 4.00563 157.87 4.00563C153.089 4.00563 153.075 4.24105 148.294 4.24105C143.499 4.24105 143.499 6.09612 138.717 6.09612C133.936 6.09612 133.923 6.12384 129.141 6.12384C124.36 6.12384 124.346 3.96415 119.565 3.96415C114.784 3.96415 114.77 4.96089 109.989 4.96089C105.194 4.96089 105.194 4.79476 100.413 4.79476C95.6317 4.79476 95.6181 5.51469 90.8232 5.51469C86.0283 5.51469 86.0283 5.15473 81.2471 5.15473C76.4658 5.15473 76.4522 2.96732 71.6709 2.96732C66.8897 2.96732 66.876 5.41777 62.0948 5.41777C57.3136 5.41777 57.2999 6.06849 52.5187 6.06849C47.7374 6.06849 47.7238 4.79476 42.9289 4.79476C38.134 4.79476 38.134 2.88426 33.3528 2.88426C28.5715 2.88426 28.5579 3.47955 23.763 3.47955C18.9681 3.47955 18.9681 3.16116 14.1732 3.16116C9.37829 3.16116 7.76634 0.821514 4.41947 4.31025C1.07261 7.79899 2.97144 9.44644 2.97144 14.4304C2.97144 19.4143 5.64893 19.4143 5.64893 24.3982C5.64893 29.3821 4.43313 29.382 4.43313 34.3659C4.43313 39.3499 3.39492 39.3499 3.39492 44.3476C3.39492 49.3454 5.14349 49.3454 5.14349 54.3293C5.14349 59.3132 2.00153 59.867 5.43036 63.4526C8.85919 67.0383 9.33731 64.7955 14.1322 64.7955C18.9271 64.7955 18.9134 63.3973 23.7083 63.3973C28.5032 63.3973 28.4896 62.9958 33.2708 62.9958C38.052 62.9958 38.052 64.9894 42.8333 64.9894C47.6145 64.9894 47.6145 64.7125 52.3957 64.7125C57.177 64.7125 57.177 64.9478 61.9582 64.9478C66.7394 64.9478 66.7394 64.4494 71.5207 64.4494C76.3019 64.4494 76.3019 62.7328 81.0831 62.7328C85.8644 62.7328 85.8644 63.5772 90.6456 63.5772C95.4268 63.5772 95.4268 65.7923 100.222 65.7923C105.017 65.7923 105.003 64.2833 109.798 64.2833C114.593 64.2833 114.579 64.4217 119.374 64.4217C124.169 64.4217 124.155 64.7817 128.95 64.7817C133.745 64.7817 133.731 65.0862 138.526 65.0862C143.321 65.0862 143.307 65.0862 148.089 65.0862C152.87 65.0862 152.87 64.0895 157.651 64.0895C162.432 64.0895 162.432 66 167.214 66C171.995 66 171.995 65.4739 176.776 65.4739C181.557 65.4739 181.557 64.1864 186.352 64.1864C191.147 64.1864 191.133 63.2589 195.928 63.2589C200.723 63.2589 200.71 62.622 205.505 62.622C210.299 62.622 210.286 64.1587 215.081 64.1587C219.876 64.1587 219.862 65.1693 224.657 65.1693C229.452 65.1693 229.438 65.5292 234.233 65.5292C239.028 65.5292 239.014 65.0586 243.809 65.0586C248.604 65.0586 248.59 63.2726 253.385 63.2726C258.18 63.2726 258.166 64.2002 262.961 64.2002C267.756 64.2002 267.743 64.4909 272.537 64.4909C277.332 64.4909 277.319 63.3695 282.114 63.3695C286.908 63.3695 286.895 64.4356 291.69 64.4356C296.485 64.4356 296.471 63.4942 301.266 63.4942C306.061 63.4942 306.047 64.2556 310.842 64.2556C315.637 64.2556 315.623 65.9308 320.418 65.9308C325.213 65.9308 325.199 65.1831 329.994 65.1831C334.789 65.1831 334.775 63.6326 339.57 63.6326C344.365 63.6326 344.352 64.0341 349.146 64.0341C353.941 64.0341 353.928 64.0479 358.723 64.0479C363.517 64.0479 363.504 63.3142 368.299 63.3142C373.094 63.3142 373.08 63.2034 377.875 63.2034C382.67 63.2034 382.656 63.1342 387.451 63.1342C392.246 63.1342 392.232 62.6773 397.027 62.6773C401.822 62.6773 401.808 62.9681 406.603 62.9681C411.398 62.9681 411.398 65.2386 416.179 65.2386C420.961 65.2386 420.961 65.7508 425.755 65.7508C430.55 65.7508 430.537 63.2865 435.332 63.2865C440.126 63.2865 440.113 64.394 444.908 64.394C449.703 64.394 449.689 64.2972 454.484 64.2972C459.279 64.2972 459.265 63.2034 464.06 63.2034C468.855 63.2034 468.855 64.0064 473.636 64.0064C478.417 64.0064 478.417 65.5292 483.212 65.5292C488.007 65.5292 487.993 64.9339 492.788 64.9339C497.583 64.9339 497.57 65.2939 502.365 65.2939C507.159 65.2939 507.159 65.4877 511.941 65.4877C516.722 65.4877 516.722 64.1725 521.517 64.1725C526.312 64.1725 526.298 64.3109 531.093 64.3109C535.888 64.3109 535.874 62.7465 540.669 62.7465C545.464 62.7465 545.464 65.6123 550.245 65.6123C555.026 65.6123 555.026 64.8647 559.821 64.8647C564.616 64.8647 564.602 63.4111 569.397 63.4111C574.192 63.4111 574.192 64.2695 578.974 64.2695C583.755 64.2695 583.768 65.7923 588.55 65.7923C593.331 65.7923 593.331 65.7092 598.126 65.7092C602.921 65.7092 602.921 63.6603 607.702 63.6603C612.483 63.6603 612.497 62.6912 617.278 62.6912C622.059 62.6912 622.059 64.8925 626.854 64.8925C631.649 64.8925 631.649 63.2589 636.43 63.2589C641.212 63.2589 641.225 65.3078 646.006 65.3078C650.788 65.3078 650.801 63.5357 655.583 63.5357C660.364 63.5357 660.377 63.7434 665.159 63.7434C669.94 63.7434 669.954 64.5325 674.735 64.5325C679.516 64.5325 679.53 65.5292 684.311 65.5292C689.092 65.5292 689.092 64.7817 693.887 64.7817C698.682 64.7817 698.668 63.1619 703.463 63.1619C708.258 63.1619 708.244 65.7092 713.039 65.7092C717.834 65.7092 717.834 65.9584 722.615 65.9584C727.397 65.9584 727.397 62.8297 732.192 62.8297C736.986 62.8297 736.973 64.4494 741.768 64.4494C746.563 64.4494 746.563 64.8647 751.344 64.8647C756.125 64.8647 756.125 63.2589 760.92 63.2589C765.715 63.2589 765.715 65.9446 770.496 65.9446C775.277 65.9446 775.277 65.9031 780.072 65.9031C784.867 65.9031 784.867 65.2801 789.648 65.2801C794.43 65.2801 794.443 63.5219 799.224 63.5219C804.006 63.5219 804.019 63.508 808.801 63.508C813.582 63.508 813.595 64.0479 818.377 64.0479C823.158 64.0479 823.172 64.6709 827.953 64.6709C832.734 64.6709 832.748 63.3142 837.529 63.3142C842.31 63.3142 842.324 65.8615 847.105 65.8615C851.886 65.8615 851.9 63.6187 856.681 63.6187C861.462 63.6187 861.476 65.4877 866.257 65.4877C871.039 65.4877 871.052 65.3493 875.847 65.3493C880.642 65.3493 880.642 63.8541 885.423 63.8541C890.204 63.8541 890.218 63.7018 894.999 63.7018C899.781 63.7018 899.794 64.1448 904.576 64.1448C909.357 64.1448 909.37 64.9339 914.152 64.9339C918.933 64.9339 918.947 63.7849 923.741 63.7849C928.536 63.7849 928.536 65.2939 933.318 65.2939C938.099 65.2939 938.112 64.574 942.907 64.574C947.702 64.574 947.702 64.8647 952.497 64.8647C957.292 64.8647 958.713 67.7582 962.06 64.2695C965.406 60.7807 962.128 59.3132 962.128 54.3293C962.128 49.3454 961.363 49.3454 961.363 44.3615C961.363 39.3776 962.893 39.3776 962.893 34.3937C962.893 29.4097 963.084 29.4098 963.084 24.412C963.084 19.4143 961.786 19.4419 962.606 14.5134C963.426 9.58488 964.669 8.85115 961.24 5.2655L961.267 5.29313Z" fill="black"/>
<path d="M961.267 5.29313C957.934 1.81824 957.319 3.72882 952.538 3.72882C947.757 3.72882 947.757 4.07492 942.962 4.07492C938.167 4.07492 938.181 3.6319 933.4 3.6319C928.618 3.6319 928.618 4.31025 923.837 4.31025C919.056 4.31025 919.056 3.03661 914.275 3.03661C909.493 3.03661 909.493 4.58715 904.712 4.58715C899.931 4.58715 899.931 5.34857 895.15 5.34857C890.368 5.34857 890.368 2.8704 885.587 2.8704C880.806 2.8704 880.806 4.68407 876.025 4.68407C871.244 4.68407 871.243 4.04721 866.449 4.04721C861.654 4.04721 861.667 3.77031 856.872 3.77031C852.078 3.77031 852.091 5.73616 847.296 5.73616C842.501 5.73616 842.515 5.5424 837.72 5.5424C832.925 5.5424 832.939 4.04721 828.144 4.04721C823.349 4.04721 823.363 5.66695 818.582 5.66695C813.8 5.66695 813.8 4.01949 809.019 4.01949C804.238 4.01949 804.238 4.57329 799.457 4.57329C794.675 4.57329 794.675 3.61804 789.894 3.61804C785.113 3.61804 785.113 4.93326 780.318 4.93326C775.523 4.93326 775.537 3.41034 770.742 3.41034C765.947 3.41034 765.961 3.77031 761.166 3.77031C756.371 3.77031 756.385 6.15155 751.59 6.15155C746.795 6.15155 746.808 5.51469 742.014 5.51469C737.219 5.51469 737.232 3.45192 732.437 3.45192C727.643 3.45192 727.656 4.69784 722.861 4.69784C718.066 4.69784 718.08 4.54558 713.285 4.54558C708.49 4.54558 708.504 3.0781 703.709 3.0781C698.914 3.0781 698.928 5.95771 694.133 5.95771C689.338 5.95771 689.352 4.26868 684.557 4.26868C679.762 4.26868 679.776 5.97157 674.981 5.97157C670.186 5.97157 670.199 5.44548 665.405 5.44548C660.61 5.44548 660.623 5.80545 655.828 5.80545C651.034 5.80545 651.047 5.98534 646.252 5.98534C641.457 5.98534 641.471 5.97157 636.676 5.97157C631.881 5.97157 631.895 5.9992 627.1 5.9992C622.305 5.9992 622.319 4.35174 617.524 4.35174C612.729 4.35174 612.743 5.91614 607.948 5.91614C603.153 5.91614 603.167 4.25482 598.372 4.25482C593.577 4.25482 593.59 3.82565 588.796 3.82565C584.001 3.82565 584.014 5.41777 579.219 5.41777C574.425 5.41777 574.438 3.65953 569.643 3.65953C564.848 3.65953 564.862 5.86079 560.067 5.86079C555.272 5.86079 555.272 5.12701 550.491 5.12701C545.71 5.12701 545.71 3.1473 540.915 3.1473C536.12 3.1473 536.134 4.42103 531.339 4.42103C526.544 4.42103 526.558 4.17176 521.763 4.17176C516.968 4.17176 516.981 3.99186 512.187 3.99186C507.392 3.99186 507.405 4.07492 502.61 4.07492C497.815 4.07492 497.816 4.57329 493.034 4.57329C488.253 4.57329 488.253 2.88426 483.458 2.88426C478.663 2.88426 478.677 3.92257 473.882 3.92257C469.087 3.92257 469.101 3.83951 464.306 3.83951C459.511 3.83951 459.511 5.30699 454.73 5.30699C449.949 5.30699 449.948 4.51786 445.154 4.51786C440.359 4.51786 440.372 5.93 435.578 5.93C430.783 5.93 430.796 4.85019 426.001 4.85019C421.206 4.85019 421.206 5.51469 416.425 5.51469C411.644 5.51469 411.644 5.45934 406.849 5.45934C402.054 5.45934 402.068 4.13027 397.273 4.13027C392.478 4.13027 392.478 6.08226 387.697 6.08226C382.916 6.08226 382.902 5.1963 378.121 5.1963C373.339 5.1963 373.339 4.10255 368.545 4.10255C363.75 4.10255 363.75 3.93643 358.968 3.93643C354.187 3.93643 354.174 3.23036 349.392 3.23036C344.611 3.23036 344.611 4.49023 339.816 4.49023C335.021 4.49023 335.021 3.65953 330.24 3.65953C325.459 3.65953 325.445 4.25482 320.664 4.25482C315.883 4.25482 315.869 5.68081 311.088 5.68081C306.307 5.68081 306.293 5.80545 301.512 5.80545C296.73 5.80545 296.717 2.81505 291.936 2.81505C287.154 2.81505 287.141 3.31343 282.359 3.31343C277.578 3.31343 277.578 5.90228 272.783 5.90228C267.988 5.90228 268.002 3.95029 263.207 3.95029C258.412 3.95029 258.426 3.1473 253.631 3.1473C248.836 3.1473 248.836 3.77031 244.055 3.77031C239.274 3.77031 239.274 3.4242 234.479 3.4242C229.684 3.4242 229.698 2.81505 224.903 2.81505C220.108 2.81505 220.108 3.27194 215.327 3.27194C210.545 3.27194 210.545 4.9886 205.75 4.9886C200.955 4.9886 200.956 5.5424 196.174 5.5424C191.393 5.5424 191.393 5.73616 186.598 5.73616C181.803 5.73616 181.803 4.68407 177.022 4.68407C172.241 4.68407 172.227 5.87465 167.446 5.87465C162.665 5.87465 162.651 4.00563 157.87 4.00563C153.089 4.00563 153.075 4.24105 148.294 4.24105C143.499 4.24105 143.499 6.09612 138.717 6.09612C133.936 6.09612 133.923 6.12384 129.141 6.12384C124.36 6.12384 124.346 3.96415 119.565 3.96415C114.784 3.96415 114.77 4.96089 109.989 4.96089C105.194 4.96089 105.194 4.79476 100.413 4.79476C95.6317 4.79476 95.6181 5.51469 90.8232 5.51469C86.0283 5.51469 86.0283 5.15473 81.2471 5.15473C76.4658 5.15473 76.4522 2.96732 71.6709 2.96732C66.8897 2.96732 66.876 5.41777 62.0948 5.41777C57.3136 5.41777 57.2999 6.06849 52.5187 6.06849C47.7374 6.06849 47.7238 4.79476 42.9289 4.79476C38.134 4.79476 38.134 2.88426 33.3528 2.88426C28.5715 2.88426 28.5579 3.47955 23.763 3.47955C18.9681 3.47955 18.9681 3.16116 14.1732 3.16116C9.37829 3.16116 7.76634 0.821514 4.41947 4.31025C1.07261 7.79899 2.97144 9.44644 2.97144 14.4304C2.97144 19.4143 5.64893 19.4143 5.64893 24.3982C5.64893 29.3821 4.43313 29.382 4.43313 34.3659C4.43313 39.3499 3.39492 39.3499 3.39492 44.3476C3.39492 49.3454 5.14349 49.3454 5.14349 54.3293C5.14349 59.3132 2.00153 59.867 5.43036 63.4526C8.85919 67.0383 9.33731 64.7955 14.1322 64.7955C18.9271 64.7955 18.9134 63.3973 23.7083 63.3973C28.5032 63.3973 28.4896 62.9958 33.2708 62.9958C38.052 62.9958 38.052 64.9894 42.8333 64.9894C47.6145 64.9894 47.6145 64.7125 52.3957 64.7125C57.177 64.7125 57.177 64.9478 61.9582 64.9478C66.7394 64.9478 66.7394 64.4494 71.5207 64.4494C76.3019 64.4494 76.3019 62.7328 81.0831 62.7328C85.8644 62.7328 85.8644 63.5772 90.6456 63.5772C95.4268 63.5772 95.4268 65.7923 100.222 65.7923C105.017 65.7923 105.003 64.2833 109.798 64.2833C114.593 64.2833 114.579 64.4217 119.374 64.4217C124.169 64.4217 124.155 64.7817 128.95 64.7817C133.745 64.7817 133.731 65.0862 138.526 65.0862C143.321 65.0862 143.307 65.0862 148.089 65.0862C152.87 65.0862 152.87 64.0895 157.651 64.0895C162.432 64.0895 162.432 66 167.214 66C171.995 66 171.995 65.4739 176.776 65.4739C181.557 65.4739 181.557 64.1864 186.352 64.1864C191.147 64.1864 191.133 63.2589 195.928 63.2589C200.723 63.2589 200.71 62.622 205.505 62.622C210.299 62.622 210.286 64.1587 215.081 64.1587C219.876 64.1587 219.862 65.1693 224.657 65.1693C229.452 65.1693 229.438 65.5292 234.233 65.5292C239.028 65.5292 239.014 65.0586 243.809 65.0586C248.604 65.0586 248.59 63.2726 253.385 63.2726C258.18 63.2726 258.166 64.2002 262.961 64.2002C267.756 64.2002 267.743 64.4909 272.537 64.4909C277.332 64.4909 277.319 63.3695 282.114 63.3695C286.908 63.3695 286.895 64.4356 291.69 64.4356C296.485 64.4356 296.471 63.4942 301.266 63.4942C306.061 63.4942 306.047 64.2556 310.842 64.2556C315.637 64.2556 315.623 65.9308 320.418 65.9308C325.213 65.9308 325.199 65.1831 329.994 65.1831C334.789 65.1831 334.775 63.6326 339.57 63.6326C344.365 63.6326 344.352 64.0341 349.146 64.0341C353.941 64.0341 353.928 64.0479 358.723 64.0479C363.517 64.0479 363.504 63.3142 368.299 63.3142C373.094 63.3142 373.08 63.2034 377.875 63.2034C382.67 63.2034 382.656 63.1342 387.451 63.1342C392.246 63.1342 392.232 62.6773 397.027 62.6773C401.822 62.6773 401.808 62.9681 406.603 62.9681C411.398 62.9681 411.398 65.2386 416.179 65.2386C420.961 65.2386 420.961 65.7508 425.755 65.7508C430.55 65.7508 430.537 63.2865 435.332 63.2865C440.126 63.2865 440.113 64.394 444.908 64.394C449.703 64.394 449.689 64.2972 454.484 64.2972C459.279 64.2972 459.265 63.2034 464.06 63.2034C468.855 63.2034 468.855 64.0064 473.636 64.0064C478.417 64.0064 478.417 65.5292 483.212 65.5292C488.007 65.5292 487.993 64.9339 492.788 64.9339C497.583 64.9339 497.57 65.2939 502.364 65.2939C507.159 65.2939 507.159 65.4877 511.941 65.4877C516.722 65.4877 516.722 64.1725 521.517 64.1725C526.312 64.1725 526.298 64.3109 531.093 64.3109C535.888 64.3109 535.874 62.7465 540.669 62.7465C545.464 62.7465 545.464 65.6123 550.245 65.6123C555.026 65.6123 555.026 64.8647 559.821 64.8647C564.616 64.8647 564.603 63.4111 569.397 63.4111C574.192 63.4111 574.192 64.2695 578.974 64.2695C583.755 64.2695 583.768 65.7923 588.55 65.7923C593.331 65.7923 593.331 65.7092 598.126 65.7092C602.921 65.7092 602.921 63.6603 607.702 63.6603C612.483 63.6603 612.497 62.6912 617.278 62.6912C622.059 62.6912 622.059 64.8925 626.854 64.8925C631.649 64.8925 631.649 63.2589 636.43 63.2589C641.212 63.2589 641.225 65.3078 646.006 65.3078C650.788 65.3078 650.801 63.5357 655.583 63.5357C660.364 63.5357 660.377 63.7434 665.159 63.7434C669.94 63.7434 669.954 64.5325 674.735 64.5325C679.516 64.5325 679.53 65.5292 684.311 65.5292C689.092 65.5292 689.092 64.7817 693.887 64.7817C698.682 64.7817 698.668 63.1619 703.463 63.1619C708.258 63.1619 708.244 65.7092 713.039 65.7092C717.834 65.7092 717.834 65.9584 722.615 65.9584C727.397 65.9584 727.397 62.8297 732.192 62.8297C736.986 62.8297 736.973 64.4494 741.768 64.4494C746.563 64.4494 746.563 64.8647 751.344 64.8647C756.125 64.8647 756.125 63.2589 760.92 63.2589C765.715 63.2589 765.715 65.9446 770.496 65.9446C775.277 65.9446 775.277 65.9031 780.072 65.9031C784.867 65.9031 784.867 65.2801 789.648 65.2801C794.43 65.2801 794.443 63.5219 799.224 63.5219C804.006 63.5219 804.019 63.508 808.801 63.508C813.582 63.508 813.595 64.0479 818.377 64.0479C823.158 64.0479 823.172 64.6709 827.953 64.6709C832.734 64.6709 832.748 63.3142 837.529 63.3142C842.31 63.3142 842.324 65.8615 847.105 65.8615C851.886 65.8615 851.9 63.6187 856.681 63.6187C861.462 63.6187 861.476 65.4877 866.257 65.4877C871.039 65.4877 871.052 65.3493 875.847 65.3493C880.642 65.3493 880.642 63.8541 885.423 63.8541C890.204 63.8541 890.218 63.7018 894.999 63.7018C899.781 63.7018 899.794 64.1448 904.575 64.1448C909.357 64.1448 909.37 64.9339 914.152 64.9339C918.933 64.9339 918.947 63.7849 923.741 63.7849C928.536 63.7849 928.536 65.2939 933.318 65.2939C938.099 65.2939 938.112 64.574 942.907 64.574C947.702 64.574 947.702 64.8647 952.497 64.8647C957.292 64.8647 958.713 67.7582 962.06 64.2695C965.406 60.7807 962.128 59.3132 962.128 54.3293C962.128 49.3454 961.363 49.3454 961.363 44.3615C961.363 39.3776 962.893 39.3776 962.893 34.3937C962.893 29.4097 963.084 29.4098 963.084 24.412C963.084 19.4143 961.786 19.4419 962.606 14.5134C963.426 9.58488 964.669 8.85115 961.24 5.2655L961.267 5.29313Z" stroke="black" stroke-width="3.7" stroke-miterlimit="10"/>
<path d="M261.046 46.7149H247.689V46.3688C248.206 45.8565 248.777 45.2612 249.389 44.5552C250.001 43.8491 250.804 42.9077 251.769 41.7586C252.218 41.2325 252.64 40.7203 253.034 40.2081C253.429 39.6958 253.769 39.2113 254.041 38.7267C254.326 38.2422 254.558 37.7161 254.748 37.1485C254.939 36.567 255.034 35.9856 255.034 35.3765C255.034 34.5458 254.803 33.8813 254.326 33.369C253.85 32.8568 253.252 32.6076 252.531 32.6076C251.089 32.6076 249.661 33.3691 248.247 34.8781V30.6555C248.75 30.3233 249.158 30.0602 249.471 29.8664C249.797 29.6726 250.164 29.4788 250.586 29.285C251.008 29.0912 251.497 28.9389 252.082 28.8005C252.653 28.662 253.279 28.5928 253.946 28.5928C255.02 28.5928 255.999 28.8143 256.87 29.2574C257.74 29.7004 258.448 30.3371 258.937 31.1816C259.441 32.0261 259.699 32.9952 259.699 34.1166C259.699 34.9057 259.59 35.6533 259.359 36.3317C259.128 37.0239 258.897 37.5777 258.652 37.993C258.407 38.4084 258.08 38.9344 257.672 39.5574C256.938 40.6649 256.163 41.7032 255.333 42.7139H261.032V46.7287L261.046 46.7149Z" fill="white"/>
<path d="M276.633 37.7854C276.633 39.3359 276.456 40.6927 276.089 41.8694C275.722 43.0462 275.219 44.0014 274.593 44.749C273.954 45.4966 273.219 46.0503 272.403 46.4103C271.587 46.7702 270.703 46.9641 269.778 46.9641C268.853 46.9641 267.982 46.7841 267.166 46.4103C266.35 46.0503 265.616 45.4828 264.99 44.7352C264.351 43.9876 263.861 43.0323 263.494 41.8694C263.127 40.7065 262.936 39.3498 262.936 37.7854C262.936 36.221 263.127 34.8504 263.494 33.6875C263.861 32.5246 264.364 31.5694 264.99 30.8079C265.616 30.0465 266.35 29.4927 267.166 29.1189C267.982 28.7451 268.867 28.5652 269.792 28.5652C270.716 28.5652 271.601 28.7451 272.417 29.105C273.233 29.465 273.967 30.0326 274.606 30.7941C275.246 31.5555 275.749 32.5246 276.116 33.6875C276.484 34.8504 276.66 36.221 276.66 37.7715L276.633 37.7854ZM271.614 37.7854C271.614 36.2071 271.505 34.9058 271.301 33.8813C271.084 32.8707 270.58 32.3585 269.764 32.3585C269.22 32.3585 268.799 32.6492 268.527 33.2168C268.255 33.7844 268.078 34.4351 268.023 35.1827C267.955 35.9303 267.928 36.7886 267.928 37.7854C267.928 39.4744 268.037 40.8034 268.241 41.7448C268.445 42.6862 268.962 43.1569 269.764 43.1569C270.567 43.1569 271.097 42.6862 271.301 41.7448C271.505 40.8034 271.614 39.4882 271.614 37.7854Z" fill="white"/>
<path d="M291.908 46.7149H278.551V46.3688C279.068 45.8565 279.639 45.2612 280.251 44.5552C280.863 43.8491 281.666 42.9077 282.631 41.7586C283.08 41.2325 283.502 40.7203 283.896 40.2081C284.291 39.6958 284.631 39.2113 284.903 38.7267C285.189 38.2422 285.42 37.7161 285.61 37.1485C285.801 36.567 285.896 35.9856 285.896 35.3765C285.896 34.5458 285.665 33.8813 285.189 33.369C284.713 32.8568 284.114 32.6076 283.393 32.6076C281.951 32.6076 280.523 33.3691 279.109 34.8781V30.6555C279.612 30.3233 280.02 30.0602 280.333 29.8664C280.659 29.6726 281.026 29.4788 281.448 29.285C281.87 29.0912 282.359 28.9389 282.944 28.8005C283.516 28.662 284.141 28.5928 284.808 28.5928C285.882 28.5928 286.862 28.8143 287.732 29.2574C288.603 29.7004 289.31 30.3371 289.8 31.1816C290.303 32.0261 290.561 32.9952 290.561 34.1166C290.561 34.9057 290.452 35.6533 290.221 36.3317C289.99 37.0239 289.759 37.5777 289.514 37.993C289.269 38.4084 288.943 38.9344 288.535 39.5574C287.8 40.6649 287.025 41.7032 286.195 42.7139H291.894V46.7287L291.908 46.7149Z" fill="white"/>
<path d="M306.434 41.1082C306.434 42.1327 306.203 43.0879 305.727 43.9878C305.251 44.8876 304.557 45.6075 303.605 46.1336C302.667 46.6735 301.511 46.9366 300.164 46.9366C299.09 46.9366 298.042 46.7981 297.063 46.5074C296.084 46.2167 295.159 45.7875 294.343 45.2199V41.3574C294.887 41.7727 295.648 42.188 296.628 42.6033C297.607 43.0187 298.464 43.2402 299.198 43.2402C300.055 43.2402 300.667 43.0049 301.007 42.548C301.347 42.0911 301.524 41.6066 301.524 41.122C301.524 40.7205 301.429 40.3329 301.225 39.973C301.021 39.613 300.667 39.3084 300.178 39.0731C299.688 38.8377 299.021 38.7131 298.178 38.7131C297.253 38.7131 296.369 38.8793 295.526 39.2254V28.7869H305.714V32.5524H299.43V35.6259C299.566 35.6121 299.702 35.5982 299.851 35.5843C300.001 35.5705 300.11 35.5567 300.164 35.5567C300.232 35.5567 300.354 35.5567 300.531 35.5567C301.715 35.5567 302.762 35.8059 303.646 36.3181C304.544 36.8303 305.224 37.4949 305.714 38.3394C306.19 39.1839 306.434 40.0976 306.434 41.0805V41.1082Z" fill="white"/>
<path d="M337.378 46.715H332.658L323.532 36.7471V46.715H318.281V28.8145H322.988L332.087 38.7269V28.8145H337.378V46.715Z" fill="white"/>
<path d="M360.719 46.715H355.291L353.863 43.0878H346.233L344.777 46.715H339.35L347.13 28.8145H352.993L360.746 46.715H360.719ZM352.639 39.9729L350.068 33.4384L347.471 39.9729H352.639Z" fill="white"/>
<path d="M383.501 46.715H378.197V36.3457L373.409 42.354H372.987L368.186 36.3457V46.715H363.031V28.8145H367.832L373.232 35.5289L378.659 28.8145H383.474V46.715H383.501Z" fill="white"/>
<path d="M406.515 46.715H401.224V39.7375H393.24V46.715H387.935V28.8145H393.24V35.3904H401.224V28.8145H406.515V46.715Z" fill="white"/>
<path d="M430.237 46.715H424.809L423.381 43.0878H415.751L414.295 46.715H408.868L416.648 28.8145H422.511L430.264 46.715H430.237ZM422.144 39.9729L419.573 33.4384L416.975 39.9729H422.144Z" fill="white"/>
<path d="M445.824 46.715H432.576V28.8145H445.62V32.4001H437.881V35.6811H445.266V39.2807H437.881V43.1017H445.838V46.7011L445.824 46.715Z" fill="white"/>
<path d="M470.334 46.715H457.086V28.8145H470.13V32.4001H462.391V35.6811H469.776V39.2807H462.391V43.1017H470.348V46.7011L470.334 46.715Z" fill="white"/>
<path d="M491.09 28.8281L483.161 46.9502H479.665L471.885 28.8281H477.407L481.433 39.1559L485.568 28.8281H491.104H491.09Z" fill="white"/>
<path d="M506.746 46.715H493.498V28.8145H506.542V32.4001H498.802V35.6811H506.188V39.2807H498.802V43.1017H506.759V46.7011L506.746 46.715Z" fill="white"/>
<path d="M529.393 46.715H524.673L515.546 36.7471V46.715H510.296V28.8145H515.002L524.102 38.7269V28.8145H529.393V46.715Z" fill="white"/>
<path d="M550.666 33.1752H544.218V46.7149H538.927V33.1752H532.48V28.8281H550.652V33.1752H550.666Z" fill="white"/>
<path d="M577.216 45.372C576.482 45.7596 575.747 46.0642 574.985 46.2996C574.224 46.5349 573.462 46.7011 572.687 46.798C571.911 46.8949 571.109 46.9502 570.279 46.9502C568.742 46.9502 567.382 46.7288 566.158 46.2996C564.947 45.8704 563.886 45.2336 563.002 44.3891C562.105 43.5446 561.438 42.5616 561.003 41.4403C560.554 40.3189 560.336 39.0867 560.336 37.7438C560.336 36.2071 560.595 34.8504 561.125 33.7013C561.656 32.5523 562.377 31.5831 563.329 30.8217C564.267 30.0603 565.342 29.4927 566.552 29.1189C567.763 28.759 569.028 28.5652 570.361 28.5652C572.36 28.5652 574.618 29.022 577.148 29.9219V34.6704C576.278 34.1167 575.421 33.6598 574.564 33.2999C573.72 32.9399 572.714 32.7461 571.558 32.7461C570.538 32.7461 569.572 32.9538 568.688 33.3691C567.804 33.7844 567.083 34.3659 566.539 35.1412C565.995 35.9026 565.723 36.8024 565.723 37.8269C565.723 38.7267 565.954 39.5574 566.43 40.305C566.906 41.0526 567.559 41.6617 568.402 42.1048C569.245 42.5478 570.198 42.7693 571.245 42.7693C572.102 42.7693 572.904 42.6585 573.666 42.4509C574.428 42.2432 575.067 42.0078 575.584 41.7448C576.101 41.4818 576.645 41.1772 577.189 40.8311V45.3581L577.216 45.372Z" fill="white"/>
<path d="M600.08 46.715H594.653L593.225 43.0878H585.595L584.139 46.715H578.712L586.492 28.8145H592.355L600.108 46.715H600.08ZM592.001 39.9729L589.43 33.4384L586.832 39.9729H592.001Z" fill="white"/>
<path d="M615.763 46.715H602.406V28.8145H607.711V42.4232H615.763V46.715Z" fill="white"/>
<path d="M632.112 46.715H618.864V28.8145H631.908V32.4001H624.169V35.6811H631.555V39.2807H624.169V43.1017H632.126V46.7011L632.112 46.715Z" fill="white"/>
<path d="M654.745 46.715H650.026L640.899 36.7471V46.715H635.649V28.8145H640.355L649.454 38.7269V28.8145H654.745V46.715Z" fill="white"/>
<path d="M677.229 38.09C677.229 39.9174 676.902 41.3988 676.249 42.5063C675.597 43.6138 674.821 44.5137 673.937 45.2059C672.672 46.2166 670.918 46.715 668.646 46.715H659.166V28.8145H666.47C667.572 28.8145 668.51 28.8698 669.285 28.9944C670.061 29.119 670.768 29.2713 671.394 29.4789C672.019 29.6866 672.55 29.922 672.985 30.185C673.42 30.4481 673.815 30.7249 674.168 31.0295C674.767 31.5279 675.297 32.1232 675.746 32.8016C676.195 33.48 676.562 34.269 676.821 35.1689C677.093 36.0688 677.215 37.0378 677.215 38.09H677.229ZM671.843 37.8547C671.843 36.401 671.57 35.2659 671.026 34.4491C670.482 33.6322 669.829 33.0922 669.054 32.8154C668.293 32.5385 667.504 32.4001 666.715 32.4001H664.457V43.0048H666.715C668.102 43.0048 669.299 42.6724 670.319 41.9941C671.339 41.3157 671.843 39.9451 671.843 37.8547Z" fill="white"/>
<path d="M698.692 46.715H693.265L691.837 43.0878H684.207L682.751 46.715H677.324L685.104 28.8145H690.967L698.72 46.715H698.692ZM690.613 39.9729L688.042 33.4384L685.444 39.9729H690.613Z" fill="white"/>
<path d="M718.047 46.715H712.348L710.961 43.5446C710.458 42.3817 709.995 41.5373 709.587 40.9973C709.179 40.4574 708.785 40.1113 708.404 39.959C708.023 39.8067 707.52 39.7375 706.908 39.7375H706.309V46.715H701.005V28.8145H710.022C711.478 28.8145 712.675 29.119 713.6 29.7143C714.525 30.3096 715.205 31.0433 715.613 31.9017C716.021 32.76 716.225 33.5769 716.225 34.3521C716.225 35.252 716.048 36.0272 715.708 36.6502C715.368 37.2732 715.001 37.7301 714.62 38.0069C714.239 38.2977 713.817 38.5607 713.341 38.8238C713.913 39.156 714.375 39.5575 714.742 40.0144C715.11 40.4712 715.613 41.4127 716.238 42.8109L718.02 46.7011L718.047 46.715ZM710.852 34.4767C710.852 33.646 710.58 33.0784 710.05 32.7462C709.519 32.4139 708.649 32.2478 707.452 32.2478H706.336V36.5672H707.479C708.771 36.5672 709.655 36.4287 710.131 36.138C710.607 35.8473 710.852 35.2935 710.852 34.4767Z" fill="white"/>
</svg>
