<svg width="924" height="407" viewBox="0 0 924 407" fill="none" xmlns="http://www.w3.org/2000/svg">
<mask id="mask0_145_995" style="mask-type:luminance" maskUnits="userSpaceOnUse" x="0" y="0" width="960" height="418">
<path d="M960 0H0V418H960V0Z" fill="white"/>
</mask>
<g mask="url(#mask0_145_995)">
<path d="M281.586 110.939C280.861 106.158 276.537 102.774 271.712 103.169C264.91 103.722 256.881 105.316 257.87 109.767C259.557 117.366 272.226 169.503 263.776 199.543C255.326 229.582 240.969 277.677 296.72 299.617C352.47 321.557 360.182 263.019 338.589 220.14C318.274 179.802 287.914 152.567 281.573 110.939H281.586Z" fill="#F4BC1B"/>
<path d="M247.152 216.399C244.502 237.168 242.762 286.895 283.168 304.16C286.753 305.688 287.32 311.469 284.064 313.563C270.842 322.018 243.883 331.342 223.673 286.842C207.169 250.495 227.127 218.454 240.851 210.737C244.001 208.959 247.666 212.291 247.139 216.413L247.152 216.399Z" fill="#F4BC1B"/>
<path d="M206.088 263.085C206.826 272.29 211.124 302.448 236.079 321.886C237.173 322.742 236.711 324.494 235.327 324.704C227.523 325.877 208.658 326.021 197.479 303.357C185.562 279.191 197.954 266.232 203.517 261.952C204.519 261.175 205.969 261.821 206.075 263.085H206.088Z" fill="#F4BC1B"/>
<path d="M300.134 320.148C298.183 316.263 304.827 314.814 308.228 314.393C313.132 313.813 318.247 313.971 323.165 313.313C329.637 312.575 335.662 310.258 341.199 306.965C345.905 304.279 350.044 300.644 353.393 296.048C355.726 293.598 362.66 279.454 365.996 282.497C368.171 285.117 366.958 290.78 365.613 294.507C363.148 301.092 358.771 307.137 353.604 311.878C342.148 322.242 326.671 326.351 311.564 324.784C307.635 324.309 302.243 323.203 300.187 320.214L300.147 320.161L300.134 320.148Z" fill="black" stroke="black" stroke-width="3.02" stroke-linecap="round" stroke-linejoin="round"/>
<path d="M270.605 91.7511H256.802L242.196 55.1271L255.234 58.4589L267.27 84.7845L268.548 72.4185L276.643 77.6467L270.605 91.7511Z" fill="black" stroke="black" stroke-width="3.02" stroke-linecap="round" stroke-linejoin="round"/>
<path d="M302.692 329.577L299.778 340.758L289.456 348.146" stroke="black" stroke-width="4.03" stroke-linecap="round" stroke-linejoin="round"/>
<path d="M315.914 331.684L313.673 344.63V350.819" stroke="black" stroke-width="4.03" stroke-linecap="round" stroke-linejoin="round"/>
<path d="M329.716 331.684L333.473 338.862L331.588 348.146" stroke="black" stroke-width="4.03" stroke-linecap="round" stroke-linejoin="round"/>
<path d="M344.35 326.627L349.728 337.163L354.487 339.915" stroke="black" stroke-width="4.03" stroke-linecap="round" stroke-linejoin="round"/>
<path d="M357.031 317.909L362.66 322.69" stroke="black" stroke-width="4.03" stroke-linecap="round" stroke-linejoin="round"/>
<path d="M365.758 310.31L372.785 312.839H383.212" stroke="black" stroke-width="4.03" stroke-linecap="round" stroke-linejoin="round"/>
<path d="M371.388 297.378L379.548 295.126L387.154 297.378" stroke="black" stroke-width="4.03" stroke-linecap="round" stroke-linejoin="round"/>
<path d="M659.697 142.611C660.277 138.766 663.77 136.027 667.659 136.343C673.143 136.791 679.616 138.068 678.812 141.663C677.454 147.787 667.237 189.824 674.04 214.042C680.855 238.261 692.43 277.031 647.489 294.718C602.549 312.404 596.327 265.205 613.741 230.649C630.114 198.134 654.595 176.18 659.697 142.625V142.611Z" fill="#F4BC1B"/>
<path d="M687.447 227.633C689.582 244.371 690.98 284.472 658.418 298.379C655.518 299.617 655.07 304.279 657.693 305.951C668.358 312.76 690.083 320.28 706.377 284.406C719.692 255.104 703.596 229.279 692.522 223.05C689.978 221.614 687.025 224.301 687.447 227.633Z" fill="#F4BC1B"/>
<path d="M720.562 265.258C719.969 272.672 716.502 296.983 696.385 312.654C695.502 313.339 695.884 314.762 696.991 314.933C703.279 315.881 718.492 316 727.496 297.734C737.107 278.256 727.114 267.813 722.632 264.362C721.828 263.743 720.654 264.257 720.575 265.271L720.562 265.258Z" fill="#F4BC1B"/>
<path d="M644.747 311.259C646.316 308.137 640.964 306.965 638.222 306.623C634.267 306.162 630.141 306.28 626.186 305.754C620.979 305.161 616.114 303.291 611.645 300.644C607.849 298.484 604.513 295.547 601.824 291.834C599.939 289.858 594.362 278.454 591.66 280.903C589.907 283.023 590.882 287.58 591.976 290.583C593.967 295.89 597.5 300.763 601.653 304.595C610.894 312.944 623.365 316.263 635.546 314.999C638.71 314.617 643.06 313.721 644.721 311.311L644.747 311.272V311.259Z" fill="black" stroke="black" stroke-width="3.02" stroke-linecap="round" stroke-linejoin="round"/>
<path d="M668.543 127.137H679.682L691.441 97.6116L680.935 100.298L671.232 121.514L670.204 111.545L663.678 115.772L668.543 127.137Z" fill="black" stroke="black" stroke-width="3.02" stroke-linecap="round" stroke-linejoin="round"/>
<path d="M642.678 318.857L645.024 327.878L653.343 333.831" stroke="black" stroke-width="4.03" stroke-linecap="round" stroke-linejoin="round"/>
<path d="M632.013 320.569L633.832 330.999V335.978" stroke="black" stroke-width="4.03" stroke-linecap="round" stroke-linejoin="round"/>
<path d="M620.887 320.569L617.868 326.351L619.384 333.831" stroke="black" stroke-width="4.03" stroke-linecap="round" stroke-linejoin="round"/>
<path d="M609.088 316.487L604.764 324.981L600.915 327.194" stroke="black" stroke-width="4.03" stroke-linecap="round" stroke-linejoin="round"/>
<path d="M598.871 309.454L594.336 313.313" stroke="black" stroke-width="4.03" stroke-linecap="round" stroke-linejoin="round"/>
<path d="M591.845 303.331L586.163 305.372H577.766" stroke="black" stroke-width="4.03" stroke-linecap="round" stroke-linejoin="round"/>
<path d="M587.297 292.901L580.718 291.083L574.588 292.901" stroke="black" stroke-width="4.03" stroke-linecap="round" stroke-linejoin="round"/>
<path d="M635.981 93.292C633.291 90.0128 629.758 88.0242 625.935 86.4307C623.839 85.5615 621.704 84.8372 619.779 85.0611C616.114 85.1138 613.016 85.8381 610.274 87.6686C607.598 89.4465 606.807 92.2253 607.98 95.2015C608.125 95.5834 608.297 95.9522 608.415 96.3473C608.719 97.2691 609.312 97.7432 610.287 97.9803C612.41 98.5071 614.48 99.0733 616.378 100.39C618.342 101.747 620.649 102.458 623.167 102.102C627.768 101.457 631.868 99.4552 635.954 97.4008C636.192 97.2823 636.416 97.0848 636.574 96.874C636.732 96.6633 636.943 96.3473 636.877 96.1497C636.574 95.2015 636.732 94.1875 635.994 93.292H635.981Z" fill="white"/>
<path d="M646.132 89.1962C646.197 88.3007 645.354 87.0891 644.536 87.234C643.693 87.3789 643.403 86.9969 642.862 86.5755C642.084 85.9566 641.188 85.4298 640.173 85.1927C639.975 85.7985 639.817 86.3648 639.593 86.9048C639.197 87.8793 639.382 89.6572 640.173 89.8284C641.847 90.1971 642.216 91.6062 642.823 92.6993C643.561 94.0426 644.47 94.4772 645.841 94.2533C646.224 93.5948 645.38 92.7915 645.907 92.4622C647.094 91.7248 646.593 91.1321 646.039 90.3683C645.789 90.0127 646.079 89.5782 646.105 89.1831L646.132 89.1962ZM642.018 88.1559C642.792 88.2963 643.214 88.7397 643.284 89.486C642.585 89.3016 642.717 88.4851 642.018 88.1559Z" fill="white"/>
<path d="M633.569 82.9409C633.687 82.9145 634.017 82.8487 634.346 82.7697C635.427 82.5458 635.678 81.782 635.678 80.8206C635.678 79.7407 634.847 79.9909 634.241 79.8724C633.977 79.8197 633.714 79.7407 633.45 79.7012C632.448 79.53 631.578 79.9251 631.486 80.5835C631.301 81.8083 632.184 82.9409 633.582 82.9409H633.569Z" fill="white"/>
<path d="M624.011 80.3596C624.999 81.3341 624.986 81.3473 625.909 80.3991C626.094 80.2016 626.291 80.0172 626.489 79.8196C626.845 79.4377 627.03 78.7793 626.621 78.5949C626.225 78.4237 625.804 78.0023 625.21 78.213C624.406 78.4895 623.879 79.0558 623.338 79.5826C623.444 80.0172 623.787 80.1225 624.024 80.3464L624.011 80.3596Z" fill="white"/>
<path d="M643.983 97.0452C642.836 98.0592 642.889 98.7309 644.286 100.298C646.105 98.5333 646.066 98.5597 645.394 97.2427C644.958 96.3999 644.523 96.5579 643.983 97.032V97.0452Z" fill="white"/>
<path d="M637.919 84.5211C637.642 84.4816 637.378 84.587 637.286 84.8635C637.181 85.1927 637.444 85.3113 637.695 85.3508C637.734 85.3508 637.774 85.3508 637.8 85.3508C637.932 85.3508 638.037 85.2849 638.103 85.1927C638.156 85.1137 638.182 85.0215 638.196 84.9162C638.222 84.6923 638.117 84.5474 637.906 84.5079L637.919 84.5211Z" fill="#32BAD4"/>
<path d="M637.919 84.5211C638.13 84.5475 638.235 84.7055 638.209 84.9294C638.196 85.0347 638.156 85.1269 638.117 85.2059C638.169 85.1269 638.196 85.0347 638.209 84.9294C638.235 84.7055 638.13 84.5606 637.919 84.5211Z" fill="#32BAD4"/>
<path d="M638.117 83.7178C638.117 83.7178 637.998 83.7441 637.932 83.7441C637.972 83.7705 638.011 83.81 638.051 83.8231C638.104 83.8231 638.183 83.8495 638.235 83.8231C638.354 83.7836 638.301 83.7309 638.117 83.7178Z" fill="#32BAD4"/>
<path d="M570.291 85.127C570.95 85.0479 571.556 84.6397 572.189 84.3763C572.848 84.0997 573.27 83.7047 573.375 82.8882C573.52 81.8214 573.744 80.7547 574.285 79.7538C574.641 79.0954 574.087 78.3974 573.52 78.0023C571.912 76.8829 570.119 76.1059 568.142 76.58C566.705 76.9224 565.215 77.515 564.622 79.069C564.213 80.1489 564.081 81.3605 563.435 82.3219C562.763 83.3096 563.581 84.4948 562.434 85.6801C565.426 85.7196 567.865 85.4298 570.291 85.127Z" fill="white"/>
<path d="M579.321 78.0682C579.888 76.3298 579.057 74.0779 577.831 73.5379C577.12 73.2219 576.46 73.1955 575.749 74.091C578.359 74.17 578.148 76.5405 579.321 78.0814V78.0682Z" fill="white"/>
<path d="M678.496 62.9497C678.496 62.0937 678.351 61.106 677.916 60.3948C677.388 59.5256 677.428 58.7487 677.652 57.9058C677.784 57.4185 677.784 56.9444 677.705 56.4835C677.032 53.0595 677.138 49.5696 676.953 46.106C676.756 42.3396 676.439 38.6785 675.24 35.0701C674.791 33.7268 674.304 32.3177 674.145 30.8164C673.987 29.3151 673.328 27.8401 672.194 26.6944C672.194 26.7075 672.194 26.7207 672.207 26.7339C672.207 26.7339 672.194 26.7075 672.181 26.6944C672.142 26.5758 672.089 26.4836 672.01 26.431C671.562 25.7066 671.087 25.0218 670.125 24.7189C669.663 24.5741 669.281 24.0473 669.109 23.3362C668.925 22.5855 668.464 21.769 667.448 21.4924C666.684 21.2817 666.025 20.7155 665.313 20.3204C665.076 20.1887 664.68 19.9516 664.838 19.7936C665.524 19.1615 664.944 19.0429 664.522 18.9376C662.821 18.5425 661.108 18.1869 659.394 17.8182C658.932 17.7128 658.458 17.5153 657.996 17.5285C654.266 17.6997 650.627 18.2659 647.16 19.7804C643.97 21.1764 640.753 22.5065 637.84 24.4556C635.744 25.8647 633.608 27.2738 631.934 29.157C630.563 30.6978 629.086 32.1728 627.729 33.7268C626.265 35.3862 625.25 37.4669 623.365 38.7575C623.259 38.8234 623.207 38.9814 623.141 39.0999C621.058 42.7083 618.171 45.7373 615.943 49.2404C614.888 50.8997 613.596 52.4273 612.581 54.1262C611.579 55.7987 610.156 57.2342 609.721 59.2359C609.642 59.5915 609.286 59.9734 608.956 60.1709C607.756 60.9084 607.374 62.1859 606.728 63.2789C606.53 63.6213 606.596 64.0559 606.201 64.3456C604.448 65.5967 603.828 67.6512 603.103 69.4554C601.706 72.8531 600.11 76.1718 598.66 79.5431C598.212 80.5835 597.83 81.7951 597.078 82.7038C596.485 83.4281 596.208 84.2314 595.997 85.0874C595.101 88.8275 595.365 92.5545 596.235 96.2419C596.551 97.572 597.237 98.7836 598.463 99.5738C599.082 99.982 599.754 100.417 600.203 100.983C601.666 102.827 603.736 103.656 605.766 104.618C607.691 105.54 609.747 106.014 611.711 106.817C615.165 108.226 618.764 109.187 622.416 110.017C624.433 110.478 626.476 110.425 628.493 110.741C632.408 111.36 636.205 110.965 640.068 110.228C646.185 109.069 651.721 106.646 657.087 103.604C658.484 102.813 659.473 101.641 660.817 100.825C663.599 99.126 666.275 97.256 668.345 94.6484C668.819 94.0426 669.03 93.3446 669.531 92.7784C672.194 89.7231 674.145 86.2332 675.516 82.4536C676.676 79.2797 677.283 75.9479 678.034 72.6555C678.773 69.3764 678.509 66.1498 678.509 62.897L678.496 62.9497ZM631.472 80.5835C631.578 79.925 632.435 79.53 633.437 79.7012C633.7 79.7407 633.964 79.8197 634.228 79.8724C634.834 79.9909 635.665 79.7407 635.665 80.8205C635.665 81.7951 635.401 82.5457 634.333 82.7696C634.004 82.8355 633.674 82.9145 633.555 82.9408C632.171 82.9408 631.275 81.7951 631.459 80.5835H631.472ZM625.197 78.213C625.791 78.0023 626.212 78.4237 626.608 78.5949C627.017 78.7793 626.832 79.4246 626.476 79.8197C626.292 80.0172 626.094 80.2016 625.896 80.3991C624.973 81.3473 624.986 81.3342 623.998 80.3596C623.76 80.1357 623.418 80.0304 623.312 79.5958C623.853 79.069 624.38 78.5027 625.184 78.2262L625.197 78.213ZM636.561 96.874C636.403 97.0847 636.179 97.2823 635.941 97.4008C631.855 99.4421 627.768 101.444 623.154 102.102C620.636 102.458 618.329 101.747 616.365 100.39C614.467 99.0865 612.397 98.5202 610.274 97.9803C609.299 97.73 608.706 97.2691 608.402 96.3473C608.284 95.9654 608.112 95.5834 607.967 95.2015C606.794 92.2121 607.585 89.4465 610.261 87.6686C613.003 85.8513 616.088 85.1138 619.766 85.0611C621.704 84.824 623.84 85.5615 625.922 86.4307C629.745 88.011 633.278 89.9996 635.968 93.292C636.706 94.1875 636.548 95.2015 636.851 96.1497C636.917 96.3473 636.706 96.6633 636.548 96.874H636.561ZM638.117 85.1928C638.051 85.285 637.945 85.3508 637.813 85.3508C637.774 85.3508 637.747 85.3508 637.708 85.3508C637.444 85.3113 637.181 85.1928 637.299 84.8636C637.392 84.587 637.642 84.4816 637.932 84.5211C638.143 84.5475 638.248 84.7055 638.222 84.9294C638.209 85.0348 638.169 85.1269 638.13 85.206L638.117 85.1928ZM638.235 83.8232C638.235 83.8232 638.117 83.8232 638.051 83.8232C638.011 83.8232 637.972 83.7705 637.932 83.7442C637.998 83.7442 638.051 83.7047 638.117 83.7178C638.314 83.7178 638.354 83.7837 638.235 83.8232ZM644.286 100.298C642.889 98.7178 642.836 98.0593 643.983 97.0452C644.523 96.558 644.959 96.4131 645.394 97.256C646.066 98.5729 646.119 98.5465 644.286 100.311V100.298ZM645.934 92.4755C645.407 92.8047 646.25 93.608 645.868 94.2665C644.497 94.4904 643.601 94.0426 642.849 92.7125C642.243 91.6063 641.861 90.1972 640.199 89.8416C639.409 89.6704 639.224 87.8925 639.619 86.918C639.844 86.378 639.989 85.8117 640.199 85.206C641.215 85.443 642.098 85.9698 642.889 86.5887C643.416 87.0102 643.719 87.3921 644.563 87.2472C645.38 87.1023 646.224 88.3139 646.158 89.2094C646.132 89.6045 645.829 90.0391 646.092 90.3947C646.646 91.1585 647.147 91.7512 645.96 92.4886L645.934 92.4755ZM671.707 26.3651C671.772 26.3651 671.838 26.3651 671.891 26.3651C671.838 26.3651 671.772 26.352 671.707 26.3651Z" fill="#151515"/>
<path d="M557.846 93.9372C558.874 94.4113 559.692 95.5702 560.97 95.3595C562.025 95.1883 563.093 95.2146 564.134 94.8986C565.36 94.5298 566.613 94.2138 567.931 94.2401C570.462 94.2796 572.914 93.5948 575.221 92.7124C578.345 91.5404 581.087 89.6045 583.75 87.5896C587.02 85.1137 590.183 82.5325 591.976 78.687C592.899 76.7116 594.02 74.8679 594.784 72.8003C595.681 70.364 596.287 67.8618 597.065 65.3991C597.843 62.9628 598.489 60.4606 598.489 57.8267C598.489 56.1015 598.344 54.4027 598.331 52.7038C598.317 50.847 597.922 49.1876 597.263 47.5151C597.263 47.5151 597.276 47.5151 597.289 47.5151C596.735 45.9611 596.524 44.1832 595.351 42.9717C592.701 40.2193 590.632 36.782 586.782 35.3729C586.664 35.3334 586.532 35.2412 586.466 35.1227C585.596 33.7136 583.974 33.3975 582.669 32.6732C580.046 31.2246 577.067 31.6723 574.298 32.0016C572.255 32.2518 570.146 33.3317 568.893 35.07C567.272 37.322 565.703 39.653 564.727 42.3C563.106 46.7118 561.88 51.2684 560.034 55.6011C559.257 57.4185 558.676 59.328 558.215 61.2376C556.778 67.1243 555.407 73.0242 554.076 78.9373C553.627 80.9258 553.14 82.8881 553.192 84.982C553.258 87.2472 554.062 89.2621 554.959 91.2111C555.486 92.37 556.488 93.3051 557.846 93.924V93.9372ZM577.831 73.5378C579.057 74.0778 579.888 76.3297 579.321 78.0681C578.148 76.5273 578.345 74.1568 575.748 74.0778C576.46 73.1822 577.119 73.2086 577.831 73.5247V73.5378ZM563.435 82.3218C564.095 81.3473 564.213 80.1488 564.622 79.069C565.215 77.5281 566.705 76.9355 568.142 76.5799C570.119 76.1059 571.912 76.8828 573.52 78.0022C574.074 78.3973 574.641 79.0953 574.285 79.7538C573.744 80.7546 573.52 81.8214 573.375 82.8881C573.257 83.6914 572.848 84.0997 572.189 84.3762C571.556 84.6396 570.95 85.0479 570.291 85.1269C567.865 85.4298 565.426 85.7195 562.434 85.68C563.581 84.4947 562.776 83.3095 563.435 82.3218Z" fill="#151515"/>
<path d="M642.019 88.1559C642.717 88.4851 642.585 89.3016 643.284 89.486C643.214 88.7397 642.792 88.2964 642.019 88.1559Z" fill="#151515"/>
<g filter="url(#filter0_d_145_995)">
<path d="M681.093 219.481L673.552 208.709L662.676 195.934L646.764 185.912L634.28 188.138L621.915 187.124L617.683 186.36L614.546 184.767L621.967 174.376L627.728 159.942L627.135 134.604L607.269 129.692H586.664L569.249 133.485L561.616 131.193L557.477 121.685L548.223 105.487L521.461 105.263L511.996 117.247L505.8 126.624L493.817 124.978L472.21 123.674L445.897 126.992L427.52 125.465L421.193 112.335L402.038 98.9285L381.934 119.71L377.874 129.179L370.109 130.614L360.169 129.126L334.502 128.981L314.86 136.422L320.159 167.304L329.677 176.694L329.268 181.145L318.933 183.753L301.387 197.343L291.368 217.255L291.091 240.355L297.748 265.126L311.735 286.671L335.161 305.688L351.785 316.368L372.034 326.285L380.813 331.395L376.845 344.814L367.077 360.275L357.269 363.897L333.803 377.079L329.057 398.69L345.866 403.352L370.03 403.444L392.085 403.128L416.961 401.179L428.997 400.876L440.914 397.637L463.918 397.821L486.909 398.282L509.887 398.348L521.053 399.243L535.699 397.558L542.528 403.536L561.603 385.323L579.637 366.083L595.206 346.987L611.487 328.497L626.7 309.112L636.891 291.913L647.635 275.069L661.477 260.412L680.987 243.831L681.501 219.455L681.132 219.507L681.093 219.481ZM594.745 218.032L580.89 237.378L571.332 246.531L571.306 247.176L572.084 245.675L577.291 238.326L579.202 229.832L579.69 216.36L582.037 197.673L595.602 192.958L598.238 197.554L595.813 205.482L594.112 217.769L594.745 218.032Z" fill="white"/>
<path d="M557.965 273.436C557.609 273.12 557.226 272.725 557.121 272.29C556.804 270.96 555.776 270.315 554.787 269.591C553.192 268.419 553.166 268.34 554.181 266.469C554.313 266.232 554.379 265.969 554.471 265.706C555.974 261.189 557.213 256.632 557.754 251.865C558.255 247.387 558.479 242.909 558.558 238.419C558.584 237.273 558.136 236.772 557.16 236.562C555.763 236.259 554.366 235.943 552.942 235.719C549.765 235.232 546.588 234.744 543.371 234.85C539.548 234.968 535.751 234.679 531.955 234.336C528.896 234.06 525.838 233.783 522.78 233.441C522.015 233.362 521.527 233.559 521.408 234.27C521.224 235.377 520.473 236.219 520.103 237.207C519.022 240.078 516.781 241.988 514.448 243.476C510.783 245.807 506.855 247.822 502.742 249.283C499.288 250.508 495.715 251.167 491.958 250.429C487.489 249.547 482.809 249.613 478.656 247.308C477.536 246.689 476.336 246.215 475.308 245.412C473.924 244.319 472.606 243.028 471.037 242.317C469.732 241.724 468.717 240.934 467.807 239.92C465.948 237.879 464.511 235.627 463.865 232.888C463.523 231.426 463.219 231.36 461.875 231.439C459.027 231.597 456.167 231.86 453.332 231.808C448.745 231.715 444.183 232.137 439.622 232.492C436.775 232.716 433.927 233.046 431.053 233.217C428.535 233.362 426.004 233.375 423.513 233.862C421.443 234.27 419.347 234.639 417.251 234.889C411.042 235.666 404.872 236.733 398.808 238.195C393.667 239.433 388.433 240.249 383.358 241.803C380.985 242.528 378.546 243.212 376.054 243.581C375.408 243.673 374.815 243.844 374.986 244.727C375.092 245.267 374.855 245.78 374.841 246.32C374.815 247.677 375.184 249.046 374.96 250.35C374.393 253.616 374.921 256.764 375.804 259.858C377.307 265.1 378.005 270.552 380.312 275.57C380.563 276.123 380.642 276.755 380.747 277.361C380.853 277.914 380.747 278.427 380.418 278.915C379.337 280.455 377.003 280.929 375.356 279.929C373.497 278.809 372.548 276.979 371.664 275.148C370.438 272.646 369.674 269.973 368.79 267.339C367.169 262.466 365.917 257.554 366.787 252.326C366.998 251.061 366.813 249.744 366.813 248.335C366.365 248.48 366.273 248.836 366.075 249.086C363.689 252.102 361.092 254.841 357.585 256.658C354.303 258.357 350.941 259.819 347.513 261.189C345.285 262.071 343.189 262.045 340.988 261.333C338.457 260.53 335.912 259.74 333.342 259.042C328.701 257.778 324.694 255.578 321.293 252.062C320.014 250.732 319.487 249.468 319.487 247.782C319.487 247.005 320.699 245.477 321.424 245.596C323.217 245.859 325.116 245.938 326.315 247.664C327.858 249.889 330.125 251.074 332.564 252.115C335.398 253.326 338.523 253.642 341.278 255.052C342.596 255.723 344.033 254.485 345.378 255.236C345.997 254.34 347.157 254.564 347.988 253.932C349.201 253.01 350.664 252.405 352.141 251.838C353.301 251.391 354.593 251.088 355.647 250.376C356.82 249.586 357.888 248.612 358.969 247.677C361.052 245.873 362.95 243.95 364.058 241.329C364.836 239.472 365.706 237.629 366.8 235.943C368.052 233.994 369.265 232.097 369.687 229.74C370.623 224.604 370.412 219.547 368.764 214.622C367.762 211.619 365.877 209.025 364.032 206.483C361.856 203.493 359.193 200.965 355.832 199.266C355.476 199.082 355.159 198.845 354.83 198.608C351.561 196.224 347.988 194.63 343.862 194.604C341.199 194.591 338.549 194.499 335.886 194.867C330.877 195.579 325.907 196.342 321.253 198.555C316.784 200.675 313.383 203.954 310.773 208.05C309.059 210.75 307.596 213.621 306.093 216.465C305.368 217.848 304.63 219.27 304.326 220.811C303.509 224.986 303.232 229.2 303.39 233.454C303.43 234.534 303.127 235.666 303.324 236.707C304.339 241.856 304.92 247.071 306.238 252.167C307.991 258.963 310.905 265.113 315.505 270.447C316.929 272.093 318.102 273.937 319.368 275.701C320.95 277.914 322.769 279.994 324.72 281.891C326.368 283.511 328.332 284.801 330.178 286.21C332.564 288.041 334.871 289.95 337.56 291.373C340.091 292.716 342.491 294.283 344.758 296.087C347.421 298.208 350.44 299.762 353.577 301.131C358.02 303.08 362.305 305.359 366.734 307.321C369.16 308.401 371.427 309.797 373.919 310.758C376.384 311.706 378.823 312.865 381.077 314.248C382.672 315.236 384.32 315.96 386.06 316.553C388.71 317.448 391.425 318.238 393.943 319.371C397.397 320.925 400.891 322.413 404.384 323.809C408.669 325.521 413.111 326.891 417.659 327.891C422.26 328.906 426.874 329.841 431.501 330.71C434.415 331.263 437.355 331.013 440.281 331.381C446.517 332.172 452.831 332.211 459.119 332.277C462.732 332.316 466.37 332.422 469.969 332.158C472.961 331.948 475.954 331.75 478.946 331.526C481.662 331.316 484.404 331.144 487.107 330.868C489.954 330.565 492.815 330.473 495.662 330.157C499.195 329.775 502.728 329.353 506.222 328.734C511.732 327.76 517.124 326.193 522.516 324.678C524.177 324.217 525.851 323.73 527.644 323.559C528.804 323.44 530.228 323.177 531.375 322.215C532.535 321.241 534.038 320.293 535.475 320.122C537.808 319.858 539.495 318.91 540.88 317.158C541.222 316.724 541.657 316.329 542.198 316.21C542.844 316.065 543.266 315.71 543.688 315.236C544.993 313.787 547.141 313.326 548.117 311.482C548.143 311.43 548.222 311.39 548.288 311.364C551.03 310.468 552.23 307.769 554.326 306.122C554.88 305.688 555.157 304.911 556 304.753C556.251 304.7 556.567 304.279 556.62 303.989C556.91 302.356 558.11 301.263 558.927 299.946C560.417 297.536 561.339 294.876 561.946 292.163C562.789 288.37 562.13 284.551 561.695 280.758C561.353 277.887 560.232 275.385 558.004 273.423L557.965 273.436ZM460.042 287.106C458.566 288.344 456.997 288.739 455.112 288.607C450.234 288.278 446.899 285.763 444.566 281.614C443.432 279.599 442.918 277.44 442.654 275.201C442.272 271.79 442.166 268.353 442.654 264.968C443.274 260.596 445.699 257.119 448.955 254.222C451.104 252.299 453.424 250.679 456.219 249.718C458.764 248.849 460.741 247.203 461.624 244.516C461.717 244.253 461.848 244.016 461.98 243.779C462.718 242.356 464.155 242.132 465.078 242.475C465.764 242.725 466.159 244.319 465.75 245.398C465.289 246.61 464.722 247.769 464.169 249.007C464.92 249.665 465.816 249.626 466.673 249.731C467.728 249.85 470.114 251.68 470.035 252.576C469.995 253.024 470.061 253.59 469.837 253.998C469.705 254.222 469.244 254.275 468.927 254.367C467.411 254.854 465.895 254.828 464.3 254.749C461.229 254.604 458.144 254.894 455.31 256.988C457.142 257.804 458.434 258.989 459.726 260.161C462.046 262.268 463.193 265.06 463.839 267.997C464.459 270.855 464.854 273.792 464.617 276.742C464.287 280.706 463.312 284.38 460.042 287.106ZM511.165 297.707C511.113 299.511 510.73 301.263 510.084 302.949C509.702 303.963 509.781 305.108 509.188 306.07C508.463 307.268 508.028 308.691 506.565 309.296C506.393 309.375 506.169 309.52 506.116 309.691C505.602 311.351 504.033 311.93 502.847 312.918C499.327 315.881 495.122 317.119 490.692 317.725C489.756 317.856 488.781 318.028 487.911 318.265C485.63 318.87 483.442 318.331 481.227 318.08C480.528 318.001 479.882 317.777 479.289 317.145C478.67 316.474 477.575 316.052 476.6 316.632C476.165 316.882 475.849 316.763 475.453 316.763C473.963 316.777 473.238 314.564 471.485 315.42C470.061 314.762 468.664 314.05 467.372 313.168C466.265 312.417 465.632 311.259 464.841 310.231C462.771 307.518 461.387 304.529 461.361 301.039C461.361 299.353 461.664 297.852 462.837 296.496C465.605 293.296 468.901 291.228 473.172 290.556C478.366 289.74 483.376 289.792 488.016 292.611C488.715 293.032 489.137 292.861 489.625 292.426C490.284 291.834 490.903 291.188 491.615 290.662C493.817 289.015 496.308 288.159 499.064 288.186C502.082 288.212 505.009 288.568 507.751 289.99C509.531 290.912 510.678 292.176 510.717 294.283C510.744 295.442 511.35 296.535 511.152 297.734L511.165 297.707ZM534.288 253.182C533.576 253.484 532.785 254.13 531.902 253.748C530.346 253.063 528.791 253.563 527.249 253.722C526.313 253.814 525.363 253.932 524.441 254.103C523.294 254.301 523.201 254.815 524.045 255.697C527.248 259.042 529.582 262.861 530.716 267.391C531.309 269.735 530.992 272.066 530.452 274.279C529.661 277.545 528.303 280.627 525.587 282.892C525.021 283.366 524.599 284.011 524.098 284.564C522.753 286.052 521.606 286.355 519.747 285.697C519.431 285.578 519.075 285.341 518.785 285.394C516.175 285.907 514.619 284.011 512.879 282.72C511.047 281.364 509.873 279.481 509.425 277.11C509.017 274.99 507.975 272.988 508.292 270.921C508.239 268.195 508.634 265.679 508.924 263.19C509.228 260.53 510.467 258.107 512.26 255.881C514.448 253.168 517.15 251.417 520.222 250.008C521.29 249.52 521.989 248.533 522.74 247.65C523.755 246.452 524.717 245.201 525.838 244.121C526.405 243.568 527.051 242.883 528.158 243.37C529.173 243.805 529.041 244.635 529.213 245.398C529.279 245.662 529.265 245.952 529.2 246.215C528.975 247.15 529.45 247.506 530.281 247.479C531.678 247.453 532.746 248.177 533.827 248.928C534.605 249.468 535 250.179 534.987 251.18C534.987 251.97 534.974 252.892 534.301 253.182H534.288Z" fill="#32BAD4"/>
<path d="M451.447 224.854C454.769 224.63 458.078 224.051 461.426 224.077C462.494 224.077 462.877 223.564 462.995 222.629C463.127 221.549 463.219 220.456 463.43 219.389C464.366 214.793 465.737 210.434 469.521 207.234C470.483 206.417 471.683 206.154 472.645 205.443C474.675 203.954 476.916 204.402 479.105 204.679C480.37 204.837 481.689 205.113 482.756 205.93C485.063 207.708 486.171 212.172 484.984 214.898C484.101 216.939 483.64 219.086 483.574 221.272C483.508 224.011 484.338 226.382 486.896 227.844C487.186 228.015 487.489 228.199 487.726 228.436C489.493 230.082 491.457 231.32 493.883 231.794C497.165 232.44 501.028 230.372 502.254 227.277C503.243 224.775 503.691 222.181 503.862 219.507C503.954 218.085 503.954 216.755 503.704 215.293C503.19 212.291 502.86 209.104 505.971 206.983C506.248 206.799 506.525 206.549 506.683 206.259C507.092 205.495 507.738 205.285 508.542 205.258C509.083 205.232 509.61 205.008 510.15 204.982C513.051 204.824 515.911 204.771 517.915 207.497C518.35 208.076 519.009 208.524 519.642 208.932C522.74 210.921 524.902 213.542 525.232 217.348C525.495 220.39 525.429 223.406 524.599 226.395C525.377 226.935 526.26 226.974 527.143 227.067C528.765 227.251 530.386 227.435 532.008 227.672C533.51 227.883 533.787 227.646 533.339 226.197C532.64 223.985 531.902 221.786 531.137 219.586C529.226 214.148 526.339 209.262 522.74 204.771C521.949 203.783 520.802 203.296 520.024 202.361C518.021 199.951 515.595 198.12 512.708 196.896C512.141 196.659 511.6 196.329 511.113 195.974C509.32 194.709 507.369 193.735 505.273 193.129C498.681 191.233 492.011 191.009 485.248 192.273C483.244 192.642 481.28 193.208 479.237 193.419C478.511 193.498 477.483 193.208 476.969 194.012C476.389 194.933 475.558 194.973 474.649 194.907C473.924 194.854 473.067 195.039 472.83 195.605C472.461 196.487 471.722 196.553 471.09 196.869C465.764 199.529 460.636 202.335 457.116 207.484C454.756 210.934 451.948 215.293 449.905 220.35C449.746 220.732 449.562 221.114 449.153 221.272C448.837 221.391 448.718 221.641 448.771 221.904C448.969 222.931 448.31 223.788 448.072 224.788C449.298 224.749 450.379 224.894 451.473 224.815L451.447 224.854Z" fill="white"/>
<path d="M545.388 150.052C545.441 144.955 545.454 139.846 545.388 134.749C545.362 132.853 545.243 130.943 545.059 129.047C544.861 126.953 543.595 125.61 542.541 124.082C541.526 122.607 540.84 121 540.339 119.302C539.983 118.09 539.588 116.878 538.309 116.207C537.861 115.97 537.439 115.443 537.294 114.969C536.991 114.021 536.358 113.915 535.54 113.994C533.418 114.192 531.625 115.035 530.373 116.786C529.819 117.563 529.292 118.34 528.633 119.038C526.207 121.553 523.992 124.201 522.845 127.598C522.371 128.994 521.58 130.298 520.921 131.628C519.602 134.275 518.535 137.054 517.256 140.043C526.906 144.034 536.331 148.116 544.94 154.451C545.124 152.765 545.401 151.422 545.414 150.065L545.388 150.052Z" fill="white"/>
<path d="M394.682 149.841C394.774 150.289 394.879 150.724 395.011 151.145C395.09 151.395 395.169 151.646 395.275 151.869C395.314 151.948 395.341 152.041 395.38 152.12C395.473 152.317 395.565 152.502 395.683 152.686C396.039 153.279 396.527 153.805 397.199 154.227C398.953 153.213 400.719 152.225 402.473 151.211C403.053 150.869 403.646 150.526 404.213 150.184C408.102 147.826 412.149 145.706 416.354 143.915C417.448 143.454 417.554 142.809 417.29 141.861C416.789 140.017 416.301 138.173 415.774 136.33C415.128 134.038 414.443 131.799 413.428 129.6C412.531 127.664 411.49 125.755 410.91 123.608C410.448 121.935 409.499 120.329 408.194 118.906C406.612 117.168 404.872 115.535 403.527 113.546C402.407 111.874 400.021 112.019 398.61 113.546C397.74 114.495 396.857 115.456 395.868 116.273C395.328 116.72 395.156 117.234 395.011 117.827C394.418 120.105 395.156 122.581 393.996 124.78C394.827 126.466 393.785 128.138 393.957 129.837C394.128 131.523 393.983 133.248 393.97 134.96C393.917 139.938 393.627 144.916 394.682 149.868V149.841Z" fill="white"/>
<path d="M395.38 152.12C395.341 152.041 395.301 151.962 395.275 151.87C395.314 151.949 395.341 152.041 395.38 152.12Z" fill="white"/>
<path d="M469.231 225.789C470.259 229.661 471.67 233.335 474.28 236.47C476.337 238.959 478.696 240.908 481.979 241.553C482.664 241.685 483.363 242.04 484.022 242.409C488.544 244.911 493.329 245.398 498.273 243.91C501.779 242.857 505.537 242.435 508.424 239.801C508.911 239.367 509.636 239.196 510.243 238.893C510.546 238.748 510.915 238.656 511.126 238.419C511.943 237.497 512.827 236.601 513.446 235.561C514.026 234.586 515.094 234.165 515.49 232.874C516.202 230.583 516.927 228.252 518.1 226.066C519.247 223.945 519.339 221.43 519.3 219.06C519.26 216.61 518.996 214.095 516.188 212.936C515.371 212.593 514.633 212.08 513.829 211.711C512.207 210.947 510.559 212.001 510.638 213.752C510.691 214.911 510.717 216.097 510.968 217.216C511.996 221.615 510.375 225.565 508.318 229.121C506.618 232.058 504.034 234.507 500.619 235.916C497.086 237.378 493.672 237.773 490.165 236.101C489.664 235.864 489.163 235.719 488.636 235.574C486.804 235.06 484.932 234.586 483.178 233.849C481.768 233.256 480.278 232.506 480.595 230.464C480.647 230.135 480.357 229.701 480.015 229.74C479.079 229.885 479.013 229.108 478.854 228.621C478.274 226.856 477.734 225.065 477.8 223.155C477.839 222.194 477.905 221.233 477.444 220.337C476.93 219.363 476.983 218.401 477.338 217.374C477.813 215.952 478.195 214.49 478.578 213.041C478.736 212.422 478.723 211.843 477.971 211.514C474.293 209.946 470.497 212.607 469.837 215.543C469.323 217.901 468.704 220.311 468.822 222.826C468.611 223.84 468.928 224.828 469.191 225.816L469.231 225.789Z" fill="white"/>
<path d="M644.945 232.914C644.273 230.859 643.231 229.068 641.518 227.962C639.184 226.461 636.877 224.841 634.201 223.919C632.514 223.34 630.787 222.997 629.297 222.879C625.724 222.839 622.956 223.893 620.9 226.171C617.129 230.333 616.787 236.009 620.306 240.328C621.743 242.093 623.813 243.291 625.079 245.267C625.342 245.675 625.962 245.912 626.476 246.083C629.192 246.992 631.934 247.94 634.847 247.084C636.258 246.676 637.629 246.123 638.973 245.451C641.689 244.121 644.115 242.686 644.787 239.459C644.906 238.893 645.973 239.169 645.67 238.261C645.103 236.535 645.512 234.692 644.932 232.901L644.945 232.914Z" fill="white"/>
<path d="M370.148 175.074C370.728 175.93 371.598 176.509 372.403 177.142C372.851 176.417 373.879 176.667 374.354 175.969C374.406 175.89 374.617 175.956 374.749 175.917C375.83 175.627 375.949 174.508 376.555 173.823C377.122 173.178 376.41 172.651 376.16 172.177C374.841 169.793 373.431 167.488 371.282 165.697C370.438 164.986 369.489 164.407 368.698 163.669C367.604 162.642 366.483 161.694 365.257 160.825C362.476 158.849 359.286 157.769 356.174 156.505C354.487 155.82 352.721 155.28 350.532 155.096C349.702 155.636 348.344 155.57 347.184 156.229C346.353 156.703 346.063 157.401 346.129 158.27C346.195 159.139 346.92 159.376 347.579 159.495C349.293 159.797 350.849 160.495 352.338 161.325C354.118 162.326 355.871 163.393 357.625 164.459C358.547 165.026 359.628 165.302 360.446 166.066C363.676 169.082 367.617 171.334 370.148 175.1V175.074Z" fill="white"/>
<path d="M564.609 175.732C565.018 176.523 565.4 176.404 566.019 175.983C569.052 173.902 571.978 171.676 575.208 169.859C579.334 167.541 583.513 165.526 588.18 164.565C590.118 164.17 592.003 163.577 593.901 163.024C594.745 162.774 596.248 160.746 596.182 159.995C595.417 159.916 595.852 158.823 595.154 158.691C593.822 158.454 592.57 157.98 591.133 158.23C588.101 158.757 585.135 159.534 582.168 160.311C576.777 161.72 571.899 164.288 567.39 167.62C565.98 168.674 564.859 170.162 563.067 170.728C562.421 170.939 562.157 171.466 562.605 172.203C563.317 173.362 563.989 174.534 564.609 175.746V175.732Z" fill="white"/>
<path d="M519.326 188.151C522.793 186.953 524.335 184.095 524.704 180.816C525.073 177.55 523.426 174.89 520.644 173.072C519.444 172.282 518.1 172.229 516.702 172.677C513.011 173.889 511.086 176.378 510.928 180.631C510.968 182.818 511.798 185.083 513.644 186.887C515.252 188.454 517.177 188.889 519.313 188.151H519.326Z" fill="white"/>
<path d="M463.852 188.362C466.212 188.033 467.636 186.518 468.268 184.319C469.112 181.408 468.69 178.603 467.095 176.048C465.329 173.217 462.125 172.73 459.475 174.797C457.511 176.325 456.575 178.366 456.509 180.763C456.536 182.646 456.852 184.385 457.933 185.886C459.383 187.914 461.413 188.704 463.852 188.362Z" fill="white"/>
<path d="M418.753 392.474H419.544C419.544 392.474 419.544 392.422 419.544 392.395C419.294 392.395 419.043 392.395 418.793 392.395C418.793 392.395 418.767 392.448 418.767 392.461L418.753 392.474Z" fill="#32BAD4"/>
<path d="M506.209 294.349C506.209 294.349 506.209 294.336 506.209 294.323C506.13 294.257 505.971 294.138 505.681 293.993C503.981 293.111 501.99 292.729 499.037 292.703H498.971C497.258 292.703 495.742 293.216 494.331 294.27C494.054 294.481 493.725 294.797 493.369 295.126C493.131 295.35 492.881 295.574 492.644 295.798C491.47 296.838 490.152 297.378 488.755 297.378C487.7 297.378 486.659 297.075 485.67 296.469C483.587 295.205 481.293 294.612 478.446 294.612C477.101 294.612 475.611 294.744 473.898 295.021C470.905 295.495 468.493 296.904 466.291 299.446C466.12 299.643 465.909 299.893 465.909 301C465.922 303.159 466.739 305.227 468.466 307.479C468.69 307.769 468.914 308.085 469.125 308.388C469.389 308.756 469.771 309.309 469.943 309.428C470.655 309.915 471.419 310.337 472.144 310.705C472.197 310.705 472.25 310.705 472.289 310.705C474.016 310.705 475.295 311.43 476.125 312.022C476.613 311.904 477.114 311.851 477.615 311.851C479.289 311.851 480.937 312.51 482.216 313.669C482.559 313.708 482.888 313.761 483.231 313.8C484.114 313.919 484.958 314.037 485.67 314.037C486.105 314.037 486.448 313.998 486.777 313.906C487.739 313.655 488.86 313.432 490.112 313.26C494.529 312.655 497.574 311.482 499.96 309.468C500.461 309.046 500.949 308.704 501.357 308.44C501.542 308.309 501.779 308.151 501.937 308.032C502.399 306.86 503.295 305.885 504.482 305.293C504.574 305.135 504.679 304.924 504.772 304.753C504.917 304.489 505.062 304.2 505.246 303.884C505.273 303.765 505.312 303.581 505.339 303.436C505.444 302.896 505.576 302.145 505.879 301.329C506.367 300.051 506.631 298.787 506.67 297.576V297.273L506.696 297.18C506.67 297.062 506.631 296.878 506.591 296.733C506.446 296.127 506.248 295.31 506.235 294.336L506.209 294.349Z" fill="#C67355"/>
<path d="M674.066 220.258C672.563 218.915 670.889 218.111 668.859 218.309C667.804 218.401 667.303 218.111 667.448 216.979C667.62 215.583 667.224 214.253 666.697 212.989C665.023 209.011 662.821 205.587 657.97 205.14C657.087 205.061 656.638 204.56 656.507 203.717C656.177 201.413 655.043 199.49 653.751 197.62C653.527 197.291 653.264 196.988 653.105 196.593C652.314 194.696 650.706 193.656 648.913 192.997C645.855 191.865 642.849 192.642 639.936 193.656C638.486 194.156 637.141 195.131 635.757 195.579C633.542 196.303 631.921 197.528 630.457 199.187C630.114 199.582 629.996 200.201 629.389 200.32C629.31 200.293 629.205 200.28 629.178 200.241C628.888 199.78 628.598 199.319 628.322 198.858C626.107 195.039 622.679 193.366 618.421 193.827C615.982 194.091 613.517 194.13 611.065 195.091C608.429 196.105 606.464 197.646 604.698 199.635C602.404 202.216 600.822 205.1 600.611 208.709C600.44 211.579 600.255 214.437 600.651 217.282C600.796 218.322 600.888 219.257 600.598 220.298C600.189 221.759 599.583 223.103 598.858 224.433C597.025 227.791 594.6 230.767 592.636 234.046C591.462 236.009 589.973 237.642 588.364 239.235C586.571 241 584.897 242.909 583.236 244.806C580.257 248.177 577.317 251.588 574.812 255.341C572.743 258.449 570.383 261.373 568.353 264.507C567.311 266.127 566.243 267.826 564.345 268.669C564.055 268.8 563.791 269.196 563.475 268.853C562.776 268.076 561.735 267.773 560.984 267.062C560.456 266.562 560.127 266.14 560.496 265.297C561.194 263.678 561.735 261.992 562.315 260.319C563.752 256.171 564.622 251.878 564.741 247.519C564.82 244.319 565.083 241.184 565.677 237.984C567.232 238.34 568.63 237.879 570.04 237.299C571.609 236.654 572.611 235.403 572.624 233.744C572.624 231.702 572.545 229.661 572.598 227.62C572.637 226.118 572.743 224.617 572.94 223.129C573.125 221.733 572.822 220.245 573.626 218.928C573.81 218.612 573.837 218.191 573.89 217.769C574.021 216.465 573.389 215.412 573.033 214.253C572.4 212.238 572.664 210.105 572.571 208.024C572.453 205.416 572.532 202.822 572.149 200.214C571.807 197.87 571.24 195.539 571.332 193.182C571.991 192.826 572.624 193.011 573.23 192.984C576.473 192.774 579.73 192.681 582.867 191.602C585.042 190.851 587.257 190.166 589.498 189.639C596.103 188.085 602.167 185.412 607.532 181.224C611.065 178.458 613.913 175.1 616.154 171.228C617.841 168.318 618.79 165.105 619.871 161.931C620.886 158.968 621.308 155.781 623.18 153.16C624.235 151.698 625.013 150.078 625.382 148.38C626.344 144.007 625.804 141.703 622.073 140.017C618.659 138.476 615.033 137.475 611.237 137.212C609.562 137.093 607.901 137.357 606.267 137.212C604.566 137.054 602.879 137.014 601.178 137.08C599.214 137.146 597.263 137.199 595.299 137.159C591.818 137.08 588.351 137.304 584.871 137.449C581.035 137.594 577.423 139.082 573.599 139.345C572.584 139.411 571.596 139.701 570.594 139.951C566.81 140.899 563.251 142.401 559.797 144.165C557.833 145.166 555.763 145.996 554.115 147.55C553.957 147.708 553.601 147.655 553.232 147.721C553.192 146.918 553.127 146.18 553.127 145.456C553.127 140.254 553.548 135.052 553.206 129.837C553.074 127.848 552.586 126.097 551.584 124.424C550.292 122.252 549.238 119.96 548.13 117.682C546.126 113.586 543.332 110.254 539.06 108.121C534.763 105.987 529.635 107.041 526.141 110.175C523.531 112.532 521.923 115.759 519.471 118.274C519.339 118.419 519.286 118.643 519.181 118.814C517.678 121.132 516.847 123.74 516.004 126.334C514.791 130.074 512.536 133.432 511.917 137.475C508.331 136.461 504.851 135.526 501.41 134.512C499.723 134.012 497.969 133.722 496.269 133.314C493.303 132.603 490.402 131.378 487.265 131.628C486.527 131.681 485.762 131.891 485.037 131.786C481.214 131.233 477.338 131.325 473.528 131.496C470.589 131.628 467.662 131.602 464.735 131.654C463.364 131.681 461.954 131.51 460.636 131.786C456.615 132.603 452.554 133.09 448.521 133.775C440.769 135.092 433.097 136.58 425.833 139.74C425.095 140.057 424.29 140.623 423.434 140.373C422.102 135.553 421.14 130.759 419.202 126.215C418.266 124.003 416.855 121.922 416.723 119.354C416.684 118.564 416.236 117.721 415.774 116.944C413.665 113.336 410.475 110.82 407.285 108.279C407.008 108.055 406.731 107.95 406.401 107.844C405.307 107.489 404.266 106.988 403.211 106.554C401.194 105.711 399.045 105.447 397.121 106.738C394.352 108.595 391.689 110.452 390.463 113.915C389.211 117.458 388.169 121.014 387.458 124.688C387.141 126.36 386.97 128.059 386.851 129.758C386.64 132.958 386.482 136.158 386.746 139.372C386.904 141.334 387.207 143.323 386.943 145.403C385.164 144.442 383.569 143.612 382.066 142.532C379.904 140.992 377.425 140.017 374.789 139.503C373.22 139.201 371.651 138.884 370.082 138.529C367.578 137.963 365.165 136.935 362.568 136.764C361.342 136.685 360.024 136.883 358.917 136.488C356.952 135.776 354.962 135.566 352.932 135.355C347.184 134.749 341.489 135.184 335.794 136.053C332.894 136.488 330.02 137.028 327.067 137.186C324.72 137.304 322.347 137.963 321.174 140.28C319.816 142.98 319.065 145.864 320.04 148.933C321.939 154.951 324.786 160.535 327.871 166.013C328.398 166.948 329.097 167.765 329.967 168.489C331.747 169.964 333.579 171.334 335.451 172.69C337.666 174.297 339.775 176.141 341.634 178.208C342.161 178.788 342.754 179.354 343.414 179.854C344.442 180.631 345.721 181.25 346.446 182.238C347.711 183.95 349.438 184.806 351.257 185.517C353.604 186.439 356.03 187.19 358.442 187.927C359.048 188.112 359.602 188.283 360.05 188.744C362.041 190.719 364.743 191.285 367.275 192.537C365.403 193.432 365.851 195.565 365.02 197.172C362.792 195.381 360.459 194.077 358.284 192.55C355.212 190.403 351.851 188.915 348.212 188.164C346.301 187.769 344.363 186.795 342.319 187.769C342.056 187.901 341.634 187.927 341.37 187.822C339.393 186.94 337.389 187.414 335.359 187.585C333.724 187.717 332.169 188.151 330.573 188.494C328.781 188.875 326.737 188.823 325.234 189.705C323.573 190.68 321.767 190.429 320.159 191.193C319.974 191.285 319.79 191.364 319.592 191.443C317.101 192.51 314.965 194.222 312.737 195.684C310.325 197.278 308.611 199.767 306.752 202.032C304.946 204.244 303.865 206.865 302.441 209.288C301.057 211.619 300.332 214.319 298.895 216.637C297.985 218.111 298.5 219.784 297.985 221.351C297.524 222.721 298.447 224.472 297.181 225.816C297.129 225.868 297.194 226.039 297.234 226.158C297.709 227.949 297.471 229.793 297.537 231.61C297.616 233.823 297.155 235.969 297.629 238.247C298.579 242.83 298.974 247.532 300.121 252.089C301.532 257.699 303.245 263.19 306.422 268.116C307.306 269.485 308.083 270.881 309.125 272.159C310.285 273.568 311.603 274.845 312.579 276.439C313.95 278.678 315.492 280.877 317.259 282.813C318.999 284.722 320.713 286.698 322.69 288.397C324.087 289.595 325.63 290.635 326.935 291.913C328.807 293.756 331.008 295.179 333.197 296.509C336.058 298.26 338.892 300.012 341.581 302.027C343.822 303.713 346.222 305.135 348.726 306.386C350.598 307.321 352.589 308.019 354.421 309.02C356.517 310.152 358.64 311.232 360.828 312.207C363.306 313.313 365.719 314.564 368.171 315.749C370.135 316.698 372.205 317.488 374.051 318.62C375.896 319.753 378.019 320.108 379.864 321.439C382.633 323.453 386.126 324.283 389.435 325.165C391.228 325.64 392.81 326.535 394.603 326.957C395.736 327.233 395.842 327.694 395.051 328.497C393.588 329.985 392.625 331.803 391.412 333.449C390.279 334.99 389.712 336.86 388.486 338.361C384.768 342.931 381.987 348.12 379.218 353.295C376.727 357.944 375.342 363.041 373.616 367.992C373.286 368.927 373.062 369.309 372.02 369.257C370.531 369.178 369.002 369.257 367.525 369.441C365.152 369.744 362.819 370.257 360.446 370.534C357.321 370.903 354.224 371.509 351.376 372.773C348.66 373.984 345.971 375.315 343.559 377.106C341.291 378.791 338.839 380.174 336.835 382.307C334.541 384.744 333.039 387.404 332.498 390.644C332.353 391.513 332.38 392.474 332.933 393.172C333.909 394.397 335.794 394.16 336.822 395.385C338.325 394.871 339.775 395.609 341.265 395.635C347.553 395.714 353.828 395.398 360.116 395.872C363.847 396.148 367.578 395.78 371.322 395.793C376.358 395.819 381.407 395.464 386.456 395.674C387.484 395.714 388.868 394.976 389.409 396.649C389.422 396.702 389.672 396.728 389.778 396.688C390.911 396.135 392.388 396.965 393.39 395.753C393.561 395.543 394.036 395.53 394.379 395.543C396.369 395.635 398.32 395.148 400.298 395.082C404.556 394.924 408.761 394.331 413.362 393.133C411.951 393.159 411.002 393.357 409.987 393.093C410.343 390.881 410.158 388.602 411.292 386.561C411.424 386.337 411.45 386.034 411.49 385.771C411.846 383.796 411.635 381.702 412.782 379.897C412.98 379.581 413.019 379.055 412.914 378.699C412.61 377.659 412.966 376.71 413.164 375.723C413.48 374.103 414.311 372.602 414.68 371.048C415.392 368.019 416.526 365.2 417.831 362.422C420.164 357.457 423.223 352.953 426.597 348.646C427.23 347.843 428.008 347.711 428.759 347.962C429.392 348.172 430.065 348.752 430.051 349.555C430.038 350.675 430.302 351.794 429.84 352.953C429.432 353.941 428.641 354.81 428.43 355.705C428.166 356.864 427.692 357.878 427.164 358.853C426.729 359.656 426.426 360.486 426.057 361.302C424.857 363.91 424.33 366.754 423.012 369.309C422.629 370.06 422.023 370.89 421.983 371.64C421.759 375.42 419.769 378.712 419.307 382.452C418.938 385.508 417.29 388.3 416.934 391.434C416.75 393.08 416.776 393.383 418.411 393.409C422.511 393.462 426.611 393.594 430.697 393.436C432.688 393.357 434.454 392.606 435.127 390.262C435.469 389.05 436.023 387.891 436.34 386.64C436.524 385.942 436.775 385.192 437.381 384.678C441.23 381.438 444.262 377.316 448.455 374.419C449.008 374.037 450.287 373.879 449.72 372.602C450.472 372.154 451.342 372.128 452.106 371.495C457.92 366.768 464.841 364.832 472.118 363.949C475.783 363.502 479.487 363.554 483.165 363.712C485.551 363.818 487.977 364.2 490.112 365.253C493.896 367.136 497.851 368.664 501.621 370.587C503.809 371.706 506.261 372.47 508.002 374.235C510.23 376.5 511.97 379.173 513.314 382.057C514.408 384.415 515.054 386.943 515.845 389.393C516.386 391.078 517.586 391.658 518.851 392.092C519.378 392.277 520.156 392.369 520.815 392.448C521.382 392.514 522.318 393.093 522.186 391.697C522.147 391.328 522.569 391.342 522.938 391.289C523.742 391.184 524.546 391.026 525.377 391.052C528.132 391.144 530.808 390.459 533.51 390.051C534.895 389.84 536.173 389.432 537.676 389.775C538.639 389.998 539.891 390.183 540.88 389.616C542.29 388.787 543.872 388.668 545.401 388.576C546.641 388.51 547.563 388.049 548.328 387.193C550.648 384.586 553.298 382.334 555.803 379.924C557.806 377.988 559.929 376.184 561.893 374.208C566.23 369.849 570.225 365.161 574.325 360.591C576.368 358.3 578.543 356.127 580.323 353.585C581.76 351.531 583.434 349.621 585.055 347.725C589.485 342.536 594.376 337.742 598.357 332.158C600.532 329.103 603.116 326.351 605.568 323.506C609.127 319.384 612.515 315.117 615.732 310.705C617.459 308.335 619.37 306.109 621.137 303.765C623.431 300.71 625.843 297.734 627.557 294.296C627.926 293.572 628.005 292.729 628.546 292.071C630.246 290.043 631.327 287.62 632.896 285.499C634.715 283.037 636.35 280.455 637.892 277.808C639.764 274.608 641.887 271.527 644.088 268.537C645.288 266.917 645.565 264.613 647.674 263.651C647.819 263.585 647.845 263.296 647.951 263.124C649.164 261.268 650.508 259.49 651.484 257.488C651.8 256.83 652.196 256.408 653.092 256.685C654.094 256.988 654.977 256.461 655.65 255.776C656.111 255.315 656.638 254.999 657.205 254.841C658.365 254.499 659.235 253.761 660.171 253.063C662.017 251.68 663.863 250.284 665.774 248.981C667.857 247.558 669.716 245.912 671.324 243.989C671.68 243.924 671.812 243.647 671.944 243.37C673.209 241.935 674.514 240.539 675.701 239.051C676.729 237.76 677.639 236.312 677.744 234.652C678.021 230.385 677.665 226.184 675.424 222.365C675.015 221.667 674.752 220.93 674.092 220.337L674.066 220.258ZM563.066 170.715C564.859 170.149 565.98 168.66 567.39 167.607C571.899 164.275 576.763 161.707 582.168 160.298C585.121 159.521 588.101 158.744 591.133 158.217C592.583 157.967 593.835 158.441 595.153 158.678C595.852 158.797 595.417 159.903 596.182 159.982C596.248 160.732 594.745 162.774 593.901 163.011C592.003 163.564 590.104 164.156 588.18 164.552C583.513 165.513 579.334 167.528 575.208 169.846C571.978 171.663 569.051 173.889 566.019 175.969C565.4 176.391 565.004 176.509 564.609 175.719C563.989 174.508 563.317 173.336 562.605 172.177C562.157 171.452 562.407 170.912 563.066 170.702V170.715ZM419.545 392.474H418.754L418.78 392.408C419.03 392.408 419.281 392.408 419.531 392.408C419.531 392.435 419.531 392.461 419.531 392.487L419.545 392.474ZM520.908 131.615C521.58 130.285 522.371 128.981 522.832 127.585C523.979 124.174 526.194 121.54 528.62 119.025C529.279 118.34 529.806 117.55 530.36 116.773C531.612 115.021 533.405 114.179 535.527 113.981C536.332 113.902 536.978 114.007 537.281 114.956C537.439 115.443 537.861 115.957 538.296 116.194C539.575 116.878 539.97 118.077 540.326 119.288C540.827 121 541.512 122.594 542.528 124.069C543.582 125.597 544.861 126.94 545.045 129.034C545.23 130.943 545.349 132.84 545.375 134.736C545.441 139.833 545.428 144.929 545.375 150.039C545.362 151.395 545.098 152.739 544.9 154.424C536.292 148.103 526.866 144.007 517.216 140.017C518.495 137.028 519.563 134.249 520.881 131.602L520.908 131.615ZM516.702 172.677C518.087 172.216 519.444 172.282 520.644 173.072C523.412 174.89 525.06 177.55 524.704 180.816C524.335 184.108 522.793 186.953 519.326 188.151C517.19 188.889 515.252 188.454 513.657 186.887C511.811 185.083 510.968 182.818 510.941 180.631C511.113 176.378 513.024 173.889 516.715 172.677H516.702ZM459.475 174.784C462.125 172.717 465.315 173.217 467.095 176.035C468.69 178.59 469.125 181.395 468.268 184.306C467.636 186.505 466.212 188.019 463.852 188.349C461.427 188.691 459.396 187.901 457.933 185.873C456.852 184.372 456.536 182.633 456.509 180.75C456.562 178.353 457.511 176.312 459.475 174.784ZM448.745 221.944C448.692 221.667 448.811 221.43 449.127 221.312C449.536 221.154 449.72 220.759 449.878 220.39C451.922 215.32 454.743 210.961 457.089 207.523C460.609 202.374 465.737 199.569 471.063 196.909C471.696 196.593 472.434 196.527 472.803 195.645C473.041 195.078 473.898 194.907 474.623 194.947C475.532 195.012 476.35 194.973 476.943 194.051C477.457 193.248 478.485 193.524 479.21 193.458C481.254 193.248 483.218 192.681 485.222 192.313C491.984 191.048 498.642 191.272 505.246 193.169C507.342 193.774 509.294 194.736 511.086 196.013C511.587 196.369 512.128 196.685 512.682 196.935C515.569 198.16 517.994 199.99 519.998 202.4C520.776 203.335 521.923 203.836 522.714 204.81C526.326 209.301 529.2 214.187 531.111 219.626C531.876 221.812 532.627 224.011 533.313 226.237C533.761 227.672 533.484 227.923 531.981 227.712C530.36 227.475 528.738 227.291 527.117 227.106C526.233 227.014 525.35 226.961 524.572 226.435C525.403 223.445 525.469 220.429 525.205 217.387C524.889 213.581 522.714 210.961 519.616 208.972C518.983 208.564 518.324 208.116 517.889 207.536C515.885 204.81 513.024 204.863 510.124 205.021C509.584 205.047 509.056 205.285 508.516 205.298C507.712 205.324 507.066 205.548 506.657 206.299C506.499 206.588 506.222 206.838 505.945 207.023C502.847 209.143 503.163 212.33 503.678 215.333C503.928 216.781 503.928 218.125 503.836 219.547C503.664 222.22 503.216 224.815 502.227 227.317C501.001 230.412 497.139 232.492 493.856 231.834C491.431 231.36 489.466 230.109 487.7 228.476C487.45 228.252 487.159 228.054 486.869 227.883C484.312 226.421 483.481 224.051 483.547 221.312C483.6 219.112 484.075 216.979 484.958 214.938C486.131 212.212 485.024 207.747 482.73 205.969C481.675 205.153 480.344 204.876 479.078 204.718C476.89 204.442 474.662 203.994 472.619 205.482C471.656 206.18 470.457 206.457 469.494 207.273C465.711 210.473 464.34 214.832 463.404 219.428C463.18 220.495 463.101 221.588 462.969 222.668C462.85 223.603 462.468 224.13 461.4 224.117C458.052 224.09 454.756 224.67 451.421 224.894C450.327 224.973 449.246 224.828 448.02 224.867C448.257 223.853 448.916 223.01 448.718 221.983L448.745 221.944ZM469.877 215.517C470.523 212.58 474.333 209.92 478.011 211.487C478.775 211.817 478.788 212.383 478.617 213.015C478.235 214.464 477.852 215.925 477.378 217.348C477.035 218.375 476.969 219.336 477.483 220.311C477.945 221.193 477.879 222.168 477.839 223.129C477.773 225.025 478.301 226.816 478.894 228.594C479.052 229.095 479.118 229.859 480.054 229.714C480.397 229.661 480.687 230.109 480.634 230.438C480.318 232.479 481.807 233.23 483.218 233.823C484.971 234.56 486.83 235.034 488.676 235.548C489.203 235.693 489.717 235.837 490.205 236.075C493.725 237.76 497.126 237.352 500.659 235.89C504.06 234.481 506.657 232.032 508.358 229.095C510.414 225.552 512.036 221.601 511.007 217.19C510.744 216.07 510.73 214.885 510.678 213.726C510.599 211.975 512.233 210.921 513.868 211.685C514.672 212.067 515.41 212.58 516.228 212.91C519.036 214.068 519.299 216.584 519.339 219.033C519.378 221.417 519.273 223.919 518.139 226.039C516.966 228.212 516.241 230.543 515.529 232.848C515.12 234.152 514.053 234.56 513.486 235.535C512.866 236.588 511.983 237.471 511.165 238.392C510.955 238.629 510.585 238.722 510.282 238.866C509.676 239.169 508.938 239.341 508.463 239.775C505.576 242.396 501.819 242.83 498.312 243.884C493.369 245.359 488.583 244.872 484.062 242.383C483.389 242.014 482.704 241.672 482.018 241.527C478.736 240.881 476.376 238.932 474.319 236.443C471.722 233.309 470.299 229.635 469.27 225.763C469.007 224.775 468.69 223.788 468.901 222.773C468.783 220.258 469.402 217.848 469.916 215.491L469.877 215.517ZM393.943 129.824C393.772 128.125 394.827 126.453 393.983 124.767C395.143 122.568 394.405 120.092 394.998 117.813C395.156 117.234 395.314 116.707 395.855 116.259C396.844 115.443 397.727 114.482 398.597 113.533C400.008 112.006 402.38 111.874 403.514 113.533C404.859 115.535 406.599 117.155 408.181 118.893C409.473 120.316 410.435 121.935 410.897 123.595C411.49 125.728 412.518 127.638 413.415 129.587C414.43 131.786 415.115 134.025 415.761 136.316C416.288 138.16 416.776 140.004 417.277 141.848C417.541 142.796 417.435 143.441 416.341 143.902C412.149 145.693 408.102 147.813 404.2 150.171C403.62 150.526 403.04 150.869 402.46 151.198C400.706 152.212 398.94 153.2 397.186 154.214C396.514 153.792 396.026 153.265 395.67 152.673C395.565 152.488 395.46 152.304 395.367 152.107C395.328 152.027 395.288 151.948 395.262 151.856C395.169 151.619 395.077 151.382 394.998 151.132C394.866 150.711 394.774 150.276 394.669 149.828C393.614 144.877 393.904 139.898 393.957 134.92C393.97 133.208 394.115 131.496 393.943 129.798V129.824ZM360.433 166.04C359.615 165.276 358.534 164.999 357.611 164.433C355.858 163.366 354.118 162.3 352.325 161.299C350.836 160.456 349.28 159.771 347.566 159.468C346.907 159.35 346.182 159.113 346.116 158.243C346.05 157.374 346.34 156.676 347.171 156.202C348.331 155.544 349.675 155.61 350.519 155.07C352.694 155.254 354.461 155.794 356.161 156.479C359.273 157.743 362.463 158.823 365.244 160.798C366.47 161.667 367.591 162.616 368.685 163.643C369.476 164.394 370.425 164.96 371.269 165.671C373.418 167.462 374.828 169.78 376.147 172.15C376.41 172.611 377.109 173.151 376.542 173.796C375.936 174.494 375.817 175.614 374.736 175.89C374.604 175.93 374.393 175.877 374.341 175.943C373.866 176.641 372.838 176.391 372.39 177.115C371.585 176.483 370.715 175.904 370.135 175.048C367.591 171.281 363.662 169.029 360.433 166.013V166.04ZM561.906 292.176C561.3 294.889 560.377 297.549 558.887 299.959C558.07 301.276 556.87 302.382 556.58 304.002C556.528 304.292 556.211 304.713 555.961 304.766C555.117 304.924 554.84 305.701 554.287 306.136C552.177 307.782 550.991 310.468 548.249 311.377C548.183 311.403 548.104 311.43 548.077 311.496C547.089 313.339 544.953 313.8 543.648 315.249C543.213 315.723 542.804 316.079 542.158 316.223C541.631 316.342 541.196 316.737 540.84 317.172C539.456 318.923 537.755 319.871 535.435 320.135C533.998 320.293 532.495 321.254 531.335 322.229C530.188 323.19 528.765 323.467 527.605 323.572C525.825 323.743 524.137 324.23 522.476 324.691C517.085 326.206 511.693 327.773 506.182 328.748C502.689 329.367 499.156 329.788 495.623 330.17C492.775 330.486 489.915 330.578 487.067 330.881C484.365 331.171 481.623 331.329 478.907 331.539C475.915 331.763 472.922 331.961 469.929 332.172C466.331 332.435 462.692 332.33 459.08 332.29C452.792 332.224 446.49 332.185 440.242 331.395C437.315 331.026 434.375 331.276 431.462 330.723C426.835 329.854 422.221 328.919 417.62 327.905C413.085 326.904 408.629 325.521 404.345 323.822C400.851 322.426 397.345 320.951 393.904 319.384C391.386 318.252 388.67 317.461 386.021 316.566C384.28 315.973 382.633 315.249 381.037 314.261C378.783 312.878 376.358 311.733 373.879 310.771C371.388 309.81 369.12 308.414 366.694 307.334C362.265 305.372 357.981 303.08 353.538 301.145C350.4 299.775 347.382 298.221 344.719 296.101C342.451 294.296 340.052 292.729 337.521 291.386C334.832 289.964 332.524 288.041 330.138 286.224C328.293 284.814 326.342 283.511 324.681 281.904C322.743 279.994 320.91 277.927 319.328 275.714C318.063 273.95 316.89 272.106 315.466 270.46C310.865 265.126 307.952 258.976 306.198 252.181C304.88 247.084 304.313 241.869 303.285 236.72C303.074 235.679 303.39 234.56 303.351 233.467C303.193 229.213 303.456 224.999 304.287 220.824C304.59 219.284 305.328 217.861 306.053 216.478C307.543 213.647 309.006 210.776 310.733 208.063C313.343 203.968 316.745 200.688 321.214 198.568C325.854 196.356 330.837 195.592 335.847 194.881C338.496 194.512 341.159 194.604 343.822 194.617C347.948 194.644 351.521 196.237 354.79 198.621C355.12 198.858 355.436 199.095 355.792 199.279C359.154 200.978 361.817 203.507 363.992 206.496C365.838 209.038 367.71 211.619 368.725 214.635C370.373 219.573 370.583 224.63 369.647 229.753C369.226 232.111 368.013 234.007 366.76 235.956C365.666 237.655 364.809 239.499 364.018 241.342C362.911 243.963 361.013 245.886 358.93 247.69C357.849 248.625 356.781 249.586 355.608 250.39C354.566 251.101 353.261 251.404 352.101 251.851C350.625 252.418 349.148 253.024 347.948 253.945C347.118 254.578 345.958 254.354 345.338 255.249C343.994 254.499 342.557 255.736 341.238 255.065C338.483 253.643 335.359 253.34 332.525 252.128C330.099 251.088 327.818 249.916 326.276 247.677C325.076 245.952 323.178 245.886 321.385 245.609C320.647 245.504 319.434 247.018 319.447 247.795C319.447 249.481 319.974 250.745 321.253 252.075C324.641 255.592 328.649 257.804 333.302 259.055C335.873 259.753 338.417 260.53 340.948 261.347C343.15 262.058 345.246 262.084 347.474 261.202C350.901 259.832 354.276 258.37 357.546 256.671C361.052 254.854 363.649 252.115 366.035 249.099C366.233 248.849 366.312 248.493 366.774 248.348C366.774 249.758 366.945 251.074 366.747 252.339C365.877 257.567 367.13 262.479 368.751 267.352C369.634 269.986 370.399 272.672 371.625 275.161C372.521 276.992 373.47 278.822 375.316 279.942C376.964 280.929 379.297 280.469 380.378 278.928C380.721 278.44 380.813 277.927 380.708 277.374C380.589 276.768 380.523 276.136 380.273 275.583C377.966 270.578 377.254 265.113 375.764 259.872C374.881 256.764 374.354 253.629 374.921 250.363C375.145 249.046 374.762 247.69 374.802 246.333C374.802 245.794 375.052 245.28 374.947 244.74C374.776 243.858 375.369 243.7 376.015 243.594C378.506 243.226 380.945 242.541 383.318 241.816C388.393 240.249 393.627 239.446 398.768 238.208C404.832 236.746 411.002 235.679 417.211 234.902C419.307 234.639 421.39 234.27 423.473 233.875C425.965 233.388 428.509 233.375 431.014 233.23C433.874 233.072 436.722 232.73 439.583 232.506C444.144 232.163 448.705 231.742 453.293 231.821C456.14 231.874 458.988 231.623 461.835 231.452C463.18 231.373 463.483 231.452 463.826 232.901C464.472 235.64 465.922 237.892 467.767 239.933C468.69 240.947 469.692 241.724 470.997 242.33C472.566 243.041 473.871 244.345 475.269 245.425C476.297 246.228 477.496 246.702 478.617 247.321C482.77 249.626 487.449 249.56 491.918 250.442C495.662 251.18 499.235 250.521 502.702 249.297C506.815 247.835 510.744 245.82 514.408 243.489C516.755 242.001 518.996 240.078 520.064 237.22C520.433 236.233 521.184 235.39 521.369 234.283C521.488 233.572 521.975 233.375 522.74 233.454C525.798 233.796 528.857 234.073 531.915 234.349C535.712 234.679 539.522 234.981 543.332 234.863C546.561 234.758 549.739 235.245 552.902 235.732C554.313 235.943 555.724 236.259 557.121 236.575C558.083 236.786 558.532 237.286 558.518 238.432C558.439 242.923 558.228 247.4 557.714 251.878C557.174 256.645 555.934 261.202 554.432 265.719C554.353 265.982 554.273 266.246 554.142 266.483C553.127 268.353 553.14 268.432 554.748 269.604C555.737 270.315 556.752 270.973 557.081 272.304C557.187 272.725 557.582 273.133 557.925 273.449C560.14 275.412 561.274 277.914 561.616 280.785C562.064 284.577 562.71 288.41 561.867 292.189L561.906 292.176ZM644.813 239.472C644.141 242.686 641.702 244.134 639 245.464C637.655 246.123 636.284 246.676 634.873 247.097C631.96 247.953 629.218 246.992 626.502 246.096C626.001 245.925 625.369 245.688 625.105 245.28C623.839 243.305 621.77 242.106 620.333 240.341C616.813 236.022 617.143 230.346 620.926 226.184C622.983 223.919 625.738 222.866 629.323 222.892C630.8 223.011 632.54 223.353 634.228 223.932C636.904 224.841 639.211 226.474 641.544 227.975C643.258 229.068 644.299 230.873 644.972 232.927C645.552 234.718 645.143 236.562 645.71 238.287C646.013 239.196 644.945 238.919 644.827 239.485L644.813 239.472Z" fill="#151515"/>
<path d="M507.764 289.977C505.022 288.555 502.083 288.199 499.077 288.173C496.322 288.159 493.83 289.002 491.629 290.648C490.917 291.175 490.297 291.821 489.638 292.413C489.15 292.848 488.728 293.019 488.03 292.598C483.389 289.766 478.38 289.713 473.186 290.543C468.928 291.215 465.619 293.282 462.85 296.483C461.677 297.839 461.361 299.34 461.374 301.026C461.4 304.529 462.784 307.505 464.854 310.218C465.632 311.245 466.278 312.404 467.385 313.155C468.69 314.037 470.075 314.748 471.498 315.407C473.265 314.551 473.99 316.763 475.466 316.75C475.862 316.75 476.178 316.869 476.613 316.619C477.602 316.052 478.683 316.46 479.303 317.132C479.896 317.764 480.542 318.001 481.24 318.067C483.455 318.317 485.63 318.844 487.924 318.252C488.807 318.014 489.77 317.843 490.706 317.712C495.135 317.106 499.341 315.868 502.86 312.905C504.034 311.917 505.602 311.338 506.13 309.678C506.182 309.52 506.407 309.362 506.578 309.283C508.041 308.677 508.476 307.255 509.201 306.057C509.781 305.082 509.702 303.95 510.098 302.936C510.744 301.25 511.126 299.498 511.179 297.694C511.377 296.496 510.77 295.403 510.744 294.244C510.704 292.15 509.557 290.886 507.778 289.95L507.764 289.977ZM506.657 297.286V297.589C506.617 298.8 506.354 300.065 505.866 301.342C505.563 302.159 505.418 302.896 505.326 303.449C505.299 303.594 505.26 303.792 505.233 303.897C505.049 304.213 504.904 304.503 504.759 304.766C504.666 304.937 504.561 305.148 504.469 305.306C503.282 305.899 502.373 306.873 501.924 308.045C501.766 308.164 501.529 308.322 501.344 308.453C500.949 308.73 500.448 309.059 499.947 309.481C497.561 311.496 494.516 312.668 490.099 313.273C488.86 313.445 487.74 313.655 486.764 313.919C486.435 314.011 486.092 314.05 485.657 314.05C484.945 314.05 484.101 313.932 483.218 313.813C482.875 313.761 482.546 313.721 482.203 313.682C480.924 312.523 479.289 311.864 477.602 311.864C477.101 311.864 476.6 311.93 476.112 312.036C475.295 311.443 474.003 310.719 472.276 310.719C472.223 310.719 472.171 310.719 472.131 310.719C471.406 310.35 470.641 309.915 469.93 309.441C469.758 309.323 469.376 308.77 469.112 308.401C468.901 308.098 468.677 307.795 468.453 307.492C466.726 305.227 465.909 303.173 465.896 301.013C465.896 299.893 466.107 299.656 466.278 299.459C468.479 296.904 470.892 295.495 473.884 295.034C475.598 294.757 477.088 294.626 478.433 294.626C481.28 294.626 483.587 295.218 485.657 296.483C486.645 297.088 487.687 297.391 488.742 297.391C490.152 297.391 491.457 296.864 492.63 295.811C492.881 295.587 493.118 295.363 493.356 295.139C493.711 294.81 494.041 294.494 494.318 294.283C495.728 293.23 497.244 292.716 498.958 292.716H499.024C501.977 292.742 503.955 293.124 505.668 294.007C505.958 294.165 506.117 294.27 506.196 294.336C506.196 294.336 506.196 294.349 506.196 294.362C506.209 295.337 506.407 296.153 506.552 296.759C506.591 296.904 506.631 297.088 506.657 297.207V297.299V297.286Z" fill="#151515"/>
<path d="M463.839 268.01C463.193 265.074 462.046 262.282 459.726 260.175C458.434 259.002 457.142 257.804 455.31 257.001C458.131 254.907 461.229 254.604 464.3 254.762C465.909 254.841 467.411 254.854 468.927 254.38C469.244 254.275 469.705 254.235 469.837 254.011C470.061 253.603 469.995 253.024 470.035 252.589C470.114 251.693 467.728 249.863 466.673 249.744C465.803 249.652 464.907 249.679 464.168 249.02C464.709 247.795 465.289 246.623 465.75 245.412C466.159 244.319 465.777 242.738 465.078 242.488C464.142 242.146 462.718 242.37 461.98 243.792C461.848 244.029 461.716 244.279 461.624 244.529C460.728 247.216 458.764 248.862 456.219 249.731C453.424 250.693 451.104 252.326 448.955 254.235C445.712 257.132 443.287 260.609 442.654 264.981C442.179 268.366 442.285 271.803 442.654 275.214C442.905 277.466 443.419 279.613 444.566 281.628C446.912 285.776 450.234 288.304 455.112 288.62C456.984 288.739 458.553 288.344 460.042 287.119C463.312 284.393 464.3 280.719 464.617 276.755C464.854 273.818 464.459 270.868 463.839 268.01ZM455.165 272.764C455.112 273.884 454.69 275.016 454.097 276.044C453.306 277.413 452.343 277.611 450.748 277.268C449.377 276.979 448.771 276.268 448.31 275.043C447.571 273.094 447.308 272.185 447.347 270.065C447.4 269.13 447.374 268.366 447.492 267.628C447.782 265.93 449.245 265.205 450.946 265.416C454.598 265.877 455.349 268.537 455.178 272.764H455.165Z" fill="#151515"/>
<path d="M533.827 248.928C532.759 248.19 531.678 247.453 530.281 247.479C529.45 247.492 528.976 247.137 529.2 246.215C529.266 245.952 529.279 245.662 529.213 245.399C529.042 244.648 529.16 243.818 528.158 243.37C527.051 242.883 526.405 243.568 525.838 244.121C524.718 245.201 523.755 246.465 522.74 247.65C521.989 248.533 521.29 249.521 520.222 250.008C517.151 251.417 514.448 253.168 512.26 255.881C510.467 258.107 509.228 260.53 508.925 263.19C508.634 265.679 508.239 268.195 508.292 270.921C507.975 272.988 509.03 274.99 509.425 277.11C509.874 279.481 511.047 281.364 512.879 282.721C514.606 284.011 516.162 285.921 518.785 285.394C519.075 285.341 519.431 285.578 519.748 285.697C521.606 286.355 522.753 286.052 524.098 284.564C524.599 284.011 525.021 283.366 525.588 282.892C528.303 280.627 529.648 277.545 530.452 274.279C530.993 272.067 531.309 269.736 530.716 267.391C529.582 262.861 527.249 259.029 524.045 255.697C523.202 254.828 523.294 254.314 524.441 254.103C525.364 253.945 526.313 253.814 527.249 253.722C528.791 253.564 530.347 253.063 531.902 253.748C532.786 254.13 533.576 253.485 534.288 253.182C534.961 252.892 534.974 251.97 534.974 251.18C534.974 250.179 534.605 249.468 533.814 248.928H533.827ZM518.574 275.504C517.441 276.518 516.623 276.307 515.503 275.214C513.367 273.12 513.301 270.434 513.42 267.813C513.473 266.47 514.62 265.324 515.292 264.099C515.753 263.256 516.689 263.414 517.362 263.032C518.087 262.624 518.944 262.914 519.524 263.638C520.183 264.455 520.618 265.363 520.736 266.404C520.842 267.273 520.881 268.155 520.947 269.024C521 271.487 520.525 273.765 518.588 275.504H518.574Z" fill="#151515"/>
<path d="M450.933 265.403C449.232 265.192 447.769 265.916 447.479 267.615C447.347 268.353 447.387 269.117 447.334 270.052C447.307 272.172 447.571 273.08 448.296 275.03C448.758 276.254 449.364 276.965 450.735 277.255C452.33 277.598 453.293 277.387 454.083 276.03C454.677 275.003 455.112 273.871 455.151 272.751C455.336 268.524 454.571 265.864 450.92 265.403H450.933Z" fill="white"/>
<path d="M520.723 266.404C520.605 265.363 520.169 264.455 519.51 263.638C518.93 262.927 518.073 262.624 517.348 263.032C516.676 263.414 515.753 263.256 515.279 264.099C514.606 265.324 513.459 266.47 513.407 267.813C513.301 270.434 513.367 273.107 515.49 275.214C516.61 276.32 517.427 276.518 518.561 275.504C520.499 273.765 520.974 271.487 520.921 269.024C520.855 268.155 520.815 267.273 520.71 266.404H520.723Z" fill="white"/>
</g>
</g>
<mask id="mask1_145_995" style="mask-type:luminance" maskUnits="userSpaceOnUse" x="0" y="270" width="179" height="106">
<path d="M178.18 270.183H0V375.538H178.18V270.183Z" fill="white"/>
</mask>
<g mask="url(#mask1_145_995)">
<path d="M43.187 321.768C43.187 321.768 43.2924 322.268 43.5166 323.085C46.6936 322.637 50.833 321.294 54.3397 321.109C62.1571 320.885 68.6563 323.282 73.8371 328.287C78.5302 332.79 82.0369 340.271 78.9521 348.633C76.6319 354.928 70.4755 359.445 63.7127 361.421C60.6016 362.329 57.029 362.975 53.0082 363.357C48.5524 363.857 42.8706 363.409 35.9891 362.04C34.9345 361.921 31.2038 361.684 30.3732 361.381C25.5219 359.564 23.1622 355.521 23.2677 349.252C23.3731 339.849 23.3468 333.515 23.1886 330.275C22.6876 321.913 23.4391 312.865 25.4165 303.12C25.6933 301.75 26.0229 298.774 26.4052 294.204C26.6293 292.018 28.6463 290.266 31.0324 290.161C32.2848 290.161 38.1379 290.319 39.298 290.319C41.7237 290.372 42.9892 291.61 43.0947 294.033C43.3188 297.944 43.3979 302.448 43.3452 307.571C43.3452 309.77 43.187 319.713 43.187 321.768ZM59.7051 340.165C59.5865 339.48 58.9141 338.638 58.2945 338.427C53.8915 336.833 49.3961 336.61 44.8348 337.768C44.2812 337.953 43.3056 338.651 43.187 339.257C42.6333 342.391 43.2134 344.735 44.9271 346.276C47.3528 348.423 49.6861 349.358 51.9536 349.081C58.1759 349.081 60.8652 346.605 59.7183 340.165H59.7051Z" fill="#151515"/>
<path d="M145.723 344.617V344.208C145.776 343.984 143.509 343.866 138.908 343.84C127.254 343.774 111.039 344.261 98.5552 344.709C98.2651 344.709 96.2218 344.88 95.9054 344.88C93.9412 344.88 92.702 343.945 92.5174 342.154C92.3988 341.351 91.9374 339.823 91.9374 338.848C91.9374 336.899 92.5042 334.963 94.5871 334.963H105.16C104.909 332.395 104.883 330.315 102.51 329.893C100.216 329.485 98.4497 329.854 95.2463 329.854C89.9863 329.854 85.1482 330.064 85.3328 325.231C85.4382 323.638 85.8337 322.571 86.4928 322.057C87.152 321.544 88.8658 321.136 91.621 320.859C95.1408 320.477 101.126 320.227 109.55 320.122C118.633 320.016 124.038 319.99 125.738 320.042C126.239 320.095 126.727 320.122 127.228 320.122C128.388 320.122 129.535 320.042 130.695 319.871C134.043 319.529 138.077 319.95 137.3 323.177C136.799 325.495 136.535 326.733 136.469 326.891C135.335 330.183 131.183 331.75 126.556 331.434C124.077 331.276 121.902 331.21 120.03 331.276C118.923 331.381 117.829 332.593 117.473 333.383C117.314 333.739 117.09 334.305 116.813 335.082C133.173 335.187 143.693 335.385 148.373 335.661C150.944 335.819 154.411 336.228 154.82 337.979C155.149 338.967 155.321 340.007 155.321 341.113C155.321 341.864 155.4 345.064 155.321 345.815C155.321 347.922 155.848 350.819 154.661 351.886C153.567 352.874 151.234 353.374 149.336 353.585C147.82 353.743 145.552 353.809 142.52 353.743C134.149 353.69 128.757 353.717 126.331 353.822C124.433 353.822 103.235 354.033 102.207 354.322L102.286 356.298C107.915 356.298 124.829 356.048 130.458 356.048C135.243 356.048 138.473 356.021 140.121 355.969C141.861 355.969 150.311 355.468 152.012 355.468H152.17C153.712 355.468 154.477 355.969 154.477 356.956V357.365C154.147 359.235 153.739 360.907 153.238 362.395C152.46 364.976 151.629 364.7 147.701 364.7H146.712C144.669 364.634 125.448 364.687 123.418 364.621C120.834 364.502 97.7115 364.041 95.0749 363.962C92.4647 363.87 91.1332 362.356 91.5287 359.748C91.8714 357.444 91.3573 356.535 91.3573 353.73C91.3573 353.348 91.3837 352.624 91.4364 351.583C91.5551 348.067 93.3347 347.395 97.1314 347.29C98.6211 347.25 141.953 347.013 143.311 346.961H143.97C144.946 346.961 145.789 346.869 145.789 345.894C145.75 345.499 145.71 345.077 145.71 344.656L145.723 344.617ZM92.9393 313.01C88.3648 311.311 85.9655 308.664 85.7546 305.082C85.425 300.46 86.9674 297.049 90.3818 294.849C94.073 292.426 95.4704 291.333 99.8471 290.069C103.314 289.068 105.002 289.41 109.181 289.41C114.665 289.41 118.132 290.187 122.363 291.307C124.104 291.768 123.985 291.86 125.54 292.426C126.938 292.927 127.373 293.322 128.52 294.033C130.761 295.442 133.595 299.064 133.727 301.421C133.806 302.883 133.002 304.845 131.288 307.321C128.704 310.956 126.134 313.497 123.603 314.959C121.071 316.421 117.881 317.145 114.019 317.145C107.744 317.251 100.717 315.881 92.9524 313.023L92.9393 313.01ZM112.845 309.546C116.088 309.428 117.011 307.913 117.881 305.095C118.488 302.949 117.525 301.553 114.994 300.881C111.685 299.946 107.862 299.209 103.512 298.655C100.717 298.287 98.7793 300.697 98.3838 303.107C98.0542 305.582 99.2143 307.15 101.851 307.808C103.604 308.322 107.533 308.993 109.536 309.296L111.184 309.546H112.832H112.845ZM147.055 320.201C147.121 319.16 146.989 315.947 145.987 315.13C144.563 313.971 141.927 314.116 139.462 313.774C138.143 313.497 137.366 313.142 137.155 312.707C135.507 309.244 135.283 306.294 136.495 303.87C137.128 302.606 137.089 301.276 139.145 301.474C140.912 301.553 146 300.631 146 298.919C146 297.76 146.224 294.876 146.659 290.253C146.831 288.989 147.74 288.383 149.388 288.436C151.432 288.489 153.515 288.436 155.663 288.278C157.364 288.173 158.524 288.752 159.13 290.016C161.002 294.033 161.807 298.958 161.53 304.792C161.451 306.504 161.78 312.167 161.78 313.787C161.78 317.185 160.936 318.831 160.712 321.952C160.436 326.904 160 330.459 159.394 332.593C158.735 334.898 154.965 335.345 148.07 333.91C146.91 333.686 146.093 332.975 145.592 331.763C145.315 331.105 145.381 329.88 145.803 328.089C146.224 326.298 146.343 325.073 146.172 324.415C146.29 321.886 147.081 322.729 147.081 320.201H147.055Z" fill="#151515"/>
</g>
<defs>
<filter id="filter0_d_145_995" x="291.091" y="98.9285" width="393.061" height="307.258" filterUnits="userSpaceOnUse" color-interpolation-filters="sRGB">
<feFlood flood-opacity="0" result="BackgroundImageFix"/>
<feColorMatrix in="SourceAlpha" type="matrix" values="0 0 0 0 0 0 0 0 0 0 0 0 0 0 0 0 0 0 127 0" result="hardAlpha"/>
<feOffset dx="2.65" dy="2.65"/>
<feColorMatrix type="matrix" values="0 0 0 0 0 0 0 0 0 0 0 0 0 0 0 0 0 0 0.3 0"/>
<feBlend mode="normal" in2="BackgroundImageFix" result="effect1_dropShadow_145_995"/>
<feBlend mode="normal" in="SourceGraphic" in2="effect1_dropShadow_145_995" result="shape"/>
</filter>
</defs>
</svg>
