<svg width="960" height="418" viewBox="0 0 960 418" fill="none" xmlns="http://www.w3.org/2000/svg">
<mask id="mask0_173_1811" style="mask-type:luminance" maskUnits="userSpaceOnUse" x="0" y="0" width="960" height="418">
<path d="M960 0H0V418H960V0Z" fill="white"/>
</mask>
<g mask="url(#mask0_173_1811)">
<path d="M281.112 102.847C280.313 97.5834 275.553 93.857 270.24 94.292C262.751 94.901 253.911 96.6554 255 101.556C256.858 109.923 270.806 167.327 261.502 200.4C252.199 233.474 236.392 286.427 297.774 310.583C359.156 334.74 367.647 270.289 343.872 223.078C321.505 178.665 288.079 148.68 281.097 102.847H281.112Z" fill="#F4BC1B"/>
<path d="M243.199 218.96C240.282 241.826 238.366 296.577 282.853 315.586C286.801 317.268 287.425 323.633 283.84 325.938C269.282 335.247 239.6 345.513 217.349 296.519C199.177 256.5 221.152 221.222 236.262 212.725C239.73 210.768 243.766 214.436 243.185 218.974L243.199 218.96Z" fill="#F4BC1B"/>
<path d="M197.987 270.361C198.8 280.496 203.532 313.701 231.008 335.102C232.212 336.045 231.704 337.973 230.18 338.205C221.588 339.496 200.817 339.655 188.509 314.701C175.388 288.094 189.032 273.827 195.157 269.114C196.26 268.259 197.856 268.969 197.973 270.361H197.987Z" fill="#F4BC1B"/>
<path d="M301.533 333.188C299.385 328.911 306.701 327.316 310.445 326.852C315.845 326.214 321.476 326.388 326.89 325.663C334.017 324.851 340.65 322.299 346.746 318.674C351.928 315.716 356.485 311.714 360.172 306.654C362.741 303.957 370.376 288.384 374.048 291.734C376.443 294.619 375.107 300.854 373.627 304.957C370.913 312.207 366.094 318.863 360.404 324.082C347.791 335.494 330.751 340.017 314.117 338.292C309.792 337.77 303.856 336.552 301.591 333.261L301.548 333.203L301.533 333.188Z" fill="black" stroke="black" stroke-width="3.02" stroke-linecap="round" stroke-linejoin="round"/>
<path d="M269.021 81.7207H253.825L237.743 41.3972L252.097 45.0656L265.349 74.0504L266.757 60.4353L275.669 66.1916L269.021 81.7207Z" fill="black" stroke="black" stroke-width="3.02" stroke-linecap="round" stroke-linejoin="round"/>
<path d="M304.349 343.57L301.142 355.88L289.777 364.014" stroke="black" stroke-width="4.03" stroke-linecap="round" stroke-linejoin="round"/>
<path d="M318.907 345.89L316.44 360.143V366.958" stroke="black" stroke-width="4.03" stroke-linecap="round" stroke-linejoin="round"/>
<path d="M334.104 345.89L338.24 353.792L336.165 364.014" stroke="black" stroke-width="4.03" stroke-linecap="round" stroke-linejoin="round"/>
<path d="M350.215 340.322L356.137 351.922L361.377 354.952" stroke="black" stroke-width="4.03" stroke-linecap="round" stroke-linejoin="round"/>
<path d="M364.178 330.723L370.375 335.987" stroke="black" stroke-width="4.03" stroke-linecap="round" stroke-linejoin="round"/>
<path d="M373.787 322.357L381.523 325.141H393.004" stroke="black" stroke-width="4.03" stroke-linecap="round" stroke-linejoin="round"/>
<path d="M379.984 308.118L388.969 305.639L397.344 308.118" stroke="black" stroke-width="4.03" stroke-linecap="round" stroke-linejoin="round"/>
<path d="M697.416 137.718C698.055 133.484 701.901 130.468 706.183 130.816C712.221 131.309 719.347 132.716 718.462 136.674C716.967 143.417 705.718 189.7 713.208 216.364C720.712 243.029 733.455 285.716 683.975 305.189C634.496 324.662 627.645 272.696 646.818 234.648C664.845 198.849 691.799 174.678 697.416 137.733V137.718Z" fill="#F4BC1B"/>
<path d="M727.969 231.328C730.32 249.757 731.859 293.909 696.008 309.22C692.815 310.583 692.321 315.716 695.21 317.558C706.952 325.054 730.872 333.333 748.812 293.836C763.471 261.574 745.749 233.141 733.557 226.282C730.756 224.702 727.504 227.66 727.969 231.328Z" fill="#F4BC1B"/>
<path d="M764.429 272.754C763.776 280.917 759.959 307.683 737.81 324.938C736.837 325.692 737.258 327.258 738.477 327.446C745.401 328.49 762.15 328.621 772.064 308.51C782.645 287.065 771.643 275.567 766.708 271.768C765.823 271.086 764.531 271.652 764.444 272.768L764.429 272.754Z" fill="#F4BC1B"/>
<path d="M680.956 323.401C682.684 319.964 676.791 318.674 673.772 318.297C669.417 317.789 664.874 317.92 660.52 317.34C654.787 316.688 649.431 314.629 644.511 311.714C640.33 309.336 636.658 306.103 633.697 302.014C631.622 299.839 625.482 287.282 622.507 289.979C620.576 292.314 621.65 297.33 622.855 300.636C625.047 306.48 628.937 311.845 633.509 316.064C643.683 325.257 657.414 328.911 670.825 327.519C674.309 327.098 679.099 326.112 680.927 323.459L680.956 323.415V323.401Z" fill="black" stroke="black" stroke-width="3.02" stroke-linecap="round" stroke-linejoin="round"/>
<path d="M707.156 120.681H719.42L732.367 88.173L720.799 91.131L710.117 114.49L708.984 103.514L701.8 108.168L707.156 120.681Z" fill="black" stroke="black" stroke-width="3.02" stroke-linecap="round" stroke-linejoin="round"/>
<path d="M678.678 331.767L681.261 341.699L690.42 348.253" stroke="black" stroke-width="4.03" stroke-linecap="round" stroke-linejoin="round"/>
<path d="M666.936 333.652L668.939 345.136V350.617" stroke="black" stroke-width="4.03" stroke-linecap="round" stroke-linejoin="round"/>
<path d="M654.686 333.652L651.362 340.018L653.031 348.253" stroke="black" stroke-width="4.03" stroke-linecap="round" stroke-linejoin="round"/>
<path d="M641.695 329.157L636.935 338.509L632.696 340.945" stroke="black" stroke-width="4.03" stroke-linecap="round" stroke-linejoin="round"/>
<path d="M630.446 321.414L625.453 325.663" stroke="black" stroke-width="4.03" stroke-linecap="round" stroke-linejoin="round"/>
<path d="M622.71 314.672L616.455 316.92H607.209" stroke="black" stroke-width="4.03" stroke-linecap="round" stroke-linejoin="round"/>
<path d="M617.703 303.188L610.46 301.187L603.711 303.188" stroke="black" stroke-width="4.03" stroke-linecap="round" stroke-linejoin="round"/>
<path d="M671.304 83.4172C668.343 79.8068 664.454 77.6173 660.244 75.8629C657.936 74.9059 655.585 74.1084 653.466 74.3549C649.431 74.4129 646.02 75.2104 643.001 77.2259C640.055 79.1833 639.184 82.2427 640.476 85.5197C640.635 85.9401 640.824 86.3461 640.955 86.7811C641.288 87.7961 641.942 88.3181 643.016 88.5791C645.352 89.1591 647.631 89.7826 649.721 91.2325C651.884 92.726 654.424 93.509 657.196 93.1175C662.262 92.407 666.776 90.203 671.275 87.9411C671.537 87.8106 671.783 87.5931 671.958 87.3611C672.132 87.1291 672.364 86.7811 672.291 86.5636C671.957 85.5197 672.132 84.4032 671.319 83.4172H671.304Z" fill="white"/>
<path d="M682.48 78.9078C682.553 77.9219 681.624 76.5879 680.724 76.7474C679.795 76.9069 679.476 76.4864 678.881 76.0224C678.024 75.3409 677.037 74.7609 675.92 74.4999C675.702 75.1669 675.528 75.7904 675.281 76.3849C674.846 77.4579 675.049 79.4153 675.92 79.6038C677.763 80.0098 678.169 81.5613 678.837 82.7647C679.65 84.2437 680.651 84.7222 682.161 84.4757C682.582 83.7507 681.653 82.8662 682.234 82.5037C683.54 81.6918 682.988 81.0393 682.379 80.1983C682.103 79.8068 682.422 79.3283 682.451 78.8933L682.48 78.9078ZM677.952 77.7624C678.803 77.917 679.268 78.4052 679.345 79.2268C678.576 79.0238 678.721 78.1249 677.952 77.7624Z" fill="white"/>
<path d="M668.649 72.0204C668.78 71.9914 669.143 71.9189 669.506 71.8319C670.696 71.5854 670.971 70.7445 670.971 69.686C670.971 68.497 670.057 68.7725 669.389 68.642C669.099 68.584 668.809 68.497 668.519 68.4535C667.415 68.265 666.457 68.7 666.356 69.425C666.153 70.7735 667.125 72.0204 668.664 72.0204H668.649Z" fill="white"/>
<path d="M658.125 69.1784C659.214 70.2514 659.199 70.2659 660.215 69.2219C660.418 69.0044 660.636 68.8015 660.854 68.584C661.246 68.1635 661.449 67.4385 660.999 67.2355C660.563 67.047 660.099 66.583 659.446 66.815C658.56 67.1195 657.98 67.743 657.385 68.323C657.501 68.8015 657.878 68.9174 658.14 69.1639L658.125 69.1784Z" fill="white"/>
<path d="M680.115 87.5496C678.853 88.6661 678.911 89.4055 680.449 91.131C682.452 89.188 682.409 89.217 681.668 87.7671C681.189 86.8391 680.71 87.0131 680.115 87.5351V87.5496Z" fill="white"/>
<path d="M673.438 73.7604C673.133 73.7169 672.843 73.8329 672.742 74.1374C672.625 74.4999 672.916 74.6304 673.192 74.6739C673.235 74.6739 673.279 74.6739 673.308 74.6739C673.453 74.6739 673.569 74.6014 673.641 74.4999C673.7 74.4129 673.729 74.3114 673.743 74.1954C673.772 73.9489 673.656 73.7894 673.424 73.7459L673.438 73.7604Z" fill="#32BAD4"/>
<path d="M673.438 73.7604C673.671 73.7894 673.787 73.9634 673.758 74.2099C673.743 74.3259 673.7 74.4274 673.656 74.5144C673.714 74.4274 673.743 74.3259 673.758 74.2099C673.787 73.9634 673.671 73.8039 673.438 73.7604Z" fill="#32BAD4"/>
<path d="M673.657 72.876C673.657 72.876 673.526 72.905 673.454 72.905C673.497 72.934 673.541 72.9775 673.584 72.992C673.642 72.992 673.729 73.021 673.787 72.992C673.918 72.9485 673.86 72.8905 673.657 72.876Z" fill="#32BAD4"/>
<path d="M598.979 74.4274C599.705 74.3404 600.373 73.8909 601.069 73.6009C601.795 73.2964 602.26 72.8614 602.376 71.9625C602.535 70.788 602.782 69.6135 603.377 68.5115C603.769 67.7866 603.159 67.0181 602.535 66.5831C600.764 65.3506 598.791 64.4951 596.613 65.0171C595.031 65.3941 593.391 66.0466 592.738 67.7576C592.288 68.9465 592.143 70.2805 591.432 71.339C590.691 72.4264 591.591 73.7314 590.329 75.0364C593.623 75.0799 596.309 74.7609 598.979 74.4274Z" fill="white"/>
<path d="M608.922 66.6555C609.546 64.7416 608.631 62.2621 607.282 61.6676C606.498 61.3196 605.772 61.2906 604.988 62.2766C607.862 62.3636 607.63 64.9736 608.922 66.67V66.6555Z" fill="white"/>
<path d="M718.114 50.01C718.114 49.0675 717.954 47.98 717.475 47.1971C716.895 46.2401 716.938 45.3846 717.185 44.4566C717.33 43.9201 717.33 43.3981 717.243 42.8907C716.503 39.1207 716.619 35.2783 716.416 31.4649C716.198 27.318 715.85 23.2871 714.529 19.3142C714.035 17.8353 713.498 16.2838 713.324 14.6308C713.15 12.9779 712.424 11.3539 711.176 10.0924C711.176 10.1069 711.176 10.1214 711.19 10.1359C711.19 10.1359 711.176 10.1069 711.161 10.0924C711.118 9.96195 711.06 9.86045 710.973 9.80245C710.479 9.00497 709.957 8.25099 708.897 7.9175C708.389 7.758 707.968 7.17802 707.779 6.39503C707.576 5.56855 707.068 4.66958 705.951 4.36508C705.109 4.13309 704.383 3.50961 703.599 3.07462C703.338 2.92962 702.903 2.66862 703.077 2.49463C703.832 1.79865 703.193 1.66815 702.728 1.55215C700.856 1.11716 698.969 0.725672 697.082 0.319682C696.574 0.203684 696.052 -0.0138094 695.544 0.000690211C691.436 0.189186 687.43 0.812671 683.613 2.48013C680.1 4.01709 676.559 5.48156 673.351 7.6275C671.043 9.17897 668.692 10.7304 666.849 12.8039C665.339 14.5003 663.713 16.1243 662.218 17.8353C660.607 19.6622 659.49 21.9532 657.414 23.3741C657.298 23.4466 657.24 23.6206 657.167 23.7511C654.874 27.724 651.695 31.0589 649.243 34.9158C648.081 36.7428 646.659 38.4248 645.541 40.2952C644.438 42.1367 642.871 43.7171 642.392 45.9211C642.305 46.3126 641.913 46.7331 641.55 46.9506C640.229 47.7625 639.808 49.169 639.097 50.3725C638.879 50.7495 638.952 51.228 638.516 51.5469C636.586 52.9244 635.904 55.1864 635.105 57.1728C633.567 60.9137 631.811 64.5676 630.214 68.2795C629.721 69.425 629.3 70.759 628.472 71.7595C627.819 72.5569 627.514 73.4414 627.282 74.3839C626.295 78.5018 626.585 82.6052 627.543 86.6651C627.892 88.1296 628.646 89.4635 629.996 90.3335C630.679 90.783 631.419 91.2615 631.912 91.885C633.523 93.9149 635.802 94.8284 638.037 95.8869C640.156 96.9019 642.421 97.4238 644.583 98.3083C648.386 99.8598 652.349 100.918 656.369 101.832C658.59 102.339 660.84 102.281 663.06 102.629C667.371 103.311 671.551 102.876 675.804 102.064C682.539 100.788 688.635 98.1198 694.542 94.7704C696.081 93.9004 697.169 92.61 698.65 91.711C701.712 89.8405 704.659 87.7816 706.938 84.9106C707.46 84.2437 707.692 83.4752 708.244 82.8517C711.176 79.4878 713.324 75.6454 714.833 71.484C716.111 67.9895 716.778 64.3211 717.606 60.6962C718.419 57.0858 718.128 53.5334 718.128 49.952L718.114 50.01ZM666.341 69.425C666.457 68.7 667.4 68.265 668.503 68.4535C668.794 68.497 669.084 68.584 669.374 68.642C670.042 68.7725 670.956 68.497 670.956 69.686C670.956 70.759 670.666 71.5855 669.49 71.832C669.127 71.9045 668.765 71.9915 668.634 72.0205C667.11 72.0205 666.123 70.759 666.326 69.425H666.341ZM659.432 66.8151C660.085 66.5831 660.549 67.0471 660.985 67.2356C661.435 67.4386 661.231 68.149 660.84 68.584C660.636 68.8015 660.419 69.0045 660.201 69.222C659.185 70.266 659.199 70.2515 658.111 69.1785C657.85 68.932 657.472 68.816 657.356 68.3375C657.951 67.7576 658.532 67.1341 659.417 66.8296L659.432 66.8151ZM671.943 87.3611C671.769 87.5931 671.522 87.8106 671.261 87.9411C666.762 90.1885 662.262 92.3925 657.182 93.1174C654.41 93.5089 651.87 92.726 649.707 91.2325C647.617 89.797 645.338 89.1735 643.001 88.5791C641.927 88.3036 641.274 87.7961 640.94 86.7811C640.81 86.3606 640.621 85.9401 640.461 85.5196C639.169 82.2282 640.04 79.1833 642.987 77.2258C646.006 75.2249 649.402 74.4129 653.452 74.3549C655.585 74.0939 657.937 74.9059 660.23 75.8629C664.439 77.6028 668.329 79.7923 671.29 83.4172C672.103 84.4031 671.929 85.5196 672.262 86.5636C672.335 86.7811 672.103 87.1291 671.929 87.3611H671.943ZM673.656 74.4999C673.583 74.6014 673.467 74.6739 673.322 74.6739C673.279 74.6739 673.249 74.6739 673.206 74.6739C672.916 74.6304 672.625 74.4999 672.756 74.1374C672.858 73.8329 673.133 73.7169 673.453 73.7604C673.685 73.7894 673.801 73.9634 673.772 74.2099C673.758 74.3259 673.714 74.4274 673.67 74.5144L673.656 74.4999ZM673.787 72.9919C673.787 72.9919 673.656 72.9919 673.583 72.9919C673.54 72.9919 673.496 72.9339 673.453 72.9049C673.525 72.9049 673.583 72.8614 673.656 72.8759C673.874 72.8759 673.917 72.9484 673.787 72.9919ZM680.449 91.131C678.91 89.391 678.852 88.6661 680.115 87.5496C680.71 87.0131 681.189 86.8536 681.668 87.7816C682.408 89.2315 682.466 89.2025 680.449 91.1455V91.131ZM682.263 82.5182C681.682 82.8807 682.611 83.7652 682.19 84.4902C680.681 84.7366 679.694 84.2437 678.867 82.7792C678.199 81.5612 677.778 80.0098 675.949 79.6183C675.078 79.4298 674.875 77.4723 675.311 76.3993C675.557 75.8049 675.717 75.1814 675.949 74.5144C677.067 74.7754 678.039 75.3554 678.91 76.0369C679.491 76.5008 679.825 76.9213 680.753 76.7618C681.653 76.6023 682.582 77.9363 682.51 78.9223C682.481 79.3573 682.147 79.8358 682.437 80.2273C683.047 81.0682 683.598 81.7207 682.292 82.5327L682.263 82.5182ZM710.639 9.72996C710.711 9.72996 710.784 9.72996 710.842 9.72996C710.784 9.72996 710.711 9.71546 710.639 9.72996Z" fill="#151515"/>
<path d="M585.277 84.1277C586.409 84.6497 587.309 85.9257 588.717 85.6937C589.878 85.5052 591.054 85.5342 592.201 85.1862C593.551 84.7802 594.929 84.4322 596.381 84.4612C599.168 84.5047 601.867 83.7507 604.407 82.7792C607.847 81.4888 610.866 79.3573 613.798 77.1389C617.398 74.4129 620.881 71.571 622.855 67.3371C623.871 65.1621 625.105 63.1322 625.947 60.8557C626.934 58.1733 627.602 55.4184 628.458 52.7069C629.314 50.0245 630.025 47.2696 630.025 44.3696C630.025 42.4702 629.866 40.5997 629.851 38.7293C629.837 36.6848 629.401 34.8579 628.676 33.0164C628.676 33.0164 628.69 33.0164 628.705 33.0164C628.095 31.3055 627.863 29.348 626.571 28.014C623.654 24.9836 621.375 21.1992 617.137 19.6477C617.006 19.6042 616.861 19.5027 616.788 19.3722C615.83 17.8208 614.045 17.4728 612.608 16.6753C609.72 15.0804 606.439 15.5733 603.391 15.9358C601.142 16.2113 598.819 17.4003 597.44 19.3142C595.655 21.7937 593.928 24.3601 592.854 27.2746C591.069 32.1319 589.719 37.1488 587.687 41.9192C586.83 43.9202 586.192 46.0226 585.684 48.1251C584.102 54.6064 582.592 61.1022 581.126 67.6126C580.633 69.802 580.096 71.9625 580.154 74.2679C580.226 76.7619 581.112 78.9803 582.099 81.1263C582.679 82.4022 583.782 83.4317 585.277 84.1132V84.1277ZM607.281 61.6677C608.631 62.2622 609.546 64.7417 608.921 66.6556C607.63 64.9591 607.847 62.3492 604.988 62.2622C605.772 61.2762 606.498 61.3052 607.281 61.6532V61.6677ZM591.431 71.339C592.157 70.266 592.288 68.9466 592.738 67.7576C593.391 66.0611 595.031 65.4086 596.613 65.0172C598.79 64.4952 600.764 65.3506 602.535 66.5831C603.145 67.0181 603.769 67.7866 603.377 68.5116C602.782 69.6135 602.535 70.788 602.375 71.9625C602.245 72.847 601.795 73.2965 601.069 73.6009C600.372 73.8909 599.705 74.3404 598.979 74.4274C596.308 74.7609 593.623 75.0799 590.328 75.0364C591.591 73.7314 590.706 72.4265 591.431 71.339Z" fill="#151515"/>
<path d="M677.952 77.7623C678.721 78.1248 678.576 79.0238 679.346 79.2268C679.268 78.4051 678.804 77.917 677.952 77.7623Z" fill="#151515"/>
<g filter="url(#filter0_d_173_1811)">
<path d="M720.973 222.353L712.671 210.492L700.696 196.427L683.177 185.393L669.432 187.844L655.818 186.727L651.158 185.886L647.704 184.132L655.876 172.692L662.219 156.8L661.565 128.903L639.692 123.494H617.006L597.832 127.67L589.428 125.147L584.871 114.678L574.682 96.8439L545.217 96.5974L534.796 109.792L527.974 120.116L514.78 118.303L490.991 116.868L462.02 120.522L441.787 118.84L434.82 104.384L413.731 89.623L391.596 112.503L387.126 122.929L378.576 124.509L367.633 122.871L339.373 122.711L317.746 130.904L323.581 164.905L334.061 175.243L333.611 180.144L322.231 183.015L302.912 197.979L291.881 219.902L291.577 245.335L298.906 272.609L314.306 296.33L340.099 317.268L358.401 329.027L380.696 339.945L390.362 345.571L385.993 360.346L375.238 377.369L364.439 381.356L338.604 395.87L333.378 419.664L351.884 424.797L378.489 424.898L402.772 424.55L430.161 422.405L443.413 422.071L456.534 418.504L481.862 418.707L507.175 419.215L532.474 419.287L544.767 420.273L560.893 418.417L568.411 425L589.414 404.947L609.27 383.763L626.411 362.738L644.337 342.381L661.086 321.037L672.306 302.101L684.135 283.556L699.376 267.418L720.857 249.163L721.423 222.324L721.017 222.382L720.973 222.353ZM625.903 220.758L610.649 242.058L600.126 252.135L600.097 252.846L600.953 251.193L606.686 243.102L608.791 233.75L609.328 218.916L611.911 198.341L626.847 193.151L629.75 198.211L627.079 206.94L625.207 220.468L625.903 220.758Z" fill="white"/>
<path d="M585.407 281.758C585.015 281.41 584.595 280.975 584.478 280.496C584.13 279.032 582.998 278.321 581.909 277.524C580.153 276.233 580.124 276.146 581.242 274.087C581.387 273.827 581.459 273.537 581.561 273.247C583.216 268.273 584.58 263.256 585.175 258.007C585.727 253.078 585.973 248.148 586.061 243.203C586.09 241.942 585.596 241.391 584.522 241.159C582.983 240.825 581.445 240.477 579.877 240.231C576.379 239.694 572.881 239.158 569.34 239.274C565.131 239.404 560.95 239.085 556.77 238.708C553.403 238.404 550.036 238.099 546.668 237.722C545.826 237.635 545.289 237.853 545.159 238.636C544.955 239.854 544.128 240.782 543.722 241.869C542.532 245.03 540.064 247.133 537.495 248.771C533.46 251.338 529.135 253.556 524.606 255.165C520.803 256.514 516.87 257.239 512.733 256.427C507.813 255.455 502.66 255.528 498.088 252.99C496.854 252.309 495.534 251.787 494.402 250.903C492.877 249.699 491.426 248.278 489.699 247.495C488.262 246.843 487.144 245.973 486.143 244.856C484.096 242.609 482.514 240.129 481.803 237.113C481.426 235.504 481.092 235.431 479.611 235.518C476.476 235.692 473.327 235.982 470.206 235.924C465.155 235.823 460.133 236.287 455.111 236.678C451.976 236.925 448.841 237.287 445.676 237.476C442.904 237.635 440.117 237.65 437.374 238.186C435.095 238.636 432.788 239.042 430.48 239.317C423.643 240.173 416.851 241.347 410.174 242.957C404.513 244.32 398.751 245.219 393.163 246.93C390.55 247.727 387.865 248.481 385.122 248.887C384.411 248.989 383.758 249.177 383.946 250.149C384.062 250.743 383.801 251.309 383.787 251.903C383.758 253.396 384.164 254.904 383.917 256.34C383.293 259.936 383.874 263.401 384.846 266.809C386.501 272.58 387.27 278.582 389.81 284.107C390.086 284.716 390.173 285.412 390.289 286.079C390.405 286.688 390.289 287.253 389.926 287.79C388.736 289.486 386.167 290.008 384.353 288.906C382.306 287.674 381.261 285.658 380.289 283.643C378.939 280.888 378.097 277.944 377.125 275.044C375.339 269.68 373.96 264.271 374.918 258.515C375.151 257.123 374.947 255.673 374.947 254.121C374.454 254.281 374.352 254.672 374.135 254.948C371.507 258.268 368.648 261.284 364.787 263.285C361.173 265.156 357.472 266.765 353.698 268.273C351.245 269.245 348.937 269.216 346.513 268.433C343.727 267.548 340.925 266.678 338.095 265.91C332.986 264.518 328.574 262.096 324.829 258.225C323.421 256.76 322.84 255.368 322.84 253.512C322.84 252.657 324.176 250.975 324.974 251.106C326.948 251.396 329.038 251.483 330.359 253.382C332.057 255.832 334.554 257.137 337.239 258.283C340.359 259.617 343.799 259.965 346.833 261.516C348.284 262.256 349.866 260.893 351.347 261.719C352.029 260.733 353.306 260.98 354.221 260.284C355.556 259.269 357.167 258.602 358.793 257.978C360.07 257.485 361.492 257.152 362.654 256.369C363.945 255.499 365.121 254.426 366.311 253.397C368.604 251.41 370.695 249.293 371.914 246.408C372.77 244.363 373.728 242.333 374.933 240.477C376.312 238.331 377.647 236.243 378.111 233.648C379.142 227.993 378.91 222.425 377.095 217.002C375.992 213.696 373.917 210.84 371.885 208.042C369.49 204.75 366.558 201.966 362.857 200.096C362.465 199.893 362.117 199.632 361.754 199.371C358.154 196.746 354.221 194.992 349.678 194.963C346.746 194.948 343.828 194.847 340.896 195.253C335.381 196.036 329.909 196.877 324.785 199.313C319.865 201.647 316.12 205.258 313.246 209.767C311.359 212.739 309.748 215.9 308.094 219.032C307.295 220.555 306.483 222.121 306.149 223.817C305.249 228.414 304.944 233.053 305.118 237.737C305.162 238.926 304.828 240.173 305.046 241.318C306.163 246.988 306.802 252.73 308.253 258.341C310.184 265.823 313.391 272.594 318.457 278.466C320.025 280.279 321.316 282.309 322.71 284.252C324.451 286.688 326.454 288.979 328.603 291.067C330.417 292.85 332.58 294.271 334.612 295.822C337.239 297.838 339.779 299.94 342.74 301.506C345.526 302.985 348.168 304.711 350.665 306.697C353.597 309.032 356.92 310.743 360.375 312.251C365.266 314.397 369.983 316.905 374.86 319.065C377.531 320.254 380.027 321.791 382.771 322.85C385.485 323.894 388.17 325.17 390.652 326.692C392.408 327.78 394.223 328.577 396.138 329.23C399.056 330.216 402.046 331.086 404.818 332.333C408.621 334.044 412.467 335.682 416.314 337.219C421.031 339.104 425.922 340.612 430.93 341.714C435.995 342.83 441.075 343.86 446.17 344.817C449.378 345.426 452.614 345.15 455.837 345.556C462.702 346.426 469.654 346.47 476.578 346.542C480.555 346.586 484.561 346.702 488.523 346.412C491.818 346.18 495.113 345.962 498.408 345.716C501.398 345.484 504.417 345.295 507.392 344.991C510.527 344.657 513.677 344.556 516.812 344.208C520.702 343.787 524.592 343.323 528.438 342.642C534.505 341.569 540.441 339.843 546.378 338.176C548.207 337.668 550.05 337.132 552.024 336.943C553.301 336.813 554.869 336.523 556.132 335.465C557.409 334.392 559.064 333.348 560.646 333.159C563.215 332.869 565.073 331.825 566.597 329.897C566.974 329.418 567.453 328.983 568.048 328.853C568.759 328.693 569.224 328.302 569.688 327.78C571.125 326.185 573.491 325.677 574.565 323.647C574.594 323.589 574.681 323.546 574.754 323.517C577.773 322.531 579.094 319.558 581.401 317.746C582.011 317.267 582.316 316.412 583.245 316.238C583.52 316.18 583.869 315.716 583.927 315.397C584.246 313.599 585.567 312.396 586.467 310.946C588.107 308.292 589.123 305.363 589.791 302.376C590.72 298.2 589.994 293.996 589.515 289.82C589.138 286.659 587.904 283.904 585.451 281.743L585.407 281.758ZM477.594 296.808C475.968 298.171 474.241 298.606 472.165 298.461C466.795 298.099 463.123 295.329 460.554 290.762C459.306 288.544 458.739 286.166 458.449 283.701C458.028 279.945 457.912 276.161 458.449 272.435C459.131 267.621 461.802 263.793 465.387 260.603C467.753 258.486 470.307 256.702 473.385 255.644C476.186 254.687 478.363 252.875 479.336 249.917C479.437 249.627 479.582 249.366 479.727 249.105C480.54 247.539 482.122 247.292 483.138 247.669C483.893 247.945 484.328 249.699 483.879 250.888C483.371 252.222 482.746 253.498 482.137 254.861C482.964 255.586 483.951 255.542 484.895 255.658C486.056 255.789 488.683 257.804 488.596 258.79C488.552 259.283 488.625 259.907 488.378 260.356C488.233 260.603 487.725 260.661 487.377 260.762C485.707 261.299 484.038 261.27 482.282 261.183C478.9 261.023 475.504 261.342 472.383 263.648C474.401 264.547 475.823 265.852 477.245 267.142C479.8 269.462 481.063 272.536 481.774 275.769C482.456 278.916 482.892 282.149 482.63 285.397C482.267 289.762 481.193 293.807 477.594 296.808ZM533.881 308.481C533.823 310.467 533.402 312.396 532.691 314.252C532.27 315.368 532.357 316.629 531.704 317.688C530.905 319.007 530.426 320.573 528.815 321.24C528.627 321.327 528.38 321.487 528.322 321.675C527.756 323.502 526.029 324.14 524.722 325.228C520.847 328.49 516.217 329.853 511.34 330.52C510.309 330.665 509.235 330.854 508.277 331.115C505.766 331.782 503.357 331.187 500.919 330.912C500.149 330.825 499.438 330.578 498.785 329.882C498.103 329.143 496.898 328.679 495.824 329.317C495.345 329.592 494.997 329.462 494.561 329.462C492.921 329.476 492.123 327.04 490.192 327.983C488.625 327.258 487.086 326.475 485.664 325.503C484.445 324.677 483.748 323.401 482.877 322.27C480.598 319.283 479.074 315.991 479.045 312.149C479.045 310.293 479.379 308.64 480.671 307.147C483.719 303.623 487.347 301.347 492.05 300.607C497.769 299.708 503.284 299.766 508.394 302.869C509.163 303.333 509.627 303.145 510.164 302.666C510.89 302.014 511.572 301.303 512.356 300.723C514.78 298.911 517.523 297.968 520.557 297.997C523.88 298.026 527.103 298.418 530.122 299.984C532.081 300.999 533.344 302.391 533.387 304.711C533.416 305.987 534.084 307.19 533.866 308.51L533.881 308.481ZM559.339 259.457C558.556 259.791 557.685 260.501 556.712 260.081C555 259.327 553.287 259.878 551.589 260.052C550.558 260.153 549.513 260.284 548.497 260.472C547.234 260.69 547.133 261.255 548.062 262.227C551.589 265.91 554.158 270.115 555.406 275.102C556.059 277.683 555.711 280.25 555.116 282.686C554.245 286.282 552.75 289.675 549.76 292.169C549.136 292.691 548.671 293.401 548.12 294.01C546.639 295.648 545.376 295.982 543.33 295.257C542.982 295.126 542.59 294.866 542.27 294.924C539.396 295.489 537.684 293.401 535.768 291.98C533.75 290.487 532.459 288.413 531.965 285.803C531.515 283.469 530.368 281.265 530.717 278.988C530.659 275.987 531.094 273.218 531.413 270.477C531.747 267.548 533.112 264.88 535.086 262.43C537.495 259.443 540.471 257.514 543.852 255.963C545.028 255.426 545.797 254.339 546.625 253.368C547.742 252.048 548.802 250.671 550.036 249.482C550.66 248.873 551.371 248.119 552.59 248.655C553.708 249.134 553.563 250.047 553.751 250.888C553.824 251.178 553.809 251.497 553.737 251.787C553.49 252.817 554.013 253.208 554.927 253.179C556.465 253.15 557.641 253.947 558.831 254.774C559.688 255.368 560.123 256.151 560.109 257.253C560.109 258.123 560.094 259.138 559.354 259.457H559.339Z" fill="#32BAD4"/>
<path d="M468.131 228.269C471.788 228.022 475.431 227.384 479.118 227.413C480.294 227.413 480.715 226.848 480.845 225.818C480.991 224.629 481.092 223.426 481.324 222.251C482.355 217.191 483.864 212.392 488.03 208.868C489.09 207.969 490.41 207.679 491.47 206.896C493.705 205.258 496.173 205.751 498.582 206.055C499.975 206.229 501.427 206.534 502.603 207.433C505.143 209.39 506.362 214.306 505.056 217.307C504.083 219.554 503.575 221.918 503.503 224.325C503.43 227.341 504.344 229.951 507.16 231.56C507.479 231.749 507.813 231.952 508.075 232.213C510.02 234.025 512.182 235.388 514.853 235.91C518.467 236.621 522.72 234.344 524.07 230.937C525.158 228.182 525.652 225.325 525.84 222.382C525.942 220.816 525.942 219.351 525.666 217.742C525.1 214.436 524.737 210.927 528.163 208.593C528.467 208.39 528.772 208.114 528.946 207.795C529.396 206.954 530.108 206.722 530.993 206.693C531.588 206.664 532.169 206.418 532.764 206.389C535.957 206.215 539.107 206.157 541.313 209.158C541.792 209.796 542.517 210.289 543.214 210.739C546.625 212.928 549.005 215.814 549.368 220.004C549.659 223.353 549.586 226.674 548.672 229.965C549.528 230.56 550.5 230.603 551.473 230.705C553.258 230.908 555.043 231.111 556.829 231.372C558.483 231.604 558.788 231.343 558.295 229.748C557.525 227.312 556.713 224.89 555.871 222.469C553.766 216.481 550.588 211.101 546.625 206.157C545.754 205.069 544.491 204.533 543.635 203.503C541.429 200.85 538.758 198.834 535.58 197.486C534.955 197.225 534.36 196.862 533.823 196.471C531.849 195.079 529.701 194.006 527.393 193.339C520.136 191.251 512.792 191.005 505.346 192.397C503.14 192.803 500.977 193.426 498.727 193.658C497.929 193.745 496.797 193.426 496.231 194.311C495.592 195.326 494.678 195.369 493.676 195.297C492.878 195.239 491.934 195.442 491.673 196.065C491.267 197.036 490.454 197.109 489.757 197.457C483.893 200.386 478.247 203.474 474.372 209.144C471.774 212.943 468.682 217.742 466.433 223.31C466.258 223.73 466.055 224.151 465.605 224.325C465.257 224.455 465.126 224.731 465.184 225.021C465.402 226.152 464.676 227.094 464.415 228.196C465.765 228.153 466.955 228.312 468.16 228.225L468.131 228.269Z" fill="white"/>
<path d="M571.561 145.911C571.619 140.299 571.633 134.673 571.561 129.062C571.532 126.974 571.401 124.872 571.198 122.784C570.98 120.478 569.587 118.999 568.426 117.317C567.308 115.693 566.553 113.924 566.002 112.054C565.61 110.72 565.174 109.386 563.767 108.647C563.273 108.386 562.809 107.806 562.649 107.284C562.315 106.24 561.618 106.124 560.718 106.211C558.382 106.428 556.408 107.356 555.029 109.285C554.419 110.14 553.839 110.995 553.113 111.764C550.442 114.533 548.004 117.448 546.741 121.189C546.219 122.726 545.348 124.161 544.622 125.626C543.17 128.54 541.995 131.599 540.587 134.891C551.212 139.284 561.589 143.779 571.067 150.754C571.271 148.898 571.575 147.419 571.59 145.925L571.561 145.911Z" fill="white"/>
<path d="M405.631 145.679C405.733 146.172 405.849 146.65 405.994 147.114C406.081 147.39 406.168 147.665 406.284 147.912C406.328 147.999 406.357 148.1 406.401 148.187C406.502 148.405 406.604 148.608 406.734 148.811C407.126 149.463 407.663 150.043 408.404 150.507C410.334 149.391 412.279 148.303 414.209 147.187C414.848 146.81 415.501 146.433 416.125 146.056C420.407 143.46 424.863 141.126 429.493 139.154C430.698 138.646 430.814 137.936 430.524 136.892C429.972 134.862 429.435 132.832 428.854 130.802C428.143 128.279 427.388 125.814 426.271 123.393C425.284 121.261 424.137 119.159 423.499 116.795C422.991 114.954 421.946 113.185 420.509 111.619C418.767 109.705 416.851 107.907 415.371 105.718C414.137 103.876 411.51 104.036 409.957 105.718C408.999 106.762 408.026 107.82 406.938 108.719C406.343 109.212 406.154 109.778 405.994 110.43C405.341 112.938 406.154 115.664 404.877 118.086C405.791 119.942 404.644 121.783 404.833 123.654C405.022 125.51 404.862 127.409 404.848 129.294C404.789 134.775 404.47 140.256 405.631 145.708V145.679Z" fill="white"/>
<path d="M406.401 148.187C406.357 148.1 406.314 148.013 406.285 147.912C406.328 147.999 406.357 148.1 406.401 148.187Z" fill="white"/>
<path d="M487.711 229.298C488.843 233.561 490.397 237.606 493.27 241.057C495.535 243.798 498.133 245.944 501.747 246.654C502.502 246.799 503.271 247.191 503.997 247.597C508.975 250.352 514.244 250.888 519.687 249.25C523.548 248.09 527.684 247.626 530.863 244.726C531.4 244.247 532.198 244.059 532.866 243.725C533.2 243.566 533.606 243.464 533.838 243.203C534.738 242.188 535.711 241.202 536.393 240.057C537.032 238.984 538.207 238.52 538.643 237.099C539.426 234.576 540.225 232.01 541.517 229.603C542.779 227.268 542.881 224.499 542.837 221.889C542.794 219.192 542.504 216.422 539.412 215.147C538.512 214.77 537.699 214.204 536.814 213.798C535.029 212.957 533.214 214.117 533.301 216.045C533.359 217.321 533.388 218.626 533.664 219.859C534.796 224.702 533.011 229.052 530.747 232.967C528.874 236.2 526.03 238.897 522.27 240.448C518.38 242.058 514.621 242.493 510.76 240.651C510.209 240.39 509.657 240.231 509.077 240.071C507.059 239.506 504.998 238.984 503.068 238.172C501.515 237.519 499.874 236.693 500.223 234.446C500.281 234.083 499.962 233.605 499.584 233.648C498.554 233.808 498.481 232.952 498.307 232.416C497.668 230.473 497.073 228.501 497.146 226.398C497.189 225.34 497.262 224.281 496.754 223.295C496.188 222.222 496.246 221.164 496.638 220.033C497.16 218.467 497.581 216.857 498.002 215.263C498.176 214.581 498.162 213.943 497.334 213.581C493.285 211.855 489.105 214.784 488.379 218.017C487.813 220.613 487.131 223.266 487.261 226.036C487.029 227.152 487.378 228.24 487.668 229.327L487.711 229.298Z" fill="white"/>
<path d="M681.174 237.142C680.434 234.88 679.288 232.909 677.401 231.691C674.832 230.038 672.292 228.254 669.345 227.239C667.487 226.601 665.586 226.224 663.946 226.094C660.012 226.05 656.964 227.21 654.7 229.719C650.549 234.301 650.171 240.55 654.047 245.306C655.629 247.249 657.908 248.568 659.301 250.743C659.591 251.193 660.274 251.454 660.84 251.642C663.83 252.643 666.849 253.687 670.056 252.744C671.609 252.295 673.119 251.686 674.599 250.946C677.589 249.482 680.26 247.901 681 244.349C681.131 243.725 682.307 244.03 681.973 243.029C681.349 241.13 681.799 239.1 681.16 237.128L681.174 237.142Z" fill="white"/>
<path d="M378.62 173.46C379.259 174.402 380.216 175.04 381.102 175.736C381.595 174.939 382.727 175.214 383.25 174.446C383.308 174.359 383.54 174.431 383.685 174.388C384.876 174.069 385.006 172.836 385.674 172.083C386.298 171.372 385.514 170.792 385.238 170.27C383.787 167.646 382.234 165.108 379.868 163.136C378.939 162.353 377.894 161.715 377.023 160.903C375.819 159.772 374.585 158.728 373.235 157.771C370.172 155.596 366.66 154.407 363.235 153.015C361.377 152.261 359.432 151.667 357.022 151.464C356.108 152.058 354.613 151.986 353.336 152.711C352.421 153.233 352.102 154.001 352.174 154.958C352.247 155.915 353.045 156.176 353.771 156.307C355.658 156.64 357.371 157.409 359.011 158.322C360.97 159.424 362.901 160.599 364.831 161.773C365.847 162.397 367.037 162.701 367.937 163.542C371.493 166.863 375.833 169.342 378.62 173.489V173.46Z" fill="white"/>
<path d="M592.724 174.185C593.173 175.055 593.594 174.925 594.277 174.461C597.615 172.17 600.837 169.719 604.393 167.718C608.936 165.166 613.537 162.948 618.675 161.889C620.809 161.454 622.885 160.802 624.975 160.193C625.904 159.917 627.558 157.684 627.486 156.858C626.644 156.771 627.123 155.567 626.354 155.422C624.888 155.161 623.509 154.639 621.927 154.915C618.588 155.495 615.323 156.35 612.057 157.206C606.12 158.757 600.75 161.585 595.786 165.253C594.233 166.413 592.999 168.052 591.025 168.675C590.314 168.907 590.024 169.487 590.517 170.299C591.301 171.575 592.041 172.866 592.724 174.2V174.185Z" fill="white"/>
<path d="M542.866 187.858C546.684 186.539 548.382 183.392 548.788 179.782C549.195 176.186 547.38 173.257 544.318 171.256C542.997 170.386 541.516 170.328 539.978 170.821C535.914 172.155 533.795 174.895 533.621 179.579C533.664 181.986 534.579 184.48 536.611 186.466C538.381 188.192 540.5 188.67 542.852 187.858H542.866Z" fill="white"/>
<path d="M481.789 188.09C484.387 187.728 485.954 186.06 486.651 183.639C487.58 180.434 487.115 177.346 485.359 174.533C483.414 171.416 479.887 170.879 476.97 173.155C474.807 174.837 473.777 177.085 473.704 179.724C473.733 181.797 474.081 183.711 475.272 185.364C476.868 187.597 479.103 188.467 481.789 188.09Z" fill="white"/>
<path d="M432.135 412.82H433.006C433.006 412.82 433.006 412.762 433.006 412.733C432.73 412.733 432.454 412.733 432.178 412.733C432.178 412.733 432.149 412.791 432.149 412.806L432.135 412.82Z" fill="#32BAD4"/>
<path d="M528.424 304.783C528.424 304.783 528.424 304.769 528.424 304.754C528.337 304.682 528.163 304.551 527.843 304.392C525.971 303.42 523.779 303 520.528 302.971H520.456C518.569 302.971 516.899 303.536 515.346 304.696C515.042 304.928 514.679 305.276 514.287 305.639C514.026 305.885 513.75 306.132 513.489 306.378C512.197 307.524 510.745 308.118 509.207 308.118C508.046 308.118 506.899 307.785 505.81 307.118C503.517 305.726 500.992 305.073 497.856 305.073C496.376 305.073 494.736 305.218 492.849 305.523C489.554 306.045 486.898 307.596 484.474 310.395C484.285 310.612 484.053 310.888 484.053 312.106C484.068 314.484 484.968 316.76 486.869 319.24C487.116 319.559 487.362 319.907 487.595 320.24C487.885 320.646 488.306 321.255 488.495 321.386C489.278 321.922 490.12 322.386 490.919 322.792C490.977 322.792 491.035 322.792 491.078 322.792C492.98 322.792 494.388 323.589 495.302 324.242C495.839 324.111 496.39 324.053 496.942 324.053C498.785 324.053 500.6 324.778 502.008 326.054C502.385 326.098 502.748 326.156 503.125 326.199C504.098 326.33 505.027 326.46 505.81 326.46C506.289 326.46 506.667 326.417 507.03 326.315C508.089 326.04 509.323 325.793 510.702 325.605C515.564 324.938 518.917 323.647 521.544 321.429C522.096 320.965 522.633 320.588 523.083 320.298C523.286 320.153 523.547 319.979 523.721 319.849C524.229 318.558 525.216 317.485 526.523 316.833C526.624 316.659 526.74 316.427 526.842 316.238C527.002 315.948 527.161 315.629 527.364 315.281C527.393 315.151 527.437 314.948 527.466 314.788C527.582 314.194 527.727 313.367 528.061 312.468C528.598 311.062 528.888 309.67 528.932 308.336V308.002L528.961 307.901C528.932 307.77 528.888 307.567 528.845 307.408C528.685 306.741 528.468 305.842 528.453 304.769L528.424 304.783Z" fill="#C67355"/>
<path d="M713.236 223.208C711.582 221.729 709.738 220.845 707.503 221.062C706.342 221.164 705.791 220.845 705.95 219.598C706.139 218.061 705.703 216.596 705.123 215.204C703.28 210.826 700.856 207.056 695.514 206.563C694.542 206.476 694.048 205.925 693.903 204.997C693.54 202.459 692.292 200.342 690.87 198.283C690.623 197.921 690.333 197.587 690.158 197.152C689.288 195.064 687.517 193.919 685.543 193.194C682.175 191.947 678.866 192.803 675.658 193.919C674.062 194.47 672.581 195.543 671.057 196.036C668.619 196.833 666.834 198.182 665.223 200.009C664.845 200.444 664.715 201.125 664.047 201.256C663.96 201.227 663.844 201.212 663.815 201.169C663.495 200.661 663.176 200.154 662.871 199.646C660.433 195.441 656.659 193.6 651.971 194.107C649.286 194.397 646.571 194.441 643.872 195.499C640.969 196.616 638.806 198.312 636.861 200.502C634.336 203.344 632.594 206.519 632.362 210.492C632.173 213.653 631.97 216.799 632.405 219.931C632.565 221.077 632.667 222.106 632.347 223.252C631.897 224.861 631.23 226.34 630.431 227.805C628.414 231.502 625.743 234.779 623.58 238.389C622.289 240.55 620.649 242.348 618.878 244.102C616.904 246.045 615.06 248.148 613.232 250.236C609.951 253.948 606.715 257.703 603.957 261.835C601.678 265.257 599.08 268.476 596.845 271.927C595.698 273.711 594.522 275.581 592.432 276.509C592.113 276.654 591.823 277.089 591.474 276.712C590.705 275.857 589.559 275.523 588.731 274.74C588.151 274.189 587.788 273.725 588.194 272.797C588.963 271.014 589.559 269.158 590.197 267.316C591.779 262.749 592.737 258.022 592.868 253.223C592.955 249.699 593.245 246.248 593.898 242.725C595.611 243.116 597.15 242.609 598.703 241.971C600.43 241.26 601.533 239.883 601.547 238.056C601.547 235.808 601.46 233.561 601.518 231.314C601.562 229.661 601.678 228.008 601.896 226.369C602.099 224.832 601.765 223.194 602.651 221.744C602.854 221.396 602.883 220.932 602.941 220.468C603.086 219.032 602.389 217.872 601.997 216.596C601.301 214.378 601.591 212.029 601.489 209.738C601.359 206.867 601.446 204.011 601.025 201.14C600.648 198.559 600.023 195.992 600.125 193.397C600.851 193.006 601.547 193.209 602.215 193.18C605.786 192.948 609.371 192.846 612.825 191.657C615.22 190.831 617.659 190.077 620.126 189.497C627.398 187.786 634.074 184.842 639.982 180.231C643.872 177.186 647.007 173.489 649.474 169.226C651.332 166.022 652.377 162.484 653.567 158.989C654.685 155.727 655.149 152.218 657.211 149.333C658.372 147.723 659.228 145.94 659.634 144.069C660.694 139.255 660.099 136.718 655.991 134.862C652.232 133.165 648.241 132.063 644.06 131.773C642.217 131.643 640.388 131.933 638.588 131.773C636.716 131.599 634.858 131.556 632.986 131.628C630.823 131.701 628.675 131.759 626.512 131.715C622.681 131.628 618.863 131.875 615.031 132.034C610.808 132.194 606.831 133.832 602.622 134.122C601.504 134.195 600.415 134.514 599.312 134.789C595.147 135.833 591.228 137.486 587.425 139.429C585.262 140.531 582.983 141.445 581.169 143.156C580.995 143.33 580.603 143.272 580.197 143.344C580.153 142.46 580.081 141.648 580.081 140.85C580.081 135.123 580.545 129.396 580.168 123.654C580.023 121.464 579.485 119.536 578.382 117.694C576.96 115.302 575.799 112.779 574.58 110.271C572.373 105.761 569.296 102.093 564.594 99.7438C559.862 97.3948 554.216 98.5548 550.369 102.006C547.496 104.601 545.725 108.154 543.025 110.923C542.88 111.082 542.822 111.329 542.706 111.517C541.051 114.069 540.137 116.94 539.208 119.797C537.872 123.915 535.39 127.612 534.708 132.063C530.76 130.947 526.929 129.918 523.14 128.801C521.282 128.25 519.352 127.931 517.48 127.482C514.214 126.699 511.021 125.35 507.566 125.626C506.753 125.684 505.912 125.916 505.113 125.8C500.904 125.191 496.637 125.292 492.442 125.481C489.205 125.626 485.983 125.597 482.761 125.655C481.251 125.684 479.698 125.495 478.247 125.8C473.82 126.699 469.35 127.235 464.908 127.989C456.374 129.439 447.926 131.078 439.929 134.557C439.116 134.905 438.231 135.529 437.287 135.253C435.821 129.947 434.762 124.669 432.628 119.666C431.597 117.23 430.044 114.939 429.899 112.112C429.856 111.242 429.362 110.314 428.854 109.459C426.532 105.486 423.019 102.716 419.507 99.9178C419.202 99.6713 418.897 99.5553 418.534 99.4393C417.33 99.0478 416.183 98.4968 415.022 98.0183C412.801 97.0903 410.435 96.8003 408.316 98.2213C405.268 100.266 402.336 102.31 400.986 106.124C399.607 110.024 398.461 113.939 397.677 117.984C397.329 119.826 397.14 121.696 397.009 123.567C396.777 127.09 396.603 130.614 396.893 134.151C397.067 136.312 397.401 138.501 397.111 140.792C395.152 139.734 393.395 138.82 391.741 137.631C389.36 135.935 386.632 134.862 383.729 134.296C382.001 133.963 380.274 133.615 378.547 133.223C375.789 132.6 373.133 131.469 370.274 131.281C368.924 131.194 367.472 131.411 366.253 130.976C364.091 130.193 361.899 129.961 359.664 129.729C353.335 129.062 347.065 129.541 340.795 130.498C337.602 130.976 334.437 131.57 331.186 131.744C328.603 131.875 325.99 132.6 324.698 135.152C323.203 138.124 322.376 141.3 323.45 144.678C325.54 151.305 328.675 157.452 332.072 163.484C332.652 164.514 333.421 165.413 334.379 166.21C336.339 167.834 338.356 169.342 340.417 170.836C342.856 172.605 345.178 174.634 347.225 176.911C347.805 177.549 348.458 178.172 349.184 178.723C350.316 179.579 351.724 180.26 352.522 181.348C353.916 183.233 355.817 184.175 357.82 184.958C360.404 185.973 363.075 186.8 365.731 187.612C366.398 187.815 367.008 188.003 367.501 188.511C369.693 190.686 372.669 191.309 375.455 192.687C373.394 193.672 373.888 196.021 372.973 197.79C370.52 195.818 367.951 194.383 365.557 192.701C362.175 190.338 358.473 188.699 354.467 187.873C352.363 187.438 350.229 186.365 347.979 187.438C347.689 187.583 347.225 187.612 346.934 187.496C344.757 186.524 342.551 187.046 340.316 187.235C338.516 187.38 336.803 187.858 335.047 188.235C333.073 188.656 330.823 188.598 329.169 189.569C327.34 190.642 325.351 190.367 323.581 191.208C323.377 191.309 323.174 191.396 322.956 191.483C320.213 192.658 317.862 194.542 315.409 196.152C312.753 197.906 310.866 200.647 308.819 203.141C306.831 205.577 305.641 208.462 304.073 211.13C302.549 213.697 301.751 216.669 300.169 219.221C299.167 220.845 299.733 222.686 299.167 224.412C298.659 225.92 299.675 227.848 298.282 229.327C298.224 229.385 298.296 229.574 298.34 229.704C298.862 231.676 298.601 233.706 298.674 235.707C298.761 238.143 298.253 240.506 298.775 243.015C299.82 248.061 300.256 253.237 301.519 258.254C303.072 264.431 304.959 270.477 308.457 275.9C309.429 277.408 310.285 278.945 311.432 280.351C312.709 281.903 314.161 283.309 315.235 285.064C316.744 287.529 318.442 289.95 320.387 292.082C322.303 294.184 324.19 296.359 326.367 298.23C327.906 299.549 329.604 300.694 331.041 302.101C333.102 304.131 335.526 305.697 337.935 307.161C341.085 309.09 344.206 311.018 347.167 313.237C349.634 315.093 352.276 316.659 355.034 318.036C357.095 319.065 359.286 319.834 361.304 320.936C363.612 322.183 365.948 323.372 368.358 324.445C371.087 325.663 373.743 327.04 376.442 328.345C378.605 329.389 380.884 330.259 382.916 331.506C384.948 332.753 387.285 333.145 389.317 334.609C392.365 336.828 396.211 337.741 399.854 338.713C401.828 339.235 403.57 340.22 405.544 340.684C406.792 340.989 406.908 341.496 406.037 342.381C404.426 344.019 403.367 346.02 402.031 347.833C400.783 349.529 400.159 351.588 398.809 353.241C394.716 358.273 391.654 363.985 388.606 369.684C385.862 374.802 384.338 380.414 382.437 385.865C382.074 386.895 381.827 387.315 380.681 387.257C379.04 387.17 377.357 387.257 375.731 387.46C373.119 387.794 370.55 388.359 367.937 388.664C364.497 389.07 361.086 389.737 357.951 391.129C354.961 392.463 352 393.927 349.344 395.899C346.847 397.755 344.148 399.278 341.941 401.626C339.416 404.309 337.761 407.238 337.166 410.805C337.007 411.762 337.036 412.82 337.645 413.589C338.719 414.937 340.795 414.676 341.927 416.025C343.582 415.459 345.178 416.271 346.818 416.3C353.742 416.387 360.651 416.039 367.574 416.561C371.682 416.866 375.789 416.46 379.911 416.474C385.456 416.503 391.015 416.112 396.574 416.344C397.706 416.387 399.23 415.575 399.825 417.417C399.84 417.475 400.116 417.504 400.232 417.46C401.48 416.851 403.105 417.765 404.209 416.431C404.397 416.199 404.92 416.184 405.297 416.199C407.489 416.3 409.637 415.764 411.814 415.691C416.502 415.517 421.132 414.865 426.198 413.545C424.645 413.574 423.6 413.792 422.482 413.502C422.874 411.066 422.671 408.557 423.919 406.31C424.064 406.063 424.093 405.73 424.137 405.44C424.529 403.265 424.297 400.96 425.559 398.973C425.777 398.625 425.821 398.045 425.705 397.654C425.371 396.508 425.763 395.464 425.98 394.377C426.329 392.593 427.243 390.94 427.649 389.229C428.433 385.894 429.682 382.791 431.118 379.732C433.688 374.266 437.055 369.307 440.771 364.565C441.467 363.681 442.324 363.536 443.151 363.811C443.848 364.043 444.588 364.681 444.573 365.566C444.559 366.798 444.849 368.031 444.341 369.307C443.891 370.394 443.02 371.351 442.788 372.337C442.498 373.613 441.975 374.73 441.395 375.803C440.916 376.687 440.582 377.601 440.175 378.5C438.855 381.371 438.274 384.502 436.823 387.315C436.402 388.142 435.734 389.055 435.691 389.882C435.444 394.043 433.252 397.668 432.744 401.786C432.338 405.15 430.523 408.224 430.131 411.675C429.928 413.487 429.957 413.821 431.757 413.85C436.271 413.908 440.785 414.053 445.285 413.879C447.476 413.792 449.421 412.965 450.161 410.384C450.539 409.05 451.148 407.774 451.497 406.397C451.7 405.628 451.976 404.802 452.643 404.236C456.882 400.67 460.22 396.131 464.836 392.941C465.445 392.521 466.853 392.347 466.229 390.94C467.056 390.447 468.014 390.418 468.856 389.722C475.257 384.517 482.877 382.385 490.889 381.414C494.924 380.921 499.003 380.979 503.052 381.153C505.679 381.269 508.35 381.69 510.701 382.849C514.867 384.923 519.221 386.605 523.372 388.722C525.782 389.954 528.482 390.795 530.398 392.738C532.85 395.232 534.766 398.176 536.247 401.351C537.452 403.946 538.163 406.73 539.034 409.427C539.629 411.283 540.95 411.921 542.343 412.4C542.923 412.603 543.78 412.704 544.506 412.791C545.13 412.864 546.16 413.502 546.015 411.965C545.972 411.559 546.436 411.573 546.842 411.515C547.728 411.399 548.613 411.225 549.528 411.254C552.561 411.356 555.508 410.602 558.483 410.152C560.007 409.92 561.415 409.471 563.07 409.848C564.129 410.094 565.508 410.297 566.597 409.674C568.15 408.76 569.891 408.63 571.575 408.528C572.939 408.456 573.955 407.948 574.797 407.006C577.352 404.135 580.269 401.656 583.027 399.002C585.233 396.871 587.57 394.884 589.733 392.709C594.508 387.91 598.906 382.748 603.42 377.717C605.67 375.194 608.064 372.801 610.024 370.003C611.606 367.741 613.449 365.638 615.235 363.55C620.112 357.838 625.496 352.56 629.88 346.412C632.275 343.048 635.119 340.017 637.819 336.886C641.738 332.347 645.468 327.649 649.01 322.792C650.911 320.182 653.016 317.732 654.961 315.151C657.486 311.787 660.142 308.51 662.029 304.725C662.436 303.928 662.523 303 663.118 302.275C664.99 300.042 666.18 297.374 667.908 295.04C669.911 292.328 671.711 289.486 673.409 286.572C675.47 283.048 677.807 279.655 680.231 276.364C681.551 274.581 681.856 272.043 684.178 270.985C684.338 270.912 684.367 270.593 684.483 270.405C685.819 268.36 687.299 266.403 688.373 264.199C688.722 263.474 689.157 263.01 690.144 263.314C691.247 263.648 692.22 263.068 692.96 262.314C693.468 261.806 694.048 261.458 694.672 261.284C695.95 260.907 696.908 260.095 697.938 259.327C699.97 257.804 702.002 256.267 704.107 254.832C706.4 253.266 708.447 251.454 710.217 249.337C710.609 249.264 710.754 248.96 710.9 248.655C712.293 247.075 713.73 245.538 715.036 243.899C716.168 242.478 717.17 240.883 717.286 239.056C717.591 234.359 717.199 229.733 714.731 225.528C714.281 224.76 713.991 223.948 713.265 223.295L713.236 223.208ZM591.024 168.661C592.998 168.037 594.232 166.399 595.785 165.239C600.749 161.57 606.105 158.743 612.056 157.191C615.307 156.336 618.588 155.48 621.926 154.9C623.522 154.625 624.901 155.147 626.353 155.408C627.122 155.538 626.643 156.756 627.485 156.843C627.557 157.67 625.903 159.917 624.974 160.178C622.884 160.787 620.794 161.44 618.675 161.875C613.536 162.933 608.935 165.152 604.392 167.704C600.836 169.705 597.614 172.155 594.276 174.446C593.594 174.91 593.158 175.04 592.723 174.17C592.041 172.836 591.3 171.546 590.516 170.27C590.023 169.473 590.299 168.878 591.024 168.646V168.661ZM433.005 412.82H432.134L432.163 412.748C432.439 412.748 432.715 412.748 432.991 412.748C432.991 412.777 432.991 412.806 432.991 412.835L433.005 412.82ZM544.607 125.611C545.347 124.147 546.218 122.711 546.726 121.174C547.989 117.419 550.427 114.519 553.098 111.749C553.824 110.995 554.404 110.126 555.014 109.27C556.393 107.342 558.367 106.414 560.704 106.196C561.589 106.109 562.3 106.225 562.634 107.269C562.808 107.806 563.273 108.371 563.752 108.632C565.16 109.386 565.595 110.705 565.987 112.039C566.539 113.924 567.293 115.679 568.411 117.303C569.572 118.985 570.98 120.464 571.183 122.769C571.386 124.872 571.517 126.96 571.546 129.048C571.619 134.659 571.604 140.27 571.546 145.896C571.532 147.39 571.241 148.869 571.024 150.725C561.546 143.765 551.168 139.255 540.543 134.862C541.951 131.57 543.127 128.511 544.578 125.597L544.607 125.611ZM539.977 170.821C541.501 170.314 542.996 170.386 544.317 171.256C547.365 173.257 549.179 176.186 548.787 179.782C548.381 183.407 546.683 186.539 542.865 187.858C540.514 188.67 538.38 188.192 536.624 186.466C534.592 184.48 533.663 181.986 533.634 179.579C533.823 174.895 535.927 172.155 539.992 170.821H539.977ZM476.97 173.141C479.887 170.865 483.4 171.416 485.359 174.518C487.115 177.331 487.594 180.42 486.651 183.624C485.954 186.046 484.387 187.713 481.788 188.076C479.118 188.453 476.883 187.583 475.271 185.35C474.081 183.697 473.733 181.783 473.704 179.709C473.762 177.07 474.807 174.823 476.97 173.141ZM465.155 225.064C465.097 224.76 465.227 224.499 465.576 224.368C466.026 224.194 466.229 223.759 466.403 223.353C468.653 217.771 471.759 212.972 474.343 209.187C478.218 203.518 483.864 200.429 489.728 197.5C490.425 197.152 491.237 197.08 491.644 196.108C491.905 195.485 492.849 195.296 493.647 195.34C494.648 195.412 495.548 195.369 496.201 194.354C496.767 193.47 497.9 193.774 498.698 193.701C500.948 193.469 503.11 192.846 505.316 192.44C512.762 191.048 520.092 191.295 527.364 193.382C529.672 194.049 531.82 195.108 533.794 196.514C534.345 196.906 534.941 197.254 535.55 197.529C538.729 198.878 541.399 200.893 543.606 203.547C544.462 204.576 545.725 205.127 546.596 206.2C550.573 211.145 553.737 216.524 555.841 222.512C556.683 224.919 557.511 227.341 558.265 229.791C558.759 231.372 558.454 231.647 556.799 231.415C555.014 231.154 553.229 230.951 551.444 230.748C550.471 230.647 549.499 230.589 548.642 230.009C549.557 226.717 549.629 223.397 549.339 220.047C548.991 215.857 546.596 212.972 543.185 210.782C542.488 210.333 541.762 209.84 541.283 209.202C539.077 206.2 535.927 206.258 532.734 206.432C532.139 206.461 531.559 206.722 530.964 206.737C530.078 206.766 529.367 207.012 528.917 207.839C528.743 208.158 528.438 208.433 528.133 208.636C524.722 210.971 525.071 214.479 525.637 217.785C525.913 219.38 525.913 220.859 525.811 222.425C525.622 225.369 525.129 228.225 524.04 230.98C522.69 234.388 518.438 236.678 514.823 235.953C512.153 235.431 509.99 234.054 508.045 232.256C507.769 232.01 507.45 231.792 507.131 231.604C504.315 229.994 503.401 227.384 503.473 224.368C503.531 221.947 504.054 219.598 505.026 217.35C506.318 214.349 505.099 209.434 502.573 207.476C501.412 206.577 499.946 206.273 498.553 206.099C496.143 205.794 493.69 205.301 491.441 206.94C490.381 207.708 489.06 208.013 488.001 208.912C483.835 212.435 482.326 217.234 481.295 222.295C481.048 223.469 480.961 224.673 480.816 225.862C480.685 226.891 480.264 227.471 479.089 227.457C475.402 227.428 471.773 228.066 468.101 228.312C466.897 228.399 465.706 228.24 464.357 228.283C464.618 227.167 465.344 226.239 465.126 225.108L465.155 225.064ZM488.422 217.988C489.133 214.755 493.328 211.826 497.377 213.552C498.219 213.914 498.233 214.538 498.045 215.233C497.624 216.828 497.203 218.438 496.68 220.004C496.303 221.135 496.23 222.193 496.796 223.266C497.304 224.238 497.232 225.311 497.188 226.369C497.116 228.457 497.696 230.429 498.349 232.387C498.524 232.938 498.596 233.779 499.627 233.619C500.004 233.561 500.323 234.054 500.265 234.417C499.917 236.664 501.557 237.49 503.11 238.143C505.041 238.955 507.087 239.477 509.119 240.042C509.7 240.202 510.266 240.361 510.803 240.622C514.678 242.478 518.423 242.029 522.313 240.419C526.058 238.868 528.917 236.171 530.789 232.938C533.054 229.037 534.839 224.687 533.707 219.83C533.417 218.597 533.402 217.292 533.344 216.016C533.257 214.088 535.057 212.928 536.856 213.769C537.742 214.19 538.555 214.755 539.455 215.117C542.546 216.393 542.836 219.163 542.88 221.86C542.924 224.484 542.807 227.239 541.559 229.574C540.267 231.966 539.469 234.533 538.685 237.07C538.235 238.505 537.06 238.955 536.436 240.028C535.753 241.188 534.781 242.159 533.881 243.174C533.649 243.435 533.242 243.537 532.908 243.696C532.241 244.03 531.428 244.218 530.906 244.697C527.727 247.582 523.59 248.061 519.729 249.221C514.286 250.845 509.018 250.308 504.039 247.568C503.299 247.162 502.544 246.785 501.789 246.625C498.175 245.915 495.577 243.769 493.313 241.028C490.454 237.577 488.886 233.532 487.754 229.269C487.464 228.182 487.115 227.094 487.348 225.978C487.217 223.208 487.899 220.555 488.465 217.959L488.422 217.988ZM404.818 123.639C404.629 121.769 405.791 119.927 404.862 118.071C406.139 115.65 405.326 112.924 405.979 110.416C406.154 109.778 406.328 109.198 406.923 108.705C408.011 107.806 408.984 106.747 409.942 105.703C411.495 104.021 414.107 103.876 415.356 105.703C416.836 107.907 418.752 109.691 420.494 111.604C421.916 113.17 422.976 114.954 423.484 116.781C424.137 119.13 425.269 121.232 426.256 123.378C427.374 125.8 428.128 128.265 428.84 130.788C429.42 132.817 429.957 134.847 430.509 136.877C430.799 137.921 430.683 138.632 429.478 139.139C424.863 141.111 420.407 143.446 416.11 146.041C415.472 146.433 414.833 146.81 414.195 147.172C412.264 148.289 410.319 149.376 408.389 150.493C407.649 150.029 407.111 149.449 406.72 148.796C406.603 148.593 406.487 148.39 406.386 148.173C406.342 148.086 406.299 147.999 406.27 147.897C406.168 147.636 406.066 147.375 405.979 147.1C405.834 146.636 405.733 146.157 405.616 145.664C404.455 140.212 404.775 134.731 404.833 129.251C404.847 127.366 405.007 125.481 404.818 123.61V123.639ZM367.922 163.513C367.022 162.672 365.832 162.368 364.816 161.744C362.886 160.57 360.97 159.395 358.996 158.293C357.356 157.365 355.643 156.611 353.756 156.278C353.03 156.147 352.232 155.886 352.16 154.929C352.087 153.972 352.406 153.204 353.321 152.682C354.598 151.957 356.079 152.03 357.007 151.435C359.402 151.638 361.347 152.233 363.22 152.986C366.645 154.378 370.158 155.567 373.22 157.742C374.57 158.699 375.804 159.743 377.008 160.874C377.879 161.701 378.924 162.324 379.853 163.107C382.219 165.079 383.772 167.631 385.224 170.241C385.514 170.749 386.283 171.343 385.659 172.054C384.991 172.822 384.861 174.054 383.671 174.359C383.525 174.402 383.293 174.344 383.235 174.417C382.713 175.185 381.581 174.91 381.087 175.707C380.202 175.011 379.244 174.373 378.605 173.431C375.804 169.284 371.478 166.805 367.922 163.484V163.513ZM589.747 302.391C589.08 305.378 588.064 308.307 586.423 310.96C585.524 312.41 584.203 313.628 583.883 315.412C583.825 315.731 583.477 316.195 583.201 316.253C582.272 316.427 581.967 317.282 581.358 317.761C579.036 319.573 577.729 322.531 574.71 323.531C574.638 323.56 574.551 323.589 574.522 323.662C573.433 325.692 571.082 326.199 569.645 327.794C569.166 328.316 568.716 328.708 568.005 328.867C567.424 328.998 566.945 329.433 566.553 329.911C565.029 331.84 563.157 332.884 560.602 333.174C559.02 333.348 557.365 334.406 556.088 335.479C554.825 336.538 553.258 336.842 551.981 336.958C550.021 337.147 548.163 337.683 546.334 338.191C540.398 339.858 534.462 341.583 528.394 342.656C524.548 343.338 520.658 343.802 516.768 344.222C513.633 344.57 510.484 344.672 507.348 345.005C504.373 345.324 501.354 345.498 498.364 345.73C495.069 345.977 491.774 346.194 488.48 346.426C484.517 346.716 480.511 346.6 476.534 346.557C469.611 346.484 462.673 346.441 455.793 345.571C452.571 345.165 449.334 345.44 446.126 344.831C441.032 343.874 435.952 342.845 430.886 341.728C425.893 340.626 420.987 339.104 416.27 337.234C412.424 335.697 408.563 334.073 404.775 332.347C402.002 331.1 399.012 330.23 396.095 329.244C394.179 328.592 392.365 327.794 390.609 326.707C388.127 325.184 385.456 323.923 382.727 322.864C379.984 321.806 377.487 320.269 374.817 319.08C369.94 316.92 365.223 314.397 360.331 312.265C356.877 310.757 353.553 309.046 350.621 306.712C348.125 304.725 345.483 303 342.696 301.521C339.735 299.955 337.195 297.838 334.568 295.837C332.536 294.286 330.388 292.85 328.559 291.081C326.425 288.979 324.408 286.702 322.666 284.266C321.273 282.323 319.981 280.293 318.413 278.481C313.348 272.609 310.14 265.837 308.21 258.355C306.758 252.744 306.134 247.002 305.002 241.333C304.77 240.187 305.118 238.955 305.075 237.751C304.9 233.068 305.191 228.428 306.105 223.832C306.439 222.135 307.252 220.569 308.05 219.047C309.69 215.929 311.301 212.769 313.203 209.782C316.077 205.272 319.821 201.662 324.742 199.327C329.851 196.891 335.337 196.05 340.853 195.267C343.77 194.861 346.702 194.963 349.634 194.977C354.177 195.006 358.111 196.761 361.71 199.385C362.073 199.646 362.421 199.907 362.813 200.11C366.514 201.981 369.446 204.765 371.841 208.056C373.873 210.855 375.934 213.697 377.052 217.017C378.866 222.454 379.099 228.022 378.068 233.663C377.604 236.258 376.268 238.346 374.889 240.492C373.685 242.362 372.741 244.392 371.87 246.422C370.651 249.308 368.561 251.425 366.268 253.411C365.078 254.441 363.902 255.499 362.61 256.384C361.463 257.166 360.026 257.5 358.749 257.993C357.124 258.616 355.498 259.283 354.177 260.298C353.263 260.994 351.985 260.748 351.303 261.734C349.823 260.907 348.241 262.27 346.789 261.531C343.756 259.965 340.316 259.631 337.195 258.297C334.525 257.152 332.014 255.862 330.315 253.397C328.995 251.497 326.904 251.425 324.93 251.12C324.118 251.004 322.782 252.672 322.797 253.527C322.797 255.383 323.377 256.775 324.785 258.239C328.516 262.111 332.928 264.547 338.052 265.924C340.882 266.693 343.683 267.548 346.47 268.447C348.894 269.23 351.202 269.259 353.655 268.288C357.428 266.78 361.144 265.17 364.744 263.3C368.605 261.299 371.464 258.283 374.091 254.963C374.309 254.687 374.396 254.296 374.904 254.136C374.904 255.688 375.093 257.137 374.875 258.529C373.917 264.286 375.296 269.694 377.081 275.059C378.053 277.959 378.895 280.917 380.245 283.657C381.232 285.673 382.277 287.688 384.309 288.921C386.124 290.008 388.693 289.501 389.883 287.804C390.26 287.268 390.362 286.702 390.246 286.093C390.115 285.426 390.042 284.73 389.767 284.121C387.227 278.611 386.443 272.594 384.803 266.823C383.83 263.401 383.25 259.95 383.874 256.354C384.121 254.905 383.7 253.411 383.743 251.918C383.743 251.323 384.019 250.758 383.903 250.163C383.714 249.192 384.367 249.018 385.079 248.902C387.822 248.496 390.507 247.742 393.119 246.944C398.708 245.219 404.47 244.334 410.13 242.971C416.807 241.362 423.6 240.187 430.436 239.332C432.744 239.042 435.037 238.636 437.331 238.201C440.074 237.664 442.875 237.65 445.633 237.49C448.783 237.316 451.918 236.939 455.067 236.693C460.089 236.316 465.111 235.852 470.162 235.939C473.298 235.997 476.433 235.721 479.568 235.533C481.048 235.446 481.382 235.533 481.759 237.128C482.471 240.144 484.067 242.623 486.099 244.871C487.115 245.987 488.218 246.843 489.655 247.51C491.383 248.293 492.819 249.728 494.358 250.917C495.49 251.802 496.811 252.324 498.045 253.005C502.617 255.543 507.769 255.47 512.69 256.441C516.812 257.253 520.745 256.528 524.563 255.18C529.091 253.571 533.416 251.352 537.452 248.786C540.035 247.147 542.503 245.03 543.678 241.884C544.085 240.796 544.912 239.868 545.115 238.65C545.246 237.867 545.783 237.65 546.625 237.737C549.992 238.114 553.359 238.418 556.727 238.723C560.907 239.085 565.102 239.419 569.296 239.288C572.852 239.172 576.35 239.709 579.834 240.245C581.387 240.477 582.94 240.825 584.478 241.173C585.538 241.405 586.032 241.956 586.017 243.218C585.93 248.162 585.698 253.092 585.132 258.022C584.537 263.271 583.172 268.288 581.518 273.261C581.43 273.551 581.343 273.841 581.198 274.102C580.081 276.161 580.095 276.248 581.866 277.538C582.954 278.321 584.072 279.046 584.435 280.511C584.551 280.975 584.986 281.424 585.364 281.772C587.802 283.933 589.051 286.688 589.428 289.849C589.921 294.025 590.633 298.244 589.704 302.405L589.747 302.391ZM681.029 244.363C680.289 247.901 677.603 249.496 674.628 250.961C673.147 251.686 671.638 252.295 670.085 252.759C666.877 253.701 663.858 252.643 660.868 251.657C660.317 251.468 659.62 251.207 659.33 250.758C657.936 248.583 655.657 247.263 654.075 245.32C650.2 240.564 650.563 234.315 654.729 229.733C656.993 227.239 660.026 226.079 663.974 226.108C665.6 226.239 667.516 226.616 669.374 227.254C672.32 228.254 674.86 230.052 677.429 231.705C679.316 232.909 680.463 234.895 681.203 237.157C681.842 239.129 681.392 241.159 682.016 243.058C682.35 244.059 681.174 243.754 681.043 244.378L681.029 244.363Z" fill="#151515"/>
<path d="M530.136 299.97C527.117 298.404 523.881 298.012 520.571 297.983C517.538 297.969 514.795 298.897 512.371 300.709C511.587 301.289 510.905 301.999 510.179 302.652C509.642 303.13 509.178 303.319 508.408 302.855C503.299 299.738 497.784 299.68 492.065 300.593C487.377 301.332 483.734 303.609 480.686 307.132C479.394 308.626 479.045 310.279 479.06 312.135C479.089 315.992 480.613 319.269 482.892 322.255C483.748 323.386 484.459 324.662 485.679 325.489C487.116 326.46 488.64 327.243 490.207 327.968C492.152 327.026 492.95 329.462 494.576 329.447C495.011 329.447 495.36 329.578 495.839 329.302C496.927 328.679 498.117 329.128 498.8 329.868C499.453 330.564 500.164 330.825 500.933 330.897C503.372 331.173 505.767 331.753 508.292 331.1C509.265 330.839 510.324 330.651 511.355 330.506C516.232 329.839 520.862 328.476 524.737 325.213C526.029 324.126 527.756 323.488 528.337 321.661C528.395 321.487 528.641 321.313 528.83 321.226C530.441 320.559 530.92 318.993 531.719 317.674C532.357 316.601 532.27 315.354 532.706 314.237C533.417 312.381 533.838 310.453 533.896 308.466C534.113 307.147 533.446 305.943 533.417 304.667C533.373 302.362 532.11 300.97 530.151 299.941L530.136 299.97ZM528.917 308.017V308.35C528.874 309.684 528.583 311.076 528.046 312.483C527.713 313.382 527.553 314.194 527.451 314.803C527.422 314.962 527.379 315.18 527.35 315.296C527.146 315.644 526.987 315.963 526.827 316.253C526.726 316.441 526.609 316.673 526.508 316.847C525.202 317.5 524.2 318.573 523.707 319.863C523.532 319.994 523.271 320.168 523.068 320.313C522.632 320.617 522.081 320.98 521.529 321.444C518.902 323.662 515.549 324.952 510.687 325.619C509.323 325.808 508.089 326.04 507.015 326.33C506.652 326.431 506.275 326.475 505.796 326.475C505.012 326.475 504.083 326.344 503.11 326.214C502.733 326.156 502.37 326.112 501.993 326.069C500.585 324.793 498.785 324.068 496.927 324.068C496.376 324.068 495.824 324.14 495.287 324.256C494.387 323.604 492.965 322.806 491.063 322.806C491.005 322.806 490.947 322.806 490.904 322.806C490.106 322.4 489.264 321.922 488.48 321.4C488.291 321.27 487.87 320.661 487.58 320.255C487.348 319.921 487.101 319.588 486.854 319.254C484.953 316.76 484.053 314.498 484.038 312.12C484.038 310.888 484.271 310.627 484.459 310.409C486.883 307.596 489.539 306.045 492.834 305.537C494.721 305.233 496.361 305.088 497.842 305.088C500.977 305.088 503.517 305.74 505.796 307.132C506.884 307.799 508.031 308.133 509.192 308.133C510.745 308.133 512.182 307.553 513.474 306.393C513.75 306.146 514.011 305.9 514.272 305.653C514.664 305.291 515.027 304.943 515.332 304.711C516.885 303.551 518.554 302.985 520.441 302.985H520.513C523.765 303.014 525.942 303.435 527.829 304.406C528.148 304.58 528.322 304.696 528.409 304.769C528.409 304.769 528.409 304.783 528.409 304.798C528.424 305.871 528.641 306.77 528.801 307.437C528.845 307.596 528.888 307.799 528.917 307.93V308.031V308.017Z" fill="#151515"/>
<path d="M481.774 275.784C481.063 272.551 479.8 269.477 477.246 267.157C475.823 265.866 474.401 264.547 472.383 263.662C475.489 261.357 478.9 261.023 482.282 261.197C484.053 261.284 485.707 261.299 487.377 260.777C487.725 260.661 488.233 260.617 488.378 260.371C488.625 259.921 488.552 259.283 488.596 258.805C488.683 257.819 486.056 255.804 484.895 255.673C483.937 255.572 482.95 255.601 482.137 254.876C482.732 253.527 483.371 252.237 483.879 250.903C484.329 249.699 483.908 247.959 483.138 247.684C482.108 247.307 480.54 247.553 479.728 249.119C479.582 249.38 479.437 249.656 479.336 249.931C478.349 252.889 476.186 254.702 473.385 255.659C470.308 256.717 467.753 258.515 465.387 260.617C461.817 263.807 459.146 267.635 458.449 272.449C457.927 276.176 458.043 279.96 458.449 283.715C458.725 286.195 459.291 288.558 460.554 290.777C463.138 295.344 466.795 298.128 472.166 298.476C474.227 298.607 475.954 298.172 477.594 296.823C481.194 293.822 482.282 289.776 482.63 285.412C482.892 282.178 482.456 278.93 481.774 275.784ZM472.224 281.018C472.165 282.251 471.701 283.498 471.048 284.629C470.177 286.137 469.117 286.354 467.361 285.977C465.852 285.658 465.184 284.875 464.676 283.527C463.863 281.381 463.573 280.38 463.616 278.046C463.675 277.017 463.646 276.176 463.776 275.364C464.095 273.493 465.707 272.696 467.579 272.928C471.599 273.435 472.427 276.364 472.238 281.018H472.224Z" fill="#151515"/>
<path d="M558.832 254.774C557.656 253.962 556.466 253.15 554.927 253.179C554.013 253.194 553.49 252.802 553.737 251.787C553.81 251.497 553.824 251.178 553.752 250.888C553.563 250.062 553.694 249.148 552.59 248.655C551.371 248.119 550.66 248.873 550.036 249.482C548.802 250.671 547.743 252.063 546.625 253.368C545.798 254.339 545.028 255.426 543.853 255.963C540.471 257.514 537.495 259.443 535.086 262.43C533.112 264.88 531.748 267.548 531.414 270.477C531.094 273.218 530.659 275.987 530.717 278.988C530.369 281.265 531.53 283.469 531.965 285.803C532.459 288.413 533.751 290.487 535.768 291.98C537.67 293.401 539.382 295.504 542.271 294.924C542.59 294.866 542.982 295.127 543.33 295.257C545.377 295.982 546.639 295.649 548.12 294.01C548.671 293.401 549.136 292.691 549.76 292.169C552.75 289.675 554.231 286.282 555.116 282.686C555.711 280.25 556.059 277.683 555.406 275.103C554.158 270.115 551.589 265.895 548.062 262.227C547.133 261.27 547.235 260.704 548.497 260.472C549.513 260.298 550.558 260.153 551.589 260.052C553.287 259.878 555 259.327 556.713 260.081C557.685 260.501 558.556 259.791 559.34 259.457C560.08 259.138 560.094 258.123 560.094 257.253C560.094 256.151 559.688 255.369 558.817 254.774H558.832ZM542.038 284.034C540.79 285.151 539.89 284.919 538.657 283.715C536.305 281.41 536.233 278.452 536.363 275.567C536.421 274.088 537.684 272.826 538.424 271.478C538.932 270.55 539.963 270.724 540.703 270.303C541.501 269.854 542.445 270.173 543.083 270.97C543.809 271.869 544.288 272.87 544.419 274.015C544.535 274.972 544.578 275.944 544.651 276.9C544.709 279.612 544.187 282.12 542.053 284.034H542.038Z" fill="#151515"/>
<path d="M467.565 272.913C465.692 272.681 464.081 273.479 463.762 275.349C463.617 276.161 463.66 277.002 463.602 278.031C463.573 280.366 463.863 281.366 464.662 283.512C465.17 284.861 465.837 285.644 467.347 285.963C469.103 286.34 470.163 286.108 471.034 284.614C471.687 283.483 472.166 282.236 472.209 281.004C472.412 276.35 471.571 273.421 467.55 272.913H467.565Z" fill="white"/>
<path d="M544.405 274.015C544.275 272.87 543.796 271.869 543.07 270.97C542.431 270.187 541.488 269.854 540.689 270.303C539.949 270.724 538.933 270.55 538.411 271.478C537.67 272.826 536.408 274.088 536.35 275.567C536.234 278.452 536.306 281.395 538.643 283.715C539.877 284.933 540.777 285.151 542.025 284.034C544.158 282.12 544.681 279.612 544.623 276.9C544.55 275.944 544.507 274.972 544.391 274.015H544.405Z" fill="white"/>
</g>
</g>
<mask id="mask1_173_1811" style="mask-type:luminance" maskUnits="userSpaceOnUse" x="0" y="293" width="180" height="105">
<path d="M180 293H0V398H180V293Z" fill="white"/>
</mask>
<g mask="url(#mask1_173_1811)">
<path d="M43.6282 344.411C43.6282 344.411 43.7347 344.909 43.9611 345.723C47.1707 345.277 51.3524 343.938 54.8948 343.754C62.7921 343.531 69.3577 345.92 74.5915 350.908C79.3325 355.396 82.875 362.851 79.7587 371.186C77.4148 377.459 71.1955 381.961 64.3636 383.93C61.2207 384.836 57.6116 385.479 53.5498 385.859C49.0484 386.358 43.3086 385.912 36.3568 384.547C35.2914 384.429 31.5225 384.193 30.6835 383.891C25.7827 382.079 23.3988 378.05 23.5054 371.803C23.6119 362.431 23.5853 356.118 23.4255 352.889C22.9194 344.555 23.6785 335.538 25.6761 325.826C25.9558 324.461 26.2887 321.494 26.675 316.94C26.9014 314.761 28.9389 313.016 31.3494 312.911C32.6146 312.911 38.5276 313.068 39.6995 313.068C42.1499 313.121 43.4284 314.354 43.535 316.769C43.7614 320.668 43.8413 325.156 43.788 330.262C43.788 332.454 43.6282 342.363 43.6282 344.411ZM60.3151 362.746C60.1952 362.064 59.516 361.224 58.8901 361.014C54.442 359.426 49.9008 359.203 45.2929 360.358C44.7335 360.541 43.748 361.237 43.6282 361.841C43.0689 364.964 43.6548 367.301 45.3861 368.836C47.8365 370.976 50.1937 371.908 52.4844 371.632C58.7702 371.632 61.487 369.164 60.3284 362.746H60.3151Z" fill="#151515"/>
<path d="M147.212 367.182V366.776C147.265 366.552 144.975 366.434 140.327 366.408C128.554 366.342 112.174 366.828 99.5619 367.274C99.2689 367.274 97.2047 367.445 96.8851 367.445C94.9007 367.445 93.6489 366.513 93.4624 364.728C93.3426 363.927 92.8765 362.405 92.8765 361.434C92.8765 359.491 93.4491 357.562 95.5533 357.562H106.234C105.981 355.002 105.954 352.929 103.557 352.509C101.24 352.102 99.4553 352.469 96.2192 352.469C90.9055 352.469 86.0179 352.679 86.2044 347.862C86.3109 346.274 86.7104 345.211 87.3763 344.699C88.0422 344.187 89.7735 343.781 92.5569 343.505C96.1126 343.124 102.159 342.875 110.669 342.77C119.845 342.665 125.305 342.639 127.023 342.691C127.529 342.744 128.021 342.77 128.528 342.77C129.699 342.77 130.858 342.691 132.03 342.521C135.413 342.179 139.488 342.599 138.702 345.815C138.196 348.125 137.93 349.359 137.863 349.516C136.718 352.797 132.523 354.359 127.848 354.044C125.345 353.887 123.147 353.821 121.256 353.887C120.137 353.992 119.032 355.199 118.673 355.987C118.513 356.341 118.286 356.906 118.007 357.68C134.534 357.785 145.161 357.982 149.889 358.257C152.486 358.415 155.988 358.822 156.401 360.568C156.734 361.552 156.907 362.589 156.907 363.691C156.907 364.439 156.987 367.629 156.907 368.377C156.907 370.477 157.44 373.364 156.241 374.427C155.136 375.412 152.779 375.911 150.861 376.121C149.33 376.278 147.039 376.344 143.976 376.278C135.519 376.226 130.072 376.252 127.622 376.357C125.704 376.357 104.29 376.567 103.251 376.856L103.331 378.824C109.017 378.824 126.104 378.575 131.79 378.575C136.625 378.575 139.887 378.549 141.552 378.496C143.31 378.496 151.847 377.997 153.565 377.997H153.724C155.283 377.997 156.055 378.496 156.055 379.481V379.887C155.722 381.751 155.309 383.418 154.803 384.901C154.017 387.474 153.178 387.198 149.21 387.198H148.211C146.147 387.132 126.73 387.185 124.679 387.119C122.069 387.001 98.7096 386.542 96.0461 386.463C93.4092 386.371 92.0641 384.862 92.4636 382.263C92.8099 379.966 92.2905 379.061 92.2905 376.265C92.2905 375.884 92.3171 375.162 92.3704 374.126C92.4903 370.621 94.2881 369.952 98.1236 369.847C99.6285 369.807 143.403 369.571 144.775 369.519H145.441C146.426 369.519 147.279 369.427 147.279 368.456C147.239 368.062 147.199 367.642 147.199 367.222L147.212 367.182ZM93.8886 335.682C89.2674 333.989 86.8436 331.351 86.6305 327.781C86.2976 323.174 87.8558 319.775 91.305 317.583C95.0339 315.168 96.4456 314.079 100.867 312.819C104.37 311.821 106.074 312.162 110.296 312.162C115.836 312.162 119.338 312.937 123.613 314.052C125.371 314.512 125.251 314.604 126.823 315.168C128.235 315.667 128.674 316.061 129.833 316.769C132.097 318.174 134.96 321.783 135.093 324.132C135.173 325.589 134.361 327.545 132.629 330.012C130.019 333.635 127.422 336.168 124.865 337.625C122.308 339.082 119.085 339.804 115.183 339.804C108.844 339.909 101.746 338.544 93.9019 335.696L93.8886 335.682ZM113.998 332.231C117.274 332.112 118.206 330.603 119.085 327.794C119.698 325.655 118.726 324.264 116.169 323.594C112.826 322.662 108.964 321.927 104.569 321.376C101.746 321.009 99.7883 323.411 99.3888 325.812C99.0558 328.28 100.228 329.842 102.891 330.498C104.663 331.01 108.631 331.679 110.655 331.981L112.32 332.231H113.985H113.998ZM148.557 342.849C148.624 341.812 148.491 338.609 147.478 337.796C146.04 336.641 143.377 336.785 140.886 336.444C139.554 336.168 138.769 335.814 138.556 335.381C136.891 331.929 136.665 328.989 137.89 326.574C138.529 325.314 138.489 323.988 140.567 324.185C142.351 324.264 147.492 323.345 147.492 321.639C147.492 320.484 147.718 317.609 148.158 313.002C148.331 311.742 149.25 311.139 150.914 311.191C152.979 311.244 155.083 311.191 157.254 311.034C158.971 310.929 160.143 311.506 160.756 312.766C162.647 316.769 163.459 321.678 163.18 327.492C163.1 329.199 163.433 334.842 163.433 336.457C163.433 339.843 162.581 341.484 162.354 344.594C162.074 349.529 161.635 353.073 161.022 355.199C160.356 357.496 156.548 357.942 149.583 356.512C148.411 356.289 147.585 355.58 147.079 354.372C146.799 353.716 146.866 352.496 147.292 350.711C147.718 348.926 147.838 347.705 147.665 347.049C147.785 344.529 148.584 345.369 148.584 342.849H148.557Z" fill="#151515"/>
</g>
<defs>
<filter id="filter0_d_173_1811" x="291.577" y="89.623" width="432.497" height="338.027" filterUnits="userSpaceOnUse" color-interpolation-filters="sRGB">
<feFlood flood-opacity="0" result="BackgroundImageFix"/>
<feColorMatrix in="SourceAlpha" type="matrix" values="0 0 0 0 0 0 0 0 0 0 0 0 0 0 0 0 0 0 127 0" result="hardAlpha"/>
<feOffset dx="2.65" dy="2.65"/>
<feColorMatrix type="matrix" values="0 0 0 0 0 0 0 0 0 0 0 0 0 0 0 0 0 0 0.3 0"/>
<feBlend mode="normal" in2="BackgroundImageFix" result="effect1_dropShadow_173_1811"/>
<feBlend mode="normal" in="SourceGraphic" in2="effect1_dropShadow_173_1811" result="shape"/>
</filter>
</defs>
</svg>
