<svg xmlns="http://www.w3.org/2000/svg" width="960" height="418" viewBox="0 0 960 418" fill="none">
<mask id="mask0_258_35" style="mask-type:luminance" maskUnits="userSpaceOnUse" x="0" y="0" width="960" height="418">
<path d="M960 0H0V418H960V0Z" fill="white"/>
</mask>
<g mask="url(#mask0_258_35)">
<path d="M366.847 23.9698H293.906V40.9559H366.847V23.9698Z" fill="#32BAD4" stroke="black" stroke-width="2.89" stroke-miterlimit="10"/>
<path d="M297.362 37.4265H363.388V27.4992H297.362V37.4265Z" fill="#32BAD4" stroke="black" stroke-width="2.89" stroke-miterlimit="10"/>
<path d="M366.847 98.7926H293.906V115.779H366.847V98.7926Z" fill="#32BAD4" stroke="black" stroke-width="2.89" stroke-miterlimit="10"/>
<path d="M297.362 112.249H363.388V102.322H297.362V112.249Z" fill="#32BAD4" stroke="black" stroke-width="2.89" stroke-miterlimit="10"/>
<path d="M366.847 241.019H293.906V258.005H366.847V241.019Z" fill="#32BAD4" stroke="black" stroke-width="2.89" stroke-miterlimit="10"/>
<path d="M297.362 254.476H363.388V244.548H297.362V254.476Z" fill="#32BAD4" stroke="black" stroke-width="2.89" stroke-miterlimit="10"/>
<path d="M665.243 241.019H592.303V258.005H665.243V241.019Z" fill="#32BAD4" stroke="black" stroke-width="2.89" stroke-miterlimit="10"/>
<path d="M595.759 254.476H661.785V244.548H595.759V254.476Z" fill="#32BAD4" stroke="black" stroke-width="2.89" stroke-miterlimit="10"/>
<path d="M592.303 40.9559L665.243 40.9559V23.9699L592.303 23.9699V40.9559Z" fill="#32BAD4" stroke="black" stroke-width="2.89" stroke-miterlimit="10"/>
<path d="M595.759 37.4265H661.785V27.4992H595.759V37.4265Z" fill="#32BAD4" stroke="black" stroke-width="2.89" stroke-miterlimit="10"/>
<path d="M592.303 115.764L665.243 115.764V98.7776L592.303 98.7776V115.764Z" fill="#32BAD4" stroke="black" stroke-width="2.89" stroke-miterlimit="10"/>
<path d="M595.759 112.249H661.785V102.322H595.759V112.249Z" fill="#32BAD4" stroke="black" stroke-width="2.89" stroke-miterlimit="10"/>
<path d="M144.082 154.301C142.773 154.301 141.523 153.536 140.934 152.244C140.14 150.472 140.905 148.384 142.641 147.573C216.258 113.165 268.955 8.81599 269.485 7.76468C270.353 6.02252 272.427 5.34668 274.134 6.21776C275.84 7.10386 276.517 9.22149 275.649 10.9636C275.516 11.234 262.041 38.1173 239.443 68.9356C218.523 97.486 185.246 135.423 145.524 153.986C145.053 154.211 144.568 154.301 144.082 154.301Z" fill="black"/>
<path d="M248.461 154.301C246.549 154.301 245.004 152.725 245.004 150.772V49.7568C245.004 47.8044 246.549 46.2274 248.461 46.2274C250.374 46.2274 251.918 47.8044 251.918 49.7568V150.772C251.918 152.725 250.374 154.301 248.461 154.301Z" fill="black"/>
<path d="M221.01 154.301C219.097 154.301 217.553 152.725 217.553 150.772V87.003C217.553 85.0506 219.097 83.4736 221.01 83.4736C222.922 83.4736 224.467 85.0506 224.467 87.003V150.772C224.467 152.725 222.922 154.301 221.01 154.301Z" fill="black"/>
<path d="M193.558 154.301C191.645 154.301 190.101 152.724 190.101 150.772V115.779C190.101 113.826 191.645 112.249 193.558 112.249C195.47 112.249 197.015 113.826 197.015 115.779V150.772C197.015 152.724 195.47 154.301 193.558 154.301Z" fill="black"/>
<path d="M494.44 154.301C493.881 154.301 493.307 154.166 492.763 153.866C466.311 138.922 440.124 110.252 414.923 68.6803C396.254 37.862 385.117 11.0087 385 10.7384C384.264 8.93614 385.088 6.87859 386.839 6.11264C388.589 5.3617 390.62 6.20275 391.37 7.98996C391.796 9.04127 435.358 113.361 496.102 147.693C497.779 148.639 498.382 150.787 497.456 152.484C496.823 153.641 495.646 154.301 494.425 154.301H494.44Z" fill="black"/>
<path d="M408.112 154.287C406.199 154.287 404.654 152.71 404.654 150.757V49.7569C404.654 47.8044 406.199 46.2275 408.112 46.2275C410.024 46.2275 411.569 47.8044 411.569 49.7569V150.772C411.569 152.725 410.024 154.302 408.112 154.302V154.287Z" fill="black"/>
<path d="M430.812 154.286C428.899 154.286 427.354 152.71 427.354 150.757V87.003C427.354 85.0506 428.899 83.4736 430.812 83.4736C432.724 83.4736 434.269 85.0506 434.269 87.003V150.757C434.269 152.71 432.724 154.286 430.812 154.286Z" fill="black"/>
<path d="M453.512 154.286C451.599 154.286 450.055 152.709 450.055 150.757V115.764C450.055 113.811 451.599 112.234 453.512 112.234C455.424 112.234 456.969 113.811 456.969 115.764V150.757C456.969 152.709 455.424 154.286 453.512 154.286Z" fill="black"/>
<path d="M815.066 154.301C814.58 154.301 814.095 154.196 813.624 153.986C773.902 135.423 740.625 97.486 719.705 68.9356C697.122 38.1173 683.632 11.234 683.499 10.9637C682.631 9.2215 683.308 7.10388 685.014 6.21778C686.721 5.33168 688.795 6.02254 689.663 7.7647C690.193 8.816 742.875 113.165 816.507 147.573C818.243 148.384 819.008 150.472 818.214 152.244C817.625 153.536 816.375 154.301 815.066 154.301Z" fill="black"/>
<path d="M710.687 154.302C708.774 154.302 707.229 152.725 707.229 150.772V49.7569C707.229 47.8044 708.774 46.2275 710.687 46.2275C712.599 46.2275 714.144 47.8044 714.144 49.7569V150.772C714.144 152.725 712.599 154.302 710.687 154.302Z" fill="black"/>
<path d="M738.138 154.301C736.225 154.301 734.681 152.725 734.681 150.772V87.003C734.681 85.0506 736.225 83.4736 738.138 83.4736C740.05 83.4736 741.595 85.0506 741.595 87.003V150.772C741.595 152.725 740.05 154.301 738.138 154.301Z" fill="black"/>
<path d="M765.575 154.301C763.663 154.301 762.118 152.724 762.118 150.772V115.779C762.118 113.826 763.663 112.249 765.575 112.249C767.488 112.249 769.033 113.826 769.033 115.779V150.772C769.033 152.724 767.488 154.301 765.575 154.301Z" fill="black"/>
<path d="M464.708 154.301C463.487 154.301 462.31 153.641 461.678 152.484C460.751 150.772 461.354 148.639 463.031 147.693C523.776 113.361 567.337 9.04129 567.764 7.98998C568.499 6.18775 570.529 5.3467 572.295 6.11265C574.06 6.86358 574.884 8.93616 574.134 10.7384C574.031 11.0087 562.879 37.862 544.21 68.6803C519.024 110.252 492.837 138.922 466.371 153.866C465.841 154.166 465.267 154.301 464.694 154.301H464.708Z" fill="black"/>
<path d="M551.036 154.286C549.124 154.286 547.579 152.71 547.579 150.757V49.7568C547.579 47.8044 549.124 46.2274 551.036 46.2274C552.949 46.2274 554.494 47.8044 554.494 49.7568V150.772C554.494 152.725 552.949 154.301 551.036 154.301V154.286Z" fill="black"/>
<path d="M528.337 154.286C526.425 154.286 524.88 152.709 524.88 150.757V87.0029C524.88 85.0505 526.425 83.4736 528.337 83.4736C530.25 83.4736 531.794 85.0505 531.794 87.0029V150.757C531.794 152.709 530.25 154.286 528.337 154.286Z" fill="black"/>
<path d="M505.636 154.286C503.723 154.286 502.179 152.709 502.179 150.757V115.764C502.179 113.811 503.723 112.234 505.636 112.234C507.548 112.234 509.093 113.811 509.093 115.764V150.757C509.093 152.709 507.548 154.286 505.636 154.286Z" fill="black"/>
<path d="M815.065 150.772H144.066V169.02H815.065V150.772Z" fill="black"/>
<path d="M815.065 172.099H144.067C142.39 172.099 141.051 170.717 141.051 169.005V150.757C141.051 149.045 142.404 147.663 144.067 147.663H815.065C816.743 147.663 818.081 149.045 818.081 150.757V169.005C818.081 170.717 816.728 172.099 815.065 172.099ZM147.097 165.926H812.05V153.851H147.097V165.926Z" fill="black"/>
<path d="M302.365 0H272.56V298.826H302.365V0Z" fill="#32BAD4" stroke="black" stroke-width="2.89" stroke-miterlimit="10"/>
<path d="M276.016 295.296H298.907V3.5293H276.016V295.296Z" fill="#32BAD4" stroke="black" stroke-width="2.89" stroke-miterlimit="10"/>
<path d="M388.192 0H358.386V298.826H388.192V0Z" fill="#32BAD4" stroke="black" stroke-width="2.89" stroke-miterlimit="10"/>
<path d="M361.842 295.296H384.733V3.5293H361.842V295.296Z" fill="#32BAD4" stroke="black" stroke-width="2.89" stroke-miterlimit="10"/>
<path d="M656.782 298.826H686.588V0H656.782V298.826Z" fill="#32BAD4" stroke="black" stroke-width="2.89" stroke-miterlimit="10"/>
<path d="M660.239 295.296H683.131V3.5293H660.239V295.296Z" fill="#32BAD4" stroke="black" stroke-width="2.89" stroke-miterlimit="10"/>
<path d="M570.94 298.826H600.746V0H570.94V298.826Z" fill="#32BAD4" stroke="black" stroke-width="2.89" stroke-miterlimit="10"/>
<path d="M574.413 295.296H597.304V3.5293H574.413V295.296Z" fill="#32BAD4" stroke="black" stroke-width="2.89" stroke-miterlimit="10"/>
<path d="M815.065 181.951H144.066V200.198H815.065V181.951Z" fill="#32BAD4" stroke="black" stroke-width="2.89" stroke-miterlimit="10"/>
<path d="M815.066 203.728H144.068C142.155 203.728 140.61 202.151 140.61 200.198V181.951C140.61 179.998 142.155 178.421 144.068 178.421H815.066C816.979 178.421 818.524 179.998 818.524 181.951V200.198C818.524 202.151 816.979 203.728 815.066 203.728ZM147.525 196.669H811.609V185.48H147.525V196.669Z" fill="black"/>
<path d="M409.273 298.826H251.461V323.621H409.273V298.826Z" fill="black"/>
<path d="M409.288 326.7H251.476C249.799 326.7 248.46 325.319 248.46 323.606V298.811C248.46 297.099 249.813 295.717 251.476 295.717H409.288C410.965 295.717 412.304 297.099 412.304 298.811V323.606C412.304 325.319 410.95 326.7 409.288 326.7ZM254.492 320.528H406.257V301.905H254.492V320.528Z" fill="black"/>
<path d="M707.669 298.826H549.857V323.621H707.669V298.826Z" fill="black"/>
<path d="M707.67 326.7H549.858C548.181 326.7 546.842 325.319 546.842 323.606V298.811C546.842 297.099 548.195 295.717 549.858 295.717H707.67C709.347 295.717 710.686 297.099 710.686 298.811V323.606C710.686 325.319 709.332 326.7 707.67 326.7ZM552.888 320.528H704.654V301.905H552.888V320.528Z" fill="black"/>
<g filter="url(#filter0_d_258_35)">
<path d="M457.498 218.912C457.498 219.017 457.498 219.107 457.498 219.212C457.498 219.362 457.469 219.512 457.439 219.663C457.469 219.512 457.469 219.362 457.484 219.212C457.484 219.107 457.484 219.017 457.484 218.912H457.498Z" fill="white"/>
<path d="M683.631 355.866L648.794 354.92L613.912 354.89L579.031 355.461L551.947 354.545L541.354 341.388L538.78 326.34L544.135 323.216L558.17 315.737L586.813 293.074L609.734 264.628L622.93 230.446L623.784 193.725L610.352 159.513L589.962 129.701L574.617 125.826L567.041 112.88L537.044 83.804L505.914 69.4161L474.049 64.7753L441.33 64.0394L409.244 70.4374L379.467 83.9541L357.297 106.828L344.968 117.115L299.406 130.242L279.619 171.318L288.623 210.681L314.295 248.543L351.603 274.586L360.107 277.92L369.434 287.381L367.463 329.464L361.799 351.346L350.574 356.828L309.116 357.443L267.659 358.48L242.87 367.866L241.634 387.09L259.803 402.98L268.541 403.265L279.59 437.808L288.432 440.707L295.287 441.322L295.493 440.752L307.101 417.263L310.617 402.604L318.311 401.778L360.004 401.283L401.697 401.072L443.375 399.721L484.92 397.768L509.945 398.174L542.311 397.843L574.676 398.519L607.042 398.219L639.408 398.414L657.782 433.633L677.614 434.174L681.807 407.951L686.926 397.648L702.535 377.388L683.66 355.851L683.631 355.866ZM318.164 226.571C315.589 222.997 312.706 219.647 310.499 215.788C307.866 211.162 304.703 206.852 302.599 201.925C299.76 195.272 297.656 188.394 297.008 181.125C296.92 180.194 296.905 179.217 297.082 178.301C297.479 176.289 297.965 174.336 297.317 172.264C296.994 171.227 297.641 170.086 297.876 169.11C298.538 166.286 298.641 163.403 299.127 160.579C299.509 158.371 300.628 156.524 301.393 154.512C303.07 150.126 305.365 146.071 308.425 142.497C309.057 141.761 309.646 141.1 310.705 141.1C312.014 141.1 313.162 140.484 314.206 139.793C320.356 135.738 327.314 134.071 334.405 133.41C338.951 133.005 343.63 133.486 348.131 134.732C348.529 134.837 348.941 134.987 349.294 135.243C354.252 138.802 359.136 142.527 361.475 148.504C363.623 153.971 365.727 159.498 366.227 165.43C366.668 170.522 365.285 175.282 362.902 179.668C360.563 183.993 357.312 187.508 353.104 190.046C352.957 190.121 352.854 190.271 352.707 190.361C351.309 191.202 350.838 193.215 349.397 193.695C347.955 194.176 346.307 194.101 344.821 194.732C343.733 195.197 342.6 195.302 341.394 195.242C338.289 195.107 335.17 195.032 332.081 195.062C329.109 195.092 326.52 194.056 324.019 192.584C321.989 191.397 320.003 190.136 318.282 188.499C317.59 187.838 316.781 187.402 315.825 187.297C313.956 187.087 313.103 187.988 313.324 189.956C313.691 192.974 315.442 195.137 317.605 196.954C321.459 200.183 325.843 202.391 330.786 203.262C332.022 203.472 332.846 203.923 333.582 205.064C334.641 206.671 335.965 208.143 337.348 209.48C339.716 211.763 342.144 214.03 344.924 215.803C346.293 216.689 347.808 217.094 349.456 217.079C355.752 217.034 360.46 214.466 363.02 208.398C363.652 206.912 364.329 205.455 364.682 203.848C364.844 203.082 364.932 202.376 364.785 201.58C364.403 199.372 364.373 197.074 364.962 194.957C365.476 193.185 364.432 191.097 366.036 189.625C367.448 188.334 368.257 186.652 369.213 185.06C372.832 178.992 374.024 172.324 373.612 165.37C373.421 162.171 372.729 158.927 371.67 155.863C370.272 151.838 369.449 147.648 367.727 143.713C366.595 141.1 365.344 138.592 363.27 136.655C361.975 135.438 361.696 134.237 362.49 132.675C363.652 130.407 364.638 128.064 365.918 125.886C369.346 120.029 372.935 114.262 376.922 108.78C378.923 106.017 381.821 104.154 384.19 101.736C387.456 98.4171 391.604 96.5097 395.606 94.3921C396.621 93.8514 397.739 93.4159 398.445 92.3646C398.622 92.1092 398.96 91.7788 399.225 91.7638C402.153 91.6437 404.05 88.5198 407.169 88.9403C408.479 87.4985 410.332 88.0843 411.906 87.6337C412.289 87.5135 412.76 87.3784 413.01 87.093C413.848 86.1018 414.878 85.9967 416.07 86.1168C417.423 86.222 418.821 85.9216 419.763 85.0054C420.572 84.1944 421.41 83.9391 422.337 84.0442C423.573 84.1944 424.485 83.7138 425.603 83.2483C427.663 82.3622 429.958 82.0768 432.223 82.3021C432.826 82.3622 433.4 82.5424 433.827 82.1219C435.195 80.7852 436.784 81.1607 438.343 81.461C439.079 81.6112 439.77 81.8515 440.521 81.4911C441.3 81.1006 442.095 80.3046 442.904 81.5512C443.11 81.8816 443.434 81.4911 443.713 81.2958C444.36 80.8753 445.008 80.4999 445.714 81.2958C445.89 81.4911 446.361 81.5512 446.655 81.4911C449.289 80.9204 451.966 81.6563 454.629 81.1607C456.556 80.8002 458.528 81.8365 460.499 81.2508C462.22 80.7101 463.824 81.6262 465.501 81.6563C467.369 81.6863 469.164 81.1757 471.018 81.3409C472.416 81.461 473.857 81.0856 475.152 81.9416C475.358 82.0768 475.667 82.2871 475.814 82.227C477.771 81.3709 479.757 82.7977 481.713 82.1519C482.022 82.0468 482.464 81.9867 482.699 82.1519C484.553 83.4735 486.627 82.6775 488.598 82.9178C489.805 83.068 491.026 83.2332 492.144 83.9992C493.071 84.615 494.262 84.7952 495.483 84.675C496.984 84.5399 498.337 85.0054 499.75 85.7113C502.354 87.033 505.149 87.9791 507.871 89.0755C508.65 89.3909 509.533 89.496 510.225 89.9616C512.843 91.7188 515.888 92.3646 518.757 93.3708C521.891 94.4822 524.598 96.2394 527.099 98.3119C530.35 101 533.778 103.403 537.191 105.851C538.633 106.888 539.677 108.495 540.898 109.831C544.944 114.232 548.078 119.293 551.02 124.474C553.536 128.89 555.742 133.501 558.155 137.976C559.773 140.95 560.627 144.044 561.348 147.333C558.14 147.813 555.683 149.646 552.991 150.877C551.226 151.688 549.519 152.499 548.107 153.926C544.62 157.5 543.944 161.901 545.106 166.497C546.695 172.879 549.622 178.602 554.536 183.107C556.831 185.225 559.023 187.448 561.333 189.535C562.274 190.361 562.466 191.247 562.407 192.464C562.304 194.551 561.362 196.369 560.862 198.336C560.259 200.754 559.7 203.187 559.023 205.59C558.788 206.386 558.567 207.182 558.287 207.963C557.861 209.27 557.478 210.591 557.066 211.883C556.654 213.189 556.243 214.496 555.742 215.788C554.992 217.755 554.183 219.647 553.138 221.48C552.506 222.576 552.888 223.913 553.712 225.054C557.346 230.1 559.935 235.702 560.494 241.92C560.95 247.117 559.7 252.088 555.86 255.993C555.139 256.728 554.448 257.479 553.859 258.32C550.887 262.496 546.842 265.394 542.678 268.113C540.236 269.72 537.5 270.876 534.852 272.168C529.791 274.601 524.362 275.847 518.963 277.184C516.609 277.785 514.461 279.076 512.034 279.422C508.562 279.902 505.09 280.383 501.603 280.773C500.75 280.863 499.941 281.014 499.161 281.299C496.601 282.245 493.924 282.651 491.32 283.356C488.584 284.107 485.744 283.897 482.964 284.288C480.169 284.678 477.315 284.963 474.49 284.948C470.15 284.903 465.825 285.399 461.499 285.579C458.998 285.684 456.512 286.105 454.011 286C453.084 285.955 452.187 286.045 451.26 285.85C449.951 285.579 448.627 285.579 447.303 285.94C446.729 286.09 446.111 286.375 445.581 286.105C443.316 284.963 440.771 285.669 438.49 284.933C435.519 283.987 432.341 284.378 429.457 283.131C428.943 282.921 428.487 283.026 427.986 283.026C427.162 283.026 426.236 283.131 425.5 282.846C422.146 281.449 418.556 281.119 415.055 280.443C410.362 279.542 406.007 277.574 401.505 276.072C394.767 273.835 388.324 270.741 381.659 268.308C378.952 267.317 376.407 265.83 373.686 264.763C364.8 261.294 356.429 256.804 348.19 251.998C343.541 249.294 339.069 246.321 334.714 243.182C331.095 240.553 328.079 237.189 324.769 234.186C322.254 231.918 320.12 229.274 318.134 226.526L318.164 226.571Z" fill="white"/>
<path d="M693.4 369.879C692.856 369.503 692.665 368.933 692.518 368.377C692.135 366.845 690.988 366.094 689.678 365.899C687.928 365.644 686.309 365.103 684.676 364.442C684.309 364.292 683.867 364.322 683.441 364.307C679.851 364.187 676.247 364.112 672.657 363.977C666.228 363.721 659.799 363.676 653.37 363.301C651.678 363.196 649.869 363.09 648.192 363.856C647.765 364.052 647.309 364.112 646.765 364.007C644.617 363.556 642.483 362.76 640.262 363.977C639.526 364.367 638.452 364.397 637.584 363.916C637.114 363.661 636.643 363.751 636.143 363.706C633.583 363.451 631.023 363.931 628.522 363.736C623.255 363.316 618.033 364.142 612.751 363.916C609.044 363.751 605.263 364.067 601.511 363.916C596.009 363.706 590.522 364.037 585.02 363.886C582.416 363.796 579.709 364.022 577.061 363.931C568.19 363.616 559.318 363.301 550.433 363.511C546.931 363.601 543.415 363.766 539.899 363.826C538.84 363.826 538.251 363.661 538.148 362.324C538.016 360.567 537.486 358.84 537.119 357.098C534.971 347.306 531.116 338.129 527.674 328.788C526.614 325.904 525.526 323.036 524.481 320.137C524.246 319.506 524.025 318.665 525.099 318.635C527.541 318.545 529.836 317.569 532.234 317.374C534.382 317.208 536.339 316.593 538.178 315.692C542.562 313.589 546.902 311.411 551.139 308.993C559.201 304.398 566.851 299.141 573.942 293.149C579.944 288.087 585.373 282.41 590.64 276.508C597.789 268.458 603.409 259.477 608.043 249.79C610.971 243.677 612.766 237.129 614.369 230.521C615.679 225.114 616.444 219.723 616.576 214.166C616.62 212.123 616.12 210.051 616.429 208.083C616.885 205.185 616.606 202.331 615.929 199.598C614.811 195.092 613.501 190.616 611.854 186.276C611.515 185.375 611.192 184.444 611.618 183.558C612.177 182.386 611.869 181.44 611.265 180.449C609.824 178.061 608.294 175.703 607.514 172.955C607.455 172.714 607.205 172.549 607.117 172.309C605.425 168.254 602.35 164.935 601.173 160.594C601.07 160.279 600.923 159.933 600.702 159.693C599.437 158.236 598.584 156.659 597.907 154.767C595.862 149.09 591.831 144.614 588.315 139.884C586.079 136.865 582.975 136.264 579.532 137.676C578.149 138.246 576.781 138.937 575.457 139.643C573.795 140.529 572.662 141.791 572.735 143.878C572.765 144.825 572.471 145.696 571.941 146.492C571.161 145.876 571.22 144.945 571.044 144.149C568.543 133.38 563.791 123.663 557.656 114.622C555.449 111.363 553.331 107.984 550.594 105.055C548.579 102.878 546.358 100.925 544.151 99.0929C540.532 96.1192 536.251 94.0467 531.955 92.1693C530.734 91.6437 529.277 91.1481 528.63 89.9766C527.585 88.0692 525.849 87.2132 524.099 86.5674C519.538 84.8553 515.316 82.3471 510.785 80.605C504.576 78.2471 498.236 76.4298 491.615 75.754C487.79 75.3635 483.951 75.1382 480.126 74.7177C474.05 74.0719 467.944 73.5162 461.839 73.2909C456.322 73.0957 450.805 73.2308 445.288 73.396C442.626 73.4711 439.933 73.1708 437.315 73.5462C431.165 74.4323 425.03 75.4536 419.013 77.1207C415.321 78.1269 411.716 79.4335 407.95 80.2445C406.023 80.6651 404.125 81.446 402.286 82.2721C398.755 83.834 395.313 85.6062 391.797 87.1681C387.001 89.3008 382.558 91.944 378.792 95.7287C375.702 98.8376 372.274 101.601 369.523 105.085C367.787 107.293 366.434 109.741 364.904 112.084C361.579 117.22 358.269 122.372 356.165 128.184C355.694 129.506 355.224 129.461 354.179 128.92C352.016 127.809 349.707 127.043 347.338 126.397C343.337 125.285 339.232 125.225 335.142 125C332.229 124.835 329.361 125.045 326.448 125.601C323.976 126.051 321.666 126.952 319.239 127.388C315.885 127.989 313.163 129.686 310.485 131.743C309.22 132.72 308.22 133.996 306.911 134.822C305.278 135.844 304.145 137.36 303.174 138.862C300.084 143.638 296.436 148.039 293.861 153.1C292.567 155.638 290.536 158.131 291.39 161.405C291.449 161.63 291.36 161.916 291.272 162.141C289.771 165.34 289.345 168.854 288.492 172.234C288.389 172.624 288.05 173.06 288.389 173.435C289.404 174.592 288.992 175.988 289.08 177.31C289.286 180.013 289.257 182.792 289.86 185.405C290.742 189.295 291.625 193.185 292.743 197.014C294.494 203.022 296.701 208.759 300.114 214.015C301.32 215.848 302.468 217.74 303.527 219.678C305.248 222.816 306.984 225.895 309.397 228.554C310.074 229.304 310.647 230.13 311.192 231.032C313.104 234.231 315.296 237.234 318.003 239.802C320.739 242.416 323.579 244.954 326.315 247.582C329.625 250.766 333.362 253.364 337.172 255.797C341.262 258.426 345.587 260.648 349.78 263.081C357.783 267.737 366.184 271.447 374.761 274.841C378.968 276.493 383.19 278.1 387.369 280.022C386.383 280.999 385.544 281.945 384.588 282.771C380.895 286.03 378.38 290.205 376.585 294.651C373.952 301.109 373.952 308.017 374.937 314.851C375.423 318.35 375.864 321.834 376.188 325.349C376.364 327.136 376.158 329.208 377.453 330.92C377.835 331.431 378.394 332.903 378.071 333.218C376.835 334.465 377.688 335.681 377.894 336.808C378.88 341.899 380.484 346.84 381.852 351.841C382.425 353.974 382.455 353.929 380.189 354.169C376.364 354.56 372.51 354.905 369.17 357.083C367.214 358.345 364.845 359.095 363.389 361.063C362.153 362.715 360.358 363.736 359.137 365.388C358.813 365.809 358.254 366.034 357.769 365.854C355.856 365.178 353.944 365.899 352.046 365.779C349.545 365.598 347 365.508 344.499 365.749C340.497 366.124 336.466 366.139 332.479 366.109C327.11 366.064 321.755 366.259 316.414 366.5C313.266 366.65 310.074 366.875 306.94 366.845C301.658 366.815 296.392 366.905 291.125 367.1C284.019 367.341 276.928 367.821 269.822 367.566C264.6 367.386 259.524 368.347 254.419 369.233C253.537 369.398 252.213 369.473 251.948 370.224C251.492 371.606 250.271 372.657 250.315 374.144C250.418 377.463 249.815 380.752 249.932 384.071C250.05 387.691 251.374 390.544 254.169 392.782C255.949 394.209 257.965 394.464 260.069 394.509C263.217 394.584 266.336 394.419 269.469 393.879C273.721 393.158 278.002 392.812 282.371 392.977C282.607 393.098 282.548 393.413 282.489 393.638C281.592 397.768 281.68 401.974 281.401 406.149C281.18 409.498 280.959 412.862 280.827 416.226C280.694 419.2 280.577 422.204 280.856 425.192C281.062 427.37 281.945 429.097 283.534 430.509C284.431 431.335 285.534 431.635 286.447 430.824C287.712 429.653 289.051 428.406 289.36 426.559C289.86 423.615 290.272 420.642 289.963 417.623C289.83 416.256 289.992 414.905 290.066 413.553C290.213 410.234 290.478 406.9 289.389 403.686C289.036 402.649 288.918 401.688 289.551 400.757C290.301 399.646 290.404 398.594 289.345 397.588C289.183 397.423 289.021 397.002 289.08 396.912C289.963 395.936 289.595 394.675 289.874 393.578C289.977 393.128 290.389 392.917 290.831 392.872C291.493 392.782 292.169 392.767 292.876 392.707C292.92 393.653 293.052 394.539 292.979 395.486C292.861 397.453 292.125 399.33 292.243 401.268C292.361 403.34 292.066 405.353 291.596 407.305C291.198 409.002 291.699 410.745 291.096 412.412C290.934 412.832 291.184 413.418 291.316 413.913C291.89 415.956 292.066 418.074 292.228 420.191C292.317 421.438 291.493 422.549 291.537 423.6C291.625 426.394 292.67 429.037 293.964 431.5C294.641 432.822 296.156 432.431 297.289 432.341C298.407 432.251 298.525 431.11 298.584 430.149C298.701 428.391 298.907 426.634 298.775 424.832C298.598 422.099 299.025 419.305 298.643 416.617C298.157 413.283 298.54 409.994 298.584 406.704C298.643 402.89 298.672 399.09 298.495 395.305C298.392 392.977 298.775 392.287 300.923 392.752C304.601 393.563 308.205 391.956 311.839 392.722C315.988 391.28 320.269 393.488 324.417 392.181C329.581 392.707 334.745 392.512 339.909 392.512C345.22 392.542 350.56 392.797 355.871 392.692C358.813 392.647 361.741 393.368 364.639 392.947C367.155 392.587 369.612 392.677 372.127 392.842C374.658 393.023 377.203 392.046 379.733 392.932C380.027 393.038 380.41 392.977 380.734 392.887C383.514 392.121 386.383 392.422 389.208 392.257C393.386 392.001 397.608 392.181 401.786 391.911C405.449 391.656 409.157 392.572 412.79 391.461C417.116 392.302 421.47 391.701 425.766 391.491C431.43 391.235 437.109 391.446 442.787 391.175C449.496 390.845 456.219 390.755 462.928 390.364C464.767 390.259 466.547 389.748 468.4 389.733C471.46 389.703 474.52 389.358 477.566 389.328C481.067 389.283 484.539 388.502 488.055 388.967C488.791 389.073 489.512 389.043 490.262 388.967C493.175 388.757 496.147 388.352 499.015 388.697C503.223 389.208 507.357 389.343 511.535 388.697C511.859 388.652 512.197 388.727 512.535 388.727C516.787 388.787 521.009 389.118 525.261 389.118C530.219 389.118 535.191 388.727 540.149 389.253C541.532 389.418 542.93 389.778 544.327 389.403C545.813 389.013 547.299 389.148 548.8 389.208C553.125 389.403 557.465 389.538 561.775 389.748C566.306 389.974 570.897 389.328 575.472 389.493C578.193 389.598 580.9 389.163 583.666 389.373C585.255 389.493 586.991 390.079 588.58 389.433C589.83 388.907 591.007 388.877 592.258 389.238C593.641 389.628 595.068 389.493 596.407 389.238C598.143 388.907 599.761 388.922 601.541 389.118C604.954 389.493 608.485 389.613 611.913 389.223C617.474 388.607 622.976 389.163 628.463 389.553C632.627 389.854 636.702 388.952 640.85 389.268C645.529 389.613 650.236 389.568 654.944 389.658C656.048 389.658 656.592 390.154 656.239 391.205C655.798 392.527 655.886 393.909 655.768 395.26C655.091 402.559 654.532 409.858 654.665 417.233C654.724 420.146 655.238 422.699 657.313 424.727C657.739 424.472 658.151 423.976 658.578 423.961C660.785 423.916 661.815 422.639 662.374 420.627C662.741 419.305 663.036 417.968 663.094 416.632C663.359 408.852 663.506 401.088 662.771 393.308C662.388 389.403 661.756 390.049 665.551 390.094C665.713 390.094 665.875 390.154 666.449 390.274C665.61 393.713 665.919 397.198 665.507 400.667C664.889 405.728 664.904 410.865 664.698 415.971C664.595 418.674 664.595 421.393 664.801 424.096C664.978 426.289 666.552 427.776 668.788 427.565C669.729 427.475 670.833 428.346 671.701 426.98C672.348 425.958 672.481 424.937 672.51 423.841C672.51 423.495 672.539 423.165 672.539 422.804C672.539 418.269 672.892 413.763 672.642 409.213C672.392 404.602 672.775 399.991 672.48 395.365C672.392 394.014 672.48 392.632 672.436 391.28C672.407 390.094 672.834 389.763 673.981 390.154C676.144 390.89 678.527 390.77 680.16 389.403C681.484 388.292 682.852 388.036 684.117 388.187C686.545 388.472 688.443 387.646 690.34 386.324C691.826 385.288 692.341 383.951 692.238 382.209C692.15 380.752 692.121 379.22 692.694 377.899C693.68 375.646 693.106 373.198 693.886 370.945C694.063 370.48 693.709 370.119 693.386 369.879H693.4ZM283.681 394.539C283.578 394.029 283.298 393.473 283.681 392.917C284.166 393.458 283.725 393.984 283.681 394.539ZM356.018 385.048C350.604 384.777 345.19 384.612 339.762 384.507C337.776 384.462 335.79 384.462 333.803 384.657C331.656 384.867 329.464 384.657 327.301 384.627C322.549 384.567 317.782 384.597 313.06 384.897C309.809 385.123 306.557 384.837 303.306 385.288C301.379 385.558 299.363 385.153 297.377 385.153C293.111 385.153 288.859 385.063 284.593 385.258C281.945 385.363 279.253 385.258 276.59 385.288C272.75 385.288 268.954 385.904 265.129 386.219C263.217 386.369 261.349 386.625 259.407 386.414C258.171 386.279 257.847 385.633 257.641 384.687C257.479 384.041 257.612 383.336 257.303 382.69C256.788 381.608 256.067 380.001 256.773 379.371C258.083 378.214 259.054 376.247 261.26 376.397C263.776 376.577 266.248 375.931 268.748 375.856C275.207 375.601 281.651 375.24 288.109 375.015C292.523 374.865 296.951 374.835 301.364 374.88C303.115 374.88 304.821 374.505 306.572 374.475C308.602 374.429 310.706 374.279 312.722 374.309C316.194 374.369 319.607 373.754 323.079 373.814C326.654 373.889 330.228 373.679 333.789 373.423C337.393 373.168 340.983 373.483 344.558 373.288C345.396 373.243 346.235 373.288 347.059 373.108C347.456 373.033 347.971 372.868 348.294 373.033C350.398 374.174 352.634 373.483 354.797 373.573C354.929 373.573 355.047 373.784 355.209 373.919C354.988 375.331 354.709 376.757 354.576 378.184C354.429 379.701 354.753 381.113 356.092 382.014C357.533 382.975 358.799 384.267 360.74 384.222C361.167 384.222 361.623 384.627 362.123 384.897C360.049 385.588 357.989 385.123 356.018 385.018V385.048ZM575.531 281.074C575.222 281.179 574.942 281.329 574.619 281.179C574.368 280.893 574.354 280.563 574.471 280.218C574.751 279.452 575.163 278.851 576.119 278.986C576.502 279.031 576.722 279.241 576.722 279.617C576.693 280.383 576.266 280.833 575.545 281.074H575.531ZM579.003 277.574C578.694 277.544 578.62 277.334 578.458 277.109C578.576 276.959 578.708 276.718 578.856 276.673C579.209 276.583 579.488 276.838 579.518 277.169C579.518 277.304 579.356 277.604 579.003 277.574ZM381.69 268.353C378.983 267.362 376.438 265.875 373.716 264.808C364.83 261.339 356.459 256.849 348.221 252.043C343.572 249.339 339.1 246.366 334.745 243.227C331.126 240.598 328.11 237.234 324.8 234.231C322.284 231.963 320.151 229.319 318.165 226.571C315.59 222.997 312.707 219.647 310.5 215.788C307.867 211.162 304.704 206.852 302.6 201.925C299.761 195.272 297.657 188.394 297.01 181.125C296.921 180.194 296.907 179.217 297.083 178.301C297.48 176.289 297.966 174.336 297.319 172.264C296.995 171.227 297.642 170.086 297.878 169.11C298.54 166.286 298.643 163.403 299.128 160.579C299.511 158.371 300.629 156.524 301.394 154.512C303.071 150.126 305.366 146.071 308.426 142.497C309.058 141.761 309.647 141.1 310.706 141.1C312.015 141.1 313.163 140.484 314.208 139.793C320.357 135.738 327.316 134.071 334.407 133.41C338.953 133.005 343.631 133.486 348.133 134.732C348.53 134.837 348.942 134.987 349.295 135.243C354.253 138.802 359.137 142.527 361.476 148.504C363.624 153.971 365.728 159.498 366.228 165.43C366.669 170.522 365.286 175.282 362.903 179.668C360.564 183.993 357.313 187.508 353.105 190.046C352.958 190.121 352.855 190.271 352.708 190.361C351.31 191.202 350.84 193.215 349.398 193.695C347.956 194.176 346.308 194.101 344.822 194.732C343.734 195.197 342.601 195.302 341.395 195.242C338.291 195.107 335.172 195.032 332.082 195.062C329.11 195.092 326.521 194.056 324.02 192.584C321.99 191.397 320.004 190.136 318.283 188.499C317.591 187.838 316.782 187.402 315.826 187.297C313.957 187.087 313.104 187.988 313.325 189.956C313.693 192.974 315.443 195.137 317.606 196.954C321.46 200.183 325.844 202.391 330.788 203.262C332.023 203.472 332.847 203.923 333.583 205.064C334.642 206.671 335.966 208.143 337.349 209.48C339.718 211.763 342.145 214.03 344.925 215.803C346.294 216.689 347.809 217.094 349.457 217.079C355.753 217.034 360.461 214.466 363.021 208.398C363.653 206.912 364.33 205.455 364.683 203.848C364.845 203.082 364.933 202.376 364.786 201.58C364.404 199.372 364.374 197.074 364.963 194.957C365.478 193.185 364.433 191.097 366.037 189.625C367.449 188.334 368.258 186.652 369.214 185.06C372.833 178.992 374.025 172.324 373.613 165.37C373.422 162.171 372.73 158.927 371.671 155.863C370.274 151.838 369.45 147.648 367.729 143.713C366.596 141.1 365.345 138.592 363.271 136.655C361.976 135.438 361.697 134.237 362.491 132.675C363.653 130.407 364.639 128.064 365.919 125.886C369.347 120.029 372.936 114.262 376.923 108.78C378.924 106.017 381.822 104.154 384.191 101.736C387.457 98.4171 391.606 96.5097 395.607 94.3921C396.622 93.8514 397.74 93.4159 398.446 92.3646C398.623 92.1093 398.961 91.7788 399.226 91.7638C402.154 91.6437 404.052 88.5198 407.17 88.9403C408.48 87.4985 410.333 88.0843 411.908 87.6337C412.29 87.5136 412.761 87.3784 413.011 87.093C413.85 86.1018 414.879 85.9967 416.071 86.1168C417.425 86.222 418.822 85.9216 419.764 85.0054C420.573 84.1944 421.411 83.9391 422.338 84.0443C423.574 84.1944 424.486 83.7138 425.604 83.2483C427.664 82.3622 429.959 82.0768 432.224 82.3021C432.828 82.3622 433.401 82.5424 433.828 82.1219C435.196 80.7852 436.785 81.1607 438.344 81.461C439.08 81.6112 439.772 81.8515 440.522 81.4911C441.302 81.1006 442.096 80.3046 442.905 81.5512C443.111 81.8816 443.435 81.4911 443.714 81.2958C444.362 80.8753 445.009 80.4999 445.715 81.2958C445.892 81.4911 446.362 81.5512 446.657 81.4911C449.29 80.9204 451.967 81.6563 454.63 81.1607C456.558 80.8002 458.529 81.8365 460.5 81.2508C462.222 80.7101 463.825 81.6263 465.502 81.6563C467.371 81.6863 469.165 81.1757 471.019 81.3409C472.417 81.4611 473.858 81.0856 475.153 81.9416C475.359 82.0768 475.668 82.2871 475.815 82.227C477.772 81.3709 479.758 82.7977 481.714 82.1519C482.023 82.0468 482.465 81.9867 482.7 82.1519C484.554 83.4736 486.628 82.6776 488.6 82.9179C489.806 83.068 491.027 83.2332 492.145 83.9992C493.072 84.615 494.263 84.7952 495.485 84.675C496.985 84.5399 498.339 85.0054 499.751 85.7113C502.355 87.033 505.15 87.9791 507.872 89.0755C508.652 89.3909 509.534 89.496 510.226 89.9616C512.844 91.7188 515.89 92.3646 518.758 93.3708C521.892 94.4822 524.599 96.2394 527.1 98.3119C530.351 101 533.779 103.403 537.192 105.851C538.634 106.888 539.678 108.495 540.899 109.831C544.945 114.232 548.079 119.293 551.021 124.474C553.537 128.89 555.744 133.501 558.156 137.976C559.775 140.95 560.628 144.044 561.349 147.333C558.142 147.813 555.685 149.646 552.992 150.877C551.227 151.688 549.521 152.499 548.108 153.926C544.622 157.5 543.945 161.901 545.107 166.497C546.696 172.879 549.623 178.602 554.537 183.107C556.832 185.225 559.024 187.448 561.334 189.535C562.276 190.361 562.467 191.247 562.408 192.464C562.305 194.551 561.363 196.369 560.863 198.336C560.26 200.754 559.701 203.187 559.024 205.59C558.804 206.386 558.568 207.182 558.303 207.963C557.877 209.27 557.48 210.591 557.068 211.883C556.656 213.189 556.244 214.496 555.744 215.788C554.993 217.755 554.184 219.647 553.14 221.48C552.507 222.576 552.889 223.913 553.713 225.054C557.347 230.1 559.936 235.702 560.495 241.92C560.951 247.117 559.701 252.088 555.861 255.993C555.14 256.728 554.449 257.479 553.86 258.32C550.889 262.496 546.843 265.394 542.68 268.113C540.237 269.72 537.501 270.876 534.853 272.168C529.792 274.601 524.364 275.847 518.964 277.184C516.61 277.785 514.463 279.076 512.035 279.422C508.563 279.902 505.091 280.383 501.605 280.773C500.751 280.863 499.942 281.014 499.162 281.299C496.603 282.245 493.925 282.651 491.321 283.356C488.585 284.107 485.745 283.897 482.965 284.288C480.17 284.678 477.316 284.963 474.491 284.948C470.151 284.903 465.826 285.399 461.501 285.579C459 285.684 456.513 286.105 454.012 286C453.086 285.955 452.188 286.045 451.261 285.85C449.952 285.579 448.628 285.579 447.304 285.94C446.73 286.09 446.112 286.375 445.583 286.105C443.317 284.963 440.772 285.669 438.492 284.933C435.52 283.987 432.342 284.378 429.459 283.131C428.944 282.921 428.488 283.026 427.987 283.026C427.164 283.026 426.237 283.131 425.501 282.846C422.147 281.449 418.557 281.119 415.056 280.443C410.363 279.542 406.008 277.574 401.506 276.072C394.769 273.835 388.325 270.741 381.66 268.308L381.69 268.353ZM358.49 197.36C358.225 200.063 357.357 202.121 356.562 204.103C356.209 204.989 355.474 206.446 354.694 206.716C353.061 207.302 351.502 208.338 349.736 208.368C348.456 208.368 347.353 207.542 346.367 206.777C345.514 206.116 344.852 205.23 343.91 204.253C349.692 203.983 353.973 200.979 358.475 197.345L358.49 197.36ZM578.532 216.854C578.9 220.984 578.65 225.069 577.782 229.049C577.149 231.978 576.384 235.042 574.163 237.339C572.794 238.736 572.029 240.553 571.279 242.296C570.676 243.692 569.764 244.744 568.572 245.81C568.955 243.046 567.998 240.313 568.646 237.55C569.028 236.003 567.998 234.771 567.233 233.6C566.63 232.669 566.145 231.752 565.924 230.641C565.291 227.472 563.085 225.084 561.834 222.231C566.159 218.251 567.778 212.859 569.411 207.482C570.146 205.064 570.882 202.646 571.691 200.033C573.603 201.91 574.81 203.938 576.016 205.996C576.516 206.852 576.781 207.948 577.885 208.248C578.326 208.383 578.296 208.549 578.194 208.939C577.546 211.597 578.297 214.211 578.532 216.839V216.854ZM430.121 370.45C429.473 373.679 428.061 376.983 424.766 378.74C424.059 379.115 423.412 379.341 422.632 379.341C418.278 379.235 413.953 378.92 409.657 378.079C405.758 377.313 401.801 377.598 397.873 377.704C395.71 377.764 393.533 377.944 391.37 377.854C385.839 377.643 380.292 377.493 374.775 377.959C371.303 378.259 367.92 377.704 364.507 377.613C363.433 377.583 363.212 377.253 363.33 376.036C363.712 372.132 365.639 369.383 368.479 366.815C370.98 364.562 373.643 363.09 376.85 362.655C378.497 362.43 380.189 362.565 381.881 362.595C384.309 362.64 386.736 362.79 389.163 362.79C392.282 362.79 395.313 363.286 398.27 364.337C400.388 365.088 402.477 366.019 404.802 365.929C406.317 365.884 407.582 365.418 408.421 364.022C408.598 363.736 408.995 363.316 408.848 363.181C407.833 362.234 408.141 360.372 406.685 359.786C403.184 358.405 400.109 356.032 396.343 355.251C395.18 355.01 394.68 354.35 394.371 353.058C393.062 347.471 390.708 342.245 388.796 336.868C387.972 334.54 387.221 332.227 386.868 329.734C386.486 327.046 385.853 324.387 384.706 321.894C384.603 321.669 384.426 321.444 384.412 321.203C383.955 314.76 382.484 308.408 383.352 301.829C384.014 296.768 385.633 292.248 388.59 288.192C389.767 286.555 390.708 284.723 392.415 283.477C393.356 282.786 394.033 282.726 395.122 283.101C400.094 284.858 404.993 286.931 410.128 288.087C414.865 289.154 419.499 290.686 424.28 291.467C428.532 292.172 432.754 293.344 437.094 293.479C443.523 293.689 449.923 294.305 456.322 294.771C460.78 295.086 465.179 294.215 469.592 293.945C473.432 293.719 477.272 293.329 481.097 292.983C483.995 292.728 486.819 292.518 489.644 291.422C492.645 290.265 495.999 290.055 499.207 289.424C504.047 288.463 508.946 288.102 513.845 287.712C517.125 287.457 520.171 286.12 523.29 285.204C528.1 283.792 532.955 282.365 537.619 280.488C544.857 277.574 551.286 273.339 557.141 268.113C558.48 266.911 559.524 265.424 560.525 263.997C562.114 261.715 564.335 259.957 565.586 257.344C566.439 255.557 568.293 254.371 569.823 253.019C571.367 251.667 573.044 250.466 574.383 248.874C574.766 248.423 575.104 247.928 575.472 247.477C577.252 245.209 578.635 242.641 580.636 240.538C581.033 240.103 581.445 239.637 581.695 239.112C583.46 235.342 585.432 231.647 586.579 227.592C587.256 225.174 587.315 222.711 586.829 220.233C586.476 218.476 586.285 216.749 586.697 214.917C587.123 213.099 586.241 211.357 585.549 209.78C584.108 206.446 582.563 203.142 580.871 199.913C579.915 198.081 579.37 196.053 578.076 194.356C577.679 193.83 577.414 193.275 576.796 192.944C576.369 192.719 575.913 192.509 575.913 191.863C575.913 189.475 574.118 188.379 572.5 187.372C571.573 186.787 570.779 186.201 570.014 185.405C567.91 183.212 565.674 181.155 563.379 179.187C562.084 178.076 561.128 176.619 559.789 175.613C558.759 174.847 559.201 173.585 558.495 172.684C557.524 171.423 556.803 169.951 556.067 168.509C554.419 165.295 554.728 161.525 557.318 158.356C557.671 157.921 558.127 157.711 558.568 157.606C565.424 155.773 572.103 155.803 578.311 159.843C579.238 160.444 580.032 161.195 580.503 162.381C580.886 163.373 581.739 164.184 582.342 165.1C582.578 165.43 582.872 165.55 583.195 165.445C584.225 165.115 585.152 165.686 586.123 165.806C587.653 165.986 588.492 165.025 589.345 164.048C589.801 163.523 589.61 162.937 589.316 162.366C588.271 160.324 586.903 158.567 585.285 156.9C583.637 155.218 582.077 153.49 580.106 152.199C579.65 151.898 579.576 151.373 579.591 150.832C579.621 149.976 579.635 149.12 579.694 148.264C579.812 146.191 581.283 144.9 583.313 144.945C583.99 144.945 584.402 145.29 584.77 145.771C588.168 150.306 591.596 154.812 593.17 160.444C593.7 162.336 594.509 164.079 595.421 165.806C596.245 167.353 597.172 168.854 597.569 170.642C598.187 173.435 600.07 175.628 601.129 178.241C602.306 181.14 603.615 184.008 604.66 186.967C604.998 187.913 605.116 188.979 605.925 189.7C606.278 190.016 606.469 190.571 606.278 190.857C605.263 192.329 606.204 193.665 606.499 195.002C607.837 201.069 608.97 207.167 608.617 213.4C608.455 216.133 608.367 218.897 607.808 221.63C606.97 225.805 606.087 229.965 605.101 234.095C603.939 239.021 602.012 243.632 599.761 248.108C596.863 253.86 593.979 259.702 589.904 264.688C587.859 267.196 585.755 269.75 583.387 272.002C582.327 273.009 581.783 274.751 579.974 274.691C579.826 274.691 579.709 274.465 579.753 274.766C580.047 276.703 578.223 276.583 577.355 277.409C575.884 278.806 573.942 279.587 572.618 281.179C573.074 281.404 573.854 281.149 573.942 281.975C574.015 282.606 573.501 282.816 573.059 283.056C572.824 283.176 572.559 283.281 572.412 283.462C571.25 285.069 569.911 285.339 568.44 283.882C567.734 284.693 569.484 285.294 568.381 285.925C567.557 286.39 566.763 287.186 565.747 286.3C565.659 286.21 565.571 286.12 565.468 286.045C564.659 286.045 564.159 286.721 563.452 287.006C562.923 287.216 562.481 287.682 562.687 288.418C563.143 290.025 561.981 290.746 560.981 291.497C557.435 294.215 553.463 296.182 549.609 298.345C544.93 300.988 540.046 303.286 535.088 305.239C531.631 306.59 528.159 308.287 524.378 308.603C523.128 308.708 521.966 310.225 520.877 309.339C520.068 308.678 519.935 307.191 519.317 306.185C518.361 304.608 517.405 302.986 515.669 302.085C514.566 301.514 513.389 301.184 512.329 301.859C511.197 302.58 511.182 303.902 511.476 305.118C512.565 309.564 513.55 314.025 515.242 318.335C516.537 321.609 517.729 324.973 518.376 328.548C518.832 331.026 519.038 333.684 520.568 335.877C520.715 336.072 520.892 336.342 520.892 336.552C520.539 340.668 522.157 344.347 523.172 348.177C523.363 348.928 523.657 349.664 522.657 350.129C522.01 350.415 522.127 350.925 522.554 351.331C524.908 353.554 525.217 356.843 526.659 359.546C526.909 360.012 526.953 360.537 526.659 361.018C526.364 361.498 526.394 361.934 526.585 362.475C527.173 364.022 527.085 364.157 525.57 364.232C520.127 364.427 514.683 364.427 509.269 364.848C501.766 365.448 494.234 365.433 486.716 365.944C484.098 366.124 481.406 366.049 478.743 366.079C473.8 366.139 468.871 366.004 463.928 366.199C459.162 366.379 454.395 366.455 449.628 366.229C448.599 366.169 447.569 366.44 446.686 366.71C444.862 367.281 442.905 366.44 441.154 367.476C440.537 367.851 439.977 367.401 440.198 366.575C440.801 364.412 440.934 362.234 440.654 360.012C440.125 355.716 439.904 351.376 438.918 347.141C437.741 342.004 436.506 336.898 435.373 331.762C434.873 329.509 433.799 327.421 433.357 325.183C432.636 321.564 430.93 318.275 429.944 314.745C428.826 310.72 426.046 307.822 423.206 305.013C422.706 304.518 421.926 303.632 421.058 304.413C420.176 305.224 418.896 305.794 419.278 307.476C419.587 308.828 420.014 310.135 420.676 311.291C422.691 314.851 423.868 318.65 424.574 322.69C425.281 326.685 426.207 330.665 427.428 334.555C427.929 336.162 428.076 337.889 428.311 339.586C428.973 344.287 429.709 348.973 430.518 353.659C431.459 359.291 431.312 364.938 430.194 370.42L430.121 370.45ZM684.971 373.498C684.544 375.496 684.103 377.478 683.779 379.491C683.603 380.527 683.043 380.993 682.131 381.083C680.881 381.203 679.63 381.323 678.365 381.308C672.613 381.218 666.861 381.308 661.108 380.948C654.488 380.527 647.868 380.407 641.262 380.212C638.423 380.137 635.584 379.761 632.759 380.317C630.832 380.692 628.949 380.122 627.036 380.137C622.446 380.137 617.856 379.881 613.266 379.881C604.895 379.881 596.539 379.881 588.183 380.137C581.665 380.317 575.133 380.302 568.616 380.392C566.615 380.437 564.6 380.647 562.614 380.707C558.951 380.782 555.273 380.602 551.61 380.392C548.358 380.212 545.092 380.122 541.856 380.392C539.164 380.632 536.501 380.572 533.838 380.362C529.998 380.091 526.173 380.392 522.333 380.362C519.7 380.332 517.052 380.332 514.404 380.137C512.006 379.956 509.564 380.212 507.151 380.317C503.679 380.467 500.207 380.707 496.72 380.257C494.911 380.031 493.028 380.287 491.203 380.362C486.216 380.587 481.244 380.557 476.256 380.902C469.93 381.338 463.59 381.638 457.264 382.254C454.042 382.585 450.776 382.494 447.539 382.66C445.23 382.78 442.935 382.915 440.61 382.63C439.08 382.449 437.462 382.765 435.902 383.02C434.99 383.17 434.152 383.08 432.931 383.065C434.564 380.918 436.064 379.1 436.976 376.878C437.123 376.517 437.491 376.127 437.844 375.991C440.066 375.165 442.155 374.054 444.626 373.874C450.879 373.438 457.146 373.318 463.413 373.303C466.826 373.303 470.284 373.363 473.667 373.123C475.668 372.973 477.683 373.303 479.699 372.868C481.803 372.417 483.995 373.078 486.157 373.048C493.734 372.943 501.31 373.138 508.887 372.913C511.27 372.837 513.698 372.777 516.096 372.612C518.891 372.417 521.686 373.123 524.496 372.943C530.616 372.552 536.721 372.943 542.827 372.943C549.771 372.943 556.7 372.837 563.658 372.687C568.749 372.582 573.854 372.327 578.944 372.087C582.195 371.921 585.446 372.147 588.698 371.981C597.024 371.516 605.366 371.651 613.693 371.921C620.872 372.147 628.051 372.387 635.231 372.597C640.718 372.747 646.22 372.597 651.708 372.417C655.636 372.282 659.593 372.237 663.551 372.372C667.464 372.522 671.392 372.267 675.32 371.996C678.262 371.801 681.175 372.192 684.088 372.087C684.985 372.041 685.147 372.657 684.971 373.483V373.498Z" fill="#161718"/>
<path d="M565.41 286.045C564.586 286.045 564.086 286.736 563.394 287.021C562.865 287.231 562.409 287.697 562.629 288.448C563.085 290.055 561.923 290.776 560.923 291.527C557.377 294.23 553.405 296.197 549.551 298.375C544.857 301.018 539.988 303.316 535.015 305.269C531.558 306.635 528.086 308.318 524.291 308.633C523.04 308.738 521.893 310.24 520.789 309.369C519.965 308.708 519.833 307.221 519.23 306.215C518.274 304.638 517.317 303.016 515.581 302.115C514.463 301.529 513.301 301.214 512.256 301.89C511.124 302.61 511.109 303.947 511.403 305.149C512.507 309.594 513.478 314.055 515.169 318.365C516.449 321.639 517.641 325.018 518.303 328.578C518.759 331.041 518.965 333.714 520.495 335.907C520.642 336.102 520.833 336.357 520.804 336.583C520.451 340.683 522.069 344.377 523.084 348.207C523.276 348.943 523.584 349.694 522.584 350.159C521.937 350.46 522.054 350.955 522.481 351.376C524.835 353.599 525.144 356.888 526.586 359.591C526.836 360.057 526.88 360.582 526.586 361.063C526.291 361.544 526.321 361.979 526.527 362.52C527.101 364.067 527.012 364.217 525.497 364.277C520.068 364.472 514.61 364.472 509.196 364.893C501.693 365.478 494.161 365.478 486.643 365.989C484.025 366.169 481.333 366.094 478.67 366.124C473.727 366.184 468.784 366.049 463.855 366.244C459.074 366.44 454.307 366.515 449.541 366.274C448.496 366.229 447.496 366.485 446.598 366.77C444.774 367.341 442.817 366.5 441.067 367.551C440.449 367.926 439.89 367.476 440.125 366.65C440.728 364.487 440.846 362.309 440.567 360.102C440.037 355.806 439.816 351.466 438.831 347.231C437.639 342.109 436.418 337.003 435.285 331.867C434.785 329.599 433.711 327.541 433.255 325.274C432.534 321.639 430.827 318.38 429.842 314.836C428.724 310.811 425.943 307.912 423.104 305.104C422.604 304.608 421.824 303.722 420.941 304.518C420.044 305.314 418.779 305.9 419.161 307.582C419.47 308.933 419.911 310.24 420.559 311.396C422.574 314.956 423.751 318.755 424.457 322.795C425.163 326.79 426.076 330.755 427.311 334.645C427.826 336.252 427.973 337.979 428.209 339.676C428.856 344.377 429.621 349.078 430.416 353.749C431.372 359.366 431.21 365.028 430.092 370.525C429.445 373.739 428.032 377.058 424.722 378.815C424.016 379.19 423.383 379.416 422.604 379.401C418.249 379.311 413.909 378.995 409.628 378.139C405.729 377.373 401.772 377.644 397.844 377.764C395.681 377.824 393.489 378.004 391.327 377.914C385.795 377.704 380.249 377.553 374.732 378.019C371.26 378.319 367.891 377.764 364.463 377.674C363.389 377.644 363.169 377.313 363.286 376.112C363.669 372.207 365.596 369.458 368.435 366.89C370.936 364.637 373.599 363.166 376.806 362.73C378.454 362.505 380.146 362.64 381.823 362.67C384.25 362.715 386.678 362.865 389.105 362.88C392.224 362.88 395.255 363.376 398.197 364.427C400.315 365.193 402.405 366.109 404.744 366.019C406.244 365.959 407.524 365.508 408.348 364.097C408.525 363.811 408.922 363.391 408.76 363.241C407.745 362.295 408.069 360.432 406.597 359.861C403.096 358.48 400.007 356.107 396.255 355.326C395.093 355.086 394.593 354.425 394.284 353.118C392.974 347.531 390.635 342.305 388.723 336.913C387.899 334.585 387.134 332.272 386.781 329.794C386.398 327.106 385.766 324.448 384.618 321.954C384.515 321.729 384.339 321.504 384.324 321.279C383.868 314.836 382.411 308.483 383.265 301.905C383.927 296.843 385.56 292.323 388.502 288.268C389.694 286.631 390.62 284.813 392.312 283.552C393.254 282.861 393.945 282.801 395.034 283.176C400.007 284.918 404.906 287.006 410.04 288.163C414.777 289.229 419.411 290.761 424.192 291.542C428.459 292.248 432.666 293.404 437.006 293.554C443.435 293.764 449.835 294.38 456.234 294.846C460.692 295.176 465.091 294.29 469.504 294.035C473.344 293.81 477.169 293.434 481.009 293.074C483.892 292.818 486.732 292.608 489.571 291.512C492.572 290.355 495.927 290.145 499.134 289.514C503.974 288.553 508.873 288.178 513.772 287.802C517.052 287.547 520.098 286.21 523.202 285.294C528.027 283.867 532.853 282.455 537.531 280.578C544.769 277.665 551.198 273.414 557.053 268.203C558.407 267.001 559.451 265.514 560.437 264.088C562.026 261.79 564.247 260.048 565.498 257.434C566.351 255.647 568.205 254.461 569.735 253.109C571.28 251.757 572.957 250.541 574.31 248.964C574.693 248.513 575.031 248.018 575.384 247.552C577.164 245.284 578.547 242.716 580.548 240.614C580.96 240.193 581.357 239.712 581.607 239.187C583.373 235.417 585.329 231.723 586.477 227.682C587.168 225.264 587.212 222.801 586.727 220.323C586.374 218.566 586.168 216.839 586.594 215.007C587.006 213.19 586.138 211.447 585.447 209.855C583.99 206.521 582.475 203.217 580.769 199.988C579.812 198.171 579.283 196.128 577.973 194.431C577.576 193.921 577.311 193.35 576.694 193.019C576.267 192.794 575.796 192.584 575.811 191.938C575.811 189.55 574.031 188.469 572.398 187.448C571.471 186.862 570.691 186.276 569.911 185.48C567.808 183.287 565.572 181.23 563.262 179.247C561.967 178.136 561.026 176.679 559.672 175.673C558.642 174.907 559.098 173.645 558.392 172.729C557.421 171.468 556.686 169.996 555.95 168.569C554.302 165.355 554.611 161.585 557.201 158.417C557.554 157.981 558.01 157.771 558.451 157.651C565.307 155.833 571.986 155.863 578.194 159.888C579.121 160.489 579.93 161.255 580.386 162.427C580.769 163.418 581.622 164.229 582.225 165.145C582.446 165.475 582.755 165.595 583.078 165.49C584.108 165.16 585.035 165.731 586.006 165.851C587.536 166.046 588.389 165.07 589.243 164.094C589.699 163.568 589.507 162.982 589.213 162.427C588.169 160.369 586.8 158.612 585.182 156.96C583.534 155.278 581.975 153.551 580.004 152.259C579.548 151.959 579.459 151.418 579.489 150.892C579.533 150.036 579.533 149.18 579.592 148.324C579.724 146.251 581.181 144.96 583.211 145.005C583.888 145.02 584.314 145.35 584.667 145.831C588.066 150.367 591.493 154.872 593.068 160.489C593.597 162.381 594.406 164.124 595.318 165.851C596.142 167.398 597.069 168.915 597.466 170.702C598.084 173.495 599.967 175.703 601.027 178.301C602.218 181.215 603.498 184.068 604.557 187.027C604.896 187.973 605.013 189.04 605.823 189.76C606.176 190.076 606.367 190.617 606.176 190.902C605.161 192.374 606.102 193.71 606.396 195.062C607.72 201.115 608.868 207.227 608.515 213.445C608.353 216.178 608.265 218.942 607.706 221.69C606.867 225.865 605.984 230.01 605.013 234.156C603.851 239.082 601.924 243.692 599.673 248.153C596.775 253.92 593.891 259.747 589.816 264.733C587.771 267.242 585.653 269.795 583.299 272.048C582.24 273.054 581.696 274.781 579.871 274.751C579.724 274.751 579.606 274.526 579.651 274.826C579.945 276.778 578.121 276.643 577.253 277.469C575.781 278.866 573.839 279.647 572.515 281.239C572.986 281.464 573.751 281.209 573.839 282.02C573.913 282.666 573.398 282.861 572.957 283.101C572.736 283.221 572.457 283.312 572.324 283.507C571.147 285.114 569.808 285.384 568.337 283.942C567.631 284.738 569.397 285.354 568.278 285.985C567.455 286.465 566.66 287.246 565.645 286.36C565.969 286.33 566.175 286.18 566.116 285.82C566.307 285.85 566.41 285.775 566.395 285.594C566.395 285.579 566.263 285.519 566.204 285.534C566.013 285.609 565.998 285.729 566.16 285.865C565.792 285.579 565.572 285.775 565.366 286.09L565.41 286.045Z" fill="#5BC9E4"/>
<path d="M432.887 383.05C434.52 380.903 436.035 379.085 436.932 376.863C437.08 376.502 437.447 376.112 437.8 375.976C440.022 375.15 442.096 374.039 444.582 373.859C450.835 373.423 457.102 373.303 463.355 373.288C466.782 373.288 470.225 373.348 473.609 373.108C475.609 372.958 477.625 373.303 479.64 372.868C481.744 372.417 483.921 373.078 486.099 373.033C493.675 372.913 501.252 373.123 508.828 372.898C511.226 372.823 513.639 372.762 516.052 372.597C518.847 372.402 521.642 373.108 524.467 372.928C530.572 372.537 536.677 372.928 542.798 372.928C549.741 372.943 556.685 372.838 563.629 372.672C568.719 372.552 573.824 372.297 578.915 372.072C582.166 371.921 585.417 372.147 588.683 371.967C597.01 371.501 605.351 371.651 613.693 371.906C620.872 372.132 628.052 372.372 635.231 372.567C640.733 372.717 646.22 372.582 651.723 372.402C655.651 372.267 659.608 372.207 663.565 372.357C667.479 372.507 671.422 372.252 675.335 371.982C678.277 371.786 681.175 372.177 684.103 372.057C685 372.012 685.162 372.642 684.986 373.453C684.559 375.451 684.118 377.433 683.794 379.446C683.617 380.497 683.044 380.948 682.132 381.038C680.881 381.158 679.616 381.263 678.365 381.248C672.613 381.173 666.846 381.248 661.109 380.888C654.503 380.467 647.883 380.362 641.263 380.167C638.438 380.077 635.584 379.716 632.759 380.257C630.847 380.632 628.949 380.062 627.036 380.062C622.446 380.062 617.856 379.821 613.266 379.821C604.91 379.821 596.539 379.821 588.183 380.062C581.651 380.242 575.134 380.227 568.602 380.332C566.586 380.362 564.585 380.587 562.599 380.632C558.936 380.707 555.273 380.527 551.61 380.332C548.358 380.152 545.078 380.047 541.856 380.332C539.164 380.572 536.501 380.512 533.838 380.317C529.998 380.032 526.173 380.332 522.334 380.317C519.685 380.287 517.052 380.302 514.389 380.092C511.991 379.911 509.549 380.167 507.136 380.272C503.665 380.422 500.193 380.647 496.706 380.212C494.896 379.986 493.028 380.227 491.189 380.302C486.202 380.527 481.229 380.497 476.242 380.842C469.916 381.278 463.575 381.578 457.249 382.209C454.027 382.525 450.761 382.434 447.525 382.615C445.215 382.735 442.92 382.855 440.596 382.585C439.066 382.404 437.447 382.72 435.888 382.96C434.976 383.11 434.137 383.02 432.931 382.99L432.887 383.05Z" fill="white"/>
<path d="M355.209 373.949C354.988 375.361 354.709 376.787 354.576 378.214C354.429 379.731 354.753 381.143 356.091 382.044C357.533 383.005 358.813 384.297 360.74 384.252C361.167 384.252 361.608 384.672 362.123 384.927C360.049 385.618 357.989 385.153 356.018 385.048C350.604 384.777 345.19 384.612 339.762 384.507C337.775 384.477 335.789 384.462 333.803 384.657C331.641 384.867 329.463 384.657 327.286 384.627C322.534 384.567 317.782 384.597 313.045 384.912C309.794 385.123 306.543 384.852 303.291 385.303C301.379 385.573 299.349 385.168 297.363 385.168C293.096 385.168 288.845 385.078 284.578 385.273C281.93 385.393 279.238 385.288 276.575 385.303C272.735 385.318 268.94 385.919 265.115 386.234C263.202 386.384 261.334 386.655 259.392 386.444C258.171 386.309 257.832 385.663 257.626 384.717C257.479 384.056 257.597 383.35 257.288 382.705C256.788 381.623 256.052 380.016 256.758 379.401C258.068 378.244 259.039 376.277 261.245 376.427C263.761 376.592 266.233 375.976 268.734 375.871C275.192 375.631 281.636 375.255 288.094 375.03C292.508 374.88 296.936 374.835 301.364 374.895C303.115 374.91 304.807 374.535 306.557 374.489C308.588 374.444 310.706 374.294 312.707 374.324C316.179 374.384 319.592 373.769 323.064 373.829C326.639 373.889 330.214 373.679 333.774 373.423C337.364 373.168 340.953 373.483 344.543 373.288C345.381 373.243 346.205 373.288 347.044 373.123C347.456 373.048 347.956 372.883 348.28 373.048C350.398 374.189 352.62 373.498 354.797 373.588C354.929 373.588 355.047 373.799 355.209 373.934V373.949Z" fill="white"/>
<path d="M574.619 281.179C574.369 280.894 574.354 280.548 574.472 280.218C574.751 279.452 575.163 278.851 576.105 278.986C576.487 279.046 576.722 279.241 576.708 279.617C576.678 280.383 576.237 280.848 575.531 281.074C575.222 281.179 574.942 281.344 574.619 281.179Z" fill="#5BC9E4"/>
<path d="M283.666 394.539C283.578 394.029 283.283 393.473 283.666 392.917C284.137 393.443 283.71 393.984 283.666 394.539Z" fill="#5BC9E4"/>
<path d="M578.458 277.109C578.59 276.959 578.708 276.718 578.87 276.673C579.223 276.598 579.503 276.838 579.517 277.169C579.517 277.304 579.355 277.604 579.017 277.574C578.708 277.544 578.635 277.349 578.458 277.109Z" fill="#5BC9E4"/>
<path d="M566.204 285.82C566.042 285.684 566.057 285.549 566.248 285.474C566.307 285.459 566.439 285.504 566.439 285.534C566.439 285.714 566.336 285.79 566.16 285.759L566.204 285.82Z" fill="#161718"/>
<path d="M565.409 286.045C565.615 285.744 565.836 285.534 566.204 285.819L566.159 285.759C566.204 286.135 565.998 286.27 565.689 286.3C565.6 286.21 565.497 286.12 565.409 286.03V286.045Z" fill="#161718"/>
<path d="M561.333 189.595C559.024 187.508 556.832 185.27 554.537 183.167C549.623 178.677 546.695 172.94 545.107 166.557C543.944 161.961 544.621 157.56 548.108 153.986C549.505 152.574 551.227 151.748 552.992 150.937C555.699 149.706 558.141 147.888 561.348 147.393C560.613 144.104 559.774 141.025 558.156 138.036C555.728 133.561 553.536 128.965 551.021 124.534C548.078 119.353 544.945 114.292 540.899 109.891C539.663 108.555 538.619 106.933 537.192 105.911C533.779 103.463 530.336 101.06 527.099 98.372C524.598 96.2995 521.892 94.5273 518.758 93.4309C515.874 92.4247 512.829 91.7638 510.225 90.0217C509.548 89.5561 508.651 89.451 507.871 89.1356C505.164 88.0392 502.354 87.0931 499.75 85.7714C498.338 85.0505 496.97 84.5849 495.484 84.7351C494.263 84.8403 493.071 84.66 492.145 84.0593C491.026 83.2933 489.805 83.1281 488.599 82.9779C486.628 82.7226 484.553 83.5336 482.7 82.212C482.464 82.0468 482.023 82.1069 481.714 82.212C479.757 82.8578 477.771 81.431 475.815 82.2871C475.667 82.3472 475.359 82.1369 475.153 82.0017C473.858 81.1457 472.416 81.5211 471.019 81.401C469.15 81.2208 467.355 81.7464 465.502 81.7164C463.825 81.6863 462.236 80.7702 460.5 81.3109C458.543 81.9116 456.557 80.8603 454.63 81.2208C451.967 81.7014 449.289 80.9655 446.656 81.5512C446.362 81.6113 445.906 81.5512 445.715 81.3559C445.023 80.5599 444.361 80.9354 443.714 81.3559C443.449 81.5362 443.111 81.9417 442.905 81.6113C442.095 80.3497 441.301 81.1607 440.521 81.5512C439.771 81.9266 439.08 81.6713 438.344 81.5211C436.785 81.2208 435.21 80.8453 433.827 82.182C433.401 82.5875 432.812 82.4223 432.224 82.3622C429.958 82.1369 427.663 82.4223 425.604 83.3084C424.5 83.7739 423.588 84.2545 422.338 84.1043C421.411 83.9992 420.558 84.2545 419.763 85.0655C418.822 85.9817 417.424 86.2971 416.071 86.1769C414.894 86.0718 413.864 86.1769 413.011 87.1531C412.76 87.4385 412.29 87.5736 411.907 87.6938C410.333 88.1444 408.494 87.5586 407.17 89.0004C404.051 88.5799 402.153 91.6887 399.226 91.8239C398.961 91.8239 398.623 92.1543 398.446 92.4247C397.74 93.461 396.636 93.8965 395.607 94.4522C391.59 96.5698 387.456 98.4772 384.19 101.796C381.822 104.199 378.924 106.062 376.923 108.84C372.936 114.337 369.346 120.089 365.918 125.946C364.639 128.139 363.638 130.482 362.491 132.735C361.696 134.297 361.976 135.498 363.27 136.715C365.345 138.652 366.595 141.145 367.728 143.773C369.449 147.693 370.273 151.898 371.671 155.923C372.73 158.972 373.421 162.216 373.613 165.43C374.025 172.384 372.818 179.037 369.214 185.12C368.272 186.727 367.449 188.394 366.036 189.685C364.433 191.157 365.477 193.245 364.962 195.017C364.359 197.135 364.388 199.432 364.786 201.64C364.933 202.436 364.845 203.127 364.683 203.908C364.33 205.515 363.653 206.972 363.02 208.459C360.46 214.526 355.753 217.094 349.456 217.139C347.808 217.139 346.278 216.749 344.925 215.863C342.144 214.091 339.717 211.823 337.348 209.54C335.966 208.203 334.642 206.731 333.582 205.124C332.847 203.983 332.008 203.533 330.787 203.322C325.844 202.451 321.475 200.243 317.605 197.014C315.443 195.182 313.692 193.034 313.324 190.016C313.089 188.048 313.957 187.147 315.825 187.357C316.782 187.463 317.591 187.898 318.282 188.559C320.003 190.196 321.989 191.458 324.02 192.644C326.521 194.116 329.11 195.167 332.082 195.122C335.186 195.092 338.305 195.152 341.394 195.302C342.601 195.362 343.733 195.257 344.822 194.792C346.308 194.176 347.956 194.251 349.397 193.755C350.839 193.26 351.31 191.262 352.707 190.421C352.855 190.331 352.958 190.181 353.105 190.106C357.297 187.568 360.563 184.038 362.903 179.728C365.286 175.343 366.669 170.582 366.227 165.49C365.713 159.558 363.609 154.031 361.476 148.564C359.136 142.572 354.267 138.847 349.294 135.303C348.956 135.048 348.544 134.912 348.132 134.792C343.63 133.546 338.967 133.065 334.406 133.471C327.315 134.131 320.371 135.798 314.207 139.854C313.162 140.544 312.015 141.16 310.706 141.16C309.646 141.16 309.058 141.836 308.425 142.557C305.365 146.116 303.07 150.186 301.393 154.572C300.628 156.584 299.525 158.432 299.128 160.639C298.642 163.478 298.539 166.346 297.877 169.17C297.642 170.146 296.994 171.288 297.318 172.324C297.98 174.396 297.495 176.349 297.083 178.361C296.906 179.262 296.921 180.254 297.009 181.185C297.656 188.469 299.76 195.332 302.6 201.986C304.689 206.897 307.866 211.207 310.5 215.848C312.706 219.708 315.59 223.057 318.164 226.631C320.151 229.395 322.269 232.023 324.799 234.291C328.11 237.294 331.125 240.659 334.745 243.287C339.099 246.426 343.571 249.399 348.22 252.103C356.474 256.909 364.845 261.399 373.716 264.869C376.423 265.92 378.968 267.407 381.689 268.413C388.354 270.846 394.797 273.94 401.535 276.178C406.037 277.679 410.392 279.647 415.085 280.548C418.586 281.224 422.176 281.569 425.53 282.951C426.266 283.251 427.178 283.146 428.016 283.131C428.517 283.131 428.973 283.026 429.488 283.236C432.356 284.483 435.549 284.092 438.521 285.039C440.801 285.775 443.346 285.069 445.612 286.21C446.141 286.48 446.759 286.21 447.333 286.045C448.642 285.684 449.966 285.684 451.29 285.955C452.217 286.15 453.115 286.06 454.041 286.105C456.542 286.21 459.043 285.79 461.53 285.684C465.855 285.504 470.18 285.009 474.52 285.054C477.345 285.054 480.184 284.798 482.994 284.393C485.774 284.002 488.614 284.213 491.35 283.462C493.954 282.756 496.646 282.35 499.191 281.404C499.971 281.119 500.78 280.969 501.634 280.878C505.105 280.488 508.592 280.007 512.064 279.527C514.492 279.181 516.639 277.89 518.993 277.289C524.392 275.952 529.821 274.706 534.882 272.273C537.515 270.996 540.252 269.825 542.708 268.218C546.872 265.514 550.918 262.601 553.889 258.426C554.478 257.6 555.169 256.834 555.89 256.098C559.73 252.193 560.98 247.222 560.524 242.025C559.98 235.808 557.391 230.206 553.742 225.159C552.933 224.018 552.536 222.681 553.168 221.585C554.213 219.753 555.022 217.875 555.772 215.893C556.273 214.616 556.685 213.295 557.096 211.988C557.494 210.681 557.891 209.375 558.318 208.068C558.582 207.287 558.818 206.491 559.053 205.695C559.73 203.292 560.289 200.859 560.892 198.441C561.392 196.474 562.334 194.656 562.437 192.569C562.496 191.352 562.304 190.466 561.363 189.64L561.333 189.595Z" fill="#5BC9E4"/>
<path d="M475.034 253.995C474.74 249.459 475.476 245.179 477.697 241.184C479.786 237.43 482.552 234.426 486.039 231.858C488.304 230.191 490.614 229.545 493.189 229.304C495.954 229.034 497.558 230.055 498.249 232.759C499.75 238.541 499.323 244.083 495.807 249.099C493.527 252.343 491.173 255.527 488.304 258.26C486.23 260.243 483.611 261.099 480.757 261.234C479.11 261.309 475.476 257.795 475.24 255.527C475.182 255.016 475.108 254.506 475.034 253.995Z" fill="#161718"/>
<path d="M450.849 198.066C452.968 198.772 455.027 199.102 456.896 200.409C461.015 203.307 462.427 207.512 463.737 212.123C464.619 215.217 464.354 218.206 464.193 221.164C464.06 223.672 463.413 226.286 462.368 228.689C462.015 229.5 461.456 230.176 460.706 230.581C459.088 231.452 457.278 231.948 455.939 233.344C455.704 233.585 455.13 233.57 454.733 233.54C450.673 233.194 446.965 232.128 444.817 228.133C443.846 226.331 442.787 224.589 441.919 222.741C441.022 220.819 440.33 218.821 440.095 216.644C439.815 214.196 439.609 211.703 438.727 209.36C438.521 208.819 438.491 208.158 438.565 207.587C439.536 200.919 442.066 195.152 447.833 191.322C448.392 190.947 448.995 190.511 449.628 190.406C452.791 189.866 455.66 188.454 458.587 187.282C460.897 186.351 462.457 187.057 464.031 188.559C464.399 188.904 464.796 189.205 465.164 189.565C466.135 190.511 466.12 191.518 465.002 192.253C464.384 192.659 463.634 192.929 462.913 193.064C460.015 193.59 457.234 194.506 454.424 195.347C452.953 195.783 451.732 196.594 450.879 198.081L450.849 198.066ZM457.867 210.862C457.837 210.696 457.837 210.516 457.764 210.366C457.484 209.75 457.175 209.164 456.91 208.549C456.263 207.077 455.572 206.656 454.071 206.882C453.056 207.032 452.512 207.858 452.438 209.375C452.394 210.321 452.6 211.162 453.041 212.048C453.894 213.76 454.718 214.556 455.866 214.286C457.146 214 458.028 212.484 457.867 210.862Z" fill="#161718"/>
<path d="M457.866 210.862C458.028 212.484 457.145 213.985 455.865 214.286C454.718 214.541 453.894 213.76 453.041 212.048C452.599 211.162 452.393 210.321 452.437 209.375C452.511 207.858 453.041 207.032 454.07 206.882C455.586 206.656 456.277 207.077 456.91 208.549C457.175 209.164 457.484 209.765 457.763 210.366C457.837 210.516 457.837 210.696 457.866 210.862Z" fill="white"/>
<path d="M522.288 188.199C525.671 189.79 527.201 192.524 528.349 195.798C529.967 200.454 530.409 205.245 530.512 210.081C530.585 214.001 526.907 218.086 523.273 219.557C520.449 220.699 518.036 219.452 515.447 219.377C515.211 219.377 514.947 219.227 514.77 219.062C513.167 217.5 511.357 216.103 510.033 214.331C506.841 210.081 506.399 204.929 506.105 199.808C505.987 197.735 506.487 195.693 507.311 193.83C508.9 190.196 510.107 186.246 513.711 183.963C515.903 182.582 518.08 181.185 520.787 181.215C521.905 181.215 522.935 180.824 523.95 180.509C526.098 179.833 528.231 179.908 530.379 180.344C532.262 180.734 533.645 182.762 533.351 184.669C533.189 185.705 531.027 187.012 529.467 186.742C527.761 186.456 526.142 186.952 524.465 187.012C523.715 187.042 522.994 187.357 522.288 188.183V188.199Z" fill="#161718"/>
<path d="M517.978 199.327C518.184 200.063 518.316 200.829 518.61 201.52C519.007 202.451 519.743 202.932 520.773 202.992C521.876 203.052 522.553 202.361 522.921 201.52C523.774 199.538 523.73 197.525 522.494 195.678C521.744 194.551 520.493 194.371 519.463 195.212C518.154 196.263 517.669 197.645 517.978 199.327Z" fill="white"/>
</g>
</g>
<mask id="mask1_258_35" style="mask-type:luminance" maskUnits="userSpaceOnUse" x="0" y="286" width="186" height="112">
<path d="M185.122 286H0V397.858H185.122V286Z" fill="white"/>
</mask>
<g mask="url(#mask1_258_35)">
<path d="M43.6004 353.139C38.931 352.322 36.0864 351.361 31.9805 349.832C29.9544 349.134 28.6529 347.988 27.6868 346.156C26.5597 343.996 26.3853 343.574 25.5802 340.992C23.4468 334.878 23.4736 328.475 25.6607 321.808C27.405 316.512 29.6458 312.19 32.3965 308.83C35.3753 305.141 39.83 303.204 45.7876 303.046C51.5707 302.875 56.6829 303.178 61.1108 303.955C64.7068 304.562 67.6185 307.091 69.8727 311.558C73.6431 318.844 74.5824 326.011 74.9178 336.604C75.2533 345.26 75.3606 354.984 75.2533 365.788C75.2533 372.059 68.9066 377.988 63.7139 379.424C61.1779 380.215 54.2408 380.004 50.7924 379.872C48.1357 379.78 39.8569 379.174 37.5356 379.174C36.972 379.121 36.6097 379.042 36.4353 378.923C34.5702 376.855 35.0935 371.888 35.0935 368.172C35.0935 366.684 35.3484 366.552 36.7305 366.394C39.253 366.091 39.4141 365.695 43.5468 365.485C46.2706 365.353 48.82 365.129 51.2084 364.826C53.5968 364.523 55.0057 363.983 55.4619 363.218C56.1864 362.059 56.589 360.689 56.6426 359.081C56.6426 357.145 56.2133 354.813 55.9717 353.126C51.2486 353.785 48.1894 353.93 43.6004 353.126V353.139ZM41.8427 334.009C42.1781 335.524 42.5136 336.723 42.849 337.605C43.8554 340.688 46.3914 342.177 50.4302 342.072C54.6434 342.019 57.394 340.53 58.6822 337.605C61.5536 329.529 57.5953 322.309 51.7719 319.661C49.6922 318.778 47.5185 318.844 45.2508 319.871C42.9832 320.886 41.6146 322.454 41.1718 324.535C41.1718 324.641 41.0645 325.945 40.8364 328.422C40.7559 328.422 41.6683 333.231 41.8427 333.995V334.009Z" fill="#161716"/>
<path d="M145.657 359.503V359.095C145.71 358.871 143.402 358.752 138.706 358.726C126.818 358.66 110.3 359.147 97.5803 359.595C97.2851 359.595 95.2053 359.753 94.8833 359.753C92.884 359.753 91.6093 358.818 91.4349 357.026C91.3141 356.222 90.8445 354.694 90.8445 353.719C90.8445 351.756 91.4215 349.832 93.5415 349.832H104.316C104.061 347.263 104.034 345.168 101.619 344.747C99.2844 344.338 97.4729 344.707 94.2124 344.707C88.8452 344.707 83.9209 344.918 84.1087 340.083C84.2161 338.488 84.6186 337.421 85.2895 336.894C85.9604 336.367 87.7047 335.972 90.5091 335.695C94.1051 335.313 100.197 335.063 108.784 334.944C118.043 334.839 123.544 334.812 125.288 334.865C125.798 334.918 126.295 334.944 126.804 334.944C127.985 334.944 129.166 334.865 130.347 334.694C133.768 334.351 137.874 334.773 137.083 338.001C136.573 340.32 136.291 341.558 136.237 341.716C135.083 345.01 130.843 346.578 126.134 346.262C123.611 346.091 121.397 346.038 119.478 346.091C118.351 346.196 117.238 347.408 116.862 348.199C116.687 348.554 116.473 349.121 116.191 349.898C132.856 350.004 143.577 350.201 148.354 350.478C150.97 350.636 154.512 351.045 154.915 352.797C155.25 353.785 155.425 354.839 155.425 355.933C155.425 356.684 155.505 359.885 155.425 360.649C155.425 362.757 155.962 365.656 154.754 366.723C153.64 367.711 151.265 368.212 149.32 368.423C147.777 368.581 145.455 368.647 142.369 368.581C133.835 368.528 128.334 368.555 125.865 368.66C123.933 368.66 102.33 368.871 101.284 369.161L101.364 371.15C107.107 371.15 124.336 370.9 130.078 370.9C134.963 370.9 138.25 370.873 139.927 370.821C141.698 370.821 150.313 370.32 152.057 370.32H152.231C153.801 370.32 154.593 370.821 154.593 371.809V372.217C154.257 374.088 153.842 375.775 153.332 377.264C152.54 379.846 151.695 379.582 147.696 379.582H146.69C144.61 379.517 125.02 379.569 122.954 379.503C120.324 379.385 96.7618 378.91 94.0782 378.845C91.4215 378.752 90.0663 377.224 90.4554 374.628C90.8043 372.323 90.281 371.4 90.281 368.594C90.281 368.212 90.3078 367.487 90.3615 366.447C90.4822 362.929 92.2936 362.244 96.1714 362.151C97.6876 362.112 141.846 361.875 143.228 361.822H143.899C144.892 361.822 145.751 361.73 145.751 360.742C145.71 360.346 145.67 359.925 145.67 359.503H145.657ZM91.8643 327.843C87.2083 326.13 84.7662 323.495 84.5381 319.911C84.2026 315.287 85.7725 311.861 89.2478 309.661C93.0048 307.236 94.4271 306.13 98.8818 304.865C102.411 303.863 104.128 304.206 108.395 304.206C113.99 304.206 117.519 304.983 121.826 306.103C123.598 306.564 123.477 306.657 125.074 307.223C126.496 307.724 126.952 308.119 128.106 308.831C130.387 310.24 133.272 313.877 133.406 316.235C133.487 317.698 132.668 319.661 130.924 322.151C128.28 325.787 125.677 328.343 123.101 329.793C120.525 331.255 117.264 331.98 113.333 331.98C106.933 332.085 99.7808 330.715 91.8643 327.843ZM112.152 324.378C115.466 324.259 116.392 322.744 117.291 319.911C117.908 317.763 116.929 316.354 114.339 315.695C110.971 314.759 107.067 314.009 102.639 313.468C99.7942 313.099 97.8084 315.524 97.4193 317.935C97.0838 320.412 98.2646 321.98 100.962 322.652C102.746 323.165 106.758 323.837 108.798 324.14L110.475 324.391H112.152V324.378ZM147.012 335.036C147.079 333.996 146.945 330.768 145.912 329.951C144.462 328.791 141.779 328.936 139.256 328.58C137.914 328.304 137.123 327.948 136.895 327.5C135.218 324.022 134.989 321.084 136.224 318.659C136.868 317.381 136.828 316.064 138.921 316.261C140.719 316.341 145.912 315.418 145.912 313.692C145.912 312.533 146.14 309.647 146.582 305.01C146.757 303.745 147.683 303.139 149.36 303.192C151.44 303.244 153.573 303.191 155.76 303.02C157.505 302.915 158.685 303.495 159.303 304.759C161.208 308.778 162.026 313.719 161.745 319.555C161.651 321.268 162 326.947 162 328.567C162 331.967 161.141 333.613 160.899 336.749C160.618 341.703 160.175 345.261 159.558 347.408C158.887 349.727 155.036 350.162 148.018 348.726C146.837 348.502 145.992 347.79 145.496 346.578C145.214 345.919 145.281 344.694 145.71 342.902C146.126 341.11 146.26 339.885 146.086 339.226C146.207 336.697 147.012 337.54 147.012 335.01V335.036Z" fill="#161716"/>
</g>
<defs>
<filter id="filter0_d_258_35" x="241.634" y="64.0394" width="464.421" height="380.803" filterUnits="userSpaceOnUse" color-interpolation-filters="sRGB">
<feFlood flood-opacity="0" result="BackgroundImageFix"/>
<feColorMatrix in="SourceAlpha" type="matrix" values="0 0 0 0 0 0 0 0 0 0 0 0 0 0 0 0 0 0 127 0" result="hardAlpha"/>
<feOffset dx="3.52" dy="3.52"/>
<feColorMatrix type="matrix" values="0 0 0 0 0 0 0 0 0 0 0 0 0 0 0 0 0 0 0.3 0"/>
<feBlend mode="normal" in2="BackgroundImageFix" result="effect1_dropShadow_258_35"/>
<feBlend mode="normal" in="SourceGraphic" in2="effect1_dropShadow_258_35" result="shape"/>
</filter>
</defs>
</svg>