<svg width="965" height="738" viewBox="0 0 965 738" fill="none" xmlns="http://www.w3.org/2000/svg">
<path d="M962.16 3.27915C959.428 -0.0702915 957.448 4.65933 953.596 4.65933C949.744 4.65933 949.744 4.74352 945.878 4.74352C942.012 4.74352 942.026 5.78705 938.16 5.78705C934.295 5.78705 934.308 4.99598 930.443 4.99598C926.577 4.99598 926.591 5.09696 922.725 5.09696C918.859 5.09696 918.873 3.27915 915.007 3.27915C911.142 3.27915 911.155 3.71678 907.29 3.71678C903.424 3.71678 903.424 5.58509 899.572 5.58509C895.72 5.58509 895.706 2.6564 891.854 2.6564C888.002 2.6564 887.989 6.1405 884.137 6.1405C880.285 6.1405 880.271 4.2554 876.419 4.2554C872.567 4.2554 872.567 4.10392 868.701 4.10392C864.835 4.10392 864.849 4.17121 860.983 4.17121C857.118 4.17121 857.131 4.10392 853.266 4.10392C849.4 4.10392 849.414 4.65933 845.548 4.65933C841.682 4.65933 841.696 5.95538 837.83 5.95538C833.965 5.95538 833.978 6.56128 830.113 6.56128C826.247 6.56128 826.261 3.63264 822.395 3.63264C818.529 3.63264 818.543 2.87521 814.677 2.87521C810.812 2.87521 810.825 6.05636 806.96 6.05636C803.094 6.05636 803.108 3.43068 799.242 3.43068C795.376 3.43068 795.376 6.05636 791.524 6.05636C787.672 6.05636 787.659 6.15735 783.807 6.15735C779.955 6.15735 779.941 6.24148 776.089 6.24148C772.237 6.24148 772.223 5.36627 768.371 5.36627C764.519 5.36627 764.506 2.74058 760.654 2.74058C756.802 2.74058 756.802 6.47715 752.936 6.47715C749.07 6.47715 749.084 2.58911 745.218 2.58911C741.353 2.58911 741.366 2 737.501 2C733.635 2 733.649 3.85146 729.783 3.85146C725.917 3.85146 725.931 3.85146 722.065 3.85146C718.2 3.85146 718.213 4.44052 714.347 4.44052C710.482 4.44052 710.495 5.43356 706.63 5.43356C702.764 5.43356 702.764 2.6564 698.912 2.6564C695.06 2.6564 695.046 5.04647 691.194 5.04647C687.342 5.04647 687.329 2.35344 683.477 2.35344C679.625 2.35344 679.611 3.73363 675.759 3.73363C671.907 3.73363 671.893 2.20197 668.041 2.20197C664.189 2.20197 664.176 3.12767 660.324 3.12767C656.472 3.12767 656.472 3.58215 652.606 3.58215C648.74 3.58215 648.754 2.16832 644.888 2.16832C641.023 2.16832 641.036 6.34247 637.171 6.34247C633.305 6.34247 633.305 2.37029 629.453 2.37029C625.601 2.37029 625.587 4.96228 621.735 4.96228C617.883 4.96228 617.87 4.39002 614.018 4.39002C610.166 4.39002 610.152 2.37029 606.3 2.37029C602.448 2.37029 602.434 4.32274 598.582 4.32274C594.73 4.32274 594.717 2.75738 590.865 2.75738C587.013 2.75738 586.999 2.06729 583.147 2.06729C579.295 2.06729 579.281 2.84157 575.429 2.84157C571.577 2.84157 571.564 5.09696 567.712 5.09696C563.86 5.09696 563.846 4.2049 559.994 4.2049C556.142 4.2049 556.128 5.75336 552.276 5.75336C548.424 5.75336 548.411 3.75042 544.558 3.75042C540.706 3.75042 540.693 5.01278 536.841 5.01278C532.989 5.01278 532.975 2.89206 529.123 2.89206C525.271 2.89206 525.257 4.97913 521.405 4.97913C517.553 4.97913 517.54 2.13463 513.688 2.13463C509.836 2.13463 509.822 5.09696 505.97 5.09696C502.118 5.09696 502.104 5.88804 498.252 5.88804C494.4 5.88804 494.387 4.17121 490.535 4.17121C486.683 4.17121 486.669 5.95538 482.817 5.95538C478.965 5.95538 478.951 5.24844 475.099 5.24844C471.247 5.24844 471.234 3.63264 467.382 3.63264C463.53 3.63264 463.516 3.63264 459.664 3.63264C455.812 3.63264 455.798 4.44052 451.946 4.44052C448.094 4.44052 448.081 2.87521 444.229 2.87521C440.377 2.87521 440.363 3.78412 436.511 3.78412C432.659 3.78412 432.645 5.68607 428.793 5.68607C424.941 5.68607 424.928 6.71276 421.076 6.71276C417.224 6.71276 417.21 6.35931 413.358 6.35931C409.506 6.35931 409.492 5.65238 405.64 5.65238C401.788 5.65238 401.775 5.09696 397.922 5.09696C394.07 5.09696 394.057 3.19501 390.205 3.19501C386.353 3.19501 386.339 5.45041 382.487 5.45041C378.635 5.45041 378.621 3.44747 374.769 3.44747C370.917 3.44747 370.904 6.34247 367.038 6.34247C363.172 6.34247 363.172 5.1811 359.32 5.1811C355.468 5.1811 355.455 3.14452 351.603 3.14452C347.751 3.14452 347.737 3.8851 343.885 3.8851C340.033 3.8851 340.019 2.9257 336.154 2.9257C332.288 2.9257 332.288 2.75738 328.436 2.75738C324.584 2.75738 324.57 3.43068 320.718 3.43068C316.866 3.43068 316.853 4.03658 313.001 4.03658C309.149 4.03658 309.135 3.80097 305.283 3.80097C301.431 3.80097 301.417 5.80385 297.565 5.80385C293.713 5.80385 293.7 2.85836 289.848 2.85836C285.996 2.85836 285.982 5.31578 282.13 5.31578C278.278 5.31578 278.264 4.60884 274.412 4.60884C270.56 4.60884 270.547 3.73363 266.695 3.73363C262.843 3.73363 262.829 3.34649 258.977 3.34649C255.125 3.34649 255.111 4.45736 251.259 4.45736C247.407 4.45736 247.407 2.52177 243.541 2.52177C239.676 2.52177 239.676 3.85146 235.824 3.85146C231.972 3.85146 231.958 4.33953 228.092 4.33953C224.227 4.33953 224.227 4.45736 220.375 4.45736C216.523 4.45736 216.509 4.94549 212.657 4.94549C208.805 4.94549 208.791 2.9257 204.939 2.9257C201.087 2.9257 201.074 5.83755 197.208 5.83755C193.342 5.83755 193.342 5.1811 189.49 5.1811C185.638 5.1811 185.625 2.79108 181.773 2.79108C177.921 2.79108 177.907 4.62569 174.041 4.62569C170.176 4.62569 170.176 3.95244 166.324 3.95244C162.472 3.95244 162.458 2.23561 158.592 2.23561C154.727 2.23561 154.727 5.1643 150.875 5.1643C147.023 5.1643 147.009 3.46432 143.143 3.46432C139.278 3.46432 139.278 6.03951 135.412 6.03951C131.546 6.03951 131.546 6.19099 127.681 6.19099C123.815 6.19099 123.815 2.42078 119.949 2.42078C116.084 2.42078 116.084 5.4841 112.218 5.4841C108.352 5.4841 108.352 4.32274 104.487 4.32274C100.621 4.32274 100.621 6.37616 96.7552 6.37616C92.8895 6.37616 92.8895 6.34247 89.0239 6.34247C85.1582 6.34247 85.1582 6.40981 81.2925 6.40981C77.4269 6.40981 77.4269 6.09001 73.5748 6.09001C69.7228 6.09001 69.7092 5.1811 65.8435 5.1811C61.9778 5.1811 61.9778 5.87119 58.1122 5.87119C54.2465 5.87119 54.2465 6.69591 50.3808 6.69591C46.5151 6.69591 46.5151 2.50492 42.6495 2.50492C38.7838 2.50492 38.7838 4.12072 34.9181 4.12072C31.0525 4.12072 31.0525 6.12365 27.1868 6.12365C23.3211 6.12365 23.3211 3.2455 19.4554 3.2455C15.5898 3.2455 15.5898 2.53862 11.7104 2.53862C7.83111 2.53862 7.79013 2.37028 5.04455 5.71971C2.29896 9.06915 3.25514 9.11963 3.25514 13.8492C3.25514 18.5788 3.85616 18.5789 3.85616 23.3085C3.85616 28.0381 4.26595 28.0381 4.26595 32.7677C4.26595 37.4973 5.65923 37.4973 5.65923 42.2269C5.65923 46.9565 2.74973 46.9565 2.74973 51.6861C2.74973 56.4157 5.79583 56.4157 5.79583 61.1454C5.79583 65.875 4.30693 65.875 4.30693 70.6214C4.30693 75.3679 4.56646 75.351 4.56646 80.0975C4.56646 84.8439 4.92161 84.8271 4.92161 89.5567C4.92161 94.2863 5.72753 94.2863 5.72753 99.0159C5.72753 103.746 5.48166 103.745 5.48166 108.475C5.48166 113.205 2.85901 113.205 2.85901 117.934C2.85901 122.664 2.73607 122.664 2.73607 127.394C2.73607 132.123 5.20846 132.123 5.20846 136.87C5.20846 141.616 4.17033 141.599 4.17033 146.346C4.17033 151.092 3.21416 151.075 3.21416 155.805C3.21416 160.535 3.29612 160.535 3.29612 165.264C3.29612 169.994 4.21131 169.994 4.21131 174.723C4.21131 179.453 2.33994 179.453 2.33994 184.183C2.33994 188.912 2.66777 188.912 2.66777 193.659C2.66777 198.405 2.09407 198.388 2.09407 203.135C2.09407 207.881 3.66493 207.864 3.66493 212.594C3.66493 217.324 4.85331 217.323 4.85331 222.053C4.85331 226.783 4.52548 226.783 4.52548 231.512C4.52548 236.242 4.97625 236.242 4.97625 240.988C4.97625 245.735 4.17033 245.718 4.17033 250.464C4.17033 255.211 2.70875 255.194 2.70875 259.94C2.70875 264.687 3.9108 264.67 3.9108 269.4C3.9108 274.129 3.56931 274.129 3.56931 278.876C3.56931 283.622 2.39458 283.605 2.39458 288.352C2.39458 293.098 2.32628 293.081 2.32628 297.828C2.32628 302.574 2.72241 302.557 2.72241 307.304C2.72241 312.05 3.3371 312.034 3.3371 316.78C3.3371 321.526 3.0639 321.51 3.0639 326.256C3.0639 331.002 5.34506 330.986 5.34506 335.732C5.34506 340.479 4.12935 340.462 4.12935 345.208C4.12935 349.955 2.25799 349.938 2.25799 354.684C2.25799 359.431 5.56361 359.414 5.56361 364.16C5.56361 368.907 2.96829 368.89 2.96829 373.636C2.96829 378.383 4.15667 378.366 4.15667 383.112C4.15667 387.859 4.4845 387.842 4.4845 392.588C4.4845 397.335 2.87267 397.318 2.87267 402.048C2.87267 406.777 4.7577 406.777 4.7577 411.524C4.7577 416.27 3.32344 416.253 3.32344 421C3.32344 425.746 4.77136 425.729 4.77136 430.459C4.77136 435.189 5.18114 435.189 5.18114 439.918C5.18114 444.648 4.36157 444.648 4.36157 449.377C4.36157 454.107 2.25799 454.107 2.25799 458.853C2.25799 463.6 5.3314 463.583 5.3314 468.313C5.3314 473.042 3.00926 473.042 3.00926 477.772C3.00926 482.501 2.06675 482.501 2.06675 487.248C2.06675 491.994 4.19765 491.978 4.19765 496.724C4.19765 501.47 4.77136 501.454 4.77136 506.183C4.77136 510.913 5.24944 510.913 5.24944 515.659C5.24944 520.406 5.67289 520.389 5.67289 525.135C5.67289 529.882 3.29612 529.865 3.29612 534.611C3.29612 539.358 5.01723 539.341 5.01723 544.087C5.01723 548.834 5.44068 548.817 5.44068 553.563C5.44068 558.31 3.11854 558.293 3.11854 563.04C3.11854 567.786 5.45434 567.769 5.45434 572.516C5.45434 577.262 3.32344 577.245 3.32344 581.992C3.32344 586.738 3.9791 586.721 3.9791 591.468C3.9791 596.214 4.90795 596.197 4.90795 600.944C4.90795 605.69 2.36726 605.69 2.36726 610.42C2.36726 615.149 3.30978 615.149 3.30978 619.896C3.30978 624.642 4.88063 624.625 4.88063 629.372C4.88063 634.118 3.59663 634.101 3.59663 638.848C3.59663 643.594 3.14586 643.578 3.14586 648.324C3.14586 653.07 4.63476 653.054 4.63476 657.8C4.63476 662.546 3.43271 662.547 3.43271 667.276C3.43271 672.006 2.54484 672.023 2.54484 676.752C2.54484 681.482 2.36726 681.499 2.36726 686.228C2.36726 690.958 5.23578 690.975 5.23578 695.704C5.23578 700.434 2.44922 700.434 2.44922 705.18C2.44922 709.927 3.2688 709.927 3.2688 714.656C3.2688 719.386 3.92446 719.403 3.92446 724.149C3.92446 728.896 0.291001 731.471 3.00926 734.82C5.72753 738.17 7.81745 733.322 11.6831 733.322C15.5488 733.322 15.5351 734.113 19.4008 734.113C23.2665 734.113 23.2528 735.393 27.1185 735.393C30.9842 735.393 30.9705 732.329 34.8362 732.329C38.7018 732.329 38.6882 732.986 42.5539 732.986C46.4195 732.986 46.4059 734.063 50.2715 734.063C54.1372 734.063 54.1236 733.238 57.9892 733.238C61.8549 733.238 61.8549 732.969 65.7069 732.969C69.5589 732.969 69.5726 732.902 73.4246 732.902C77.2766 732.902 77.2903 735.039 81.1423 735.039C84.9943 735.039 85.008 734.938 88.86 734.938C92.712 734.938 92.712 734.484 96.5776 734.484C100.443 734.484 100.43 735.241 104.295 735.241C108.161 735.241 108.147 733.659 112.013 733.659C115.879 733.659 115.865 732.38 119.731 732.38C123.596 732.38 123.583 734.635 127.448 734.635C131.314 734.635 131.3 733.996 135.166 733.996C139.032 733.996 139.018 734.265 142.884 734.265C146.749 734.265 146.736 731.774 150.601 731.774C154.467 731.774 154.453 734.248 158.319 734.248C162.185 734.248 162.171 732.986 166.037 732.986C169.902 732.986 169.902 733.928 173.754 733.928C177.607 733.928 177.62 735.241 181.472 735.241C185.324 735.241 185.338 731.875 189.19 731.875C193.042 731.875 193.056 731.538 196.908 731.538C200.76 731.538 200.773 734.618 204.625 734.618C208.477 734.618 208.477 733.39 212.343 733.39C216.209 733.39 216.195 734.77 220.061 734.77C223.926 734.77 223.913 735.073 227.778 735.073C231.644 735.073 231.63 734.214 235.496 734.214C239.362 734.214 239.348 732.178 243.214 732.178C247.079 732.178 247.066 732.161 250.931 732.161C254.797 732.161 254.783 732.935 258.649 732.935C262.515 732.935 262.515 735.982 266.367 735.982C270.219 735.982 270.232 735.729 274.084 735.729C277.936 735.729 277.95 735.477 281.802 735.477C285.654 735.477 285.668 734.299 289.52 734.299C293.372 734.299 293.385 733.154 297.237 733.154C301.089 733.154 301.103 732.464 304.955 732.464C308.807 732.464 308.807 731.976 312.673 731.976C316.538 731.976 316.525 732.902 320.39 732.902C324.256 732.902 324.243 731.875 328.108 731.875C331.974 731.875 331.974 734.13 335.826 734.13C339.678 734.13 339.692 732.296 343.544 732.296C347.396 732.296 347.409 734.366 351.261 734.366C355.113 734.366 355.127 735.813 358.979 735.813C362.831 735.813 362.845 734.77 366.697 734.77C370.549 734.77 370.562 734.635 374.414 734.635C378.266 734.635 378.28 735.645 382.132 735.645C385.984 735.645 385.998 732.043 389.85 732.043C393.702 732.043 393.715 734.097 397.567 734.097C401.419 734.097 401.433 733.979 405.285 733.979C409.137 733.979 409.151 733.693 413.003 733.693C416.855 733.693 416.868 734.366 420.72 734.366C424.572 734.366 424.586 735.106 428.438 735.106C432.29 735.106 432.304 731.774 436.156 731.774C440.008 731.774 440.021 733.356 443.873 733.356C447.725 733.356 447.739 734.097 451.591 734.097C455.443 734.097 455.457 732.464 459.309 732.464C463.161 732.464 463.174 732.464 467.026 732.464C470.879 732.464 470.892 732.043 474.744 732.043C478.596 732.043 478.61 732.801 482.462 732.801C486.314 732.801 486.328 733.895 490.18 733.895C494.032 733.895 494.045 733.996 497.897 733.996C501.749 733.996 501.763 731.673 505.615 731.673C509.467 731.673 509.481 735.292 513.333 735.292C517.185 735.292 517.198 731.69 521.05 731.69C524.902 731.69 524.916 732.262 528.768 732.262C532.62 732.262 532.634 732.009 536.486 732.009C540.338 732.009 540.351 735.83 544.203 735.83C548.055 735.83 548.069 733.255 551.921 733.255C555.773 733.255 555.787 732.346 559.639 732.346C563.491 732.346 563.504 731.908 567.356 731.908C571.208 731.908 571.222 731.555 575.074 731.555C578.926 731.555 578.94 734.181 582.792 734.181C586.644 734.181 586.657 734.046 590.509 734.046C594.361 734.046 594.375 735.241 598.241 735.241C602.106 735.241 602.106 734.719 605.958 734.719C609.81 734.719 609.824 733.507 613.676 733.507C617.528 733.507 617.542 732.514 621.394 732.514C625.246 732.514 625.26 731.589 629.125 731.589C632.991 731.589 632.991 732.733 636.843 732.733C640.695 732.733 640.709 731.572 644.561 731.572C648.413 731.572 648.426 734.214 652.278 734.214C656.13 734.214 656.144 733.188 659.996 733.188C663.848 733.188 663.862 732.885 667.714 732.885C671.566 732.885 671.579 734.029 675.431 734.029C679.283 734.029 679.297 734.198 683.149 734.198C687.001 734.198 687.015 734.13 690.867 734.13C694.719 734.13 694.732 732.245 698.584 732.245C702.436 732.245 702.45 735.982 706.302 735.982C710.154 735.982 710.168 735.897 714.02 735.897C717.872 735.897 717.872 735.258 721.737 735.258C725.603 735.258 725.603 735.191 729.455 735.191C733.307 735.191 733.321 733.221 737.186 733.221C741.052 733.221 741.052 735.477 744.904 735.477C748.756 735.477 748.77 733.642 752.622 733.642C756.474 733.642 756.487 735.005 760.339 735.005C764.191 735.005 764.205 734.669 768.071 734.669C771.936 734.669 771.936 732.935 775.788 732.935C779.64 732.935 779.654 734.635 783.506 734.635C787.358 734.635 787.372 734.383 791.237 734.383C795.103 734.383 795.103 732.868 798.955 732.868C802.807 732.868 802.821 734.686 806.686 734.686C810.552 734.686 810.552 733.003 814.404 733.003C818.256 733.003 818.27 735.561 822.135 735.561C826.001 735.561 826.001 734.501 829.867 734.501C833.733 734.501 833.733 733.996 837.598 733.996C841.464 733.996 841.464 735.325 845.33 735.325C849.195 735.325 849.195 732.514 853.061 732.514C856.927 732.514 856.927 732.312 860.792 732.312C864.658 732.312 864.658 733.76 868.524 733.76C872.389 733.76 872.389 732.346 876.255 732.346C880.121 732.346 880.121 735.342 883.986 735.342C887.852 735.342 887.852 734.315 891.704 734.315C895.556 734.315 895.57 735.965 899.435 735.965C903.301 735.965 903.301 735.763 907.167 735.763C911.032 735.763 911.032 735.645 914.898 735.645C918.764 735.645 918.764 731.572 922.629 731.572C926.495 731.572 926.495 734.097 930.361 734.097C934.226 734.097 934.226 731.589 938.092 731.589C941.958 731.589 941.958 733.743 945.823 733.743C949.689 733.743 949.689 735.005 953.568 735.005C957.448 735.005 957.953 736.217 960.699 732.851C963.444 729.485 962.98 728.879 962.98 724.149C962.98 719.42 959.51 719.42 959.51 714.69C959.51 709.96 961.505 709.96 961.505 705.231C961.505 700.501 961.682 700.501 961.682 695.772C961.682 691.042 960.125 691.042 960.125 686.312C960.125 681.583 962.406 681.583 962.406 676.853C962.406 672.124 962.092 672.124 962.092 667.377C962.092 662.631 961.614 662.647 961.614 657.901C961.614 653.155 960.644 653.171 960.644 648.442C960.644 643.712 962.147 643.712 962.147 638.983C962.147 634.253 960.958 634.253 960.958 629.523C960.958 624.794 960.835 624.794 960.835 620.064C960.835 615.335 961.054 615.334 961.054 610.605C961.054 605.875 960.699 605.875 960.699 601.129C960.699 596.382 960.043 596.399 960.043 591.653C960.043 586.906 959.77 586.923 959.77 582.194C959.77 577.464 960.945 577.464 960.945 572.734C960.945 568.005 962.761 568.005 962.761 563.275C962.761 558.545 962.242 558.546 962.242 553.816C962.242 549.086 960.357 549.086 960.357 544.34C960.357 539.593 960.658 539.61 960.658 534.864C960.658 530.117 962.98 530.134 962.98 525.405C962.98 520.675 962.953 520.675 962.953 515.945C962.953 511.216 963.13 511.216 963.13 506.486C963.13 501.757 960.385 501.757 960.385 497.01C960.385 492.264 961.477 492.28 961.477 487.534C961.477 482.788 959.906 482.804 959.906 478.058C959.906 473.312 961.628 473.328 961.628 468.599C961.628 463.869 959.715 463.869 959.715 459.123C959.715 454.376 962.857 454.393 962.857 449.647C962.857 444.9 960.33 444.917 960.33 440.171C960.33 435.424 961.655 435.441 961.655 430.695C961.655 425.948 962.215 425.965 962.215 421.219C962.215 416.472 961.914 416.489 961.914 411.742C961.914 406.996 962.106 407.013 962.106 402.266C962.106 397.52 962.27 397.537 962.27 392.79C962.27 388.044 961.095 388.061 961.095 383.314C961.095 378.568 959.893 378.585 959.893 373.838C959.893 369.092 960.835 369.109 960.835 364.362C960.835 359.616 960.303 359.633 960.303 354.886C960.303 350.14 960.303 350.157 960.303 345.41C960.303 340.664 960.193 340.681 960.193 335.951C960.193 331.221 959.415 331.221 959.415 326.475C959.415 321.728 961.436 321.745 961.436 316.999C961.436 312.252 961.122 312.269 961.122 307.54C961.122 302.81 960.904 302.81 960.904 298.08C960.904 293.351 962.925 293.351 962.925 288.621C962.925 283.891 960.016 283.892 960.016 279.145C960.016 274.399 960.972 274.415 960.972 269.686C960.972 264.956 962.215 264.956 962.215 260.227C962.215 255.497 962.42 255.497 962.42 250.751C962.42 246.004 962.543 246.021 962.543 241.275C962.543 236.528 959.62 236.545 959.62 231.815C959.62 227.086 959.524 227.086 959.524 222.339C959.524 217.593 959.442 217.61 959.442 212.863C959.442 208.117 959.36 208.134 959.36 203.387C959.36 198.641 962.106 198.658 962.106 193.911C962.106 189.165 960.193 189.181 960.193 184.435C960.193 179.689 961.942 179.705 961.942 174.959C961.942 170.213 962.133 170.229 962.133 165.483C962.133 160.737 961.819 160.753 961.819 156.007C961.819 151.26 959.551 151.277 959.551 146.531C959.551 141.784 961.068 141.801 961.068 137.055C961.068 132.308 961.3 132.308 961.3 127.579C961.3 122.849 962.461 122.849 962.461 118.103C962.461 113.356 960.589 113.373 960.589 108.627C960.589 103.88 961.819 103.897 961.819 99.1506C961.819 94.4041 959.51 94.421 959.51 89.6745C959.51 84.9281 960.589 84.9449 960.589 80.1985C960.589 75.452 961.354 75.452 961.354 70.7224C961.354 65.9928 961.6 65.9759 961.6 61.2463C961.6 56.5167 962.461 56.4999 962.461 51.7703C962.461 47.0407 962.939 47.0239 962.939 42.2943C962.939 37.5647 959.661 37.5646 959.661 32.8182C959.661 28.0718 961.259 28.0718 961.259 23.3421C961.259 18.6125 958.978 18.0066 959.961 13.4117C961.136 7.94147 964.879 6.64544 962.147 3.296L962.16 3.27915Z" fill="white"/>
<path d="M962.16 3.27915C959.428 -0.0702915 957.448 4.65933 953.596 4.65933C949.744 4.65933 949.744 4.74352 945.878 4.74352C942.012 4.74352 942.026 5.78705 938.16 5.78705C934.295 5.78705 934.308 4.99598 930.443 4.99598C926.577 4.99598 926.591 5.09696 922.725 5.09696C918.859 5.09696 918.873 3.27915 915.007 3.27915C911.142 3.27915 911.155 3.71678 907.29 3.71678C903.424 3.71678 903.424 5.58509 899.572 5.58509C895.72 5.58509 895.706 2.6564 891.854 2.6564C888.002 2.6564 887.989 6.1405 884.137 6.1405C880.285 6.1405 880.271 4.2554 876.419 4.2554C872.567 4.2554 872.567 4.10392 868.701 4.10392C864.835 4.10392 864.849 4.17121 860.983 4.17121C857.118 4.17121 857.131 4.10392 853.266 4.10392C849.4 4.10392 849.414 4.65933 845.548 4.65933C841.682 4.65933 841.696 5.95538 837.83 5.95538C833.965 5.95538 833.978 6.56128 830.113 6.56128C826.247 6.56128 826.261 3.63264 822.395 3.63264C818.529 3.63264 818.543 2.87521 814.677 2.87521C810.812 2.87521 810.825 6.05636 806.96 6.05636C803.094 6.05636 803.108 3.43068 799.242 3.43068C795.376 3.43068 795.376 6.05636 791.524 6.05636C787.672 6.05636 787.659 6.15735 783.807 6.15735C779.955 6.15735 779.941 6.24148 776.089 6.24148C772.237 6.24148 772.223 5.36627 768.371 5.36627C764.519 5.36627 764.506 2.74058 760.654 2.74058C756.802 2.74058 756.802 6.47715 752.936 6.47715C749.07 6.47715 749.084 2.58911 745.218 2.58911C741.353 2.58911 741.366 2 737.501 2C733.635 2 733.649 3.85146 729.783 3.85146C725.917 3.85146 725.931 3.85146 722.065 3.85146C718.2 3.85146 718.213 4.44052 714.347 4.44052C710.482 4.44052 710.495 5.43356 706.63 5.43356C702.764 5.43356 702.764 2.6564 698.912 2.6564C695.06 2.6564 695.046 5.04647 691.194 5.04647C687.342 5.04647 687.329 2.35344 683.477 2.35344C679.625 2.35344 679.611 3.73363 675.759 3.73363C671.907 3.73363 671.893 2.20197 668.041 2.20197C664.189 2.20197 664.176 3.12767 660.324 3.12767C656.472 3.12767 656.472 3.58215 652.606 3.58215C648.74 3.58215 648.754 2.16832 644.888 2.16832C641.023 2.16832 641.036 6.34247 637.171 6.34247C633.305 6.34247 633.305 2.37029 629.453 2.37029C625.601 2.37029 625.587 4.96228 621.735 4.96228C617.883 4.96228 617.87 4.39002 614.018 4.39002C610.166 4.39002 610.152 2.37029 606.3 2.37029C602.448 2.37029 602.434 4.32274 598.582 4.32274C594.73 4.32274 594.717 2.75738 590.865 2.75738C587.013 2.75738 586.999 2.06729 583.147 2.06729C579.295 2.06729 579.281 2.84157 575.429 2.84157C571.577 2.84157 571.564 5.09696 567.712 5.09696C563.86 5.09696 563.846 4.2049 559.994 4.2049C556.142 4.2049 556.128 5.75336 552.276 5.75336C548.424 5.75336 548.411 3.75042 544.558 3.75042C540.706 3.75042 540.693 5.01278 536.841 5.01278C532.989 5.01278 532.975 2.89206 529.123 2.89206C525.271 2.89206 525.257 4.97913 521.405 4.97913C517.553 4.97913 517.54 2.13463 513.688 2.13463C509.836 2.13463 509.822 5.09696 505.97 5.09696C502.118 5.09696 502.104 5.88804 498.252 5.88804C494.4 5.88804 494.387 4.17121 490.535 4.17121C486.683 4.17121 486.669 5.95538 482.817 5.95538C478.965 5.95538 478.951 5.24844 475.099 5.24844C471.247 5.24844 471.234 3.63264 467.382 3.63264C463.53 3.63264 463.516 3.63264 459.664 3.63264C455.812 3.63264 455.798 4.44052 451.946 4.44052C448.094 4.44052 448.081 2.87521 444.229 2.87521C440.377 2.87521 440.363 3.78412 436.511 3.78412C432.659 3.78412 432.645 5.68607 428.793 5.68607C424.941 5.68607 424.928 6.71276 421.076 6.71276C417.224 6.71276 417.21 6.35931 413.358 6.35931C409.506 6.35931 409.492 5.65238 405.64 5.65238C401.788 5.65238 401.775 5.09696 397.922 5.09696C394.07 5.09696 394.057 3.19501 390.205 3.19501C386.353 3.19501 386.339 5.45041 382.487 5.45041C378.635 5.45041 378.621 3.44747 374.769 3.44747C370.917 3.44747 370.904 6.34247 367.038 6.34247C363.172 6.34247 363.172 5.1811 359.32 5.1811C355.468 5.1811 355.455 3.14452 351.603 3.14452C347.751 3.14452 347.737 3.8851 343.885 3.8851C340.033 3.8851 340.019 2.9257 336.154 2.9257C332.288 2.9257 332.288 2.75738 328.436 2.75738C324.584 2.75738 324.57 3.43068 320.718 3.43068C316.866 3.43068 316.853 4.03658 313.001 4.03658C309.149 4.03658 309.135 3.80097 305.283 3.80097C301.431 3.80097 301.417 5.80385 297.565 5.80385C293.713 5.80385 293.7 2.85836 289.848 2.85836C285.996 2.85836 285.982 5.31578 282.13 5.31578C278.278 5.31578 278.264 4.60884 274.412 4.60884C270.56 4.60884 270.547 3.73363 266.695 3.73363C262.843 3.73363 262.829 3.34649 258.977 3.34649C255.125 3.34649 255.111 4.45736 251.259 4.45736C247.407 4.45736 247.407 2.52177 243.541 2.52177C239.676 2.52177 239.676 3.85146 235.824 3.85146C231.972 3.85146 231.958 4.33953 228.092 4.33953C224.227 4.33953 224.227 4.45736 220.375 4.45736C216.523 4.45736 216.509 4.94549 212.657 4.94549C208.805 4.94549 208.791 2.9257 204.939 2.9257C201.087 2.9257 201.074 5.83755 197.208 5.83755C193.342 5.83755 193.342 5.1811 189.49 5.1811C185.638 5.1811 185.625 2.79108 181.773 2.79108C177.921 2.79108 177.907 4.62569 174.041 4.62569C170.176 4.62569 170.176 3.95244 166.324 3.95244C162.472 3.95244 162.458 2.23561 158.592 2.23561C154.727 2.23561 154.727 5.1643 150.875 5.1643C147.023 5.1643 147.009 3.46432 143.143 3.46432C139.278 3.46432 139.278 6.03951 135.412 6.03951C131.546 6.03951 131.546 6.19099 127.681 6.19099C123.815 6.19099 123.815 2.42078 119.949 2.42078C116.084 2.42078 116.084 5.4841 112.218 5.4841C108.352 5.4841 108.352 4.32274 104.487 4.32274C100.621 4.32274 100.621 6.37616 96.7552 6.37616C92.8895 6.37616 92.8895 6.34247 89.0239 6.34247C85.1582 6.34247 85.1582 6.40981 81.2925 6.40981C77.4269 6.40981 77.4269 6.09001 73.5748 6.09001C69.7228 6.09001 69.7092 5.1811 65.8435 5.1811C61.9778 5.1811 61.9778 5.87119 58.1122 5.87119C54.2465 5.87119 54.2465 6.69591 50.3808 6.69591C46.5151 6.69591 46.5151 2.50492 42.6495 2.50492C38.7838 2.50492 38.7838 4.12072 34.9181 4.12072C31.0525 4.12072 31.0525 6.12365 27.1868 6.12365C23.3211 6.12365 23.3211 3.2455 19.4554 3.2455C15.5898 3.2455 15.5898 2.53862 11.7104 2.53862C7.83111 2.53862 7.79013 2.37028 5.04455 5.71971C2.29896 9.06915 3.25514 9.11963 3.25514 13.8492C3.25514 18.5788 3.85616 18.5789 3.85616 23.3085C3.85616 28.0381 4.26595 28.0381 4.26595 32.7677C4.26595 37.4973 5.65923 37.4973 5.65923 42.2269C5.65923 46.9565 2.74973 46.9565 2.74973 51.6861C2.74973 56.4157 5.79583 56.4157 5.79583 61.1454C5.79583 65.875 4.30693 65.875 4.30693 70.6214C4.30693 75.3679 4.56646 75.351 4.56646 80.0975C4.56646 84.8439 4.92161 84.8271 4.92161 89.5567C4.92161 94.2863 5.72753 94.2863 5.72753 99.0159C5.72753 103.746 5.48166 103.745 5.48166 108.475C5.48166 113.205 2.85901 113.205 2.85901 117.934C2.85901 122.664 2.73607 122.664 2.73607 127.394C2.73607 132.123 5.20846 132.123 5.20846 136.87C5.20846 141.616 4.17033 141.599 4.17033 146.346C4.17033 151.092 3.21416 151.075 3.21416 155.805C3.21416 160.535 3.29612 160.535 3.29612 165.264C3.29612 169.994 4.21131 169.994 4.21131 174.723C4.21131 179.453 2.33994 179.453 2.33994 184.183C2.33994 188.912 2.66777 188.912 2.66777 193.659C2.66777 198.405 2.09407 198.388 2.09407 203.135C2.09407 207.881 3.66493 207.864 3.66493 212.594C3.66493 217.324 4.85331 217.323 4.85331 222.053C4.85331 226.783 4.52548 226.783 4.52548 231.512C4.52548 236.242 4.97625 236.242 4.97625 240.988C4.97625 245.735 4.17033 245.718 4.17033 250.464C4.17033 255.211 2.70875 255.194 2.70875 259.94C2.70875 264.687 3.9108 264.67 3.9108 269.4C3.9108 274.129 3.56931 274.129 3.56931 278.876C3.56931 283.622 2.39458 283.605 2.39458 288.352C2.39458 293.098 2.32628 293.081 2.32628 297.828C2.32628 302.574 2.72241 302.557 2.72241 307.304C2.72241 312.05 3.3371 312.034 3.3371 316.78C3.3371 321.526 3.0639 321.51 3.0639 326.256C3.0639 331.002 5.34506 330.986 5.34506 335.732C5.34506 340.479 4.12935 340.462 4.12935 345.208C4.12935 349.955 2.25799 349.938 2.25799 354.684C2.25799 359.431 5.56361 359.414 5.56361 364.16C5.56361 368.907 2.96829 368.89 2.96829 373.636C2.96829 378.383 4.15667 378.366 4.15667 383.112C4.15667 387.859 4.4845 387.842 4.4845 392.588C4.4845 397.335 2.87267 397.318 2.87267 402.048C2.87267 406.777 4.7577 406.777 4.7577 411.524C4.7577 416.27 3.32344 416.253 3.32344 421C3.32344 425.746 4.77136 425.729 4.77136 430.459C4.77136 435.189 5.18114 435.189 5.18114 439.918C5.18114 444.648 4.36157 444.648 4.36157 449.377C4.36157 454.107 2.25799 454.107 2.25799 458.853C2.25799 463.6 5.3314 463.583 5.3314 468.313C5.3314 473.042 3.00926 473.042 3.00926 477.772C3.00926 482.501 2.06675 482.501 2.06675 487.248C2.06675 491.994 4.19765 491.978 4.19765 496.724C4.19765 501.47 4.77136 501.454 4.77136 506.183C4.77136 510.913 5.24944 510.913 5.24944 515.659C5.24944 520.406 5.67289 520.389 5.67289 525.135C5.67289 529.882 3.29612 529.865 3.29612 534.611C3.29612 539.358 5.01723 539.341 5.01723 544.087C5.01723 548.834 5.44068 548.817 5.44068 553.563C5.44068 558.31 3.11854 558.293 3.11854 563.04C3.11854 567.786 5.45434 567.769 5.45434 572.516C5.45434 577.262 3.32344 577.245 3.32344 581.992C3.32344 586.738 3.9791 586.721 3.9791 591.468C3.9791 596.214 4.90795 596.197 4.90795 600.944C4.90795 605.69 2.36726 605.69 2.36726 610.42C2.36726 615.149 3.30978 615.149 3.30978 619.896C3.30978 624.642 4.88063 624.625 4.88063 629.372C4.88063 634.118 3.59663 634.101 3.59663 638.848C3.59663 643.594 3.14586 643.578 3.14586 648.324C3.14586 653.07 4.63476 653.054 4.63476 657.8C4.63476 662.546 3.43271 662.547 3.43271 667.276C3.43271 672.006 2.54484 672.023 2.54484 676.752C2.54484 681.482 2.36726 681.499 2.36726 686.228C2.36726 690.958 5.23578 690.975 5.23578 695.704C5.23578 700.434 2.44922 700.434 2.44922 705.18C2.44922 709.927 3.2688 709.927 3.2688 714.656C3.2688 719.386 3.92446 719.403 3.92446 724.149C3.92446 728.896 0.291001 731.471 3.00926 734.82C5.72753 738.17 7.81745 733.322 11.6831 733.322C15.5488 733.322 15.5351 734.113 19.4008 734.113C23.2665 734.113 23.2528 735.393 27.1185 735.393C30.9842 735.393 30.9705 732.329 34.8362 732.329C38.7018 732.329 38.6882 732.986 42.5539 732.986C46.4195 732.986 46.4059 734.063 50.2715 734.063C54.1372 734.063 54.1236 733.238 57.9892 733.238C61.8549 733.238 61.8549 732.969 65.7069 732.969C69.5589 732.969 69.5726 732.902 73.4246 732.902C77.2766 732.902 77.2903 735.039 81.1423 735.039C84.9943 735.039 85.008 734.938 88.86 734.938C92.712 734.938 92.712 734.484 96.5776 734.484C100.443 734.484 100.43 735.241 104.295 735.241C108.161 735.241 108.147 733.659 112.013 733.659C115.879 733.659 115.865 732.38 119.731 732.38C123.596 732.38 123.583 734.635 127.448 734.635C131.314 734.635 131.3 733.996 135.166 733.996C139.032 733.996 139.018 734.265 142.884 734.265C146.749 734.265 146.736 731.774 150.601 731.774C154.467 731.774 154.453 734.248 158.319 734.248C162.185 734.248 162.171 732.986 166.037 732.986C169.902 732.986 169.902 733.928 173.754 733.928C177.607 733.928 177.62 735.241 181.472 735.241C185.324 735.241 185.338 731.875 189.19 731.875C193.042 731.875 193.056 731.538 196.908 731.538C200.76 731.538 200.773 734.618 204.625 734.618C208.477 734.618 208.477 733.39 212.343 733.39C216.209 733.39 216.195 734.77 220.061 734.77C223.926 734.77 223.913 735.073 227.778 735.073C231.644 735.073 231.63 734.214 235.496 734.214C239.362 734.214 239.348 732.178 243.214 732.178C247.079 732.178 247.066 732.161 250.931 732.161C254.797 732.161 254.783 732.935 258.649 732.935C262.515 732.935 262.515 735.982 266.367 735.982C270.219 735.982 270.232 735.729 274.084 735.729C277.936 735.729 277.95 735.477 281.802 735.477C285.654 735.477 285.668 734.299 289.52 734.299C293.372 734.299 293.385 733.154 297.237 733.154C301.089 733.154 301.103 732.464 304.955 732.464C308.807 732.464 308.807 731.976 312.673 731.976C316.538 731.976 316.525 732.902 320.39 732.902C324.256 732.902 324.243 731.875 328.108 731.875C331.974 731.875 331.974 734.13 335.826 734.13C339.678 734.13 339.692 732.296 343.544 732.296C347.396 732.296 347.409 734.366 351.261 734.366C355.113 734.366 355.127 735.813 358.979 735.813C362.831 735.813 362.845 734.77 366.697 734.77C370.549 734.77 370.562 734.635 374.414 734.635C378.266 734.635 378.28 735.645 382.132 735.645C385.984 735.645 385.998 732.043 389.85 732.043C393.702 732.043 393.715 734.097 397.567 734.097C401.419 734.097 401.433 733.979 405.285 733.979C409.137 733.979 409.151 733.693 413.003 733.693C416.855 733.693 416.868 734.366 420.72 734.366C424.572 734.366 424.586 735.106 428.438 735.106C432.29 735.106 432.304 731.774 436.156 731.774C440.008 731.774 440.021 733.356 443.873 733.356C447.725 733.356 447.739 734.097 451.591 734.097C455.443 734.097 455.457 732.464 459.309 732.464C463.161 732.464 463.174 732.464 467.026 732.464C470.879 732.464 470.892 732.043 474.744 732.043C478.596 732.043 478.61 732.801 482.462 732.801C486.314 732.801 486.328 733.895 490.18 733.895C494.032 733.895 494.045 733.996 497.897 733.996C501.749 733.996 501.763 731.673 505.615 731.673C509.467 731.673 509.481 735.292 513.333 735.292C517.185 735.292 517.198 731.69 521.05 731.69C524.902 731.69 524.916 732.262 528.768 732.262C532.62 732.262 532.634 732.009 536.486 732.009C540.338 732.009 540.351 735.83 544.203 735.83C548.055 735.83 548.069 733.255 551.921 733.255C555.773 733.255 555.787 732.346 559.639 732.346C563.491 732.346 563.504 731.908 567.356 731.908C571.208 731.908 571.222 731.555 575.074 731.555C578.926 731.555 578.94 734.181 582.792 734.181C586.644 734.181 586.657 734.046 590.509 734.046C594.361 734.046 594.375 735.241 598.241 735.241C602.106 735.241 602.106 734.719 605.958 734.719C609.81 734.719 609.824 733.507 613.676 733.507C617.528 733.507 617.542 732.514 621.394 732.514C625.246 732.514 625.26 731.589 629.125 731.589C632.991 731.589 632.991 732.733 636.843 732.733C640.695 732.733 640.709 731.572 644.561 731.572C648.413 731.572 648.426 734.214 652.278 734.214C656.13 734.214 656.144 733.188 659.996 733.188C663.848 733.188 663.862 732.885 667.714 732.885C671.566 732.885 671.579 734.029 675.431 734.029C679.283 734.029 679.297 734.198 683.149 734.198C687.001 734.198 687.015 734.13 690.867 734.13C694.719 734.13 694.732 732.245 698.584 732.245C702.436 732.245 702.45 735.982 706.302 735.982C710.154 735.982 710.168 735.897 714.02 735.897C717.872 735.897 717.872 735.258 721.737 735.258C725.603 735.258 725.603 735.191 729.455 735.191C733.307 735.191 733.321 733.221 737.186 733.221C741.052 733.221 741.052 735.477 744.904 735.477C748.756 735.477 748.77 733.642 752.622 733.642C756.474 733.642 756.487 735.005 760.339 735.005C764.191 735.005 764.205 734.669 768.071 734.669C771.936 734.669 771.936 732.935 775.788 732.935C779.64 732.935 779.654 734.635 783.506 734.635C787.358 734.635 787.372 734.383 791.237 734.383C795.103 734.383 795.103 732.868 798.955 732.868C802.807 732.868 802.821 734.686 806.686 734.686C810.552 734.686 810.552 733.003 814.404 733.003C818.256 733.003 818.27 735.561 822.135 735.561C826.001 735.561 826.001 734.501 829.867 734.501C833.733 734.501 833.733 733.996 837.598 733.996C841.464 733.996 841.464 735.325 845.33 735.325C849.195 735.325 849.195 732.514 853.061 732.514C856.927 732.514 856.927 732.312 860.792 732.312C864.658 732.312 864.658 733.76 868.524 733.76C872.389 733.76 872.389 732.346 876.255 732.346C880.121 732.346 880.121 735.342 883.986 735.342C887.852 735.342 887.852 734.315 891.704 734.315C895.556 734.315 895.57 735.965 899.435 735.965C903.301 735.965 903.301 735.763 907.167 735.763C911.032 735.763 911.032 735.645 914.898 735.645C918.764 735.645 918.764 731.572 922.629 731.572C926.495 731.572 926.495 734.097 930.361 734.097C934.226 734.097 934.226 731.589 938.092 731.589C941.958 731.589 941.958 733.743 945.823 733.743C949.689 733.743 949.689 735.005 953.568 735.005C957.448 735.005 957.953 736.217 960.699 732.851C963.444 729.485 962.98 728.879 962.98 724.149C962.98 719.42 959.51 719.42 959.51 714.69C959.51 709.96 961.505 709.96 961.505 705.231C961.505 700.501 961.682 700.501 961.682 695.772C961.682 691.042 960.125 691.042 960.125 686.312C960.125 681.583 962.406 681.583 962.406 676.853C962.406 672.124 962.092 672.124 962.092 667.377C962.092 662.631 961.614 662.647 961.614 657.901C961.614 653.155 960.644 653.171 960.644 648.442C960.644 643.712 962.147 643.712 962.147 638.983C962.147 634.253 960.958 634.253 960.958 629.523C960.958 624.794 960.835 624.794 960.835 620.064C960.835 615.335 961.054 615.334 961.054 610.605C961.054 605.875 960.699 605.875 960.699 601.129C960.699 596.382 960.043 596.399 960.043 591.653C960.043 586.906 959.77 586.923 959.77 582.194C959.77 577.464 960.945 577.464 960.945 572.734C960.945 568.005 962.761 568.005 962.761 563.275C962.761 558.545 962.242 558.546 962.242 553.816C962.242 549.086 960.357 549.086 960.357 544.34C960.357 539.593 960.658 539.61 960.658 534.864C960.658 530.117 962.98 530.134 962.98 525.405C962.98 520.675 962.953 520.675 962.953 515.945C962.953 511.216 963.13 511.216 963.13 506.486C963.13 501.757 960.385 501.757 960.385 497.01C960.385 492.264 961.477 492.28 961.477 487.534C961.477 482.788 959.906 482.804 959.906 478.058C959.906 473.312 961.628 473.328 961.628 468.599C961.628 463.869 959.715 463.869 959.715 459.123C959.715 454.376 962.857 454.393 962.857 449.647C962.857 444.9 960.33 444.917 960.33 440.171C960.33 435.424 961.655 435.441 961.655 430.695C961.655 425.948 962.215 425.965 962.215 421.219C962.215 416.472 961.914 416.489 961.914 411.742C961.914 406.996 962.106 407.013 962.106 402.266C962.106 397.52 962.27 397.537 962.27 392.79C962.27 388.044 961.095 388.061 961.095 383.314C961.095 378.568 959.893 378.585 959.893 373.838C959.893 369.092 960.835 369.109 960.835 364.362C960.835 359.616 960.303 359.633 960.303 354.886C960.303 350.14 960.303 350.157 960.303 345.41C960.303 340.664 960.193 340.681 960.193 335.951C960.193 331.221 959.415 331.221 959.415 326.475C959.415 321.728 961.436 321.745 961.436 316.999C961.436 312.252 961.122 312.269 961.122 307.54C961.122 302.81 960.904 302.81 960.904 298.08C960.904 293.351 962.925 293.351 962.925 288.621C962.925 283.891 960.016 283.892 960.016 279.145C960.016 274.399 960.972 274.415 960.972 269.686C960.972 264.956 962.215 264.956 962.215 260.227C962.215 255.497 962.42 255.497 962.42 250.751C962.42 246.004 962.543 246.021 962.543 241.275C962.543 236.528 959.62 236.545 959.62 231.815C959.62 227.086 959.524 227.086 959.524 222.339C959.524 217.593 959.442 217.61 959.442 212.863C959.442 208.117 959.36 208.134 959.36 203.387C959.36 198.641 962.106 198.658 962.106 193.911C962.106 189.165 960.193 189.181 960.193 184.435C960.193 179.689 961.942 179.705 961.942 174.959C961.942 170.213 962.133 170.229 962.133 165.483C962.133 160.737 961.819 160.753 961.819 156.007C961.819 151.26 959.551 151.277 959.551 146.531C959.551 141.784 961.068 141.801 961.068 137.055C961.068 132.308 961.3 132.308 961.3 127.579C961.3 122.849 962.461 122.849 962.461 118.103C962.461 113.356 960.589 113.373 960.589 108.627C960.589 103.88 961.819 103.897 961.819 99.1506C961.819 94.4041 959.51 94.421 959.51 89.6745C959.51 84.9281 960.589 84.9449 960.589 80.1985C960.589 75.452 961.354 75.452 961.354 70.7224C961.354 65.9928 961.6 65.9759 961.6 61.2463C961.6 56.5167 962.461 56.4999 962.461 51.7703C962.461 47.0407 962.939 47.0239 962.939 42.2943C962.939 37.5647 959.661 37.5646 959.661 32.8182C959.661 28.0718 961.259 28.0718 961.259 23.3421C961.259 18.6125 958.978 18.0066 959.961 13.4117C961.136 7.94147 964.879 6.64544 962.147 3.296L962.16 3.27915Z" fill="white" stroke="#231815" stroke-width="3.46" stroke-miterlimit="10"/>
</svg>
