<svg width="37" height="39" viewBox="0 0 37 39" fill="none" xmlns="http://www.w3.org/2000/svg">
<path d="M18.3877 36.8616C27.8192 36.8616 35.4649 29.0795 35.4649 19.4799C35.4649 9.88021 27.8192 2.09814 18.3877 2.09814C8.95627 2.09814 1.31055 9.88021 1.31055 19.4799C1.31055 29.0795 8.95627 36.8616 18.3877 36.8616Z" fill="#E2E2E2" stroke="black" stroke-width="2.5" stroke-miterlimit="10"/>
<path d="M16.9943 27.3227C16.5571 27.3227 16.1335 27.1141 15.8466 26.7665L10.6278 20.3144C10.1087 19.6747 10.2043 18.7152 10.8328 18.1868C11.4749 17.6584 12.4038 17.7558 12.923 18.3954L16.8986 23.3179L23.7841 13.2922C24.2486 12.6108 25.1776 12.4439 25.8471 12.9167C26.5165 13.3895 26.6804 14.335 26.2159 15.0164L18.2101 26.683C17.9505 27.0724 17.5134 27.3088 17.0489 27.3227C17.0352 27.3227 17.0079 27.3227 16.9943 27.3227Z" fill="black"/>
</svg>
