<svg width="864" height="110" viewBox="0 0 864 110" fill="none" xmlns="http://www.w3.org/2000/svg">
<path d="M407.003 63.8561C407.02 64.2205 406.788 64.4915 406.806 64.8293C406.823 65.1893 406.823 65.5359 406.841 65.8781C406.858 66.2203 407.642 66.5402 407.659 66.8869C407.677 67.2468 407.182 67.629 407.195 67.9845C407.208 68.3401 406.99 68.7134 407.007 69.0689C407.025 69.4244 407.475 69.7666 407.488 70.1266C407.502 70.4865 407.213 70.8554 407.23 71.2154C407.248 71.5753 407.125 71.9397 407.143 72.2953C407.16 72.6508 407.48 72.9974 407.497 73.3574C407.515 73.7173 407.803 74.0595 407.821 74.4151C407.838 74.7706 407.44 75.1572 407.462 75.5127C407.484 75.8682 407.637 76.2193 407.659 76.5793C407.69 77.0504 407.856 77.4459 408.013 77.7525C408.21 78.1303 408.49 78.4636 408.88 78.6102C409.204 78.7346 409.615 78.4058 410.074 78.3791C410.564 78.3525 411.024 78.3125 411.505 78.2014C411.947 78.0991 412.389 78.2591 412.717 78.1658C413.185 78.028 413.33 77.5259 413.601 77.3481C413.96 77.117 414.502 77.1837 414.621 76.7615C414.713 76.446 414.485 76.0149 414.494 75.5261C414.502 75.1794 414.708 74.7839 414.695 74.3217C414.686 73.9307 414.411 73.5485 414.402 73.1574C414.393 72.7663 414.511 72.3708 414.502 71.9797C414.494 71.5887 414.428 71.1976 414.419 70.8065C414.411 70.4154 414.485 70.0244 414.476 69.6333C414.467 69.2422 414.511 68.8511 414.507 68.4601C414.502 68.069 414.839 67.6735 414.839 67.2824C414.839 66.8913 414.59 66.5047 414.586 66.1136C414.581 65.7225 414.616 65.3315 414.621 64.9404C414.621 64.4827 414.174 63.9849 414.284 63.7094C414.424 63.3539 415.084 63.4383 415.465 63.2872C415.741 63.1761 416.047 63.1183 416.48 63.0561C416.83 63.0072 417.176 62.9317 417.526 62.8828C417.876 62.8339 418.209 62.6384 418.559 62.5895C418.909 62.5406 419.228 62.2606 419.578 62.2118C419.928 62.1629 420.357 62.6828 420.711 62.6339C421.066 62.5851 421.394 62.3806 421.74 62.3273C422.085 62.274 422.414 62.0473 422.764 61.9896C423.114 61.9318 423.442 61.754 423.792 61.6963C424.173 61.6296 424.623 61.8429 424.908 61.7096C425.24 61.5496 425.63 61.3007 425.848 61.0385C426.067 60.7763 425.875 60.2431 425.993 59.8831C426.093 59.5765 425.98 59.2432 426.015 58.861C426.054 58.461 426.142 58.0966 426.12 57.6966C426.098 57.2922 426.102 56.9589 426.045 56.6434C425.971 56.2301 425.945 55.9235 425.792 55.6524C425.603 55.3235 425.59 54.7014 425.249 54.5547C424.965 54.4347 424.488 54.6303 424.072 54.6214C423.757 54.6125 423.416 54.8125 423.013 54.8569C422.72 54.8925 422.405 54.7725 422.112 54.808C421.775 54.848 421.451 55.0213 421.114 55.0613C420.777 55.1013 420.405 54.8836 420.068 54.928C419.731 54.9724 419.434 55.3591 419.097 55.3991C418.76 55.4391 418.41 55.3813 418.073 55.4213C417.736 55.4613 417.395 55.4613 417.053 55.4968C416.712 55.5324 416.349 55.2746 416.012 55.3102C415.675 55.3457 415.364 55.7235 415.028 55.7502C414.656 55.7768 414.306 56.1234 413.934 56.1546C413.562 56.1857 413.146 55.6213 412.774 55.6524C412.402 55.6835 412.057 56.0746 411.68 56.1012C411.304 56.1279 410.91 55.8213 410.538 55.8479C410.166 55.8746 409.825 56.3679 409.453 56.3945C409.081 56.4212 408.696 56.2968 408.324 56.3234C407.952 56.3501 407.567 56.1812 407.191 56.2079C406.815 56.2346 406.447 56.2568 406.071 56.2834C405.694 56.3101 405.309 56.1279 404.937 56.1546C404.565 56.1812 404.224 56.6701 403.848 56.6967C403.472 56.7234 403.1 56.6923 402.723 56.7145C402.347 56.7367 401.953 56.4034 401.581 56.4301C401.209 56.4568 400.859 56.8478 400.487 56.8745C400.115 56.9012 399.757 57.1411 399.385 57.1678C399.013 57.1945 398.602 56.639 398.225 56.6656C397.849 56.6923 397.499 57.0034 397.127 57.03C396.755 57.0567 396.387 57.15 396.011 57.1767C395.626 57.2033 395.075 56.9678 394.729 57.0523C394.493 57.35 394.278 57.83 394.147 58.141C394.007 58.4788 393.762 58.8654 393.718 59.2165C393.675 59.5676 394.401 59.9542 394.427 60.3142C394.453 60.6741 394.48 60.9897 394.537 61.3452C394.607 61.7763 394.222 62.3051 394.397 62.6384C394.589 63.0117 394.856 63.4294 395.167 63.6694C395.477 63.9094 396.046 63.5983 396.453 63.7005C396.816 63.7894 397.127 63.8694 397.556 63.8472C397.853 63.8294 398.155 63.9805 398.448 63.9183C398.742 63.856 399.052 63.9849 399.345 63.9583C399.717 63.9272 400.076 63.7672 400.448 63.7272C400.82 63.6872 401.161 63.4116 401.533 63.3717C401.905 63.3317 402.295 63.5761 402.671 63.5494C403.047 63.5228 403.402 63.3094 403.778 63.305C404.154 63.3005 404.526 63.2694 404.907 63.2917C405.287 63.3139 405.668 63.2428 406.044 63.2917C406.421 63.3405 406.622 63.7672 406.998 63.8561H407.003Z" fill="black"/>
<path d="M397.048 44.8845C397.394 44.849 397.678 44.2268 398.024 44.1868C398.37 44.1468 398.742 44.3601 399.087 44.3157C399.433 44.2712 399.779 44.2446 400.12 44.1868C400.461 44.129 400.877 44.4357 401.218 44.3646C401.568 44.289 401.918 44.2312 402.268 44.1646C402.618 44.0979 402.92 43.7246 403.275 43.6668C403.629 43.6091 403.984 43.5335 404.338 43.4846C404.692 43.4358 405.099 43.8091 405.454 43.7691C405.808 43.7291 406.154 43.618 406.513 43.5824C406.871 43.5469 407.186 43.058 407.545 43.0269C407.904 42.9958 408.293 43.3913 408.648 43.3691C409.002 43.3469 409.361 43.2891 409.716 43.2669C410.07 43.2447 410.438 43.3469 410.796 43.3247C411.155 43.3024 411.488 42.8092 411.846 42.7914C412.205 42.7736 412.568 42.858 412.927 42.8447C413.286 42.8314 413.627 42.4492 413.986 42.4314C414.345 42.4136 414.713 42.6003 415.071 42.587C415.242 42.5781 415.526 42.858 415.846 43.0225C415.846 43.3291 415.54 43.7424 415.474 44.1113C415.417 44.4446 415.907 44.8845 415.833 45.2134C415.758 45.5422 415.102 45.7467 415.041 46.0755C414.979 46.4044 415.146 46.791 415.115 47.1243C415.084 47.4487 415.049 47.7776 415.023 48.102C414.997 48.4264 414.769 48.7464 414.756 49.0752C414.743 49.4041 414.914 49.7418 414.918 50.0707C414.923 50.3995 415.329 50.6973 415.356 51.0217C415.391 51.4128 415.15 51.7772 415.299 52.0305C415.474 52.3283 415.776 52.4616 416.104 52.586C416.38 52.6882 416.69 52.9415 417.067 52.9371C417.404 52.9282 417.745 53.0437 418.086 53.0304C418.427 53.0171 418.734 52.5771 419.075 52.5593C419.416 52.5416 419.762 52.9637 420.108 52.946C420.436 52.9282 420.746 52.5993 421.092 52.5816C421.293 51.8839 421.678 51.555 421.744 51.1684C421.805 50.804 421.871 50.4395 421.932 50.0751C421.994 49.7107 422.155 49.3641 422.217 48.9997C422.278 48.6353 422.274 48.2575 422.335 47.8931C422.396 47.5287 421.924 47.0754 421.985 46.711C422.046 46.3466 422.449 46.04 422.51 45.6755C422.571 45.3111 422.755 44.9689 422.812 44.6001C422.869 44.2312 422.939 43.8713 422.996 43.5069C423.052 43.1425 423.267 42.8047 423.328 42.4359C423.389 42.067 422.689 41.5782 422.751 41.2137C422.803 40.8804 423.56 40.6716 423.621 40.3383C423.683 40.005 423.311 39.6006 423.359 39.2717C423.407 38.9429 423.792 38.6407 423.818 38.3074C423.849 37.9563 423.249 37.703 423.171 37.4097C423.079 37.0808 423.381 36.5875 423.171 36.352C422.961 36.1165 422.698 35.7076 422.383 35.5876C422.103 35.481 421.661 35.4676 421.311 35.4721C420.865 35.4721 420.401 35.5743 419.954 35.6098C419.508 35.6454 419.071 35.8054 418.629 35.8409C418.266 35.872 417.894 35.7432 417.53 35.7743C417.167 35.8054 416.813 35.8854 416.45 35.9165C416.086 35.9476 415.776 36.5697 415.413 36.5964C415.049 36.6231 414.629 35.9298 414.271 35.9565C413.912 35.9831 413.553 36.0765 413.19 36.1076C412.827 36.1387 412.472 36.2542 412.113 36.2809C411.755 36.3075 411.4 36.4631 411.037 36.4942C410.674 36.5253 410.306 36.4853 409.947 36.512C409.589 36.5386 409.239 36.7342 408.875 36.7653C408.512 36.7964 408.149 36.7742 407.786 36.8008C407.423 36.8275 407.051 36.6942 406.688 36.7253C406.324 36.7564 405.957 36.6986 405.598 36.7253C405.239 36.7519 404.881 36.8453 404.517 36.8719C404.154 36.8986 403.835 37.4541 403.476 37.4852C403.117 37.5163 402.745 37.4363 402.382 37.463C402.019 37.4897 401.634 37.2275 401.275 37.2541C400.916 37.2808 400.536 37.1297 400.177 37.1564C399.818 37.183 399.494 37.7296 399.131 37.7607C398.768 37.7918 398.405 37.7874 398.046 37.8185C397.687 37.8496 397.319 37.8407 396.956 37.8674C396.597 37.8941 396.265 38.0807 395.911 38.1207C395.556 38.1607 395.088 37.623 394.747 37.7207C394.405 37.8185 394.344 38.3696 394.029 38.5607C393.955 38.9206 394.038 39.1651 393.985 39.4539C393.92 39.8272 393.438 40.0761 393.408 40.3605C393.368 40.7427 393.097 41.0982 393.123 41.3871C393.149 41.7204 393.95 41.8715 394.055 42.2003C394.178 42.5958 394.134 42.9514 394.313 43.2491C394.523 43.5913 394.44 44.2135 394.733 44.4223C395.027 44.6312 395.604 44.1646 395.994 44.2401C396.331 44.3023 396.654 44.9245 397.061 44.8845H397.048Z" fill="black"/>
<path d="M352.356 55.7502C352.019 55.7724 351.743 55.4302 351.402 55.4524C351.06 55.4746 350.715 55.3724 350.374 55.3991C350.032 55.4257 349.708 55.6302 349.367 55.6524C349.026 55.6746 348.706 55.999 348.365 56.0212C348.024 56.0435 347.661 55.6302 347.319 55.6435C346.978 55.6568 346.645 55.8213 346.304 55.8301C345.937 55.839 345.578 56.1101 345.21 56.119C344.843 56.1279 344.466 55.7457 344.099 55.7546C343.731 55.7635 343.368 55.9724 343.001 55.9812C342.633 55.9901 342.266 55.9724 341.898 55.9812C341.53 55.9901 341.172 56.3145 340.804 56.3234C340.437 56.3323 340.073 56.4301 339.706 56.439C339.338 56.4479 338.966 56.279 338.599 56.2879C338.231 56.2968 337.868 56.399 337.5 56.4079C337.133 56.4168 336.765 56.4123 336.398 56.4212C336.03 56.4301 335.658 56.2079 335.291 56.2168C334.923 56.2257 334.556 56.239 334.188 56.2479C333.821 56.2568 333.457 56.4568 333.09 56.4656C332.722 56.4745 332.35 56.2123 331.983 56.2168C331.615 56.2212 331.248 56.2745 330.88 56.2834C330.513 56.2923 330.149 56.4967 329.782 56.5056C329.414 56.5145 329.051 56.6745 328.684 56.6834C328.316 56.6923 327.94 56.2257 327.572 56.2345C327.205 56.2434 326.846 56.6745 326.478 56.6834C326.111 56.6923 325.734 56.2479 325.367 56.2568C324.999 56.2657 324.641 56.6701 324.273 56.679C323.888 56.6878 323.52 56.1546 323.227 56.1857C322.82 56.2257 322.645 56.8478 322.391 56.9678C322.072 57.1189 321.551 57.0167 321.411 57.3678C321.306 57.63 321.184 58.0077 321.14 58.4166C321.109 58.7143 321.424 59.0832 321.411 59.4742C321.403 59.6742 320.996 59.8831 321 60.0831C321.009 60.5008 321.07 60.9363 321.14 61.2741C321.228 61.6829 321.783 61.8829 321.967 62.1807C322.173 62.514 322.286 62.8784 322.615 63.0739C322.917 63.2517 323.297 63.2117 323.704 63.2783C324.041 63.3361 324.378 63.1628 324.794 63.145C325.17 63.1317 325.551 63.2694 325.927 63.2472C326.303 63.225 326.68 63.2028 327.056 63.1806C327.432 63.1583 327.808 63.1228 328.185 63.1006C328.561 63.0783 328.959 63.4739 329.336 63.4561C329.712 63.4383 330.071 63.0161 330.447 62.9984C330.858 62.9806 331.261 63.5139 331.672 63.5316C332.083 63.5494 332.434 63.465 332.84 63.585C333.212 63.6961 333.877 63.5005 334.245 63.7538C334.298 64.1805 334.512 64.8204 334.499 65.3048C334.49 65.6959 334.131 66.0781 334.122 66.4647C334.114 66.8513 334.206 67.2468 334.197 67.6335C334.188 68.0201 333.851 68.4023 333.838 68.7934C333.825 69.1844 333.956 69.5755 333.947 69.9666C333.939 70.3577 334.14 70.7487 334.131 71.1398C334.122 71.5309 333.632 71.9086 333.628 72.2953C333.624 72.6819 334.131 73.0863 334.127 73.4729C334.122 73.8418 334.324 74.2062 334.328 74.575C334.333 74.9439 334.341 75.3039 334.359 75.6727C334.376 76.0416 334.311 76.406 334.346 76.7704C334.381 77.1526 334.118 77.5436 334.245 77.8103C334.398 78.1347 334.84 78.0592 335.142 78.2058C335.405 78.3391 335.588 78.4947 335.973 78.4813C336.293 78.4724 336.612 78.5569 336.932 78.5213C337.251 78.4858 337.579 78.5391 337.899 78.4858C338.218 78.4324 338.511 78.2725 338.826 78.2102C339.141 78.148 339.408 77.8414 339.723 77.7792C340.117 77.6992 340.765 78.0192 340.953 77.7347C341.141 77.4503 340.625 76.8415 340.677 76.4771C340.734 76.0816 341.351 75.7305 341.369 75.3305C341.382 74.9394 341.228 74.5439 341.242 74.1529C341.255 73.7618 341.027 73.3618 341.036 72.9707C341.045 72.5797 341.22 72.193 341.233 71.802C341.246 71.4109 341.268 71.0198 341.281 70.6287C341.294 70.2377 340.997 69.8333 341.01 69.4466C341.023 69.06 341.294 68.6734 341.312 68.2867C341.329 67.9001 341.561 67.5179 341.579 67.1269C341.596 66.7358 341.185 66.3225 341.207 65.9314C341.233 65.4826 341.723 65.1759 341.771 64.8737C341.85 64.3938 341.758 64.1182 341.981 63.9049C342.204 63.6916 342.436 63.4961 342.904 63.425C343.206 63.3761 343.583 63.5939 344.02 63.5627C344.401 63.5361 344.742 62.985 345.123 62.9584C345.503 62.9317 345.924 63.425 346.304 63.3939C346.685 63.3628 347.013 62.7628 347.394 62.7273C347.774 62.6917 348.164 62.7939 348.54 62.7539C348.916 62.7139 349.341 63.1317 349.722 63.0961C350.102 63.0606 350.444 62.6651 350.824 62.6251C351.209 62.5851 351.432 62.2429 351.752 62.1007C352.093 61.9451 352.259 61.8074 352.5 61.5229C352.728 61.2563 352.885 61.083 353.003 60.7008C353.117 60.3364 353.209 60.012 353.279 59.6476C353.349 59.2831 353.857 58.9587 353.857 58.5899C353.857 58.221 354.018 57.7455 353.922 57.3767C353.83 57.03 353.62 56.6034 353.423 56.2657C353.248 55.9679 352.644 56.0346 352.369 55.7457L352.356 55.7502Z" fill="black"/>
<path d="M342.34 43.2224C342.795 43.2091 343.079 43.4535 343.421 43.5157C343.552 43.8624 343.753 43.969 343.753 44.2668C343.753 44.609 343.854 44.9689 343.771 45.2756C343.683 45.5956 343.141 45.8044 343.079 46.1199C343.014 46.4666 343.425 46.9065 343.359 47.2532C343.294 47.5998 342.847 47.8709 342.786 48.2175C342.725 48.5642 342.642 48.9152 342.589 49.2619C342.537 49.6085 342.471 49.9685 342.436 50.3196C342.401 50.6573 342.27 51.1061 342.336 51.4528C342.401 51.7994 342.795 52.106 342.926 52.4171C343.093 52.8082 343.679 53.497 344.073 53.5237C344.449 53.5504 344.856 52.9282 345.237 52.9371C345.617 52.946 345.98 53.3237 346.361 53.3193C346.742 53.3148 347.114 53.3904 347.499 53.3859C347.884 53.3815 348.44 53.5548 348.829 53.5592C348.969 53.1371 349.1 52.5638 349.231 52.1905C349.376 51.7816 349.096 51.2706 349.179 50.8706C349.253 50.5195 349.358 50.1773 349.433 49.8307C349.507 49.4841 349.98 49.2174 350.054 48.8708C350.128 48.5242 349.997 48.1286 350.072 47.7776C350.146 47.4265 350.479 47.1332 350.553 46.7866C350.627 46.4399 350.557 46.0577 350.632 45.7067C350.706 45.3556 350.951 45.0445 351.021 44.6934C351.091 44.3423 350.833 43.9246 350.907 43.5735C350.982 43.2224 351.069 42.8758 351.139 42.5292C351.209 42.1825 351.131 41.7959 351.201 41.4493C351.271 41.1026 351.432 40.7693 351.502 40.4183C351.572 40.0672 352.054 39.8005 352.124 39.4495C352.198 39.0717 351.739 38.6762 351.686 38.3562C351.625 37.9874 351.857 37.4497 351.642 37.183C351.428 36.9164 350.942 36.8364 350.605 36.6897C350.308 36.5609 349.932 36.7742 349.555 36.7564C349.061 36.7297 348.58 36.632 348.081 36.6453C347.722 36.6542 347.359 36.6497 347 36.6586C346.641 36.6675 346.274 36.552 345.915 36.5609C345.556 36.5697 345.206 37.0586 344.843 37.0675C344.48 37.0764 344.121 37.0541 343.762 37.063C343.403 37.0719 343.04 37.0053 342.677 37.0141C342.314 37.023 341.959 37.0897 341.596 37.0986C341.233 37.1075 340.874 37.0497 340.511 37.0586C340.148 37.0675 339.785 36.7875 339.421 36.7964C339.058 36.8053 338.704 36.9697 338.345 36.9786C337.986 36.9875 337.627 37.1519 337.269 37.1608C336.91 37.1697 336.538 36.8497 336.179 36.8586C335.82 36.8675 335.466 37.1919 335.107 37.2008C334.748 37.2097 334.385 37.2275 334.026 37.2363C333.667 37.2452 333.304 37.2763 332.945 37.2897C332.587 37.303 332.21 36.6853 331.847 36.6942C331.484 36.7031 331.134 37.0275 330.775 37.0364C330.416 37.0453 330.062 37.3341 329.699 37.343C329.336 37.3519 328.977 37.3874 328.618 37.3963C328.259 37.4052 327.887 36.9519 327.524 36.9608C327.161 36.9697 326.811 37.2452 326.448 37.2541C326.085 37.263 325.721 37.0186 325.358 37.0275C324.995 37.0364 324.645 37.2941 324.282 37.303C323.91 37.3119 323.542 37.3074 323.127 37.383C322.781 37.4452 322.483 37.583 322.05 37.6496C322.006 37.9963 321.831 38.2185 321.779 38.5296C321.722 38.8762 321.976 39.2362 321.941 39.5472C321.901 39.885 321.372 40.1961 321.394 40.516C321.424 40.9604 321.486 41.3959 321.564 41.7515C321.665 42.1914 322.033 42.5158 322.221 42.8269C322.435 43.1824 322.606 43.6624 322.96 43.8668C323.275 44.0446 323.735 44.1824 324.172 44.2446C324.527 44.2935 324.96 44.2446 325.402 44.2223C325.848 44.2001 326.281 43.9468 326.728 43.9157C327.174 43.8846 327.664 44.1868 328.106 44.1201C328.469 44.0624 328.789 43.7202 329.152 43.6757C329.515 43.6313 329.874 43.5291 330.237 43.4891C330.6 43.4491 330.959 43.2802 331.322 43.2491C331.685 43.218 332.075 43.4802 332.442 43.4535C332.81 43.4269 333.169 43.3647 333.536 43.3424C333.904 43.3202 334.263 43.2047 334.63 43.1869C334.998 43.1691 335.356 42.858 335.72 42.8491C336.083 42.8403 336.459 43.058 336.827 43.0491C337.194 43.0402 337.57 43.5646 337.934 43.5602C338.297 43.5557 338.656 42.9469 339.023 42.9425C339.391 42.938 339.763 43.4358 340.13 43.4313C340.498 43.4269 340.857 42.9291 341.22 42.9203C341.583 42.9114 341.959 43.2313 342.327 43.2224H342.34Z" fill="black"/>
<path d="M453.944 61.4607C453.572 61.4341 453.174 61.8385 452.802 61.8073C452.43 61.7762 452.045 61.9451 451.678 61.914C451.31 61.8829 450.943 61.7674 450.575 61.7362C450.207 61.7051 449.853 61.4963 449.481 61.4563C449.109 61.4163 448.737 61.4429 448.365 61.4029C447.993 61.3629 447.617 61.4207 447.245 61.3763C446.873 61.3318 446.506 61.3096 446.134 61.2652C445.762 61.2207 445.403 61.1185 445.035 61.0696C444.668 61.0208 444.27 61.1719 443.902 61.1185C443.535 61.0652 443.228 60.5719 442.861 60.5186C442.493 60.4653 442.169 60.1408 441.802 60.0875C441.434 60.0342 440.966 60.6386 440.599 60.5764C440.231 60.5141 439.877 60.3853 439.509 60.3186C439.142 60.2519 438.818 59.9453 438.455 59.8786C438.091 59.812 437.684 59.9453 437.321 59.8786C436.932 59.8031 436.599 59.3809 436.205 59.3276C435.812 59.2743 435.37 59.6698 434.972 59.6298C434.573 59.5898 434.215 59.1854 433.816 59.1587C433.418 59.132 433.02 59.1054 432.626 59.0921C432.211 59.0743 431.777 59.0387 431.475 59.172C431.134 59.3231 431.038 59.8031 430.841 60.132C430.67 60.4208 430.333 60.6919 430.277 61.1007C430.224 61.474 430.425 61.8518 430.425 62.1984C430.425 62.5762 430.154 62.9761 430.228 63.3139C430.303 63.6783 430.657 63.9583 430.815 64.2693C430.972 64.5804 431.322 64.7182 431.585 64.9759C431.825 65.2159 432.114 65.2826 432.442 65.4648C432.736 65.6248 432.898 66.0736 433.261 66.1803C433.58 66.2736 433.895 66.598 434.271 66.6513C434.635 66.7002 434.976 66.8735 435.339 66.9224C435.702 66.9713 436.083 66.8558 436.442 66.9046C436.801 66.9535 437.177 66.918 437.536 66.9669C437.894 67.0157 438.236 67.2379 438.599 67.2868C438.962 67.3357 439.395 66.8024 439.758 66.8513C440.122 66.9002 440.415 67.4779 440.774 67.5268C441.132 67.5757 441.566 67.0735 441.929 67.118C442.292 67.1624 442.62 67.469 442.979 67.5179C443.338 67.5668 443.701 67.6335 444.06 67.6779C444.397 67.7223 444.712 67.9668 445.053 68.0112C445.394 68.0556 445.784 67.6424 446.129 67.6868C446.475 67.7312 446.773 68.0468 447.114 68.0912C447.455 68.1356 447.779 68.2645 448.125 68.3045C448.47 68.3445 448.838 68.0468 449.184 68.0912C449.529 68.1356 449.857 68.1756 450.203 68.2201C450.549 68.2645 450.855 68.5356 451.201 68.58C451.161 69.0156 451.406 69.4244 451.376 69.7755C451.341 70.1932 451.179 70.5621 451.135 70.9309C451.091 71.3042 450.785 71.6464 450.728 72.0197C450.671 72.393 450.956 72.8196 450.903 73.1929C450.851 73.5662 450.378 73.8862 450.339 74.2595C450.299 74.6328 450.628 75.0372 450.619 75.4149C450.606 75.8727 450.124 76.3438 450.203 76.6904C450.304 77.1259 450.964 77.2548 451.214 77.5392C451.463 77.8236 451.533 78.4502 451.94 78.6058C452.273 78.7346 452.793 78.2947 453.235 78.3524C453.529 78.3924 453.804 78.9835 454.102 78.9746C454.557 78.9657 454.929 78.5746 455.257 78.4591C455.646 78.3213 456.25 78.348 456.508 78.0236C456.727 77.7481 456.819 77.237 456.981 76.8059C457.121 76.4282 456.745 75.9349 456.78 75.5438C456.81 75.1705 456.942 74.8106 456.972 74.4373C457.003 74.064 457.248 73.7129 457.278 73.3396C457.309 72.9663 457.112 72.5752 457.143 72.2019C457.173 71.8286 457.147 71.4553 457.182 71.082C457.217 70.7087 457.243 70.3399 457.274 69.9666C457.305 69.5933 457.803 69.26 457.834 68.8911C457.865 68.5223 457.432 68.109 457.458 67.7357C457.484 67.3624 457.812 67.0157 457.839 66.6424C457.865 66.2692 458.022 65.9092 458.049 65.5359C458.075 65.1626 457.869 64.776 457.895 64.4027C457.917 64.0694 458.241 63.6472 458.132 63.2917C458.035 62.9672 457.436 62.9672 457.353 62.6206C456.933 62.5539 456.718 62.3006 456.325 62.2295C455.913 62.154 455.48 62.274 455.086 62.2118C454.692 62.1495 454.338 61.4918 453.931 61.4607H453.944Z" fill="black"/>
<path d="M432.582 55.8701C433.042 55.9857 433.409 56.0834 433.834 55.9635C434.258 55.8435 434.657 55.6835 435.011 55.3813C435.278 55.1546 435.527 54.9147 435.785 54.6791C436.044 54.4436 436.157 54.0525 436.411 53.8125C436.665 53.5726 436.849 53.257 437.102 53.0171C437.356 52.7771 437.667 52.5949 437.921 52.3549C438.161 52.1283 438.577 52.0927 438.879 51.8083C439.102 51.5994 439.435 51.0173 439.75 50.724C439.855 51.0795 440.209 51.6928 440.305 52.0216C440.41 52.3771 440.52 52.7104 440.62 53.0393C440.725 53.3904 440.445 53.8481 440.542 54.177C440.647 54.5236 441.032 54.7769 441.128 55.1102C441.224 55.4435 441.356 55.7857 441.447 56.1279C441.544 56.4701 441.325 56.9189 441.5 57.1856C441.684 57.47 442.231 57.3589 442.493 57.5633C442.756 57.7677 442.743 58.4166 443.066 58.5454C443.43 58.6876 443.898 58.2032 444.27 58.2166C444.642 58.2299 445.07 58.7321 445.438 58.6299C445.806 58.5277 445.954 57.9277 446.278 57.7277C446.602 57.5278 446.834 57.3278 447.092 57.0434C447.35 56.7589 447.77 56.6345 447.941 56.2923C448.112 55.9501 448.378 55.6079 448.435 55.2213C448.497 54.808 448.151 54.3992 448.12 54.0081C448.09 53.617 448.291 53.1682 448.177 52.7815C448.063 52.3949 447.665 52.1283 447.499 51.7594C447.333 51.3906 447.105 51.0884 446.899 50.7373C446.738 50.4573 446.738 50.0796 446.567 49.7996C446.396 49.5196 446.576 48.9952 446.392 48.7286C446.208 48.4619 445.924 48.2353 445.718 47.982C445.512 47.7287 445.219 47.5198 444.992 47.2932C444.725 47.0265 444.134 47.0665 443.92 46.7954C443.688 46.4977 443.403 46.1866 443.241 45.8755C443.066 45.5467 443.557 44.9689 443.469 44.6223C443.381 44.2757 443.202 44.0001 443.215 43.6313C443.228 43.2847 442.97 42.8803 443.075 42.5114C443.171 42.1825 443.662 42.0048 443.837 41.6537C443.99 41.3426 443.552 40.8138 443.631 40.4627C443.71 40.1116 444.34 39.8805 444.397 39.5383C444.467 39.1206 444.51 38.7029 444.524 38.3518C444.541 37.9207 444.309 37.5119 444.235 37.1741C444.143 36.7608 444.09 36.2809 443.858 36.0009C443.627 35.7209 443.281 35.3032 442.896 35.1432C442.581 35.0143 442.078 35.2454 441.657 35.1921C441.312 35.1521 440.927 34.8455 440.507 34.8499C440.078 34.8543 439.802 35.5476 439.452 35.6809C439.072 35.8231 438.848 35.9476 438.564 36.2409C438.301 36.512 438.135 36.7431 437.964 37.1475C437.846 37.423 437.619 37.6407 437.518 37.9296C437.418 38.2185 437.396 38.5029 437.326 38.7962C437.238 39.1695 436.822 39.4406 436.691 39.7917C436.56 40.1427 436.748 40.6449 436.586 40.9827C436.424 41.3204 435.96 41.507 435.781 41.8404C435.602 42.1737 435.484 42.5336 435.295 42.8625C435.103 43.2002 434.937 43.5557 434.731 43.8802C434.525 44.2046 434.018 44.3246 433.799 44.6401C433.58 44.9556 433.878 45.6622 433.646 45.9733C433.414 46.2844 433.143 46.5777 432.898 46.8754C432.652 47.1732 432.062 47.1732 431.808 47.462C431.554 47.7509 431.318 48.0575 431.051 48.3375C430.784 48.6175 430.74 49.1241 430.465 49.3907C430.18 49.6707 429.743 49.7907 429.476 50.0885C429.209 50.3862 428.714 50.5018 428.465 50.8128C428.132 51.235 427.975 51.8127 427.957 52.2171C427.94 52.6216 428.461 52.9149 428.793 53.3415C429.043 53.6615 428.924 54.3281 429.209 54.5991C429.493 54.8702 430.163 54.6791 430.491 54.9013C430.819 55.1235 431.156 55.2302 431.524 55.3902C431.891 55.5502 432.176 55.7635 432.569 55.8612L432.582 55.8701Z" fill="black"/>
<path d="M458.574 36.4409C458.079 36.4098 457.598 36.4231 457.103 36.4364C456.701 36.4453 456.425 36.5386 456.136 36.6053C455.756 36.6942 455.458 36.6097 455.218 36.8364C454.977 37.063 454.456 37.1519 454.316 37.5296C454.207 37.8141 454.185 38.2185 454.106 38.614C454.027 39.0051 454.321 39.4672 454.277 39.8716C454.233 40.2761 453.756 40.5827 453.664 40.9738C453.572 41.3648 453.69 41.6759 453.485 42.0403C452.894 42.0759 452.47 42.2359 451.984 42.2981C451.56 42.3559 451.218 42.4447 450.934 42.5558C450.557 42.7025 450.501 43.0269 450.304 43.338C450.137 43.6002 449.857 43.8046 449.774 44.2357C449.704 44.6001 449.232 44.9023 449.184 45.2711C449.135 45.64 449.227 46.0311 449.197 46.3999C449.166 46.7688 449.555 47.1732 449.525 47.542C449.494 47.9153 449.608 48.2442 449.63 48.5864C449.652 48.9641 449.31 49.3685 449.411 49.6929C449.525 50.044 449.621 50.4618 449.853 50.7373C450.072 50.995 450.396 51.2839 450.741 51.4572C451.026 51.6039 451.433 51.6528 451.822 51.7327C451.892 51.7461 451.643 51.8572 451.826 52.1372C451.8 52.4571 452.146 52.746 452.111 53.146C452.08 53.497 451.621 53.8703 451.63 54.2436C451.638 54.6125 451.756 54.9858 451.783 55.3546C451.809 55.7235 452.238 56.0568 452.273 56.4212C452.308 56.7856 452.26 57.1633 452.303 57.5278C452.356 57.9322 452.653 58.0477 452.903 58.2655C453.152 58.4832 453.292 59.0698 453.673 59.1143C454.071 59.1632 454.509 58.8343 454.907 58.8521C455.305 58.8699 455.699 58.8743 456.097 58.8387C456.495 58.8032 456.968 59.0965 457.357 58.9898C457.747 58.8832 458.193 58.6788 458.565 58.4921C458.797 58.1988 458.53 57.5589 458.665 57.2256C458.801 56.8923 458.902 56.599 458.976 56.239C459.051 55.879 459.217 55.5635 459.265 55.1991C459.317 54.8213 459.269 54.4258 459.322 54.0481C459.374 53.6703 459.948 53.3682 460 52.986C460.053 52.6038 459.523 52.1416 459.576 51.7639C459.628 51.3861 459.751 51.0173 459.803 50.6395C459.856 50.2618 460.499 49.9685 460.551 49.5907C460.604 49.213 459.969 48.733 460.026 48.3553C460.083 47.9775 460.775 47.6931 460.827 47.3154C460.88 46.9376 460.643 46.5155 460.691 46.1377C460.74 45.76 461.186 45.4356 461.238 45.0534C461.291 44.6712 460.971 44.2446 461.02 43.8668C461.072 43.4669 461.216 43.0758 461.256 42.6758C461.295 42.2759 461.304 41.867 461.326 41.4671C461.348 41.0671 460.897 40.6494 460.906 40.2494C460.915 39.8494 461.462 39.4495 461.457 39.0451C461.448 38.6095 461.09 38.2851 461.015 37.9696C460.915 37.5519 460.722 37.383 460.473 37.1386C460.223 36.8942 460.118 36.432 459.711 36.3209C459.401 36.2364 458.994 36.4764 458.574 36.4453V36.4409Z" fill="black"/>
<path d="M380.482 75.0328C380.473 75.4594 379.922 75.8771 379.97 76.2193C380.036 76.6459 380.683 76.8193 380.845 77.1214C381.029 77.4681 381.099 77.7614 381.423 77.9703C381.712 78.1569 381.909 78.7391 382.32 78.8324C382.652 78.9079 383.09 78.8057 383.506 78.8235C383.926 78.8413 384.28 78.5213 384.604 78.4591C385.007 78.3835 385.518 78.5791 385.798 78.3569C386.079 78.1347 385.969 77.5614 386.153 77.1837C386.302 76.8859 386.354 76.5526 386.464 76.1393C386.538 75.846 386.993 75.6416 387.046 75.3438C387.098 75.0461 387.032 74.7217 387.054 74.4195C387.076 74.0773 386.704 73.7084 386.726 73.3662C386.748 73.0241 386.752 72.6819 386.77 72.3397C386.787 71.9975 386.814 71.6597 386.831 71.3131C386.849 70.9665 387.308 70.6509 387.321 70.3088C387.334 69.9666 387.063 69.611 387.072 69.2689C387.085 68.9044 387.619 68.5578 387.627 68.1934C387.636 67.829 387.286 67.4601 387.291 67.0957C387.295 66.7313 387.522 66.3714 387.522 66.0069C387.522 65.6425 387.133 65.2781 387.129 64.9182C387.124 64.5582 387.282 64.1893 387.273 63.8294C387.264 63.3805 386.936 63.2028 386.7 62.9006C386.464 62.5984 386.332 62.5095 385.886 62.4295C385.562 62.3717 385.295 61.9629 384.971 61.9184C384.648 61.874 384.306 61.9629 383.978 61.9362C383.65 61.9095 383.331 61.6118 383.002 61.6029C382.626 61.5985 382.254 61.4074 381.878 61.3985C381.502 61.3896 381.108 61.9762 380.732 61.9673C380.355 61.9584 379.988 61.5407 379.611 61.5274C379.235 61.514 378.854 61.6296 378.478 61.6118C378.102 61.594 377.721 61.6429 377.345 61.6207C376.969 61.5985 376.61 61.2829 376.233 61.2607C375.857 61.2385 375.468 61.4385 375.091 61.4118C374.715 61.3852 374.334 61.4118 373.958 61.3763C373.582 61.3407 373.21 61.2963 372.834 61.2652C372.457 61.2341 372.046 61.5407 371.674 61.5007C371.302 61.4607 370.961 61.0696 370.584 61.0252C370.208 60.9808 369.849 60.8208 369.477 60.7719C369.106 60.723 368.738 60.643 368.362 60.5897C367.985 60.5363 367.635 60.3764 367.263 60.3141C366.891 60.2519 366.498 60.3319 366.13 60.2653C365.763 60.1986 365.373 60.2564 365.001 60.2164C364.629 60.1764 364.27 59.8831 363.899 59.8653C363.527 59.8475 363.142 60.0475 362.77 60.0475C362.398 60.0475 362.021 60.0386 361.649 60.0431C361.286 60.0431 360.857 59.9808 360.577 60.1231C360.276 60.2741 360.044 60.6563 359.851 60.9408C359.672 61.2074 359.335 61.5229 359.265 61.874C359.199 62.2073 359.125 62.5895 359.116 62.9228C359.107 63.2561 359.545 63.5849 359.61 63.9182C359.676 64.2515 359.352 64.7226 359.497 65.0426C359.676 65.4381 360.367 65.4914 360.608 65.7759C360.875 66.0914 361.076 66.398 361.409 66.598C361.741 66.798 362.052 67.0868 362.446 67.1891C362.813 67.2868 363.212 67.4068 363.627 67.4379C363.982 67.4646 364.332 67.5401 364.686 67.5712C365.041 67.6023 365.434 67.1002 365.789 67.1268C366.143 67.1535 366.471 67.5268 366.826 67.5535C367.18 67.5801 367.552 67.349 367.907 67.3757C368.261 67.4024 368.602 67.6023 368.957 67.629C369.311 67.6557 369.687 67.4113 370.042 67.4424C370.396 67.4735 370.711 68.0068 371.066 68.0379C371.416 68.0645 371.77 68.029 372.125 68.0556C372.479 68.0823 372.812 68.2734 373.166 68.3001C373.521 68.3267 373.871 68.3312 374.221 68.3578C374.571 68.3845 374.921 68.4289 375.275 68.4556C375.63 68.4823 376.015 68.0245 376.369 68.0512C376.723 68.0779 377.021 68.7533 377.375 68.78C377.73 68.8067 378.093 68.5889 378.452 68.6156C378.811 68.6422 379.161 68.58 379.515 68.6067C379.87 68.6334 380.504 68.3934 380.863 68.42C380.863 68.8378 380.43 69.42 380.43 69.731C380.43 70.131 380.263 70.4421 380.237 70.7709C380.211 71.122 380.482 71.4998 380.443 71.8508C380.403 72.2019 380.224 72.5397 380.189 72.8907C380.154 73.2418 380.189 73.6062 380.163 73.9573C380.136 74.3084 380.504 74.6728 380.495 75.0283L380.482 75.0328Z" fill="black"/>
<path d="M358.158 55.1857C358.538 55.5057 358.67 56.1901 359.09 56.4567C359.44 56.6834 360.07 56.3412 360.416 56.4967C360.792 56.67 361.024 57.2078 361.404 57.2567C361.785 57.3055 362.087 56.8123 362.49 56.6878C362.831 56.5812 363.172 56.5989 363.535 56.3367C363.829 56.1279 364.494 56.2834 364.804 55.959C365.049 55.7012 364.979 55.128 365.233 54.8702C365.487 54.6125 366.034 54.6613 366.288 54.3991C366.541 54.137 366.288 53.3992 366.546 53.137C366.804 52.8749 367.163 52.7504 367.417 52.4838C367.662 52.2349 368.06 52.0127 368.318 51.7461C368.445 52.0616 368.366 52.5238 368.475 52.7904C368.602 53.1015 368.996 53.2704 369.106 53.5415C369.224 53.8436 368.987 54.2569 369.092 54.5458C369.228 54.9235 369.591 55.2169 369.718 55.599C369.845 55.9812 370.252 56.2923 370.348 56.6834C370.436 57.0478 370.576 57.2389 370.773 57.5144C370.978 57.8033 371.166 57.9321 371.46 58.1232C371.753 58.3143 371.788 59.0832 372.125 59.1809C372.462 59.2787 372.895 58.8032 373.245 58.8032C373.595 58.8032 374.041 59.3231 374.374 59.2342C374.706 59.1454 374.978 58.6921 375.266 58.5054C375.621 58.2788 375.822 57.901 376.08 57.6211C376.36 57.3189 376.658 57.0522 376.824 56.6967C376.99 56.3412 377.056 55.9412 377.109 55.5368C377.157 55.1546 377.424 54.7236 377.362 54.3058C377.305 53.9281 377.314 53.4481 377.165 53.0482C377.039 52.706 376.859 52.3505 376.706 52.026C376.553 51.7016 376.295 51.395 376.111 51.0839C375.927 50.7728 375.393 50.6884 375.188 50.3906C374.982 50.0929 374.741 49.8351 374.514 49.5552C374.286 49.2752 374.453 48.653 374.212 48.3819C373.971 48.1064 373.315 48.2086 373.074 47.9331C372.834 47.6576 372.624 47.3509 372.387 47.0754C372.151 46.7999 372.313 46.1644 372.077 45.8888C371.84 45.6133 371.061 45.6355 370.825 45.3644C370.9 45.0089 371.197 44.5779 371.271 44.2401C371.346 43.9024 371.696 43.6046 371.775 43.2624C371.853 42.9202 371.411 42.4492 371.486 42.1025C371.56 41.7559 371.56 41.4004 371.626 41.0537C371.692 40.7071 371.797 40.3783 371.849 40.0272C371.915 39.5917 372.514 39.1739 372.479 38.7206C372.444 38.2673 371.762 37.9207 371.67 37.4941C371.582 37.0719 371.302 36.8719 370.908 36.6319C370.558 36.4186 370.405 35.8365 370.033 35.7431C369.661 35.6498 369.215 35.6943 368.83 35.7254C368.445 35.7565 368.099 36.0187 367.736 36.1653C367.373 36.312 367.137 36.5875 366.835 36.8408C366.533 37.0941 366.196 37.2497 365.986 37.6007C365.776 37.9518 365.474 38.2318 365.382 38.6406C365.299 39.0051 365.531 39.4495 365.434 39.805C365.338 40.1605 365.176 40.5116 365.058 40.8582C364.94 41.2048 364.52 41.4493 364.384 41.787C364.249 42.1248 364.494 42.6492 364.34 42.9825C364.187 43.3158 363.824 43.5602 363.658 43.889C363.492 44.2179 362.905 44.3023 362.722 44.6223C362.538 44.9423 362.398 45.2711 362.201 45.5822C362.004 45.8933 362.122 46.4088 361.912 46.7154C361.702 47.0221 361.286 47.1643 361.068 47.462C360.849 47.7598 360.774 48.1642 360.547 48.453C360.319 48.7419 360.346 49.2485 360.109 49.5329C359.873 49.8174 359.295 49.7996 359.055 50.0751C358.792 50.3773 358.678 50.8173 358.412 51.115C358.145 51.4128 358.105 51.8749 357.869 52.1994C357.655 52.4927 357.011 52.4793 356.911 52.7593C356.793 53.0926 356.771 53.5015 356.814 53.817C356.858 54.1325 357.16 54.3903 357.357 54.6836C357.523 54.928 357.895 54.9724 358.171 55.2035L358.158 55.1857Z" fill="black"/>
<path d="M377.826 47.582C377.787 47.9864 377.957 48.3419 377.984 48.6975C378.019 49.1019 377.813 49.5152 377.944 49.8529C378.084 50.2129 378.29 50.5595 378.552 50.835C378.798 51.0928 379.266 51.0128 379.633 51.1906C379.944 51.3417 380.154 51.8305 380.557 51.9194C380.627 51.9327 381.02 51.8705 381.156 52.0705C381.156 52.4038 380.648 52.826 380.64 53.1726C380.631 53.5192 380.43 53.8481 380.425 54.1903C380.421 54.5325 381.09 54.8613 381.099 55.2035C381.108 55.5457 381.055 55.8701 381.09 56.2079C381.138 56.6789 381.331 56.9989 381.414 57.3278C381.537 57.8077 381.187 58.4565 381.449 58.6787C381.712 58.9009 382.224 59.1631 382.705 59.2031C383.037 59.2342 383.462 58.9009 383.926 58.8743C384.223 58.8565 384.521 58.861 384.818 58.8432C385.116 58.8254 385.466 59.1276 385.759 59.0832C386.219 59.012 386.389 58.2121 386.7 58.061C387.081 57.8744 387.369 57.8566 387.562 57.4877C387.724 57.1811 387.61 56.8345 387.667 56.359C387.711 55.999 387.868 55.6568 387.912 55.2968C387.956 54.9369 388.559 54.6436 388.599 54.2836C388.638 53.9236 387.995 53.4837 388.034 53.1237C388.074 52.7638 388.595 52.4616 388.634 52.1016C388.673 51.7416 388.77 51.3861 388.809 51.0261C388.848 50.6662 388.958 50.3151 388.993 49.9551C389.028 49.5952 389.194 49.2485 389.233 48.8886C389.273 48.5286 389.093 48.1464 389.128 47.7864C389.163 47.4265 389.12 47.0576 389.15 46.6977C389.181 46.3377 388.984 45.9555 389.015 45.5911C389.05 45.2267 389.08 44.8578 389.111 44.4934C389.141 44.129 389.133 43.7602 389.163 43.3913C389.194 43.0224 389.378 42.6714 389.408 42.307C389.439 41.9426 389.255 41.5604 389.281 41.1915C389.308 40.8227 389.719 40.4849 389.745 40.1205C389.772 39.7561 389.548 39.3695 389.579 39.0006C389.61 38.6318 389.5 38.2585 389.531 37.8896C389.562 37.5207 389.807 37.1919 389.837 36.823C389.518 36.6719 389.268 36.4053 388.962 36.312C388.63 36.2142 388.262 36.272 387.938 36.2231C387.597 36.1698 387.26 36.2275 386.927 36.2142C386.595 36.2009 386.258 36.4408 385.925 36.4453C385.593 36.4497 385.252 36.4009 384.915 36.4053C384.543 36.4053 384.215 36.1431 383.939 36.2098C383.584 36.2942 383.186 36.3253 382.963 36.5386C382.74 36.7519 383.02 37.2763 382.893 37.623C382.792 37.894 382.075 38.0407 382.014 38.4096C381.952 38.7917 382.232 39.2273 382.184 39.6094C382.136 39.9916 382.342 40.4094 382.302 40.7827C382.259 41.1782 381.72 41.3959 381.677 41.7603C381.436 41.9248 381.65 42.3114 381.559 42.3336C381.152 42.4358 380.828 42.6492 380.508 42.7336C380.084 42.8491 379.677 42.7203 379.388 42.8402C378.973 43.0091 378.574 43.0758 378.356 43.3291C378.137 43.5824 378.076 43.9824 377.984 44.4268C377.918 44.7378 378.163 45.1334 378.124 45.5778C378.093 45.9111 377.774 46.2621 377.747 46.6888C377.73 46.991 377.839 47.302 377.809 47.5998L377.826 47.582Z" fill="black"/>
<path d="M508.001 70.9576C508.001 70.5665 507.41 70.1932 507.375 69.8066C507.34 69.42 507.861 68.9578 507.808 68.5712C507.756 68.1845 507.62 67.7979 507.55 67.4157C507.48 67.0335 507.292 66.6691 507.217 66.2825C507.143 65.8959 506.924 65.5448 506.854 65.1582C506.784 64.7715 506.71 64.3893 506.657 64.0027C506.605 63.6161 506.193 63.2561 506.163 62.865C506.132 62.474 506.43 62.0607 506.434 61.6652C506.438 61.2741 506.618 60.8252 506.469 60.5364C506.307 60.2164 505.695 60.3542 505.388 60.1675C505.108 59.9986 504.907 59.9009 504.535 59.8564C504.211 59.8164 503.844 59.1854 503.476 59.2476C503.104 59.3098 502.794 59.7853 502.422 59.8475C502.05 59.9098 501.643 59.7631 501.267 59.8209C500.89 59.8787 500.501 59.8387 500.129 59.8964C499.757 59.9542 499.389 60.0609 499.013 60.1231C498.637 60.1853 498.269 60.2742 497.897 60.3364C497.525 60.3986 497.197 60.7408 496.821 60.803C496.445 60.8652 496.029 60.6564 495.657 60.723C495.285 60.7897 494.953 61.1008 494.581 61.1674C494.209 61.2341 493.815 61.1896 493.443 61.2563C493.071 61.323 492.738 61.6207 492.367 61.6874C491.995 61.754 491.553 61.4518 491.181 61.5229C490.804 61.594 490.432 61.7185 490.056 61.7985C489.68 61.8785 489.4 62.4162 489.024 62.5006C488.647 62.5851 488.175 62.2029 487.798 62.2873C487.422 62.3718 487.103 62.7095 486.731 62.7984C486.359 62.8873 485.943 62.7984 485.567 62.8917C485.191 62.985 484.801 62.9939 484.425 63.0828C484.048 63.1717 483.782 63.7005 483.41 63.7938C483.038 63.8872 482.539 63.4561 482.163 63.5494C481.699 63.665 481.327 63.9049 481.051 64.0871C480.719 64.3138 480.307 64.6204 480.163 65.0426C480.058 65.3581 480.43 65.8381 480.386 66.3136C480.417 66.6336 480.421 67.2024 480.535 67.7935C480.605 68.1401 480.561 68.509 480.631 68.8556C480.701 69.2022 480.583 69.5844 480.653 69.931C480.723 70.2777 480.675 70.6465 480.745 70.9932C480.815 71.3398 481.252 71.6064 481.327 71.9486C481.401 72.2908 481.371 72.6597 481.445 73.0063C481.519 73.3529 481.961 73.6062 482.04 73.9484C482.123 74.3084 482.088 74.6773 482.202 75.0328C482.316 75.3883 482.329 75.7616 482.447 76.1127C482.565 76.4638 482.692 76.8104 482.81 77.1615C482.972 77.6414 483.3 77.7881 483.642 78.0369C483.983 78.2858 484.25 79.0013 484.74 78.9835C485.068 78.9702 485.366 78.3969 485.698 78.3658C486.031 78.3347 486.354 78.3969 486.678 78.3391C487.002 78.2814 487.343 78.3125 487.658 78.2147C488.008 78.1036 488.297 77.7792 488.652 77.6814C489.006 77.5836 489.496 78.0103 489.851 77.9214C490.205 77.8325 490.516 77.5792 490.874 77.4948C491.233 77.4103 491.64 77.5881 491.995 77.5125C492.349 77.437 492.668 77.1748 493.027 77.1081C493.386 77.0415 493.758 77.0548 494.117 76.9926C494.476 76.9304 494.852 76.9793 495.215 76.9215C495.578 76.8637 495.92 76.7037 496.283 76.6504C496.646 76.5971 497 76.5304 497.363 76.4771C497.727 76.4238 498.055 76.1527 498.418 76.1038C498.781 76.0549 499.131 75.926 499.494 75.8727C499.858 75.8194 500.208 75.686 500.571 75.6327C500.934 75.5794 501.323 75.7305 501.687 75.6772C502.05 75.6238 502.382 75.3616 502.741 75.3083C503.1 75.255 503.537 75.6594 503.896 75.5972C504.255 75.535 504.557 75.1039 504.92 75.0417C505.314 74.9706 505.646 74.8683 505.948 74.7928C506.355 74.6861 506.587 74.4328 506.845 74.2817C507.178 74.0862 507.817 74.1484 507.952 73.8062C508.062 73.5263 507.952 73.0596 507.952 72.6286C507.952 72.3175 507.786 71.9575 507.747 71.5487C507.729 71.3487 507.996 71.1531 507.996 70.9532L508.001 70.9576ZM499.871 68.9978C499.516 69.0689 499.276 69.7177 498.921 69.7888C498.567 69.8599 498.099 69.3666 497.744 69.4378C497.39 69.5089 497.048 69.6511 496.694 69.7222C496.34 69.7933 496.007 69.9844 495.653 70.0555C495.298 70.1266 494.974 70.3488 494.616 70.4199C494.257 70.491 493.907 70.5799 493.552 70.651C493.198 70.7221 492.913 71.162 492.559 71.2331C492.205 71.3042 491.789 71.0687 491.435 71.1398C491.08 71.2109 490.669 71.0021 490.314 71.0732C489.96 71.1443 489.711 71.7709 489.352 71.842C488.993 71.9131 488.424 71.922 488.065 71.9931C487.987 71.6642 488.389 71.002 488.315 70.691C488.236 70.3621 487.759 70.1399 487.689 69.8288C487.615 69.5 487.733 69.2156 487.658 68.9045C487.93 68.7623 488.227 68.7889 488.595 68.6467C488.901 68.5312 489.212 68.3801 489.57 68.2645C489.894 68.1623 490.218 68.0379 490.573 67.9401C490.905 67.8512 491.176 67.4868 491.531 67.4024C491.885 67.318 492.275 67.5135 492.625 67.4379C492.975 67.3624 493.268 67.0469 493.614 66.9802C493.959 66.9135 494.331 66.9624 494.677 66.9047C495.023 66.8469 495.351 66.5625 495.696 66.5136C496.042 66.4647 496.453 66.798 496.795 66.758C497.158 66.718 497.503 66.6336 497.84 66.6114C498.212 66.5847 498.549 66.0914 498.882 66.0825C499.267 66.0736 499.543 66.5136 499.862 66.5314C499.954 66.958 500.251 67.2335 500.33 67.5935C500.422 68.0246 500.33 68.429 500.405 68.78C500.151 69.0733 500.015 68.9756 499.866 69.0067L499.871 68.9978Z" fill="black"/>
<path d="M492.773 49.1019C492.703 48.7197 492.699 48.2353 492.511 48.0087C492.296 47.7465 491.828 47.4532 491.483 47.3954C491.189 47.3465 490.831 47.7909 490.467 47.8842C490.087 47.9864 489.619 47.7598 489.238 47.8665C488.884 47.9642 488.678 48.6131 488.319 48.7108C487.96 48.8086 487.58 48.7997 487.225 48.8975C486.871 48.9952 486.477 48.9375 486.118 49.0352C485.759 49.133 485.396 49.173 485.037 49.2708C484.679 49.3685 484.315 49.4174 483.957 49.5152C483.598 49.613 483.112 50.1862 482.753 50.284C482.679 49.9329 482.762 49.2752 482.688 48.9286C482.613 48.5819 482.285 48.2842 482.211 47.942C482.136 47.5998 482.224 47.2087 482.149 46.8621C482.075 46.5155 481.738 46.2222 481.664 45.8755C481.589 45.5289 482.005 45.0712 481.931 44.7245C481.856 44.3779 481.716 44.0446 481.642 43.698C481.567 43.3647 481.651 42.9958 481.576 42.6625C481.502 42.3292 481.406 42.0003 481.331 41.667C481.257 41.3337 481.196 40.996 481.117 40.6627C481.038 40.3294 480.491 40.1116 480.412 39.7828C480.334 39.4539 480.863 38.9562 480.78 38.6273C480.679 38.2496 480.277 37.9652 480.093 37.7474C479.865 37.4808 479.489 37.3875 479.139 37.3697C478.855 37.3563 478.675 37.8007 478.316 37.9518C477.979 38.0941 477.446 37.7607 477.113 37.9163C476.781 38.0718 476.378 38.0852 476.054 38.2496C475.73 38.414 475.542 38.8629 475.218 39.0317C474.882 39.2095 474.523 39.2406 474.295 39.3873C473.963 39.605 473.753 39.9028 473.613 40.1472C473.473 40.3916 473.661 40.7294 473.678 41.1293C473.691 41.4004 473.801 41.6848 473.871 42.067C473.932 42.4181 474.059 42.7603 474.12 43.1114C474.181 43.4624 474.037 43.8535 474.098 44.2046C474.16 44.5557 473.814 44.9823 473.875 45.3334C473.936 45.6844 474.076 46.0266 474.142 46.3777C474.208 46.7288 474.606 47.0176 474.676 47.3687C474.746 47.7198 474.383 48.1598 474.453 48.5108C474.523 48.8619 474.768 49.1774 474.842 49.5285C474.917 49.8796 475.157 50.1907 475.236 50.5418C475.315 50.8928 475.415 51.235 475.499 51.5817C475.586 51.9372 475.905 52.2349 475.997 52.5949C476.089 52.9549 475.989 53.3593 476.089 53.7148C476.19 54.0703 475.897 54.5547 476.01 54.9058C476.124 55.2569 476.374 55.5724 476.501 55.919C476.627 56.2657 477.152 56.4523 477.297 56.7901C477.441 57.1278 477.695 57.4033 477.853 57.7322C478.01 58.0611 477.848 58.6032 478.028 58.9232C478.347 58.9365 478.771 59.0476 479.17 59.0121C479.502 58.981 479.878 58.9543 480.255 58.8876C480.592 58.8299 480.937 58.6699 481.305 58.5899C481.646 58.5143 482.053 58.6343 482.412 58.541C482.753 58.4521 482.998 57.9588 483.353 57.8566C483.707 57.7544 484.171 58.0744 484.517 57.9633C484.862 57.8522 485.177 57.6433 485.523 57.5278C485.869 57.4122 486.074 56.9056 486.411 56.7812C486.748 56.6567 487.12 56.6167 487.453 56.479C487.785 56.3412 488.039 55.999 488.367 55.8568C488.695 55.7146 489.242 56.039 489.566 55.8879C489.89 55.7368 490.074 55.2391 490.389 55.0791C490.721 54.9102 491.045 54.7458 491.347 54.5725C491.68 54.3858 492.178 54.5058 492.463 54.3192C492.791 54.1059 493.172 53.7548 493.43 53.5459C493.386 53.1904 492.804 52.7682 492.769 52.3994C492.734 52.0305 492.708 51.6794 492.668 51.315C492.629 50.9506 492.703 50.5818 492.651 50.2218C492.598 49.8618 492.83 49.4574 492.765 49.0975L492.773 49.1019Z" fill="black"/>
<path d="M503.275 39.6717C503.174 39.3562 502.885 39.3739 502.794 39.094C502.693 38.7873 502.846 38.4274 502.772 38.134C502.671 37.7474 502.395 37.4008 502.304 37.0142C502.212 36.6275 501.792 36.3164 501.695 35.9254C501.599 35.5343 501.94 35.0366 501.84 34.6499C501.739 34.2633 501.428 33.9344 501.319 33.5478C501.175 33.0456 500.816 32.9612 500.479 32.7301C500.142 32.499 499.858 31.8991 499.363 32.0146C499.039 32.0902 498.72 32.1879 498.396 32.2724C498.072 32.3568 497.801 32.6279 497.482 32.7257C497.162 32.8234 496.965 33.2056 496.659 33.3389C496.353 33.4723 495.797 33.0945 495.513 33.2678C495.228 33.4412 495.373 33.9967 495.114 34.2189C495.088 34.6144 494.9 34.7655 494.939 35.0543C494.983 35.4099 494.567 35.832 494.616 36.192C494.664 36.552 494.865 36.8853 494.917 37.2408C494.97 37.5963 495.32 37.9074 495.377 38.2629C495.434 38.6184 495.114 39.0406 495.171 39.3917C495.228 39.7428 495.731 40.0228 495.793 40.3783C495.854 40.7338 495.972 41.076 496.042 41.4271C496.112 41.7781 495.784 42.2137 495.854 42.5647C495.924 42.9158 496.099 43.2491 496.169 43.6046C496.239 43.9602 496.703 44.2268 496.777 44.5779C496.852 44.929 496.943 45.2756 497.022 45.6267C497.101 45.9777 497.171 46.3288 497.25 46.6799C497.328 47.031 496.978 47.4843 497.057 47.8354C497.136 48.1864 497.499 48.4708 497.582 48.8175C497.665 49.1641 497.237 49.6441 497.32 49.9951C497.403 50.3462 497.836 50.6084 497.919 50.9595C498.002 51.3106 497.875 51.715 497.963 52.0616C498.05 52.4083 498.519 52.6616 498.606 53.0126C498.707 53.417 498.646 53.817 498.729 54.137C498.842 54.568 499.206 54.7947 499.324 55.0747C499.503 55.488 499.525 55.5724 499.853 55.6968C500.124 55.799 500.361 56.1501 500.833 56.0835C501.135 56.039 501.463 55.839 501.883 55.7324C502.203 55.6524 502.627 55.8257 503.021 55.7146C503.336 55.6257 503.778 55.6257 504.041 55.4569C504.303 55.288 504.172 54.6169 504.36 54.3547C504.548 54.0925 505.025 53.9725 505.095 53.6392C505.156 53.3459 505.038 52.9815 504.986 52.6305C504.925 52.2305 504.815 51.8394 504.776 51.4395C504.736 51.0395 504.995 50.6173 504.964 50.2129C504.933 49.8085 504.688 49.4308 504.662 49.0219C504.636 48.6131 504.557 48.2264 504.522 47.822C504.89 47.7154 505.244 47.6265 505.598 47.5198C505.953 47.4132 506.207 46.9777 506.574 46.871C506.911 46.7732 507.37 46.9999 507.751 46.8843C507.826 46.511 507.996 46.1377 508.027 45.7733C508.057 45.4089 508.097 45.009 508.088 44.6401C508.079 44.2712 508.149 43.8624 508.101 43.4935C508.053 43.1247 507.847 42.7647 507.764 42.4003C507.681 42.0359 507.484 41.6982 507.375 41.3426C507.265 40.9871 507.397 40.5427 507.27 40.1916C507.16 39.8805 506.714 39.7028 506.447 39.5739C506.18 39.445 505.843 39.4006 505.533 39.4406C505.139 39.4895 504.706 39.405 504.299 39.485C503.923 39.565 503.704 39.6006 503.284 39.6806L503.275 39.6717Z" fill="black"/>
<path d="M546.305 36.5431C545.963 36.6231 545.731 37.1475 545.443 37.2275C545.114 37.3119 544.707 36.8586 544.397 36.8942C544.034 36.9342 543.684 37.1297 543.412 37.2764C543.11 37.4363 542.69 37.6097 542.502 37.8852C542.323 38.1474 542.594 38.6584 542.515 39.0095C542.432 39.365 542.353 39.7161 542.288 40.0761C542.222 40.4361 542.056 40.7782 542.012 41.1427C541.968 41.5071 541.75 41.8626 541.736 42.227C541.723 42.5959 541.592 42.9647 541.579 43.3336C541.566 43.7024 541.929 44.0846 541.92 44.4535C541.911 44.8223 541.793 45.1912 541.789 45.56C541.785 45.9289 542.143 46.3066 542.139 46.6755C542.135 47.0443 541.99 47.4132 541.981 47.782C541.973 48.1509 541.859 48.5197 541.855 48.8886C541.85 49.2574 541.837 49.6307 541.828 49.9996C541.82 50.3685 542.003 50.7462 541.99 51.115C541.977 51.4839 541.325 51.835 541.312 52.2038C541.295 52.706 541.767 53.1815 541.64 53.4082C541.478 53.7015 540.971 53.8037 540.459 53.737C540.179 53.7015 539.833 53.5015 539.404 53.3815C539.382 53.1015 539.115 52.8171 539.089 52.5194C539.063 52.2216 539.579 51.9372 539.597 51.6483C539.623 51.2795 539.483 50.9017 539.514 50.5329C539.544 50.164 539.833 49.8218 539.864 49.453C539.894 49.0841 539.741 48.7019 539.772 48.3331C539.802 47.9642 539.921 47.6043 539.951 47.2354C539.982 46.8666 540.122 46.5022 540.148 46.1377C540.174 45.7733 540.096 45.3867 540.117 45.0178C540.139 44.6179 540.148 44.2135 540.166 43.8091C540.183 43.4047 539.986 42.9914 539.999 42.5914C540.012 42.1914 539.947 41.7826 539.947 41.3826C539.947 40.9827 539.859 40.5783 539.851 40.1783C539.842 39.7783 540.021 39.3606 539.991 38.9606C539.96 38.5518 539.697 38.254 539.606 37.9741C539.474 37.5919 539.584 36.9875 539.312 36.8008C539.041 36.6142 538.538 36.8497 538.135 36.832C537.833 36.8142 537.501 36.872 537.111 36.9297C536.818 36.9742 536.538 37.1653 536.241 37.2008C535.943 37.2364 535.554 36.7297 535.265 36.792C534.919 36.8675 534.6 37.1875 534.333 37.3564C534.044 37.5341 533.882 37.8941 533.698 38.1785C533.528 38.4407 533.453 38.7651 533.379 39.1206C533.318 39.4139 533.44 39.7295 533.405 40.0272C533.37 40.325 533.06 40.596 533.042 40.8938C533.02 41.2804 532.998 41.6715 532.985 42.0626C532.972 42.4536 533.305 42.8492 533.292 43.2402C533.278 43.6313 532.876 44.0091 532.867 44.3957C532.858 44.7823 533.305 45.1912 533.292 45.5778C533.278 45.9644 532.74 46.3288 532.714 46.7155C532.688 47.1021 532.465 47.4665 532.425 47.8531C532.386 48.2398 533.003 48.7064 532.946 49.093C532.893 49.4574 532.775 49.8041 532.731 50.1685C532.688 50.5329 532.797 50.9062 532.762 51.2706C532.727 51.635 532.062 51.9505 532.036 52.3149C532.009 52.6793 531.918 53.0482 531.9 53.4171C531.883 53.7859 532.184 54.1681 532.176 54.5369C532.167 54.9058 532.141 55.2702 532.132 55.6391C532.123 56.0079 531.795 56.3679 531.791 56.7367C531.786 57.1056 532.504 57.4833 532.5 57.8477C532.495 58.2122 532.303 58.581 532.298 58.9454C532.294 59.3098 532.491 59.6831 532.486 60.052C532.482 60.4208 532.36 60.7852 532.351 61.1541C532.342 61.523 531.769 61.874 531.756 62.2384C531.743 62.6029 532.425 62.9984 532.408 63.3672C532.39 63.7361 531.891 64.0783 531.869 64.4427C531.848 64.7938 531.773 65.1493 531.764 65.5004C531.756 65.8514 531.677 66.2114 531.677 66.5625C531.677 66.9136 531.55 67.278 531.559 67.629C531.568 67.9801 531.791 68.3312 531.804 68.6867C531.817 69.0422 531.913 69.3889 531.931 69.7444C531.948 70.0999 532.206 70.4377 532.224 70.7887C532.241 71.1398 532.268 71.4953 532.285 71.8464C532.303 72.1975 532.364 72.5486 532.386 72.9041C532.408 73.2596 532.268 73.6196 532.281 73.9707C532.294 74.3217 532.521 74.6684 532.535 75.0195C532.548 75.4194 532.189 75.8727 532.281 76.2593C532.368 76.6371 532.723 76.8726 532.885 77.1481C533.073 77.4637 533.34 77.5614 533.633 77.7436C533.908 77.917 534.105 78.2192 534.477 78.2858C534.788 78.3391 535.134 78.5302 535.519 78.5125C535.869 78.4947 536.184 78.308 536.468 78.2147C536.796 78.1081 537.024 77.8903 537.256 77.6814C537.488 77.4726 537.44 77.1437 537.571 76.8237C537.685 76.5482 537.79 76.3304 537.82 75.9705C537.851 75.6016 538.175 75.2594 538.214 74.8906C538.253 74.5217 538.45 74.1751 538.499 73.8107C538.547 73.4463 538.074 73.0063 538.122 72.6419C538.17 72.2775 538.888 72.002 538.94 71.6376C538.993 71.2731 538.713 70.8554 538.765 70.491C538.818 70.1266 538.617 69.7266 538.665 69.3578C538.713 68.9889 539.29 68.6912 539.334 68.3223C539.378 67.9535 538.971 67.5357 539.006 67.1713C539.041 66.8069 538.945 66.4292 538.967 66.0603C538.989 65.6915 539.247 65.3404 539.26 64.9715C539.273 64.6027 539.439 64.2338 539.439 63.865C539.439 63.4961 539.325 63.1272 539.304 62.7584C539.277 62.2873 539.199 61.6296 539.277 61.0874C539.623 61.0874 540.161 61.2785 540.472 61.2785C540.783 61.2785 541.281 61.0874 541.631 61.0874C541.631 61.4652 541.168 62.0162 541.168 62.3807C541.168 62.7451 541.776 63.1228 541.776 63.4917C541.776 63.8605 541.338 64.2338 541.338 64.6027C541.338 64.9715 541.815 65.3448 541.815 65.7137C541.815 66.0825 541.649 66.4558 541.649 66.8247C541.649 67.2157 541.093 67.6024 541.093 67.9935C541.093 68.3845 541.531 68.7756 541.531 69.1667C541.531 69.5578 541.098 69.9444 541.098 70.3355C541.098 70.7265 541.785 71.1176 541.785 71.5087C541.785 71.8997 541.61 72.2864 541.61 72.6775C541.61 73.0685 541.518 73.4552 541.518 73.8462C541.518 74.2373 541.225 74.6284 541.225 75.015C541.225 75.4016 541.531 75.7927 541.531 76.1838C541.531 76.5482 541.242 76.9793 541.356 77.2681C541.483 77.5837 541.898 77.7703 542.161 77.9925C542.397 78.1925 542.787 78.0681 543.132 78.1836C543.495 78.308 543.771 78.3125 544.108 78.3258C544.484 78.3436 544.712 78.2769 545.036 78.1658C545.377 78.0503 546.025 78.4591 546.287 78.2103C546.55 77.9614 546.348 77.3526 546.51 77.0059C546.65 76.6993 547.302 76.4904 547.355 76.1038C547.403 75.7794 547.132 75.4061 547.162 75.0772C547.193 74.7484 547.057 74.4106 547.083 74.0818C547.11 73.7529 547.228 73.4374 547.258 73.1085C547.289 72.7797 547.272 72.4508 547.311 72.1264C547.359 71.762 547.679 71.4331 547.722 71.0687C547.766 70.7043 547.937 70.3532 547.976 69.9888C548.015 69.6244 548.033 69.2556 548.072 68.8911C548.112 68.5267 548.072 68.1534 548.107 67.789C548.142 67.4246 547.779 67.0247 547.81 66.6558C547.84 66.2869 547.836 65.9225 547.862 65.5581C547.889 65.1937 548.431 64.8649 548.457 64.496C548.484 64.1272 547.945 63.7316 547.963 63.3628C547.98 62.9939 548.037 62.634 548.055 62.2696C548.072 61.9051 548.615 61.5541 548.624 61.1897C548.632 60.8252 548.011 60.4431 548.015 60.0742C548.02 59.6965 548.252 59.3232 548.252 58.9454C548.252 58.5677 548.532 58.1899 548.532 57.8122C548.532 57.4345 548.002 57.0567 548.002 56.679C548.002 56.3012 547.928 55.9235 547.928 55.5457C547.928 55.168 547.972 54.7903 547.967 54.4125C547.963 54.0348 548.562 53.6526 548.562 53.2748C548.562 52.8971 547.941 52.5194 547.941 52.1372C547.941 51.755 547.937 51.3772 547.941 50.9995C547.945 50.6218 548.436 50.2485 548.44 49.8707C548.444 49.493 548.379 49.1152 548.387 48.7331C548.396 48.3509 548.234 47.9687 548.252 47.5909C548.269 47.2132 548.173 46.8266 548.195 46.4488C548.217 46.0711 548.401 45.7022 548.427 45.3245C548.453 44.9467 548.663 44.5868 548.702 44.209C548.742 43.8313 548.449 43.418 548.492 43.0403C548.536 42.6625 548.637 42.2892 548.689 41.9159C548.759 41.4226 549.048 40.9293 549.009 40.4272C548.978 39.9961 548.497 39.6717 548.401 39.2895C548.296 38.8673 548.366 38.4585 548.16 38.1163C547.954 37.7741 547.976 37.0986 547.63 36.8542C547.32 36.632 546.751 36.6364 546.313 36.5209L546.305 36.5431Z" fill="black"/>
<path d="M527.03 53.8481C526.746 53.6437 526.68 53.0838 526.387 52.9015C526.094 52.7193 525.621 52.8082 525.31 52.6527C525 52.4971 524.637 52.4483 524.317 52.3238C523.998 52.1994 523.748 51.7728 523.416 51.6794C523.083 51.5861 522.646 51.9861 522.3 51.9416C521.954 51.8972 521.639 51.3417 521.289 51.3417C520.9 51.3417 520.532 51.7639 520.165 51.8083C519.78 51.8572 519.46 52.0927 519.101 52.1861C518.743 52.2794 518.274 52.0838 517.929 52.2305C517.583 52.3772 517.469 52.9682 517.146 53.1637C516.822 53.3593 516.507 53.4926 516.218 53.7415C515.929 53.9903 515.54 54.0925 515.286 54.3814C515.032 54.6703 514.866 54.9947 514.651 55.3191C514.437 55.6435 513.877 55.7546 513.706 56.1012C513.536 56.4479 513.868 57.0034 513.737 57.3678C513.606 57.7322 513.404 58.0433 513.312 58.421C513.229 58.781 512.866 59.0832 512.805 59.4476C512.744 59.812 512.625 60.172 512.577 60.5408C512.529 60.9097 512.827 61.3185 512.787 61.6829C512.748 62.0473 512.696 62.4118 512.656 62.7806C512.617 63.1495 512.63 63.5183 512.59 63.8872C512.551 64.256 512.284 64.5982 512.236 64.9626C512.236 65.3537 512.249 65.7492 512.267 66.1358C512.284 66.5225 512.17 66.9269 512.201 67.3135C512.232 67.7001 512.512 68.0646 512.56 68.4512C512.608 68.8378 512.717 69.2111 512.779 69.5933C512.84 69.9755 512.984 70.3399 513.063 70.7221C513.142 71.1043 512.779 71.5842 512.866 71.962C512.949 72.3219 513.387 72.5841 513.505 72.9174C513.623 73.2507 513.934 73.4996 514.1 73.8151C514.266 74.1306 514.253 74.5439 514.463 74.8417C514.673 75.1394 514.708 75.5883 514.958 75.8549C515.207 76.1216 515.837 75.9349 516.122 76.1705C516.397 76.4015 516.577 76.6726 516.87 76.8326C517.176 77.0015 517.5 77.0237 517.824 77.1348C518.148 77.2459 518.314 77.9658 518.651 78.0414C518.988 78.1169 519.438 77.6059 519.78 77.6681C520.13 77.7303 520.427 78.3436 520.773 78.3569C521.119 78.3702 521.517 78.2858 521.862 78.2503C522.208 78.2147 522.567 78.0281 522.908 77.9481C523.249 77.8681 523.551 77.6059 523.875 77.477C524.199 77.3481 524.514 77.1837 524.82 77.0104C525.127 76.8371 525.201 76.3438 525.481 76.1349C525.761 75.926 526.207 75.9527 526.457 75.7038C526.706 75.455 527.157 75.375 527.371 75.0906C527.586 74.8061 527.319 74.2106 527.489 73.8996C527.66 73.5885 527.818 73.3263 527.949 72.993C528.08 72.6597 528.785 72.5175 528.868 72.1708C528.951 71.8198 528.623 71.3665 528.697 71.0109C528.772 70.6554 529.043 70.3399 529.108 69.9844C529.174 69.6289 529.345 69.2911 529.41 68.9311C529.476 68.5712 529.498 68.2112 529.568 67.8557C529.638 67.5002 529.677 67.1402 529.747 66.7847C529.822 66.4114 529.612 65.9936 529.664 65.6248C529.717 65.2559 530.027 64.9049 530.054 64.5316C530.08 64.1583 529.844 63.7672 529.844 63.3939C529.844 63.0206 529.94 62.6428 529.918 62.2695C529.896 61.8962 529.634 61.5496 529.585 61.1808C529.537 60.8119 529.848 60.3764 529.774 60.012C529.699 59.6476 529.568 59.2832 529.476 58.9188C529.384 58.5543 528.833 58.3366 528.719 57.9766C528.605 57.6167 528.925 57.1145 528.793 56.7634C528.662 56.4123 528.286 56.1679 528.137 55.8213C527.988 55.4746 527.993 55.0658 527.831 54.728C527.66 54.377 527.345 54.0703 527.034 53.8481H527.03ZM522.051 69.5178C521.897 69.8111 521.381 69.7666 521.127 70.0066C520.874 70.2466 520.817 70.6732 520.55 70.8598C520.292 71.0376 519.832 70.9843 519.342 70.9843C519.285 70.6376 519.526 70.2066 519.465 69.8644C519.403 69.5222 518.887 69.2467 518.834 68.9045C518.782 68.5623 519.246 68.1357 519.202 67.789C519.158 67.4424 518.725 67.1402 518.694 66.7936C518.664 66.4469 518.467 66.1003 518.454 65.7492C518.441 65.3981 518.764 65.0382 518.769 64.6871C518.773 64.336 518.327 63.9538 518.358 63.6028C518.388 63.2517 518.515 62.8917 518.572 62.5406C518.629 62.2162 518.896 61.914 518.988 61.5941C519.08 61.2741 519.123 60.9275 519.241 60.6164C519.36 60.3053 519.885 60.1764 520.025 59.8787C520.182 59.5454 520.06 58.9765 520.34 58.8388C520.637 58.6921 521.101 58.7499 521.429 58.8299C521.731 58.9054 521.862 59.3098 522.103 59.5809C522.291 59.7942 522.414 60.0386 522.571 60.292C522.729 60.5453 523.166 60.6964 523.201 60.9719C523.245 61.3319 523.267 61.7007 523.298 62.0607C523.328 62.4206 523.398 62.7895 523.411 63.1539C523.425 63.5183 523.201 63.8872 523.193 64.2471C523.184 64.6071 523.171 64.9671 523.136 65.3315C523.101 65.6959 522.917 66.0203 522.851 66.3803C522.786 66.7402 522.939 67.1358 522.838 67.4868C522.738 67.8379 522.672 68.1979 522.541 68.5401C522.409 68.8823 522.23 69.1933 522.059 69.5222L522.051 69.5178Z" fill="black"/>
<path d="M529.126 43.9646C528.785 43.9113 528.474 43.6002 528.124 43.6002C527.774 43.6002 527.446 43.5558 527.104 43.5024C526.781 43.4536 526.426 43.5513 526.111 43.4624C525.796 43.3736 525.372 43.3113 525.057 43.2314C525 42.8669 525.022 42.387 525.039 42.027C525.057 41.6671 525.249 41.3115 525.288 40.9516C525.328 40.5916 525.481 40.2183 525.477 39.8583C525.472 39.4984 525 39.2228 524.89 38.8673C524.794 38.5429 524.746 38.4496 524.505 38.1296C524.103 38.0941 523.858 37.7696 523.433 37.7252C523.009 37.6808 522.619 37.5386 522.204 37.503C521.788 37.4675 521.39 37.1653 520.974 37.143C520.423 37.1119 520.147 37.7563 519.85 38.0096C519.552 38.2629 519.539 38.5118 519.46 39.0629C519.403 39.4673 519.115 39.8317 519.071 40.2405C519.027 40.6494 518.799 41.0271 518.756 41.436C518.712 41.8448 518.909 42.3781 518.865 42.7914C518.515 42.7914 518.073 42.6892 517.776 42.6892C517.439 42.6892 517.119 42.9114 516.809 42.9025C516.511 42.8936 516.218 42.6492 515.92 42.627C515.623 42.6047 515.325 42.3737 515.028 42.3737C514.603 42.3737 514.293 42.7381 513.995 42.8403C513.627 42.9647 513.277 43.0269 513.063 43.338C512.884 43.6002 512.941 43.9957 512.844 44.4135C512.752 44.8045 512.512 45.1645 512.472 45.5689C512.433 45.96 512.717 46.3333 512.7 46.6488C512.678 47.0621 512.652 47.3687 512.687 47.6709C512.735 48.0887 512.398 48.6308 512.599 48.8708C512.8 49.1108 513.264 49.2708 513.662 49.3908C513.947 49.4752 514.314 49.5819 514.717 49.6263C515.028 49.6574 515.386 49.7063 515.772 49.7285C516.117 49.7463 516.476 49.5819 516.822 49.5952C517.167 49.6085 517.531 49.2752 517.876 49.2886C518.222 49.3019 518.554 49.7507 518.904 49.7641C519.255 49.7774 519.596 49.9863 519.941 49.9952C520.287 50.004 520.646 49.5996 520.996 49.6041C521.346 49.6085 521.696 49.2619 522.046 49.2663C522.396 49.2708 522.733 49.7152 523.079 49.7196C523.424 49.7241 523.779 49.3908 524.129 49.3952C524.479 49.3997 524.816 49.9018 525.166 49.9063C525.516 49.9107 525.866 49.493 526.216 49.4974C526.592 49.5019 526.929 49.7152 527.24 49.7196C527.625 49.7285 527.953 49.5596 528.251 49.5374C528.649 49.5108 529.117 49.9063 529.388 49.7685C529.682 49.6219 529.563 49.0219 529.734 48.6575C529.857 48.3953 530.224 48.1864 530.299 47.7776C530.355 47.4798 530.478 47.1421 530.513 46.7466C530.544 46.431 530.789 46.0933 530.811 45.7111C530.815 45.6133 530.347 45.4889 530.351 45.3911C530.36 44.9201 530.246 44.6757 530.019 44.3957C529.791 44.1157 529.581 44.0313 529.113 43.9557L529.126 43.9646Z" fill="black"/>
</svg>
