<svg width="569" height="431" viewBox="0 0 569 431" fill="none" xmlns="http://www.w3.org/2000/svg">
<g style="mix-blend-mode:multiply" opacity="0.28">
<path d="M536.137 15.6154L521.86 18.4345L508.604 20.7837L495.003 20.3415L481.83 23.2021L468.671 26.2837L455.139 26.3942L442.022 29.7523L428.683 31.452L415.345 32.9721L401.909 33.898L388.474 34.7685L375.177 36.717L361.935 39.0801L348.514 40.1027L335.051 40.7245L321.892 43.7923L308.512 45.1466L294.994 45.271L281.794 47.9242L268.4 49.0988L255.268 52.4016L241.668 51.8903L228.674 56.3676L215.363 58.1779L201.735 57.4869L188.479 59.8085L175.334 63.0422L161.719 62.4894L148.505 65.0874L135.056 65.8612L121.648 66.9806L108.393 69.3022L95.1785 71.983L81.9229 74.2494L68.3358 74.0006L54.9558 75.3825L41.7278 77.8837L28.265 78.6023L15.3545 81.9051L17.909 95.116L19.4417 108.686L21.4714 122.201L22.4932 135.841L24.4125 149.369L25.531 162.995L25.4343 176.772L28.5687 190.149L31.137 203.595L33.4568 217.068L32.504 230.97L36.3565 244.25L37.1159 257.931L39.6842 270.313L52.0147 269.663L65.5328 269.746L78.6227 266.361L92.1408 266.333L105.12 262.035L118.127 262.132L120.627 274.846L121.386 288.291L122.256 301.737L126.536 314.755L126.026 328.366L128.594 341.591L130.665 354.871L132.433 368.207L133.565 381.625L133.786 395.14L137.1 408.282L137.79 422.612L151.943 420.525L165.171 417.9L178.399 415.274L191.904 414.929L205.132 412.289L218.746 412.856L232.126 411.501L245.465 409.746L258.762 407.784L272.073 405.753L285.37 403.749L298.543 400.64L311.923 399.23L325.234 397.296L338.848 397.821L352.035 394.78L365.222 391.837L378.822 392.127L391.968 388.88L405.5 388.659L418.893 387.415L432.342 386.475L445.667 384.637L458.826 381.418L472.165 379.663L485.738 379.649L500.153 377.659L496.549 363.453L494.713 350.131L495.196 336.52L492.407 323.323L491.468 309.891L487.74 296.804L486.994 283.358L485.462 269.995L483.97 256.632L481.733 243.352L480.822 229.906L479.635 217.068L492.2 214.18L505.649 213.669L518.974 212.19L532.022 208.39L545.416 207.437L559.818 207.368L556.449 193.148L556.946 179.315L552.72 166.076L553.093 152.271L548.854 139.033L549.462 125.186L546.452 111.796L544.242 98.3082L543.276 84.655L542.654 70.9743L539.009 57.6528L537.173 44.1102L537.504 30.3188L536.137 15.6154Z" fill="#040000"/>
<path d="M536.137 15.6154L521.86 18.4345L508.604 20.7837L495.003 20.3415L481.83 23.2021L468.671 26.2837L455.139 26.3942L442.022 29.7523L428.683 31.452L415.345 32.9721L401.909 33.898L388.474 34.7685L375.177 36.717L361.935 39.0801L348.514 40.1027L335.051 40.7245L321.892 43.7923L308.512 45.1466L294.994 45.271L281.794 47.9242L268.4 49.0988L255.268 52.4016L241.668 51.8903L228.674 56.3676L215.363 58.1779L201.735 57.4869L188.479 59.8085L175.334 63.0422L161.719 62.4894L148.505 65.0874L135.056 65.8612L121.648 66.9806L108.393 69.3022L95.1785 71.983L81.9229 74.2494L68.3358 74.0006L54.9558 75.3825L41.7278 77.8837L28.265 78.6023L15.3545 81.9051L17.909 95.116L19.4417 108.686L21.4714 122.201L22.4932 135.841L24.4125 149.369L25.531 162.995L25.4343 176.772L28.5687 190.149L31.137 203.595L33.4568 217.068L32.504 230.97L36.3565 244.25L37.1159 257.931L39.6842 270.313L52.0147 269.663L65.5328 269.746L78.6227 266.361L92.1408 266.333L105.12 262.035L118.127 262.132L120.627 274.846L121.386 288.291L122.256 301.737L126.536 314.755L126.026 328.366L128.594 341.591L130.665 354.871L132.433 368.207L133.565 381.625L133.786 395.14L137.1 408.282L137.79 422.612L151.943 420.525L165.171 417.9L178.399 415.274L191.904 414.929L205.132 412.289L218.746 412.856L232.126 411.501L245.465 409.746L258.762 407.784L272.073 405.753L285.37 403.749L298.543 400.64L311.923 399.23L325.234 397.296L338.848 397.821L352.035 394.78L365.222 391.837L378.822 392.127L391.968 388.88L405.5 388.659L418.893 387.415L432.342 386.475L445.667 384.637L458.826 381.418L472.165 379.663L485.738 379.649L500.153 377.659L496.549 363.453L494.713 350.131L495.196 336.52L492.407 323.323L491.468 309.891L487.74 296.804L486.994 283.358L485.462 269.995L483.97 256.632L481.733 243.352L480.822 229.906L479.635 217.068L492.2 214.18L505.649 213.669L518.974 212.19L532.022 208.39L545.416 207.437L559.818 207.368L556.449 193.148L556.946 179.315L552.72 166.076L553.093 152.271L548.854 139.033L549.462 125.186L546.452 111.796L544.242 98.3082L543.276 84.655L542.654 70.9743L539.009 57.6528L537.173 44.1102L537.504 30.3188L536.137 15.6154Z" stroke="#040000" stroke-width="10.54" stroke-miterlimit="10"/>
</g>
<path d="M529.233 8.70596L514.956 11.525L501.7 13.8743L488.099 13.4321L474.926 16.2926L461.767 19.3742L448.235 19.4848L435.118 22.8428L421.779 24.5425L408.441 26.0626L395.005 26.9885L381.57 27.8591L368.273 29.8075L355.031 32.1706L341.61 33.1932L328.147 33.815L314.988 36.8829L301.608 38.2371L288.09 38.3615L274.89 41.0147L261.496 42.1893L248.364 45.4921L234.764 44.9808L221.77 49.4581L208.459 51.2684L194.831 50.5775L181.575 52.899L168.43 56.1327L154.815 55.5799L141.601 58.1779L128.152 58.9518L114.744 60.0711L101.489 62.3927L88.2745 65.0736L75.0189 67.3399L61.4318 67.0911L48.0518 68.473L34.8238 70.9743L21.361 71.6929L8.4505 74.9956L11.005 88.2065L12.5377 101.777L14.5674 115.292L15.5892 128.931L17.5085 142.46L18.627 156.085L18.5303 169.863L21.6648 183.24L24.233 196.685L26.5528 210.159L25.6 224.061L29.4525 237.341L30.2119 251.022L32.7802 263.403L45.1107 262.754L58.6288 262.837L71.7188 259.451L85.2368 259.424L98.2163 255.126L111.223 255.223L113.723 267.936L114.482 281.382L115.352 294.828L119.632 307.845L119.122 321.457L121.69 334.682L123.761 347.962L125.529 361.297L126.661 374.715L126.882 388.23L130.196 401.372L130.886 415.702L145.039 413.616L158.267 410.99L171.495 408.365L185 408.019L198.228 405.38L211.842 405.946L225.222 404.592L238.561 402.837L251.858 400.875L265.169 398.843L278.466 396.84L291.639 393.73L305.019 392.321L318.33 390.386L331.944 390.911L345.131 387.871L358.318 384.928L371.918 385.218L385.064 381.97L398.596 381.749L411.989 380.505L425.438 379.566L438.763 377.728L451.922 374.508L465.261 372.753L478.834 372.739L493.249 370.749L489.645 356.543L487.809 343.222L488.292 329.61L485.503 316.413L484.564 302.981L480.836 289.894L480.09 276.449L478.558 263.086L477.066 249.723L474.829 236.443L473.918 222.997L472.731 210.159L485.296 207.271L498.745 206.759L512.07 205.281L525.118 201.481L538.512 200.527L552.914 200.458L549.545 186.238L550.042 172.406L545.816 159.167L546.189 145.362L541.95 132.123L542.558 118.277L539.548 104.886L537.338 91.3987L536.372 77.7456L535.75 64.0648L532.105 50.7433L530.269 37.2007L530.6 23.4094L529.233 8.70596Z" fill="#E9E6DF"/>
<path d="M529.233 8.70596L514.956 11.525L501.7 13.8743L488.099 13.4321L474.926 16.2926L461.767 19.3742L448.235 19.4848L435.118 22.8428L421.779 24.5425L408.441 26.0626L395.005 26.9885L381.57 27.8591L368.273 29.8075L355.031 32.1706L341.61 33.1932L328.147 33.815L314.988 36.8829L301.608 38.2371L288.09 38.3615L274.89 41.0147L261.496 42.1893L248.364 45.4921L234.764 44.9808L221.77 49.4581L208.459 51.2684L194.831 50.5775L181.575 52.899L168.43 56.1327L154.815 55.5799L141.601 58.1779L128.152 58.9518L114.744 60.0711L101.489 62.3927L88.2745 65.0736L75.0189 67.3399L61.4318 67.0911L48.0518 68.473L34.8238 70.9743L21.361 71.6929L8.4505 74.9956L11.005 88.2065L12.5377 101.777L14.5674 115.292L15.5892 128.931L17.5085 142.46L18.627 156.085L18.5303 169.863L21.6648 183.24L24.233 196.685L26.5528 210.159L25.6 224.061L29.4525 237.341L30.2119 251.022L32.7802 263.403L45.1107 262.754L58.6288 262.837L71.7188 259.451L85.2368 259.424L98.2163 255.126L111.223 255.223L113.723 267.936L114.482 281.382L115.352 294.828L119.633 307.845L119.122 321.457L121.69 334.682L123.761 347.962L125.529 361.297L126.661 374.715L126.882 388.23L130.196 401.372L130.886 415.702L145.039 413.616L158.267 410.99L171.495 408.365L185 408.019L198.228 405.38L211.842 405.946L225.222 404.592L238.561 402.837L251.858 400.875L265.169 398.843L278.466 396.84L291.639 393.73L305.019 392.321L318.33 390.386L331.944 390.911L345.131 387.871L358.318 384.928L371.918 385.218L385.064 381.97L398.596 381.749L411.989 380.505L425.438 379.566L438.763 377.728L451.922 374.508L465.261 372.753L478.834 372.739L493.249 370.749L489.645 356.543L487.809 343.222L488.292 329.61L485.503 316.413L484.564 302.981L480.836 289.894L480.09 276.449L478.558 263.086L477.066 249.723L474.829 236.443L473.918 222.997L472.731 210.159L485.296 207.271L498.745 206.759L512.07 205.281L525.118 201.481L538.512 200.527L552.914 200.458L549.545 186.238L550.042 172.406L545.816 159.167L546.189 145.362L541.95 132.123L542.558 118.277L539.548 104.886L537.338 91.3987L536.372 77.7456L535.75 64.0648L532.105 50.7433L530.269 37.2007L530.6 23.4094L529.233 8.70596Z" stroke="#231815" stroke-width="10.54" stroke-miterlimit="10"/>
<path d="M416.021 228.4C414.944 228.649 414.171 229.45 413.26 229.685C412.224 229.948 411.064 229.298 410.084 229.395C408.938 229.519 407.861 229.823 407.005 230.266C406.052 230.763 406.079 232.131 405.472 233.002C404.906 233.817 403.415 234.19 403.152 235.296C402.89 236.401 404.091 237.797 403.884 238.93C403.677 240.063 401.896 240.92 401.758 242.053C401.619 243.186 400.901 244.361 400.86 245.494C400.819 246.641 402.876 247.857 402.848 249.018C402.821 250.179 402.545 251.312 402.531 252.459C402.517 253.606 402.931 254.767 402.917 255.914C402.904 257.061 400.846 258.18 400.832 259.327C400.819 260.474 400.556 261.621 400.542 262.768C400.529 263.915 401.509 265.089 401.495 266.236C401.481 267.383 401.412 268.53 401.385 269.691C401.357 270.852 400.322 271.957 400.28 273.118C400.239 274.279 402.503 275.495 402.462 276.642C402.407 278.204 401.592 279.503 401.205 280.207C400.694 281.119 399.175 282.28 397.56 282.073C396.676 281.962 395.199 281.147 393.846 280.788C393.777 279.917 395.171 278.314 395.074 277.388C394.978 276.462 392.755 275.592 392.824 274.694C392.907 273.547 394.508 272.51 394.605 271.377C394.702 270.244 394.992 269.111 395.088 267.964C395.185 266.817 395.53 265.697 395.627 264.55C395.723 263.403 396.234 262.298 396.331 261.151C396.428 260.004 395.848 258.802 395.931 257.655C396.013 256.508 395.834 255.347 395.889 254.2C395.958 252.956 395.268 251.657 395.337 250.414C395.406 249.17 395.447 247.912 395.489 246.669C395.53 245.425 395.433 244.181 395.447 242.924C395.461 241.666 395.944 240.422 395.917 239.179C395.889 237.935 395.157 236.733 395.074 235.475C394.978 234.204 395.972 232.96 395.668 232.076C395.254 230.887 394.053 230.487 393.21 229.906C392.368 229.326 391.553 229.561 390.283 229.492C389.33 229.436 388.309 228.828 387.08 228.994C386.154 229.132 385.147 228.69 384.208 228.815C383.269 228.939 382.399 229.478 381.474 229.671C380.383 229.906 379.54 230.514 378.698 231.026C377.787 231.578 377.745 232.629 377.152 233.513C376.613 234.328 376.185 234.923 375.95 236.028C375.757 236.94 374.694 237.686 374.583 238.612C374.473 239.538 373.893 240.464 373.838 241.39C373.769 242.592 375.37 243.877 375.329 245.079C375.288 246.282 373.134 247.429 373.106 248.645C373.078 249.861 374.1 251.091 374.073 252.293C374.045 253.495 374.791 254.739 374.735 255.955C374.68 257.171 372.94 258.277 372.857 259.493C372.775 260.709 374.1 262.022 373.976 263.21C373.852 264.398 374.114 265.697 373.934 266.886C373.769 268.019 372.885 269.042 372.747 270.175C372.609 271.308 371.988 272.4 371.877 273.533C371.767 274.666 372.001 275.841 371.918 276.974C371.836 278.107 372.692 279.295 372.636 280.442C372.581 281.589 371.601 282.681 371.559 283.814C371.518 284.947 372.333 286.122 372.305 287.255C372.277 288.388 370.565 289.507 370.551 290.641C370.538 291.774 372.429 292.948 372.416 294.095C372.402 295.242 371.007 296.362 370.993 297.509C370.979 298.656 372.485 299.816 372.457 300.95C372.429 302.083 371.905 303.23 371.877 304.377C371.849 305.524 370.082 306.615 370.041 307.749C369.999 308.882 371.352 310.084 371.311 311.217C371.269 312.35 369.847 313.414 369.778 314.561C369.709 315.653 371.836 316.855 371.808 317.947C371.78 319.039 371.228 320.117 371.228 321.208C371.228 322.3 370.952 323.392 370.98 324.497C371.007 325.603 370.11 326.722 370.151 327.814C370.192 328.905 371.2 329.969 371.256 331.061C371.311 332.153 370.206 333.314 370.275 334.419C370.344 335.525 371.159 336.561 371.214 337.667C371.269 338.772 372.291 339.809 372.347 340.9C372.402 341.992 372.609 343.097 372.664 344.189C372.719 345.281 372.885 346.386 372.913 347.492C372.954 348.736 370.883 350.297 371.159 351.513C371.435 352.688 373.368 353.158 373.893 354.014C374.487 354.996 374.086 357.096 375.011 357.676C375.881 358.215 377.483 357.801 378.671 357.994C379.651 358.16 380.769 357.718 381.971 357.663C383.075 357.607 384.097 357.746 384.995 357.469C386.03 357.138 386.817 356.529 387.549 355.88C388.281 355.231 389.648 354.788 390.062 353.793C390.421 352.937 391.112 351.762 391.194 350.629C391.291 349.482 391.319 348.362 391.443 347.215C391.567 346.069 391.457 344.922 391.609 343.775C391.761 342.628 390.67 341.329 390.822 340.195C390.974 339.062 391.029 337.902 391.194 336.755C391.36 335.608 393.141 334.709 393.307 333.562C393.473 332.415 391.871 331.047 392.023 329.9C392.175 328.753 392.437 327.648 392.575 326.501C392.713 325.354 394.508 324.387 394.619 323.24C394.729 322.093 392.838 320.78 392.907 319.633C392.976 318.486 393.749 317.394 393.79 316.247C393.832 315.1 394.715 313.953 394.702 312.792C394.688 311.632 392.989 310.554 392.92 309.407C392.838 307.942 393.348 305.648 393.597 303.962C394.688 303.962 396.621 303.644 397.601 303.644C398.582 303.644 398.955 305.275 400.059 305.275C400.059 306.45 401.799 307.03 401.799 308.163C401.799 309.296 401.827 310.471 401.827 311.618C401.827 312.765 400.294 313.926 400.308 315.073C400.322 316.22 400.556 317.38 400.556 318.527C400.556 319.674 401.122 320.835 401.109 321.982C401.109 323.198 401.468 324.414 401.454 325.63C401.44 326.846 400.943 328.049 400.943 329.265C400.943 330.481 400.377 331.683 400.363 332.899C400.349 334.115 401.399 335.331 401.399 336.547C401.399 337.763 401.233 338.966 401.233 340.182C401.233 341.398 400.252 342.6 400.252 343.816C400.252 345.032 401.606 346.248 401.606 347.45C401.606 348.653 400.929 349.883 400.929 351.085C400.929 352.218 399.714 353.669 400.087 354.581C400.487 355.562 401.509 356.723 402.337 357.414C403.083 358.036 404.685 357.566 405.776 357.939C406.922 358.326 407.93 359.321 408.979 359.362C410.167 359.418 411.313 358.671 412.334 358.34C413.411 357.98 413.66 356.626 414.489 355.852C415.317 355.079 416.974 355.134 417.485 354.056C417.927 353.102 417.595 351.831 417.775 350.629C417.927 349.62 417.181 348.542 417.278 347.533C417.374 346.525 419.266 345.668 419.349 344.645C419.432 343.623 419.418 342.614 419.515 341.605C419.611 340.596 419.128 339.518 419.252 338.51C419.404 337.376 418.645 336.133 418.783 335.013C418.921 333.894 420.868 332.968 421.006 331.835C421.144 330.702 419.459 329.375 419.57 328.242C419.68 327.109 420.274 326.031 420.385 324.898C420.495 323.765 422.069 322.756 422.166 321.623C422.262 320.49 421.89 319.301 421.972 318.168C422.055 317.035 421.185 315.833 421.268 314.699C421.351 313.566 422.621 312.502 422.677 311.355C422.732 310.208 421.392 309.02 421.434 307.873C421.475 306.726 421.351 305.593 421.379 304.46C421.406 303.326 422.704 302.221 422.718 301.074C422.732 299.899 422.414 298.711 422.428 297.536C422.442 296.362 421.199 295.187 421.199 293.999C421.199 292.81 421.144 291.649 421.13 290.475C421.116 289.3 421.13 288.126 421.13 286.951C421.13 285.776 422.511 284.588 422.511 283.413C422.511 282.239 421.6 281.064 421.6 279.889C421.6 278.715 423.27 277.54 423.27 276.366C423.27 275.191 422.152 274.003 422.166 272.828C422.18 271.653 422.898 270.493 422.911 269.304C422.925 268.116 421.724 266.927 421.765 265.739C421.807 264.55 422.345 263.403 422.387 262.229C422.428 261.054 421.613 259.824 421.682 258.65C421.752 257.475 421.862 256.287 421.959 255.112C422.055 253.937 423.27 252.86 423.381 251.685C423.491 250.51 423.229 249.294 423.381 248.133C423.533 246.973 424.541 245.922 424.706 244.748C424.927 243.214 425.452 241.445 425.328 239.884C425.231 238.543 423.201 237.521 422.898 236.332C422.566 235.019 423.243 233.361 422.594 232.297C421.945 231.233 420.674 230.418 419.597 229.658C418.617 228.967 417.374 228.704 416.007 228.359L416.021 228.4Z" fill="black"/>
<path d="M294.4 347.768C294.262 346.552 292.274 345.626 292.039 344.438C291.804 343.25 293.268 341.647 292.95 340.472C292.633 339.297 292.081 338.15 291.735 336.99C291.39 335.829 290.658 334.778 290.299 333.618C289.94 332.457 289.112 331.448 288.767 330.273C288.421 329.099 288.049 327.952 287.745 326.777C287.441 325.603 286.019 324.635 285.798 323.447C285.577 322.258 286.35 320.863 286.226 319.647C286.102 318.431 286.502 316.993 285.936 316.137C285.315 315.211 283.451 315.846 282.429 315.39C281.49 314.962 280.827 314.741 279.64 314.741C278.618 314.741 277.237 312.917 276.105 313.235C274.959 313.553 274.158 315.142 273.012 315.46C271.866 315.777 270.54 315.473 269.38 315.791C268.22 316.109 266.991 316.109 265.832 316.441C264.672 316.772 263.567 317.215 262.421 317.532C261.275 317.85 260.143 318.265 258.997 318.596C257.851 318.928 256.939 320.103 255.793 320.421C254.647 320.738 253.252 320.255 252.106 320.586C250.96 320.918 250.035 322.01 248.889 322.341C247.743 322.673 246.5 322.687 245.354 323.032C244.208 323.378 243.269 324.4 242.137 324.76C241.005 325.119 239.5 324.331 238.367 324.677C237.208 325.036 236.089 325.547 234.943 325.934C233.797 326.321 233.107 328.09 231.947 328.477C230.787 328.864 229.171 327.855 228.025 328.256C226.879 328.657 225.995 329.817 224.849 330.218C223.703 330.619 222.378 330.508 221.232 330.923C220.086 331.338 218.857 331.503 217.724 331.932C216.592 332.36 215.929 334.074 214.783 334.502C213.637 334.93 211.925 333.77 210.793 334.198C209.384 334.723 208.294 335.594 207.493 336.257C206.526 337.072 205.353 338.178 205.049 339.532C204.828 340.541 206.167 341.895 206.195 343.374C206.402 344.341 206.609 346.11 207.189 347.893C207.52 348.943 207.52 350.09 207.866 351.14C208.211 352.19 207.976 353.42 208.307 354.457C208.639 355.493 208.625 356.668 208.97 357.704C209.315 358.741 210.779 359.418 211.138 360.454C211.497 361.491 211.525 362.638 211.884 363.674C212.243 364.71 213.706 365.346 214.093 366.369C214.48 367.447 214.507 368.607 214.977 369.658C215.446 370.708 215.626 371.869 216.137 372.905C216.647 373.941 217.145 374.978 217.642 376.014C218.332 377.438 219.395 377.783 220.555 378.419C221.715 379.054 222.806 381.183 224.339 380.948C225.36 380.796 226.092 378.902 227.128 378.695C228.163 378.488 229.199 378.557 230.193 378.253C231.187 377.949 232.278 377.935 233.217 377.521C234.28 377.051 235.067 375.945 236.144 375.517C237.221 375.088 238.906 376.235 239.983 375.821C241.06 375.406 241.958 374.522 243.035 374.135C244.112 373.748 245.465 374.149 246.556 373.789C247.646 373.43 248.558 372.504 249.662 372.159C250.767 371.813 251.941 371.73 253.045 371.413C254.15 371.095 255.351 371.109 256.456 370.805C257.561 370.501 258.582 369.879 259.701 369.588C260.819 369.298 261.91 368.953 263.029 368.663C264.147 368.372 265.086 367.419 266.204 367.129C267.323 366.839 268.386 366.327 269.491 366.037C270.595 365.747 271.659 365.194 272.777 364.904C273.895 364.614 275.166 364.931 276.284 364.641C277.403 364.351 278.342 363.425 279.46 363.121C280.579 362.817 282.084 363.909 283.188 363.605C284.293 363.301 285.094 361.85 286.198 361.518C287.4 361.159 288.421 360.717 289.333 360.371C290.562 359.901 291.211 359.031 291.956 358.478C292.937 357.746 294.953 357.718 295.256 356.612C295.491 355.7 294.98 354.305 294.842 352.978C294.746 352.011 294.083 350.974 293.82 349.717C293.696 349.109 294.456 348.404 294.387 347.796L294.4 347.768ZM268.22 344.631C267.13 344.991 266.605 347.064 265.514 347.409C264.423 347.754 262.794 346.4 261.703 346.746C260.612 347.091 259.59 347.658 258.513 348.003C257.436 348.349 256.456 349.053 255.365 349.413C254.274 349.772 253.335 350.56 252.244 350.919C251.154 351.278 250.077 351.665 248.986 352.011C247.895 352.356 247.163 353.821 246.072 354.167C244.982 354.512 243.601 353.932 242.51 354.277C241.419 354.623 240.066 354.125 238.975 354.471C237.884 354.816 237.332 356.834 236.227 357.193C235.123 357.552 233.341 357.773 232.251 358.119C231.892 357.124 232.913 354.94 232.582 354.001C232.223 353.02 230.649 352.494 230.317 351.569C229.958 350.587 230.235 349.662 229.903 348.722C230.704 348.183 231.643 348.155 232.748 347.589C233.673 347.119 234.584 346.538 235.675 346.055C236.655 345.626 237.622 345.115 238.713 344.687C239.721 344.286 240.452 343.07 241.529 342.683C242.607 342.296 243.904 342.752 244.968 342.393C246.031 342.033 246.846 340.956 247.909 340.624C248.972 340.292 250.146 340.306 251.223 340.002C252.3 339.698 253.211 338.703 254.274 338.427C255.337 338.15 256.746 339.035 257.809 338.786C258.928 338.537 259.977 338.15 261.04 337.957C262.186 337.736 263.07 336.105 264.119 335.953C265.321 335.787 266.342 337.045 267.35 336.99C267.778 338.275 268.828 339.021 269.187 340.099C269.629 341.398 269.491 342.683 269.85 343.747C269.159 344.742 268.704 344.479 268.248 344.631H268.22Z" fill="black"/>
<path d="M355.225 281.658C354.327 281.023 354.12 279.281 353.195 278.715C352.27 278.148 350.778 278.425 349.798 277.941C348.818 277.457 347.672 277.305 346.664 276.918C345.656 276.531 344.869 275.205 343.819 274.915C342.77 274.624 341.389 275.868 340.298 275.73C339.207 275.592 338.213 273.864 337.108 273.864C335.88 273.864 334.72 275.177 333.56 275.315C332.345 275.467 331.337 276.2 330.204 276.49C329.072 276.78 327.595 276.172 326.504 276.628C325.413 277.084 325.054 278.922 324.032 279.53C323.011 280.138 322.016 280.553 321.105 281.327C320.194 282.101 318.965 282.418 318.164 283.317C317.363 284.215 316.838 285.224 316.162 286.232C315.485 287.241 313.718 287.587 313.179 288.665C312.641 289.742 313.69 291.47 313.276 292.603C312.862 293.736 312.226 294.703 311.937 295.878C311.674 296.997 310.528 297.937 310.335 299.07C310.141 300.203 309.769 301.323 309.617 302.47C309.465 303.617 310.404 304.888 310.28 306.021C310.155 307.154 309.99 308.287 309.865 309.434C309.741 310.581 309.782 311.728 309.658 312.875C309.534 314.022 308.692 315.086 308.54 316.22C308.54 317.436 308.581 318.666 308.636 319.868C308.692 321.07 308.333 322.328 308.429 323.53C308.526 324.732 309.41 325.865 309.562 327.067C309.713 328.27 310.059 329.43 310.252 330.619C310.445 331.807 310.901 332.94 311.149 334.129C311.398 335.317 310.252 336.81 310.528 337.984C310.79 339.104 312.171 339.919 312.544 340.955C312.917 341.992 313.897 342.766 314.422 343.747C314.947 344.728 314.905 346.013 315.568 346.939C316.231 347.865 316.341 349.261 317.128 350.09C317.915 350.919 319.904 350.339 320.801 351.071C321.671 351.79 322.237 352.633 323.162 353.13C324.129 353.655 325.151 353.724 326.173 354.07C327.194 354.415 327.719 356.654 328.782 356.889C329.845 357.124 331.268 355.535 332.345 355.728C333.449 355.921 334.388 357.828 335.479 357.87C336.57 357.911 337.827 357.649 338.917 357.538C340.008 357.428 341.14 356.847 342.217 356.599C343.294 356.35 344.247 355.535 345.269 355.134C346.291 354.733 347.285 354.222 348.252 353.683C349.218 353.144 349.453 351.61 350.337 350.96C351.22 350.311 352.629 350.394 353.416 349.62C354.203 348.846 355.625 348.597 356.302 347.713C356.978 346.829 356.136 344.977 356.674 344.009C357.213 343.042 357.71 342.227 358.124 341.19C358.538 340.154 360.762 339.712 361.024 338.634C361.286 337.542 360.251 336.133 360.485 335.027C360.72 333.922 361.576 332.941 361.783 331.835C361.991 330.729 362.529 329.679 362.736 328.56C362.943 327.441 363.012 326.321 363.233 325.216C363.454 324.11 363.578 322.991 363.799 321.885C364.034 320.725 363.371 319.426 363.537 318.279C363.703 317.132 364.683 316.04 364.766 314.879C364.849 313.718 364.103 312.502 364.103 311.341C364.103 310.181 364.407 309.006 364.338 307.845C364.269 306.684 363.44 305.607 363.288 304.46C363.137 303.313 364.117 301.958 363.882 300.825C363.647 299.692 363.233 298.559 362.943 297.426C362.653 296.293 360.913 295.615 360.554 294.496C360.195 293.377 361.203 291.815 360.789 290.724C360.375 289.632 359.187 288.872 358.718 287.794C358.249 286.716 358.262 285.445 357.751 284.394C357.213 283.303 356.219 282.349 355.238 281.658H355.225ZM339.511 330.37C339.028 331.282 337.398 331.144 336.598 331.89C335.797 332.636 335.617 333.963 334.775 334.543C333.96 335.096 332.51 334.93 330.964 334.93C330.784 333.853 331.544 332.512 331.351 331.448C331.157 330.384 329.528 329.527 329.362 328.463C329.197 327.399 330.66 326.072 330.522 324.995C330.384 323.917 329.017 322.977 328.92 321.899C328.824 320.821 328.202 319.743 328.161 318.652C328.119 317.56 329.141 316.441 329.155 315.349C329.169 314.257 327.76 313.069 327.857 311.977C327.954 310.885 328.354 309.766 328.534 308.674C328.713 307.666 329.556 306.726 329.845 305.731C330.135 304.736 330.274 303.658 330.646 302.691C331.019 301.723 332.676 301.323 333.118 300.397C333.615 299.36 333.228 297.592 334.112 297.163C335.051 296.707 336.515 296.887 337.55 297.136C338.503 297.37 338.917 298.628 339.677 299.471C340.271 300.134 340.657 300.894 341.154 301.682C341.651 302.47 343.032 302.94 343.143 303.796C343.281 304.916 343.35 306.063 343.446 307.182C343.543 308.301 343.764 309.448 343.805 310.581C343.847 311.715 343.143 312.862 343.115 313.981C343.087 315.1 343.046 316.22 342.935 317.353C342.825 318.486 342.245 319.495 342.038 320.614C341.831 321.733 342.314 322.963 341.997 324.055C341.679 325.147 341.472 326.266 341.058 327.33C340.643 328.394 340.077 329.361 339.539 330.384L339.511 330.37Z" fill="black"/>
<path d="M335.465 150.806C335.521 151.94 336.321 152.714 336.377 153.75C336.432 154.869 336.515 155.947 336.57 157.011C336.625 158.075 337.15 159.167 337.191 160.245C337.247 161.364 336.46 162.511 336.515 163.63C336.57 164.75 335.534 165.911 335.59 167.016C335.645 168.122 336.087 169.227 336.128 170.347C336.17 171.466 336.128 172.585 336.17 173.691C336.211 174.796 335.852 175.943 335.907 177.049C335.962 178.154 337.923 179.191 337.978 180.296C338.034 181.402 338.268 182.507 338.337 183.627C338.406 184.746 337.288 185.921 337.357 187.04C337.426 188.159 337.688 189.251 337.771 190.37C337.868 191.835 337.757 193.3 338.255 194.253C338.876 195.428 340.519 195.331 341.734 195.773C342.756 196.16 343.764 197.072 345.214 196.99C346.76 196.907 348.127 195.663 349.66 195.317C351.055 195 352.38 195.262 353.416 194.972C354.893 194.544 355.584 193.535 356.44 192.996C357.572 192.277 358.331 192.028 358.704 190.716C358.994 189.735 359.85 188.657 359.892 187.137C359.919 186.059 358.359 184.843 358.318 183.419C358.29 182.203 358.359 180.987 358.318 179.771C358.276 178.555 360.278 177.284 360.251 176.068C360.223 174.852 358.925 173.663 358.898 172.447C358.87 171.231 358.994 170.015 358.967 168.799C358.939 167.583 358.166 166.38 358.152 165.164C358.138 163.948 358.69 162.718 358.69 161.502C358.69 160.286 359.505 159.07 359.505 157.854C359.505 156.638 359.616 155.422 359.616 154.206C359.616 152.783 358.759 151.497 359.105 150.654C359.547 149.549 361.01 149.687 362.211 149.203C363.081 148.858 364.006 148.595 365.373 148.402C366.478 148.25 367.652 148.623 368.756 148.471C369.861 148.319 370.8 146.979 371.918 146.827C373.037 146.675 374.155 146.73 375.26 146.578C376.365 146.426 377.29 144.989 378.394 144.823C379.499 144.657 380.756 145.569 381.86 145.403C382.965 145.237 384.194 145.873 385.298 145.693C386.403 145.514 387.218 143.634 388.322 143.441C389.524 143.234 390.725 143.842 391.622 143.427C392.672 142.93 394.453 143.068 395.144 142.253C395.834 141.437 395.185 139.641 395.558 138.535C395.875 137.582 396.745 136.628 396.856 135.44C396.98 134.196 397.629 132.842 397.56 131.584C397.491 130.327 395.71 129.387 395.53 128.406C395.295 127.121 395.599 125.946 395.116 125.103C394.522 124.081 394.053 122.533 392.976 122.077C392.078 121.704 390.642 122.049 389.344 122.008C388.35 121.98 387.301 123.058 386.044 123.21C385.119 123.321 384.18 123.403 383.255 123.5C382.192 123.625 380.949 122.284 379.886 122.422C378.822 122.56 377.98 124.537 376.917 124.661C375.854 124.785 374.528 122.865 373.465 123.003C372.402 123.141 371.587 125.38 370.524 125.504C369.461 125.628 368.273 124.758 367.21 124.882C366.147 125.006 365.056 124.965 363.993 125.062C362.929 125.158 361.811 124.661 360.734 124.744C359.56 124.827 358.4 125.186 357.227 125.283C356.053 125.38 354.893 125.684 353.72 125.767C352.546 125.849 351.455 127.121 350.281 127.217C349.108 127.314 347.92 127.314 346.746 127.397C345.573 127.48 344.399 127.563 343.212 127.646C342.024 127.729 340.74 126.098 339.566 126.181C338.393 126.264 337.219 126.499 336.045 126.582C334.872 126.665 333.698 126.927 332.524 126.996C331.351 127.065 330.177 127.273 329.003 127.342C327.83 127.411 326.587 126.665 325.413 126.748C324.239 126.831 323.135 127.95 321.947 128.033C320.76 128.116 319.669 129.277 318.495 129.359C317.322 129.442 316.065 128.447 314.891 128.53C313.718 128.613 312.585 129.456 311.412 129.539C310.238 129.622 309.078 130.023 307.905 130.106C306.731 130.189 305.571 130.465 304.384 130.548C303.196 130.631 301.995 130.23 300.821 130.313C299.606 130.396 298.543 130.493 297.466 130.755C296.72 131.681 296.72 132.676 296.306 133.657C295.864 134.707 295.118 135.509 294.966 136.601C294.815 137.692 294.801 138.77 294.87 139.889C294.939 141.009 295.187 142.059 295.381 143.165C295.602 144.505 296.182 145.486 296.734 146.523C297.341 147.683 298.004 148.443 298.985 149.19C299.965 149.936 300.669 151.138 301.953 151.456C303.099 151.732 304.384 151.47 305.737 151.387C306.676 151.332 307.808 152.271 308.733 152.078C309.658 151.884 310.418 151.207 311.357 151.124C312.53 151.028 313.538 149.369 314.712 149.245C315.886 149.121 317.225 150.82 318.399 150.696C319.572 150.572 320.677 150.074 321.851 149.991C323.024 149.908 324.143 148.665 325.33 148.651C326.518 148.637 327.705 148.941 328.893 149.01C330.08 149.079 331.199 149.563 332.4 149.742C333.601 149.922 334.333 150.572 335.507 150.848L335.465 150.806Z" fill="black"/>
<path d="M160.891 137.513C159.897 137.913 159.317 139.157 158.309 139.572C157.301 139.986 156.03 139.682 155.036 140.097C154.042 140.511 153.324 141.589 152.316 142.004C151.308 142.418 149.941 141.879 148.947 142.28C147.953 142.681 146.586 142.128 145.578 142.515C144.57 142.902 144.059 144.602 143.037 144.961C141.946 145.348 140.496 144.768 139.406 145.154C138.315 145.541 137.141 145.707 136.05 146.094C134.959 146.481 134.062 147.407 132.971 147.808C131.88 148.208 130.651 148.208 129.56 148.595C128.47 148.982 128.014 151.166 126.923 151.553C125.832 151.94 124.631 152.009 123.54 152.409C122.449 152.81 121.151 152.617 120.061 153.004C118.97 153.391 117.658 153.17 116.567 153.556C115.476 153.943 114.22 153.86 113.115 154.247C112.01 154.634 111.375 156.265 110.284 156.652C109.194 157.039 107.578 155.947 106.487 156.334C105.396 156.721 104.375 157.315 103.284 157.702C102.193 158.089 101.392 159.305 100.301 159.692C99.2105 160.079 98.0506 160.259 96.946 160.646C95.8413 161.032 95.2199 162.718 94.1291 163.105C93.0383 163.492 91.7818 163.437 90.6909 163.824C89.6001 164.211 88.5369 164.681 87.4461 165.068C86.3552 165.455 84.6292 164.059 83.5384 164.446C82.4476 164.833 82.0885 167.292 80.9977 167.679C79.9069 168.066 78.678 168.053 77.5733 168.439C76.4273 168.84 75.1707 168.509 74.3423 168.895C73.1548 169.421 72.4782 170.236 71.8292 170.844C71.0145 171.604 70.2413 172.323 70.1584 173.497C70.1032 174.368 69.8961 175.542 70.1584 176.786C70.3517 177.698 71.1664 178.596 71.5116 179.771C71.6911 180.379 72.0777 180.904 72.2849 181.485C72.7267 182.714 72.2158 184.317 72.7681 185.257C73.4309 186.376 74.7427 187.081 75.585 187.772C76.5239 188.546 77.9738 187.841 79.1474 188.09C80.2245 188.311 81.2601 189.859 82.558 189.652C83.6212 189.486 85.0849 189.721 86.3138 189.265C87.4322 188.85 88.2883 187.745 89.393 187.316C90.4976 186.888 91.2018 185.409 92.3065 184.981C93.4111 184.552 94.7505 184.677 95.8551 184.248C96.9598 183.82 97.9677 183.115 99.0724 182.687C100.177 182.258 101.544 182.493 102.662 182.079C103.878 181.623 105.231 181.789 106.473 181.443C107.716 181.098 108.724 180.725 110.05 180.683C111.279 180.642 112.494 179.951 113.847 180.324C114.427 181.54 115.269 182.825 115.711 184.262C116.07 185.423 115.78 186.777 116.139 187.924C116.498 189.071 116.885 190.218 117.244 191.379C117.603 192.54 119.674 193.175 120.019 194.336C120.364 195.497 120.281 196.782 120.627 197.943C120.972 199.104 120.792 200.417 121.138 201.577C121.483 202.738 122.394 203.719 122.753 204.88C123.112 206.041 121.621 207.768 121.98 208.929C122.325 210.021 122.864 211.099 123.236 212.177C123.609 213.254 124.451 214.208 124.852 215.286C125.252 216.364 125.294 217.621 125.749 218.685C126.219 219.777 127.669 220.288 128.318 220.965C129.091 221.767 129.906 223.038 130.955 223.19C131.866 223.315 132.736 221.629 133.882 221.214C134.835 220.869 136.064 221.283 136.989 220.855C137.914 220.426 138.826 219.998 139.723 219.528C140.621 219.058 141.615 218.768 142.499 218.271C143.382 217.773 144.418 217.538 145.302 217.041C146.392 216.419 147.304 215.148 147.594 214.125C147.884 213.102 147.732 211.72 147.525 210.574C147.304 209.357 146.903 208.1 146.558 206.898C146.213 205.737 144.777 204.88 144.432 203.719C144.086 202.559 144.556 201.149 144.211 199.988C143.866 198.827 143.175 197.75 142.844 196.589C142.512 195.428 142.291 194.212 141.946 193.051C141.601 191.89 141.477 190.66 141.145 189.486C140.814 188.311 140.469 187.15 140.137 185.99C139.806 184.829 138.853 183.82 138.522 182.659C138.19 181.498 137.611 180.379 137.307 179.204C136.948 177.864 138.232 176.441 138.094 175.487C137.859 173.995 136.741 172.986 137.196 172.115C137.652 171.245 138.204 169.738 139.53 169.048C140.386 168.605 141.698 168.536 142.982 168.025C144.1 167.569 145.868 168.716 146.972 168.246C148.077 167.776 148.408 165.468 149.513 164.999C150.618 164.529 152.399 165.62 153.49 165.137C154.581 164.653 155.119 162.857 156.21 162.373C157.301 161.889 158.461 161.516 159.551 161.032C160.642 160.549 161.664 159.858 162.755 159.374C163.873 158.877 165.71 159.54 166.524 158.808C167.394 158.02 168.292 156.79 168.748 155.726C169.176 154.717 169.231 153.252 169.203 151.995C169.189 150.806 167.671 149.77 167.519 148.637C167.367 147.504 167.781 146.274 167.422 145.182C167.063 144.09 166.607 143.068 165.958 142.073C165.351 141.133 165.544 139.24 164.619 138.438C163.804 137.734 162.037 138.121 160.932 137.526L160.891 137.513Z" fill="black"/>
<path d="M303.873 90.1412C304.963 90.0306 306.206 91.4125 307.297 91.2881C308.388 91.1638 309.492 91.0808 310.583 90.9427C311.674 90.8045 312.737 90.3761 313.814 90.1826C314.891 89.9892 316.093 90.2932 317.17 90.0721C318.274 89.8371 319.269 89.0356 320.373 88.8422C321.478 88.6487 322.582 88.3585 323.701 88.1789C324.819 87.9992 325.869 87.3221 326.987 87.1701C328.106 87.0181 329.39 88.1927 330.522 88.0683C331.654 87.9439 332.69 87.1148 333.822 87.0042C334.954 86.8937 336.059 86.5897 337.191 86.5068C338.324 86.4239 339.401 85.6776 340.533 85.5947C341.665 85.5118 342.77 84.9176 343.902 84.8623C345.034 84.807 346.277 86.7831 347.409 86.7279C348.542 86.6726 349.563 84.5445 350.696 84.4892C351.828 84.4339 353.043 86.1475 354.175 86.106C355.307 86.0646 356.384 84.655 357.517 84.6136C358.649 84.5721 359.836 85.8711 360.969 85.8158C361.507 85.7882 361.839 85.8849 362.847 86.3962C362.847 87.3497 363.799 88.5243 363.592 89.6713C363.413 90.7077 363.137 91.7442 362.902 92.7668C362.667 93.7894 361.176 94.5494 360.969 95.572C360.762 96.5946 360.43 97.6863 360.334 98.7366C360.237 99.7453 360.168 100.782 360.085 101.791C360.002 102.799 360.9 103.891 360.858 104.914C360.817 105.936 359.933 106.959 359.947 107.968C359.961 108.976 361.466 109.93 361.562 110.939C361.673 112.155 361.148 113.274 361.618 114.048C362.17 114.974 363.275 115.015 364.296 115.402C365.166 115.72 366.009 116.577 367.196 116.549C368.259 116.522 369.323 116.729 370.4 116.674C371.477 116.618 372.485 116.121 373.562 116.066C374.639 116.01 375.605 114.877 376.696 114.822C377.732 114.767 379.665 116.452 380.756 116.411C381.391 114.241 381.984 112.611 382.192 111.409C382.385 110.275 381.612 108.976 381.805 107.843C381.998 106.71 381.529 105.466 381.722 104.333C381.915 103.2 383.49 102.302 383.669 101.169C383.849 100.036 383.835 98.8609 384.014 97.7278C384.194 96.5946 383.144 95.2542 383.338 94.121C383.531 92.9879 385.091 92.0758 385.285 90.9427C385.478 89.8095 385.16 88.5934 385.34 87.4603C385.519 86.3271 384.953 85.0696 385.146 83.9364C385.34 82.8033 385.243 81.6287 385.437 80.4817C385.602 79.4453 386.624 78.5609 386.803 77.5244C386.983 76.488 387.687 75.5483 387.839 74.5119C387.991 73.4755 386.665 72.287 386.762 71.2368C386.859 70.1451 386.997 69.4265 386.748 68.5145C386.458 67.4919 386.5 66.6074 385.837 65.875C385.174 65.1426 384.87 63.5535 383.89 63.1803C383.006 62.8487 381.708 63.6087 380.604 63.6087C379.195 63.6087 377.745 63.208 376.337 63.3185C374.929 63.4291 373.493 63.1251 372.084 63.2494C370.938 63.3462 369.861 64.1891 368.729 64.2859C367.597 64.3826 366.409 63.968 365.263 64.0648C364.117 64.1615 363.054 65.0874 361.908 65.1703C360.762 65.2532 359.533 64.2582 358.4 64.3411C357.268 64.424 356.246 66.0547 355.1 66.1514C353.954 66.2481 352.725 65.267 351.593 65.3637C350.461 65.4605 349.398 66.5798 348.252 66.6765C347.105 66.7733 345.849 65.4052 344.717 65.5019C343.584 65.5987 342.521 66.6765 341.375 66.7595C340.229 66.8424 339.152 67.6024 338.006 67.6853C336.86 67.7682 335.742 68.0032 334.595 68.0999C333.449 68.1966 332.22 67.1187 331.074 67.2155C329.928 67.3122 328.837 67.9755 327.691 68.0723C326.545 68.169 325.427 68.4454 324.281 68.5283C323.135 68.6112 322.003 68.7079 320.856 68.8047C319.71 68.9014 318.468 67.713 317.335 67.7959C316.203 67.8788 315.099 68.5421 313.952 68.625C312.806 68.7079 311.729 69.5647 310.583 69.6476C309.437 69.7305 308.195 68.4454 307.048 68.5421C305.902 68.6388 304.839 69.6062 303.693 69.6891C302.561 69.772 301.387 69.4818 300.283 69.6062C299.178 69.7305 298.336 71.1124 297.259 71.4026C296.182 71.6928 293.917 70.4629 292.923 71.0572C292.688 72.1765 292.495 73.6828 292.329 74.581C292.122 75.7418 292.357 76.8473 292.274 77.7317C292.15 78.9201 291.943 80.0257 292.012 80.9239C292.094 81.9603 293.006 82.8586 293.323 83.8812C293.71 85.1111 293.793 86.4515 294.373 87.3635C295.036 88.4276 295.864 89.6022 296.789 90.2517C297.714 90.9012 299.261 90.5143 300.49 90.7492C301.553 90.9427 302.575 90.2793 303.873 90.155V90.1412Z" fill="black"/>
<path d="M118.542 110.773C119.895 110.289 121.207 110.552 122.284 110.4C123.015 111.284 122.532 112.113 122.808 112.998C123.126 114.007 124.797 114.642 124.838 115.623C124.88 116.66 125.059 117.613 125.183 118.594C125.321 119.686 124.603 120.875 124.728 121.966C124.852 123.058 126.039 123.998 126.191 125.089C126.343 126.181 126.536 127.231 126.716 128.309C126.896 129.387 126.978 130.451 127.213 131.529C127.434 132.552 126.233 134.224 126.771 135.205C127.31 136.186 129.588 135.923 130.278 136.711C131.148 137.706 132.35 138.95 133.565 138.646C134.725 138.356 136.05 138.646 137.196 138.3C138.342 137.955 139.157 136.628 140.303 136.255C141.449 135.882 142.775 136.158 143.921 135.758C145.067 135.357 145.605 134.569 146.765 134.182C146.765 132.787 146.572 131.833 146.586 130.589C146.613 129.235 146.889 128.019 146.751 126.748C146.641 125.642 147.58 124.426 147.469 123.321C147.359 122.215 147.677 121.068 147.552 119.963C147.428 118.857 145.757 117.917 145.647 116.812C145.536 115.706 145.647 114.573 145.536 113.468C145.426 112.362 144.735 111.326 144.611 110.22C144.487 109.115 145.163 107.926 145.039 106.821C144.915 105.715 145.799 104.499 145.674 103.394C145.55 102.288 145.246 101.196 145.122 100.105C144.998 99.0129 144.1 97.9903 143.962 96.8848C143.824 95.7793 143.658 94.6876 143.534 93.5821C143.41 92.4766 143.313 91.371 143.175 90.2655C143.023 89.0633 142.775 87.9854 142.291 87.101C141.739 86.0784 141.09 85.0834 140.193 84.503C139.295 83.9226 138.135 83.5081 136.989 83.4113C135.981 83.3284 135.125 84.7241 133.979 85.042C132.474 85.4565 130.665 84.8347 129.188 85.3736C128.111 85.7605 126.799 85.4703 125.736 85.8573C124.672 86.2442 123.72 86.9766 122.643 87.3635C121.566 87.7505 120.751 88.8284 119.674 89.2153C118.597 89.6022 117.382 89.5746 116.319 89.9615C115.255 90.3484 114.303 91.1085 113.239 91.4816C112.176 91.8547 111.527 93.4577 110.45 93.8447C109.373 94.2316 107.606 92.6562 106.529 93.0293C105.452 93.4024 104.665 94.5632 103.588 94.9502C102.511 95.3371 101.337 95.4062 100.26 95.7931C99.1829 96.1801 98.5477 97.7692 97.4707 98.1562C96.3936 98.5431 95.4133 99.165 94.3501 99.5519C93.2868 99.9388 91.768 99.1097 90.7048 99.4966C89.6415 99.8835 88.3574 99.6901 87.2804 100.077C86.2033 100.464 85.4025 101.597 84.3393 101.984C83.276 102.371 82.3785 103.283 81.3153 103.656C80.2521 104.029 78.678 103.034 77.601 103.421C76.5239 103.808 75.5712 104.485 74.4942 104.872C73.4171 105.259 72.2435 105.356 71.1802 105.743C70.117 106.13 69.0262 106.475 67.9492 106.862C66.8721 107.249 66.3336 109.087 65.2566 109.474C64.1796 109.861 62.6055 108.838 61.5423 109.225C60.479 109.612 59.402 109.985 58.325 110.372C57.2204 110.773 56.0881 111.436 54.9282 112.072C53.9617 112.597 52.3185 113.302 51.0896 113.924C51.3105 114.988 52.0424 116.632 52.1942 117.586C52.3599 118.664 52.4566 119.7 52.6499 120.653C52.857 121.69 53.6165 122.56 54.0031 123.486C54.5278 124.758 55.3839 125.684 55.9776 126.665C56.6956 127.867 56.8475 129.359 57.7174 130.092C58.7116 130.935 59.9819 131.626 61.2385 131.861C62.3569 132.082 63.4754 130.52 64.8562 130.271C65.9608 130.064 67.0655 130.023 68.3634 129.511C69.6752 129 71.5807 129.981 72.8924 129.442C74.2042 128.903 74.8255 126.9 76.0821 126.264C77.1177 125.739 78.3328 125.545 79.3684 125.048C80.404 124.55 81.5362 124.191 82.5856 123.721C83.6351 123.251 85.1815 123.887 86.2448 123.431C87.308 122.975 88.026 121.718 89.103 121.289C90.18 120.861 91.4642 120.971 92.5412 120.557C93.6182 120.142 94.4881 119.189 95.579 118.788C96.6698 118.387 97.9816 118.622 99.0586 118.221C100.136 117.821 100.964 116.674 102.055 116.287C103.146 115.9 103.933 114.628 105.024 114.255C106.114 113.882 107.716 114.946 108.807 114.559C109.898 114.172 110.782 113.205 111.886 112.832C112.991 112.459 113.93 111.657 115.021 111.27C116.111 110.883 117.451 111.215 118.542 110.814V110.773Z" fill="black"/>
<path d="M254.647 198.109C254.73 199.435 256.304 200.375 256.553 201.412C256.856 202.711 256.774 203.775 257.353 204.687C258.016 205.723 258.43 206.898 259.494 207.478C260.446 207.989 261.634 208.362 262.946 208.542C264.009 208.694 265.252 209.385 266.577 209.344C267.903 209.302 268.883 207.727 269.891 207.464C271.148 207.133 272.018 206.884 272.86 206.138C273.702 205.391 275.235 205.032 275.732 203.816C276.119 202.849 275.345 201.384 275.58 200.071C275.746 199.145 275.207 198.192 275.304 197.252C275.401 196.312 277.251 195.469 277.237 194.544C277.237 193.479 276.339 192.415 276.326 191.351C276.312 190.287 276.091 189.223 276.077 188.159C276.063 187.095 277.389 185.99 277.361 184.926C277.334 183.861 277.044 182.797 277.016 181.719C276.988 180.642 277.389 179.564 277.334 178.486C277.278 177.353 274.903 176.344 274.834 175.211C274.765 174.078 274.752 172.958 274.682 171.839C274.613 170.72 276.215 169.476 276.132 168.343C276.049 167.21 276.16 166.063 276.063 164.943C275.967 163.824 274.199 162.843 274.103 161.71C273.978 160.328 273.868 159.568 273.067 158.683C272.266 157.799 271.686 156.845 270.25 156.707C269.215 156.61 268.22 155.933 267.185 155.864C266.149 155.795 265.086 156.141 264.037 156.127C262.987 156.113 261.993 156.873 260.957 156.942C259.77 157.011 258.527 156.223 257.34 156.293C256.152 156.362 254.992 157.025 253.805 157.094C252.617 157.163 251.43 157.315 250.242 157.37C249.055 157.426 247.867 157.813 246.68 157.854C245.492 157.896 244.291 157.854 243.104 157.882C241.916 157.909 240.701 156.984 239.514 157.011C238.326 157.039 237.139 156.928 235.951 156.928C234.764 156.928 233.576 157.509 232.389 157.509C231.201 157.509 230 157.813 228.812 157.785C227.625 157.757 226.437 157.536 225.25 157.495C224.062 157.453 222.889 156.956 221.701 156.901C220.514 156.845 219.34 156.431 218.153 156.376C216.965 156.32 215.695 157.661 214.507 157.592C213.32 157.522 212.105 157.619 210.917 157.522C209.73 157.426 208.625 156.306 207.438 156.196C206.264 156.085 205.104 155.698 203.93 155.657C202.757 155.615 201.542 154.8 200.368 154.828C199.194 154.855 198.103 156.79 196.93 156.859C195.756 156.928 194.624 157.274 193.45 157.384C192.304 157.481 191.351 156.997 190.509 157.509C189.598 158.048 188.424 158.407 187.899 159.333C187.402 160.203 187.899 161.447 187.775 162.553C187.651 163.603 187.098 164.57 187.14 165.607C187.181 166.643 187.996 167.472 188.272 168.495C188.548 169.517 188.244 170.609 188.783 171.563C189.446 172.751 189.708 174.202 190.537 175.031C191.462 175.943 193.077 175.86 194.196 176.399C195.314 176.938 196.294 177.781 197.565 178.016C198.752 178.223 200.023 177.684 201.321 177.684C202.439 177.684 203.557 178.403 204.676 178.403C205.794 178.403 206.913 177.408 208.045 177.408C209.177 177.408 210.282 177.505 211.4 177.505C212.519 177.505 213.637 179.163 214.756 179.163C215.874 179.163 216.993 178.845 218.125 178.859C219.257 178.873 220.362 178.997 221.48 179.011C222.599 179.025 223.717 179.08 224.849 179.08C225.954 179.08 227.073 178.513 228.177 178.513C229.282 178.513 230.4 177.436 231.505 177.436C232.61 177.436 233.728 178.804 234.833 178.804C235.937 178.804 237.056 179.426 238.16 179.426C239.265 179.426 240.383 178.14 241.502 178.14C242.62 178.14 243.725 177.021 244.843 177.021C245.962 177.021 247.067 178.375 248.185 178.375C249.303 178.375 250.408 177.311 251.526 177.311C252.645 177.311 253.308 178.652 254.426 178.652C254.523 179.951 255.779 180.545 255.848 181.498C255.959 182.742 255.407 183.834 255.407 184.87C255.407 185.962 255.904 187.081 255.876 188.187C255.848 189.292 254.274 190.343 254.247 191.434C254.219 192.526 255.835 193.659 255.835 194.751C255.835 195.842 254.592 196.976 254.647 198.067V198.109Z" fill="black"/>
<path d="M483.57 128.917C482.396 128.834 481.112 130.354 479.938 130.258C478.765 130.161 477.605 129.981 476.445 129.885C475.285 129.788 474.111 129.567 472.952 129.47C471.792 129.373 470.563 129.76 469.403 129.636C468.243 129.511 467.263 127.522 466.103 127.397C464.943 127.273 463.604 128.793 462.43 128.655C461.256 128.516 460.055 128.724 458.895 128.586C457.735 128.447 456.741 126.927 455.581 126.775C454.421 126.623 453.372 125.656 452.212 125.49C451.052 125.324 449.561 127.522 448.401 127.356C447.241 127.19 446.164 126.43 445.004 126.25C443.844 126.071 442.933 124.385 441.773 124.191C440.613 123.998 439.122 125.877 437.962 125.67C436.802 125.462 435.946 123.638 434.786 123.417C433.626 123.196 432.618 122.326 431.472 122.104C430.243 121.87 428.959 121.593 427.717 121.414C426.474 121.234 424.941 123.5 423.698 123.376C422.456 123.251 421.351 121.538 420.095 121.455C418.838 121.372 417.609 120.571 416.353 120.515C415.041 120.46 413.964 122.022 413.025 122.436C411.948 122.906 410.374 123.072 409.752 124.094C409.214 124.993 408.33 126.292 408.137 127.563C407.971 128.724 408.827 130.009 408.827 131.087C408.827 132.261 409.78 133.243 410.001 134.293C410.236 135.426 409.366 136.932 409.877 137.913C410.388 138.895 411.478 139.682 412.293 140.47C413.052 141.216 414.116 141.741 415.165 142.308C416.09 142.805 417.084 143.441 418.231 143.773C419.238 144.063 420.536 143.123 421.724 143.289C422.87 143.441 423.975 143.8 425.121 143.952C426.267 144.104 427.289 145.058 428.435 145.21C429.581 145.362 430.892 144.201 432.025 144.353C433.157 144.505 434.096 146.246 435.242 146.398C436.388 146.55 437.631 145.845 438.777 145.997C439.923 146.149 440.972 146.965 442.105 147.103C443.237 147.241 444.493 146.578 445.639 146.716C446.785 146.854 447.862 147.421 449.009 147.559C450.155 147.697 451.314 147.67 452.447 147.822C453.51 147.96 454.546 148.347 455.623 148.485C456.7 148.623 457.735 148.899 458.826 149.038C459.917 149.176 460.828 150.378 461.905 150.516C462.982 150.654 464.128 150.005 465.219 150.143C466.31 150.281 467.332 150.502 468.423 150.627C469.513 150.751 470.756 149.245 471.847 149.383C472.938 149.521 473.352 151.138 474.457 151.276C474.332 152.631 474.125 153.46 474.029 154.538C473.918 155.837 473.891 156.984 473.752 158.144C473.614 159.305 473.891 160.521 473.725 161.696C473.559 162.87 474.084 164.128 473.904 165.289C473.725 166.45 471.792 167.403 471.667 168.564C471.543 169.725 471.916 170.996 471.875 172.171C471.833 173.594 472.468 174.893 472.717 175.971C473.034 177.325 473.877 178.223 474.678 179.108C475.478 179.992 476.031 181.581 477.315 182.065C478.364 182.466 479.745 182.908 481.14 183.088C482.065 183.212 483.128 181.899 484.067 181.885C485.503 181.858 486.401 181.167 487.436 180.807C488.665 180.379 489.397 180.144 490.212 179.135C490.902 178.279 491.468 177.436 491.979 176.095C492.421 174.921 493.125 173.912 493.236 172.682C493.332 171.521 494.948 170.499 495.058 169.352C495.169 168.205 494.368 166.961 494.478 165.8C494.589 164.639 494.119 163.437 494.216 162.276C494.313 161.115 494.989 160.01 495.086 158.849C495.182 157.688 494.865 156.5 494.962 155.339C495.058 154.178 495.97 153.087 496.066 151.94C496.163 150.793 495.169 149.535 495.265 148.374C495.362 147.214 495.749 146.08 495.845 144.92C495.942 143.759 496.135 142.612 496.218 141.451C496.301 140.29 497.295 139.199 497.364 138.038C497.433 137.001 496.094 135.923 495.762 134.832C495.459 133.823 494.52 133.643 494.257 132.565C492.932 132.358 492.531 130.576 491.302 130.341C490.004 130.106 488.541 130.99 487.284 130.797C486.028 130.603 484.868 129 483.584 128.903L483.57 128.917Z" fill="black"/>
<path d="M416.256 111.022C417.706 111.381 418.783 112.1 420.108 111.726C421.434 111.353 422.635 110.759 423.754 109.819C424.596 109.115 426.198 109.28 427.012 108.548C427.827 107.816 428.656 107.083 429.456 106.337C430.257 105.591 430.382 104.112 431.182 103.366C431.983 102.62 432.729 101.804 433.53 101.072C434.289 100.367 435.932 100.63 436.899 99.7592C437.603 99.1097 437.479 98.4464 438.473 97.5343C438.804 98.6398 439.716 98.6122 440.033 99.6348C440.365 100.74 439.426 102.177 439.743 103.2C440.075 104.292 440.489 105.314 440.807 106.337C441.138 107.415 441.083 108.576 441.4 109.612C441.718 110.649 443.458 111.312 443.748 112.376C444.051 113.44 444.162 114.463 444.714 115.292C445.294 116.176 446.675 116.01 447.517 116.646C448.36 117.282 448.719 118.18 449.727 118.581C450.873 119.023 451.853 119.396 453.027 119.451C454.2 119.506 455.623 120.529 456.782 120.211C457.942 119.893 458.315 117.779 459.337 117.157C460.359 116.535 462.458 117.213 463.272 116.342C464.087 115.471 464.28 113.937 464.805 112.86C465.33 111.782 465.73 110.607 465.91 109.391C466.103 108.106 466.779 106.752 466.683 105.549C466.586 104.347 465.758 103.048 465.412 101.846C465.067 100.644 463.466 99.9665 462.927 98.8195C462.388 97.6725 462.761 96.1248 462.126 95.0469C461.615 94.1763 460.842 93.4577 460.303 92.5871C459.765 91.7165 459.751 90.5005 459.157 89.6713C458.564 88.8422 458.232 87.7367 457.597 86.9628C456.962 86.1889 455.277 86.2857 454.559 85.5671C453.717 84.7379 454.007 82.9968 453.33 82.1538C452.599 81.2279 451.19 80.8825 450.679 79.9289C450.127 78.9063 450.458 77.6626 450.196 76.5709C449.934 75.4792 449.837 74.5672 449.878 73.4064C449.92 72.3285 450.389 71.4856 450.735 70.3386C451.038 69.316 451.204 68.3625 451.743 67.2846C452.226 66.3173 450.969 64.6866 451.218 63.5949C451.466 62.5032 452.709 61.6464 452.889 60.5824C453.109 59.2834 453.648 58.0673 453.689 56.9756C453.745 55.6352 453.662 54.2671 453.427 53.2169C453.137 51.9317 452.861 50.2458 452.129 49.3752C451.397 48.5046 449.05 49.7345 447.835 49.237C446.841 48.8363 446.261 46.4179 444.921 46.2521C443.831 46.1277 442.519 47.4267 441.207 47.4405C439.854 47.4544 438.363 46.6252 437.258 47.0398C436.057 47.482 436.043 49.6101 435.159 50.5222C434.331 51.3651 432.398 51.4204 431.859 52.6779C431.486 53.5347 430.561 54.2395 430.243 55.1377C429.926 56.0359 429.829 57.1 429.608 57.9982C429.332 59.159 429.222 60.2369 428.807 61.3286C428.393 62.4203 428.255 63.5949 427.744 64.6452C427.233 65.6954 426.267 66.4831 425.701 67.5057C425.134 68.5283 424.693 69.6062 424.099 70.6288C423.491 71.679 424.43 73.6828 423.781 74.6916C423.132 75.7003 420.578 75.4516 419.874 76.4327C419.169 77.4139 418.645 78.478 417.913 79.4315C417.181 80.385 416.656 81.4767 415.883 82.4025C415.11 83.3284 414.627 84.4754 413.812 85.3736C412.997 86.2719 412.031 86.9904 411.188 87.861C410.346 88.7316 409.863 89.9339 408.993 90.7768C408.095 91.6474 407.101 92.4351 406.245 93.3472C405.389 94.2592 404.16 94.8949 403.373 95.876C402.324 97.1888 401.343 98.8195 401.302 100.091C401.26 101.362 402.061 103.159 403.111 104.485C403.898 105.48 405.928 105.301 406.825 106.144C407.723 106.986 408.413 107.968 409.449 108.659C410.484 109.35 411.133 110.745 412.279 111.243C413.425 111.74 414.999 110.731 416.242 111.035L416.256 111.022Z" fill="black"/>
<path d="M180.415 142.957C181.686 143.856 183.771 143.427 185.151 144.16C186.311 144.781 186.767 146.868 187.899 147.283C189.128 147.725 190.702 146.274 191.917 146.343C193.132 146.412 194.555 147.711 195.797 147.227C196.847 146.827 198.186 146.191 199.277 145.307C200.147 144.588 200.299 142.916 201.196 141.838C201.914 140.981 203.544 140.884 204.262 140.014C204.98 139.143 205.67 138.286 206.402 137.416C207.134 136.545 206.733 134.79 207.479 133.92C208.225 133.049 209.357 132.593 210.102 131.709C210.807 130.866 211.539 129.511 212.284 128.613C212.754 129.567 214.121 130.423 214.521 131.225C214.991 132.165 214.991 133.243 215.391 134.044C215.833 134.956 216.275 135.813 216.661 136.67C217.172 137.803 217.752 138.95 218.249 140.097C218.746 141.244 217.987 142.874 218.373 144.063C218.732 145.168 220.362 145.528 221.038 146.329C221.756 147.172 221.632 149.217 222.599 149.742C223.565 150.268 224.988 150.35 226.078 150.558C227.169 150.765 228.329 149.286 229.42 149.203C230.511 149.121 231.325 148.803 232.361 148.43C233.397 148.056 234.791 148.582 235.661 147.932C236.711 147.144 237.387 146.053 238.133 145.127C238.947 144.118 240.494 143.469 240.95 142.322C241.405 141.175 241.281 139.668 241.336 138.383C241.391 137.181 240.618 135.979 240.328 134.707C240.066 133.547 241.046 131.792 240.48 130.589C239.997 129.553 238.008 129.29 237.429 128.323C236.849 127.356 235.73 126.817 235.067 125.891C234.405 124.965 233.769 124.15 233.038 123.279C232.306 122.408 231.809 121.427 231.022 120.612C230.235 119.797 230.248 118.221 229.434 117.434C228.605 116.646 226.921 116.743 226.106 115.941C225.291 115.14 224.739 114.048 223.938 113.26C223.137 112.473 222.543 111.409 221.743 110.607C220.942 109.806 220.348 108.811 219.547 108.023C219.699 106.904 219.547 105.812 219.713 104.734C219.879 103.656 219.285 102.412 219.45 101.348C219.616 100.284 221.936 99.4552 222.088 98.3773C222.24 97.2994 220.238 95.9037 220.362 94.8258C220.486 93.7479 222.709 92.822 222.778 91.7165C222.875 90.3623 222.254 88.7731 222.046 87.3774C221.839 85.9817 220.748 84.7656 220.362 83.4528C219.975 82.1676 218.788 80.5232 217.49 79.8875C216.344 79.3209 215.046 78.8787 213.844 78.6852C212.643 78.4918 211.373 79.4729 210.158 79.6526C208.943 79.8322 207.534 79.4453 206.43 79.9842C205.325 80.5232 203.751 80.7995 202.853 81.6701C201.956 82.5407 202.26 84.3787 201.693 85.5118C201.127 86.645 199.36 87.4188 199.167 88.704C199.001 89.851 199.374 91.0394 199.139 92.1587C198.904 93.2781 198.987 94.4803 198.697 95.5858C198.407 96.6914 197.358 97.5758 197.012 98.6675C196.667 99.7592 197.827 101.39 197.427 102.454C197.026 103.518 195.079 103.988 194.624 105.038C194.168 106.088 195.287 107.871 194.789 108.907C194.292 109.944 193.381 110.801 192.829 111.809C192.276 112.818 190.495 113.122 189.915 114.103C189.335 115.084 189.68 116.646 189.073 117.613C188.465 118.581 188.548 120.032 187.899 120.985C187.25 121.939 186.629 122.934 185.952 123.873C185.276 124.813 184.447 125.642 183.743 126.554C182.984 127.549 182.169 128.516 181.396 129.511C180.622 130.506 178.675 130.645 177.999 131.695C177.391 132.648 176.245 133.547 176.011 134.431C175.721 135.495 175.776 137.057 175.983 138.024C176.19 138.991 177.17 140.097 177.861 140.954C178.441 141.672 179.504 142.266 180.429 142.916L180.415 142.957Z" fill="black"/>
<path d="M237.649 286.108C237.304 284.947 237.194 284.339 236.517 283.704C235.744 282.971 235.344 281.907 234.239 281.852C233.314 281.81 232.416 282.46 231.312 282.888C230.152 283.344 229.309 284.588 228.163 285.044C227.086 285.472 225.637 284.961 224.546 285.389C223.455 285.818 222.751 287.158 221.674 287.587C220.597 288.015 219.533 288.471 218.443 288.899C217.352 289.328 216.316 289.812 215.225 290.254C214.134 290.696 212.367 289.3 211.276 289.729C210.185 290.157 209.495 291.484 208.404 291.912C208.045 290.862 206.885 290.102 206.526 289.051C206.167 288.001 205.739 286.979 205.38 285.928C205.021 284.878 206.029 283.372 205.67 282.322C205.311 281.271 204.179 280.484 203.82 279.447C203.461 278.411 203.847 277.098 203.488 276.048C203.129 274.998 202.039 274.21 201.68 273.173C201.334 272.165 201.169 271.101 200.81 270.092C200.451 269.083 199.843 268.185 199.484 267.176C199.125 266.167 199.277 264.993 198.918 263.984C198.559 262.975 197.275 262.326 196.902 261.331C196.529 260.336 197.661 258.76 197.275 257.765C196.833 256.632 196.074 255.471 195.411 254.863C194.61 254.131 193.119 254.338 192.028 254.393C191.144 254.449 189.791 254.145 188.728 254.739C187.72 255.292 186.726 255.927 185.745 256.535C184.765 257.143 183.895 257.945 182.942 258.567C181.989 259.189 181.423 260.446 180.471 261.082C179.476 261.745 177.985 261.469 177.322 262.008C176.356 262.795 176.314 264.205 175.969 265.006C175.624 265.808 175.734 266.72 175.928 267.936C176.066 268.779 176.701 269.594 177.046 270.755C177.364 271.819 176.811 273.146 177.129 274.21C177.447 275.274 177.888 276.31 178.206 277.374C178.524 278.438 179.145 279.42 179.463 280.484C179.78 281.548 180.995 282.349 181.327 283.413C181.658 284.477 181.299 285.749 181.63 286.813C181.962 287.877 180.733 289.438 181.064 290.502C181.396 291.567 183.536 292.036 183.895 293.087C184.254 294.137 183.135 295.712 183.508 296.762C183.881 297.813 185.704 298.324 186.09 299.374C186.491 300.452 186.905 301.516 187.333 302.58C187.761 303.644 187.085 305.164 187.526 306.228C187.968 307.293 188.079 308.522 188.548 309.573C189.018 310.623 190.039 311.438 190.55 312.461C191.061 313.483 192.428 314.064 192.994 315.059C193.561 316.054 193.008 317.74 193.63 318.707C194.251 319.674 195.425 320.49 196.101 321.416C197.109 321.346 198.297 320.421 199.539 320.158C200.575 319.937 201.983 320.835 203.143 320.503C204.179 320.199 205.104 319.26 206.222 318.887C207.258 318.527 208.377 318.223 209.467 317.809C210.503 317.408 211.193 316.081 212.257 315.639C213.32 315.197 214.203 314.506 215.253 314.036C216.302 313.566 217.531 313.594 218.567 313.11C219.602 312.627 220.472 311.853 221.48 311.341C222.488 310.83 223.51 310.333 224.504 309.808C225.498 309.282 226.852 309.338 227.832 308.785C228.812 308.232 229.807 307.61 230.759 307.03C231.712 306.45 232.389 305.316 233.314 304.708C234.294 304.059 235.703 304.114 236.6 303.478C237.567 302.774 238.395 301.972 239.237 301.295C240.19 300.521 240.439 299.595 241.184 298.863C240.922 297.785 240.204 297.066 239.955 295.947C239.707 294.828 240.894 293.418 240.646 292.313C240.397 291.207 238.837 290.433 238.561 289.328C238.285 288.222 237.926 287.2 237.594 286.108H237.649Z" fill="black"/>
<path d="M498.179 51.2546C496.619 51.1578 495.1 50.3149 493.539 50.3425C492.269 50.3702 491.385 51.1855 490.474 51.3928C489.273 51.6691 488.845 52.0561 488.099 52.7608C487.353 53.4656 487.091 53.9355 486.635 55.1239C486.29 56.0083 484.606 56.6025 484.357 57.8324C484.108 59.0485 485.42 60.5133 485.268 61.757C485.116 63.0007 484.026 64.1339 483.736 65.3637C483.446 66.5936 482.824 67.409 482.162 68.5283C480.297 68.6388 478.944 69.3436 477.425 69.5371C476.086 69.7167 474.609 68.7079 473.697 69.0534C472.51 69.5094 472.827 71.5685 472.206 72.5358C471.681 73.3511 470.701 73.9039 470.439 75.2581C470.218 76.3913 470.659 77.5935 470.508 78.7267C470.356 79.8598 468.989 80.8548 468.878 82.0018C468.768 83.1488 468.229 84.2681 468.146 85.4151C468.05 86.5759 468.809 87.7781 468.878 88.8422C468.947 90.0168 469.693 90.9565 470.024 91.9791C470.383 93.0708 469.721 94.7982 470.452 95.6549C471.143 96.4564 472.979 95.9728 474.07 96.5255C474.968 96.9816 475.617 98.474 476.845 98.7228C477.066 98.7642 476.707 98.8471 477.301 99.7177C477.218 100.713 476.997 101.639 476.887 102.882C476.79 103.974 476.21 105.231 476.238 106.378C476.266 107.525 477.246 108.645 477.329 109.792C477.412 110.939 476.997 112.141 477.108 113.274C477.218 114.407 479.345 115.306 479.497 116.439C479.662 117.696 479.027 118.774 479.828 119.451C480.629 120.128 481.623 120.736 482.824 120.888C484.081 121.04 485.337 121.925 486.594 121.966C487.85 122.008 489.217 121.648 490.474 121.538C491.73 121.427 492.738 119.921 493.967 119.589C495.196 119.258 496.135 119.037 497.309 118.47C498.041 117.558 499.587 117.323 500.015 116.287C500.443 115.25 500.153 113.896 500.388 112.777C500.623 111.657 501.631 110.676 501.783 109.529C501.948 108.355 501.658 107.111 501.824 105.936C501.99 104.762 502.708 103.656 502.874 102.482C503.039 101.307 502.156 99.9803 502.321 98.7918C502.487 97.6034 502.722 96.4426 502.901 95.268C503.081 94.0934 502.763 92.8497 502.943 91.6613C503.122 90.4728 503.578 89.3535 503.743 88.1789C503.909 87.0043 505.4 86.0093 505.566 84.8347C505.732 83.6601 504.42 82.2644 504.586 81.0897C504.751 79.9151 506.298 78.9202 506.464 77.7455C506.629 76.5709 506.036 75.2858 506.187 74.1112C506.353 72.8674 505.566 71.5408 505.677 70.2833C505.787 69.0258 506.505 67.8512 506.574 66.5936C506.643 65.3361 506.726 64.0924 506.754 62.8487C506.781 61.605 507.168 60.3336 507.14 59.0899C507.113 57.7357 505.538 56.8789 505.29 55.8978C504.972 54.5988 504.834 54.0875 504.047 53.3274C503.26 52.5674 502.805 52.1113 501.507 51.7659C500.526 51.5033 499.532 51.3237 498.206 51.2408L498.179 51.2546Z" fill="black"/>
<path d="M241.198 113.551C241.171 114.808 241.433 115.941 241.612 117.033C241.82 118.277 242.386 119.189 242.883 120.197C243.407 121.275 243.987 121.98 244.885 122.768C245.713 123.514 246.445 124.15 247.646 124.606C248.654 124.993 249.759 124.633 251.057 124.799C251.278 124.827 251.057 126.485 251.527 127.065C251.609 128.088 250.822 129.138 250.891 130.202C250.96 131.266 253.101 132.165 253.17 133.229C253.239 134.293 253.114 135.315 253.225 136.366C253.335 137.416 252.728 138.535 252.907 139.585C253.17 141.036 254.067 142.018 254.412 143.013C254.923 144.464 254.661 146.039 255.545 146.675C256.428 147.31 257.851 146.274 259.383 146.288C260.433 146.288 261.689 147.352 263.139 147.158C264.064 147.034 265.003 146.951 265.942 146.827C266.881 146.702 267.903 146.91 268.814 146.688C270.236 146.357 271.092 145.058 272.045 144.505C273.205 143.828 274.558 143.427 275.083 142.239C275.525 141.244 275.069 139.862 275.138 138.383C275.193 137.264 276.215 136.172 276.257 135.053C276.298 133.934 275.58 132.773 275.635 131.64C275.691 130.506 275.083 129.359 275.124 128.24C275.166 127.121 274.848 125.974 274.876 124.854C274.903 123.735 276.063 122.643 276.105 121.51C276.146 120.377 276.975 119.285 277.002 118.152C277.03 117.019 277.458 115.914 277.486 114.78C277.513 113.647 277.03 112.514 277.058 111.395C277.085 110.275 276.85 109.142 276.878 108.009C276.906 106.876 277.472 105.77 277.499 104.637C277.527 103.49 275.718 102.33 275.732 101.183C275.746 100.036 277.417 98.9162 277.43 97.7693C277.444 96.6223 275.718 95.4753 275.718 94.3421C275.718 93.209 276.519 92.062 276.519 90.915C276.519 89.7681 276.574 88.6349 276.56 87.4741C276.547 86.3133 277.182 85.194 277.182 84.047C277.182 82.9 275.746 81.7669 275.746 80.6199C275.746 79.4729 276.588 78.2983 276.588 77.1513C275.539 76.7644 274.558 76.184 273.564 75.9767C272.487 75.7556 271.327 76.6677 270.292 76.5986C269.215 76.5157 268.234 76.5157 267.185 76.5433C266.135 76.5709 265.031 75.9491 263.981 76.0458C262.932 76.1426 261.938 77.1237 260.888 77.2204C259.728 77.3172 258.803 77.0822 257.947 77.3586C256.856 77.7041 255.641 77.5383 254.979 78.243C254.316 78.9478 254.868 80.233 254.55 81.3385C254.302 82.2091 252.838 82.9415 252.742 84.1023C252.645 85.3045 253.708 86.5759 253.653 87.7643C253.598 88.9527 251.913 90.1135 251.886 91.2881C251.844 92.518 253.487 94.0381 253.446 95.1851C252.728 95.7517 251.609 94.9225 251.333 95.0055C250.077 95.42 249.511 97.3961 248.53 97.7416C247.218 98.1976 245.437 96.9539 244.553 97.3961C243.283 98.018 242.869 99.5934 242.248 100.436C241.626 101.279 240.08 102.15 239.886 103.532C239.748 104.513 240.19 105.812 240.176 107.194C240.176 108.23 241.93 109.405 241.944 110.731C241.944 111.671 241.226 112.625 241.212 113.551H241.198Z" fill="black"/>
<path d="M268.358 253.357C267.93 252.417 266.398 252.404 266.025 251.574C265.611 250.662 266.895 249.073 266.55 248.189C266.108 247.028 263.995 246.475 263.567 245.314C263.139 244.154 264.34 242.371 263.912 241.196C263.484 240.022 261.62 239.4 261.178 238.225C260.736 237.051 260.267 235.931 259.77 234.784C259.135 233.292 259.024 231.869 257.878 231.288C256.732 230.708 255.13 230.127 253.612 230.652C252.617 230.998 252.024 232.407 251.043 232.781C250.063 233.154 248.765 232.712 247.812 233.126C246.859 233.541 246.321 234.784 245.41 235.296C244.498 235.807 243.794 236.47 242.952 237.106C242.109 237.742 241.032 237.852 240.301 238.626C240.37 239.856 238.92 241.044 239.141 241.929C239.403 243.02 239.969 244.043 240.245 245.135C240.522 246.226 241.06 247.249 241.35 248.327C241.64 249.405 243.366 250.096 243.67 251.174C243.974 252.252 244.471 253.26 244.788 254.338C245.106 255.416 243.394 257.088 243.725 258.166C244.056 259.244 244.843 260.17 245.175 261.248C245.506 262.326 246.818 263.086 247.149 264.15C247.481 265.214 246.652 266.665 246.997 267.729C247.343 268.793 249.428 269.277 249.787 270.341C250.146 271.405 248.737 273.063 249.11 274.127C249.483 275.191 249.856 276.241 250.215 277.305C250.574 278.369 251.568 279.212 251.941 280.263C252.314 281.313 252.231 282.543 252.617 283.593C253.004 284.643 252.963 285.859 253.349 286.91C253.736 287.96 255.13 288.637 255.531 289.687C255.931 290.737 255.489 292.105 255.876 293.142C256.263 294.178 258.541 294.524 258.941 295.574C259.411 296.79 259.756 297.882 260.143 298.835C260.654 300.12 261.013 301.06 261.496 301.889C262.214 303.105 262.297 303.796 263.374 304.059C264.257 304.28 265.058 304.004 266.494 303.63C267.433 303.382 268.8 303.99 270.071 303.52C271.037 303.161 271.686 301.654 272.887 301.157C273.84 300.77 275.152 301.171 275.911 300.549C276.671 299.927 277.196 298.96 277.679 298.089C278.162 297.218 278.328 296.293 278.424 295.242C278.507 294.316 279.515 293.087 279.225 292.023C278.894 290.82 276.616 290.074 276.339 288.844C276.063 287.614 275.911 286.357 275.677 285.113C275.442 283.869 276.602 282.391 276.367 281.147C276.132 279.903 275.787 278.867 275.525 277.623C276.643 277.153 277.196 275.896 278.259 275.44C279.322 274.984 280.661 275.205 281.78 274.735C282.802 274.307 284.597 274.431 285.757 273.961C285.867 272.773 285.798 271.073 285.77 269.94C285.743 268.807 284.321 267.715 284.169 266.596C284.017 265.476 285.411 263.97 285.135 262.851C284.859 261.731 282.802 261.123 282.429 260.032C282.056 258.94 281.435 258 280.979 256.936C280.523 255.872 281.904 253.951 281.379 252.901C280.924 251.989 279.156 252.169 278.273 251.865C277.389 251.561 276.768 252.169 275.815 252.404C274.586 252.708 273.371 252.818 272.128 253.219C270.968 253.592 269.684 252.956 268.4 253.357H268.358Z" fill="black"/>
<path d="M361.783 251.215C360.706 251.049 359.767 249.764 358.663 249.75C357.558 249.736 356.564 249.391 355.487 249.239C354.465 249.087 353.554 248.783 352.56 248.507C351.565 248.23 350.696 248.313 349.701 248.051C349.522 246.917 350.24 246.088 350.295 244.969C350.35 243.85 349.218 242.634 349.342 241.514C349.467 240.395 350.958 239.276 350.958 238.156C350.958 237.037 350.502 235.669 350.157 234.563C349.853 233.554 348.362 233.154 347.603 232.173C346.332 232.062 345.214 231.675 343.888 231.537C342.563 231.399 341.237 231.965 339.925 231.855C338.614 231.744 337.426 230.031 336.114 229.948C334.375 229.851 333.201 231.247 332.262 232.034C331.323 232.822 330.826 233.858 330.591 235.586C330.412 236.843 329.141 237.963 329.003 239.22C328.865 240.478 328.81 241.749 328.686 243.02C328.561 244.292 329.928 246.282 329.79 247.567C328.686 247.567 326.987 247.829 326.062 247.829C324.999 247.829 323.991 247.456 323.011 247.429C322.072 247.401 321.091 247.65 320.152 247.581C319.213 247.512 318.33 245.798 317.391 245.798C316.051 245.798 315.278 247.747 314.339 248.064C313.179 248.451 312.682 248.576 312.006 249.543C311.439 250.358 309.341 250.662 309.023 251.961C308.733 253.177 310.832 254.794 310.708 256.052C310.583 257.268 308.457 258.194 308.402 259.175C308.333 260.46 309.272 261.579 309.382 262.505C309.534 263.804 308.926 265.545 309.562 266.305C310.197 267.065 311.992 266.803 313.248 267.162C314.146 267.425 315.168 267.922 316.452 268.06C317.432 268.157 318.537 268.185 319.766 268.254C320.857 268.309 322.016 266.886 323.121 266.941C324.226 266.996 325.247 268.765 326.338 268.807C327.429 268.848 328.561 267.867 329.666 267.895C330.771 267.922 331.861 267.646 332.966 267.674C334.071 267.701 335.134 268.917 336.225 268.931C337.316 268.945 338.434 267.908 339.539 267.922C340.643 267.936 341.72 268.337 342.825 268.364C343.93 268.392 345.021 268.599 346.111 268.627C347.202 268.655 348.307 268.627 349.398 268.627C350.488 268.627 351.607 268.005 352.698 268.019C353.885 268.033 354.962 267.756 355.943 267.77C357.158 267.798 358.152 268.06 359.105 267.991C360.361 267.908 361.411 268.503 362.253 268.088C363.178 267.632 362.874 266.485 363.413 265.352C363.799 264.537 364.158 263.846 364.393 262.574C364.573 261.648 364.669 260.681 364.78 259.451C364.876 258.47 366.202 257.503 366.271 256.314C366.285 256.01 365.498 255.679 365.512 255.361C365.539 253.896 365.304 253.233 364.586 252.348C363.868 251.464 363.275 251.422 361.783 251.187V251.215Z" fill="black"/>
</svg>
