<svg xmlns="http://www.w3.org/2000/svg" width="793" height="95" viewBox="0 0 793 95" fill="none">
<g clip-path="url(#clip0_247_942)">
<path d="M207.479 0H0V95H207.479V0Z" fill="black"/>
<path d="M499.756 0H224.673V95H499.756V0Z" fill="black"/>
<path d="M793 0H517.917V95H793V0Z" fill="black"/>
<path d="M693.036 68.7659C691.518 68.1205 689.907 68.2907 688.317 68.2198C684.917 68.0685 682.92 66.2789 682.327 62.851C680.547 52.5956 678.456 42.5389 669.675 35.4822C667.097 33.4112 667.394 30.5105 668.665 27.6524C669.626 25.5034 671.088 23.7375 672.558 21.9573C673.017 21.4042 673.306 20.6807 672.784 20.0354C672.268 19.39 671.477 19.4609 670.834 19.78C669.252 20.5602 667.697 21.4112 666.165 22.2907C665.267 22.8084 664.441 23.8013 663.339 23.0283C662.279 22.2836 662.654 21.1417 662.922 20.0921C663.169 19.1276 663.904 17.9219 662.3 17.5176C661.085 17.2127 659.793 17.2978 658.888 18.4112C657.949 19.5602 657.871 21.0424 657.469 22.3971C656.833 24.5602 656.974 26.9644 655.674 28.9361C654.636 28.5105 654.601 27.7233 654.431 27.0708C653.541 23.6169 651.443 21.0566 648.596 19.0708C647.699 18.4467 646.661 18.1346 645.601 18.7375C644.52 19.3545 644.344 20.4254 644.485 21.5105C644.591 22.3829 644.817 23.2623 645.135 24.085C647.084 29.1346 646.321 33.4822 643.171 38.0921C637.152 46.8935 631.226 55.929 632.709 67.5176C632.935 69.2623 631.953 70.163 630.335 70.4467C628.068 70.8368 625.786 71.1701 623.526 71.5673C622.332 71.78 620.834 71.8084 620.841 73.5105C620.841 74.8226 622.07 75.2198 623.095 75.3758C628.513 76.1701 633.839 77.3332 639.427 77.0992C648.801 76.6949 658.111 75.1914 667.528 75.702C669.831 75.8226 672.134 75.702 674.246 76.9148C676.33 78.1134 678.315 77.7729 680.208 76.39C682.899 74.4183 686.057 73.9715 689.25 73.6453C690.479 73.5176 691.729 73.4467 692.916 73.1205C694.004 72.8226 694.725 71.9857 694.619 70.7446C694.541 69.7729 693.912 69.1488 693.043 68.78L693.036 68.7659ZM653.944 65.7729C654.304 67.9573 653.456 69.1488 651.196 69.319C649.967 69.4112 648.752 69.6453 647.529 69.8368C642.062 70.702 640.366 69.4467 640.423 63.8084C640.465 59.3545 641.581 55.1205 644.075 51.2339C647.31 46.1914 651.302 41.6382 654.276 36.1843C654.212 40.0779 653.696 43.9006 653.703 47.78C653.703 53.78 652.962 59.78 653.944 65.7659V65.7729ZM672.014 68.624C670.304 69.1985 668.552 69.3261 666.779 69.2481C663.374 69.0992 662.618 68.468 661.771 64.9573C660.796 60.9361 661.347 56.8297 661.319 52.7659C661.319 49.5744 661.276 46.3829 661.34 43.1914C661.361 42.1417 661.559 40.9857 662.809 40.6524C663.791 40.39 664.413 41.1914 665.105 41.7162C670.248 45.6169 672.134 51.3261 673.525 57.2552C674.09 59.6595 674.239 62.163 674.599 64.6169C674.91 66.7375 673.949 67.9715 672.006 68.624H672.014Z" fill="#FF5E39"/>
<path d="M144.03 52.8867C140.49 54.1703 137.474 56.4044 134.239 58.2271C131.208 59.9292 131.314 61.8228 134.041 63.9505C136.937 66.2129 139.961 65.9576 143.055 64.5533C146.142 63.1491 149.208 61.681 152.28 60.2413C152.111 61.5462 151.56 62.2058 151.009 62.8654C148.953 65.3051 146.862 67.7235 144.842 70.1987C143.669 71.6384 142.73 73.3476 144.157 75.0072C145.633 76.7306 147.441 75.6455 149.024 74.9079C150.684 74.142 151.722 72.6668 152.789 71.2342C154.117 69.454 155.219 67.454 157.225 66.0427C158.101 68.0001 156.999 69.5108 157.148 71.0923C157.282 72.5604 157.515 73.8866 158.843 74.8015C162.467 77.2909 165.928 75.7448 166.557 71.376C166.917 68.8866 165.935 66.1349 167.871 63.5249C170.188 65.5746 170.944 68.2413 172.455 70.3618C175.472 74.5959 178.156 75.1987 182.239 72.3264C184.599 70.6668 184.811 69.376 183.101 67.0214C181.999 65.5037 180.148 64.532 179.604 62.6526C180.466 61.8086 181.137 62.1491 181.723 62.5108C184.139 63.993 186.605 65.3476 188.83 67.1703C191.91 69.6881 195.52 68.9505 197.385 65.7377C199.002 62.9576 197.943 60.532 194.149 58.5959C191.938 57.4682 189.6 56.5888 187.424 55.4115C185.531 54.3831 183.165 53.9221 181.716 51.454C184.973 50.5533 187.721 51.0781 190.497 51.4753C194.827 52.0923 196.099 51.0427 196.41 46.915C196.791 41.7803 195.802 40.4044 191.366 40.2271C188.003 40.0923 184.627 40.2413 181.271 40.0427C179.392 39.9292 178.764 38.7661 179.986 37.1278C180.727 36.1349 181.646 35.2838 182.493 34.376C184.309 32.4044 185.92 30.2625 187.022 27.8228C188.208 25.1987 187.551 22.9718 185.496 21.7661C183.412 20.5462 181.123 21.071 179.47 23.2909C178.523 24.5675 177.859 26.071 176.899 27.3335C174.709 30.22 173.127 33.6597 169.63 35.837C168.323 33.5533 168.853 31.4682 169.086 29.4115C169.305 27.4753 169.764 25.532 169.722 23.603C169.637 19.7164 167.334 18.2129 163.689 19.4327C160.673 20.4469 159.507 22.2129 159.79 25.4611C159.994 27.8157 160.948 30.2413 159.288 32.6101C155.996 30.9363 154.548 27.9505 152.443 25.6101C149.264 22.0923 145.958 21.5179 142.525 23.7661C140.264 25.2483 139.862 26.9434 141.437 29.1278C142.264 30.2696 143.302 31.2696 144.326 32.2484C146.7 34.5037 149.116 36.7093 151.842 39.2271C149.377 39.6597 147.844 38.6455 146.262 38.0072C143.535 36.9008 140.709 36.8654 137.884 37.1065C134.846 37.3618 133.342 38.8512 132.861 41.6739C132.395 44.454 133.433 46.3193 136.231 47.5746C138.202 48.4611 140.314 48.6739 142.447 48.8086C144.333 48.9292 146.354 48.7519 147.894 50.4186C147.109 52.1278 145.428 52.3973 144.001 52.915L144.03 52.8867Z" fill="#FF5E39"/>
<path d="M365.573 35.5886C364.436 35.2553 363.207 35.234 362.013 35.1064C358.283 34.7234 358.114 34.6738 359.244 31.2908C360.699 26.9149 360.812 22.5745 359.329 18.2624C357.577 13.1773 353.995 12.5461 350.322 16.5674C349.785 17.156 349.383 17.8723 348.874 18.4894C344.953 23.2979 341.4 28.4043 336.286 32.1489C331.962 35.3191 329.843 39.6808 330.26 45.2269C330.486 48.2269 330.302 51.2624 330.302 54.461C330.896 57.4894 330.613 60.6808 330.43 63.9007C330.196 68.0567 331.32 71.8227 334.449 74.8652C344.339 84.4752 357.902 81.7872 365.969 74.2837C368.54 71.8936 370.871 68.6596 367.869 64.7234C366.478 62.9007 367.565 61.3759 368.597 59.8014C370.179 57.3972 371.465 54.7518 370.32 51.8652C369.268 49.2128 369.706 46.8936 370.504 44.2908C371.846 39.8936 370.003 36.8794 365.581 35.5816L365.573 35.5886Z" fill="#FF5E39"/>
<path d="M322.334 74.227C325.831 72.4185 325.633 68.8937 325.365 65.7234C324.566 56.3334 323.761 46.9504 324.679 37.5178C324.912 35.149 323.719 33.5816 321.522 33.0781C315.39 31.6596 308.983 33.1206 307.266 41.0071C306.009 46.7802 306.306 52.5745 306.369 58.3972C306.15 62 305.875 65.5958 305.726 69.1986C305.62 71.688 305.924 74.3334 308.467 75.3972C313.193 77.383 317.926 76.5107 322.348 74.227H322.334Z" fill="#FF5E39"/>
<path d="M21.7432 75.9079C21.6796 75.9079 21.609 75.9079 21.5384 75.8937L17.8509 75.3476C17.1233 75.2412 16.6076 74.5887 16.6571 73.8582C17.1021 67.688 17.8862 60.4256 20.2739 53.3547C21.2275 50.532 21.7008 47.4185 22.16 44.4114C22.3366 43.2483 22.5132 42.0923 22.7181 40.9363C23.3609 37.3051 23.9684 33.6313 24.6112 29.7377C24.9079 27.9646 25.2046 26.1348 25.5296 24.227C25.6073 23.7731 25.8969 23.3902 26.3066 23.1916L34.5928 19.227C34.7835 19.1348 34.9884 19.0923 35.1932 19.0923C35.3557 19.0923 35.5253 19.1207 35.6807 19.1774C36.0339 19.3121 36.3235 19.5816 36.4718 19.9292C37.9059 23.2412 38.5628 26.7022 39.1915 30.0426C39.9615 34.1419 40.6962 38.0214 42.7659 41.4256C44.2141 41.0143 44.7792 39.8582 45.5068 38.1419C45.634 37.8512 45.754 37.5604 45.8812 37.2838C47.8026 33.0852 49.3285 29.2129 50.5364 25.4327C51.1439 23.532 52.3731 21.0001 55.9405 21.0001C56.1524 21.0001 56.3643 21.0072 56.5904 21.0285C56.8305 21.0497 57.0778 21.0568 57.325 21.0568C57.6217 21.0568 57.9043 21.0426 58.1798 21.0143C59.7197 20.8441 60.8288 20.7235 61.733 20.7235C62.6372 20.7235 63.7463 20.8299 64.5586 21.6526C65.6536 22.766 65.6324 24.4327 65.5971 27.759C65.5759 29.9717 65.5688 32.1845 65.5617 34.3973C65.5476 39.9575 65.5335 45.7093 65.2085 51.3689C64.9189 56.3263 64.1207 61.298 63.3436 66.1065C63.1953 67.0285 63.0469 67.9504 62.8986 68.8724C62.5595 71.0214 62.0438 72.8015 59.091 72.8015C58.4411 72.8015 57.6641 72.7306 56.5338 72.6171C55.8698 72.5462 55.3471 72.0143 55.2835 71.3476C55.2552 71.0568 55.2199 70.766 55.1846 70.4682C55.0928 69.7519 54.9868 68.9363 55.0363 68.1065C55.5096 58.9363 55.9334 51.4611 56.3643 44.5816C56.4915 42.5462 55.9828 41.3192 54.6195 40.4824C52.7404 41.1065 51.3135 42.6313 50.2821 45.1207C48.1346 50.2767 44.207 53.4398 40.0463 56.7873L38.909 57.7022C38.6546 57.9079 38.3438 58.0143 38.033 58.0143C37.9129 58.0143 37.7928 58.0001 37.6727 57.9646C37.2418 57.8512 36.8886 57.532 36.7332 57.1136L33.8511 49.6455C33.8087 49.5462 33.7734 49.4398 33.738 49.3334C33.7027 49.2341 33.6603 49.0994 33.6321 49.0568C33.3636 48.6526 33.1376 48.227 32.9186 47.8157C32.1416 46.3618 31.7672 45.8157 30.8842 45.8157C30.757 45.8157 30.6157 45.8299 30.4674 45.8512C29.2806 46.0356 29.0122 46.7802 28.6095 48.688C28.5601 48.915 28.5177 49.1348 28.4612 49.3547C26.9636 55.8441 25.5013 62.1987 24.0673 68.6809C23.8201 69.8086 23.6505 70.993 23.4527 72.3689C23.3538 73.0852 23.2408 73.8512 23.1137 74.7022C23.0077 75.3973 22.4143 75.8866 21.7362 75.8866L21.7432 75.9079Z" fill="white"/>
<path d="M35.2004 20.4965C38.4216 27.915 37.5598 36.3192 42.109 42.9788C45.5492 42.6667 46.2133 39.9646 47.1669 37.8795C48.9541 33.9717 50.5718 29.9646 51.8857 25.8724C52.6274 23.5674 53.7718 22.4185 55.9546 22.4185C56.1312 22.4185 56.3078 22.4256 56.4986 22.4398C56.7811 22.461 57.0566 22.4752 57.3392 22.4752C57.6712 22.4752 58.0103 22.4611 58.3423 22.4256C59.8116 22.2625 60.9136 22.1419 61.7401 22.1419C64.262 22.1419 64.262 23.2554 64.2125 27.7589C64.1278 35.61 64.2761 43.4752 63.824 51.305C63.4849 57.1206 62.4395 62.9008 61.5282 68.6738C61.1891 70.8086 60.8783 71.4185 59.1052 71.4185C58.4906 71.4185 57.7065 71.3476 56.6893 71.2412C56.6045 70.2625 56.3855 69.227 56.4421 68.1986C56.8518 60.3618 57.2756 52.5249 57.7701 44.688C57.9326 42.1348 57.1979 40.1774 54.7961 39.0001C51.7162 39.7376 50.0279 42.1206 49.0036 44.6029C46.8066 49.8795 42.5187 53.0071 38.0401 56.6384C37.0229 54.0071 36.0975 51.5887 35.158 49.1703C35.0449 48.8866 34.9743 48.5674 34.8118 48.3192C33.7663 46.7235 33.2083 44.4398 30.8983 44.4398C30.7005 44.4398 30.4957 44.454 30.2696 44.4894C27.7407 44.8866 27.5641 47.1348 27.119 49.071C25.6356 55.5107 24.1521 61.9575 22.7252 68.4114C22.3296 70.1915 22.1459 72.0142 21.7574 74.5178C20.4788 74.3263 19.3274 74.1561 18.0699 73.9717C18.5786 66.9362 19.4192 60.3121 21.6161 53.8157C22.9724 49.7873 23.368 45.4256 24.1168 41.1986C25.0493 35.9291 25.897 30.6384 26.9354 24.4752C29.0687 23.454 32.0286 22.0355 35.2215 20.5107M35.2004 17.688C34.7906 17.688 34.3739 17.7802 33.9995 17.9646L29.8458 19.9575L25.7203 21.9362C24.9009 22.3334 24.3217 23.0993 24.1663 24.0001C23.8413 25.922 23.5375 27.7589 23.2479 29.532C22.6051 33.4114 21.9976 37.0852 21.3547 40.6951C21.1499 41.8653 20.9662 43.0497 20.7896 44.1915C20.3163 47.2767 19.8713 50.1915 18.96 52.9008C16.5229 60.1277 15.7317 67.4965 15.2726 73.7518C15.1666 75.2199 16.205 76.5178 17.6532 76.7306L21.3406 77.2767C21.4748 77.2979 21.6161 77.305 21.7503 77.305C23.1066 77.305 24.2934 76.3121 24.5053 74.9291C24.6395 74.0781 24.7455 73.2979 24.8515 72.5745C25.0422 71.2341 25.2047 70.071 25.4449 68.993C26.8789 62.5107 28.3976 55.8937 29.8316 49.6809C29.8811 49.454 29.9376 49.2199 29.98 48.9859C30.1001 48.4327 30.2979 47.5036 30.4815 47.2837C30.4886 47.2837 30.5522 47.2554 30.6793 47.2412C30.7712 47.227 30.8418 47.2199 30.8771 47.2199C30.8842 47.2199 30.8913 47.2199 30.8983 47.2199C31.1032 47.4114 31.4634 48.0781 31.6824 48.4823C31.8873 48.8653 32.1133 49.2908 32.3818 49.7093C32.3888 49.7376 32.403 49.766 32.41 49.7873C32.4524 49.9149 32.4948 50.0355 32.5443 50.1561L34.8471 56.1206L35.4264 57.6242C35.7514 58.4611 36.4507 59.0923 37.3125 59.3192C37.5527 59.383 37.7929 59.4114 38.0331 59.4114C38.6688 59.4114 39.2834 59.1986 39.792 58.7873C40.1735 58.4823 40.5479 58.1774 40.9223 57.8795C45.0406 54.5674 49.3003 51.1419 51.582 45.6525C52.472 43.5178 53.5105 42.5462 54.4217 42.0781C54.8668 42.5462 55.0575 43.2341 54.9798 44.4894C54.5559 51.3263 54.1321 58.8015 53.6517 68.0284C53.6023 68.9859 53.7153 69.8653 53.8142 70.6384C53.8495 70.915 53.8849 71.1915 53.9131 71.4681C54.0332 72.8086 55.0787 73.8724 56.4138 74.0142C57.5864 74.1348 58.4059 74.2057 59.1123 74.2057C63.492 74.2057 64.0147 70.8795 64.2973 69.0993C64.4457 68.1703 64.594 67.2483 64.7424 66.3192C65.5194 61.4823 66.3318 56.4823 66.6214 51.461C66.9534 45.766 66.9675 39.993 66.9746 34.4043C66.9746 32.2341 66.9817 29.9859 67.0099 27.7802C67.0452 24.2979 67.0735 22.1986 65.5688 20.6738C64.3821 19.4681 62.8209 19.3263 61.7472 19.3263C60.7653 19.3263 59.628 19.4469 58.0597 19.6242C57.8266 19.6525 57.5935 19.6596 57.3463 19.6596C57.1414 19.6596 56.9365 19.6525 56.7176 19.6313C56.4562 19.61 56.2019 19.6029 55.9546 19.6029C52.6345 19.6029 50.374 21.4185 49.2226 25.0071C48.0287 28.7306 46.5241 32.5603 44.6309 36.7022C44.4967 36.993 44.3695 37.2908 44.2424 37.5958C43.868 38.4823 43.5925 39.071 43.3029 39.4611C41.8688 36.5532 41.2401 33.2483 40.5902 29.7873C39.9404 26.3618 39.2763 22.8228 37.7787 19.3689C37.475 18.6738 36.9028 18.1277 36.1964 17.8582C35.8785 17.7376 35.5465 17.6809 35.2215 17.6809L35.2004 17.688Z" fill="white"/>
<path d="M264.734 81.6737C263.646 81.6737 262.537 81.2411 261.689 80.8581C256.455 78.5177 252.725 74.9077 250.62 70.1276C247.54 63.1347 244.467 54.7304 245.032 45.4113C245.244 41.9645 245.731 38.5035 246.198 35.156C246.325 34.2694 246.445 33.39 246.565 32.5035C246.678 31.6524 246.883 30.8368 247.081 30.0496C247.257 29.3333 247.434 28.6524 247.526 27.9787C248.762 19.3475 255.176 13.3191 263.123 13.3191C265.581 13.3191 268.054 13.8794 270.477 14.9928C274.122 16.6595 276.792 19.9858 278.198 24.617C279.152 27.7517 276.693 28.7801 275.372 29.3404C274.814 29.5744 274.242 29.8155 273.882 30.1276C273.62 30.3546 273.295 30.468 272.97 30.468C272.631 30.468 272.292 30.3404 272.024 30.0992L270.724 28.8936C269.862 28.0992 269.043 27.3404 268.238 26.5815C266.945 25.3616 265.723 24.773 264.494 24.773C263.264 24.773 262.035 25.3546 260.714 26.4893C255.699 30.8155 253.869 35.8723 255.112 41.9503C255.656 44.5957 256.101 47.2978 256.539 49.9077C257.097 53.2553 257.677 56.7234 258.447 60.0567C258.969 62.312 260.114 64.7659 261.852 67.3475C262.346 68.085 263.18 68.4538 264.324 68.4538C264.889 68.4538 265.525 68.3616 266.154 68.1772C270.851 66.8368 274.8 63.7659 278.233 58.7801C278.77 57.9999 278.94 57.1843 278.721 56.4184C278.473 55.5531 277.774 54.8297 276.736 54.3758C274.701 53.4893 272.575 52.7234 270.321 51.9077C269.269 51.5248 268.181 51.1347 267.051 50.7092C266.507 50.5035 266.139 49.9787 266.139 49.3971V44.5248C266.139 43.7517 266.768 43.1205 267.538 43.1205H287.996C288.589 43.1205 289.119 43.4964 289.317 44.0638C291.733 51.0425 293.379 72.4184 292.107 80.3616C292.001 81.0425 291.415 81.539 290.73 81.539H286.647C285.975 81.539 285.403 81.0638 285.276 80.3971C285.071 79.3262 284.881 78.2694 284.683 77.2127C284.167 74.4113 283.68 71.7659 283.051 69.1134C282.98 68.8155 282.655 68.4184 282.302 68.0212C281.921 68.3262 281.518 68.6666 281.433 68.8936C278.516 76.8297 271.854 79.7234 265.716 81.5177C265.419 81.6028 265.087 81.6524 264.748 81.6524L264.734 81.6737Z" fill="white"/>
<path d="M263.13 14.7304C265.313 14.7304 267.609 15.2268 269.905 16.2765C273.543 17.9432 275.739 21.3261 276.87 25.0353C277.732 27.8722 274.609 27.6595 272.977 29.0708C271.607 27.8013 270.392 26.6949 269.198 25.5602C267.651 24.0992 266.083 23.3687 264.501 23.3687C262.918 23.3687 261.399 24.0566 259.81 25.4254C254.632 29.8864 252.336 35.3119 253.749 42.2339C254.985 48.2552 255.706 54.39 257.09 60.3758C257.719 63.1063 259.118 65.7871 260.7 68.1346C261.548 69.39 262.897 69.858 264.331 69.858C265.066 69.858 265.822 69.7375 266.542 69.5318C272.116 67.9432 276.199 64.2127 279.392 59.5815C281.094 57.1063 280.063 54.2978 277.301 53.0921C274.277 51.7729 271.134 50.7446 267.538 49.3971V44.5247H287.996C290.327 51.2552 291.944 72.5247 290.722 80.1417H286.639C285.898 76.2623 285.283 72.5034 284.407 68.8013C284.167 67.7942 283.136 66.9786 282.464 66.0708C281.659 66.8439 280.465 67.4751 280.119 68.4183C277.555 75.3971 271.812 78.2836 265.327 80.1772C265.143 80.2268 264.953 80.2552 264.748 80.2552C263.95 80.2552 263.017 79.9006 262.268 79.5602C257.627 77.4822 253.975 74.2197 251.912 69.546C248.543 61.9006 245.922 54.007 246.445 45.4822C246.706 41.1985 247.391 36.9432 247.971 32.6807C248.175 31.163 248.712 29.6878 248.931 28.1701C250.111 19.929 256.052 14.7091 263.144 14.7091M263.13 11.9219C254.47 11.9219 247.49 18.4467 246.148 27.7871C246.063 28.39 245.901 29.0354 245.731 29.7162C245.526 30.5389 245.314 31.3971 245.187 32.3261C245.067 33.2056 244.947 34.0921 244.82 34.9715C244.347 38.3403 243.859 41.8297 243.64 45.3332C243.054 54.9573 246.19 63.5602 249.341 70.702C251.594 75.8084 255.557 79.6595 261.117 82.1488C262.092 82.5815 263.384 83.085 264.734 83.085C265.207 83.085 265.666 83.0212 266.09 82.9006C270.208 81.702 273.295 80.312 275.796 78.5247C278.572 76.546 280.628 74.0921 282.041 71.0779C282.493 73.163 282.881 75.2765 283.291 77.4893C283.489 78.5531 283.68 79.624 283.891 80.702C284.146 82.0212 285.297 82.9786 286.639 82.9786H290.722C292.093 82.9786 293.265 81.9786 293.484 80.6169C294.777 72.5318 293.103 50.7517 290.638 43.6311C290.249 42.5034 289.19 41.7446 287.996 41.7446H267.538C265.991 41.7446 264.741 42.9999 264.741 44.5531V49.4254C264.741 50.5956 265.468 51.6453 266.563 52.0566C267.701 52.4822 268.795 52.8722 269.848 53.2552C272.08 54.0637 274.192 54.8226 276.177 55.6878C276.813 55.9644 277.251 56.3829 277.378 56.8297C277.477 57.1843 277.378 57.5815 277.082 58.007C273.839 62.7162 270.145 65.6098 265.772 66.851C265.263 66.9999 264.762 67.0708 264.324 67.0708C263.342 67.0708 263.102 66.7162 263.01 66.5815C261.371 64.1417 260.29 61.8439 259.81 59.7588C259.047 56.4609 258.475 53.0212 257.924 49.6949C257.486 47.0708 257.034 44.3616 256.49 41.6878C255.338 36.0779 256.977 31.5885 261.633 27.5744C262.692 26.6595 263.66 26.1914 264.501 26.1914C265.341 26.1914 266.281 26.6736 267.284 27.624C268.103 28.3971 268.93 29.1559 269.806 29.9644C270.222 30.3474 270.646 30.7375 271.084 31.1488C271.621 31.6453 272.299 31.8935 272.984 31.8935C273.67 31.8935 274.284 31.6666 274.814 31.2127C275.005 31.0495 275.52 30.8297 275.93 30.6595C277.152 30.1488 280.875 28.5814 279.554 24.2339C278.021 19.2056 275.09 15.5815 271.077 13.7375C268.471 12.546 265.8 11.9361 263.144 11.9361L263.13 11.9219Z" fill="white"/>
<path d="M91.1337 84.305C90.1376 84.305 88.9085 84.1348 87.3968 83.9149C87.0224 83.8582 86.6833 83.6525 86.4573 83.3404C86.2383 83.0284 86.1535 82.6383 86.2241 82.2624C86.6339 80.0922 87.0648 77.9149 87.4957 75.7447C88.5341 70.5248 89.6078 65.1277 90.3778 59.8014C90.837 56.6099 90.724 53.0851 90.0529 49.8724C88.6824 43.3263 87.0577 36.7021 85.4895 30.305C84.8184 27.5816 84.1544 24.8582 83.4974 22.1277C83.1654 20.7305 82.8475 19.3262 82.5084 17.8369L81.9998 15.5745C81.8303 14.844 82.2683 14.1135 82.9817 13.9078L89.8056 11.9787C89.9328 11.9433 90.0599 11.9291 90.1871 11.9291C90.7663 11.9291 91.3032 12.2908 91.501 12.8653C91.6917 13.3972 91.8825 13.9149 92.0661 14.4184C92.4829 15.5461 92.8856 16.6028 93.1893 17.7305C94.8141 23.7021 96.5024 29.8724 98.007 36.0142L98.1201 36.4894C98.4733 38.0071 98.6499 38.4114 99.2998 38.5603C99.4411 38.5958 99.5753 38.6099 99.6954 38.6099C100.331 38.6099 100.797 38.0993 101.497 36.6454C104.824 29.7518 108.363 22.4114 111.867 15.0638L111.909 14.9787C113.265 12.1348 113.944 10.7092 117.009 10.7092C117.723 10.7092 118.571 10.7731 119.644 10.8511C120.174 10.8865 120.633 11.227 120.838 11.7163C120.909 11.8865 120.979 12.0284 121.043 12.1489C121.234 12.5248 121.495 13.0355 121.361 13.6809C120.873 15.922 120.513 18.2482 120.167 20.4894C119.567 24.3617 118.945 28.3617 117.652 32.2695C114.707 41.1631 109.804 49.2341 102.648 56.9504C101.991 57.6596 101.617 59.0071 101.32 60.0922C100.465 63.1773 99.6388 66.3333 98.8335 69.383C98.0918 72.2057 97.343 75.0355 96.573 77.8511C95.471 81.8794 94.7999 84.3192 91.1337 84.3192V84.305Z" fill="white"/>
<path d="M117.016 12.0993C117.666 12.0993 118.486 12.156 119.553 12.234C119.793 12.8156 120.054 13.1277 119.998 13.3688C118.669 19.4894 118.33 25.7589 116.324 31.8085C113.258 41.078 108.172 48.9149 101.624 55.9787C100.748 56.922 100.331 58.3972 99.9709 59.7021C98.3391 65.6099 96.8415 71.5532 95.2238 77.4681C94.0653 81.7092 93.5991 82.9007 91.1337 82.9007C90.2507 82.9007 89.1134 82.7447 87.5946 82.5248C89.0145 75.0284 90.6675 67.5532 91.7624 60C92.2569 56.6028 92.1227 52.9433 91.4163 49.5816C89.4666 40.2695 87.0648 31.0496 84.8537 21.7943C84.3592 19.7234 83.9001 17.6383 83.3632 15.2553C85.6661 14.6028 87.6652 14.0355 90.1871 13.3262C90.7805 15.0213 91.4233 16.5248 91.8472 18.0922C93.5002 24.1631 95.1602 30.234 96.6578 36.3404C97.0463 37.9078 97.2371 39.5248 98.996 39.922C99.2433 39.9787 99.4834 40.0071 99.7024 40.0071C101.285 40.0071 102.097 38.6383 102.761 37.2553C106.23 30.0638 109.698 22.8723 113.131 15.6667C114.509 12.7731 114.805 12.1064 117.009 12.1064M117.016 9.29078C113.075 9.29078 112.058 11.4184 110.659 14.3617L110.616 14.4468C107.063 21.8936 103.404 29.4894 100.253 36.0213C100.006 36.5248 99.8296 36.8298 99.7095 37.0142C99.6318 36.7518 99.5541 36.4184 99.4905 36.1631C99.4552 36 99.4128 35.8298 99.3704 35.6667C97.8587 29.5177 96.1774 23.3333 94.5456 17.3475C94.2207 16.1631 93.7969 15.0213 93.3871 13.9149C93.2035 13.4184 93.0127 12.9078 92.8291 12.383C92.4264 11.2411 91.3527 10.5106 90.1942 10.5106C89.9399 10.5106 89.6856 10.5461 89.4312 10.617L85.3765 11.766L82.6073 12.5532C81.1733 12.9575 80.3115 14.4255 80.6435 15.8794C80.8201 16.6454 80.9826 17.383 81.1451 18.0993C81.4842 19.6028 81.802 21.0284 82.1411 22.4468C82.791 25.1773 83.4762 27.9504 84.1332 30.6241C85.7014 37.0142 87.3262 43.6241 88.6895 50.1489C89.3324 53.2057 89.4383 56.5603 89.0003 59.5887C88.2374 64.8865 87.1637 70.2624 86.1323 75.461C85.7085 77.5957 85.2705 79.8085 84.8537 81.9858C84.7124 82.7376 84.882 83.5177 85.32 84.1419C85.765 84.766 86.4361 85.1773 87.1919 85.2908C88.7602 85.5177 90.0458 85.695 91.1337 85.695C95.8666 85.695 96.8203 82.2199 97.9223 78.1986C98.6993 75.3688 99.4552 72.4894 100.19 69.7092C100.988 66.6667 101.822 63.5177 102.669 60.4397C102.902 59.6028 103.249 58.3333 103.672 57.8794C110.97 50.0071 115.971 41.766 118.98 32.6879C120.308 28.6738 120.937 24.6099 121.552 20.6809C121.912 18.3546 122.258 16.156 122.731 13.9575C122.979 12.8227 122.534 11.9504 122.293 11.4823C122.23 11.3617 122.18 11.2624 122.138 11.156C121.735 10.1702 120.81 9.50355 119.757 9.42554C118.655 9.34752 117.786 9.28369 117.024 9.28369L117.016 9.29078Z" fill="white"/>
<path d="M752.812 78.7731C747.924 78.5674 743.311 78.3759 738.635 78.2057C735.639 78.0993 733.951 76.2979 734.001 73.2624C734.015 72.3546 734.085 71.461 734.149 70.5887C734.22 69.61 734.29 68.6809 734.29 67.7518C734.29 64.5319 734.262 61.3121 734.241 58.0922C734.205 53.7163 734.17 49.1844 734.198 44.7305C734.212 42.0213 733.986 39.2341 733.76 36.5461C733.372 31.8227 732.969 26.9362 733.817 22.0284C734.672 17.0993 735.42 16.461 740.492 16.3404C741.411 16.3192 742.315 16.2553 743.276 16.1844C744.314 16.1064 745.381 16.0284 746.462 16.0142C748.044 15.9929 749.619 15.9858 751.216 15.9858C752.332 15.9858 756.909 16 758.089 16C758.732 16 759.29 16.4397 759.445 17.0709C760.067 19.617 760.406 21.3759 759.502 22.6312C758.675 23.7802 757.171 23.9858 755.44 24.1277C754.903 24.1702 754.317 24.1915 753.596 24.1915C753.229 24.1915 752.869 24.1915 752.501 24.1844C752.148 24.1844 751.795 24.1773 751.442 24.1773C750.841 24.1773 750.354 24.1915 749.916 24.227C748.553 24.3263 747.133 24.6312 745.755 24.9149L745.621 24.9433C743.975 25.2908 743.304 26.1135 743.297 27.7943C743.297 28.5887 743.247 29.383 743.198 30.149C743.149 30.9291 743.106 31.6667 743.106 32.4043C743.106 35.6029 743.685 36.2057 746.751 36.2057H746.921C748.878 36.1844 750.891 35.9717 752.848 35.7589C753.575 35.6809 754.303 35.6029 755.037 35.5319C756.019 35.4397 757.03 35.3121 758.096 35.1773C758.626 35.1135 759.177 35.0426 759.756 34.9717C759.813 34.9717 759.869 34.9646 759.919 34.9646C760.258 34.9646 760.59 35.0922 760.844 35.3192C761.141 35.5887 761.317 35.9646 761.317 36.3688V43.4326C761.317 44.1419 760.788 44.7447 760.088 44.8227L749.061 46.1419C745.932 46.5107 745.932 46.6596 746.003 49.1419C746.186 56.0426 746.419 61.7305 746.73 67.0568C746.885 69.6525 747.769 70.1277 749.45 70.1277C749.81 70.1277 750.22 70.0993 750.672 70.0426C752.501 69.8085 754.296 69.6312 756.373 69.4185C757.333 69.3263 758.343 69.2199 759.417 69.1064C759.467 69.1064 759.516 69.0993 759.566 69.0993C759.94 69.0993 760.293 69.2482 760.562 69.5178C760.858 69.8227 761.007 70.2412 760.957 70.6667L760.145 77.7731C760.06 78.4823 759.467 79.0142 758.76 79.0142C758.739 79.0142 752.805 78.766 752.805 78.766L752.812 78.7731Z" fill="white"/>
<path d="M751.209 17.383C753.462 17.383 755.744 17.3972 758.089 17.3972C759.191 21.922 758.916 22.4326 755.327 22.7234C754.755 22.7731 754.176 22.7802 753.597 22.7802C752.883 22.7802 752.162 22.7589 751.449 22.7589C750.905 22.7589 750.361 22.7731 749.817 22.8085C748.313 22.922 746.822 23.2412 745.339 23.5532C743.092 24.0284 741.912 25.3972 741.905 27.766C741.905 29.305 741.708 30.844 741.715 32.383C741.715 36.2979 742.859 37.5887 746.758 37.5887C746.815 37.5887 746.879 37.5887 746.935 37.5887C749.683 37.5603 752.424 37.1773 755.165 36.9149C756.648 36.7731 758.125 36.5674 759.926 36.3546V43.4185C756.104 43.8795 752.502 44.3121 748.906 44.7376C745.226 45.1773 744.519 45.7943 744.611 49.1702C744.773 55.1561 744.992 61.149 745.346 67.1277C745.529 70.2341 746.801 71.5248 749.464 71.5248C749.895 71.5248 750.361 71.4894 750.863 71.4256C753.533 71.078 756.217 70.8511 759.58 70.4965C759.262 73.2908 759.029 75.3192 758.767 77.6029C751.802 77.3192 745.247 77.0213 738.691 76.7944C736.36 76.7092 735.371 75.461 735.407 73.2766C735.435 71.4327 735.696 69.5887 735.696 67.7447C735.696 60.0709 735.555 52.3972 735.604 44.7305C735.647 37.2341 733.902 29.7731 735.209 22.2624C735.95 17.9787 736.169 17.8369 740.535 17.7376C742.52 17.6951 744.505 17.4397 746.49 17.4114C748.065 17.3901 749.634 17.383 751.223 17.383M751.209 14.5816C749.351 14.5816 747.839 14.5887 746.441 14.6099C745.324 14.6241 744.23 14.7021 743.177 14.7802C742.237 14.8511 741.34 14.9149 740.457 14.9362C738.07 14.9929 736.191 15.0355 734.7 16.2837C733.167 17.5745 732.828 19.5248 732.44 21.7873C731.557 26.8724 731.966 31.8511 732.369 36.6596C732.602 39.4397 732.814 42.0709 732.8 44.7163C732.772 49.1844 732.807 53.7163 732.842 58.0922C732.863 61.2553 732.892 64.5319 732.892 67.7447C732.892 68.617 732.828 69.5248 732.75 70.4752C732.687 71.3617 732.616 72.2837 732.602 73.227C732.538 77.0213 734.834 79.4681 738.585 79.5958C743.276 79.7589 747.903 79.9575 752.805 80.1631C754.727 80.2412 756.669 80.3263 758.647 80.4043C758.683 80.4043 758.725 80.4043 758.76 80.4043C760.173 80.4043 761.374 79.3405 761.537 77.9149L761.989 73.9787L762.349 70.8085C762.448 69.9646 762.158 69.1206 761.558 68.5107C761.028 67.9787 760.314 67.6809 759.573 67.6809C759.474 67.6809 759.382 67.6809 759.283 67.6951C758.202 67.8085 757.192 67.9078 756.224 68.0071C754.14 68.2128 752.346 68.3901 750.495 68.6312C750.107 68.6809 749.754 68.7092 749.45 68.7092C748.461 68.7092 748.228 68.7092 748.122 66.9575C747.811 61.6383 747.578 55.9646 747.394 49.0922C747.373 48.4256 747.394 48.0426 747.43 47.8298C747.691 47.7518 748.207 47.6383 749.224 47.5178C751.725 47.2199 754.218 46.922 756.789 46.61L760.251 46.1986C761.657 46.0284 762.716 44.8369 762.716 43.4114V36.3475C762.716 35.5461 762.377 34.7802 761.777 34.2482C761.261 33.7873 760.604 33.539 759.919 33.539C759.806 33.539 759.7 33.539 759.587 33.5603C759.001 33.6312 758.442 33.7021 757.913 33.766C756.811 33.9078 755.857 34.0213 754.896 34.1135C754.162 34.1844 753.427 34.2624 752.699 34.3404C750.686 34.5532 748.793 34.7589 746.9 34.7731H746.744C745.134 34.7731 744.781 34.5036 744.773 34.5036C744.773 34.5036 744.498 34.1348 744.498 32.3759C744.498 31.6809 744.54 30.9646 744.59 30.2057C744.639 29.4185 744.689 28.61 744.696 27.766C744.696 26.7589 744.915 26.4965 745.911 26.2837L746.038 26.2553C747.43 25.9646 748.743 25.6809 750.022 25.5887C750.425 25.5603 750.877 25.5461 751.449 25.5461C751.795 25.5461 752.141 25.5461 752.487 25.5532C752.855 25.5532 753.229 25.5603 753.597 25.5603C754.352 25.5603 754.974 25.539 755.553 25.4894C757.164 25.3617 759.368 25.1773 760.639 23.4114C761.989 21.539 761.388 19.078 760.802 16.6951C760.498 15.4397 759.375 14.5603 758.089 14.5603C756.91 14.5603 755.744 14.5603 754.585 14.5603C753.448 14.5603 752.325 14.5603 751.209 14.5603V14.5816Z" fill="white"/>
<path d="M435.699 81.7234C435.444 81.7234 435.197 81.6525 434.978 81.5178C434.618 81.2979 434.378 80.9362 434.314 80.5178C433.996 78.3121 433.664 76.1773 433.346 74.0922C432.64 69.4681 431.969 65.0993 431.496 60.6809C431.185 57.8014 431.022 54.8724 430.867 52.0426C430.641 47.9433 430.401 43.6951 429.715 39.6383C428.825 34.3759 429.814 29.4397 430.768 24.6596C431.383 21.5745 431.969 18.6596 432.089 15.6525C432.117 14.9575 432.548 14.5178 432.866 14.1986C432.979 14.0851 433.113 13.9504 433.269 13.766C433.537 13.4468 433.926 13.2695 434.335 13.2695C434.427 13.2695 434.519 13.2766 434.611 13.2979C436.144 13.61 437.698 13.9149 439.266 14.2199C442.947 14.9362 446.754 15.6738 450.505 16.5887C455.436 17.7873 458.678 21.5319 460.946 24.6596C465.516 30.9575 468.243 38.2128 469.048 46.2199C469.741 53.0709 468.596 59.149 465.566 64.7944C463.545 68.5461 460.903 71.1206 457.477 72.6525C452.575 74.8511 447.369 77.1419 441.096 79.8653C440.234 80.2412 439.351 80.539 438.235 80.9149C437.634 81.1206 436.956 81.3475 436.165 81.6312C436.017 81.688 435.854 81.7093 435.699 81.7093V81.7234ZM439.259 34.4752C439.301 34.5958 439.323 34.7234 439.323 34.8582C439.323 35.2624 439.316 35.6596 439.301 36.0639C439.28 36.8866 439.259 37.6667 439.33 38.4114C440.396 49.7022 441.294 58.8795 442.141 67.2908C442.396 69.7873 442.989 69.7873 443.342 69.7873C443.837 69.7873 444.55 69.5887 445.461 69.1915C450.06 67.2057 453.762 63.5107 455.874 58.7731C461.716 45.6951 453.084 33.7518 442.586 28.1844C442.127 27.9433 441.696 27.8156 441.343 27.8156C440.403 27.8156 439.93 28.8653 439.69 29.7447C439.407 30.7944 439.365 31.9575 439.316 33.1915C439.301 33.6171 439.28 34.0426 439.252 34.4681L439.259 34.4752Z" fill="white"/>
<path d="M434.328 14.6808C439.471 15.7305 444.861 16.6666 450.166 17.9574C454.411 18.9929 457.4 22.1702 459.808 25.4893C464.287 31.6595 466.872 38.6666 467.65 46.3617C468.285 52.6666 467.346 58.5106 464.329 64.1276C462.57 67.4042 460.246 69.8723 456.905 71.3688C451.466 73.8085 446.005 76.1986 440.538 78.5744C439.287 79.1135 437.973 79.4964 435.692 80.3049C434.667 73.234 433.565 66.9007 432.88 60.5177C432.124 53.4893 432.266 46.3333 431.086 39.3901C429.687 31.1489 433.163 23.6312 433.473 15.695C433.481 15.461 433.841 15.234 434.321 14.6666M443.342 71.1986C444.048 71.1986 444.931 70.9574 446.019 70.4893C451.148 68.2766 454.97 64.2482 457.152 59.3546C463.277 45.6454 454.687 33.0142 443.243 26.9503C442.565 26.5886 441.929 26.4184 441.35 26.4184C439.923 26.4184 438.856 27.4822 438.348 29.39C437.889 31.1276 437.98 33.0213 437.832 34.8439C437.86 34.8439 437.896 34.851 437.924 34.8581C437.924 36.0851 437.825 37.3262 437.938 38.5461C438.849 48.1773 439.775 57.8085 440.749 67.4326C441.011 69.9858 441.746 71.1915 443.342 71.1915M434.328 11.8723C433.516 11.8723 432.739 12.2269 432.202 12.8581C432.096 12.9858 431.983 13.0922 431.87 13.2056C431.474 13.6028 430.733 14.3475 430.683 15.5957C430.57 18.4893 429.998 21.3546 429.39 24.383C428.409 29.2837 427.398 34.3546 428.331 39.8723C429.002 43.851 429.228 47.8652 429.461 52.1205C429.616 54.9716 429.786 57.9149 430.097 60.8298C430.577 65.2766 431.248 69.6596 431.955 74.2979C432.273 76.3759 432.605 78.5248 432.922 80.7234C433.043 81.5532 433.53 82.2908 434.243 82.7234C434.681 82.9929 435.183 83.1276 435.692 83.1276C436.002 83.1276 436.32 83.078 436.624 82.9645C437.415 82.6808 438.086 82.4539 438.68 82.2553C439.831 81.8652 440.735 81.5603 441.647 81.1631C447.891 78.4539 453.105 76.156 458.042 73.9432C461.758 72.2766 464.619 69.5035 466.788 65.4681C469.959 59.5674 471.146 53.2269 470.433 46.0851C469.599 37.8298 466.788 30.3475 462.069 23.8439C459.66 20.5248 456.206 16.5461 450.83 15.234C447.044 14.312 443.229 13.5674 439.534 12.851C437.966 12.5461 436.419 12.2411 434.886 11.9361C434.703 11.9007 434.512 11.8794 434.328 11.8794V11.8723ZM440.672 34.3262C440.693 33.9645 440.707 33.6028 440.721 33.2482C440.771 32.0993 440.813 31.0142 441.053 30.1135C441.195 29.5886 441.35 29.3333 441.428 29.234C441.519 29.2482 441.689 29.2978 441.936 29.4326C447.46 32.3617 451.847 36.6596 454.284 41.5461C456.962 46.9078 457.075 52.6737 454.602 58.2057C452.631 62.617 449.191 66.0638 444.91 67.9078C444.359 68.1418 443.978 68.2624 443.731 68.3262C443.667 68.0851 443.589 67.7163 443.533 67.1489C442.678 58.6879 441.781 49.5177 440.721 38.2766C440.658 37.6099 440.679 36.8723 440.7 36.0922C440.714 35.6808 440.721 35.2624 440.721 34.851C440.721 34.6737 440.707 34.4964 440.672 34.3191V34.3262Z" fill="white"/>
<path d="M548.696 78.3263C546.972 78.3263 545.135 77.9221 542.741 77.0072C542.183 76.7944 541.822 76.2554 541.837 75.6596C542.296 57.2838 543.8 39.0284 545.432 20.376C545.489 19.7377 545.962 19.227 546.591 19.1135C548.088 18.8582 549.543 18.5816 550.977 18.3121C554.248 17.7022 557.335 17.1206 560.514 16.7802C561.15 16.7093 561.807 16.6738 562.45 16.6738C566.37 16.6738 570.404 17.9433 574.423 20.4469C578.118 22.7448 580.202 31.5249 578.082 35.8511C575.666 40.7731 572.007 43.7731 567.211 44.7448L566.222 44.9433C563.128 45.5745 559.928 46.2341 556.721 46.6313C555.11 46.8299 554.623 47.3121 554.453 48.8511C554.248 50.6455 553.987 52.454 553.725 54.1987C553.259 57.3689 552.779 60.6525 552.68 63.844C552.595 66.4185 552.991 69.0426 553.415 71.8228C553.605 73.0994 553.803 74.4256 553.966 75.7731C554.029 76.3476 553.747 76.9008 553.238 77.1703C551.811 77.9362 550.328 78.3121 548.703 78.3121L548.696 78.3263ZM558.812 38.8299C559.313 38.8299 559.716 38.8653 560.041 38.9433C561.362 38.9008 562.584 38.4682 563.566 38.1135C563.975 37.9646 564.343 37.8369 564.654 37.7518C565.296 37.5745 565.911 37.454 566.455 37.3547C568.398 36.9788 569.097 36.7802 569.662 35.3263C570.722 32.6171 569.09 27.1348 566.893 26.0072C566.08 25.5887 564.929 25.3689 563.573 25.3689C560.034 25.3689 556.473 26.7873 555.491 28.0568C555.357 28.2341 555.131 28.5178 555.096 28.6455C554.99 29.2199 554.87 29.8086 554.75 30.3901C554.411 32.0568 554.086 33.6242 554.065 35.1845C554.043 36.5462 554.298 37.5107 554.834 38.0568C555.371 38.6029 556.297 38.8724 557.66 38.8724C557.907 38.8724 558.169 38.8653 558.437 38.844C558.557 38.8369 558.677 38.8299 558.797 38.8299H558.812Z" fill="white"/>
<path d="M562.45 18.078C566.476 18.078 570.269 19.5107 573.688 21.6383C576.811 23.5816 578.591 31.6454 576.832 35.227C574.798 39.3688 571.64 42.4114 566.935 43.3688C563.488 44.071 560.041 44.8085 556.558 45.2412C554.319 45.5178 553.316 46.5107 553.068 48.6951C552.496 53.7376 551.451 58.7589 551.288 63.8085C551.161 67.7376 552.086 71.6951 552.574 75.9433C551.302 76.6312 550.017 76.9149 548.696 76.9149C546.972 76.9149 545.171 76.4256 543.235 75.688C543.701 57.2837 545.206 38.9858 546.824 20.4894C551.67 19.6525 556.141 18.6525 560.662 18.1702C561.263 18.1064 561.856 18.078 562.45 18.078ZM557.674 40.2766C557.95 40.2766 558.246 40.2695 558.543 40.2483C558.635 40.2483 558.72 40.2412 558.812 40.2412C559.363 40.2412 559.85 40.3405 559.836 40.3546C559.836 40.3546 559.836 40.3546 559.822 40.3546C559.822 40.3546 559.815 40.3546 559.808 40.3546C559.808 40.3546 559.808 40.3546 559.801 40.3546C559.801 40.3546 559.8 40.3546 559.808 40.3546C559.808 40.3546 559.815 40.3546 559.822 40.3546H559.836C559.836 40.3546 559.843 40.3546 559.85 40.3546C562.047 40.3546 563.912 39.4185 565.035 39.1064C567.677 38.3759 569.846 38.7234 570.976 35.844C572.262 32.5603 570.481 26.2695 567.543 24.7589C566.462 24.2057 565.07 23.9646 563.594 23.9646C559.956 23.9646 555.788 25.4043 554.411 27.1915C554.135 27.5461 553.824 27.9504 553.747 28.3688C553.337 30.6241 552.729 32.8866 552.687 35.1561C552.623 38.7305 554.255 40.2695 557.681 40.2695M562.45 15.2766C561.757 15.2766 561.058 15.3121 560.366 15.3901C557.137 15.7376 554.022 16.3192 550.723 16.9362C549.303 17.2057 547.834 17.4752 546.35 17.7305C545.1 17.9433 544.146 18.9788 544.041 20.2483C542.409 38.922 540.904 57.2128 540.445 75.6171C540.417 76.8085 541.137 77.8866 542.246 78.3121C544.81 79.2908 546.796 79.7234 548.696 79.7234C550.596 79.7234 552.284 79.2837 553.895 78.4185C554.905 77.8724 555.484 76.766 555.35 75.6241C555.188 74.2483 554.99 72.9149 554.792 71.6241C554.382 68.9078 554.001 66.3475 554.079 63.9007C554.177 60.7802 554.63 57.688 555.11 54.4114C555.371 52.6525 555.633 50.8298 555.838 49.0142C555.901 48.4327 556.021 48.2553 556.028 48.2412C556.028 48.2412 556.226 48.1064 556.897 48.0213C560.161 47.6171 563.389 46.9575 566.518 46.3121L567.493 46.1135C572.742 45.0426 576.726 41.7944 579.347 36.461C580.943 33.2128 580.209 28.8936 579.82 27.1844C579.417 25.4185 578.16 21.1064 575.165 19.2483C570.919 16.61 566.639 15.2695 562.45 15.2695V15.2766ZM556.438 29.1419C556.487 29.0709 556.558 28.9858 556.608 28.922C557.194 28.1631 560.281 26.7802 563.587 26.7802C564.703 26.7802 565.657 26.9504 566.271 27.2624C567.726 28.0071 569.224 32.6454 568.376 34.8156C568.094 35.539 568.058 35.617 566.201 35.9788C565.635 36.0851 564.993 36.2128 564.293 36.4043C563.912 36.5107 563.516 36.6525 563.106 36.8014C562.216 37.1206 561.213 37.4752 560.175 37.539C559.645 37.4327 559.144 37.4327 558.819 37.4327C558.67 37.4327 558.522 37.4327 558.366 37.4468C558.126 37.461 557.893 37.4681 557.681 37.4681C556.346 37.4681 555.943 37.1631 555.852 37.0709C555.76 36.9788 555.456 36.5603 555.484 35.2057C555.506 33.7802 555.816 32.2695 556.141 30.6667C556.247 30.1561 556.346 29.6454 556.445 29.1348L556.438 29.1419Z" fill="white"/>
<path d="M711.791 77.7163C710.852 77.7163 709.905 77.6738 708.994 77.6383H708.803C704.416 77.4468 701.351 75.0142 700.164 70.773C699.203 67.312 698.257 63.5886 697.903 59.7589C697.487 55.2837 697.253 50.7376 697.034 46.3333C696.914 43.9007 696.787 41.4681 696.639 39.0425C696.081 30.2199 702.813 20.1915 711.042 17.5745C711.876 17.312 712.717 17.312 713.529 17.312L713.642 18.7163V17.312C714.002 17.312 714.391 17.312 714.801 17.2908C714.829 17.2908 714.857 17.2908 714.878 17.2908C715.585 17.2908 716.185 17.8227 716.263 18.5319L716.998 24.8936C717.033 25.2128 716.962 25.5319 716.793 25.8014C716.75 25.8723 716.715 25.9362 716.687 25.9858C716.567 26.2057 716.369 26.5816 715.924 26.8227C709.672 30.2411 706.656 35.8156 706.14 44.9007C706.091 45.7659 705.956 46.6099 705.822 47.4184C705.751 47.8298 705.688 48.2482 705.631 48.6596C704.268 59.078 708.952 66.0922 718.481 67.9007C719.074 68.0142 719.526 68.4964 719.604 69.0922C719.639 69.3617 719.682 69.6383 719.724 69.922C719.837 70.6241 719.957 71.4255 719.986 72.234C720.007 72.9645 719.922 73.6738 719.837 74.3546C719.802 74.6383 719.767 74.9362 719.738 75.234C719.689 75.7376 719.378 76.1702 718.919 76.3759C716.326 77.5461 713.748 77.695 711.791 77.695V77.7163Z" fill="white"/>
<path d="M714.871 18.6879C715.168 21.2624 715.394 23.2269 715.606 25.0496C715.422 25.3404 715.373 25.5248 715.26 25.5886C707.659 29.7447 705.208 36.7234 704.748 44.8227C704.678 46.0496 704.409 47.2624 704.254 48.4823C702.891 58.9291 707.277 67.2057 718.227 69.2837C718.354 70.2269 718.566 71.2553 718.601 72.2837C718.629 73.1915 718.453 74.0993 718.354 75.1135C716.192 76.0922 714.009 76.312 711.805 76.312C710.831 76.312 709.856 76.2695 708.874 76.2269C704.982 76.0638 702.523 73.9787 701.527 70.3971C700.545 66.8723 699.648 63.2624 699.309 59.6312C698.666 52.7589 698.483 45.851 698.045 38.9574C697.536 30.8723 703.851 21.3333 711.473 18.9149C712.088 18.7163 712.766 18.7163 713.536 18.7163H713.656C714.045 18.7163 714.455 18.7163 714.892 18.6879M714.871 15.8794C714.822 15.8794 714.765 15.8794 714.716 15.8794C714.363 15.9007 714.017 15.9007 713.642 15.9007H713.522C712.646 15.9007 711.657 15.9007 710.619 16.234C701.831 19.0284 694.647 29.7234 695.247 39.1276C695.403 41.5461 695.523 44.0142 695.643 46.4042C695.862 50.8227 696.095 55.383 696.519 59.8865C696.886 63.8156 697.847 67.6241 698.829 71.1418C700.185 76.0142 703.71 78.8156 708.754 79.0213H708.952C709.877 79.0709 710.838 79.1064 711.805 79.1064C713.904 79.1064 716.673 78.9432 719.505 77.6596C720.417 77.2482 721.045 76.3759 721.137 75.3688C721.165 75.078 721.201 74.8014 721.236 74.5248C721.328 73.7872 721.427 73.0213 721.398 72.1844C721.37 71.2837 721.236 70.4397 721.123 69.695C721.081 69.4255 721.038 69.1631 721.003 68.9007C720.847 67.7021 719.936 66.7376 718.749 66.5106C706.839 64.2482 706.295 54.461 707.03 48.8298C707.08 48.4255 707.15 48.0213 707.214 47.6241C707.348 46.7801 707.496 45.9078 707.546 44.9716C708.033 36.4255 710.824 31.2057 716.602 28.0425C717.414 27.6028 717.768 26.922 717.923 26.6312C717.937 26.6028 717.951 26.5745 717.972 26.539C718.311 26 718.46 25.3546 718.389 24.7163L718.17 22.8298L717.655 18.3475C717.492 16.922 716.291 15.8652 714.878 15.8652L714.871 15.8794Z" fill="white"/>
<path d="M607.759 78.0426C605.364 78.0001 602.757 77.9859 599.55 77.9859C597.664 77.9859 595.757 77.9859 593.814 78.0001C591.808 78.0001 589.766 78.0143 587.683 78.0143C587.294 78.0143 586.927 77.8511 586.665 77.5746C586.404 77.2909 586.263 76.915 586.291 76.5249C586.326 75.9575 586.347 75.3902 586.369 74.8086C586.418 73.4753 586.468 72.0994 586.687 70.7164C587.089 68.1136 587.555 65.4824 588.007 62.9363C588.813 58.3618 589.646 53.6384 590.148 48.9717C590.353 47.0639 590.628 45.1419 590.897 43.2838C591.744 37.4327 592.543 31.9008 591.363 26.1916C590.96 24.2412 591.511 22.0923 592.168 20.0568C593.037 17.3831 595.389 17.2058 597.113 17.0781C597.509 17.0497 597.918 17.0214 598.328 16.9646C598.392 16.9575 598.455 16.9504 598.519 16.9504C599.133 16.9504 599.691 17.3618 599.861 17.9646C601.387 23.3121 601.26 28.3618 601.14 33.2483C601.111 34.3902 601.083 35.532 601.076 36.6738C601.034 45.305 599.367 53.8157 597.756 62.0497L597.6 62.8512C597.516 63.305 597.403 63.7589 597.297 64.2058C597.148 64.8086 597.014 65.376 596.929 65.9363C596.767 67.0497 596.809 67.7731 597.05 68.0852C597.276 68.376 597.904 68.5887 598.865 68.688C601.034 68.9221 603.301 68.9363 605.251 68.9363H607.363H608.317C608.917 68.9363 609.532 68.8441 610.245 68.7377C610.634 68.6809 611.051 68.6171 611.496 68.5604C611.552 68.5604 611.609 68.5533 611.665 68.5533C611.983 68.5533 612.287 68.6597 612.541 68.8582C612.831 69.0923 613.021 69.4398 613.057 69.8086C613.099 70.2129 613.156 70.5958 613.205 70.9575C613.325 71.7944 613.445 72.5887 613.368 73.4256C613.028 77.2838 611.199 78.0355 608.161 78.0355H607.745L607.759 78.0426Z" fill="white"/>
<path d="M598.519 18.3547C600.334 24.7305 599.713 30.7305 599.684 36.6667C599.642 45.4398 597.911 54.0142 596.237 62.5816C596.032 63.6383 595.707 64.6738 595.552 65.7305C595.135 68.5887 595.827 69.7731 598.731 70.0852C600.892 70.3192 603.082 70.3405 605.272 70.3405C605.971 70.3405 606.664 70.3405 607.363 70.3405C607.681 70.3405 608.006 70.3405 608.324 70.3405C608.338 70.3405 608.345 70.3405 608.359 70.3405C609.376 70.3405 610.394 70.1135 611.679 69.9575C611.813 71.2554 612.082 72.2979 611.99 73.305C611.743 76.0639 610.909 76.6383 608.175 76.6383C608.048 76.6383 607.921 76.6383 607.787 76.6383C605.053 76.5887 602.319 76.5816 599.55 76.5816C595.707 76.5816 591.794 76.61 587.69 76.61C587.803 74.7589 587.774 72.8227 588.064 70.9362C589.194 63.6596 590.748 56.4327 591.532 49.1277C592.352 41.4398 594.358 33.7873 592.726 25.9149C592.38 24.227 592.938 22.2199 593.496 20.5036C594.217 18.2766 596.322 18.6667 598.512 18.3688M598.519 15.5461C598.392 15.5461 598.264 15.5532 598.137 15.5745C597.784 15.6242 597.403 15.6525 597.007 15.6809C595.255 15.8086 591.992 16.0497 590.84 19.6242C590.12 21.844 589.526 24.2057 589.992 26.4752C591.123 31.9362 590.339 37.3476 589.512 43.0781C589.244 44.9504 588.961 46.8866 588.756 48.8227C588.262 53.4398 587.428 58.1419 586.63 62.688C586.178 65.2412 585.712 67.8795 585.309 70.4965C585.083 71.9575 585.026 73.3759 584.977 74.7447C584.956 75.3121 584.935 75.8795 584.899 76.4327C584.85 77.2057 585.125 77.9646 585.655 78.532C586.185 79.0993 586.92 79.4185 587.69 79.4185C589.781 79.4185 591.815 79.4185 593.821 79.4043C595.757 79.4043 597.664 79.3901 599.543 79.3901C602.743 79.3901 605.343 79.4114 607.737 79.4469C607.886 79.4469 608.034 79.4469 608.175 79.4469C613.53 79.4469 614.512 76.4681 614.773 73.5603C614.865 72.5532 614.731 71.6454 614.604 70.766C614.554 70.4114 614.498 70.0426 614.462 69.6738C614.385 68.922 614.01 68.2412 613.424 67.766C612.922 67.3688 612.308 67.149 611.679 67.149C611.566 67.149 611.46 67.149 611.347 67.1703C610.888 67.227 610.464 67.2908 610.061 67.3476C609.405 67.4469 608.832 67.532 608.366 67.532C608.02 67.532 607.695 67.532 607.37 67.532H606.318H605.279C603.358 67.532 601.133 67.5107 599.034 67.2908C598.653 67.2483 598.406 67.1986 598.25 67.1561C598.25 66.9646 598.25 66.6383 598.328 66.1348C598.399 65.6383 598.533 65.1064 598.667 64.5391C598.78 64.0852 598.893 63.6171 598.985 63.1206L599.14 62.3263C600.758 54.0284 602.439 45.4469 602.482 36.6809C602.482 35.5603 602.517 34.4043 602.545 33.2837C602.665 28.2979 602.793 23.1348 601.21 17.5816C600.864 16.3617 599.755 15.5461 598.526 15.5461H598.519Z" fill="white"/>
<path d="M410.028 77.6737C406.757 77.6382 402.688 77.5957 399.849 74.1489C398.633 72.6737 397.468 71.1347 396.345 69.6524C395.977 69.1701 395.61 68.6879 395.243 68.2056C394.459 67.1772 393.682 66.1489 392.905 65.1134C391.52 63.2765 390.086 61.3687 388.638 59.5389C384.901 54.8013 381.171 48.929 381.807 41.3262C382.04 38.5106 382.534 36.39 383.354 34.6453C386.201 28.6028 390.248 23.3191 395.384 18.9503C396.663 17.8652 397.969 17.3333 399.375 17.3333C400.35 17.3333 401.339 17.5886 402.399 18.1205C407.619 20.7375 410.904 25.0496 411.886 30.5815C412.952 36.5815 413.736 42.7162 414.492 48.6453C414.796 51.0283 415.1 53.4113 415.425 55.7872C415.75 58.1843 416.054 60.5886 416.343 62.8439L416.71 65.7091C416.725 65.8226 416.725 65.9432 416.71 66.0567C416.619 66.8439 416.541 67.5886 416.463 68.2978C416.308 69.7801 416.159 71.1772 415.919 72.546C415.39 75.6169 413.044 77.6808 410.084 77.6808C410.084 77.6808 410.028 77.6808 410.021 77.6808L410.028 77.6737ZM398.118 32.8723C396.882 32.8723 395.525 33.5744 394.31 34.8439C390.757 38.5602 390.277 43.3049 390.503 46.624C390.856 51.8652 392.834 56.7942 396.387 61.2836C397.637 62.8652 399.735 63.8439 401.862 63.8439C402.547 63.8439 403.197 63.7375 403.804 63.5389C406.51 62.624 408.297 59.8935 408.283 56.7304C408.113 55.9857 407.951 55.1772 407.774 54.3333C407.336 52.2269 406.849 49.8368 406.157 47.5602L405.931 46.8084C404.793 43.0567 403.621 39.1701 401.876 35.7233C400.943 33.8794 399.608 32.8723 398.125 32.8723H398.118Z" fill="white"/>
<path d="M399.382 18.7304C400.145 18.7304 400.936 18.9502 401.777 19.3687C406.559 21.7658 409.604 25.7162 410.515 30.8155C411.999 39.1417 412.91 47.5744 414.047 55.9644C414.514 59.4112 414.944 62.858 415.333 65.8722C415.043 68.3332 414.895 70.3261 414.556 72.2907C414.132 74.7588 412.274 76.2623 410.098 76.2623C410.084 76.2623 410.063 76.2623 410.049 76.2623C406.814 76.2268 403.31 76.1417 400.929 73.2481C399.347 71.3261 397.871 69.319 396.359 67.3403C394.148 64.4467 391.993 61.5176 389.74 58.6595C385.749 53.5956 382.64 48.1843 383.205 41.4325C383.382 39.3332 383.742 37.1134 384.625 35.2339C387.402 29.3403 391.315 24.2481 396.295 20.007C397.312 19.1417 398.323 18.7233 399.382 18.7233M401.862 65.2481C402.681 65.2481 403.487 65.1275 404.249 64.8651C407.442 63.78 409.752 60.5673 409.682 56.5602C409.074 53.8864 408.495 50.4538 407.492 47.1488C406.249 43.0566 405.034 38.8722 403.119 35.085C401.897 32.6736 400.082 31.4609 398.118 31.4609C396.521 31.4609 394.84 32.2623 393.3 33.8651C389.931 37.39 388.786 42.0495 389.104 46.7162C389.485 52.4041 391.704 57.624 395.285 62.1559C396.832 64.1134 399.382 65.2481 401.855 65.2481M399.382 15.9219C397.652 15.9219 396.006 16.5814 394.487 17.8722C389.196 22.3758 385.028 27.8155 382.096 34.0424C381.199 35.9361 380.67 38.2127 380.422 41.2056C379.744 49.2978 383.643 55.4538 387.55 60.4112C388.991 62.2339 390.418 64.1346 391.803 65.9644C392.58 66.9999 393.357 68.0283 394.148 69.0566C394.515 69.5389 394.882 70.0212 395.25 70.5105C396.38 72.007 397.553 73.5531 398.782 75.0424C402.038 78.9928 406.658 79.0424 410.028 79.0779H410.106C413.708 79.0779 416.675 76.4893 417.318 72.78C417.565 71.3545 417.714 69.929 417.876 68.4183C417.947 67.7233 418.024 66.9857 418.116 66.2127C418.144 65.9857 418.144 65.7517 418.116 65.5247C417.996 64.6169 417.876 63.6737 417.756 62.702C417.459 60.3971 417.156 58.0141 416.831 55.5956C416.513 53.2268 416.202 50.8084 415.905 48.4751C415.142 42.5247 414.358 36.3687 413.284 30.3332C412.218 24.3474 408.679 19.6949 403.041 16.8651C401.805 16.2481 400.583 15.929 399.396 15.929L399.382 15.9219ZM401.862 62.4396C400.173 62.4396 398.457 61.6453 397.482 60.4112C394.112 56.1488 392.233 51.4751 391.901 46.5318C391.697 43.4893 392.12 39.163 395.327 35.8155C396.281 34.8226 397.27 34.2694 398.125 34.2694C399.389 34.2694 400.237 35.5744 400.633 36.3545C402.321 39.6949 403.479 43.5105 404.596 47.2127L404.822 47.9644C405.493 50.1843 405.98 52.5389 406.411 54.6169C406.574 55.4041 406.729 56.1559 406.891 56.8722C406.849 59.3687 405.45 61.4963 403.359 62.2056C402.9 62.3616 402.399 62.4396 401.869 62.4396H401.862Z" fill="white"/>
</g>
<defs>
<clipPath id="clip0_247_942">
<rect width="793" height="95" fill="white"/>
</clipPath>
</defs>
</svg>