<svg xmlns="http://www.w3.org/2000/svg" xmlns:xlink="http://www.w3.org/1999/xlink" id="_레이어_1" viewBox="0 0 1355.51 943.7"><defs><style>.cls-1{stroke:#eaeaea;}.cls-1,.cls-2{stroke-width:2px;}.cls-1,.cls-2,.cls-3,.cls-4,.cls-5,.cls-6{fill:none;}.cls-1,.cls-2,.cls-6{stroke-miterlimit:10;}.cls-7{filter:url(#drop-shadow-10);}.cls-7,.cls-8,.cls-9,.cls-10,.cls-4,.cls-11,.cls-12,.cls-13,.cls-14,.cls-15,.cls-16,.cls-17{stroke-width:0px;}.cls-7,.cls-15,.cls-18{fill:#fff;}.cls-8{fill:#bf3a25;}.cls-19{filter:url(#drop-shadow-4);}.cls-20{clip-path:url(#clippath-2);}.cls-2{stroke:#efefef;}.cls-3{stroke:#ddd;stroke-dasharray:0 12;stroke-width:5px;}.cls-3,.cls-18,.cls-5{stroke-linecap:round;stroke-linejoin:round;}.cls-10{fill:#5ed1ff;}.cls-21{filter:url(#drop-shadow-3);}.cls-22{filter:url(#drop-shadow-1);}.cls-11{filter:url(#drop-shadow-5);}.cls-11,.cls-13{fill:#f1e6d2;}.cls-23{clip-path:url(#clippath-1);}.cls-24{filter:url(#drop-shadow-6);}.cls-12{fill:#e5d3b7;filter:url(#drop-shadow-11);}.cls-13{filter:url(#drop-shadow-8);}.cls-14{filter:url(#drop-shadow-7);}.cls-14,.cls-16{fill:#ff5e39;}.cls-25{filter:url(#drop-shadow-2);}.cls-18{stroke:#fff;stroke-width:.69px;}.cls-26{clip-path:url(#clippath);}.cls-27{filter:url(#drop-shadow-9);}.cls-5{stroke:#000;stroke-dasharray:0 0 6 6;stroke-width:4.02px;}.cls-6{stroke:#ff5e39;stroke-width:4.56px;}.cls-28{filter:url(#drop-shadow-12);}.cls-17{fill:#fcfcfc;}</style><filter id="drop-shadow-1" filterUnits="userSpaceOnUse"><feOffset dx="3" dy="3"/><feGaussianBlur result="blur" stdDeviation="0"/><feFlood flood-color="#000" flood-opacity=".2"/><feComposite in2="blur" operator="in"/><feComposite in="SourceGraphic"/></filter><filter id="drop-shadow-2" filterUnits="userSpaceOnUse"><feOffset dx="5" dy="5"/><feGaussianBlur result="blur-2" stdDeviation="0"/><feFlood flood-color="#000" flood-opacity=".2"/><feComposite in2="blur-2" operator="in"/><feComposite in="SourceGraphic"/></filter><filter id="drop-shadow-3" filterUnits="userSpaceOnUse"><feOffset dx="5" dy="5"/><feGaussianBlur result="blur-3" stdDeviation="0"/><feFlood flood-color="#000" flood-opacity=".2"/><feComposite in2="blur-3" operator="in"/><feComposite in="SourceGraphic"/></filter><filter id="drop-shadow-4" filterUnits="userSpaceOnUse"><feOffset dx="2" dy="2"/><feGaussianBlur result="blur-4" stdDeviation="0"/><feFlood flood-color="#000" flood-opacity=".2"/><feComposite in2="blur-4" operator="in"/><feComposite in="SourceGraphic"/></filter><filter id="drop-shadow-5" filterUnits="userSpaceOnUse"><feOffset dx=".41" dy=".41"/><feGaussianBlur result="blur-5" stdDeviation="0"/><feFlood flood-color="#000" flood-opacity=".18"/><feComposite in2="blur-5" operator="in"/><feComposite in="SourceGraphic"/></filter><filter id="drop-shadow-6" filterUnits="userSpaceOnUse"><feOffset dx="5" dy="5"/><feGaussianBlur result="blur-6" stdDeviation="0"/><feFlood flood-color="#000" flood-opacity=".2"/><feComposite in2="blur-6" operator="in"/><feComposite in="SourceGraphic"/></filter><filter id="drop-shadow-7" filterUnits="userSpaceOnUse"><feOffset dx=".27" dy=".27"/><feGaussianBlur result="blur-7" stdDeviation="0"/><feFlood flood-color="#000" flood-opacity=".18"/><feComposite in2="blur-7" operator="in"/><feComposite in="SourceGraphic"/></filter><filter id="drop-shadow-8" filterUnits="userSpaceOnUse"><feOffset dx=".41" dy=".41"/><feGaussianBlur result="blur-8" stdDeviation="0"/><feFlood flood-color="#000" flood-opacity=".18"/><feComposite in2="blur-8" operator="in"/><feComposite in="SourceGraphic"/></filter><clipPath id="clippath"><path class="cls-4" d="m535.33,424.84s1.09.27,2.15-.1,8.49-3.45,8.49-3.45l16.63,11.17,16,3.72,22.19,5.9s.91.53,2.12.44l2.54-1.75.63-8.86-14.28-12.29-35.46-9.43h-21.94v8.55l.92,6.08Z"/></clipPath><filter id="drop-shadow-9" filterUnits="userSpaceOnUse"><feOffset dx="5" dy="5"/><feGaussianBlur result="blur-9" stdDeviation="0"/><feFlood flood-color="#000" flood-opacity=".2"/><feComposite in2="blur-9" operator="in"/><feComposite in="SourceGraphic"/></filter><filter id="drop-shadow-10" filterUnits="userSpaceOnUse"><feOffset dx=".2" dy=".2"/><feGaussianBlur result="blur-10" stdDeviation="0"/><feFlood flood-color="#000" flood-opacity=".18"/><feComposite in2="blur-10" operator="in"/><feComposite in="SourceGraphic"/></filter><filter id="drop-shadow-11" filterUnits="userSpaceOnUse"><feOffset dx=".41" dy=".41"/><feGaussianBlur result="blur-11" stdDeviation="0"/><feFlood flood-color="#000" flood-opacity=".18"/><feComposite in2="blur-11" operator="in"/><feComposite in="SourceGraphic"/></filter><clipPath id="clippath-1"><path class="cls-4" d="m595.5,402.21l2.54-3.73s.7-.26,1.15-.7l-4.63-12.47-26.78-4.28-24.83,16.95-5.84,13.94-3.33,10.18,1.82,2.79s1.49.29,2.91-.63l10.43-11.22,42.15-12.87,4.39,2.04Z"/></clipPath><filter id="drop-shadow-12" filterUnits="userSpaceOnUse"><feOffset dx="3" dy="3"/><feGaussianBlur result="blur-12" stdDeviation="0"/><feFlood flood-color="#000" flood-opacity=".2"/><feComposite in2="blur-12" operator="in"/><feComposite in="SourceGraphic"/></filter><clipPath id="clippath-2"><path class="cls-4" d="m659.08,312.25c-.25-.32-.99-.36-1.46-.58-.33-.16-.58-.4-.87-.61.39-.16.84-.5,1.15-.46,1.8.22,2.95-.06,2.66-1.84-.02-.11.29-.3.55-.56.72.31,1.42.6,2.11.9l-.3,2.55c11.48-7.2,21.25-17.22,28.13-29.46-.2.08-.39.16-.58.24-.06-.25-.25-.64-.17-.74.31-.36.72-.63,1.09-.93.04.18.08.37.13.59.96-1.76,1.85-3.58,2.69-5.42-.16.06-.31.13-.47.16-1.08.21-2.18.29-3.27.42.28-.85.64-1.71.81-2.56.19-.96.03-1.94.34-2.88,0-.02.03-.05.04-.07-.11.01-.22.02-.32.07-1.09.57-1.56-.79-2.45-.85-.04,0-.08-.3-.07-.46,0-.05.17-.16.24-.14.44.13.88.28,1.32.43.35.12.72.19,1.05.37.14.07.24.24.34.4.3-.5.92-.98,1.37-1.47.4.3.81.6,1.21.9-.23.21-.47.43-.7.64.56.35,1.11.69,1.67,1.04-.14.85-.28,1.69-.43,2.54,1.12-2.59,2.11-5.27,2.98-8.02,13.64-43.47-10.61-89.94-54.08-103.58-15.37-4.82-31.12-4.89-45.66-1.06.03.19.04.36.02.53-.05.33-.3.63-.46.94-.97-.65-1.06.56-1.64.74-.29.08-.56.22-.83.33,0-.28-.11-.64.03-.84.3-.43.22-.69.04-.91-7.28,2.2-14.22,5.4-20.62,9.47.05,0,.09,0,.14,0,.34.03.62.68.93,1.05-.61.35-1.23.71-2.03,1.17-.25-.46-.46-.83-.64-1.16-5.87,3.93-11.25,8.61-15.98,13.97.15-.07.31-.12.45-.11.21.01.38.49.56.76-.37.18-.74.37-1.25.62-.09-.26-.21-.51-.28-.69-3.74,4.31-7.07,9.04-9.89,14.16.24-.02.65-.02.75.11,1.62,2.04,4.86,1.77,6.06,4.45.29.64,1.34.98.44,1.9.47.39.95.77,1.41,1.17.34.3.66.62,1,.94-.29.31-.36.45-.43.44-1.78-.11-3.57-.18-5.33-.45-.2-.03-.47-1.7-.26-1.83,1.09-.67,1.4-1.31.7-2.47-.74-1.24-1.66-1.68-3.07-1.25-.55.17-1.17.04-1.76.05,1.23-.82.4-1.81.32-2.73-2.53,4.64-4.66,9.58-6.3,14.81-13.56,43.2,10.33,89.34,53.29,103.31.04-.19.07-.35.08-.39.09-.17.29-.56.5-.96.08.32.22.59.23.97,0,.22.01.44.02.66,4.1,1.28,8.22,2.23,12.34,2.86.04-.09.08-.18.12-.27,0,.09,0,.19,0,.28.47.07.93.12,1.4.18.12-.21.25-.44.41-.74-.04.29-.07.54-.1.78,3.73.48,7.45.71,11.14.68-1.52-1.63-3.04-3.27-4.52-4.98-.25-.29-.27-1.11-.4-1.68.39-.14.87-.54,1.17-.38,1.63.89,3.31,1.69,4.79,2.99.61.53.8,2.19,1.11,3.43.03.13,0,.33-.03.57,13.93-.47,27.39-4.47,39.18-11.39-.6.21-1.2.15-1.83-.65Zm31.14-34.02c.06-.37.32-.71.5-1.07.18.48.41.94.52,1.45.01.06-.09.17-.24.31.31.14.61.28.92.41-.33.4-.72,1.14-.98,1.15-.86.02-1.67-.23-2.84-.44.7-.8,1.33-1.68,1.46-1.65.25.06.48.16.72.25-.05-.15-.09-.29-.07-.41Zm.26-4.69c.17.05.29.29.64.67-.81.12-1.33.19-1.84.27,0-.29-.11-.63,0-.85.35-.69.8-.19,1.19-.09Zm-138.08-74.84c-.02-.93-.15-1.47-.02-2.02.17-.7.55-1.41.83-2.11.07.83.19,1.62.18,2.52,0,.2-.46.76-.99,1.61Zm-.88,5.65c0-.45-.1-1.11.01-1.31.44-.75.95-1.35,1.44-2.01-.01.56-.02,1.12-.05,2.1-.57.5-.99.86-1.4,1.22Zm110.7,94.07c.15-.66.26-1.33.46-1.96.09-.27.35-.45.87-1.07-.3,1.48-.47,2.27-.63,3.06-.23-.01-.47-.02-.7-.04Zm17.34-47.74c-.61-.43-1.27-.65-1.34-1.02-.1-.53.22-1.17.36-1.77.87.21,1.73.42,2.6.63-.46.62-.93,1.24-1.61,2.16Zm.58-4.99c.6-.62,1.2-1.25,2.11-2.19.87.8,1.69,1.42,2.24,2.18.14.19-.89,1.27-.94,1.25-1.17-.36-2.28-.81-3.41-1.24Zm5.1-8.34c.49-.54.98-1.08,1.69-1.87.57.37.9.6,1.24.82-.52.37-.99.83-1.56,1.07-.38.16-.91,0-1.37-.02Zm-7.26,33.31c-.11.11-.56.03-1.36.05.78-.84,1.23-1.4,1.79-1.89.1-.09.63.14.97.22-.46.54-.88,1.11-1.39,1.62Zm4.65-3.31c-.41.2-1.15-.11-1.74-.2.46-.69.92-1.37,1.53-2.27,1.06.34,1.75.56,2.45.78-.73.58-1.39,1.27-2.23,1.69Zm3.46-13.03c.27.18.68.29.77.56.14.41.06.93.08,1.47-.17,0-.51.1-.66-.04-.25-.24-.48-.62-.52-.99-.03-.3.21-.67.33-1.01Zm6.85,2.24c.32.01.61.31.92.48-.4.31-.81.61-1.34,1.01-.18-.48-.41-.84-.34-.93.19-.26.51-.57.76-.56Zm-3.5,2.55c.72.98,1.79,1.87,2.05,2.97.16.69-.89,1.71-1.35,2.5-1.19.06-1.95.27-2.26.06-.26-.17-.03-.81.02-1.25.14-1.12.22-2.23.49-3.35.08-.32.68-.63,1.05-.94Zm2.73-16.48c.46.23,1.03.43.99.51-.18.37-.46.82-.85,1.02-.24.13-.75-.13-1.14-.21.3-.39.6-.79,1-1.32Zm-.96,3.52c-1.07.61-2.15,1.22-3.22,1.83-.05-.08-.09-.15-.14-.23-.71.22-1.42.55-2.12.63-.41.05-.82-.28-1.22-.45.27-.26.48-.62.81-.77.67-.31,1.4-.63,2.1-.72,1.26-.16,2.67-1.69,3.79-.31Zm-6.57-24.9c.24-.11,1.66,1.01,1.51,1.26-.79,1.25-.71,1.96.84,2.4,1.66.47,3,.2,4.31-1.08.51-.49,1.3-.82,1.96-1.22-.94,1.63,1.14,1.7,1.66,2.58,0,0-.82.59-1.1.55-3.19-.51-6.69,1.88-9.82.59-.75-.31-2.17.13-1.76-1.19-.79.01-1.59.03-2.38.03-.59,0-1.17-.04-1.75-.07.13-.43.12-.59.19-.63,2.09-1.11,4.16-2.25,6.33-3.22Zm-4.55,7.43c-.56.49-1.11.98-2,1.75-1.02-.23-1.95-.43-2.89-.64.45-.46.92-1.29,1.34-1.32,1.19-.1,2.37.12,3.55.21Zm-7.43-20.44c3.5-.01,7,0,10.49.05.64.01,1.22.29,1.83.44-.52.35-1.03.71-1.47,1.01-4.18.88-7.74.13-11.31-.52-.3-.05-.45-.4-.67-.61.38-.13.79-.38,1.14-.38Zm3.22,5.12c-.06-.02-.07-.25-.12-.47.35-.32.7-.63,1.04-.95l1.2.92c-.06.9.35,2.04-.85,2.32-.23.05-.46.46-.7.66-.17.14-.36.22-.55.32.03-.27,0-.62.11-.78.62-.96.81-1.69-.14-2.02Zm-3.99,14.89c.23.1.37.5.67.97-.37.24-.64.55-.77.48-.22-.12-.35-.49-.52-.75.21-.25.5-.75.62-.7Zm-1.64,7.57c.14,1.32.42,1.59,1.11.23.17-.34.43-.59.65-.88.06.47.11.95.1.9-.19,1.9-.95,2.69-1.57,2.44-.51-.21-.76-1.4-1.01-2.25-.09-.3.14-.86.23-1.3.17.28.45.52.49.86Zm3.54-8.22c-.08-.24-.16-.47-.24-.7-.22-.03-.48-.08-.79-.11.23-.31.39-.57.55-.75,0-.03-.02-.06-.03-.09-.04-.2.21-.82.27-.81.31.03.74.03.88.32.34.69.5.28.79-.22.13-.22.42-.25.64-.37-.11.32-.22.64-.32.96-.34,1.01-.69,2.02-1.75,1.76Zm-9.41,8.68c.25-.29.56-.45.81-.74.28-.32.02-1.49.7-1.08.15.09.01,1.14-.12,1.72-.08.36-.4.66-.62.99.28.09,1.19.36,1.19.36v.05c.02.13-.09.36-.18.48-.85,1.04-2.17.48-2.19-.95,0-.24.23-.62.41-.83Zm.88-9.85c-.04-.36.25-.78.49-1.47,1.46.5,2.59.89,3.71,1.27-.63.68-1.19,1.78-1.92,1.95-1.64.39-2.16-.67-2.28-1.76Zm4.74-15.12c1.3.56,2.19.94,3.08,1.32-.57.52-1.11,1.36-1.73,1.48-.67.14-1.72-.23-2.03-.67-.25-.36.34-1.17.68-2.13Zm-13.28,23.01c.91.1,1.65.18,2.38.26-.63.61-1.15,1.46-1.91,1.75-.58.22-1.46-.25-2.21-.42.54-.49,1.08-.99,1.74-1.59Zm1.73,3.98c-.03.39-.41.81-.63,1.21-.08-.52-.15-1.05-.21-1.48.28-.69.46-1.16.65-1.63.07.63.24,1.25.19,1.89Zm3.27-38.92c.05-.04.54.27.82.42-.52.54-1.03,1.08-1.6,1.59-.05.05-.52-.19-1.03-.39.68-.63,1.21-1.15,1.81-1.62Zm-5.71,1.84c.28.53.46.86.63,1.2-.53.26-1.07.62-1.59.72-.19.04-.36-.55-.54-.85.47-.34.94-.67,1.5-1.08Zm-13.37,29.38c-.39.51-.69.88-.98,1.26-.12-.36-.43-.87-.34-1.06.2-.42.58-.72.9-.97.05-.04.23.42.41.78Zm-3.09-1.18s-.18.12-.37.25c-.05-.44-.1-.84-.14-1.24l.27-.16c.09.37.17.76.24,1.15Zm11.98-24.11c-1.09.85-2.16,1.71-3.29,2.52l-.07.02c.04.18.09.34.13.53-.33.42-.5.63-.67.84l-.27-1.42c-.18-.02-.39-.05-.64-.07.19-.17.36-.33.53-.49-.01-.07-.03-.14-.04-.21.22-.13.62-.43.64-.38v.03c.78-.71,1.43-1.31,2.15-1.84.18-.13.99.3,1.51.47Zm.94-11.29c-.06.02-.14-.03-.21-.04-.12-.07-.22-.19-.29-.34.02.5.07,1.03-.07,1.44-.23.65-.71,1.16-1.08,1.73-.13-.08-.26-.17-.39-.25,0-.24-.04-.5.02-.73.09-.36.19-.77.37-1.05.33-.49.7-.92,1.06-1.36-.17-.62-.02-1.52.46-1.78.13-.07.42-.02.56.08.42.31.06,2.15-.44,2.31Zm.06-16.24c.8-.56.74.4.84.66.34.87,1.21.69,1.77,1.07.39.26.64.73.95,1.11-.4.07-.8.15-1.2.22-1.22-.21-1.88-.93-2.23-1.98-.12-.35-.28-.98-.13-1.09Zm-8.58,23.46l.1.04-.1-.04s.08-.02.12-.02c.09-.32.11-.74.35-.88.76-.44,1.62-.76,2.46-1.09.04-.01.36.45.33.47-.65.43-1.3.86-2,1.21-.34.17-.75.21-1.14.3,0,.02-.01.05-.02.07-.04,0-.08-.01-.11-.02-.14.44-.16.92-.45,1.3-.56.71-1.28,1.36-1.94,2.03l-.93-2.47c.86-.3,1.72-.63,2.59-.89.22-.07.48,0,.73.03v-.03Zm7.3-31.48c.23.37.52.71.67,1.11.04.11-.28.36-1.02,1.23-.12-.85-.24-1.35-.22-1.84,0-.18.37-.34.57-.5Zm-2.74,7.61c.03.4.12.79.07,1.19-.03.26-.26.51-.4.77-.12-.43-.25-.86-.42-1.48.34-.22.55-.35.75-.47Zm-17.94,42.48c-.16.77-.51,1.5-.77,2.25-.07-.8-.13-1.59-.18-2.17.04-.12.08-.23.12-.34-.22,0-.44.02-.66.02-.21,0-.42-.12-.63-.19v-.04c-.51-.17-1.05-.31-1.56-.51-.17-.06-.28-.27-.41-.41.19-.08.39-.21.58-.22.75-.01,1.56-.15,2.25.08.26.08.49.25.72.43.18-.52.34-.98.49-1.43.6.5.39,1.28.19,2.02.09.08.17.15.26.22-.11,0-.21,0-.32,0-.02.09-.05.19-.07.28Zm-19.93,77.39c-.26.27-.51.53-.8.83-.15-.64-.29-1.23-.43-1.82.26-.14.62-.52.74-.37.24.29.34.89.49,1.36Zm5.31-28.6c.25-.42.51-.85.81-1.35.5.08.87.14,1.24.2-.21.38-.3.89-.65,1.09-.33.19-.92.05-1.4.06Zm-5.37,18.21c-.52.23-.78.49-.88.36-.21-.29-.34-.77-.51-1.17.23-.39.45-.78.68-1.17.18.51.36,1.02.7,1.98Zm.8-24.43c-.44.45-.9.89-1.39,1.31,0,0-.31-.19-.63-.39.55-.43,1.06-.84,1.59-1.21.02-.02.43.3.43.3Zm-2.17-14.72c-.87-.52-1.25-.74-1.63-.97.43-.29.86-.82,1.28-.81,1.18.02,2.36.26,3.54.44.07.01.09.31.14.48-1.22.32-2.45.63-3.33.86Zm-10.68,37.92c-.42.18-.82.5-.85.34-.12-.59-.12-1.34-.17-2.03.35-.27.7-.54,1.05-.81,0,.75-.02,1.51-.03,2.5Zm19.3-76.95c-.44-.34-.67-1.01-.87-1.59-.03-.08.59-.4,1.07-.72.48.69.83,1.21,1.19,1.73-.48.22-1.19.74-1.39.59Zm-1.15,9.66s-.38.6-.8,1.27c-.88-.59-1.64-1.06-2.32-1.6-.07-.06.26-.45.41-.69.92.33,1.84.64,2.72,1.02Zm-1.1-6.55s.09.32.17.65c-.54.09-1.04.18-1.54.23-.02,0-.1-.47-.1-.47.48-.16.97-.3,1.47-.42Zm-.69,13.83c.3-.02.64-.15.88-.04.31.15.54.48,1.29,1.2-.92-.11-1.22-.06-1.36-.18-.31-.28-.54-.65-.81-.98Zm3.89-.03c-.11-.31-.24-.66-.37-1.01.12-.06.31-.22.34-.16.19.28.34.61.51.93-.12.06-.24.12-.48.25Zm-.26,4.91c-.32.02-.64.03-1.18.06-.11-.33-.3-.68-.31-1.04,0-.11.67-.39.7-.34.31.4.53.87.79,1.32Zm-14.64,16.89c.03.21.07.42.14.85-.41.2-.88.42-1.34.64-.03-.21-.16-.54-.08-.61.4-.33.85-.6,1.29-.88Zm-8.85,28.75c.11-.33.52-.5,1.72-1.57-.26.92-.42,1.71-.68,2.41-.96,2.62-.36,3.39.46,4.06.19.16.15.96.21,1.47-.43.47-1.15,1.51-1.26,1.32-.6-1.07-1.25-2.2-1.48-3.79-.11-.79.6-2.6,1.02-3.91Zm11.91-15.28c.18.59.32,1.19.45,1.69-.33.28-.48.41-.63.54-.1-.73-.21-1.46-.31-2.19.17-.01.48-.07.49-.04Zm-5.73,18.09c.58.19,1.17.38,1.68.54-.14.44-.21.66-.28.88-.54-.26-1.1-.48-1.59-.79-.1-.06.12-.41.19-.63Zm2.37-2.32c.37-.41.72-.91.81-.89.44.09.96.24,1.16.52.12.18-.29.63-.46.96-.45-.17-.9-.35-1.51-.59Zm16.02-44.18c-.18-.97-.37-1.93-.5-2.63.29-.8.42-1.15.55-1.51.16.31.47.59.47.94,0,.99-.14,2-.24,3.01,0,.06-.18.13-.27.19Zm19.09-45.64c-.28,1.04-.94,1.04-1.5.8-.19-.08-.31-.36-.57-.69.66-.69,1.17-1.22,1.68-1.75.15.55.52,1.18.4,1.64Zm.56-4.04c.03-.19.26-.48.38-.49.12,0,.28.29.27.47,0,.18-.21.39-.41.71-.12-.31-.28-.51-.25-.69Zm-3.96,19.8c-.73.07-1.45-.15-2.6-.31.88-.71,1.5-1.48,1.88-1.46.7.04,1.27.55,1.89.86-.39.32-.8.87-1.18.9Zm.95.61c-.05.26-.3.49-.68,1.06,0-.77-.07-1.14.03-1.41.09-.25.37-.4.56-.59.04.32.15.65.09.95Zm-.26,4.69c.32-.11.53-.2.74-.25.04,0,.11.11.11.18.02.7.03,1.4,0,2.1,0,.04-.39.21-.39.18-.16-.65-.29-1.31-.47-2.22Zm2.04-7.71l.05-.05s0,.08-.01.11c.18.28.36.55.54.83-.23.22-.45.43-.68.65.05-.49.09-.98.14-1.47-.01-.02-.03-.04-.04-.06Zm1.33-.82c-.85-.44-1.52-.62-1.85-1.01-.24-.28-.04-.83-.03-1.26.56.23,1.25.37,1.63.73.28.26.15.81.24,1.55Zm.34-4.38c-.06.39-.54.76-.83,1.14-.09-.45-.17-.89-.28-1.43.31-.49.56-.88.81-1.28.12.53.38,1.06.31,1.58Zm3.1-13.51c-.4.51-.77.99-1.13,1.46-.1-.38-.36-.88-.26-1.13.29-.71.73-1.31,1.11-1.95.08.45.16.91.28,1.62Zm-4.51-4.29c.36-.31.92-.92,1.03-.88.28.1.53.22.78.35.03-.49.05-.98.1-1.47.02-.17.96-.66,1.04-.5.38.8.75.95,1.41.19.7-.81.95-1.65.71-2.75-.1-.43-.03-.97-.03-1.46.52.99,1.15-.17,1.73-.22,0,0,.06.63-.05.78-1.16,1.67-.99,4.32-2.52,5.74-.36.34-.56,1.27-1.08.66-.22.45-.44.91-.66,1.36-.1.19-.2.37-.3.56.12-.07.23-.15.35-.23.27.72.59,1.17.56,1.6-.02.29-.54.54-.83.81-.31-.54-.66-1.06-.89-1.63-.01-.04.16-.15.41-.31-.05-.05-.09-.09-.09-.12.02-.54.04-1.08.06-1.62-.04.02-.08.06-.12.07-.68.2-1.41.17-2.12.24.17-.39.33-.79.5-1.18Zm-5.03,10.36c.34.12.61.42,1.09.78-.5.3-.91.62-.96.58-.35-.36-.62-.79-.92-1.19.26-.06.57-.24.78-.16Zm-3.35,10.85c.51-.97.84-.6,1.03.26.08.38.37.64.42,1.02.11.78.06,1.5-.76,1.53-.82.03-1.65-.01-2.47.26-.38.13-.73.92-1.17,1.51-.4-.68-1.07-1.24-1.06-1.95.01-1.03.76-1.16,1.38-1.07.98.15,1.87-.12,2.63-1.56Zm3.58-26c.19-.36.49-.61.74-.91.02.39.05.79.07,1.12-.76,2.6-2.13,4.41-3.46,6.24.6-.13,1.21-.29,1.79-.21.46.06.83.72,1.25,1.11-.33.07-.67.13-.98.19.08.28.13.56.07.78-.12.42-.6.91-.91.96-.25.04-.47-.52-.84-.98.28-.25.5-.46.72-.65-.61-.4-1.07-.7-1.49-.99-.04,0-.07.02-.11.03,0-.03,0-.06.01-.09-.02-.01-.04-.03-.06-.04,0,0,.04,0,.06-.01.03-.22.04-.44.12-.61.99-1.99,2-3.98,3.02-5.94Zm-13.7,41.33c-.54.33-.98.63-1.44.87-.05.03-.14-.28-.22-.42.42-.43.84-.87,1.27-1.26.02-.02.18.38.39.81Zm3.22-24.23c.1.86.21,1.7.29,2.57.01.12-.18.33-.48.83-.21-1.11-.39-1.86-.47-2.67-.01-.14.43-.48.66-.73Zm-2.91,8.73c-.52.41-1.03.82-1.55,1.23-.09-.48-.17-.96-.3-1.63.45-.34.9-.9,1.29-.9.24,0,.38.84.56,1.31Zm3.38-16.52c.11.45.23.89.32,1.35,0,.04-.24.24-.48.48-.11-.57-.21-1.01-.27-1.48,0-.04.28-.23.44-.35Zm-4.41,8.66c.02.49.05.98.02,1.48-.01.24-.11.49-.18.73l.03.03s-.03.04-.04.06c.17.2.41.35.5.63.19.52.29,1.11.43,1.67-.49-.05-.98-.11-1.47-.16.1-.57.18-1.15.31-1.72.03-.15.13-.28.22-.41,0-.02,0-.06.01-.08-.13-.14-.33-.27-.33-.45,0-.56.09-1.13.17-1.7,0-.02.32-.06.32-.06Zm-2.12,6.65c.04.31.19.7.1.92-.18.44-.49.78-.89,1.39-.09-.7-.29-1.27-.17-1.48.22-.39.63-.57.96-.83Zm-2.38,7.59c-.36.23-.72.47-1.15.74-.25-.32-.44-.56-.63-.8.31-.22.62-.61.93-.6.29,0,.57.42.85.66Zm1.25-10.17c.2-.09.43.14.82.3-.46.36-.74.69-1.02.77-.21.06-.42-.21-.62-.34.27-.25.54-.61.82-.72Zm-11.47,36.28c.24.36.31,1,.36,1.57.01.12-.47.62-.53.57-.35-.34-.64-.79-1.1-1.4.61-.37,1.16-.88,1.26-.73Zm19.91-69.92c-.02.3,0,.62-.08.91-.04.14-.1.26-.13.31-.5,1.75-.84,3.02-1.24,4.25-.09.27-.37.46-.56.68,0-.27-.04-.57.03-.82.43-1.54.87-3.08,1.36-4.59.1-.3.41-.5.62-.74Zm-23.15,66.71c.87.29,1.64.9,2.45,1.37-.98.11-1.96.22-2.67.31-1.2-.67-2.02-1.12-2.85-1.58.99-1.3,2.09-.42,3.06-.1Zm-14.22,39.68c.1.19.05.94-.08,1.23-.13.29-.51.48-.68.4-.2-.1-.3-.55-.64-1.26.96-.29,1.3-.55,1.39-.37Zm2.1-20.03s.52-.32,1.1-.67c.22.94.43,1.73.56,2.54.01.09-.38.25-.58.38-.37-.74-.76-1.48-1.08-2.24Zm-3.62,12.94c-.36.05-.71.12-.7.1.13-.95.28-1.91.48-2.86.02-.1.36-.21.56-.31-.1.93-.21,1.87-.34,3.08Zm30.56-93.65c.06.38.09.78.13,1.17-.09,0-.19.01-.39.03,0-.38,0-.78-.01-1.18.09,0,.26-.05.27,0Zm-9.51,21.04c.02.33.12.68.05.98-.1.44-.32.85-.49,1.27l-.43-.62c-.05-.29-.19-.78-.14-.83.31-.32.66-.55,1-.8Zm-13.89,39.72c1.06,0,2.12.03,3.17.1.1,0,.18.3.37.64-.88.24-1.68.59-2.5.64-.37.02-.79-.54-1.14-.88-.07-.06.06-.49.1-.49Zm-3.82-10.73c.84-.02,1.69-.04,2.53,0,.04,0,.13.68.09.69-.83.27-1.68.5-2.83.81-.03-.56-.06-.94-.05-1.31,0-.07.17-.19.26-.2Zm4.52-20.16c.39.58.59.88.79,1.18-.92.24-1.85.48-2.77.72-.09-.39-.31-1.09-.24-1.12.7-.31,1.45-.52,2.22-.77Zm-15.09,35.44c.03.67.87,1.29,1.43,2.06-.95.7-1.85,1.87-2.71,1.86-1.24-.02-1.14-1.35-.83-2.42.5-1.73.48-3.29-1-4.62-1-.9-.44-1.49.66-1.82.49-.15.89-.65,1.37-.74.97-.19,1.82-.09,1.58,1.35-.24,1.44-.57,2.9-.51,4.34Zm3.63-14.1c.39-.06.83-.26,1.17-.15.3.1.49.53,1.04,1.2-.93-.01-1.4.11-1.69-.06-.27-.16-.36-.65-.53-.99Zm2.86-3.69c.42,0,.87-.09,1.24.04.47.17.88.52,1.31.8-.41.03-.83.07-1.27.11-.45-.34-.87-.64-1.28-.95Zm4.24-32.32c.13.93.39,1.87.34,2.8-.02.33-.78.63-1.2.95-.25-.83-.5-1.66-.79-2.64.73-.49,1.19-.8,1.65-1.11Zm-10.42,8.3c.7.41,1.15,1.25,1.71,1.91-.14.23-.29.45-.43.68-.29,0-.61.07-.87-.03-.41-.15-.87-.34-1.14-.66-.52-.62-.92-1.34-1.37-2.02.71.02,1.56-.2,2.09.12Zm-2.25,3.59c-.64.03-.96.14-1.09.03-.5-.43-.94-.93-1.41-1.4.4-.14.98-.53,1.17-.38.46.35.75.94,1.32,1.75Zm2.99-21.91c.12-.04.34.26.82.65-.88.33-1.42.57-1.99.71-.1.02-.3-.44-.46-.68.54-.24,1.07-.5,1.63-.68Zm-9.1,7.24c1.13-1.43,2.27-2.79,3.41-4.17.02.15.04.31.1.76.15.31.41.81.66,1.31-.35.19-.73.21-1.05.59-.84,1.03-1.85.43-2.53,2.74-.25-.06-.54-.03-.72-.24-.08-.09.03-.88.12-1Zm-1.82,9.01c.14.68.42,1.2.27,1.54-.21.51-.71.89-1.09,1.33-.4-.62-.81-1.23-1.21-1.85.58-.29,1.16-.59,2.03-1.03Zm-2.84,3.97c-.67.23-1.33.46-2.33.8-.11-1.13-.29-2.06-.23-2.99.02-.23,1.16-.63,1.18-.59.51.89.94,1.84,1.38,2.78Zm-9.09,5.28c-.15-.61-.23-.96-.32-1.32.49-.05.99-.21,1.45-.12.3.06.53.46.79.71-.56.21-1.12.43-1.93.74Zm2.11-4.33c.22-.54.56-.99.86-1.48-.09.54-.17,1.08-.31,1.94-.28.36-.58.76-.89,1.17.11-.55.16-1.15.35-1.63Zm3.1-5.27c-.82-.5-2.41.09-2.38-1.65.94.02,1.87.04,2.81.06-.01.09-.02.17-.03.26.53.17,1.11.25,1.56.53.27.16.34.65.49,1-.29.09-.59.28-.86.25-.54-.07-1.13-.17-1.59-.44Zm-4.59,17.32c.04-.27.4-.89.47-.88.62.11,1.21.33,1.79.55.06.02.04.3.06.46-.21.24-.43.6-.62.68-.58.24-1.16.45-1.7.48-.11,0-.08-.81,0-1.29Zm0,1.53c.57-.14,1.14-.27,2.05-.49.48.7.93,1.35,1.37,2-.49.17-1.19.64-1.45.46-.75-.52-1.33-1.29-1.97-1.97Zm2.64,4.59c.21.02.39.38.71.71-.41.21-.71.49-.92.43-.21-.06-.49-.46-.46-.67.04-.2.44-.49.66-.48Zm-14.32,2.57c-.02-.92-.15-1.47-.02-2.02.17-.7.55-1.41.83-2.11.07.83.19,1.62.18,2.52,0,.2-.46.76-.99,1.61Zm5.82,14.02c-2.06-1.76-4.11-3.52-6.13-5.33-.37-.33-.57-.86-.85-1.3.48-.04.96-.08,1.37-.12,2.89,1.36,4.6,3.79,6.38,6.15.15.19.07.57.09.86-.29-.08-.65-.08-.86-.25Zm3.98-.92c-.04-.25-.14-.68-.11-.73.16-.26.33-.49.49-.74-.27.31-.79.64-1.28,1.11-.48-1.13-.82-1.91-1.15-2.68.6-.16,1.33-.6,1.75-.4.46.22.89,1.06.86,1.6,0,.09-.06.17-.12.26.38-.57.76-1.15,1.14-1.72.04.21.08.42.17.91-.61.83-1.19,1.61-1.77,2.4Zm1.87-3.21c.47-1.2.69-2.29.44-3.19.65-.88,1.35-2.24,1.92-2.51.79-.38.66,1.94-.26,4.75-.26.5-.52,2.23-.9.63-.08-.33-.79.2-1.2.33Zm-3.87,17.21c-.05,0-.18-.5-.27-.77.57-.19,1.14-.41,1.73-.55.05-.01.21.42.41.85-.72.2-1.29.37-1.87.47Zm8.89-26.81c.71-.26,1.59-.92,2.1-.7,1.16.49.93,1.66.46,2.65-.16.33-.54.54-1.02,1-.61-1.17-1.07-2.06-1.54-2.95Zm-3.24,20.74c-.16.03-.17-.66-.25-1.03.34-.43.69-1,1.02-1.22.14-.09.24.54.49,1.22-.59.51-.97.98-1.26,1.03Zm14.08-30.9c.77-1.52.17-1.76-1.23-1.64-1.72.16-3.33-1.22-5.19-.21-.47.25-1.51-.14-2.02-.56-.64-.53-1-1.4-1.48-2.13.82-.1,1.64-.28,2.45-.28.54,0,1.08.39,1.63.39.81,0,2.31-.17,2.32-.3.05-1.49-1-.97-1.86-.95-.3,0-.59-.58-.92-.86-.39-.33-.82-.9-1.21-.87-1.1.07-2.19.37-3.29.61-.56.12-1.12.44-1.65.38-.28-.03-.49-.68-.73-1.04.46-.21.93-.38,1.36-.63,1.84-1.08,3.71-1.48,5.78-.7.67.25,1.6.24,2.28-.02.57-.22,1.06-.2,1.51-.07.24-.31.5-.61.67-.98.44-.95.62-2.67,1.43-2.11.41.28.34.45-.51,3.04-.07.23-.14.48-.21.73.54.35,1.07.69,1.68.78,1.51.21,3.17-.64,4.68-.43.66.09,1.12,1.58,1.66,2.47,1.75-2.19,1.85-2.21,3.41-.13.68.92,1.22.71,1.96.25.72-.45,1.47-1.17,2.21-1.19.74-.02,1.48.7,2.22,1.09-.59.15-1.37.12-1.72.49-.8.87-1.28,2.04-2.09,2.9-1.07,1.14-1.3,2.04.06,3.05.14.11,0,1.02-.19,1.1-.38.15-1.13.17-1.29-.07-1.39-2.12-3.15-1.98-5.1-1.06.11.43.39.9.29,1.27-.28,1.04-.93,2.01-1.04,3.05-.11,1.03.71,2.39.29,3.11-.87,1.5,0,1.76.9,2.21,0-.02,0-.05,0-.07.04,0,.09.01.13.02.39-.32.78-.63,1.18-.95.18.4.37.8.55,1.2-.57-.08-1.15-.17-1.72-.25-.03.02-.06.05-.09.07l-.04-.02c.12,1.18.28,2.36.31,3.55,0,.36-.4.74-.61,1.11-.23-.24-.49-.45-.68-.72-.31-.47-.53-1.01-.87-1.46-1.34-1.8-.83-1.77-.68-4.23.12-2.05.63-4.5-.92-6.42-.35-.43-.94-.8-1.02-1.28-.22-1.38.03-3.57-1.63-.54-.09.16-.64.27-.7.19-.17-.24-.38-.67-.27-.88Zm2.49,9.2c-.56.15-1.13.3-1.82.48-.48-.54-.88-.98-1.27-1.42.67-.2,1.4-.66,2-.53.45.1.73.95,1.09,1.47Zm-13.28,27.85c1.06-.17,2.12-.37,3.19-.49.15-.02.33.33.83.85-1.4.36-2.37.68-3.37.81-.17.02-.43-.75-.65-1.16Zm-6.3,30.68c-.36.09-1,.32-1.05.23-.28-.55-.43-1.17-.63-1.76.4-.04.85-.21,1.2-.09.49.17.91.56,1.36.86-.3.25-.59.51-.89.76Zm9.14-23.02c-.16-.06-.28-.24-.42-.4l-.02.02s-.06-.03-.08-.04c-.22.23-.44.58-.65.58-.67,0-1.33-.17-1.99-.31-.03,0,.02-.57.04-.57.59-.04,1.19-.08,1.78-.02.28.03.55.19.82.32.01-.02.04-.05.04-.05.02.02.04.05.06.07.3-.3.56-.71.91-.88.69-.33,1.43-.51,2.15-.76-.23.86-.46,1.72-.69,2.57-.66-.18-1.32-.33-1.96-.55Zm1.29,6.45c-.21-.48-.55-.95-.6-1.44-.03-.36.32-.76.63-1.44.28.8.58,1.3.58,1.79,0,.36-.4.73-.61,1.09Zm3.56-1.73c-.39-.39-.47-1.11-.68-1.69.39-.07.9-.33,1.14-.17.47.31.78.86,1.37,1.57-.88.16-1.62.51-1.84.3Zm.07-6.25c.08-.42,1.14-.66,1.76-.98.32.91.64,1.82.96,2.73-.61.15-1.21.3-2.06.51-.26-.8-.78-1.59-.65-2.27Zm12.72-1.2c-.65-.16-1.29-.39-1.93-.59-3.88-1.19-4.3-.83-3.72,3.26.06.39.11.78.16,1.17-.4-.3-.94-.51-1.16-.9-.99-1.75-1.71-3.71-2.92-5.28-.53-.69-2-.57-3-.94-.27-.1-.37-.65-.55-.99.28-.1.59-.35.84-.29,1.59.35,3.17.76,4.75,1.15,0,.02-.01.05-.02.07,1.92.42,3.86.81,5.77,1.29.75.19,1.52.46,2.17.88.41.27.61.88.91,1.34-.43-.05-.87-.05-1.29-.16Zm-3.85,44.76c-.25-.5-.21-1.53-.3-2.34.45-.09.96-.4,1.31-.2.24.14.25.98.45,1.96-.73.32-1.32.87-1.47.58Zm1.49,20.23c-.88-.25-1-3.61-.18-5.4.13-.29.75-.44.79-.21.23,1.18.36,2.49.49,3.79.04.42-.03.97-.05,1.53-.37.11-.76.37-1.05.28Zm2.4-4.19c-.45-.23-.56-1.95-.47-3.19.04-.47,1.07-1.48,1.66-2.24l-.08.06s.05-.06.07-.09c-.07-.22-.15-.42-.2-.66-.28-1.12-.69-2.22.44-3.83.15-.22.42.02.63.04-.46,1.48.6,2.95-.87,4.45v.03c.48-.19,0,3.78,1.27.16.12.81.31,1.56.35,2.45.02.6-.22,2-.25,2.02-.87.4-1.89,1.15-2.54.8Zm10.24-9.95c-.17-.36-.48-.61-.49-1.1-.01-.87.13-1.87.22-2.82-.02-.04-.04-.07-.06-.11l.08-.07-.08.07s0-.06.01-.09c-.54-.15-.87-1.28-1.81.57-.92,1.8-2.02,3.09-2.92,1.96-.02.03-.04.06-.05.1v-.14s.03.03.05.05c.56-1.14,1.37-2.31,1.58-3.42.27-1.43.58-2.46,1.15-3.26-.03-.04-.07-.09-.1-.12-.02-.11-.09-.29-.04-.33.33-.2.66-.4.98-.6.18-.34.35-.82.42-1.18.21-1.05-.22-2.52.91-2.73.22-.04.21,1.53.22,2.42,0,.18-.01.37-.01.54.89-.55,1.78-1.1,2.67-1.64.03-.02.28.16.26.18-.82,1.09-1.51,2.29-2.57,3.22-.1.09-.25.14-.41.18-.02.54,0,1.06-.04,1.61-.04.83-.19,1.73-.3,2.6.02,0,.05.02.07.02,0,.06-.01.12-.02.18.31.55.69,1,.85,1.76.07.37-.37,1.42-.58,2.17Zm-.1,18.77c.15-1.05.15-1.83.38-2.36.2-.49.75-1.05.94-.95.19.11.26,1.07.12,1.54-.14.46-.61.79-1.44,1.76Zm5.65-19.83c-.16-.39-.35-.75-.53-1.12-.01.02-.03.05-.04.07-.01-.05-.02-.11-.03-.16-.91,0-3.36-5.52-3.02-6.97.08-.36.48-.93.66-.97.3-.08.71-.02.79.36.56,2.47,1.05,5.04,1.56,7.58l.04.02s.02.05.04.08c.08-.13.18-.31.21-.29.78.62,1.82.84,2.24,2.05.37,1.06-1.13,1.25-1.92-.64Zm7.46-19.52c-.24-1.07-.67-2.04-.46-2.22.51-.42,1.31-.54,2-.63.14-.02.59.83.5.93-.53.61-1.16,1.12-2.05,1.92Zm2.55-6.84c.4-.49.86-1.38,1.19-1.39.73-.03,1.43.34,2.04.66.09.05-.4.71-.73,1.28-1-.22-1.75-.39-2.49-.55Zm-7.93,52.2c-.69-2.33-2.19-3.33-2.1-6.97.04-1.57.53-4.28-.93-4.03-.11.02-.1-.67-.15-1.03.19-.17.46-.57.54-.49.65.71,1.64,1.07,1.82,2.37.41,2.96.57,6.18,1.53,8.45.11.27,0,.94-.01,1.66-.29.03-.62.25-.68.05Zm.93-22.91c.43-.31.86-.69,1.27-.86.09-.04.1.67.21,1.52-.52.13-.85.34-1.09.23-.19-.1-.27-.58-.4-.89Zm-.74,10.16c.75-1.77,1.51-2.35,2.16-1.42.13.19.1.74.18,1.49-.96.47-1.74.85-2.52,1.24.06-.44.05-.96.19-1.3Zm8.92-2.35c-.19-.65-.29-1.44-.42-2.18.22-.1.56-.42.63-.26.25.55.4,1.27.7,2.32-.52.09-.85.31-.91.12Zm3.26-5.17c-.56.26-1.43,0-2.15-.03.66-.54,1.32-1.08,1.85-1.52,1.16-.11,1.95-.19,2.74-.27-.8.62-1.52,1.39-2.44,1.82Zm3.5-6.21c.81-.24,1.14-.51,1.23-.32.1.19.05.94-.08,1.23-.13.29-.52.49-.67.39-.18-.11-.24-.6-.48-1.3Zm-5.91,22.91c-.15-.04-.06-.94-.08-1.46.31-.11.65-.34.92-.28.16.03.2.52.36,1.03-.53.34-.93.78-1.2.71Zm5.95-13.91c.11-.98.15-1.96.36-2.94.07-.34.86-.99.87-.92.14.74.2,1.6.31,2.71-.68.51-1.11.83-1.54,1.16Zm12.47-24.14c-.15-.29-.13-.96-.09-1.52,0-.12.43-.46.81-.85.02.8.04,1.38.06,1.96-.27.16-.68.58-.77.4Zm7.03.19c-.81,2.06-1.63,4.18-2.49,6.27-.16.38-.51.62-.78.93-.09-.51-.37-1.15-.23-1.5.89-2.18,1.87-4.29,2.84-6.41.06-.14.41-.21.52-.11.11.1.09.46.14.83Zm-11.3,30.65c.05-.21.09-.36.14-.55-.22-.07-.49-.16-.47-.35.12-1.12.3-2.3.59-3.44.16-.61.58-1.17.88-1.76,0,.55.08,1.09-.03,1.65-.19.98-.48,2.02-.96,3.9.04.01.09.03.12.04l.03-.02c-.04.07-.12.21-.29.53Zm8.59-19.45c-.39.79-.75,1.6-1.12,2.4-.26-.65-.5-1.33-.8-1.95-.26-.55-.58-1.03-1.04-1.84.97-.4,1.89-1.15,2.61-.99,1.22.28,1.18.68.35,2.38Zm12.58-30.21c-.83-.19-1.25-.29-1.68-.39.89-.81,1.78-1.61,2.66-2.42.36.25,1.07.65,1.02.71-.59.71-1.29,1.37-2.01,2.09Zm-5.52,31.19c-.19-.06-.31-.37-.46-.58.2-.18.41-.49.6-.5.19-.02.36.26.81.63-.53.27-.78.5-.95.45Zm5.16-1.71c-.08.28-.35.49-.53.73-.02-.05-.05-.11-.08-.16-.24.22-.45.4-.67.42-.25.03-.51-.54-.77-.84.44-.24.88-.49,1.34-.69.3-1.49.62-2.99.99-4.46.04-.18.6-.43.65-.34.2.4.3.93.44,1.41l-.35.13c-.34,1.27-.66,2.55-1.03,3.81Zm6.3,1.78c-.16,0-.3-.37-.45-.58.35-.25.68-.54,1.06-.71.1-.05.32.29,1.11,1.03-.8.13-1.26.27-1.71.25Zm8.75-22.75c-.77-.64-1.69-1.2-2.24-1.96-.2-.27.46-1.01.73-1.54.83.48,1.66.96,2.65,1.53-.5.87-.82,1.42-1.14,1.97Zm6.3-13.45c-1.07.15-2.14-.2-3.21-.34.01-.27.02-.54.04-.81.33-.19.65-.46,1.01-.56.56-.15,1.21-.32,1.73-.25,1,.13,1.94.43,2.9.65-.82.46-1.63,1.19-2.45,1.31Zm2.82-3.83c-.76.04-1.47-.24-2.66-.48.71-.45.99-.75,1.21-.75.85,0,1.69.09,2.53.15-.36.38-.76,1.07-1.08,1.08Z"/></clipPath></defs><rect class="cls-15" y="928.01" width="1297.25" height="15.68"/><path class="cls-3" d="m1079.63,371.4c-4.68-10.92-12.5-19.19-22.63-23.94-.02,0-.03-.01-.04-.02-1.77-6.38-5.04-12.19-9.74-17.31-8.73-9.5-17.89-11.49-24.05-11.49-2.32,0-4.66.28-6.93.84-.65.16-1.35.31-2.11.45-.02-.84-.06-1.69-.13-2.53-.53-6.61-2.66-12.56-5.98-17.48,10.87-13.71,13.7-30.33,8.14-48.74-2.08-6.9-5.04-13.02-7.65-18.42-.99-2.05-1.92-3.99-2.77-5.88-7.36-16.38-20.57-29.16-39.27-37.98-4.67-2.2-6.83-3.58-7.99-5.09-5.68-7.38-12.86-12.22-20.64-14.03-3.97-12.2-14.7-20.33-27.62-20.33-5.03,0-9.97,1.22-14.58,3.58,1.49-2.78,2.98-5.64,4.48-8.58,4.08-8.01,6.8-14.94,8.58-21.82,1.77-6.86,3.39-15.09,2.02-24.2-3.05-20.27-17.42-32.86-37.49-32.86-.8,0-1.61.02-2.44.06-3.08.14-6.21.58-9.57,1.35-15.07,3.42-29.43,9.75-43.89,19.33-14.84,9.84-29.68,21.34-45.37,35.15-13.08,11.52-23.37,25.27-30.57,40.85-.92,1.99-1.85,3.97-2.78,5.94-2.19,4.66-4.46,9.47-6.59,14.45-4.15,9.73-8.35,17.13-13.19,23.28-8.08,10.25-13.02,21.39-14.77,33.21-9.54,4.17-17.43,11.12-23.06,20.4-.99,1.63-1.97,3.26-2.95,4.9-4.39,7.33-8.54,14.26-13.39,20.17-8.3,10.12-10.35,23.19-5.6,35.86.16.42.31.83.46,1.25.85,2.35,1.91,5.29,3.67,8.42,2.83,5.07,3.91,9.37,3.49,13.96-1.02,11.29,3.03,21.76,11.07,29.37-1.48,5.12-1.28,9.64-.62,13.09,1.15,5.95,4.82,14.35,15.77,20.63,6,3.45,12.61,5.55,19.64,6.24,7.08.7,14.01,1.98,20.54,3.45-5.1,3.88-10.14,8.23-15.14,13.07-8.11,7.86-27.99,16.53-39.65,21.22-4.79,1.93-8.88,4.47-12.33,6.7-12.77,8.24-17.55,17.27-15.99,31.21-4.24-3.55-5.55-6.24-6.04-9.03-1.7-9.68-4.23-19.48-7.73-29.97-7.94-23.79-34.52-43.14-59.24-43.14-1.12,0-2.24.04-3.34.11-1.9.13-3.87.2-5.87.2-7.56,0-15.22-.93-23.08-2.28,4.31-8.32,4.45-18.29.21-29.35-4.23-11.04-11.51-18.4-16.62-22.98-5.75-5.15-9.63-10-12.19-15.24-3.51-7.19-8.36-13.83-14.39-19.76-2.08-2.05-8.43-8.27-7.16-24.54.33-4.2,3.86-9.01,8.8-11.97,10.29-6.16,21.22-11.45,32.79-17.05,3.8-1.84,7.59-3.67,11.36-5.54,6.56-3.25,13.43-7.21,19.18-14.09,6.85-8.2,9.5-18.04,7.46-27.71-.18-.84-.26-2.54-.33-4.17-.14-3.06-.32-6.88-1.27-11.06-1.11-4.84-.45-7.4,2.82-10.97,8.42-9.19,12.35-21.19,11.36-34.71-.3-4.1-.73-8.08-1.15-11.94-.2-1.86-.4-3.71-.59-5.57-.85-8.55-1.22-14.02.74-17.97,3.41-6.88,3.34-13.48,2.99-17.84-.81-10.13-4.27-19.61-10.04-27.63.79-5.79.7-11.13-.27-16.24-3.03-15.91-14.12-27.29-28.96-29.71-2.78-.45-5.33-.67-7.81-.67-8.56,0-15.03,2.69-19.73,5.94-1.53-.29-3.25-.65-3.87-.94-6.74-4.53-14.7-6.83-23.66-6.83h-.73c-1.84.03-3.68.04-5.52.04-2.1,0-4.21-.01-6.31-.02-2.17-.01-4.34-.02-6.52-.02h-1.22c-6.44-4.12-12.78-6.2-19.38-6.36-1.02-.02-2.03-.04-3.04-.04-14.73,0-26.53,2.84-37.12,8.94-5.15,2.97-10.1,4.94-15.12,6.02-5.41,1.17-10.34,2.92-14.69,4.47-.88.31-1.76.63-2.64.94-13.31,4.64-23.69,13.4-30.02,25.33-1.3,2.45-2.65,4.88-4.08,7.45-1.16,2.09-2.35,4.24-3.57,6.49-5.67,2.63-10.75,6.54-15.1,11.64-12.97,15.18-20.38,30.64-22.64,47.28-2.38,17.48-1.84,32.25,6.26,45.33-7.38,1.79-14.32,4.98-20.74,9.54-4.4,3.12-9.68,5.18-16.6,6.48-4.49.84-8.78,2.02-12.22,2.96-8.53,2.34-16.11,7.05-22.51,13.97-9.76,10.55-13.03,23.91-8.97,36.64.2.64.51,1.61-.89,4.58-4.92,10.4-6.95,21.39-6.04,32.65-.05.06-.12.12-.21.2-2.24,2.04-4.94,4.06-7.99,6.29-11.31,8.3-18.78,19.35-22.21,32.84-1.35,5.35-2.41,10.88-3.12,16.45-.23,1.76-.74,3.21-1.66,4.68l-.68,1.08c-2.15,3.43-4.59,7.31-6.66,11.78-4.14,8.94-9.29,20.07-8.91,33.7.31,11.08,1.3,24.13,6.36,36.99,6.06,15.38,10.75,31.26,14.92,46.14,4,14.27,11.26,26.83,21.58,37.32,2.85,2.9,5.63,5.91,8.57,9.1,1.23,1.33,2.45,2.66,3.69,3.99,2.05,2.2,3.46,4.44,4.29,6.83,3.86,11.05,9.93,21.03,18.04,29.69,1.19,1.27,1.82,2.61,2.11,4.49.17,1.15.37,2.29.56,3.43.28,1.67.55,3.24.7,4.6,2.6,22.76,11.29,39.96,26.54,52.57,1.04.86,2.24,5.09,2.63,6.47,3.48,12.23,10.08,21.52,19.21,27.36-3.3,2.57-6.85,5.13-10.68,7.72-16.82,11.35-27.68,27.31-32.27,47.42-5.77,25.27,5.82,46.58,30.24,55.63,2.34.87,4.59,1.56,6.57,2.16,1.92.59,3.73,1.14,5.11,1.71,12.14,4.96,18.8,12.54,21.58,24.56.42,1.83.78,3.91,1.16,6.1.39,2.25.79,4.57,1.32,7.04,3.66,16.91,14.81,28.78,31.4,33.42,5.76,1.61,11.75,2.43,17.82,2.43,2.35,0,4.76-.12,7.16-.36,5.12-.52,9.65-.77,13.86-.77,7.94,0,14.87.91,21.19,2.78,3.16.94,6.15,1.37,8.66,1.67,3.21.38,6.45.58,9.64.58,17.81,0,35.26-6.08,51.84-18.07,9.48-6.86,18.95-14.73,30.71-25.53,11.12-10.21,19.02-22.5,23.47-36.53,4.32-13.6,4.12-26.64-.58-38.75-1.47-3.78-3.04-7.39-4.55-10.88l-1.03-2.38c-5.12-11.87-7.64-22.97-7.71-33.95-.04-5.83,1.27-7.19,5.81-8.85,9.37-3.43,17.25-7.45,24.1-12.29,16.54-11.67,41.47-19.94,69.63-26.83.95-.23,1.9-.46,2.86-.67-.96,1.35-2.04,2.75-3.25,4.2-1.79,2.15-3.63,4.27-5.58,6.51-2.43,2.8-4.94,5.69-7.41,8.71-19.65,23.93-23.99,51.27-12.55,79.06,2.9,7.05,4.31,13.46,4.31,19.6,0,13.31,4.39,25.76,12.7,36.01,2.37,2.92,3.64,6.41,4.12,11.32.28,2.81.31,5.97.35,9.31.04,3.7.09,7.52.44,11.63,2.5,29.17,14.98,46.59,41.78,46.59,2.46,0,5.02-.15,7.63-.45,4.58-.52,9.42-.78,14.39-.78,8.23,0,27.26.71,37.6,2.17,1.19.17,2.38.35,3.58.53,5.13.78,10.95,1.67,17.23,1.67,4.21,0,8.11-.39,11.92-1.19,11.03-2.31,20.28-8.49,26.05-17.41,2.49-3.85,4.26-8.09,5.26-12.54,2.11.62,4.21,1.12,6.31,1.52,3.84.72,7.63,1.09,11.28,1.09,5.91,0,11.49-.95,16.64-2.77,3.93-1.39,8.07,1.36,8.53,5.5,1.32,11.74,7.33,21.91,17.61,29.4,7.42,5.41,15.53,8.15,24.09,8.15,7.49,0,14.94-2.14,22.15-6.36,1.23,1.44,2.67,2.85,4.37,4.18,6.68,5.21,15.26,8.08,24.16,8.08,9.79,0,19.04-3.39,26.05-9.55,4.46-3.92,8.2-8.77,11.43-14.83,2.33-4.37,4.39-8.44,6.28-12.45,1.44-3.04,3.25-4.68,6.46-5.84,1.99-.72,3.86-1.46,5.67-2.17.98-.39,1.96-.78,2.95-1.15,6.79-2.6,12.83-6.74,18.47-12.65,9.56-10.04,11.28-23.42,4.6-35.8-3.83-7.1-9.47-12.44-16.3-15.43l-.27-.12c-9.66-4.23-20.61-9.03-33.56-9.03-2.41,0-4.83.17-7.19.52-.73.04-1.48.06-2.23.06-4.44,0-8.94-.71-13.67-1.52-.14-3.03.08-5.97.66-8.76,2.25-1.52,4.56-3.02,7-4.59,7.74-5.01,15.74-10.18,23.32-17.15,11.78-10.83,19.83-23.22,27.61-35.19,1.65-2.54,3.3-5.08,4.99-7.6,3.7-5.52,5.81-12.23,6.1-19.4.42-10.3.99-24.41-4.94-38.74-2.55-6.15-3.51-10.75-3.03-14.48,2.08-16.29-.74-31.58-8.38-45.46,1.35-6.89,3.07-11.79,5.5-15.73,4.81-7.79,9.02-16.44,7.34-26.87-1.11-6.87-4.42-12.23-8.56-16.79,21.82-7.51,31.16-22.8,35.15-34.99.21-.64.43-1.27.65-1.91.55-1.59,1.17-3.39,1.74-5.4,3.73-13.31,2.62-26.71-3.22-38.76-5.64-11.65-12.54-20.47-21.07-26.95,2.64-.57,5.28-1.34,7.91-2.36l1.48-.57c.88-.34,1.8-.69,2.75-1.07,1.09,1.52,2.42,3.22,4.1,4.91,6.73,6.79,15.25,10.38,24.65,10.38h0c4.61,0,9.39-.89,14.19-2.65,14.03-5.13,22.42-16.48,22.61-30.14,3.09-8.22,2.65-17.05-1.31-26.28Z"/><g class="cls-22"><path class="cls-10" d="m879.63,721.46c-4.32.4-8.36-.33-12.21-2.42-5.89-3.2-11.95-5.79-18.53-6.17-5.39-.31-10.66-1.53-15.69-3.48-5.09-1.97-10.55-2.38-16.1-1.98-6.13.44-10.27-1.55-12.82-7.36-1.83-4.17-4.59-7.72-8.32-10.29-2.82-1.94-3.94-6.14-2.75-9.35,1.7-4.56,1.97-9.37,1.4-14.29-.46-3.93.7-7.82,3.04-11.01,5.49-7.44,6.24-15.88,4.46-24.58-1.82-8.86-2.49-17.94-2.36-26.98.18-12.15-4.59-21.57-16.44-26.79-7.14-3.14-7.1-3.9-3.75-11.24,1.56-3.41,3.11-6.78,3.9-10.49,2.06-9.7-1.17-18.85-9.87-23.44-10.6-5.59-19.77-13.17-29.96-19.33-9.85-5.95-21.82-6.94-32.1-11.91-5.72-2.77-10.96-6.72-17.13-8.25-2.49-.62-5.17-.86-7.28-2.32-.85-.59-1.59-1.39-1.91-2.38-2.52-7.95,23.76-16.09,28.64-19.37,8.24-5.55,15.72-12.16,22.87-19.04,11.41-10.99,24.14-19.99,39.31-25.14,10.27-3.49,20.94-5.05,31.67-5.83,14.63-1.05,28.65-4.06,42.01-10.28,5.92-2.76,12.08-5.08,18.25-7.25,7.23-2.55,14.21-2,20.78,2.42,5.25,3.53,10.58,6.92,15.29,11.18,6.37,5.75,13.6,8.99,22.38,8.16,2.56-.24,5.2.19,7.71-.22,15.25-2.52,28.6,2.69,41.45,9.99,8.65,4.91,16.06,11.08,21.9,19.34,10.01,14.15,4.74,29.09-2.76,39.02-5.7,7.54-15.59,7.35-23.98,9.2-10.38,2.28-16.99,9.47-17.55,20.43-.43,8.44,3.43,15.43,9.51,20.96,4.23,3.85,9.83,6.26,7.17,12.99-.83,2.11-2.2,3.95-3.51,5.8-4.12,5.81-6.4,13-7.6,19.98-1.83,10.67,1.4,18.92,6.02,28.39.91,1.86,1.81,4.36-.07,5.94-1.06.89-2.46,1.2-3.8,1.54-9.56,2.44-17.63,8.21-25.56,13.83-8.37,5.94-16.01,12.93-22.28,21.07-7.12,9.24-10.7,19.73-10.15,31.4.55,11.58-3.93,21.97-7.16,32.66-1.22,4.04-4.18,5.98-8.41,6.16-2.57.11-5.12.49-7.68.74Z"/><path class="cls-10" d="m509.03,667.9c-12.97,11.08-13.27,24.9-10.59,42.79,2.03,13.53,5.66,26.64,11.99,38.73,7.78,14.87,4.51,28.2-4.53,41.22-.64.92-1.81,2.32-2.58,3.12-13.24,13.84-27.47,26.56-44.35,35.83-11.7,6.42-24.38,8.09-37.42,4.51-13.07-3.59-26.34-3.82-39.72-2.89-5.17.36-10.34.88-15.52.08-6.88-1.07-12.3-6.46-13.76-13.27-.79-3.67-1.24-7.41-2.06-11.06-5.37-23.77-19.78-39.78-42.21-48.77-4.12-1.65-8.5-2.64-12.63-4.26-9.46-3.73-13-10.08-10.79-19.99,2.29-10.28,7.16-19.32,14.94-26.52,4.97-4.6,10.38-8.6,16.21-12.19,10.05-6.2,18.68-14.11,24.34-24.76,4.54-8.55,2.6-14.19-6.5-19.91-3.4-2.14-7.27-3.42-11.25-3.97-7.63-1.06-12.05-5.69-13.91-12.79-2.12-8.09-2.4-12.76-8.83-18.42-1.87-1.65-3.15-6.8-.2-9.64,7.41-7.14,13-10.69,24.2-9.67,9.07.82,17.06-2.21,24.06-7.91,2.9-2.37,5.75-4.8,8.56-7.28,5.02-4.45,10.71-5.44,17.01-3.47,1.79.56,3.57,1.13,5.33,1.76,12.45,4.46,22.95,1.07,32.05-7.96,1.49-1.48,2.89-3.06,4.39-4.54,5.14-5.06,12.2-4.99,17.19.22,1.13,1.17,2.08,2.54,2.97,3.9,5.36,8.24,13.14,11.56,22.72,11.47,4.47-.04,8.88-.4,13.26-1.28,3.14-.63,5.79-.19,8.43,2.06,4.9,4.18,11.1,5.9,17.06,8,2.49.88,4.98,1.74,7.43,2.71,7.35,2.91,11.97,10.32,11.5,18.2-.26,4.39-.92,8.79-2.59,12.9-4.72,11.63-3.81,19.34,1.07,27.83,3.49,7.23-.7,12.23-5.26,15.2Z"/><path class="cls-10" d="m491.91,577.91c-2.39-1.25-2.97-4.43-1.23-6.49h0c5.03-5.98,6.35-12.87,5.02-20.41-.7-3.96-2.3-7.6-3.84-11.27-6.1-14.59-2.82-28.02,9.9-37.45,12.6-9.33,25.45-18.36,40.23-24.14,2.6-1.02,5.12-2.32,7.55-3.72,12.9-7.38,18.61-16.82,17.59-30.09-.4-5.2,3.56-9.67,8.77-9.77,4.37-.09,8.66.3,12.8,1.96,10.55,4.21,18.96,11.09,22.71,22.42,2.51,7.56,4.63,15.27,5.83,23.12,2.14,14.13,9.8,24.51,20.93,32.82,8.9,6.64,18.37,7.44,28.48,3.24,5.7-2.37,10.77-5.65,14.94-10.23,4.36-4.8,11.55-6.53,16.76-2.64,9.29,6.93,19.73,10.4,30.78,12.93,6.24,1.43,11.47,5.22,16.48,9.11,5.93,4.61,12.18,8.65,18.96,11.96,8.53,4.15,10.15,8.83,6.68,17.76-2.34,6.02-6.44,11.35-4.71,18.93.53,2.31,1.9,4.34,3.78,5.79,2.83,2.19,6.08,4.27,9.52,5.66,5.96,2.41,8.41,7.11,8.9,13.15.18,2.26.28,4.55,0,6.79-.83,6.53-.16,13.15,1.54,19.51,2.29,8.58,2.79,16.79-3.01,24.32-3.57,4.64-4.45,10.48-3.25,16.37.52,2.57.33,5.25-.38,7.78-2.26,8.01-5.46,10.88-13.41,11.22-7.08.3-13.99-1.07-20.91-2.21-8.17-1.34-16.27-1.28-24.43.24-9.01,1.68-16.84,5.46-23.4,11.92-3.5,3.45-7.09,6.82-10.76,10.09-6.08,5.41-13.03,9.2-21.22,10.12-8.64.98-16.13,4.5-23.07,9.56-11.33,8.26-20.12,3.46-21.16-4.6-.64-4.93-.38-9.96.96-14.75,3.77-13.53,13.09-22.49,21.48-32.21,6.47-7.49,12.12-15.5,15.75-24.77,1.8-4.59,3.05-9.34,3.03-14.34-.06-11.59-6.81-19.27-18.4-21.1-8.75-1.39-17.33-.11-25.76,1.84-28.09,6.49-55.19,15.51-79.11,32.26-6.4,4.02-12.5,8.08-16.68,2.49-4.45-5.96-6.21-12.4-3.61-19.79,3.2-9.13,5.06-18.4,3.44-28.25-1.38-8.4-5.59-14.34-13.3-17.59-5.43-2.29-13.29-3.44-21.15-7.54Z"/><path class="cls-10" d="m294.67,594.78c-4.04,3.54-10.41,1.82-11.92-3.33-1.14-3.89-1.76-7.86-2.48-11.79-.67-3.68-1.03-7.42-1.69-11.1-1.56-8.72-5.09-16.56-11.9-22.77-4.95-4.51-8.22-10.49-9.99-16.95-2.15-7.84-6.67-14.28-12.04-20.11-4.44-4.82-8.94-9.59-13.45-14.35-6.07-6.41-10.32-13.87-12.79-22.33-5.04-17.29-10.11-34.55-16.67-51.37-4.66-11.94-5.35-24.58-2.89-37.15,1.27-6.5,4.13-12.57,7.95-17.98,5.03-7.13,7.57-15.02,8.44-23.57,1.27-12.32,6.35-22.23,17.11-29.13,8.36-5.36,14.08-12.92,16.17-22.91.93-4.43-3.2-22.28,7.17-18.9,7.01,2.29,14.47,1.39,21.61.22,6.42-1.06,12.57-.46,18.79.75,9.18,1.79,18.37,3.56,27.55,5.35,5.7,1.11,11.24,2.71,16.19,5.89,6.4,4.11,9.3,12.04,6.91,19.27-1.5,4.56-3.99,8.61-6.37,12.72-5.06,8.74-9.51,17.71-11.52,27.74-1.21,6.06-1.45,12.11-.28,18.13,1.08,5.58,1.52,11.17.8,16.77-1.56,12.05,3.36,20.86,13.11,27.5,3.28,2.23,6.69,4.3,9.55,7.13,7.44,7.33,11.76,16.29,13.57,26.43,2.55,14.25,7.59,27.55,15.33,39.69,4.88,7.66,6.96,15.73,6.37,24.65-.12,1.87-.04,3.75-.17,5.62-.75,10.83,2.58,20.4,9.32,29.01,1.87,2.4,3.71,4.83,5.37,7.38,7.24,11.17,8.13,11.77,2.13,17.81-6.55,6.6-13.94,9.17-22.93,5.3-2.13-.92-4.45-1.44-6.7-2.06-8.23-2.26-15.8-.76-22.58,4.33-3.36,2.53-6.44,5.43-9.7,8.1-4.64,3.81-9.83,7.21-15.97,6.18-14.1-2.37-24.94,4.14-31.42,9.82Z"/><path class="cls-10" d="m332.8,135.06c.41-3.62,4.52-5.48,7.52-3.41,3.52,2.43,7.06,4.26,11.13,5.18,6.13,1.39,12.16.74,18.08-.61,5.83-1.34,10.99-.75,16.05,2.56,13.83,9.06,28.17,8.66,42.74,1.85,2.12-.99,4.19-2.09,6.34-3,11.29-4.77,22.42-2.25,30.55,6.92,1.24,1.4,2.28,2.97,3.46,4.42,5.16,6.36,5.54,12.86,1.6,20.16-6.68,12.38-13.86,24.45-22.08,35.82-8.7,12.03-12.5,25.64-14.06,40.25-.22,2.08.3,4.16,1.48,5.89,6.82,9.98,15.6,10.36,24.22,11.67,2.3.35,4.63.45,6.71,1.77,3.63,2.28,4.18,3.41,2.45,7.38-4.18,9.64-6.06,20.19-4.45,30.64.84,5.47,2.56,10.78,4.91,15.78,2.35,5,5.48,9.27,8.64,13.75.65.92,1.2,1.99,1.04,3.15-.12.92-.67,1.72-1.23,2.46-4.37,5.76-10.64,10.52-17.99,11.4-7.51.89-14.95.68-22.2-1.77-.66-.22-1.34-.43-1.98-.72-14.79-6.67-29.06-5.27-43.08,2.47-4.91,2.71-10.3,4.41-15.65,6.13-10.39,3.34-21.6,2.72-32.09.24-1.74-.41-3.5-1.16-4.56-2.6-2.89-3.92-.13-9.74,1.1-13.74,2.02-6.53,5.29-12.46,8.68-18.35,5.19-9.02,10.56-17.96,8.74-30.46-.44-3-1.74-5.82-3.68-8.15-7.77-9.37-17.81-13.42-28.52-15.59-10.54-2.13-21.13-4.02-31.68-6.11-6.04-1.19-12.03-1.31-18.13-.37-5.55.85-11.17,1.28-16.79.5-6.35-.87-7.97-4-5.87-12.02.99-3.76,1.09-7.66.79-11.53-.27-3.45,1.25-6.11,3.76-8.45,2.66-2.47,5.98-4.1,9.51-4.96,3.74-.91,7.47-1.85,11.23-2.61,8.58-1.72,16.71-4.5,23.85-9.7,8.85-6.43,18.58-8.13,29.29-6.25,7.34,1.29,14.79,2.43,22.31.7,2.98-.69,5.9-1.48,8.59-2.94,7.91-4.31,9.54-11.7,3.8-18.68-3.88-4.72-8.72-8.46-14.08-11.45-1.02-.57-2.18-.9-3.16-1.51-16.76-10.41-19.44-16.98-17.31-36.05v-.07Z"/><path class="cls-10" d="m340.53,370.13c0-2.41,2.19-4.22,4.55-3.76l5.52,1.07c13.83,2.7,26.99.25,39.77-5.11,4.31-1.81,8.61-3.67,12.83-5.7,7.79-3.75,15.63-4.21,23.79-1.17,7.24,2.7,14.59,4.98,22.43,5.33,5.67.26,11.2-.21,16.68-1.62,5.83-1.5,10.77-4.43,14.78-8.95.92-1.03,1.76-2.16,2.73-3.14,1.86-1.88,4.97-1.58,6.44.61,3.96,5.87,12.9,18.69,19.09,24.14,3.52,3.1,6.7,6.52,8.49,11.02,1.25,3.13.11,5.46-3.68,7.61-8.36,4.75-11.9,10.95-10.33,20.05,1.56,9.07,6.67,15.46,15.9,17.6,8.65,2,17.42,3.47,26.11,5.25,2.89.59,7.37,1.03,9.1,3.89,2.31,3.82,2.62,6.93,1.86,11.5-.89,5.31-3.71,9.52-7.9,12.85-3.52,2.8-7.48,4.85-11.61,6.48-15.19,5.99-28.41,15.31-41.44,24.82-9.8,7.15-16.14,16.79-17.82,29.13-.94,6.93.39,13.49,2.84,19.91,1.17,3.06,2.6,6.03,3.54,9.15,2.84,9.51-2.12,17.22-11.8,18.94-4.63.82-9.26,1.22-13.95,1.41-6.15.25-10.91-1.94-14.25-7.2-1.63-2.57-3.51-4.98-5.89-6.93-5.12-4.19-11.17-5.5-17.68-4.79-1.34.15-2.61-.61-3.1-1.87-2.72-7.01-7.38-12.84-11.82-18.76-5.24-7.01-8.17-14.61-7.46-23.52.31-3.95.06-7.95.07-11.93,0-6.47-1.57-12.56-4.92-18.07-8.61-14.12-14.53-29.16-17.86-45.45-3.01-14.74-11.04-26.66-24.01-34.91-2.55-1.62-4.84-3.68-7.08-5.72-2.72-2.48-4.03-5.61-3.95-9.39.09-4.12.06-8.24.04-12.76Z"/><path class="cls-10" d="m442.77,123.99c-3.04-.13-8.58,1.54-13.96,4.03-3.81,1.77-7.5,3.8-11.59,4.96-8.25,2.35-16.41,2.37-23.64-2.54-8.73-5.93-17.83-7.65-28.01-4.94-4.01,1.07-8.31.96-12.49.15-3.11-.6-5.97-2.14-8.2-4.39-4.94-4.97-5.24-8.1-1.45-13.85,3.78-5.73,7.88-11.01,14.66-13.58,4.12-1.56,6.73-5.01,8.83-8.72,3-5.29,5.96-10.61,8.71-16.03,3.38-6.67,8.75-10.85,15.69-13.17,4.44-1.48,8.86-3.1,13.41-4.12,8.78-1.97,16.85-5.54,24.66-9.86,6.74-3.73,14.12-4.66,21.68-4.79,3-.05,5.45,1.25,7.81,2.76,4.7,3.01,9.81,4.25,15.34,4.15,4.45-.08,8.9.2,13.34-.02,6.9-.34,13.23.64,19.51,4.11,6.37,3.52,13.87,3.84,21.09,4.48,4.33.38,7.74-1.63,10.6-4.56,2.41-2.47,5.16-3.29,8.28-2.17,3.32,1.19,4.07,4.23,4.46,7.36.39,3.08-.34,6.05-.86,9.04-.97,5.56-.19,10.66,3.76,15.07,3,3.35,5.06,7.3,6.27,11.65.83,2.97,1.23,5.97-.11,8.93-4.96,10.94-3.79,22.4-2.76,33.83.36,3.96,1.09,7.87,1.58,11.82.91,7.26-.29,13.97-5.19,19.74-1.36,1.6-2.35,3.51-3.7,5.11-5.56,6.59-6.83,14.3-5.51,22.45,1.16,7.18.42,14.52,2.15,21.62.62,2.54-.46,4.52-2.26,6.27-1.7,1.65-3.61,3-5.72,4.03-9.66,4.71-19.38,9.32-29.01,14.09-7.33,3.63-14.58,7.43-21.83,11.22-3.16,1.66-5.64,4.21-7.82,6.95-2,2.51-3.67,3.87-6.76,1.18-3.43-2.99-7.78-4.04-12.33-4.46-3.94-.37-7.9-.83-11.61-2.5-3.2-1.44-4.6-3.64-4.01-7.23,1.68-10.23,4.13-20.09,10.28-28.79,8.11-11.46,15.61-23.33,22.36-35.67,8.51-15.57,9.38-23.46-4.51-40.04-7.26-8.66-16.67-13.41-31.13-13.61Z"/><path class="cls-10" d="m634.39,753.44c-1.09-5.29,2.08-10.42,7.23-12.05,5.47-1.73,10.21-5.06,14.96-8.41,3.49-2.46,7.35-4.19,11.62-4.63,14.23-1.45,25.56-8.42,35.41-18.32.5-.5,1.05-.94,1.5-1.48,11.44-13.59,26.43-15.53,42.77-13.05,7.17,1.09,14.3,2.51,21.61,2.18,2.56-.11,5.16-.25,7.65-.78,7.32-1.56,13.03-.08,15.97,6.46,5.5,12.22,14.66,16.49,27.18,15.31,1.21-.11,3.19-.04,4.4.1,7.71.94,8.63,2.5,5.05,9.41-3.68,7.1-5.36,14.41-4.09,22.35.72,4.47.22,8.9-.81,13.24-2.5,10.46-2.64,17.49,4.23,25.96,5.5,6.78,1.16,17.19-5.16,23.96-10.92,11.71-16.22,16.79-29.04,13.52-3.89-.99-7.34-3.04-10.81-4.97-4.14-2.29-8.46-4.01-13.14-4.68-10.64-1.53-17.8,5-17.33,15.67.15,3.33,1.27,6.41,2.08,9.57,2.53,9.84-1.23,14.72-11.54,14.84-10.11.12-20-2.02-29.98-3.2-12.87-1.51-25.68-1.3-38.53-.3-1.63.13-3.26.41-4.89.44-8.67.15-12.92-2.98-15.59-11.2-1.32-4.08-1.51-8.27-1.59-12.48-.11-6.44-.22-12.86-.96-19.3-1.07-9.29-4.78-18.06-10.35-25.57-4.58-6.18-6.79-12.98-6.53-20.7.13-4.01-.48-7.92-1.3-11.92Z"/><path class="cls-10" d="m967.21,631.41c-.59,4.01-.83,8.09-.29,12.11.74,5.52,2.52,10.32,4.84,16.96,3.38,9.69,5.82,20.07,2.12,30.11-1.24,3.37-3.12,6.47-5.07,9.5-6.66,10.33-14.21,20.38-22.81,29.19-7.93,8.13-18.02,14.08-27.71,19.88-10.06,6.02-13.01,14.83-14.25,25.02-.62,5.08-.42,10.3-.14,15.44.68,12.18,9.41,22.21,21.24,24.76,9.89,2.13,19.86,3.41,29.98,2.32,8.78-.95,21.04-3.43,28.9,1.83,1.51,1.01,2.7,2.52,3.01,4.31.74,4.23-3.22,6.77-6.9,7.58-13.97,3.1-27.23,8.01-35.29,20.79-4.2,6.67-6.06,15.14-11.35,21.1-4.43,4.99-12.57,4.32-14.88-2.55-3.78-11.24-16.8-16.8-28.86-8.23-3.05,2.17-6.16,4.26-9.35,6.23-4.38,2.71-8.82,2.89-13.1-.3-4.11-3.07-5.9-7.22-5.23-12.27.53-3.96,2.05-7.65,3.65-11.32,2.34-5.37,4.82-10.69,6.13-16.46,2.34-10.34-2.8-23.75-13.01-27.94-2.74-1.13-5.65-1.83-8.35-3.05-10.35-4.7-17.46-18.29-14.97-29.44,1.39-6.22,2.33-12.44,1.09-18.77-1.67-8.59,3.64-15.23,6.16-22.64.52-1.52,2.09-1.65,3.53-1.75,4.12-.28,8.03.68,11.4,2.88,10.38,6.76,21.59,6.6,33.2,4.8,5.78-.9,10.07-3.61,12.96-8.54,5.36-9.16,8.41-21.66,9.5-32.15.75-7.25.26-14.71,2.32-21.71,2.29-7.78,7.56-14.35,13.34-20.04,9.85-9.7,19.48-16.61,32.23-21.97,2.34-1.52,6.79-1.42,5.95,4.32Z"/><path class="cls-10" d="m1056.56,387.27c.57-3,.56-6.19-.6-8.76-1.75-3.84-5.06-6.9-8.84-8.72-7.52-3.62-12.78-9.2-14.89-17.48-.58-2.29-1.61-4.39-3.09-6.25-1.22-1.54-2.91-2.98-4.79-2.2-6.67,2.76-14.36,1.85-20.6,6.34-4.6,3.31-9.97,5.11-15.87,4.64-6.05-.48-10.51-4.06-12.36-9.79-1.61-4.96-.09-9.2,2.69-13.21,3.06-4.42,6.35-8.7,7.9-13.99,0-.03.02-.06.03-.09,1.05-3.66-3.75-6.07-6.13-3.09-.92,1.16-1.86,2.27-2.89,3.28-3.66,3.63-8.99,4.5-12.95,2.42-4.52-2.37-5.79-6.43-5.52-11.23.18-3.13,1.31-5.92,2.75-8.62,2.22-4.16,5.14-7.8,8.37-11.23,3.39-3.6,7.34-6.52,11.18-9.59,9.92-7.95,12.48-15.84,8.5-27.89-1.83-5.52-4.7-10.69-6.97-16.08-5.87-13.95-16.42-23.01-30.03-28.87-4.33-1.87-8.82-3.72-11.7-7.51-4.98-6.56-16.31-9.43-22.28-15.34-4.46-4.42-9.82-5.52-14.51-3.28-1.87.89-3.63,2.32-5.18,4.28-12.2,15.42-18.12,22.94-27.33,40.53-6.32,12.07-9.81,23.32-6.01,36.73,2.05,7.23.16,14.55-3.87,21.01-4,6.4-12.19,8.68-19.09,5.61-5-2.22-10-4.18-15.34-5.54-8.72-2.22-12.78-7.74-13.34-16.69-.61-9.6,2.22-18.6,5.84-27.42,3.97-9.67,7.29-19.59,9.52-29.8,4.51-20.56,12.89-40.04,24.51-57.56,8.22-12.4,15.33-25.49,21.72-38.94,2.31-4.87,3.82-10.09,4.39-15.44,1.46-13.65-3.47-14.51-13.65-12.05s-19.71,6.53-28.51,12.04c-17.37,10.86-33.32,23.58-48.65,37.08-9.96,8.76-17.66,19.33-23.24,31.39-3.24,7.01-6.45,14.03-9.56,21.09-4.07,9.24-8.66,18.21-14.84,26.2-6.75,8.72-11.59,18-11.87,29.36-.19,7.99-4.79,13.19-12.28,15.26-8.88,2.46-14.3,8.37-18.34,16.17-2.79,5.39-8.07,13.75-12.06,18.32-5.31,6.09-5.56,12.34-.79,19.42.26.38.37.86.59,1.27,4.41,8.22,6.99,16.8,5.62,26.29-.55,3.82.9,6.75,4.35,8.85,2.43,1.48,4.8,3.07,6.89,5.01,6.62,6.14,7.08,8.94,2.81,16.11-.08.13-.16.32-.24.56-1.8,5.26,2.76,10.47,8.29,9.78.49-.06.97-.11,1.46-.08,10.25.62,20.11,2.86,29.89,5.79,14.36,4.31,28.72,4.31,43.01-.44,10.53-3.5,21.53-5.45,32.62-5.48,3.25,0,6.5-.07,9.75-.25,10.87-.58,12.99-1.31,15.1-10.32,1.35-5.76,4.44-9.84,9.56-12.33,3.14-1.53,6.13-3.41,8.57-5.92,4.69-4.82,11.27-7.37,18-7.36,11.3.02,21.92,2.95,32.24,7.18,4.47,1.83,8.29,4.94,10.04,9.39,3.41,8.67,10.19,11.69,18.63,12.49,3.02.28,6.08.63,9.1.45,12.59-.77,24.1,2,34.48,9.43,5.31,3.8,11.23,4.34,17.36,1.8,1.33-.55,2.75-1.42,4.17-1.66,1.59-.27,2.44,1.02,3.4,2.05,1,1.08,1.96,2.19,2.97,3.27,2.92,3.12,5.92,6.07,9.46,8.5,6.84,4.7,14.44,6.06,22.5,4.51,4.3-.83,6.99-4.88,8.54-8.67.58-1.41,1.08-3.04,1.4-4.72Z"/></g><g class="cls-25"><path class="cls-1" d="m604.13,438.82c.17-1.32-.26-2.63-1-3.74-4.17-6.33-15.32-6.8-22.58-7.9-7.34-1.1-11.74-5.12-18.11-9.04-4.9-2.9-10.67-5.11-16.34-4.24-6.37.94-10.76,7.83-9.15,14.12,2.15,8.59,16.4,16.04,24.4,18.88,7.91,2.74,17.03,1.8,25.58.43,5.73-1.16,15.42-1.91,17.17-8.28l.03-.22Z"/><path class="cls-17" d="m573.41,422.66l-2.67.7,2.37,1.4c.64.38,1.32.66,2.04.83,1.22.3,3.27.85,4.85,1.49.94.38,1.94.6,2.96.59h1.35s-1.35-1.81-1.35-1.81c-.85-1.14-2.01-2.02-3.34-2.52-.72-.27-1.63-.54-2.76-.79-1.14-.24-2.33-.21-3.46.09Z"/></g><g class="cls-21"><path class="cls-2" d="m536.22,422.69s-2.03-4.65,13.33-15.26c15.36-10.61,35.05-22.88,44.02-15.25,8.97,7.62,8.55,15.67-7.47,21.62-16.02,5.95-39.02,10.48-41.9,11.14-2.88.66-7.4,1.51-7.99-2.25Z"/><path class="cls-18" d="m564.79,396l-1.24,1.99,2.31-.56c.62-.15,1.22-.39,1.77-.7.94-.54,2.54-1.42,3.91-1.96.82-.33,1.57-.79,2.2-1.39l.84-.8-1.92-.27c-1.21-.17-2.46-.02-3.59.47-.61.26-1.34.63-2.19,1.15s-1.57,1.25-2.1,2.09Z"/></g><path class="cls-8" d="m556.97,444.3l-.53-26.49-15.93,14.53c-7.01-1.36-14.04-2.63-20.99-4.24-9.23-2.14-14.34-8.53-15.9-17.6-1.57-9.1,1.96-15.3,10.33-20.05,2.78-1.58,4.13-3.26,4.16-5.28h0c0-.1,0-.2,0-.3l-.57-26.14-11.74-1.24-6.82,2.7c-3.59-4.71-6.9-9.51-8.92-12.51-1.48-2.19-4.59-2.49-6.44-.61-.97.98-1.81,2.11-2.73,3.14-4.02,4.52-8.95,7.45-14.78,8.95-5.48,1.41-11.01,1.88-16.68,1.62-7.84-.36-15.2-2.63-22.43-5.33-8.16-3.04-16-2.57-23.79,1.17-4.21,2.03-8.51,3.89-12.83,5.7-2.97,1.25-5.96,2.33-8.97,3.23l-41.44-8.06.58,12.64c.02,4.52.05,8.64-.04,12.76-.08,3.77,1.23,6.91,3.95,9.39,2.24,2.04,4.54,4.1,7.08,5.72,12.97,8.26,21,20.17,24.01,34.91,3.33,16.3,9.25,31.33,17.86,45.45,3.36,5.51,4.93,11.6,4.92,18.07,0,3.98.25,7.98-.07,11.93-.71,8.91,2.22,16.51,7.46,23.52,4.43,5.93,9.09,11.76,11.82,18.76.49,1.25,1.76,2.01,3.1,1.87,6.5-.71,12.56.6,17.68,4.79,2.38,1.95,4.26,4.36,5.89,6.93,3.34,5.26,8.11,7.46,14.25,7.2,4.68-.19,9.32-.59,13.95-1.41,7.82-1.39,12.55-6.69,12.58-13.69h0s0-.07,0-.07c0-.05,0-.1,0-.14l-.54-26.49-6.57,1.76c-.42-3.06-.49-6.18-.05-9.37,1.68-12.34,8.02-21.98,17.82-29.13,13.04-9.51,26.25-18.83,41.44-24.82,4.13-1.63,8.09-3.68,11.61-6.48,4.2-3.33,7.01-7.54,7.9-12.85.27-1.63.4-3.07.36-4.43h.02Z"/><path class="cls-16" d="m339.99,343.13c0-2.41,2.19-4.22,4.55-3.76l5.52,1.07c13.83,2.7,26.99.25,39.77-5.11,4.31-1.81,8.61-3.67,12.83-5.7,7.79-3.75,15.63-4.21,23.79-1.17,7.24,2.7,14.59,4.98,22.43,5.33,5.67.26,11.2-.21,16.68-1.62,5.83-1.5,10.77-4.43,14.78-8.95.92-1.03,1.76-2.16,2.73-3.14,1.86-1.88,4.97-1.58,6.44.61,3.96,5.87,12.9,18.69,19.09,24.14,3.52,3.1,6.7,6.52,8.49,11.02,1.25,3.13.11,5.46-3.68,7.61-8.36,4.75-11.9,10.95-10.33,20.05,1.56,9.07,6.67,15.46,15.9,17.6,8.65,2,17.42,3.47,26.11,5.25,2.89.59,7.37,1.03,9.1,3.89,2.31,3.82,2.62,6.93,1.86,11.5-.89,5.31-3.71,9.52-7.9,12.85-3.52,2.8-7.48,4.85-11.61,6.48-15.19,5.99-28.41,15.31-41.44,24.82-9.8,7.15-16.14,16.79-17.82,29.13-.94,6.93.39,13.49,2.84,19.91,1.17,3.06,2.6,6.03,3.54,9.15,2.84,9.51-2.12,17.22-11.8,18.94-4.63.82-9.26,1.22-13.95,1.41-6.15.25-10.91-1.94-14.25-7.2-1.63-2.57-3.51-4.98-5.89-6.93-5.12-4.19-11.17-5.5-17.68-4.79-1.34.15-2.61-.61-3.1-1.87-2.72-7.01-7.38-12.84-11.82-18.76-5.24-7.01-8.17-14.61-7.46-23.52.31-3.95.06-7.95.07-11.93,0-6.47-1.57-12.56-4.92-18.07-8.61-14.12-14.53-29.16-17.86-45.45-3.01-14.74-11.04-26.66-24.01-34.91-2.55-1.62-4.84-3.68-7.08-5.72-2.72-2.48-4.03-5.61-3.95-9.39.09-4.12.06-8.24.04-12.76Z"/><g class="cls-19"><circle class="cls-15" cx="446.65" cy="410.2" r="38.72"/><circle class="cls-6" cx="446.65" cy="410.2" r="32.96"/><path class="cls-16" d="m434.11,413.71c-2.11.84-3.91,2.3-5.84,3.48-1.81,1.11-1.74,2.34-.12,3.73,1.73,1.48,3.53,1.31,5.37.39,1.84-.91,3.67-1.87,5.5-2.81-.1.85-.43,1.28-.76,1.71-1.23,1.59-2.47,3.17-3.68,4.78-.7.94-1.26,2.05-.41,3.13.88,1.12,1.96.41,2.9-.06.99-.5,1.61-1.46,2.25-2.4.79-1.16,1.45-2.47,2.65-3.38.52,1.28-.13,2.26-.05,3.29.08.96.22,1.82,1.01,2.42,2.16,1.62,4.23.61,4.6-2.23.21-1.62-.37-3.42.78-5.12,1.38,1.34,1.83,3.07,2.74,4.46,1.8,2.76,3.4,3.15,5.84,1.28,1.41-1.08,1.53-1.92.52-3.46-.66-.99-1.76-1.62-2.09-2.85.51-.55.91-.33,1.26-.09,1.44.96,2.91,1.85,4.24,3.04,1.84,1.64,3.99,1.16,5.1-.93.96-1.81.33-3.4-1.93-4.66-1.32-.73-2.71-1.31-4.01-2.08-1.13-.67-2.54-.97-3.4-2.58,1.94-.59,3.58-.24,5.24.02,2.58.4,3.34-.28,3.53-2.97.23-3.35-.36-4.24-3.01-4.36-2-.09-4.02,0-6.02-.12-1.12-.07-1.49-.83-.77-1.9.44-.65.99-1.2,1.49-1.8,1.08-1.28,2.04-2.68,2.7-4.27.71-1.71.32-3.16-.91-3.95-1.24-.8-2.61-.46-3.59.99-.57.83-.96,1.81-1.53,2.64-1.31,1.88-2.25,4.12-4.33,5.54-.78-1.49-.46-2.85-.32-4.19.13-1.26.4-2.53.38-3.79-.05-2.53-1.43-3.51-3.6-2.72-1.8.66-2.49,1.81-2.32,3.93.12,1.53.69,3.12-.3,4.66-1.96-1.09-2.82-3.04-4.08-4.56-1.89-2.29-3.87-2.67-5.92-1.2-1.35.97-1.59,2.07-.65,3.5.49.74,1.11,1.4,1.72,2.03,1.41,1.47,2.86,2.91,4.48,4.55-1.47.28-2.38-.38-3.33-.8-1.62-.72-3.31-.74-5-.59-1.81.17-2.71,1.14-2.99,2.98-.28,1.81.34,3.03,2.01,3.85,1.18.58,2.43.72,3.71.8,1.12.08,2.33-.04,3.25,1.05-.47,1.11-1.47,1.29-2.32,1.63Z"/></g><path class="cls-11" d="m525.42,419.12c-.82,5.95,3.35,11.44,9.3,12.26,5.95.82,11.44-3.35,12.26-9.3.82-5.95-3.35-11.44-9.3-12.26s-11.44,3.35-12.26,9.3Zm15.07,2.07c-.32,2.37-2.51,4.03-4.88,3.7-2.37-.32-4.03-2.51-3.7-4.88s2.51-4.03,4.88-3.7,4.03,2.51,3.7,4.88Z"/><g class="cls-24"><path class="cls-14" d="m820.15,363.78l-219.77,31.61c-1.9.27-3.47,1.71-4.07,3.73l-11.56,39c-.52,1.74-.24,3.68.75,5.21l22.08,34.16c1.14,1.77,3.05,2.71,4.95,2.43l219.77-31.61c2.8-.4,4.71-3.28,4.26-6.42l-10.52-73.17c-.45-3.14-3.09-5.36-5.89-4.96Zm-216.78,79.12c-2.59.37-5-1.43-5.37-4.02s1.43-5,4.02-5.37c2.6-.37,5,1.43,5.38,4.02s-1.43,5-4.02,5.37Z"/><path class="cls-13" d="m591.92,439.75c.86,5.95,6.37,10.08,12.32,9.22,5.95-.86,10.08-6.37,9.22-12.32-.86-5.95-6.37-10.08-12.32-9.22-5.95.86-10.08,6.37-9.22,12.32Zm15.06-2.17c.34,2.37-1.3,4.56-3.67,4.9-2.37.34-4.56-1.3-4.9-3.67-.34-2.37,1.3-4.56,3.67-4.9,2.37-.34,4.56,1.3,4.9,3.67Z"/><path class="cls-9" d="m643.32,407.16c.51-.69,1.33-1.11,2.44-1.27l1.39-.2c1.11-.16,2.01.02,2.7.53.69.52,1.11,1.33,1.27,2.44l1.91,13.25,9.21-3.38c.45-.16.76-.25.95-.28.93-.13,1.67.05,2.24.56.57.51.92,1.27,1.07,2.29l.19,1.32c.29,2.04-.54,3.45-2.5,4.25l-14.3,5.45c-.54.17-.9.27-1.09.3-.83.12-1.53-.06-2.1-.55s-.92-1.24-1.07-2.25l-2.84-19.77c-.16-1.11.02-2.01.53-2.7Zm6.53,30.64c.51-.69,1.33-1.11,2.44-1.27l23.86-3.43.28-.04.35-.05,1.39-.2c1.11-.16,2.01.02,2.7.53.69.51,1.11,1.33,1.27,2.44l1.88,13.04c.16,1.11-.02,2.01-.53,2.7s-1.33,1.11-2.44,1.27l-1.39.2c-.97.14-1.79.02-2.46-.35l-18.38,2.64c-.53.55-1.29.89-2.26,1.03l-1.39.2c-1.11.16-2.01-.02-2.7-.53s-1.11-1.33-1.27-2.44l-1.88-13.04c-.16-1.11.02-2.01.53-2.7Zm8.29,4.97l.78,5.41,16.16-2.32-.78-5.41-16.16,2.32Zm11.68-39.41c.51-.69,1.33-1.11,2.44-1.27l1.39-.2c1.11-.16,2.01.02,2.7.53.69.52,1.11,1.33,1.27,2.44l1.33,9.22c-.16-1.11,0-2.01.5-2.69.49-.68,1.29-1.11,2.4-1.27,1.06-.15,1.93.03,2.59.55.67.52,1.08,1.33,1.24,2.44l.2,1.39c.16,1.11,0,2.01-.5,2.69-.49.68-1.27,1.1-2.33,1.26-1.06.15-1.94-.03-2.63-.54-.69-.51-1.11-1.33-1.27-2.44l1.38,9.57c.16,1.11-.02,2.01-.53,2.7-.52.69-1.33,1.11-2.44,1.27l-1.39.2c-1.11.16-2.01-.02-2.7-.53-.69-.51-1.11-1.33-1.27-2.44l-2.9-20.18c-.16-1.11.02-2.01.53-2.7Z"/><path class="cls-9" d="m690.95,409.02c.52-.69,1.33-1.11,2.44-1.27l4.3-.62-.55-3.82c-.16-1.11.02-2.01.53-2.7s1.33-1.11,2.44-1.27l.49-.07c1.11-.16,2.01.02,2.7.53.69.52,1.11,1.33,1.27,2.44l.55,3.81,4.3-.62c1.11-.16,2.01.02,2.7.53.69.52,1.11,1.33,1.27,2.44l.14.97c.16,1.11-.02,2.01-.53,2.7-.51.69-1.33,1.11-2.44,1.27l-16.02,2.3c-1.11.16-2.01-.02-2.7-.53-.69-.51-1.11-1.33-1.27-2.44l-.14-.97c-.16-1.11.02-2.01.53-2.7Zm4.16,13.38c1.59-2.89,4.23-4.61,7.93-5.14,7.49-1.08,11.99,3.63,13.5,14.13,1.54,10.68-1.44,16.56-8.93,17.64-3.79.54-6.84-.37-9.14-2.76s-3.84-6.26-4.61-11.62c-.76-5.27-.34-9.35,1.25-12.25Zm8.65,17.31c.63,1.3,1.55,1.87,2.76,1.69,1.11-.16,1.78-.95,2-2.38s.12-3.57-.29-6.44c-.39-2.73-.89-4.73-1.5-6.01-.61-1.28-1.47-1.84-2.58-1.68-1.2.17-1.93.96-2.17,2.37-.25,1.41-.17,3.47.22,6.2.41,2.87.94,4.95,1.57,6.25Zm21.76-44.37c.51-.69,1.33-1.11,2.44-1.27l1.39-.2c1.11-.16,2.01.02,2.7.53.69.51,1.11,1.33,1.27,2.44l6.32,43.98c.16,1.11-.02,2.01-.53,2.7-.51.69-1.33,1.11-2.44,1.27l-1.39.2c-1.11.16-2.01-.02-2.7-.53-.69-.51-1.11-1.33-1.27-2.44l-2.61-18.17-1.18.17c-.42.06-.72.08-.91.06l2.62,18.24c.16,1.11-.02,2.01-.53,2.7-.52.69-1.33,1.11-2.44,1.27l-1.39.2c-1.11.16-2.01-.02-2.7-.53-.69-.51-1.11-1.33-1.27-2.44l-6.32-43.98c-.16-1.11.02-2.01.53-2.7.51-.69,1.33-1.11,2.44-1.27l1.39-.2c1.11-.16,2.01.02,2.7.53.69.51,1.11,1.33,1.27,2.44l2.52,17.55c.18-.07.48-.14.89-.2l1.18-.17-2.51-17.48c-.16-1.11.02-2.01.53-2.7Z"/><path class="cls-9" d="m746.35,393.76c3.09-1.96,7.69-3.37,13.8-4.25,6.24-.9,11.13-.86,14.67.12,3.54.98,5.56,3.25,6.08,6.81.51,3.56-.79,6.31-3.91,8.24-3.12,1.93-7.8,3.35-14.04,4.25-6.1.88-10.92.82-14.43-.19-3.52-1-5.53-3.26-6.04-6.78-.5-3.51.79-6.25,3.88-8.2Zm-.05,26.95c-.68-.44-1.09-1.18-1.24-2.19l-.19-1.32c-.15-1.02.04-1.83.57-2.45s1.34-1.01,2.45-1.17l31.08-4.47c1.11-.16,2-.02,2.68.43s1.09,1.18,1.24,2.19l.19,1.32c.15,1.02-.04,1.84-.57,2.45-.53.62-1.34,1.01-2.45,1.17l-31.08,4.47c-1.11.16-2,.02-2.68-.43Zm.64,4.47c.52-.64,1.34-1.04,2.45-1.2l1.39-.2c2.08-.3,3.33.37,3.76,2.01l21.5-3.09c0-1.7,1-2.69,3.04-2.99l1.39-.2c1.11-.16,2,0,2.69.46.68.47,1.1,1.21,1.24,2.23l1.75,12.21c.15,1.02-.04,1.85-.56,2.49-.52.64-1.34,1.04-2.45,1.2l-1.39.2c-.97.14-1.76.04-2.38-.29l-23.72,3.41c-.5.5-1.23.81-2.2.95l-1.39.2c-1.11.16-2.01,0-2.69-.46-.68-.47-1.09-1.21-1.24-2.23l-1.75-12.21c-.15-1.02.04-1.85.56-2.49Zm7.28-23.24c1.71.06,4.25-.15,7.62-.64,3.51-.5,6.09-1.03,7.74-1.57,1.64-.54,2.41-1.21,2.3-1.99-.11-.79-1.03-1.21-2.77-1.27-1.73-.06-4.35.17-7.87.67-3.38.49-5.87,1-7.5,1.54-1.62.54-2.38,1.2-2.26,1.99.11.79,1.02,1.21,2.73,1.27Zm1.3,30.22l.4,2.77,21.36-3.07-.4-2.77-21.36,3.07Z"/></g><g class="cls-26"><path class="cls-1" d="m604.13,438.82c.17-1.32-.26-2.63-1-3.74-4.17-6.33-15.32-6.8-22.58-7.9-7.34-1.1-11.74-5.12-18.11-9.04-4.9-2.9-10.67-5.11-16.34-4.24-6.37.94-10.76,7.83-9.15,14.12,2.15,8.59,16.4,16.04,24.4,18.88,7.91,2.74,17.03,1.8,25.58.43,5.73-1.16,15.42-1.91,17.17-8.28l.03-.22Z"/><path class="cls-17" d="m573.41,422.66l-2.67.7,2.37,1.4c.64.38,1.32.66,2.04.83,1.22.3,3.27.85,4.85,1.49.94.38,1.94.6,2.96.59h1.35s-1.35-1.81-1.35-1.81c-.85-1.14-2.01-2.02-3.34-2.52-.72-.27-1.63-.54-2.76-.79-1.14-.24-2.33-.21-3.46.09Z"/></g><g class="cls-27"><path class="cls-7" d="m796,286.21l-205.2,84.81c-1.77.73-3.14,2.02-3.55,3.34l-7.83,25.53c-.35,1.14.07,2.15,1.12,2.71l23.57,12.55c1.22.65,3.1.6,4.87-.14l205.2-84.81c2.62-1.08,4.19-3.28,3.51-4.92l-15.74-38.08c-.68-1.63-3.34-2.08-5.96-1Zm-197.8,112.65c-2.42,1-5.2-.15-6.2-2.57s.15-5.2,2.57-6.2c2.42-1,5.2.15,6.2,2.57s-.15,5.2-2.57,6.2Z"/><path class="cls-12" d="m586.33,398.63c2.3,5.55,8.66,8.19,14.21,5.9,5.55-2.3,8.19-8.66,5.9-14.21-2.3-5.55-8.66-8.2-14.21-5.9-5.55,2.3-8.19,8.66-5.9,14.21Zm14.06-5.81c.91,2.21-.14,4.74-2.35,5.66-2.21.91-4.74-.14-5.66-2.35s.14-4.74,2.35-5.66c2.21-.91,4.74.14,5.66,2.35Z"/><path class="cls-9" d="m622.31,370.47c.16-.39.5-.7,1.02-.91l7.43-3.07c.51-.21.97-.24,1.36-.07.39.17.7.5.91,1.02l8.42,20.38c.21.52.24.97.07,1.36-.16.39-.5.7-1.02.91l-.38.16c-.47.2-.91.23-1.32.09l-4.34,1.79c-.17.37-.5.66-1,.86l-.39.16c-.51.21-.97.24-1.36.07-.39-.16-.7-.5-.91-1.02l-8.42-20.38c-.21-.51-.24-.97-.07-1.36Zm4.63,2.19l6.35,15.37,3.44-1.42-6.35-15.37-3.44,1.42Zm9.35-7.97c.16-.39.5-.7,1.02-.91l.64-.27c.51-.21.97-.24,1.36-.07.39.16.7.5.91,1.02l4.01,9.71c-.21-.51-.24-.97-.09-1.36.15-.39.49-.69,1-.9.49-.2.93-.22,1.31-.05.38.17.68.51.89,1.02l.27.64c.21.51.24.97.09,1.36s-.48.69-.97.89c-.49.2-.94.22-1.33.06s-.7-.5-.91-1.02l4.15,10.03c.21.51.24.97.07,1.36-.16.39-.5.7-1.02.91l-.64.27c-.51.21-.97.24-1.36.07-.39-.16-.7-.5-.91-1.02l-8.42-20.38c-.21-.51-.24-.97-.07-1.36Z"/><path class="cls-9" d="m646.46,365.83c-.39-1.77-.38-3.23.04-4.36.42-1.14,1.35-2.01,2.78-2.6s2.7-.64,3.78-.13c1.09.51,2.1,1.52,3.05,3.05.95,1.53,2.01,3.73,3.2,6.6,1.2,2.89,2.01,5.23,2.43,7.01.42,1.78.44,3.26.04,4.42-.4,1.17-1.31,2.05-2.75,2.64-1.44.59-2.71.63-3.81.11s-2.15-1.57-3.14-3.14c-.99-1.57-2.08-3.81-3.28-6.7-1.17-2.83-1.95-5.13-2.34-6.9Zm9.12,11.51c.77,1.29,1.43,1.82,1.99,1.58.51-.21.59-1.04.21-2.5-.37-1.45-1.15-3.6-2.33-6.45-1.14-2.77-2.08-4.77-2.83-6.02-.74-1.25-1.37-1.77-1.89-1.55-.56.23-.66,1.06-.31,2.48.35,1.42,1.09,3.51,2.23,6.25,1.18,2.85,2.15,4.92,2.92,6.21Zm2.89-21.82c.16-.39.5-.7,1.02-.91l.64-.27c.51-.21.97-.24,1.36-.07.39.16.7.5.91,1.02l8.42,20.38c.21.52.24.97.07,1.36-.16.39-.5.7-1.02.91l-.64.27c-.51.21-.97.24-1.36.07-.39-.16-.7-.5-.91-1.02l-8.42-20.38c-.21-.51-.24-.97-.07-1.36Z"/><path class="cls-9" d="m682.16,345.24l.61-.25c.47-.19.89-.24,1.26-.13.37.11.64.36.8.74.06.15.1.27.11.37l.79,4.46c.1.54.06.98-.11,1.33-.17.35-.5.62-1,.83l-.61.25c-.47.2-.89.24-1.26.13-.37-.11-.64-.36-.8-.74-.07-.17-.11-.3-.13-.4l-.34-2-11.51,4.76c-.51.21-.97.24-1.36.09-.39-.15-.69-.47-.89-.97l-.25-.61c-.2-.49-.22-.92-.05-1.3.17-.37.52-.67,1.03-.88l13.5-5.58.1-.04.1-.04Zm-11.5,14.35c.16-.39.5-.7,1.02-.91l14.4-5.95c.51-.21.97-.24,1.36-.07.39.16.7.5.91,1.02l.27.64c.21.51.24.97.07,1.36-.16.39-.5.7-1.02.91l-5.3,2.19.3.74c.21.52.24.97.07,1.36-.16.39-.5.7-1.02.91l-.64.27c-.51.21-.97.24-1.36.07-.39-.16-.7-.5-.91-1.02l-.31-.74-5.24,2.17c-.51.21-.97.24-1.36.07-.39-.16-.7-.5-.91-1.02l-.27-.64c-.21-.51-.24-.97-.07-1.36Zm4.89,13.75c-.29-.71.17-1.69,1.38-2.94,1.21-1.2,2.13-2.3,2.76-3.3.63-1,.98-1.96,1.06-2.87.05-.55.17-.98.35-1.29.18-.31.5-.56.95-.75l.96-.4c.45-.19.86-.23,1.23-.13.37.1.63.34.79.73.06.15.11.36.14.62.06.7.02,1.45-.13,2.24l.28-.15c.08-.04.27-.08.54-.15l4.18-.9.32-.06c.29-.02.52-.02.67-.01.49.05.94.22,1.32.51.38.29.67.65.84,1.08.17.41.23.81.19,1.2-.04.52-.2.97-.5,1.35-.29.38-.66.67-1.11.86-.41.17-.81.23-1.2.2-.34-.04-.68-.13-1.02-.29l-.23-.09-3.68-1.61c-.42-.18-.73-.41-.93-.71-.42,1.18-1.02,2.27-1.82,3.29-.8,1.02-1.85,2.21-3.17,3.59l-.47.5c-.27.26-.53.45-.79.55-.51.21-1.06.17-1.63-.12l-.71-.35c-.28-.14-.47-.33-.58-.59Z"/><path class="cls-9" d="m688.91,342.9c.17-.37.52-.67,1.03-.88l14.4-5.95c.51-.21.96-.25,1.35-.11s.67.45.87.92l.12.29c.2.47.21.89.03,1.27-.17.37-.51.67-1.03.88l-14.4,5.95c-.51.21-.96.25-1.35.11-.38-.14-.67-.45-.87-.92l-.12-.29c-.2-.47-.21-.89-.03-1.27Zm2.48,6.01c.17-.37.52-.67,1.03-.88l1.45-.6-.52-.8c-.06-.08-.12-.2-.19-.37-.16-.39-.16-.74.01-1.06.17-.32.49-.58.96-.77l.61-.25c.99-.41,1.75-.21,2.28.6l.7,1.06,3.79-1.57-.25-1.25c-.21-.94.18-1.62,1.19-2.04l.61-.25c.47-.19.88-.24,1.23-.13s.6.35.76.74c.07.17.11.3.13.4l.2.93,1.45-.6c.51-.21.96-.25,1.35-.11.39.14.67.45.87.92l.12.29c.2.47.21.89.03,1.27-.17.37-.52.66-1.03.88l-14.4,5.95c-.51.21-.96.25-1.35.11-.39-.14-.67-.45-.87-.92l-.12-.29c-.19-.47-.21-.89-.03-1.27Zm1.52,3.68c.18-.36.52-.65,1.04-.86l14.4-5.95c.52-.21.96-.25,1.34-.12.38.13.67.43.86.9l.24.58c.2.47.21.89.03,1.27-.17.37-.51.67-1.03.88l-14.4,5.95c-.51.21-.96.25-1.35.11-.38-.14-.67-.45-.87-.92l-.24-.58c-.2-.47-.21-.89-.03-1.25Zm21.31,4.03c.38.13.67.43.86.91.19.47.21.89.03,1.27-.17.37-.52.67-1.03.88l-14.4,5.95c-.51.21-.96.25-1.35.11-.39-.14-.68-.45-.87-.92l-.08-.19-.08-.19-1.01-2.44c-.07-.17-.11-.3-.13-.4-.04-.03-.09-.12-.15-.28-.15-.37-.13-.71.07-1.02s.55-.58,1.06-.8l12.15-5.02-.36-.87-12.15,5.02c-.51.21-.96.25-1.35.11-.39-.14-.67-.45-.87-.92-.19-.47-.2-.89-.03-1.25.18-.36.52-.65,1.04-.86l14.4-5.95c.51-.21.96-.25,1.34-.12.38.13.67.43.86.91l.09.3c.05.06.1.15.15.28l1.02,2.47.11.26.08.19c.32.77-.06,1.38-1.13,1.82l-12.15,5.02.37.9,12.15-5.02c.52-.21.96-.25,1.34-.12Z"/><path class="cls-9" d="m714.14,343.03c.17-.38.51-.68,1.02-.89l2.44-1.01c-.31-.15-.56-.46-.76-.93l-1.66-4.02-2.12.88c-.51.21-.97.24-1.36.07s-.7-.5-.91-1.02l-.29-.71c-.21-.51-.24-.97-.07-1.36.16-.39.5-.7,1.02-.91l4.44-1.83c.51-.21.97-.24,1.36-.07.39.16.7.5.91,1.02l2.62,6.33c.25.6.24,1.13-.02,1.59.49.1.87.46,1.12,1.08l.27.64c.21.51.24.97.07,1.36-.16.39-.5.7-1.02.91l-2.22.92,2.44,5.92,2.75-2.08c.11-.1.29-.19.52-.29.39-.16.74-.16,1.07,0,.33.15.59.47.78.94l.24.58c.38.92.16,1.7-.65,2.34l-4.96,3.75c-.11.1-.27.19-.49.28-.41.17-.78.17-1.11,0-.33-.17-.59-.48-.79-.95l-4.57-11.14c-.22-.54-.25-.99-.08-1.38Zm7.98-2.45c.16-.39.5-.7,1.02-.91l.74-.31-3.35-8.1c-.21-.51-.24-.97-.07-1.36.16-.39.5-.7,1.02-.91l.64-.27c.51-.21.97-.24,1.36-.07.39.16.7.5.91,1.02l8.42,20.38c.21.51.24.97.07,1.36-.16.39-.5.7-1.02.91l-.64.27c-.51.21-.97.24-1.36.07-.39-.16-.7-.5-.91-1.02l-3.48-8.42-.74.31c-.51.21-.97.24-1.36.07-.39-.16-.7-.5-.91-1.02l-.27-.64c-.21-.51-.24-.97-.07-1.36Zm3.16-12.67c.16-.39.5-.7,1.02-.91l.64-.27c.52-.21.97-.24,1.36-.07.39.16.7.5.91,1.02l8.42,20.38c.21.51.24.97.07,1.36-.16.39-.5.7-1.02.91l-.64.27c-.51.21-.97.24-1.36.07-.39-.16-.7-.5-.91-1.02l-8.42-20.38c-.21-.51-.24-.97-.07-1.36Z"/><path class="cls-9" d="m733.94,329.68c-.39-1.77-.38-3.22.04-4.36.42-1.14,1.35-2.01,2.78-2.6s2.7-.64,3.78-.13c1.09.51,2.1,1.52,3.05,3.05s2.01,3.73,3.2,6.6c1.2,2.89,2,5.23,2.43,7.01.42,1.78.44,3.26.04,4.42-.4,1.17-1.31,2.05-2.75,2.64s-2.71.63-3.81.11c-1.11-.52-2.15-1.57-3.14-3.14-.99-1.57-2.08-3.81-3.28-6.7-1.17-2.83-1.95-5.13-2.34-6.9Zm9.12,11.51c.77,1.29,1.43,1.82,1.99,1.58.51-.21.59-1.04.21-2.5-.37-1.45-1.15-3.6-2.33-6.45-1.14-2.77-2.08-4.77-2.83-6.02-.74-1.25-1.37-1.77-1.89-1.55-.56.23-.66,1.06-.31,2.48.35,1.42,1.09,3.51,2.23,6.25,1.18,2.85,2.15,4.92,2.92,6.21Zm2.89-21.82c.16-.39.5-.7,1.02-.91l.64-.27c.51-.21.97-.24,1.36-.07.39.16.7.5.91,1.02l8.42,20.38c.21.51.24.97.07,1.36-.16.39-.5.7-1.02.91l-.64.27c-.51.21-.97.24-1.36.07-.39-.17-.7-.5-.91-1.02l-8.42-20.38c-.21-.51-.24-.97-.07-1.36Z"/><path class="cls-9" d="m756.96,328.06c-.13-.32-.11-.73.08-1.22s.52-1.04,1-1.64c1.63-2.06,2.73-3.98,3.29-5.78.56-1.8.76-3.66.59-5.57-.12-1.01.29-1.7,1.21-2.08l.93-.39c.47-.2.88-.24,1.23-.13.35.11.6.37.77.77.1.24.15.43.16.57.29,2.22.18,4.39-.31,6.53l.19-.08c.19-.08.43-.14.71-.18l5.6-.47c.19-.03.32-.02.39.03l.25.05c.45.12.85.32,1.19.6.34.28.6.63.77,1.04.22.54.26,1.1.13,1.68-.11.45-.32.85-.62,1.2s-.65.61-1.05.77c-.54.22-1.08.27-1.63.15-.22-.04-.44-.12-.67-.25l-.04-.02-4.74-2.82c-.36-.2-.59-.43-.7-.69-.83,2.85-2.4,5.68-4.7,8.49-.24.27-.51.47-.81.6-.47.2-.98.17-1.54-.08l-1.01-.45c-.33-.14-.56-.35-.67-.63Zm6.38,11.06c-.39-.16-.7-.5-.91-1.02l-.27-.64c-.21-.51-.24-.97-.07-1.36.16-.39.5-.7,1.02-.91l14.4-5.95c.51-.21.97-.24,1.36-.07.39.16.7.5.91,1.02l.27.64c.21.51.24.97.07,1.36s-.5.7-1.02.91l-14.4,5.95c-.51.21-.97.24-1.36.07Z"/></g><g class="cls-23"><path class="cls-2" d="m536.22,422.69s-2.03-4.65,13.33-15.26c15.36-10.61,35.05-22.88,44.02-15.25,8.97,7.62,8.55,15.67-7.47,21.62-16.02,5.95-39.02,10.48-41.9,11.14-2.88.66-7.4,1.51-7.99-2.25Z"/><path class="cls-18" d="m564.79,396l-1.24,1.99,2.31-.56c.62-.15,1.22-.39,1.77-.7.94-.54,2.54-1.42,3.91-1.96.82-.33,1.57-.79,2.2-1.39l.84-.8-1.92-.27c-1.21-.17-2.46-.02-3.59.47-.61.26-1.34.63-2.19,1.15s-1.57,1.25-2.1,2.09Z"/></g><g class="cls-28"><g class="cls-20"><path class="cls-16" d="m643.79,162.87c-43.47-13.64-89.95,10.63-103.59,54.1-13.64,43.47,10.63,89.95,54.1,103.59,43.47,13.64,89.93-10.64,103.57-54.11,13.64-43.47-10.61-89.94-54.08-103.58Zm-47.76,152.19c-40.46-12.7-63.04-55.93-50.35-96.37,12.7-40.46,55.93-63.04,96.39-50.34,40.44,12.69,63.02,55.92,50.32,96.38-12.69,40.44-55.92,63.02-96.36,50.33Z"/><path class="cls-16" d="m640.5,173.34c-37.71-11.83-78.01,9.21-89.84,46.92-11.83,37.71,9.21,78.01,46.92,89.84,37.71,11.83,78.01-9.21,89.84-46.92,11.83-37.71-9.21-78.01-46.92-89.84Zm-42.02,133.91c-36.14-11.34-56.3-49.95-44.96-86.09,11.34-36.14,49.95-56.3,86.09-44.96,36.14,11.34,56.3,49.95,44.96,86.09-11.34,36.14-49.95,56.3-86.09,44.96Z"/><path class="cls-16" d="m623.8,220.21c-.18,0-.37-.03-.58-.09-.26-.08-.54-.19-.83-.31-.35-.14-.55-.51-.47-.88l.04-.22c.05-.31.09-.59.2-.88.7-1.99,1.32-3.72,1.89-5.3.16-.45,0-.95-.38-1.23-.18-.13-.4-.2-.61-.2-.24,0-.48.08-.67.24-1.05.86-2.25,1.35-3.53,1.87l-.4.16c-.15.06-.25.08-.35.08-.08,0-.15-.01-.23-.03-.06-.02-.13-.05-.19-.09-.21-.13-.35-.35-.37-.6l-.11-1.31c-.04-.46-.37-.85-.83-.95-.08-.02-.15-.02-.23-.02-.38,0-.73.2-.92.54-.81,1.43-1.64,2.9-2.45,4.36-.17.31-.33.65-.53,1.09-.11.25-.22.47-.33.71-.13.27-.41.45-.71.45h0c-.07,0-.15-.01-.22-.03-.04-.01-.08-.03-.11-.04l-1.13-.52c-.37-.17-.55-.61-.4-.99.73-1.94,1.68-4.2,3.13-6.25.56-.79.98-1.68,1.42-2.62.17-.36.33-.71.51-1.06.53-1.07,1.07-2.16,1.63-3.31l.85-1.74c.11-.23.33-.39.58-.43l3.02-.48s.08,0,.12,0c.08,0,.15.01.23.03.09.02.17.07.24.12.17.13.28.32.31.53.15,1.23.03,2.41-.08,3.55-.03.3-.06.59-.08.87-.04.46.23.9.66,1.08.13.05.27.08.4.08.31,0,.62-.14.82-.39.62-.76,1.17-1.49,1.68-2.24.52-.76,1.12-1.12,1.83-1.12.22,0,.44.03.67.1.07.02.15.05.23.08.08.03.14.05.21.07.09.02.16.04.24.06.49.09.87.16,1.19.25.22.07.74.22,1.01.72.3.55.14,1.13-.22,2.29-.22.7-.43,1.41-.64,2.1-.53,1.77-1.08,3.6-1.72,5.38-.56,1.57-1.29,3.08-2,4.54l-.4.84c-.21.44-.39.74-.69.94-.21.14-.44.21-.7.21Z"/><path class="cls-16" d="m602.61,243.8c-.08,0-.15-.01-.22-.03l-1.3-.39c-.36-.11-.59-.46-.56-.83l.11-1.06c.04-.4-.14-.78-.47-1-.18-.12-.38-.17-.58-.17-.18,0-.36.05-.53.14-1.49.85-3.16.96-4.46.96h-.11c-.13,0-.27-.02-.41-.06-.41-.12-.77-.41-1.01-.61-1.51-1.29-2.4-2.86-2.63-4.66-.33-2.55-.52-5.57.56-8.54.4-1.09.88-2.15,1.35-3.17l.37-.81c.13-.29.28-.54.41-.76.13-.23.25-.43.32-.59,1.02-2.21,3.01-3.59,5.2-3.59.52,0,1.04.08,1.54.23.83.25,1.61.68,2.31,1.29,1.06.92,1.65,2.36,1.67,4.03,0,.58-.23,1.04-.66,1.3-.32.19-.68.23-.97.26-.1.01-.2.02-.27.03-.07.01-.15.03-.22.06-.09.04-.19.06-.29.06-.08,0-.15-.01-.22-.03-.19-.06-.35-.18-.45-.35l-.88-1.48c-.15-.26-.32-.46-.49-.6-.19-.15-.42-.23-.66-.23h-.03c-.24,0-.51.08-.82.22-1.92.86-2.89,2.17-3.06,4.12-.08.9-.19,1.81-.3,2.68-.15,1.18-.28,2.27-.35,3.39-.04.64.06,1.38.29,2.2.12.43.49.74.94.77.03,0,.17,0,.17,0,1.42,0,2.74-.47,4.06-1.42.27-.19.43-.5.44-.84,0-.33-.14-.65-.4-.86-.45-.36-.94-.72-1.45-1.09-.3-.22-.61-.45-.94-.69-.26-.2-.37-.54-.28-.85l.46-1.55c.1-.33.41-.56.75-.56.08,0,.15.01.22.03l6.53,1.94c.32.09.55.38.56.72.12,2.48-1.4,9.53-2.57,11.97-.13.27-.41.44-.71.44Z"/><path class="cls-16" d="m629.23,227.54c-.2,0-.42-.04-.65-.1-.34-.1-.73-.27-1.2-.49-.19-.09-.34-.26-.41-.46-.07-.2-.05-.43.04-.62.34-.66.69-1.32,1.02-1.96.82-1.56,1.67-3.17,2.42-4.78.43-.94.72-2.03.8-3.08.18-2.21.29-4.47.39-6.64,0,0,.09-1.93.14-2.8.02-.46.05-.93.09-1.41l.05-.82c.03-.41.37-.73.78-.73l2.37.03c.07,0,.15.01.22.03.31.09.54.38.56.71l.03.5c.03.43.06.82.05,1.23v.16c-.03,1.35-.06,2.73-.11,4.11-.01.44.25.85.66,1.02.13.05.27.08.4.08.29,0,.58-.12.79-.35,1.26-1.38,2.6-2.86,3.92-4.32.63-.69,1.03-1.1,1.7-1.1.2,0,.43.04.68.11.25.07.53.18.84.3.29.11.48.36.51.65,0,.03.01.1.02.13.03.16.08.45-.08.74-.35.64-.67,1.31-1.01,2.02-.57,1.21-1.15,2.43-1.95,3.57-1.8,2.57-4.14,4.7-7.17,6.49-.09.06-.18.13-.25.21-.1.12-.29.39-.4.57-.58.92-1.14,1.85-1.68,2.74-.53.87-1.03,1.69-1.52,2.49-.65,1.04-1.18,1.78-2.06,1.78h0Z"/><path class="cls-16" d="m635.27,282.71c-.07,0-.15-.01-.22-.03l-2.31-.79c-1.39-.48-2.71-.93-4.06-1.38-1.12-.37-1.57-1.28-1.22-2.41.1-.3.2-.58.3-.85.12-.31.23-.6.3-.87.29-.99.58-1.99.86-2.97l.07-.26c.39-1.35.79-2.74,1.21-4.11.26-.84.43-1.69.62-2.6.33-1.58.67-3.19,1.42-4.71.38-.76.63-1.23,1.17-1.47.19-.08.38-.12.6-.12.37,0,.81.12,1.27.24.27.07.55.14.85.2.38.08.73.16,1.09.26.45.13.93.27,1.52.44l2.2.66c.35.1.58.43.56.79-.05.96-.11,1.61-.63,2.01-.23.18-.51.26-.86.26h0c-.3,0-.6-.06-.84-.11-.19-.04-.38-.09-.62-.16l-.68-.21c-.2-.06-.35-.1-.47-.12-.32-.07-.68-.11-1.07-.15-.03,0-.06,0-.09,0-.45,0-.86.29-1.01.72-.06.16-.11.32-.17.47-.07.2-.14.38-.19.55-.09.28-.06.58.08.83s.38.44.66.52c.56.15,1.14.26,1.74.37l.75.14c.3.06.61.11.97.17l.58.1c.27.08.43.2.53.36.12.19.15.42.09.64l-.67,2.25c-.1.33-.41.56-.75.56-.04,0-.09,0-.13-.01l-3.44-.59c-.06-.01-.12-.02-.18-.02-.47,0-.9.32-1.03.79-.51,1.91-.91,3.51-1.28,5.06-.07.29-.01.59.15.83.16.24.42.41.71.46.53.09,1.06.19,1.62.3,0,0,1.05.2,1.05.2.28.08.45.22.55.4.11.21.12.46.03.68l-.93,2.18c-.12.29-.41.48-.72.48Z"/><path class="cls-16" d="m615.59,275.91c-.05,0-.11,0-.16-.02-.51-.1-.82-.19-1.13-.26-.33-.09-.64-.16-1.18-.28-.44-.13-.68-.5-.62-.89,0,0,.06-.41.06-.41.04-.29.08-.56.13-.83.1-.56.34-1.84.34-1.84.23-1.21.46-2.45.65-3.68.08-.53-.24-1.04-.76-1.18-.31-.08-.63-.13-.96-.18-.3-.05-.48-.07-.61-.08-.04,0-.07,0-.1,0-.46,0-.88.3-1.02.75l-.06.21c-.43,1.56-.91,3.13-1.38,4.65l-.42,1.38c-.07.24-.18.44-.27.61l-.09.18c-.12.25-.36.41-.64.44-.02,0-.13.02-.15.02-.12.02-.25.04-.4.04-.06,0-.12,0-.19-.01-.36-.04-.64-.1-.87-.16-.5-.15-.83-.4-1.02-.75-.22-.42-.21-.9.03-1.63.21-.65.43-1.3.65-1.93.48-1.41.94-2.75,1.31-4.14l.29-1.09c.53-2.01.71-2.69,1.3-4.62.96-3.16,1.87-5.38,2.77-6.79.14-.23.39-.36.66-.36.79.04,1.57.18,2.31.32.65.12,1.26.23,1.81.27.18.01.34.04.49.08.65.19,1.08.65,1.31,1.4.74,2.36.84,4.69.85,6.85.01,3.04-.59,5.75-1.16,8.38-.3,1.37-.61,2.78-.83,4.23-.03.18-.07.33-.11.48l-.07.27c-.08.35-.4.6-.76.6h0Zm-1.75-18.79c-.45,0-.95.27-1.1.68-.5,1.33-1.02,2.85-1.1,4.11-.02.43.22.84.61,1.02.15.07.35.15.59.22.35.1.64.15.82.16.03,0,.07,0,.1,0,.51,0,.96-.37,1.05-.88l.05-.29c.27-1.53.5-2.85-.01-4.32-.14-.42-.53-.7-.97-.71-.01,0-.02,0-.03,0Z"/><path class="cls-16" d="m632.01,253.03c-.07,0-.15-.01-.22-.03-.14-.04-.26-.12-.36-.23-.16-.17-.23-.41-.2-.64.1-.71.2-1.41.29-2.09.22-1.6.42-3.05.68-4.5.18-.96.4-1.91.62-2.82.33-1.38.64-2.68.8-4.02.22-1.82,1.05-3.39,1.78-4.78.46-.87.94-1.77,1.25-2.69.11-.31.33-.46.54-.57.03-.02.14-.08.17-.1.1-.07.25-.11.4-.11.08,0,.15.01.22.03.05.01.1.03.14.06.46.25.93.49,1.4.73,1.05.55,2.24,1.16,3.38,1.82,1.57.91,2.3,2.56,2.71,3.73.89,2.49,1.08,5.11.57,7.79-.44,2.31-1.4,4.19-2.95,5.75-1.05,1.05-2.2,1.65-3.51,1.83-1.78.24-3.66.47-5.92.74-.33.04-.63.05-1.01.07l-.8.03Zm6.89-15.99c-.06,0-.13,0-.19.02-.38.07-.69.34-.81.7l-.07.19c-.02.06-.03.11-.05.17-.06.23-.1.35-.14.48-.09.28-.17.53-.2.72-.65,3.29-1.18,6.05-1.66,8.58-.07.36.05.73.32.98.2.18.46.28.72.28.1,0,.19-.01.29-.04,1.2-.34,2.29-1.04,3.14-2.03,2.8-3.26,1.56-7.13-.53-9.67-.2-.25-.51-.39-.82-.39Z"/><path class="cls-16" d="m584.1,266.45c-.33,0-.67-.05-1-.15-.59-.17-1.17-.49-1.88-1.04-.26-.2-.37-.55-.27-.87,1.88-5.8,4.09-11.48,6.37-17.27.12-.3.41-.5.73-.5.55.06,1.57.17,1.57.17,1.05.11,2.14.22,3.22.42.22.04.44.09.66.16,1.31.39,2.53,1.21,3.62,2.43.74.84.74,2.28.7,2.86-.03.44-.18,1.94-.99,2.82-1.18,1.28-2.56,1.92-4.09,1.92h0c-.16,0-.32,0-.48-.02l-.33-.03c-.95-.08-1.9-.17-2.85-.31-.05,0-.11-.01-.16-.01-.42,0-.8.24-.97.63-.19.43-.39.85-.58,1.26-.47,1-.9,1.95-1.23,2.94-.26.79-.38,1.64-.51,2.55-.06.43-.12.87-.2,1.32-.06.32-.3.57-.61.63-.24.05-.48.07-.71.07Zm8.03-12.17c.24,0,.46.03.64.04.04,0,.07,0,.11,0,.47,0,.95-.3,1.08-.76.15-.51.19-1.35-.02-1.91-.09-.22-.24-.41-.45-.54-.17-.1-.39-.19-.63-.26-.52-.15-1.02-.19-1.35-.19-.3,0-.55.03-.73.06-.31.06-.58.26-.73.54l-.1.18c-.23.43-.42.8-.57,1.17-.11.29-.09.61.05.88.14.27.4.47.69.54l.12.03c.11.03.21.07.3.11.08.04.17.06.26.08.15.02.31.04.48.04.14,0,.28,0,.42-.01.15,0,.26-.01.37-.01h.05Z"/><path class="cls-16" d="m623.99,278.73c-.74,0-1.39-.16-1.88-.31-.31-.09-.61-.19-.9-.29-1.59-.54-2.42-1.72-2.39-3.33.02-1.21.07-2.5.32-3.77.29-1.45.64-2.91.98-4.31.2-.83.39-1.63.57-2.41.68-2.99,3.92-5.66,6.93-5.71h0c.36,0,.65.09.91.16.17.05.28.08.39.11.43.13.66.51.59.9l-.37,2.09c-.03.17-.12.33-.25.45-.11.11-.27.27-.52.32-2.2.47-3.62,1.9-4.6,4.62-.11.3-.24.57-.35.8-.07.15-.12.26-.17.37-1.36,3.06-.6,5.52,2.14,6.93.3.16.47.49.42.82l-.04.27c-.03.23-.06.5-.14.8-.07.28-.18.5-.26.7l-.11.27c-.1.26-.34.44-.62.48-.23.03-.45.04-.66.04Z"/><path class="cls-16" d="m601.57,271.99c-.27,0-.57-.05-.9-.15l-.11-.03c-.79-.25-1.62-.5-2.64-.8l-3.79-1.12c-.21-.06-.38-.21-.48-.4-.1-.19-.11-.42-.04-.62.06-.17.12-.35.19-.54.14-.4.29-.87.5-1.3.38-.79.77-1.59,1.16-2.36.72-1.44,1.4-2.79,1.99-4.22.25-.6.52-1.18.78-1.74.82-1.77,1.58-3.42,1.74-5.3.06-.73.46-1.41.89-2.03.34-.49.77-.72,1.38-.72.32,0,.62.07.81.11.14.03.27.06.38.08.43.12.66.43.66.78-.02,1.89-.57,3.58-1.05,5.08-.12.37-.23.73-.34,1.08-.84,2.77-2.18,5.33-3.47,7.81,0,0-.23.44-.28.52-.16.27-.18.6-.07.9.11.3.35.53.65.63.42.15.85.28,1.26.4l.97.29c.12.04.34.07.57.11.16.02.3.04.45.07.26.07.41.18.51.32.12.17.17.38.13.59-.02.11-.04.23-.06.36-.04.29-.08.59-.2.88-.46,1.16-1.09,1.31-1.59,1.31h0Z"/><path class="cls-16" d="m610.38,247.32c-.22,0-.45-.03-.68-.1-.11-.03-.23-.08-.35-.13-1.54-.66-2.44-1.97-2.69-3.9-.35-2.75-.19-4.97.5-7.01.38-1.12.72-2.28,1.04-3.41.16-.55.32-1.11.49-1.66.42-1.39,1.32-2.34,2.2-3.26.3-.32.59-.62.84-.92.65-.77,1.42-1.15,2.35-1.15.4,0,.84.07,1.3.21.35.1.68.23.99.35l.15.06c1.3.49,2.03,1.72,1.99,3.37-.04,1.81-.21,3.68-.48,5.58-.1.68-.37,1.74-.56,2.45,0,0-.14.54-.17.66-.01.05-.02.1-.02.14,0,.07-.02.14-.05.21-.16.41-.31.82-.46,1.23-.38,1.02-.77,2.07-1.23,3.08-.34.76-.96,1.38-1.4,1.78-.47.43-.96.8-1.43,1.16-.31.23-.59.45-.86.67-.47.39-.96.57-1.48.57h0Zm3.41-16.13c-.3.02-.58.18-.77.43-.21.29-.48.68-.68,1.09-.33.69-.63,1.41-.96,2.18l-.39.91c-.41,1.25-.53,2.58-.42,4.18.03.44.34.82.76.94.1.03.2.04.3.04.33,0,.65-.15.85-.43.35-.47.73-1.02.93-1.61.45-1.32.78-2.66,1.12-4.07l.28-1.15c.11-.42.17-.88.18-1.32,0-.13-.01-.25-.05-.37-.09-.26-.25-.44-.34-.53-.2-.19-.46-.3-.74-.3-.03,0-.06,0-.09,0Z"/><path class="cls-16" d="m625.93,250.7c-.22,0-.44-.03-.66-.1-1.07-.33-2.5-.77-3.14-2.27-.25-.6-.48-1.19-.7-1.77l-.67-1.77c-.27-.73-.55-1.47-.83-2.17-.72-1.81-1.43-4.2-.46-6.68.35-.91.73-1.57,1.18-2.08,1.51-1.69,3.34-3.01,5.43-3.93.36-.16.71-.24,1.05-.24.2,0,.41.03.6.09.36.11.7.31,1.02.61,1.48,1.38,2.17,3.2,1.95,5.13-.22,2.01-.55,4.03-.87,5.98-.13.81-.26,1.61-.38,2.39-.12.75-.24,1.49-.35,2.2l-.17,1.08c-.01.06-.03.13-.05.18l-.29.69c-.2.47-.37.9-.58,1.32-.41.83-1.2,1.34-2.07,1.34h0Zm-.63-15.5c-.11,0-.21.02-.32.05-.15.05-.3.12-.46.2-1.39.79-1.95,2.16-2.18,3.18-.37,1.64-.2,3.33.48,5.03.21.52.72.97,1.3,1.15.18.05.34.07.49.07.79-.03,1.47-.54,1.77-1.31.04-.1.06-.21.07-.31l.05-.64c.06-.74.13-1.5.12-2.28v-.26c-.01-1.35-.02-2.62-.25-3.86-.02-.13-.05-.23-.08-.3-.15-.44-.56-.73-1.01-.73Z"/><path class="cls-16" d="m784.46,255.61c.84.62,1.98.81,2.82,1.39.64.4.98,1.06,1.39,1.64.36.52,1,.64,1.61.66,2.55-.07,4.76,1.75,4.72,4.14-.01,1.22-.64,2.36-1.58,3.15-1.05.92-2.42,1.47-3.04,2.71-.67,1.17-.68,3.05.95,3.65.55.21,1.17.19,1.74.25.73.06,1.4.22,2.07.06.87-.2,1.66-.68,2.53-.86.65-.15,1.34.08,2,.05,1.55-.14,1.1-2.06,1.74-2.91.32-.44.87-.69,1.16-1.15.32-.5.35-1.13.59-1.67.28-.65.88-1.18,1-1.85.17-1.38-.47-1.56.92-2.54.56-.51.5-1.49.2-2.21-.12-.3-.33-.6-.46-.89-.21-.4-.04-.77.21-1.08.45-.53.74-1.28.38-1.95-.61-1.22-1.92-1.01-3.05-1.3-1.37-.53-2.68-1.26-3.72-2.29-2.1-2.45-3.33-2.64-6.44-2.21-.75.07-1.51-.07-2.27-.07-1.74.03-3.05,1.16-4.49,1.85-.45.24-.92.47-1.26.83-.69.73-.73,1.94.24,2.56l.03.02Z"/></g><path class="cls-16" d="m706.64,259.42c-5.05-1.28-9.38-4.32-13.62-7.3-7.47-5.25-14.53-10.21-25.76-7.14-1.33.36-2.71-.42-3.07-1.75-.36-1.33.42-2.71,1.75-3.07,13.5-3.7,22.24,2.45,29.95,7.87,6.18,4.35,11.52,8.1,18.59,6.74,3.27-.77,6.99-3.06,10.27-5.09l.19-.12c1.18-.73,2.72-.36,3.44.81.73,1.17.36,2.72-.81,3.44l-.19.12c-3.6,2.23-7.69,4.75-11.85,5.72-3.24.62-6.16.45-8.88-.24Z"/><path class="cls-16" d="m705.83,269.83c-5.05-1.28-9.38-4.32-13.62-7.3-7.47-5.25-14.53-10.21-25.76-7.14-1.33.36-2.71-.42-3.07-1.75-.36-1.33.42-2.71,1.75-3.07,13.5-3.69,22.24,2.45,29.95,7.87,6.18,4.34,11.52,8.1,18.59,6.74,3.28-.77,6.99-3.06,10.27-5.09l.19-.11c1.18-.73,2.72-.36,3.44.81.73,1.17.36,2.72-.81,3.44l-.19.11c-3.61,2.23-7.69,4.75-11.86,5.73-3.24.62-6.16.45-8.88-.24Z"/><path class="cls-16" d="m705.02,280.23c-5.05-1.28-9.38-4.32-13.62-7.3-7.47-5.25-14.53-10.21-25.76-7.14-1.33.36-2.71-.42-3.07-1.75-.36-1.33.42-2.71,1.75-3.07,13.5-3.7,22.24,2.45,29.95,7.87,6.18,4.35,11.52,8.1,18.59,6.74,3.28-.77,6.99-3.06,10.27-5.09l.19-.11c1.18-.73,2.72-.36,3.44.81.73,1.17.36,2.72-.81,3.44l-.19.11c-3.61,2.23-7.69,4.75-11.86,5.73-3.24.62-6.16.45-8.88-.24Z"/></g><path class="cls-16" d="m574.88,271.05l3.66,4.54-8.01,6.44-3.66-4.54,8.01-6.44Zm0,2.27l-5.8,4.67,1.43,1.78,5.8-4.67-1.43-1.78Zm3.46,8.26l-1.12.9-.94-1.17-4.01,3.23-1.1-1.37,8.28-6.66,1.1,1.37-3.15,2.54.94,1.17Z"/><path class="cls-16" d="m581.29,288.52c-.26.31-.54.58-.84.8-.3.23-.63.38-.98.46-.35.08-.73.06-1.13-.05-.4-.11-.82-.35-1.26-.72-.46-.39-.79-.77-.97-1.15s-.26-.74-.24-1.1c.02-.35.12-.7.3-1.04.18-.34.39-.65.65-.96l2.79-3.33c.25-.3.53-.57.83-.8.3-.23.62-.39.97-.47.35-.08.72-.07,1.12.04.4.11.84.36,1.3.75.44.37.75.74.93,1.11.18.37.26.74.24,1.1-.02.36-.11.71-.28,1.05-.17.34-.38.66-.64.96l-2.79,3.33Zm-3.25-2.44c-.34.4-.5.75-.5,1.04s.16.56.46.82c.31.26.61.36.89.3.28-.07.58-.29.9-.67l3.08-3.68c.32-.38.49-.72.51-1s-.13-.56-.45-.82c-.3-.25-.6-.36-.88-.31s-.6.27-.93.67l-3.06,3.66Zm2.55,5.99l6.82-8.15,1.35,1.13-6.82,8.15-1.35-1.13Z"/><path class="cls-16" d="m592.31,299.43c-.32-.21-.63-.44-.95-.7s-.6-.53-.88-.83c-.27-.29-.5-.61-.7-.93-.2-.33-.33-.67-.41-1.02-.31.11-.66.18-1.03.19-.38.02-.76,0-1.15-.07-.4-.06-.79-.15-1.19-.28-.4-.13-.77-.27-1.13-.43l.16-1.48c.46.2.92.37,1.38.51.46.14.89.23,1.29.26.4.03.75-.01,1.07-.12.31-.11.55-.32.72-.63l.13-.24,1.55.84-.13.24c-.17.31-.21.62-.14.94.07.32.23.64.47.96.24.32.54.63.91.94.37.31.76.6,1.18.88l-1.15.94Zm-2.07-6.92l-3.8-2.08.68-1.25,6.94,3.79,1.32-2.42-6.24-3.4.68-1.24,7.78,4.25-1.99,3.65.68.37-.68,1.25-3.8-2.08-.51.94-1.56-.85.51-.94Z"/><path class="cls-16" d="m596.57,298.08l6.85,2.27.09-.28-6.85-2.27.39-1.17,8.52,2.83-.86,2.58-6.84-2.27-.09.27,7.06,2.34-.39,1.17-8.74-2.9.85-2.57Zm.31-3.27l9.91,3.29-.42,1.26-9.91-3.29.42-1.26Zm1.15-1.46l1.48.49.23-1.03,1.7.41-.27,1.17,2.46.82.49-1.09,1.6.69-.44.96,1.48.49-.44,1.32-8.74-2.9.44-1.32Zm1-2.65l8.52,2.83-.44,1.32-8.52-2.83.44-1.32Z"/><path class="cls-16" d="m612.47,304.46l-5-.55.65-5.89,2.88.32.32-2.9-2.91-.32.16-1.42,4.68.52-.63,5.75-2.89-.32-.34,3.05,3.23.36-.16,1.41Zm1.31-6.03l.46-4.17,1.68.19-1.14,10.33-1.68-.19.52-4.75-.63-.07.16-1.41.63.07Zm2.63-4.02l1.69.19-1.17,10.58-1.7-.19,1.17-10.58Z"/><path class="cls-16" d="m625.32,301.52c.04.4.02.79-.03,1.16-.05.37-.18.71-.37,1.02-.19.31-.47.56-.83.76-.36.2-.83.33-1.4.38-.6.05-1.1,0-1.5-.13-.39-.14-.71-.34-.94-.61-.24-.26-.41-.58-.52-.94-.11-.36-.19-.74-.22-1.13l-.38-4.33c-.03-.39-.03-.78.02-1.15.05-.38.16-.72.35-1.02s.46-.56.82-.76c.36-.21.84-.34,1.45-.39.57-.05,1.05,0,1.44.13.39.14.71.34.95.61.24.27.43.58.54.95s.2.74.23,1.13l.38,4.33Zm-4.02.57c.05.52.17.88.38,1.08.21.2.51.29.9.25.41-.04.69-.17.84-.42s.2-.61.16-1.11l-.42-4.78c-.04-.5-.16-.85-.35-1.06-.19-.21-.49-.3-.9-.26-.39.03-.67.17-.84.4-.17.24-.23.61-.19,1.14l.42,4.76Zm6.03,2.44l-.93-10.59,1.76-.15.93,10.59-1.75.15Z"/><path class="cls-16" d="m639.91,297.74c-.46.05-.92.07-1.39.05-.47-.02-.92-.08-1.35-.18-.43-.1-.84-.24-1.21-.42-.38-.18-.7-.4-.98-.67-.09.37-.24.74-.45,1.09-.21.35-.48.68-.79,1-.31.32-.66.61-1.04.88-.39.27-.8.51-1.23.71l-.91-1.13c.54-.28,1.03-.58,1.45-.93.42-.34.76-.7,1.02-1.09.26-.39.43-.79.51-1.22.08-.43.06-.87-.08-1.32l-.55-1.89,1.72-.5.55,1.89c.13.45.35.83.64,1.15.3.32.66.57,1.08.75.43.19.91.31,1.44.37.53.06,1.11.06,1.72,0l-.16,1.44Zm-8.68,4.64l10.04-2.93.4,1.37-10.04,2.93-.4-1.36Z"/><path class="cls-16" d="m581.04,191.35l.38.5c.36.47.62.98.77,1.54.15.56.21,1.14.16,1.75-.05.61-.21,1.25-.47,1.9-.26.66-.62,1.32-1.09,1.99l-1.39-.54c.31-.42.57-.85.79-1.3.22-.44.38-.88.47-1.3.1-.42.13-.83.1-1.23s-.14-.75-.32-1.06l-2.73,2.1-.87-1.13,4.19-3.22Zm4.31,9.91c-.27.21-.54.38-.82.52-.28.14-.55.21-.83.23-.28.01-.55-.04-.82-.17-.27-.13-.53-.36-.79-.69-.24-.31-.39-.62-.44-.91-.05-.29-.04-.57.05-.83.09-.26.23-.5.43-.74.2-.23.43-.45.69-.66l3.44-2.65c.26-.2.53-.37.81-.5.28-.13.56-.21.83-.23.27-.02.54.04.81.16.27.13.53.35.77.66.25.33.41.64.46.94.05.29.04.57-.05.83-.09.26-.23.51-.43.74-.2.23-.44.45-.71.66l-3.41,2.62Zm-2.66-11.37l1.4-1.07,3.76,4.89-1.4,1.08-.78-1.01-1.58,1.21-.87-1.14,1.58-1.21-.52-.68-1.4,1.07-.87-1.14,1.4-1.07-.72-.94Zm.77,10.18c.11.14.25.24.42.29.17.05.37-.02.61-.2l3.43-2.63c.24-.18.36-.36.35-.54,0-.17-.06-.33-.17-.48-.11-.14-.24-.22-.4-.25-.16-.03-.35.05-.58.22l-3.43,2.63c-.23.18-.35.34-.37.5-.02.16.03.31.14.45Z"/><path class="cls-16" d="m593.91,189.9c-.49.02-1-.02-1.51-.13-.51-.11-1.05-.33-1.62-.67-.06.6-.2,1.17-.42,1.71-.22.54-.51,1.05-.88,1.52l-1.35-.68c.55-.71.9-1.42,1.06-2.13.16-.71.07-1.42-.28-2.12l-.49-.99,1.6-.79.47.95c.18.37.41.67.68.91s.57.44.89.58.66.24,1.02.29c.35.05.71.06,1.05.05l-.22,1.5Zm-.03,5.57c-.31.15-.61.27-.91.35-.3.08-.58.1-.86.06-.27-.04-.53-.15-.77-.33s-.45-.45-.64-.83c-.17-.35-.26-.68-.25-.98,0-.3.08-.57.21-.8s.33-.45.56-.64c.24-.19.51-.36.81-.51l3.5-1.72c.29-.14.59-.25.89-.33.3-.08.59-.1.86-.06.27.04.53.14.77.32.24.18.45.44.62.8.19.37.27.71.27,1.01,0,.3-.08.57-.21.81-.13.24-.33.45-.57.64-.25.19-.52.36-.83.51l-3.46,1.7Zm-1.62-1.54c.08.16.2.29.35.37.15.08.37.05.64-.08l3.48-1.71c.27-.13.42-.29.45-.46.03-.17,0-.34-.08-.5-.08-.16-.19-.26-.34-.32-.15-.06-.36-.02-.61.11l-3.48,1.71c-.26.13-.41.27-.46.42-.05.15-.03.31.05.46Zm4.71-9.47l.63,1.27-1.35.66,1.11,2.25-1.58.78-2.68-5.44,1.58-.78.94,1.91,1.35-.66Z"/><path class="cls-16" d="m598.11,182l1.71-.46,1.07,4,4.48-1.2.37,1.37-6.2,1.65-1.43-5.37Zm2.08,6.04l8.14-2.17,1.06,3.97-8.14,2.17-1.06-3.97Zm2.07.89l.34,1.26,4.72-1.26-.34-1.26-4.72,1.26Zm6.38-7.7l.37,1.37-1.45.39.65,2.43-1.7.45-1.56-5.85,1.7-.46.55,2.05,1.45-.39Z"/><path class="cls-16" d="m610.49,187.87l4.32-.27-.11-1.78,1.77-.11.11,1.78,4.35-.27.09,1.42-10.44.65-.09-1.42Zm.66-2.29l-.41-6.57,8.92-.55.09,1.43-7.15.44.23,3.72,7.21-.45.09,1.42-8.98.56Z"/><path class="cls-16" d="m625.81,185.22l8.26,1.66-.81,4.02-8.26-1.66.81-4.02Zm.81-6.34l1.74.35-.81,4.06,4.55.91-.28,1.39-6.29-1.26,1.09-5.45Zm.65,8.06l-.26,1.28,4.79.96.26-1.28-4.79-.96Zm9.13-4.08l-.28,1.39-1.47-.29-.5,2.46-1.73-.35,1.19-5.94,1.73.35-.42,2.08,1.47.3Z"/><path class="cls-16" d="m640.58,190.65c-.16.38-.34.71-.54.99-.2.28-.44.5-.7.64-.26.15-.57.22-.91.22-.34,0-.74-.1-1.18-.28-.45-.19-.8-.4-1.05-.65-.24-.24-.41-.51-.49-.8-.08-.29-.09-.61-.03-.95.06-.34.17-.7.33-1.08l.37-.89c.16-.38.33-.71.53-.99.19-.28.42-.5.69-.64.26-.15.57-.22.91-.22s.75.09,1.2.28c.44.18.78.4,1.03.64.24.24.41.51.49.8.08.29.09.61.04.95-.06.34-.16.7-.32,1.08l-.37.89Zm1.94-3.77l-5.16-2.15.55-1.32,5.16,2.15-.55,1.32Zm-4.98,2.74c-.1.23-.15.42-.17.58-.02.15-.01.28.02.37s.09.17.16.23.15.1.24.14c.09.04.18.06.27.08.09.01.19,0,.28-.05.09-.05.19-.13.28-.25.09-.12.19-.3.28-.53l.54-1.29c.1-.23.16-.42.18-.57.02-.15.01-.27-.02-.37-.04-.09-.09-.17-.17-.22-.07-.06-.16-.1-.25-.14-.09-.04-.18-.06-.27-.08s-.18,0-.27.05c-.09.04-.19.13-.28.25-.09.12-.19.3-.29.53l-.54,1.29Zm4.74-5.15l-3.08-1.28.55-1.32,3.08,1.28-.55,1.32Zm2.43,3.82l1.56-3.75,1.57.66-4.08,9.81-1.57-.66,1.98-4.75-.55-.23-1.92,4.62-1.56-.65,3.99-9.59,1.56.65-1.52,3.66.55.23Z"/><path class="cls-16" d="m646.79,192.56l1.47.99-1.24,1.84,6.07,4.09-.79,1.18-7.54-5.08,2.03-3.02Zm3.5,1.23l-3.59-2.42.79-1.18,6.55,4.42,1.72-2.56-5.89-3.97.79-1.17,7.35,4.96-2.51,3.72.64.43-.79,1.18-3.59-2.42-1.21,1.8-1.47-.99,1.21-1.8Z"/><path class="cls-16" d="m658.83,201.02l5.54,6.34-3.09,2.7-5.54-6.34,3.09-2.7Zm.11,2.26l-.99.86,3.22,3.68.98-.86-3.22-3.68Zm4.39-6.79l1.17,1.34-3.12,2.72,3.05,3.49-1.07.94-4.22-4.83,4.19-3.66Zm5.34,9.12l-1.07.94-.99-1.13-1.89,1.65-1.16-1.33,4.56-3.99,1.16,1.33-1.6,1.4.99,1.13Z"/><path class="cls-16" d="m667.22,214.3c-.36.2-.7.36-1.03.46-.33.1-.65.13-.95.08-.3-.04-.58-.17-.85-.38-.27-.21-.52-.52-.76-.94-.25-.43-.39-.81-.44-1.15-.05-.34-.01-.65.1-.93.11-.28.3-.53.56-.76.26-.23.56-.45.92-.65l.84-.48c.36-.2.7-.36,1.02-.46.33-.1.64-.13.94-.09.3.04.59.17.86.38.27.21.53.53.78.96.24.41.38.79.43,1.13.05.34.01.65-.1.93-.11.28-.3.54-.55.78-.25.24-.56.46-.91.66l-.84.48Zm-1.78-2.67c-.22.12-.38.24-.49.35-.11.11-.18.21-.21.31-.03.1-.04.19-.01.28.02.09.06.17.11.26.05.08.11.16.17.23.07.07.15.11.25.13.1.02.23,0,.37-.03.15-.04.33-.12.55-.25l1.21-.7c.22-.12.38-.24.49-.35s.18-.21.21-.3.03-.19,0-.28c-.03-.09-.06-.18-.11-.26-.05-.08-.11-.16-.17-.22-.06-.06-.14-.11-.24-.13-.1-.02-.22-.01-.37.02-.15.04-.33.12-.55.24l-1.21.7Zm6.49,3.32l3.52-2.02.85,1.48-9.22,5.29-.85-1.48,4.47-2.56-.29-.51-4.34,2.49-.84-1.47,9.01-5.17.84,1.47-3.44,1.97.29.51Zm-.87-2.45l-2.78-4.85,1.24-.71,2.78,4.85-1.24.71Zm1.27-2.05l-1.66-2.89,1.24-.71,1.66,2.89-1.24.71Z"/><path class="cls-16" d="m671.41,219.46l.56,1.68-.58.2,1.73,5.16.58-.2.56,1.67-3.88,1.3-2.86-8.51,3.88-1.3Zm-1.34,2.32l-.65.22,1.73,5.16.65-.22-1.73-5.16Zm2.96-3.64l3.32,9.9-1.35.45-3.32-9.89,1.35-.45Zm6.54,5.54c.27.8.31,1.45.11,1.92-.2.48-.59.82-1.18,1.01-.58.2-1.1.16-1.54-.09s-.8-.79-1.08-1.59l-1.35-4.01c-.27-.81-.31-1.45-.1-1.92.2-.48.59-.81,1.17-1.01.59-.2,1.11-.17,1.55.1.45.26.8.8,1.07,1.6l1.34,3.99Zm-3.41-4.04c-.14.05-.24.12-.32.24-.07.11-.08.28,0,.49l1.41,4.2c.08.23.17.37.29.41.12.04.25.04.4-.02.14-.05.25-.12.32-.23.07-.1.07-.27-.01-.5l-1.41-4.2c-.07-.22-.17-.34-.31-.39-.13-.04-.26-.05-.38,0Z"/><path class="cls-5" d="m432.46,361.36c-2.19-15.44,2.66-31.75,12.92-43.49,4.86-5.56,11.08-10.22,18.29-11.81,7.21-1.59,15.45.37,20.16,6.06,3.27,3.95,4.51,9.86,1.99,14.32s-9.27,6.28-13.11,2.89c-2.52-2.23-3.24-5.86-3.33-9.22-.36-14.09,7.96-27.38,19.16-35.94,6.85-5.24,14.68-8.95,22.87-11.75"/><polygon class="cls-9" points="511.43 284.5 527.28 268.02 505.08 262.53 511.43 284.5"/></svg>