<svg width="19" height="24" viewBox="0 0 19 24" fill="none" xmlns="http://www.w3.org/2000/svg">
<path d="M11.4186 12.5962C13.1756 13.9191 14.9664 15.5192 16.7093 16.9137C17.5006 17.5675 16.4738 18.4971 16.0263 18.8547C15.8379 19.0232 14.9523 19.7383 13.3649 21C11.5608 19.9631 10.4115 19.3042 9.92633 19.0334C8.9607 18.4563 7.58527 17.215 7.1943 16.8626C6.7845 16.4795 5.4373 15.131 5.0275 14.7428C4.16549 13.9613 3.28466 13.2155 2.38968 12.5209C1.8998 12.1224 1.86682 11.8006 2.31902 11.346C2.84658 10.7739 3.59082 10.0588 4.08542 9.48164C4.30681 9.22625 4.49993 8.99639 4.67422 8.79207C5.33367 7.92372 6.41708 6.85617 7.92441 5.59962C9.43174 4.33796 10.468 3.38278 11.0333 2.73918C11.0615 2.70854 11.1699 2.64213 11.1981 2.61149C11.25 2.2999 11.3536 1.87595 11.6833 2.0343C11.9094 2.14667 12.013 2.28969 12.192 2.48379C13.0069 3.28573 13.982 4.32264 15.1125 5.59962C15.1737 5.66602 15.2067 5.78861 15.2067 5.95717C15.2067 6.12573 15.1737 6.25343 15.1125 6.34027C14.3259 7.71941 13.5204 8.76142 12.6866 9.4561C12.0554 9.97711 11.6362 10.4419 11.038 11.0906L10.2843 11.9079C10.9909 12.3319 11.4186 12.5962 11.4186 12.5962Z" fill="#F4BC1B" stroke="black" stroke-width="3.53" stroke-miterlimit="10"/>
</svg>
