<svg width="20" height="24" viewBox="0 0 20 24" fill="none" xmlns="http://www.w3.org/2000/svg">
<path d="M8.36298 11.0909C7.72008 10.4371 7.27809 9.97745 6.60506 9.45646C5.71606 8.7567 4.85721 7.71982 4.01844 6.34072C3.95314 6.25389 3.91798 6.1262 3.91798 5.95764C3.91798 5.78908 3.95314 5.6665 4.01844 5.6001C5.22386 4.32316 6.26352 3.28117 7.13243 2.48436C7.31827 2.29537 7.43882 2.14726 7.67488 2.03488C8.0114 1.87654 8.13195 2.29027 8.19223 2.61206C8.22236 2.6427 8.33787 2.7091 8.36801 2.73975C8.97072 3.38844 10.0757 4.34359 11.6829 5.6001C13.2902 6.86172 14.4454 7.92413 15.1485 8.79245C15.922 9.65055 16.8562 10.5291 17.6598 11.3463C18.142 11.8009 18.1068 12.1227 17.5845 12.5211C16.1229 13.5886 14.9727 14.5387 13.6016 15.8156C12.2203 17.1079 12.1751 17.1181 10.372 18.5227C10.1561 18.676 9.87983 18.8445 9.54331 19.0335C9.22689 19.2021 8.00134 19.861 5.87678 21C4.18416 19.7384 3.23992 19.0233 3.03902 18.8547C2.55685 18.4921 1.46694 17.5676 2.31073 16.9138C2.95865 16.4286 5.22385 14.6357 5.82656 14.1556C6.44435 13.6806 7.1676 13.1494 7.98628 12.5722C8.02144 12.5569 8.41322 12.3321 9.16661 11.9082L8.36298 11.0909Z" fill="#F4BC1B" stroke="black" stroke-width="3.53" stroke-miterlimit="10"/>
</svg>
