<svg width="34" height="40" viewBox="0 0 34 40" fill="none" xmlns="http://www.w3.org/2000/svg">
<path d="M13.9306 18.7465C12.7252 17.5421 11.8964 16.6953 10.6345 15.7356C8.96761 14.4465 7.35727 12.5365 5.78457 9.99607C5.66214 9.83611 5.59621 9.60089 5.59621 9.29039C5.59621 8.97989 5.66214 8.75408 5.78457 8.63176C8.04474 6.2795 9.9941 4.36005 11.6233 2.89225C11.9718 2.54411 12.1978 2.27126 12.6404 2.06426C13.2714 1.77258 13.4974 2.5347 13.6104 3.12747C13.6669 3.18393 13.8835 3.30624 13.94 3.3627C15.0701 4.55764 17.1419 6.31714 20.1555 8.63176C23.169 10.9558 25.3351 12.9129 26.6535 14.5124C28.1038 16.0931 29.8554 17.7115 31.3622 19.2169C32.2663 20.0543 32.2003 20.6471 31.2209 21.381C28.4805 23.3475 26.3239 25.0976 23.7529 27.4498C21.1631 29.8303 21.0784 29.8491 17.6975 32.4366C17.2926 32.7189 16.7747 33.0294 16.1437 33.3775C15.5504 33.688 13.2525 34.9018 9.26896 37C6.0953 34.676 4.32486 33.3587 3.94816 33.0482C3.04409 32.3802 1.0005 30.6771 2.58263 29.4728C3.79747 28.5789 8.04472 25.2763 9.17481 24.3919C10.3331 23.5168 11.6892 22.5383 13.2243 21.4751C13.2902 21.4469 14.0248 21.0329 15.4374 20.2519L13.9306 18.7465Z" fill="#F4BC1B" stroke="black" stroke-width="3.53" stroke-miterlimit="10"/>
</svg>
