<svg xmlns="http://www.w3.org/2000/svg" width="353" height="149" viewBox="0 0 353 149" fill="none">
<g clip-path="url(#clip0_247_914)">
<path d="M95.0701 97.65L94.9801 97.84L95.1401 98.05L94.7401 99.2L94.8101 99.53L94.5801 99.76C94.5801 99.83 94.5601 99.97 94.5801 100.09L94.3501 100.56C94.3701 100.65 94.3501 100.86 94.3001 100.94L94.0701 101.13L93.8401 101.74L93.6501 102.09L93.1101 102.42L93.0401 102.28L92.7801 102.58L92.5201 102.51L92.1401 102.49L91.2701 102.19L90.8201 101.93C90.8201 101.93 90.7001 101.81 90.6101 101.79C90.4501 101.74 90.0701 101.27 89.9801 101.2C89.8901 101.13 89.4601 100.9 89.4601 100.9C89.4601 100.9 88.9001 99.92 88.8501 99.68L88.7801 99.35L88.5001 98.9L88.5701 98.52L88.4101 98.38C88.3601 98.31 88.3401 98.31 88.3201 98.24L88.1801 98.03L88.1601 97.37C88.1101 97.25 88.0901 97.07 88.0901 97.07C88.1401 97.02 88.2101 96.84 88.2101 96.84C88.2301 96.79 88.1901 96.65 88.1901 96.61L88.1201 96.19C88.0701 96.05 88.3501 95.53 88.3501 95.53L88.2101 95.25C88.1901 95.09 88.4201 94.59 88.4201 94.59L88.6501 94.14L88.7201 94.09C88.7901 94 88.9101 93.81 89.0001 93.74C89.0201 93.69 89.0701 93.67 89.1201 93.62L89.7801 92.89L90.0601 92.77C90.1801 92.7 90.4101 92.82 90.4101 92.82L90.9001 92.59V92.36C91.0201 92.31 91.1601 92.31 91.3001 92.36L91.4201 92.43L91.5101 92.22L92.0001 92.45C92.0001 92.45 92.2401 92.33 92.3501 92.4L92.6301 92.52H92.9801C92.9801 92.52 93.6601 93.15 93.7501 93.25C93.7701 93.27 93.8701 93.34 93.8901 93.39L93.9801 93.34L94.1201 93.57C94.1201 93.57 94.5001 93.95 94.5401 94.11L94.5201 94.41C94.5201 94.41 94.9701 94.79 94.9701 94.95L95.0601 95.37C95.0601 95.37 95.0801 95.56 95.1101 95.58C95.1101 95.58 95.2501 95.74 95.3201 95.77C95.3201 95.77 95.3401 95.96 95.3401 96.08L95.5501 96.71L95.5001 96.94C95.5001 97.01 95.4801 97.1 95.4301 97.17L95.3601 97.29L95.0501 97.64L95.0701 97.65ZM94.2301 97.37L94.1801 97.18C94.1601 97.11 94.1301 97.04 94.1301 96.99C94.1301 96.8 94.1501 96.59 94.2001 96.4C94.2001 96.4 93.9901 95.95 93.9001 95.91C93.5901 95.56 93.5901 95.46 93.5701 95.39L93.4501 95.04C93.4701 94.92 93.3101 94.55 93.1701 94.48C93.1701 94.48 93.0501 94.25 92.9101 94.01C92.9101 94.01 92.7201 93.87 92.6801 93.82L91.8101 93.63C91.8101 93.63 91.5801 93.49 91.3901 93.42L91.1101 93.75C90.9001 93.82 90.5901 94.01 90.5901 94.01L90.1901 94.2L89.9601 94.39L89.9101 94.46L89.6801 94.62C89.6301 94.85 89.6301 95.09 89.6301 95.09C89.5101 95.21 89.5401 95.61 89.5601 95.72L89.5801 96.07C89.5801 96.16 89.6001 96.23 89.4601 96.68C89.4101 96.82 89.3401 97.24 89.3401 97.24C89.4301 97.36 89.6001 97.64 89.6201 97.76C89.6401 97.81 89.6201 97.9 89.6401 97.97V98.25C89.6601 98.46 89.6901 98.53 89.7301 98.6C89.7501 98.65 89.7801 98.74 90.0101 99.16L90.3401 99.82L90.3901 99.96L90.6201 100.05L91.0401 100.66C91.0401 100.66 91.1301 100.87 91.1601 100.94L91.1801 100.99L91.5101 101.01L91.8101 101.17L91.8801 101.15L92.3001 101.13L92.7001 101.22L93.0501 101.2L93.2601 101.01L93.3501 100.73L93.4001 100.54L93.5901 100.21C93.5901 100.21 93.6401 100.12 93.6601 100.05V99.96L93.5901 99.3L93.7801 99.21C93.7101 99.16 93.7301 99.07 93.7601 99L93.7401 98.81C93.7401 98.67 93.9301 98.29 93.9301 98.29L93.9801 97.89L94.1001 97.35H94.2201L94.2301 97.37ZM91.9801 105.29H92.5401C92.5401 105.29 92.8201 105.88 92.8201 106.09C92.8201 106.18 92.7701 106.54 92.7701 106.54V107.15L93.0001 107.43L92.9101 107.78C93.0301 107.97 93.3101 108.58 93.3101 109.47C93.3101 109.59 93.0501 109.73 93.0501 109.73L92.9801 109.87C93.1701 109.94 93.3101 110.15 93.3101 110.76V111.09C93.3101 111.09 93.3301 111.18 93.3301 111.25V111.51L93.2601 112.07H93.8701L94.9201 111.79L95.2301 111.48C95.2301 111.48 95.2801 111.41 95.3701 111.41C95.5101 111.29 95.7701 111.18 95.7701 111.18H96.2201L96.4301 111.02C96.6201 110.95 96.8301 110.9 97.0601 110.86C97.3401 110.81 97.6501 110.74 97.7401 110.67L98.0401 110.37L98.4901 110.7L98.4701 111.29C98.4701 111.29 98.2401 111.41 98.1401 111.5L98.0501 111.66C98.0501 111.66 97.9801 111.73 97.8901 111.78L97.7501 111.85C97.3701 111.85 97.0201 112.06 96.7901 112.23C96.7201 112.25 96.5301 112.35 96.4601 112.35L96.3201 112.44C96.2701 112.51 96.1301 112.56 96.0201 112.6L95.3601 112.93H94.9401L94.7501 113.02C94.6101 113.09 94.4701 113.16 94.3001 113.18L94.0401 113.16L93.9201 113.47C93.9001 113.61 93.8501 113.75 93.6901 113.75C93.5501 113.75 93.3101 113.63 93.3101 113.63H92.3301L91.9301 113.44L91.7401 113.28C91.7401 113.28 91.6701 113.19 91.6701 113.12C91.6701 113.03 91.7601 112.84 91.7601 112.84L91.6901 112.3L92.0401 112.14V111.55H91.6401C91.6401 111.55 91.7101 111.36 91.7101 111.17C91.7101 111.1 91.5901 110.84 91.5201 110.68C91.5001 110.61 91.4701 110.56 91.4701 110.56C91.5401 110.18 91.7001 109.27 91.7001 108.94C91.7001 108.92 91.6801 108.89 91.6801 108.85V108.47C91.6801 108.31 91.4901 107.51 91.4701 107.51C91.4701 107.39 91.5401 107.16 91.5401 107.16L91.6601 106.88L91.5401 106.48V106.32L91.6801 105.66L91.9601 105.31L91.9801 105.29ZM100.89 97.3C100.89 97.3 100.91 97.32 100.89 97.37C100.94 97.44 100.94 97.6 100.96 97.65L100.84 97.93C100.77 98.14 100.68 98.35 100.72 98.42C100.77 98.56 100.79 98.65 100.79 98.65L100.72 98.84L100.6 99.68C100.55 100.01 100.55 100.43 100.55 100.43L100.6 100.71L100.58 101.32C100.58 101.32 100.7 101.48 100.7 101.65L100.51 102.05L100.46 102.31L100.51 102.54C100.51 102.54 100.51 103.15 100.37 103.27C100.3 103.27 100.28 103.34 100.23 103.43C100.09 103.64 99.9501 103.85 99.7801 103.83C99.6401 103.83 99.5001 103.71 99.3601 103.45L99.5001 103.05C99.5201 102.89 99.4801 102.77 99.4501 102.67C99.4001 102.55 99.4301 102.51 99.4501 102.53L99.6101 101.83C99.6101 101.76 99.5201 101.57 99.5201 101.57L99.6401 101.22C99.6401 101.22 99.5701 101.08 99.5701 101.01L99.7601 100.71C99.7601 100.71 99.6701 99.58 99.6401 99.4C99.5901 99.31 99.5501 98.88 99.5501 98.88L99.7601 98.39L99.8101 97.36C99.8101 97.27 99.8301 97.15 99.8801 97.03C99.9501 96.87 99.5701 96.58 99.5701 96.58C99.5901 95.9 99.6601 94.94 99.6601 94.94L99.8001 94.28L99.9201 94.02V93.43L99.8501 93.29L99.9201 93.01L99.6601 92.31C99.6601 92.31 99.7301 92.24 99.7301 92.22C99.7301 92.15 99.6601 91.99 99.6601 91.99C99.6601 91.99 99.6401 91.61 99.6401 91.59C99.6401 91.47 99.6601 91.33 99.7601 91.21C99.8301 91.09 99.9201 91.05 100.11 91.07L100.27 91.09L100.5 91.28L100.78 91.59C100.78 91.59 100.87 92.06 100.83 92.18C100.83 92.23 100.9 92.46 100.97 92.63C100.97 92.72 101.02 92.79 101.04 92.84C101.02 92.91 101.11 93.47 101.11 93.47L100.92 93.85V94.88L100.69 95.44L100.92 95.7C100.97 96.61 100.85 97.11 100.87 97.29L100.89 97.3Z" fill="black" stroke="black" stroke-miterlimit="10"/>
<path d="M111.3 102.83L111.51 102.85C111.51 102.85 111.68 102.76 111.72 102.71L111.91 102.76H112C112.23 102.76 112.63 102.74 112.63 102.95C112.63 103 112.61 103.04 112.54 103.11C112.54 103.11 113.95 103.02 113.95 102.97C113.95 102.95 113.93 102.92 113.93 102.9C113.93 102.69 114.38 102.64 114.7 102.64C115.02 102.64 115.33 102.9 115.43 103.65L114.28 104.1H112.36L112.15 103.89L111.99 103.75L111.8 103.84H111.4L111.33 104H111L110.93 103.84L110.86 103.93H110.23L110.28 103.81L108.87 103.62C108.87 103.62 108.87 103.6 108.89 103.53C108.87 103.46 108.75 103.41 108.63 103.44L108.54 103.58C108.54 103.58 108.49 103.67 108.47 103.67L108.09 103.58L107.97 103.67L107.64 103.6L107.45 103.67C107.45 103.67 107.03 103.74 106.98 103.74C106.93 103.74 106.53 103.65 106.53 103.65L106.46 103.49L106.39 103.56C106.34 103.65 106.3 103.75 106.11 103.75C105.92 103.75 105.64 103.73 105.64 103.73C105.43 103.71 105.29 103.59 105.19 103.5L105.12 103.43L104.89 103.27C104.77 103.2 104.59 103.01 104.54 102.89C104.52 102.84 104.73 102.35 104.73 102.35L104.82 102.26L105.17 102.45C105.29 102.4 105.55 102.29 105.64 102.26L106.25 102.33H108.38L108.8 102.49V102.61C108.99 102.61 109.25 102.56 109.43 102.56L110.91 102.7V102.84L111.29 102.93V102.84L111.3 102.83ZM104.86 93.9899C104.74 93.8299 104.63 93.6399 104.6 93.4699C104.58 93.3299 104.62 93.2099 104.74 92.9499L105.12 92.7199C105.12 92.7199 106.32 92.6299 106.5 92.6299L107.6 92.6499L108.26 92.7199C108.33 92.7199 108.42 92.7699 108.49 92.7699C108.56 92.7899 108.54 92.7899 108.56 92.7899L108.75 92.7399C108.84 92.6899 108.89 92.6899 108.91 92.6899C108.98 92.6699 109.5 92.6399 109.89 92.6199C110.1 92.5999 110.34 92.5699 110.41 92.5699C110.53 92.5499 110.79 92.6899 110.83 92.7299C110.92 92.7299 111.02 92.6799 111.11 92.6799C111.51 92.6099 112.33 92.6099 112.68 92.6099C112.94 92.6099 113.24 92.9399 113.36 93.0299C113.45 93.1499 113.48 93.2599 113.48 93.4099C113.48 93.6399 113.34 93.8299 113.08 93.8299L112.85 93.7799H112.62C112.62 93.7799 112.55 93.7999 112.5 93.7999C112.24 93.8199 111.77 93.8899 111.68 93.9399H111.63C111.49 94.0099 111.18 93.9899 111 93.8499C110.93 93.9199 110.84 93.9399 110.55 93.9699C110.48 93.9699 110.03 93.9899 109.59 94.0199C109.19 94.0399 108.75 94.0399 108.7 94.0399L108.49 93.9699H108.04C107.83 93.9699 107.62 93.9499 107.57 93.9499C107.43 93.9499 105.41 93.9999 105.29 94.0199L104.84 93.9699L104.86 93.9899ZM108.82 98.8499L109.03 98.7799C109.12 98.7799 110.06 98.7799 110.34 98.7999H110.41V98.5699C110.41 98.4799 110.43 98.2899 110.43 98.0999C110.45 97.8899 110.45 97.6299 110.48 97.5799C110.53 97.4599 110.41 97.1999 110.41 97.1999C110.41 97.1999 110.34 96.5399 110.53 96.3099C110.53 95.9799 110.53 95.6499 110.51 95.2999L110.58 94.7799V94.6599C110.84 94.2799 111.07 94.1699 111.26 94.2399C111.54 94.3299 111.64 94.6399 111.78 95.1499L111.87 96.4899L111.92 97.0299C111.9 97.1199 111.9 97.2899 111.92 97.4999L111.76 98.3399L111.85 98.5999V98.7199C111.97 98.7199 112.13 98.7699 112.23 98.8099L112.7 98.8999L113.19 98.9699C113.19 98.9699 113.28 98.9699 113.35 98.9499L113.61 98.8999C113.82 98.8999 113.96 99.0399 113.99 99.2099C114.06 99.4199 114.04 99.6299 113.9 99.7999C113.78 99.9399 113.45 100.13 113.22 100.13C112.87 100.15 111.72 100.13 111.27 100.08L110.57 100.01C110.45 100.08 110.31 100.17 110.22 100.17H109.35C109.16 100.08 109.05 100.05 108.93 100.03C108.91 100.03 108.88 100.05 108.86 100.05L108.6 100.1L107.94 100.17L107.4 100.19C107.21 100.19 105.45 100.07 105.45 100.07L105.07 99.8399C104.93 99.5799 104.91 99.4899 104.93 99.3499C104.95 99.1599 105.05 99.0199 105.19 98.8299L105.66 98.7799C105.73 98.7999 106.41 98.8299 107.02 98.8499C107.02 98.6899 107 98.4499 107 98.2899C106.98 97.9799 106.95 97.6099 106.95 97.4199C106.95 97.2599 106.97 96.9999 106.97 96.9999L107.04 96.9099C106.97 96.7899 106.83 96.5599 106.83 96.4399V96.0599C106.83 95.8699 106.95 95.1899 106.95 95.1899L107.16 94.6299C107.32 94.4199 107.65 94.3999 107.86 94.4899C108.07 94.6099 108.31 94.8699 108.52 95.2599L108.5 95.5199L108.38 95.7499L108.66 96.3099L108.59 96.6899L108.52 97.3499V97.7699C108.52 98.0699 108.5 98.5199 108.52 98.8499C108.66 98.8499 108.76 98.8299 108.83 98.8299L108.82 98.8499ZM113.35 113.43C113.4 113.69 113.21 113.99 112.72 114.13L112.02 114.29H110.78L110.29 114.34L109.94 114.53L109.05 114.69L108.82 114.57L108.33 113.98C108.17 113.72 108.05 113.42 108.05 113.32L108.03 113.23C108.01 112.95 107.96 112.69 107.91 112.39C107.77 112.04 107.84 111.83 107.91 111.55L107.98 111.46L107.6 110.97V110.67L107.46 110.58L107.58 110.18L108.12 110.09L108.73 109.88L109.55 109.72L109.93 109.63L110.56 109.58L111.08 109.63C111.08 109.56 111.13 109.4 111.1 109.3L110.89 108.5L111.19 108.1L111.12 107.56L109.64 107.18L109.31 107.02L108.09 106.93L108.11 106.11L108.39 106.16L108.44 105.78L109.14 105.85C109.19 105.92 109.56 106.01 109.66 106.06L110.25 105.76L110.55 106.14C110.71 106.16 111.25 106.33 111.6 106.4C111.86 106.42 112.02 106.54 112.14 106.73C112.23 106.89 112.28 107.08 112.28 107.36C112.28 107.59 112.28 107.9 112.26 108.13C112.24 108.29 112.35 108.41 112.35 108.41C112.35 108.41 112.37 109.35 112.37 109.49C112.32 109.7 112.25 110.15 112.16 110.19C112.09 110.47 111.93 110.68 111.81 110.75C111.57 110.89 111.36 110.91 111.04 110.91C110.97 110.91 110.45 110.93 110.31 110.96C110.12 111.01 109.63 111.01 109.47 110.94L109.24 111.15V111.38C109.24 111.61 109.26 111.8 109.29 112.01L109.36 112.31L109.43 112.45L109.48 112.66L109.71 112.89L110.86 112.91L111.07 112.93C111.33 112.88 111.77 112.86 112.08 112.86L112.38 112.93L112.57 112.91C113.02 112.91 113.32 113.14 113.37 113.43H113.35Z" fill="black" stroke="black" stroke-miterlimit="10"/>
<path d="M120.9 107.22C120.64 107.27 120.08 107.31 119.8 107.27L118.98 107.36C117.95 107.36 117.71 106.75 117.69 106.7C117.6 106.23 118.84 106.02 119.31 106.02C119.47 106.02 119.69 106.04 119.76 106.04L120.68 106.11C120.68 106.11 121.22 106.18 121.62 106.09L123.05 105.93C123.54 105.98 123.82 106.12 123.94 106.16H124.27L125.04 106.02C125.25 105.97 125.42 105.95 125.56 105.95C125.7 105.95 125.91 105.95 126.08 105.97C126.41 105.99 126.85 106.02 127.6 106.02H128.56C128.7 106.07 129.48 106.37 129.48 106.58C129.48 106.7 129.24 106.84 128.8 106.96C128.52 106.94 127.7 107.08 127.32 107.17C127.06 107.31 126.83 107.36 126.62 107.36C126.48 107.38 126.27 107.43 126.15 107.48C125.85 107.48 125.35 107.41 125.05 107.36H124.89L124.33 107.48L124.17 109.12C124.17 109.12 124.17 109.73 124.19 109.78C124.14 110.06 124 111.33 124 111.33V112.29C124 112.29 124.02 112.36 124.02 112.38L124 112.47C123.98 112.8 123.7 112.8 123.51 112.78C123.46 112.78 122.92 112.29 122.9 112.08C123.04 111.8 123.13 110.77 123.13 110.77L123.22 109.27C123.22 109.27 123.17 107.35 123.17 107.46L122.07 107.37L120.92 107.23L120.9 107.22ZM120.06 102.34L119.83 101.52L119.88 101.12L119.72 101.03L119.6 100.58L119.65 100.42V100.3C119.65 100.3 119.51 100.14 119.51 100.11L119.56 99.85L119.37 99.64V99.48L119.28 99.27C119.35 99.06 119.49 98.92 119.75 98.82L120.13 98.73L121.16 98.38C121.89 98.33 124.75 98.33 125.45 98.26L125.8 98.42L126.27 98.35L126.36 98.33L126.5 98L126.36 97.7L126.57 97.56C126.5 97.44 126.45 97.21 126.43 97.09L126.48 97.07C126.36 96.95 126.41 96.74 126.48 96.55V96.25L126.43 96.11C126.43 96.11 126.19 95.99 126.15 95.95L126.29 95.67L126.17 95.58L125.96 95.56L125.98 95L125.89 94.77L125.68 94.79L125.3 94.65L124.92 94.7L124.59 94.61L124.05 94.56L123.44 94.35L123.27 94.42L122.8 94.4L122.61 94.26H122.14C121.58 94.14 121.34 94.07 121.2 93.98C121.18 93.98 120.92 94.03 120.75 94L120.52 93.98L120.21 93.96C120.21 93.96 119.81 93.98 119.65 93.96C119.51 93.91 119.23 93.7 119.18 93.65C119.23 93.46 119.2 93.25 119.25 93.06L119.3 92.97C119.37 92.76 119.79 92.76 119.79 92.76L120.07 92.83L120.75 92.74L121.27 93C121.39 93.02 121.53 93.09 121.65 93.14L121.79 93.02C121.96 93 122.07 93.04 122.26 93.07C122.61 93.12 122.89 93 123.13 93.07L123.48 93.19C123.48 93.19 123.78 93.28 123.95 93.4H124.25L124.72 93.33L125.14 93.28L125.28 93.33L125.84 93.35C126.36 93.37 126.57 93.44 126.83 93.75C127.06 94.03 127.16 94.31 127.16 94.81L127.21 94.97C127.26 95.04 127.42 95.23 127.49 95.53V95.81L127.56 96.02V96.21C127.56 96.21 127.51 96.59 127.56 96.89L127.63 98.11C127.44 98.86 127.23 99.21 127.02 99.28C126.93 99.3 126.86 99.28 126.76 99.21C126.53 99.37 126.24 99.47 126.01 99.49C125.85 99.51 125.71 99.4 125.61 99.4C125.49 99.38 125.33 99.4 125.23 99.35L124.95 99.51C124.81 99.53 123.87 99.53 123.73 99.46C123.54 99.51 123.24 99.65 122.89 99.72C122.28 99.86 121.62 99.88 121.48 99.86C121.36 99.84 120.96 99.91 120.92 99.91L121.18 100.5C121.23 100.69 121.2 100.73 121.23 100.78L121.28 101.11L121.33 101.37C121.42 101.77 121.33 102.03 121.26 102.21C121.21 102.33 121.14 102.44 121.14 102.56L121.44 102.49C121.39 102.58 121.37 102.7 121.39 102.82C121.37 102.89 121.51 102.89 121.53 102.91L122.7 102.72L122.98 102.77V102.84C123.19 102.82 123.38 102.77 123.61 102.79V102.67C123.89 102.69 124.24 102.65 124.38 102.67H124.54C124.7 102.69 124.96 102.76 125.06 102.81C125.2 102.81 125.58 102.74 125.65 102.74C125.7 102.69 125.77 102.69 125.86 102.69C125.95 102.69 126.59 102.67 126.73 102.71C126.8 102.73 126.94 102.69 127.06 102.69C127.15 102.67 127.27 102.67 127.32 102.69C128.02 102.69 128.14 102.92 128.12 103.3C128.12 103.42 128.05 103.79 128.03 103.79C127.96 103.79 127.79 103.77 127.7 103.74C127.65 103.72 127.61 103.72 127.61 103.72C127.4 103.72 127.14 103.77 126.93 103.81C126.72 103.85 125.36 103.9 125.19 103.9C124.98 103.88 124.77 103.81 124.65 103.74L124.32 103.93L123.73 103.88L121.22 103.86C121.22 103.86 121.15 103.88 121.08 103.91C120.99 103.98 120.82 104.07 120.68 104.07C120.4 104.05 120.09 103.77 120.12 103.69C120.12 103.67 120.28 103.34 120.28 103.34L120 103.08C119.98 102.89 120.09 102.61 120.05 102.35L120.06 102.34Z" fill="black" stroke="black" stroke-miterlimit="10"/>
<path d="M136.17 92.7699L136.47 93.0299L137.39 93.0999L137.51 94.0799L137.7 94.1699L137.79 94.8299L138.14 95.4599L138.02 95.9999L137.74 96.3499C137.72 96.5799 137.65 96.7999 137.62 97.0299C137.64 97.0799 137.69 97.3099 137.69 97.5499C137.69 97.8099 137.57 98.1099 137.48 98.1099C137.39 98.1099 137.36 98.0899 137.36 98.0899V100.58L136.91 100.86L137.05 101.07C137.05 101.07 137.07 101.16 137.07 101.23C137.07 101.49 136.95 102.07 136.65 102.17C136.67 102.24 136.11 102.94 136.04 103.08C135.95 103.22 135.43 103.2 135.43 103.2C135.43 103.2 134.84 102.85 135.1 102.45L135.36 102.1C135.45 101.94 135.95 101.54 135.95 101.37C135.95 101.18 135.93 100.99 135.93 100.83V100.36C135.93 100.24 136.02 100.01 136.09 99.7999C136.23 99.4199 136.42 98.9099 136.42 98.1999C136.42 98.0599 136.37 97.9199 136.37 97.9199C136.37 97.9199 136.53 97.5899 136.53 97.0799C136.53 96.9399 136.44 96.8199 136.37 96.6999C136.3 96.5799 136.23 96.4899 136.23 96.3199C136.23 96.1799 136.28 96.0199 136.32 95.8499C136.37 95.6399 136.44 95.3999 136.44 95.1499C136.44 94.9599 136.11 94.6599 136.11 94.6599L135.78 94.7299L135.26 94.5199L134.86 95.4599L134.25 95.8399C134.25 95.9299 134.23 96.0699 134.18 96.2199C134.16 96.3599 134.11 96.6699 134.11 96.6199C134.11 96.7399 134.06 96.9299 133.92 96.8999H133.4V98.3299L133.12 98.7499C133.28 98.9599 133.59 99.5899 133.59 100.04C133.59 100.04 133.59 100.06 133.61 100.11C133.68 100.27 134.57 101.49 134.38 101.99L134.07 102.44C134.07 102.44 133.88 102.56 133.69 102.56C133.57 102.56 132.66 101.43 132.61 101.2C132.49 101.01 132.35 100.64 132.35 100.5C132.35 100.38 132.33 100.22 132.28 100.1C132.02 99.6799 131.76 98.6699 131.76 97.7999L132.11 97.2599C132.06 96.9999 132.16 96.3199 132.41 96.1599V95.7799L132.86 95.0499V94.4199H133.89V94.0199L134.22 93.5499L134.46 93.0099L135.68 92.7799H136.13L136.17 92.7699ZM137.46 105.13L137.53 105.22L137.48 105.38C137.55 105.36 137.9 105.31 138 105.31C138.02 105.31 138.07 105.45 138.07 105.57C138.07 105.78 138.05 106.02 138.05 106.02C138.07 106.25 138.14 107.54 138.14 107.64C138.14 107.62 138.09 107.78 138.07 107.9C138.02 108.02 138 108.16 138 108.21C138 108.4 138 108.49 138.02 108.56C138.02 108.61 138.04 108.65 138.04 108.7C138.04 108.93 137.97 109.57 137.92 109.8C137.83 110.01 137.8 110.53 137.8 110.93C137.8 111.16 137.8 111.35 137.78 111.45L138.23 111.52L138.63 111.45L139.24 111.4C139.24 111.4 139.38 111.42 139.52 111.42C139.61 111.42 139.85 111.37 140.06 111.33C140.27 111.29 140.48 111.24 140.6 111.24L141.49 111.33L141.82 111.42C142.06 111.51 142.27 111.58 142.24 111.63L142.05 111.86V112.31C141.96 112.33 141.88 112.33 141.77 112.33H141.28C141.09 112.33 140.88 112.31 140.74 112.31C140.55 112.31 140.27 112.38 140.01 112.45L139.54 112.61C139.31 112.73 139.09 112.82 138.95 112.82L138.03 112.8C137.91 112.8 137.77 112.82 137.65 112.82C137.53 112.84 137.34 112.84 137.2 112.84C136.9 112.84 136.59 112.51 136.54 112.42H136.26V112.12C136.26 111.86 136.21 111.49 136.17 111.14C136.12 110.83 136.1 110.55 136.1 110.41C136.1 110.25 136.15 110.06 136.15 110.06H136.6L136.79 109.57C136.79 109.57 136.77 109.36 136.72 109.19C136.67 108.91 136.6 108.49 136.6 108.53L136.65 108.44C136.7 108.37 136.79 108.23 136.79 108.14C136.79 108.16 136.77 108 136.74 107.83L136.6 106.92C136.6 106.73 136.79 105.94 136.88 105.72V105.13H137.44H137.46ZM144.03 90.9399V92.2999L143.98 92.7699L144.17 93.1899L144.12 97.7399L143.96 98.2599L144.05 98.6799L143.98 99.1499L144.12 99.6899L144.05 100.44V101.33L144.1 101.45L144.19 102.22L144.07 102.38L144.42 102.68V103.38C144.42 103.57 144.35 103.78 144.35 103.78H143.83L143.6 103.52L143.58 103.4H143.3C143.18 103.38 143.11 103.1 143.11 103.1L143.18 102.65V102.23C143.18 102.23 143.16 102.18 143.16 102.14C143.11 101.91 143.02 101.34 143.02 100.97C143.02 100.88 143.07 100.67 143.07 100.67C143.07 100.62 143.12 100.53 143.12 100.48L143.05 100.22H142.96L142.91 99.7299L143.05 99.3999C142.82 99.2799 142.6 99.0699 142.6 98.9099L142.9 98.2799C142.9 98.2799 142.88 98.2099 142.88 98.1899C142.83 98.0499 142.79 97.8099 142.79 97.6999C142.79 97.6799 142.77 97.6499 142.77 97.6099C142.77 97.5399 142.82 97.4499 142.82 97.4499L142.77 96.9999L141.85 96.9499L141.52 96.7899L140.84 96.9799L139.08 96.9599L138.89 96.5599C138.89 96.5599 138.75 96.4199 138.77 96.1799C138.79 95.9199 139.17 95.8499 139.17 95.8499L139.52 95.7299L140.55 95.6399H141C141.09 95.6399 141.19 95.7599 141.19 95.7599L141.4 95.9699L141.66 95.7399L142.86 95.7599L143.12 94.7499V93.9499L143.28 93.6399C143.28 93.6399 142.95 92.9799 142.95 92.8899C142.95 92.8899 142.95 92.8699 142.97 92.8199L142.81 91.9799L143.14 91.7199L143.05 91.1299L143.52 90.9399H144.04H144.03Z" fill="black" stroke="black" stroke-miterlimit="10"/>
<path d="M150.18 94.7899L150.37 94.9799L150.65 95.5399C150.65 95.6299 150.58 96.1699 150.49 96.2399C150.42 96.2899 150.3 96.3299 150.28 96.4299L150.07 97.6999L150.05 98.7599C150.12 98.8499 150.24 98.9699 150.33 99.0699C150.4 99.0899 150.82 99.2299 151.17 99.4199C151.4 99.5399 151.62 99.6999 151.69 99.8699L152.02 100.22L152.79 100.38V100.71C152.88 100.8 153 100.87 153.12 100.92L153.19 100.97L153.54 101.13L153.92 102.09C154.11 102.18 154.55 102.42 154.6 102.7C154.62 102.86 154.81 103.33 154.81 103.33L154.88 103.38C154.88 103.38 154.9 103.38 154.93 103.4V103.94L155.07 104.01C155.14 104.06 155.23 104.08 155.28 104.13C155.47 104.15 155.98 104.55 155.98 105.42V105.8H154.97C154.85 105.78 154.69 105.59 154.69 105.59V105.31H154.39L154.11 104.89L153.59 104.73L153.54 103.89L153.3 103.8L153.07 102.91C153.16 102.98 152.74 102.51 152.55 102.28C152.43 102.21 152.08 102 151.85 102L151.59 101.65L151.4 101.3C151.26 101.23 151.02 101.07 150.91 100.99L150.3 100.92L150.07 100.71L149.98 101.18C149.98 101.32 150 101.46 150 101.6C150 101.76 150.05 102.16 150.05 102.16C150.05 102.28 149.91 102.51 149.82 102.63C149.82 102.65 149.84 102.72 149.87 102.75C149.89 102.82 149.92 102.91 149.92 102.98C149.92 103.1 149.85 103.54 149.85 103.54L149.45 104.64C149.45 104.71 149.45 104.9 149.43 104.94C149.43 105.01 149.41 105.13 149.41 105.17L148.96 105.43L148.82 105.62L148.68 105.78H148.33L147.81 105.01L148.04 104.73L148.27 103.32L148.48 102.99C148.48 102.78 148.53 102.22 148.64 101.96C148.69 101.84 148.71 101.77 148.78 101.77C148.78 101.68 148.73 101.58 148.73 101.49L148.8 100.11L148.78 99.4099V97.1799L149.23 96.1199V95.2999L149.7 95.1099L149.86 94.8099H150.19L150.18 94.7899ZM159.53 93.3599L159.74 93.3099C159.74 93.3099 159.76 93.1899 159.76 93.1499H160.23L160.46 93.3799H160.53C160.53 93.3799 160.62 93.3599 160.72 93.3599L160.77 93.7599L160.68 94.2999L160.52 94.6999V95.2399L160.75 96.0099V96.4799L160.68 96.8599L161.29 97.0499L161.17 97.8499L160.89 98.4399H161.13L161.27 99.0499L161.22 99.4499L161.29 100.27L161.45 100.93L161.12 101.16C161.33 101.23 161.4 101.65 161.45 101.89C161.45 101.96 161.47 101.98 161.47 102.03C161.47 102.03 161.42 102.66 161.42 102.78C161.42 102.85 161.42 103.62 161.44 103.69C161.44 103.74 161.46 103.78 161.46 103.81C161.46 103.88 161.44 103.93 161.44 103.93V105.13L161.39 105.27C161.39 105.27 161.37 106.16 161.34 106.18H160.42C160.42 106.18 160.35 105.48 160.35 105.27C160.35 105.22 160.35 105.15 160.37 105.11V104.69C160.28 104.62 160.09 104.53 160.04 104.41L160.18 104.06V101.64L160.04 101.43L159.92 100.8L160.18 100.24V99.9099L159.99 99.8199C159.92 99.7999 159.85 99.6599 159.83 99.5599C159.78 99.4199 159.76 99.2999 159.76 99.2799C159.76 99.1899 159.92 98.9999 159.92 98.9999L159.85 98.8599C159.59 98.8799 159.29 98.9099 159.26 98.9099H158.91C158.72 99.0499 158.49 99.1899 158.32 99.3299C158.32 99.3299 158.06 99.2099 157.92 99.2399C157.85 99.2399 156.96 99.3099 156.77 99.3999C156.56 99.4899 156.37 99.5899 156.28 99.5899C156.19 99.5899 155.25 99.7299 155.25 99.7299L154.5 99.4299C154.05 99.3099 153.8 99.1699 153.75 99.0499C153.68 98.9099 153.94 98.7699 154.5 98.6299L155.04 98.6499L155.25 98.3699L156.68 98.3499L157.8 98.1599V97.9699L158.74 97.8799L159.54 97.6199H159.75V97.5299L159.91 97.4599C159.91 97.4599 159.79 97.3699 159.77 97.3199V96.7999H159.49C159.49 96.7999 159.35 96.4499 159.32 96.4199C159.32 96.4199 159.41 94.8999 159.41 94.8499H159.32V93.8699L159.49 93.3999L159.53 93.3599Z" fill="black" stroke="black" stroke-miterlimit="10"/>
<path d="M169.29 94.9799L169.69 95.3299L170.77 95.1199L171.17 95.4299C171.71 95.1499 172.04 95.2199 172.27 95.5199C172.5 95.7099 173.14 95.5199 173.14 95.5199L173.33 95.9699L173.45 96.5999L173.15 97.0199L173.45 97.3499L173.33 97.8899L173 97.9599L172.79 98.3099L172.6 98.9899L172.2 99.0799L171.61 99.8099L171.07 100.42H170.6L170.51 101.08V101.46L169.69 102.07L169.29 102.45L168.94 103.04L168.4 103.56C168.4 103.56 168.35 103.58 167.86 103.75C167.6 103.96 167.13 104.03 167.13 104.03C167.08 104.12 166.78 104.73 166.47 104.76C166.42 104.76 166.02 104.92 165.77 105.07V105.16C165.77 105.16 165.79 105.23 165.79 105.28C165.79 105.47 165.7 105.73 165.7 105.73C165.7 105.73 165.68 105.73 164.93 106.04C164.81 106.06 164.63 106.11 164.51 106.09C164.44 106.09 164.39 106.04 164.39 106C164.41 105.93 164.41 105.86 164.39 105.81L164.77 105.29V104.89L165.29 104.73C165.36 104.61 165.48 104.5 165.55 104.4C165.55 104.4 165.62 104.28 165.67 103.95C165.97 103.62 166.26 103.57 166.26 103.57C166.42 103.48 166.64 103.36 166.78 103.24C166.78 103.24 167.11 102.47 167.16 102.44C167.21 102.23 168.15 101.92 168.15 101.92L168.31 101.52H168.66C168.66 101.52 168.78 101.29 168.8 101.17C168.8 101.17 168.85 101.1 168.89 101.05C168.98 100.98 169.1 100.91 169.1 100.82C169.1 100.49 169.24 100.47 169.24 100.47L169.66 100.05L169.78 99.7199L170.08 99.0599L170.57 99.0799C170.57 99.0799 170.48 98.7299 171.13 98.3099C171.29 98.1699 171.53 98.2199 171.58 98.2199L172.05 97.1399H171.28L170.62 96.9499L170.31 96.8599L168.32 96.6299H167.76L167.9 96.3999H167.2L166.85 96.6299L166.33 96.4199L166.03 95.9699C166.03 95.7799 166.12 95.4499 166.26 95.3599C166.33 95.1999 166.8 94.9799 166.8 94.9799L167.18 94.7499L167.44 95.3599H167.58C167.58 95.3599 168.24 94.8899 168.33 94.8899L169.32 95.0099L169.29 94.9799ZM175.74 92.5399C175.74 92.5399 175.88 92.6299 176 92.6799C176.21 92.7699 176.49 92.9099 176.52 93.0799C176.54 93.2699 176.54 93.5999 176.54 93.5999L176.47 94.2099C176.49 94.2799 176.7 95.0099 176.7 95.1899C176.68 95.3499 176.7 95.5399 176.7 95.5399C176.7 95.5399 176.58 96.1499 176.61 96.4299C176.61 96.5699 176.54 96.6399 176.47 96.7099C176.42 96.7599 176.38 96.7799 176.38 96.8499C176.33 96.9199 176.52 97.5099 176.52 97.5099L176.47 97.9099C176.47 97.9099 176.38 98.3099 176.28 98.5899V99.3399L176.35 99.7599L176.26 100.18C176.26 100.18 176.35 100.16 176.4 100.16L177.71 100.37L178.67 100.3C178.67 100.3 178.86 100.28 179.59 100.23C180.06 100.21 180.2 100.23 180.32 100.25C180.44 100.27 180.51 100.27 180.91 100.2C181.66 100.13 181.59 100.43 181.59 100.43L182.08 100.48L182.55 100.71C182.71 100.78 182.78 100.85 182.78 100.92C182.8 101.08 182.59 101.23 182.59 101.23C182.57 101.25 182.26 101.77 182.07 101.75C181.95 101.75 181.77 101.75 181.69 101.7C181.41 101.7 180.68 101.63 180.56 101.58C180.49 101.53 179.9 101.65 179.9 101.65L179.17 101.51C179.17 101.51 178.98 101.53 178.87 101.63C178.8 101.63 178.45 101.75 178.45 101.75L178.03 101.8L177.11 101.59C176.81 101.59 176.19 101.57 175.89 101.57C175.87 101.66 175.7 102.48 175.73 102.7C175.68 102.75 175.8 103.43 175.87 103.69C175.89 103.74 175.89 103.78 175.89 103.78L175.96 104.65C176.01 104.86 176.17 105.45 176.17 105.45C176.17 105.45 175.98 105.71 175.77 105.68C175.75 105.84 175.84 106.38 175.89 106.74C175.89 106.81 175.91 106.88 175.91 106.9C175.91 107.06 175.77 108.68 175.77 108.68V110.18C175.77 110.18 175.84 111.31 175.89 111.49C175.89 111.51 175.44 112.17 175.3 112.19C175.18 112.21 174.95 112.19 174.83 112.03C174.78 111.96 174.76 111.77 174.78 111.63V111.4C174.76 111.17 175.06 110.58 175.06 110.58H174.87C174.87 110.58 174.78 109.36 174.75 109.17C174.77 109.1 174.82 108.47 174.82 108.47L174.73 105.98L174.97 105.72C174.97 105.72 174.95 105.32 174.92 105.18C174.9 105.11 174.9 105.04 174.9 104.99C174.88 104.71 174.95 104.45 174.95 104.45C175.09 104.36 175.12 104.12 174.93 103.91L174.88 103.16L174.86 102.69C174.86 102.69 174.65 102.03 175.14 100.86C175.16 100.81 175.28 100.44 175.28 100.27C175.33 100.08 175.33 100.06 175.3 100.04L175.25 99.8799C175.25 99.7399 175.23 99.4299 175.23 99.4299L175.25 98.8199C175.25 98.8199 175.27 98.2099 175.39 97.9299C175.37 97.7199 175.3 97.4099 175.25 97.2999C175.23 97.2299 175.2 97.1399 175.2 97.1099C175.18 96.8799 175.15 96.5199 175.15 96.5199C175.15 96.5199 175.27 96.4299 175.38 96.3599C175.47 96.2699 175.36 96.0299 175.36 96.0299C175.36 96.0299 175.24 95.6499 175.41 95.5099C175.46 95.4199 175.55 95.2799 175.55 95.2799L175.41 95.0199L175.46 94.4599L175.48 94.0399L175.41 93.8099L175.5 93.1499C175.5 93.1499 175.48 92.5399 175.71 92.5399H175.74Z" fill="black" stroke="black" stroke-miterlimit="10"/>
<path d="M192.96 96.0099H193.73C193.85 95.9899 194.15 95.9899 194.46 95.9899C195.19 95.9899 196.22 96.0099 196.48 96.0799L198.33 96.3399H198.68C198.68 96.3399 198.77 96.3199 198.82 96.3199L199.64 96.3899C200.51 96.3699 201.09 96.4599 201.23 96.6199V97.0399C201.23 97.0399 201.25 97.1599 201.25 97.1999L201.11 97.3899C200.92 97.5299 200.71 97.7199 200.64 97.8099C200.41 97.8999 199.98 98.2099 199.42 98.9399C199.33 99.0799 199.28 99.0999 199.19 99.0999C199.1 99.0999 198.91 99.1499 198.7 99.2899C198.4 99.6199 198.3 99.6399 198.14 99.6399H197.97C197.9 99.6399 197.83 99.5899 197.76 99.6599L197.29 100.01L197.15 100.08L198.16 100.6L198.46 100.76C198.46 100.76 198.6 100.83 198.67 100.85C198.72 100.87 198.83 100.9 198.88 100.9L199.35 101.16L199.49 101.25L199.98 101.39L200.92 102L201.27 102.21C201.6 102.47 201.86 102.7 202.07 102.96C202.12 102.98 202.05 103.24 202 103.43C201.98 103.48 201.95 103.55 201.95 103.57C201.95 103.57 201.34 103.73 201.01 103.85C200.75 103.55 200.17 103.15 199.44 102.79L199.09 102.37L198.32 102.07L197.59 101.58L196.7 101.06C196.58 100.99 196.3 100.76 196.25 100.73L196.09 100.66L195.9 100.82L195.1 101.01L193.97 101.67C193.62 101.81 193.15 102 192.8 102.16C192.21 102.39 192.03 102.16 192.03 101.85C192.03 101.54 192.22 101.15 192.45 101.05L193.11 100.65L194.24 100.18H194.22L195.3 99.4499L195.56 99.2899C195.72 99.1699 195.94 99.0599 196.12 98.9899C196.31 98.8499 197.04 98.5899 197.39 98.4999L197.44 98.4499C197.67 98.3099 198.1 97.8899 198.12 97.8599L198.99 97.4099H198.76L198.46 97.3599C198.37 97.3599 198.3 97.3799 198.23 97.3799H197.99C197.85 97.3999 197.66 97.3999 197.52 97.3999L195.18 97.1199C194.8 97.1199 194.22 97.1699 193.84 97.1699C193.77 97.1699 193.72 97.1899 193.68 97.1899H193.3L193.02 97.0699L192.86 97.0199L192.39 96.9499C192.32 96.9499 192.18 96.9699 192.13 96.9699H191.89C191.77 96.9899 191.49 96.9899 191.42 96.9899L191.09 96.9199L190.79 96.8499L190.77 96.6899C190.77 96.6899 190.82 96.4999 190.89 96.3399C190.89 96.3399 190.91 96.2899 190.94 96.2199L191.34 96.0799L191.41 96.0299C191.5 95.9599 191.6 95.9099 191.69 95.9099H192.32L192.98 95.9599L192.96 96.0099ZM193.67 105.51L194.05 105.25C194.19 105.3 194.78 105.41 194.8 105.41L194.99 105.39L195.27 105.16C195.27 105.16 195.43 105.14 195.62 105.14C195.95 105.14 196.11 105.3 196.16 105.4C196.28 105.35 196.49 105.24 196.58 105.21C196.58 105.21 196.84 105.14 197.07 105.14C197.26 105.14 197.33 105.21 197.4 105.26C197.42 105.28 197.45 105.31 197.49 105.31C197.53 105.31 197.58 105.31 197.63 105.29C197.7 105.27 197.79 105.24 197.91 105.24L198.31 105.26C198.31 105.26 198.87 105.4 198.99 105.4C199.15 105.4 199.29 105.35 199.41 105.33C199.48 105.31 199.6 105.28 199.74 105.28C199.81 105.28 199.9 105.3 199.95 105.35C200.07 105.47 200.33 105.7 200.33 106.01C200.33 106.2 200.21 106.43 200.12 106.39C200.1 106.37 200.05 106.34 200 106.34C199.84 106.34 199.77 106.29 199.7 106.27C199.65 106.25 199.61 106.25 199.56 106.25C199.47 106.25 199.42 106.34 199.4 106.41C199.33 106.53 199.31 106.62 199.24 106.62C199.17 106.62 198.98 106.6 198.82 106.57C198.68 106.55 198.59 106.55 198.54 106.55C198.47 106.55 198.19 106.57 198 106.57H197.81L197.22 106.45L197.45 107.25L197.5 108.14L197.69 108.26C197.69 108.33 197.74 108.45 197.74 108.42C197.74 108.54 197.72 108.63 197.72 108.72V109.03C197.72 109.19 197.74 109.33 197.74 109.33C197.74 109.33 197.48 109.61 197.41 109.66L197.5 109.73C197.59 109.78 197.73 109.8 197.73 109.99C197.73 110.06 197.73 110.08 197.71 110.11C197.69 110.14 197.69 110.25 197.69 110.37C197.67 110.58 197.64 110.86 197.64 110.86C197.52 110.93 197.52 110.98 197.52 111.02C197.5 111.25 197.38 111.37 197.26 111.79C197.19 112.05 197.14 112.28 197 112.28C196.79 112.28 196.48 112.05 196.39 111.9V111.38L196.18 110.63L196.56 109.97V109.74L196.42 109.46L196.37 109.06C196.37 109.06 196.42 109.01 196.42 108.97C196.35 108.85 196.23 108.52 196.23 108.31C196.23 108.22 196.25 108.03 196.25 107.91V107.77C196.25 107.51 196.2 107.21 196.09 107.14C196.04 107.12 196 107.05 195.88 106.86L195.76 106.51L195.27 106.44L195.13 106.28L194.99 106.54L194.47 106.49C194.31 106.56 194.02 106.63 193.86 106.51H193.2C193.01 106.51 192.5 106.53 192.19 106.53C192 106.53 191.91 106.51 191.91 106.27C191.91 106.03 192.07 105.73 192.54 105.71L193.38 105.5H193.66L193.67 105.51ZM193.5 93.9699L192.89 93.7099C192.66 93.5699 192.68 93.2199 192.84 92.7999C192.91 92.7299 193.14 92.5899 193.26 92.5199L195.23 92.6099H195.35L196.12 92.6999L196.96 92.7899L197.24 92.8599H197.33C197.33 92.8599 197.4 92.8799 197.45 92.8799L197.66 92.9499L198.08 93.0399C198.31 93.0399 198.62 93.0899 198.9 93.1599C199.23 93.2499 199.37 93.4399 199.39 93.6299C199.41 93.8399 199.25 94.1199 198.99 94.1499C198.94 94.1499 198.8 94.1499 198.73 94.1699H198.61C198.61 94.1699 198.28 94.1899 198.23 94.1899L197.27 93.9999C196.87 93.9999 196.47 93.9299 196.38 93.8599H196.1C195.98 93.8599 195.87 93.8799 195.75 93.8799C195.59 93.8999 195.23 93.8999 195.12 93.8999C195.07 93.8799 194.81 93.7799 194.81 93.7799L194.51 93.8499C194.51 93.8499 194.44 93.8699 194.42 93.8699L194.16 93.9399H193.48L193.5 93.9699Z" fill="black" stroke="black" stroke-miterlimit="10"/>
<path d="M207.16 102.29C207.04 102.17 207.04 101.91 207.23 101.49C207.63 101.23 208.4 100.36 208.4 100.36L208.61 99.9799L208.96 100.03C208.96 100.03 209.1 99.8199 209.15 99.6999C209.15 99.6999 209.2 99.6299 209.24 99.5799C209.36 99.5299 209.47 99.4599 209.5 99.3699C209.52 99.0399 209.66 99.0399 209.66 99.0399L210.13 98.6599L210.29 98.3599L210.88 98.0299C210.88 98.0299 210.88 97.8899 211.02 97.6999L209.68 97.3899H209.02L208.72 97.2999H206.51L206.09 97.2799H205.39L204.64 97.2299L204.22 96.8499C204.22 96.6599 204.31 96.3299 204.45 96.2399C204.85 96.1499 205.22 96.1499 205.62 96.2399H205.76C205.76 96.2399 206.42 95.8899 206.51 95.8899H207.24L207.64 96.1999L209.19 96.0399L209.59 96.3399C209.9 96.1799 210.48 96.1299 211 96.1799C211.4 96.1999 211.77 96.2999 211.87 96.4399L212.64 96.5999L213.48 96.5799L213.71 96.8899L213.52 97.4099L213.19 97.4599L212.93 97.7899L212.91 98.2099L212.51 98.2599L211.81 98.9599C211.9 99.0499 212 99.1499 212 99.2199C212.05 99.2699 212.12 100.09 212.12 100.09C212.24 100.28 212.38 100.44 212.5 100.58C212.5 100.58 212.76 100.72 212.99 101.1C212.99 101.31 213.15 101.55 213.15 101.55C213.15 101.67 213.24 101.83 213.27 101.93L213.67 102.33L214.26 102.82L214.75 103.2L214.77 103.43C214.77 103.43 214.75 103.5 214.68 103.52C214.56 103.61 214.26 103.71 214.12 103.71C213.32 103.55 212.41 102.82 212.41 102.82C212.41 102.82 212.29 102.47 212.29 102.16C212.13 101.95 212.01 101.74 211.96 101.69C211.7 101.46 211.58 100.87 211.54 100.78C211.54 100.78 211.12 100.55 210.91 100.31L210.82 100.24L209.95 100.73L209.53 101.06L209.11 101.6L208.59 102.07C208.59 102.07 207.96 102.19 207.72 102.35C207.44 102.42 207.25 102.4 207.16 102.3V102.29ZM207.25 93.7799C207.11 93.6399 207.02 93.4999 207.04 93.3299C207.06 93.1899 207.16 93.0499 207.37 92.8799L207.72 92.8299H207.86C208.21 92.8499 208.61 93.0899 208.61 93.0899C208.66 93.0699 208.89 92.9699 209.13 92.9299C209.29 92.8799 209.48 92.8799 209.6 92.9299C209.72 92.9799 209.93 92.9999 210.12 92.9999C210.26 92.9999 210.4 92.9799 210.45 92.9299C210.57 92.8099 210.8 92.6499 210.8 92.6499C210.8 92.6499 210.82 92.6499 211.57 92.8599C211.71 92.9299 211.95 93.1699 212.02 93.2799C212.07 93.3299 212.07 93.3699 212.07 93.4199C212.02 93.6099 211.95 93.7699 211.93 93.8199L211.37 93.9599L211.11 94.2899L210.57 94.0999C210.45 94.1199 210.31 94.1499 210.19 94.1899C210.19 94.1899 209.89 94.1899 209.74 94.3099C209.29 94.3299 209.04 94.2199 209.04 94.2199C208.85 94.2199 208.62 94.1699 208.43 94.1999C208.43 94.1999 207.68 94.1099 207.63 94.1099L207.25 93.7799ZM211.75 105.13L211.82 105.22L211.77 105.38C211.84 105.36 212.19 105.31 212.29 105.31C212.31 105.31 212.36 105.45 212.36 105.57C212.36 105.78 212.34 106.02 212.34 106.02C212.36 106.25 212.43 107.54 212.43 107.64C212.43 107.62 212.38 107.78 212.36 107.9C212.31 108.02 212.29 108.16 212.29 108.21C212.29 108.4 212.29 108.49 212.31 108.56C212.31 108.61 212.33 108.65 212.33 108.7C212.33 108.93 212.26 109.57 212.21 109.8C212.12 110.01 212.09 110.53 212.09 110.93C212.09 111.16 212.09 111.35 212.07 111.45L212.52 111.52L212.92 111.45L213.53 111.4C213.53 111.4 213.67 111.42 213.81 111.42C213.9 111.42 214.14 111.37 214.35 111.33C214.56 111.28 214.77 111.24 214.89 111.24L215.78 111.33L216.11 111.42C216.34 111.51 216.56 111.58 216.53 111.63L216.34 111.86V112.31C216.25 112.33 216.18 112.33 216.06 112.33H215.57C215.38 112.33 215.17 112.31 215.03 112.31C214.84 112.31 214.56 112.38 214.3 112.45L213.83 112.61C213.6 112.73 213.38 112.82 213.24 112.82L212.32 112.8C212.2 112.8 212.06 112.82 211.94 112.82C211.82 112.84 211.64 112.84 211.49 112.84C211.18 112.84 210.88 112.51 210.83 112.42H210.55V112.12C210.55 111.86 210.5 111.49 210.46 111.14C210.41 110.83 210.39 110.55 210.39 110.41C210.39 110.25 210.44 110.06 210.44 110.06H210.89L211.08 109.57C211.08 109.57 211.06 109.36 211.01 109.19C210.96 108.91 210.89 108.49 210.89 108.53L210.94 108.44C210.99 108.37 211.08 108.23 211.08 108.14C211.08 108.16 211.06 108 211.03 107.83L210.89 106.92C210.89 106.73 211.08 105.94 211.17 105.72V105.13H211.73H211.75ZM218.72 99.0099C218.74 98.7299 218.81 98.1699 218.86 97.9799C218.84 97.7699 218.77 97.5599 218.74 97.3499C218.74 97.2799 218.81 97.1399 218.86 96.9999C218.91 96.9099 218.95 96.7399 218.95 96.6499C218.93 96.5099 218.88 96.1299 218.88 95.6899C218.88 95.6199 218.93 95.5699 218.95 95.5499C219.04 95.4799 219.16 95.3899 219.16 95.0599C219.16 94.9199 219.14 94.7599 219.11 94.6099C219.06 94.3999 219.04 94.0899 219.06 93.9299C219.11 93.6999 219.29 93.5099 219.72 93.5099C219.72 93.5099 219.77 93.5099 219.81 93.5299C220 93.5799 220.4 93.6899 220.42 93.9099L220.56 94.9199C220.33 95.1499 220.33 95.4099 220.42 95.6499C220.47 95.7699 220.51 95.8599 220.51 95.9799C220.51 96.0699 220.42 96.1199 220.35 96.1399C220.28 96.1899 220.16 96.2099 220.16 96.3499C220.16 96.3999 220.18 96.4899 220.18 96.4899C220.18 96.6099 220.13 96.8699 220.02 96.9399C220.02 96.9599 220.04 97.0299 220.04 97.0599C220.09 97.2899 220.2 97.6699 220.3 97.7399C220.3 98.0699 220.16 98.3999 220.04 98.7499C219.92 99.0799 219.81 99.4299 219.81 99.7099C219.81 99.7599 219.81 99.7799 219.83 99.7999C219.83 99.8199 219.85 99.8699 219.85 99.8899C219.85 100.08 219.76 100.22 219.66 100.34C219.56 100.46 219.47 100.57 219.47 100.72C219.47 100.74 219.52 100.81 219.59 100.88C219.71 101.02 219.85 101.23 219.85 101.44C219.85 101.56 219.8 101.72 219.76 101.86C219.71 102.02 219.67 102.17 219.67 102.31C219.67 102.4 219.72 102.97 219.72 102.97L219.77 103.06L219.72 103.29C219.72 103.29 219.53 103.5 219.53 103.57C219.53 103.64 219.69 103.83 219.79 103.95L219.81 104.07C219.72 104.23 219.51 104.59 219.51 104.66C219.51 104.82 219.49 104.94 219.53 105.08C219.58 105.2 219.55 105.34 219.58 105.5L219.39 105.78C219.32 105.92 219.16 105.99 219.01 106.04L218.75 106.13C218.54 106.13 218.35 105.85 218.28 105.73C218.28 105.73 218.4 105.61 218.4 105.5C218.4 105.34 218.33 105.27 218.26 105.24C218.21 105.22 218.17 105.22 218.12 105.22C218.03 105.22 218 105.06 218.05 104.99C218.1 104.9 218.17 104.71 218.17 104.57C218.17 104.57 218.17 104.55 218.15 104.52C218.13 104.49 218.1 104.45 218.1 104.38C218.1 104.07 218.19 104 218.26 103.96C218.33 103.92 218.4 103.87 218.4 103.68C218.4 103.59 218.35 103.61 218.31 103.59C218.27 103.57 218.12 103.5 218.15 103.52C218.1 103.45 218.01 103.31 218.01 103.1C218.01 102.89 218.1 102.77 218.1 102.77H218.38L218.59 102.68L218.5 102.07C218.5 102.07 218.36 101.98 218.36 101.86L218.64 101.65L218.52 101.3C218.52 101.3 218.52 101.16 218.5 101.09C218.48 101 218.45 100.95 218.48 100.93C218.5 100.77 218.57 100.58 218.6 100.39C218.48 100.39 218.25 100.41 218.13 100.41C218.13 100.41 218.25 100.29 218.25 100.2C218.25 100.15 218.13 100.13 218.06 100.11C218.01 100.11 217.87 100.11 217.83 100.13C217.78 100.13 217.71 100.15 217.69 100.15L217.71 99.9199L217.24 99.9699C217.08 99.9699 216.91 99.8499 216.84 99.7599C216.79 99.6899 216.75 99.6399 216.7 99.6399C216.68 99.6399 216.63 99.6899 216.58 99.7299C216.56 99.7499 216.53 99.7799 216.49 99.7799C216.35 99.7799 216.23 99.7299 216.14 99.6899C216.02 99.6199 215.88 99.5699 215.69 99.5999L215.31 99.6499C215.17 99.6999 214.93 99.6699 214.79 99.5999C214.6 99.5499 214.04 99.4099 214.04 99.2999C214.04 99.2499 214.06 99.2099 214.11 99.1399C214.18 99.0199 214.25 98.8599 214.25 98.7199C214.25 98.6699 214.44 98.5299 214.6 98.4899C214.62 98.4399 214.69 98.2999 214.69 98.2599C214.83 98.2399 215.04 98.2799 215.18 98.3099C215.3 98.3299 215.39 98.3599 215.44 98.3599C215.6 98.3599 215.84 98.2899 215.84 98.2899H216.03L216.17 98.4299C216.17 98.4299 216.29 98.3399 216.31 98.3399C216.38 98.3399 216.43 98.4999 216.43 98.4999L216.99 98.5899L217.53 98.5199L217.72 98.8199L217.88 98.9399C218 98.9399 218.18 98.8899 218.28 98.8899L218.3 99.1199C218.39 99.1199 218.58 99.0699 218.7 99.0699L218.72 99.0099Z" fill="black" stroke="black" stroke-miterlimit="10"/>
<path d="M228.67 98.8699L228.65 98.7099L228.44 98.5699H228.3C228.21 98.5699 227.9 98.6199 227.71 98.6199C227.62 98.6199 227.55 98.6199 227.52 98.5999C227.36 98.5799 227.22 98.5099 227.05 98.5099C226.93 98.5099 226.82 98.5599 226.7 98.6499L226.63 98.6999C226.51 98.7899 226.39 98.8899 226.25 98.8899C225.97 98.8899 225.83 98.7699 225.71 98.5599C225.59 98.5799 224.89 98.7499 224.82 98.7499C224.7 98.7499 224.52 98.6999 224.44 98.5899L224.25 98.4999C223.97 98.3399 223.48 98.0499 223.48 97.9399C223.48 97.8499 223.9 97.8199 223.9 97.8199L224.51 97.5899H225.19L225.82 97.2599V97.3499L226.2 97.5599C226.27 97.4199 226.39 97.2799 226.46 97.1399L226.88 97.4699H227.21C227.23 97.3999 227.37 97.1899 227.4 97.1199H227.87L228.6 97.3799L229.16 97.1199C229.42 97.1199 229.98 97.3299 229.98 97.3299L230.66 97.6399L230.96 97.8499L231.2 97.7799C231.34 97.7299 231.5 97.6599 231.72 97.6599C231.91 97.6599 232.07 97.7099 232.21 97.7499C232.26 97.7699 232.33 97.7999 232.35 97.7999L232.89 97.6599L234.04 97.9399L234.35 97.8499L234.94 98.0599C235.03 98.0599 235.29 98.0599 235.34 98.0099C235.43 98.0099 235.69 98.0999 235.74 98.1499L235.81 98.6199L236.14 99.0199V99.4699H235.44L235.3 99.2599C234.92 99.2399 234.48 99.1699 234.13 99.1399V98.9499H233.5L232.96 98.5299L232.42 98.7399H230.9C230.62 98.7399 230.22 98.6499 229.99 98.5999L229.8 98.5499C229.52 98.5299 229.21 98.7399 228.96 98.8999H228.7L228.67 98.8699ZM228.46 93.1499L228.6 93.3399C228.95 93.3899 229.33 93.4799 229.68 93.5299C229.75 93.5299 229.94 93.4599 230.1 93.4099C230.26 93.3599 230.4 93.3199 230.45 93.3199C230.75 93.3199 230.94 93.5099 230.99 93.6199C231.55 93.7599 232.47 94.0399 232.89 94.2099C233.1 94.1899 233.38 94.1899 233.59 94.1899C233.8 94.1899 233.85 94.2599 233.85 94.3799C233.85 94.6599 233.59 94.7099 233.29 94.7299C233.24 94.7299 233.2 94.7499 233.15 94.7499C232.96 94.7699 232.75 94.7999 232.61 94.8399L232.05 94.4199L231.3 94.7699L230.81 94.5399H230.58L230.32 94.6599L230.16 94.5699C230.16 94.5699 230.07 94.4299 230.02 94.3099C229.97 94.1899 229.88 94.1899 229.72 94.3299C229.53 94.4899 229.23 94.7099 228.83 94.7099C228.74 94.7099 228.6 94.7099 228.5 94.6899C228.43 94.6899 228.29 94.6699 228.24 94.6699C228.22 94.6699 228.15 94.7399 228.05 94.8299C227.93 94.9499 227.79 95.0899 227.65 95.0899C227.65 95.0899 227.56 95.0399 227.49 94.9999C227.44 94.9799 227.42 94.9299 227.37 94.8799C227.3 94.8299 227.16 94.7599 227.07 94.7599C227.02 94.7599 227 94.7599 226.95 94.7799C226.79 94.8499 226.76 94.8299 226.67 94.5899L226.62 94.4699C226.57 94.3799 226.53 94.1899 226.5 94.1899C226.45 94.1899 226.36 94.2399 226.31 94.2799C226.26 94.3199 226.15 94.3699 225.82 94.3699C225.61 94.3699 225.44 94.3499 225.44 94.2499C225.44 94.1799 225.49 94.1299 225.56 93.9699C225.58 93.9199 225.63 93.8999 225.63 93.7799L225.58 93.3599H227.08L227.5 93.7099L227.71 93.3599L228.06 93.4299L228.23 93.1499H228.46ZM229.18 106.8C229.18 106.8 229.2 106.75 229.2 106.73H228.78C228.64 106.73 227.98 106.57 227.82 106.38C227.82 106.38 227.8 106.33 227.77 106.33L227.68 106.28L227.05 105.65C226.91 105.46 226.79 105.13 226.75 104.81L226.42 104.04C226.42 103.97 226.4 103.9 226.37 103.83C226.37 103.81 226.35 103.76 226.35 103.74C226.33 103.67 226.28 103.48 226.28 103.48L226.37 102.85L226.61 102.31L226.37 101.49L226.79 100.72L227.14 100.46L227.49 99.9199L227.65 99.8299V99.6399H229.27L229.62 100.11L230.32 100.18L230.93 100.93L231.19 101.8L231.14 101.82C231.19 101.89 231.37 102.05 231.37 102.05C231.51 102.14 231.93 102.5 231.93 102.73C231.93 102.8 231.91 102.85 231.88 102.89C231.86 102.96 231.83 103.05 231.83 103.12C231.83 103.12 231.88 103.19 231.88 103.24L232 103.4C232.07 103.56 232.07 103.92 231.98 104.32L231.82 105.35C231.82 105.35 231.87 105.47 231.89 105.49C231.91 105.54 231.94 105.61 231.94 105.61V105.75C231.94 105.75 231.8 106.22 231.71 106.38V106.83C231.69 107.21 231.59 107.49 231.26 107.56C231.17 107.7 230.72 107.82 230.46 107.82C229.99 107.87 229.5 107.84 229.03 107.56L228.96 106.97L229.17 106.81L229.18 106.8ZM229.56 106.44C229.94 106.21 230.01 105.71 230.19 105.29C230.26 105.13 230.64 103.86 230.64 103.86L230.66 103.56V103.44C230.66 103.32 230.66 103.14 230.61 103.04C230.54 102.97 230.35 102.62 230.23 102.41L230.37 102.29L230.23 102.1C230.14 101.96 230.04 101.82 230.04 101.7C230.04 101.68 229.76 101.44 229.55 101.35L229.43 101.21L229.22 100.93L228.77 100.84C228.63 100.84 228.49 100.89 228.47 100.98L228.33 101.21C228.21 101.35 228.19 101.4 227.93 101.4C227.81 101.4 227.79 101.45 227.79 101.47C227.79 101.49 227.81 101.56 227.81 101.56L227.76 101.96C227.71 102.05 227.62 102.34 227.62 102.45C227.62 102.66 227.71 102.94 227.71 102.94L227.66 103.69L227.82 104.07C227.84 104.23 227.89 104.56 228.03 104.77C228.1 104.96 228.24 105.15 228.36 105.19C228.48 105.31 228.66 105.38 228.85 105.45C228.87 105.47 228.9 105.47 228.94 105.47L229.57 106.1L229.52 106.43L229.56 106.44ZM238.38 103.84L238.19 104.78L238.07 105.46L237.67 105.81C237.65 106.02 237.67 106.65 237.65 106.96L237.46 107.1L237.2 107.64C237.03 108.02 236.99 108.41 236.92 108.74L236.87 109.02L236.8 109.63L236.75 109.91C236.75 109.91 236.96 110.61 236.91 110.94C236.86 111.2 236.82 111.46 236.75 111.69C236.45 111.9 236.16 112.11 235.93 112.09C235.74 112.07 235.6 111.9 235.6 111.41L235.74 111.13C235.76 110.99 235.58 110.66 235.58 110.66C235.58 110.66 235.86 110.38 235.91 110.21C235.93 110.05 235.79 109.93 235.61 109.88L235.77 108.99C235.96 108.76 236.05 108.45 235.93 108.17C235.86 107.86 236 107.68 236.19 107.51C236.38 107.37 236.57 107.2 236.64 106.92C236.57 106.66 236.26 106.17 236.26 106.17L236.38 105.58L236.57 104.74L236.64 104.39C236.71 104.08 236.76 103.69 236.85 103.38C236.87 103.17 236.57 102.79 236.57 102.79C236.59 102.65 236.73 102.41 236.9 102.18C237.06 101.9 237.28 101.62 237.3 101.45C237.3 101.4 237.3 101.36 237.25 101.29C237.2 101.2 237.13 101.08 237.18 100.84L237.58 98.6599L237.98 98.3999C237.91 98.3099 237.7 97.9999 237.79 97.8099C237.81 97.7599 237.86 97.7199 237.88 97.6499C237.93 97.4399 237.97 96.5699 237.97 96.5699L238.37 96.4299V96.1499L239.14 96.0099C239.33 96.0299 239.47 96.4799 239.4 96.8499C239.4 96.8699 239.38 96.8699 239.35 96.9199L238.97 97.9999C238.97 97.9999 239.16 98.0699 239.46 98.2299C239.58 98.2999 239.69 98.3699 239.67 98.4199C239.67 98.5099 239.48 98.5799 239.34 98.6299C239.25 99.0499 239.08 99.3799 238.92 99.6099C238.76 99.7999 238.64 100.01 238.59 100.27C238.61 100.34 238.87 100.62 238.8 101.28C238.73 101.63 238.64 101.82 238.52 101.94C238.4 102.08 238.31 102.25 238.24 102.36C238.62 102.22 239.23 102.13 239.55 102.1C239.83 102.08 240.21 102.08 240.51 102.08C240.93 102.08 241.71 102.03 241.99 102.01C242.13 101.99 242.18 102.17 242.2 102.34V102.46C242.22 102.58 242.22 102.69 242.25 102.69L242.37 102.62C242.46 102.57 242.6 102.48 242.79 102.46C243.12 102.44 243.21 102.79 243.21 102.79C243.33 103 243.49 103.28 243.59 103.49L243.36 103.79L240.94 103.67C240.94 103.67 240.85 103.65 240.8 103.67C240.57 103.67 240.45 103.65 240.52 103.53C240.52 103.53 240.54 103.51 240.54 103.46C240.52 103.37 240.38 103.37 239.93 103.41L239.7 103.43L239.54 103.45L239.12 103.76C239.12 103.76 238.98 103.43 238.93 103.43C238.91 103.43 238.84 103.48 238.77 103.57L238.42 103.8H238.37L238.38 103.84Z" fill="black" stroke="black" stroke-miterlimit="10"/>
<path d="M252.03 103.54L252.24 103.56C252.24 103.56 252.41 103.47 252.45 103.42L252.64 103.47H252.73C252.96 103.47 253.36 103.45 253.36 103.66C253.36 103.71 253.34 103.75 253.27 103.82C253.27 103.82 254.68 103.73 254.68 103.68C254.68 103.66 254.66 103.63 254.66 103.61C254.66 103.4 255.11 103.35 255.43 103.35C255.75 103.35 256.06 103.61 256.16 104.36L255.01 104.81H253.09L252.88 104.6L252.72 104.46L252.53 104.55H252.13L252.06 104.71H251.73L251.66 104.55L251.59 104.64H250.96L251.01 104.52L249.6 104.33C249.6 104.33 249.6 104.31 249.62 104.24C249.6 104.17 249.48 104.12 249.36 104.15L249.27 104.29C249.27 104.29 249.22 104.38 249.2 104.38L248.82 104.29L248.7 104.38L248.37 104.31L248.18 104.38C248.18 104.38 247.76 104.45 247.71 104.45C247.66 104.45 247.26 104.36 247.26 104.36L247.19 104.2L247.12 104.27C247.07 104.36 247.03 104.46 246.84 104.46C246.65 104.46 246.37 104.44 246.37 104.44C246.16 104.42 246.02 104.3 245.92 104.21L245.85 104.14L245.62 103.98C245.5 103.91 245.32 103.72 245.27 103.6C245.25 103.55 245.46 103.06 245.46 103.06L245.55 102.97L245.9 103.16C246.02 103.11 246.28 103 246.37 102.97L246.98 103.04H249.11L249.53 103.2V103.32C249.72 103.32 249.98 103.27 250.16 103.27L251.64 103.41V103.55L252.02 103.64V103.55L252.03 103.54ZM246.45 106.14L246.99 106.07L247.41 106.54V106.75C247.5 106.8 247.67 106.96 247.69 107.03L247.76 107.36L247.69 107.45L247.62 107.59C247.62 107.68 247.67 107.87 247.67 107.97C247.67 108.11 247.74 108.23 247.74 108.23C247.74 108.23 247.62 108.82 247.62 108.96C247.62 109.19 247.83 109.59 247.97 109.83C248.04 109.95 248.06 110.06 248.06 110.18L247.82 110.39C247.89 110.39 247.99 110.41 248.06 110.41V111.02L248.01 111.3L248.08 111.77L248.03 112.15L247.84 112.24H247.89C248.22 112.24 248.55 112.31 248.8 112.36C248.85 112.36 248.89 112.38 248.94 112.38C248.94 112.38 248.96 112.38 249.03 112.36L249.31 112.29L249.66 112.38L249.38 112.64L249.71 112.78L250.69 112.31C250.69 112.31 251.42 112.31 251.46 112.29C251.58 112.24 251.62 112.15 251.69 112.15L251.78 112.08L251.87 112.1C251.96 112.1 252.08 112.05 252.17 112.05L252.31 111.91C252.36 111.82 252.5 111.79 252.61 111.79C252.7 111.79 252.75 111.77 252.75 111.65C252.75 111.58 252.87 111.58 253.01 111.58C253.08 111.58 253.17 111.56 253.17 111.42C253.17 111.37 253.17 111.3 253.24 111.3C253.52 111.3 253.76 111.58 253.76 111.79V111.88C253.76 112.02 253.69 112.097 253.55 112.11C253.48 112.11 253.46 112.18 253.43 112.23C253.38 112.3 253.34 112.35 253.24 112.35H253.03C253.03 112.35 252.94 112.37 252.94 112.4V112.71C252.94 112.78 252.87 112.8 252.8 112.78C252.78 112.78 252.75 112.73 252.73 112.73C252.64 112.73 252.66 112.87 252.64 112.92C252.59 113.01 251.68 113.41 251.51 113.41C251.44 113.41 251.35 113.39 251.35 113.39C251.12 113.41 250.81 113.58 250.79 113.67C250.79 113.67 250.63 113.58 250.56 113.58C250.54 113.58 250.54 113.63 250.54 113.65C250.54 113.67 250.52 113.7 250.52 113.77C250.47 113.84 250.45 113.89 250.38 113.89C249.89 113.89 249.42 113.87 249 113.87H248.04C247.85 113.87 247.8 113.73 247.78 113.57C247.78 113.55 247.76 113.52 247.76 113.5C247.76 113.45 247.74 113.41 247.74 113.41L247.69 113.48H247.46C247.46 113.48 247.48 113.39 247.51 113.34L247.65 113.06C247.65 113.06 247.6 113.01 247.56 113.01C247.52 113.01 247.44 113.03 247.44 113.03H246.95C246.95 113.03 246.88 113.05 246.79 113.05C246.72 113.05 246.67 113 246.67 112.79C246.67 112.7 246.74 112.6 246.76 112.53V112.51C246.76 112.42 246.74 112.32 246.71 112.23C246.66 112.14 246.62 111.97 246.62 111.78L246.71 111.24L246.9 110.98L246.6 110.84L246.58 109.46C246.58 109.46 246.6 109.41 246.6 109.37C246.55 109.28 246.46 109.14 246.46 109.14H246.27C246.27 109.14 246.29 109.05 246.29 108.95C246.29 108.9 246.29 108.83 246.27 108.79C246.25 108.72 246.22 108.63 246.22 108.48C246.22 108.41 246.22 108.27 246.24 108.2C246.24 108.13 246.26 108.06 246.26 108.01C246.26 107.85 246.21 107.68 246.14 107.54C246.14 107.45 246.26 107.4 246.31 107.4L246.38 107.14C246.38 107.14 246.26 107.07 246.26 107.05V106.6L246.38 106.37L246.43 106.16L246.45 106.14ZM247.29 92.11H247.45C247.45 92.11 247.66 92.13 247.87 92.34C247.96 92.41 248.2 92.6 248.2 93L248.15 93.21C248.27 93.23 248.24 93.51 248.1 93.73C248.1 93.78 248.12 93.8 248.15 93.8C248.17 93.82 248.22 93.87 248.22 94.03C248.22 94.08 248.2 94.12 248.15 94.15C248.13 94.17 248.08 94.2 248.08 94.2C248.08 94.36 248.06 94.39 248.03 94.43C248 94.47 247.98 94.5 247.98 94.62C247.98 94.64 248 94.69 248.03 94.74C248.06 94.79 248.08 94.83 248.08 94.9C248.08 94.95 248.03 94.97 248.01 95.02C247.99 95.07 247.96 95.11 247.96 95.14C247.96 95.19 248.01 95.21 248.05 95.26C248.12 95.33 248.21 95.42 248.21 95.59C248.21 95.71 248.21 95.92 248.19 96.06C248.19 96.11 248.17 96.2 248.17 96.22C248.17 96.34 248.03 96.38 248.03 96.38H247.82C247.82 96.5 247.84 96.66 247.84 96.78C247.84 96.85 247.77 97.04 247.7 97.18C247.65 97.3 247.63 97.41 247.63 97.46C247.63 97.65 247.63 97.69 247.65 97.72C247.72 97.86 247.79 97.98 247.79 98.24C247.79 98.31 247.7 98.62 247.7 98.62H247.79C247.91 98.62 247.84 99.14 247.77 99.44C247.75 99.53 247.72 99.67 247.72 99.65V100.12C247.81 100.1 247.93 100.03 248.03 100V99.88L248.76 99.67C248.88 99.67 249.09 99.39 249.09 99.39L249.42 99.27L249.63 99.11C249.79 98.99 249.96 98.83 250.12 98.71C250.12 98.71 250.8 98.78 250.89 98.78L251.03 98.73L251.24 98.52C251.24 98.52 251.5 98.38 251.78 98.31C251.87 98.29 252.08 98.19 252.08 98.19L252.24 98C252.24 98 252.43 97.84 252.55 97.84C252.64 97.84 253 98.05 253 98.05L253.19 98.36C253.19 98.36 253.24 98.66 253.24 98.92C253.24 99.25 253.12 99.3 253.05 99.27C253 99.25 252.96 99.22 252.86 99.22C252.81 99.24 252.81 99.29 252.81 99.29C252.81 99.29 252.67 99.48 252.55 99.55C252.48 99.6 252.32 99.62 252.1 99.64C251.82 99.66 251.51 99.71 251.49 99.83V100.11L250.65 100.18L250.02 100.32L249.53 100.48V100.81H248.97C248.9 100.93 248.71 101.35 248.67 101.44L247.38 101.6L246.54 100.73L246.56 100.4V100.26L246.75 99.93C246.75 99.93 246.75 99.86 246.73 99.84C246.59 99.84 246.43 99.89 246.43 99.89L246.71 99L246.59 98.74L246.68 97.9C246.68 97.76 246.63 97.5 246.61 97.45L246.75 97.26L246.47 97L246.42 96.39L246.56 96.18V95.97L246.75 95.81L246.87 95.93V95.63L246.75 95.47L246.56 95.33L246.84 95.05C246.82 94.77 246.75 94.44 246.72 94.18H246.95C246.95 94.18 246.83 93.97 246.83 93.92H246.71L246.85 92.4H247.11L247.27 92.12L247.29 92.11Z" fill="black" stroke="black" stroke-miterlimit="10"/>
<path d="M116.19 125.72C116.19 125.72 116.45 125.95 116.52 125.98C116.59 126.03 116.57 126.19 116.57 126.19C116.57 126.21 116.41 126.61 116.38 126.66C116.31 126.71 116.24 126.82 116.24 126.82L116.29 127.55C116.29 127.55 116.15 127.93 116.15 128.09C116.08 128.32 116.27 128.84 116.27 128.84L116.15 129.33L115.75 130.13V130.25C115.77 130.48 115.84 130.77 115.87 131C115.87 131 115.8 131.28 115.68 131.45C115.63 131.54 115.47 131.78 115.47 131.78C115.47 131.92 115.42 132.18 115.42 132.32L115.37 132.53L115.44 133.35L115.53 133.8L115.18 134.53L115.41 134.86V135.16H115.9L116.42 134.69C116.42 134.69 117.76 134.57 117.85 134.57C118.01 134.57 118.55 134.34 118.55 134.34L118.83 134.5C118.83 134.5 119.58 134.15 119.84 134.15C120.03 134.06 120.19 133.85 120.19 133.85C120.19 133.85 121.15 133.85 121.36 133.8C121.48 133.78 121.59 133.54 121.59 133.54L121.8 133.38C121.8 133.38 122.2 133.52 122.32 133.52C122.51 133.52 122.72 133.31 122.88 133.31H123.35C123.35 133.31 123.54 133.29 123.66 133.24C123.78 133.15 123.8 133.12 124.15 132.93C124.36 132.72 124.55 132.72 124.55 132.72H124.85C125.11 132.81 125.13 133.14 125.13 133.14C125.13 133.14 125.25 133.44 125.27 133.54C125.29 133.64 125.32 133.92 125.27 134.08C125.25 134.17 124.8 134.2 124.8 134.2L124.45 134.48C124.45 134.48 124.07 134.39 123.91 134.41C123.82 134.41 123.25 134.74 123.25 134.74L122.57 134.72L122.22 134.95C122.22 134.95 121.92 134.95 121.84 134.93C121.79 134.93 121.68 134.93 121.61 134.91C121.52 134.89 121.38 134.86 121.31 134.86C121.15 134.86 120.77 135.38 120.77 135.38L120.21 135.66L119.79 135.4L119.51 135.75C119.44 135.82 118.95 135.82 118.95 135.82L118.6 135.47C118.55 135.54 118.15 136.03 118.01 136.03H117.89C117.8 136.03 117.68 136.05 117.44 136.05C117.23 136.05 117.18 136.05 117.18 136.03L116.71 136.38L115.84 136.47C115.84 136.47 115.39 136.73 115.23 136.63C114.95 136.56 114.74 136.63 114.74 136.63C114.74 136.63 114.67 136.42 114.51 136.23C114.51 136.02 114.3 136.02 114.3 136.02L113.88 135.06C113.88 135.06 114.42 134.03 114.42 133.91V133.72C114.42 133.6 114.44 133.49 114.44 133.44C114.44 133.35 114.77 132.9 114.77 132.9C114.7 132.83 114.68 132.78 114.61 132.69C114.61 132.69 114.52 132.43 114.61 132.24C114.66 132.15 114.68 132.1 114.68 131.98C114.68 131.86 114.7 131.75 114.75 131.65C114.77 131.39 114.77 130.81 114.77 130.81H115.17V130.39C115.12 130.32 114.89 130.01 114.87 129.83C114.87 129.62 115.1 129.41 115.1 129.41C115.1 129.32 115.12 129.2 115.12 129.13L115.24 128.66C115.24 128.66 115.38 128.28 115.38 127.93C115.38 127.62 115.31 127.46 115.31 127.46L115.43 126.85C115.43 126.85 115.5 126.5 115.43 126.38C115.31 126.19 115.31 126.05 115.36 125.89C115.38 125.82 115.41 125.77 115.41 125.73C115.41 125.54 116.04 125.54 116.04 125.54L116.18 125.73L116.19 125.72ZM118.44 139.63C118.44 139.63 118.77 139.51 118.89 139.4C119.17 139.31 119.34 139.33 119.52 139.33C119.57 139.33 119.78 139.31 120.08 139.19C120.46 139.14 120.53 138.96 120.53 138.96C120.53 138.96 121.23 138.96 121.35 138.87L121.84 138.94L122.43 139.17L123.11 138.77C123.11 138.77 123.27 138.79 123.37 138.82C123.42 138.82 123.51 138.89 123.56 138.89C123.72 138.94 123.89 138.96 123.94 138.94L124.32 139.2L124.62 139.25L124.92 140.14V141.24C124.92 141.24 124.9 141.52 124.92 141.66C124.94 141.75 124.94 141.99 124.94 142.06C124.99 142.25 125.06 142.72 125.06 142.88C125.04 143.09 124.87 143.51 124.87 143.51L124.85 144.12C124.85 144.33 124.9 144.71 124.78 144.89C124.78 144.94 124.78 145.05 124.76 145.08C124.6 145.13 124.24 145.29 124.17 145.38C124.15 145.4 124.12 145.45 124.08 145.47C123.87 145.63 123.59 145.8 123.45 145.8C123.4 145.8 122.77 146.03 122.77 146.03L122.07 146.01C121.69 146.06 121.3 146.15 120.92 146.2C120.8 146.22 120.4 146.34 120.17 146.34C120.05 146.34 119.87 146.25 119.77 146.2C119.61 146.2 119.49 146.18 119.37 146.13C119.25 146.08 119.18 145.97 119.11 145.8C119.04 145.61 118.97 145.28 118.97 145.14C118.92 145.07 118.85 144.91 118.83 144.79C118.85 144.6 118.71 144.53 118.71 144.25C118.71 144.16 118.78 144.06 118.8 143.99C118.71 143.92 118.54 143.66 118.54 143.66C118.54 143.66 118.52 143.05 118.52 142.79C118.52 142.72 118.47 141.64 118.38 141.1C118.08 140.98 117.58 140.61 117.58 140.61L117.6 140.05L118.44 139.63ZM119.7 140.97C119.75 141.6 119.75 142.59 119.63 142.75C119.65 142.8 119.68 142.89 119.7 142.91C119.89 143 120.05 143.26 119.96 143.45C119.94 143.5 119.84 143.76 119.84 143.83L119.89 144.77C119.89 144.77 120.08 144.96 120.1 144.96H120.29C120.36 144.98 120.6 144.94 120.99 144.82C121.18 144.77 121.48 144.77 121.74 144.84C121.81 144.86 122.68 144.68 122.68 144.68C122.87 144.59 123.67 144.3 123.78 144.3C123.85 144.32 124.01 144.23 124.01 144.23C123.99 144.18 123.89 144.02 123.99 143.88C124.06 143.79 123.99 143.6 123.99 143.6V143.44C123.99 143.44 124.01 143.32 124.06 143.25C124.11 143.16 124.11 143.09 124.11 143.06C124.11 143.03 124.09 142.94 124.06 142.9C124.01 142.78 123.97 142.57 124.01 142.43L124.03 142.03C124.03 141.89 124.01 141.65 124.01 141.49C124.01 141.44 124.06 141.4 124.06 141.33V141.12C124.08 140.96 124.06 140.58 124.08 140.32H122.67L121.73 140.53L120.61 140.48L120.12 140.62L120 140.83L119.7 140.97ZM126.88 124.64L127.28 125.3C127.28 125.3 127.21 125.68 127.09 126.57L127.28 127.02L127.09 127.56V128.01C127.09 128.17 126.97 128.67 126.97 128.67C126.97 128.74 126.97 128.86 126.99 128.93C127.22 129.23 127.22 129.45 127.22 129.77V129.91L127.17 130.43L127.64 130.9L127.8 130.99C127.87 130.99 127.94 131.01 128.04 131.01C128.13 131.03 128.23 131.03 128.3 131.03C128.39 131.03 128.51 131.01 128.6 130.98L128.9 130.91L129.32 131.1C129.39 131.1 129.84 131.05 129.93 131.01H130.02C130.02 131.01 130.14 131.06 130.32 131.08C130.6 131.13 131.05 131.22 131.4 131.31C131.75 131.4 131.99 131.52 131.99 131.64L131.85 132.3C131.33 132.35 130.98 132.35 130.56 132.3L129.22 132.11L128.84 132.34L127.5 132.18L127.57 133.68C127.57 133.68 127.55 134.41 127.5 134.74C127.52 134.9 127.59 135.96 127.59 136.05C127.59 136.1 127.61 136.26 127.64 136.45C127.69 136.73 127.76 137.06 127.76 137.25C127.76 137.3 127.74 137.34 127.74 137.41C127.72 137.53 127.69 137.69 127.72 137.83C127.72 138.02 127.13 139.03 126.83 138.96L126.6 138.44V135.04L126.29 133.68L126.57 132.98C126.29 132.72 126.03 132.25 126.03 131.36C126.03 131.31 126.05 131.29 126.05 131.24C126.07 131.17 126.07 131.08 126.07 130.75C126.07 130.12 125.98 129.39 125.88 128.73C125.83 128.28 125.76 127.86 125.74 127.49L125.83 126.55L125.67 125.75L125.95 125.52V125.1L126.49 124.84L126.84 124.65L126.88 124.64Z" fill="black" stroke="black" stroke-miterlimit="10"/>
<path d="M138.47 133.28L138.45 133.12L138.24 132.98H138.1C138.01 132.98 137.7 133.03 137.51 133.03C137.42 133.03 137.35 133.03 137.32 133.01C137.16 132.99 137.02 132.92 136.85 132.92C136.73 132.92 136.62 132.97 136.5 133.06L136.43 133.11C136.31 133.2 136.19 133.3 136.05 133.3C135.77 133.3 135.63 133.18 135.51 132.97C135.39 132.99 134.69 133.16 134.62 133.16C134.5 133.16 134.32 133.11 134.24 133L134.05 132.91C133.77 132.75 133.28 132.46 133.28 132.35C133.28 132.26 133.7 132.23 133.7 132.23L134.31 132H134.99L135.62 131.67V131.76L136 131.97C136.07 131.83 136.19 131.69 136.26 131.55L136.68 131.88H137.01C137.03 131.81 137.17 131.6 137.2 131.53H137.67L138.4 131.79L138.96 131.53C139.22 131.53 139.78 131.74 139.78 131.74L140.46 132.04L140.76 132.09C140.83 132.07 141.02 132.04 141.21 132.09L141.75 132.02L142.43 132.23L142.73 132.14L143.32 132.35C143.41 132.35 143.67 132.35 143.72 132.3C143.81 132.3 144.07 132.39 144.12 132.44L144.19 132.91L144.52 133.31V133.76H143.82L143.68 133.55C143.3 133.53 142.86 133.46 142.51 133.43V133.24H141.88L141.27 133.12L140.68 133.14C140.4 133.14 140 133.05 139.77 133L139.58 132.95C139.3 132.93 138.99 133.14 138.74 133.3H138.48L138.47 133.28ZM138.26 127.55L138.4 127.74L139.01 127.93C139.08 127.93 139.27 127.86 139.43 127.81C139.59 127.76 139.73 127.72 139.78 127.72C140.08 127.72 140.27 127.91 140.32 128.03C140.88 128.17 141.33 128.22 141.75 128.38C141.96 128.36 142.24 128.36 142.45 128.36C142.66 128.36 142.71 128.43 142.71 128.55C142.71 128.83 142.45 128.88 142.15 128.9C142.1 128.9 142.06 128.92 142.01 128.92C141.82 128.94 141.61 128.97 141.47 129.01L141.17 129.08L140.63 129.17L140.14 128.94H139.91L139.65 129.06C139.58 129.04 139.44 129.01 139.34 128.94C139.25 128.87 139.13 128.92 139.04 128.96L138.62 129.1C138.53 129.1 138.39 129.1 138.29 129.08C138.22 129.08 138.08 129.06 138.03 129.06C138.01 129.06 137.94 129.13 137.84 129.22C137.72 129.34 137.58 129.48 137.44 129.48C137.44 129.48 137.35 129.43 137.28 129.39C137.23 129.37 137.21 129.32 137.16 129.27C137.09 129.22 136.95 129.15 136.86 129.15C136.81 129.15 136.79 129.15 136.74 129.17C136.58 129.24 136.55 129.22 136.46 128.98L136.41 128.86C136.36 128.77 136.32 128.58 136.29 128.58C136.24 128.58 136.15 128.63 136.1 128.67C136.05 128.71 135.94 128.76 135.61 128.76C135.4 128.76 135.23 128.74 135.23 128.64C135.23 128.57 135.28 128.52 135.35 128.36C135.37 128.31 135.42 128.29 135.42 128.17L135.37 127.75H136.87L137.29 128.1L137.5 127.75L137.85 127.82L138.02 127.54H138.25L138.26 127.55ZM138.99 141.2C138.99 141.2 139.01 141.15 139.01 141.13H138.59C138.45 141.13 137.79 140.97 137.63 140.78C137.63 140.78 137.61 140.73 137.58 140.73L137.49 140.68L136.86 140.05C136.72 139.86 136.6 139.53 136.56 139.21L136.23 138.44C136.23 138.37 136.21 138.3 136.18 138.23C136.18 138.21 136.16 138.16 136.16 138.14C136.14 138.07 136.09 137.88 136.09 137.88L136.18 137.25L136.42 136.71L136.18 135.89L136.6 135.12L136.95 134.86L137.3 134.32L137.46 134.23V134.04H139.08L139.43 134.51L140.13 134.58L140.74 135.33L141 136.2L140.95 136.22C141 136.29 141.18 136.45 141.18 136.45C141.32 136.54 141.74 136.9 141.74 137.13C141.74 137.2 141.72 137.25 141.69 137.29C141.67 137.36 141.64 137.45 141.64 137.52C141.64 137.52 141.69 137.59 141.69 137.64L141.81 137.8C141.88 137.96 141.88 138.32 141.79 138.71L141.63 139.74C141.63 139.74 141.68 139.86 141.7 139.88C141.72 139.93 141.75 140 141.75 140V140.14C141.75 140.14 141.61 140.61 141.52 140.77V141.22C141.5 141.6 141.4 141.88 141.07 141.95C140.98 142.09 140.53 142.21 140.27 142.21C139.8 142.26 139.31 142.23 138.84 141.95L138.77 141.36L138.98 141.2H138.99ZM139.36 140.85C139.74 140.62 139.81 140.12 139.99 139.7C140.06 139.54 140.44 138.27 140.44 138.27L140.46 137.96V137.84C140.46 137.72 140.46 137.54 140.41 137.44C140.34 137.37 140.15 137.02 140.03 136.81L140.17 136.69L140.03 136.5C139.94 136.36 139.84 136.22 139.84 136.1C139.84 136.08 139.56 135.84 139.35 135.75L139.23 135.61L139.02 135.33L138.57 135.24C138.43 135.24 138.29 135.29 138.27 135.38L138.13 135.61C138.01 135.75 137.99 135.8 137.73 135.8C137.61 135.8 137.59 135.85 137.59 135.87C137.59 135.89 137.61 135.96 137.61 135.96L137.56 136.36C137.51 136.45 137.42 136.74 137.42 136.85C137.42 137.06 137.51 137.34 137.51 137.34L137.46 138.09L137.62 138.47C137.64 138.63 137.69 138.96 137.83 139.17C137.9 139.36 138.04 139.55 138.16 139.59C138.28 139.71 138.46 139.78 138.65 139.85C138.67 139.87 138.7 139.87 138.74 139.87L139.37 140.5L139.32 140.83L139.36 140.85ZM146.75 127.04C146.75 127.04 146.59 127.98 146.56 128.21C146.54 128.37 146.54 129.69 146.54 129.85C146.54 129.92 146.52 130.53 146.52 131.26C146.52 132.13 146.54 133.16 146.59 133.42C146.57 133.87 146.4 134.97 146.4 134.97V135.04L148.53 134.78H149.16L150.19 134.64L150.59 134.55L150.26 133.35C150.26 132.95 150.28 132.08 150.31 131.73C150.33 131.68 150.33 131.57 150.33 131.5C150.28 131.45 150.21 131.31 150.19 131.22C150.1 131.13 150.03 131.01 150.03 130.89C150.01 130.77 150.05 130.56 150.15 130.35L150.22 130.19C150.22 130.12 150.2 129.96 150.17 129.91C150.1 129.84 150.01 129.75 149.96 129.68C149.7 129.38 149.75 128.7 149.77 128.41C149.77 128.27 149.79 128.01 149.79 127.87C149.81 127.52 149.96 127.45 150.35 127.49L150.44 127.68C150.46 127.77 150.63 128.06 150.72 128.15C150.84 128.27 151.02 128.97 151.05 129.06L151.19 130.47L151.45 131.03L151.47 132.04C151.35 132.35 151.38 132.7 151.49 132.98L151.61 133.24C151.66 133.38 151.63 133.54 151.59 133.69C151.64 133.78 151.73 133.88 151.78 133.97L151.85 134.3L152.76 134.23C152.76 134.23 153.35 134.51 153.51 134.58C153.67 134.7 153.28 135.59 153.28 135.59C153.28 135.59 152.72 135.97 152.46 135.97C152.37 135.97 151.87 135.95 151.87 135.95H151.8L151.82 136.23C151.82 136.23 151.75 136.42 151.63 136.63C151.54 136.84 151.68 137.08 151.68 137.08L151.75 137.74C151.8 137.83 151.87 138.09 151.96 138.61L151.89 139.38C151.84 139.59 151.84 139.52 151.75 139.73C151.7 139.78 151.63 139.99 151.68 140.04C151.77 140.13 151.73 140.42 151.7 140.7C151.68 140.82 151.61 141.03 151.63 141.17C151.63 141.31 151.84 141.59 151.84 141.59L151.89 142.15C151.91 142.27 151.66 142.6 151.66 142.6C151.71 142.69 151.75 142.88 151.75 142.88C151.89 143.11 151.82 143.35 151.82 143.35C151.82 143.35 151.73 143.54 151.56 143.73C151.37 143.94 151.21 143.99 150.95 143.85C150.72 143.71 150.53 143.47 150.53 143.26L150.48 142.81L150.74 142.46L150.67 141.64C150.67 141.48 150.6 140.77 150.53 140.63C150.46 140.37 150.62 139.83 150.62 139.83C150.62 139.83 150.62 139.85 150.67 139.81C150.67 139.81 150.62 139.34 150.67 139.22L150.74 138.19L150.55 137.74V136.17C150.48 136.19 150.43 136.19 150.39 136.17C150.18 136.08 149.29 136.38 149.29 136.38L146.66 136.52L146.78 136.9V137.3C146.78 137.42 146.78 137.61 146.8 137.75C146.89 137.94 146.8 138.45 146.75 138.78C146.73 138.9 146.73 138.99 146.73 139.04L146.87 141.62C146.89 141.9 147.08 143.52 147.08 143.52L147.03 144.11C147.01 144.6 146.7 144.67 146.7 144.67C146.72 144.79 146.84 145.14 146.96 145.33C146.96 145.33 146.98 145.59 146.98 145.8C146.96 146.01 146.39 146.41 146.39 146.41H146.04C146.04 146.41 146.06 145.59 146.06 145.4C146.08 145.26 146.08 144.09 146.08 144.09L146.01 143.64C146.01 143.64 145.92 141.93 145.85 141.62C145.85 141.43 145.8 140.85 145.78 140.21C145.73 139.39 145.69 138.4 145.71 138.24C145.71 138.19 145.69 137.89 145.71 137.82C145.78 137.61 145.71 137.07 145.71 137.07C145.71 137.07 145.62 136.51 145.5 136.32C145.5 136.04 145.55 135.45 145.55 135.45C145.55 135.45 145.36 133.57 145.43 133.2C145.45 132.92 145.5 132.45 145.45 131.72C145.4 131.11 145.36 130.45 145.45 130.2C145.54 130.08 145.59 129.68 145.59 129.31C145.59 128.68 145.5 128 145.5 128L145.52 127.06L146.25 126.75L146.72 127.08L146.75 127.04Z" fill="black" stroke="black" stroke-miterlimit="10"/>
<path d="M165.96 132.99L165.94 133.06L165.85 133.34C165.66 133.88 165.52 134.3 165.52 134.68V134.8C165.47 135.27 165.33 135.76 165.22 136.25L165.15 136.55L165.08 136.83L164.59 138.45C164.59 138.45 164.54 138.57 164.54 138.59C164.4 139.01 164.26 139.36 163.77 139.36C163.7 139.36 163.58 139.29 163.44 139.2L163.25 139.04C163.25 138.69 163.34 138.36 163.55 138.12C163.53 137.96 163.5 137.74 163.5 137.56C163.5 136.95 163.83 135.61 164.44 134.02C164.49 133.5 164.65 132.07 164.82 131.89C165.15 131.3 165.45 130.65 165.45 129.87C165.45 129.68 165.45 129.49 165.43 129.35C165.43 129.28 165.41 129.21 165.41 129.14V128.93C165.41 128.13 165.67 127.55 166.33 127.55C166.99 127.55 167.01 127.9 167.01 128.39V128.55C167.01 129.42 166.87 130.47 166.61 131.43L166.82 131.71C166.98 131.85 167.22 131.99 167.36 132.13L167.97 132.93C168.11 133.14 168.3 133.35 168.44 133.56C168.7 133.96 169.03 134.48 169.28 134.94L169.35 135.08C169.56 135.5 169.82 135.97 170.22 136.53C170.53 137 171.16 137.68 171.67 138.17C171.88 138.4 171.93 138.8 171.93 139.06C171.93 139.29 171.88 139.6 171.53 139.6C171.04 139.6 170.69 139.44 170.43 139.2C170.05 138.87 169.66 138.14 169.35 137.63C169.26 137.49 169.12 137.28 169.05 137.14L168.3 135.59C167.95 135.12 167.57 134.58 167.31 134.14L166.98 133.55L166.56 132.87L166.23 132.4L166.11 132.7L165.97 132.96L165.96 132.99ZM175.11 126.1C175.11 126.1 174.95 127.04 174.92 127.27C174.9 127.43 174.9 128.75 174.9 128.91C174.9 128.98 174.88 129.59 174.88 130.32C174.88 131.19 174.9 132.22 174.95 132.48C174.93 132.64 174.93 132.9 174.88 133.14L176.9 132.91H177.53L178.56 132.77L179.73 132.47L181.14 132.35C181.14 132.35 181.73 132.63 181.89 132.7C182.05 132.82 181.66 133.71 181.66 133.71C181.66 133.71 181.1 134.09 180.84 134.09C180.75 134.09 180.25 134.07 180.25 134.07C180.25 134.07 179.85 134.05 179.41 134.09L179.06 134.21C178.94 134.26 178.85 134.3 178.78 134.28C178.57 134.19 177.68 134.49 177.68 134.49L174.87 134.63C174.87 134.63 174.89 134.72 174.89 134.77C174.89 134.77 175.08 135.61 175.17 135.94V136.34C175.17 136.46 175.17 136.64 175.19 136.79C175.28 136.98 175.19 137.49 175.14 137.82C175.12 137.94 175.12 138.03 175.12 138.08L175.26 140.66C175.28 140.94 175.47 142.56 175.47 142.56L175.42 143.15C175.4 143.64 175.09 143.71 175.09 143.71C175.11 143.83 175.23 144.18 175.35 144.37C175.35 144.37 175.37 144.63 175.37 144.84C175.35 145.05 174.78 145.45 174.78 145.45H174.43C174.43 145.45 174.45 144.63 174.45 144.44C174.47 144.3 174.47 143.13 174.47 143.13L174.4 142.68C174.4 142.68 174.31 140.97 174.24 140.66C174.24 140.47 174.19 139.89 174.17 139.25C174.12 138.43 174.08 137.44 174.1 137.28C174.1 137.23 174.08 136.93 174.1 136.86C174.17 136.65 174.1 136.11 174.1 136.11C174.1 136.11 174.01 135.55 173.89 135.36C173.89 135.08 173.94 134.49 173.94 134.49C173.94 134.49 173.75 132.61 173.82 132.24C173.84 131.96 173.89 131.49 173.84 130.76C173.79 130.15 173.75 129.49 173.84 129.24C173.93 129.12 173.98 128.72 173.98 128.35C173.98 127.72 173.89 127.04 173.89 127.04L173.91 126.1L174.64 125.8L175.11 126.13V126.1Z" fill="black" stroke="black" stroke-miterlimit="10"/>
<path d="M190.71 127.08C190.99 127.27 191.16 127.46 191.23 127.67C191.3 127.88 191.28 128.12 191.25 128.42L190.73 129.29C190.59 129.5 190.42 129.74 190.1 129.85C189.98 129.92 189.89 130.06 189.8 130.23C189.64 130.51 189.4 130.77 189.17 130.93C189.01 131.09 188.77 131.26 188.72 131.38L188.6 131.5L188.62 131.52C188.71 131.54 188.83 131.64 188.88 131.66L189.77 132.11C189.93 132.16 190 132.2 190 132.2L190.42 132.69L190.66 133.11L191.2 133.32L191.29 133.7C191.43 133.75 191.74 134.01 191.74 134.01L191.97 134.17L191.95 134.8C191.95 134.8 192.16 134.82 192.28 134.94L192.44 135.34L192.6 135.53L192.81 135.65C192.81 135.65 193.28 136.05 193.26 136.24C193.24 136.31 193.28 136.38 193.31 136.45C193.38 136.71 193.43 136.94 193.31 137.06C193.24 137.15 193.05 137.2 192.77 137.13L192.54 136.78C192.45 136.64 192.33 136.59 192.24 136.55C192.12 136.5 192.1 136.48 192.15 136.46L191.73 135.87C191.66 135.85 191.47 135.8 191.47 135.8L191.28 135.47C191.28 135.47 191.12 135.42 191.07 135.38L190.95 135.05C190.95 135.05 189.68 134.07 189.54 133.95C189.42 133.95 189.24 133.86 189.24 133.86L188.68 133.06L187.93 132.33C187.93 132.33 187.88 132.28 187.86 132.26C187.81 132.28 187.79 132.28 187.74 132.28C187.69 132.28 187.6 132.28 187.39 132.42C187.32 132.44 187.25 132.51 187.2 132.61L187.06 132.91L186.33 133.4C186.21 133.8 185.77 134.01 185.3 134.15L184.97 134.27C184.83 134.32 184.76 134.46 184.74 134.6C184.72 134.81 184.67 134.95 184.29 134.9C184.27 134.9 184.2 134.88 184.15 134.83C184.1 134.81 183.73 134.34 183.73 134.24C183.73 134.24 183.92 134.08 183.96 133.98L184.52 133.51C184.83 133.3 185.2 132.99 185.27 132.81C185.34 132.74 185.5 132.53 185.76 132.32C186.09 131.94 186.56 131.43 186.91 131.36L187.24 131.22C187.24 131.22 187.26 131.08 187.29 131.03L187.36 130.82L187.74 130.73C187.88 130.59 188.14 130.21 188.23 130.14L188.37 129.98C188.58 129.77 188.77 129.75 188.86 129.75C188.91 129.73 189.33 128.95 189.59 128.18L188.96 128.02V127.88L187.91 127.67L187.46 127.81V127.95L185.07 127.81L184.93 127.67L183.73 127.81L183.59 126.99H183.87V126.61L184.55 126.54C184.62 126.61 184.79 126.68 184.88 126.7L185.4 126.3L185.78 126.6C185.99 126.6 186.93 126.67 187.14 126.67L187.59 126.37L188.15 126.46L190.73 127.09L190.71 127.08ZM189.35 138.58H189.7L190 138.79L190.09 139.45C190.16 139.54 190.23 139.71 190.3 139.78C190.3 139.99 190.23 140.16 190.16 140.27C190.11 140.34 190.09 140.39 190.09 140.41C190.09 140.5 190.09 140.62 190.11 140.69C190.11 140.76 190.13 140.78 190.13 140.83L190.41 140.9C190.6 140.95 190.62 141.63 190.62 141.63C190.62 141.77 190.46 142.24 190.43 142.38L190.55 142.83L190.22 143.13L190.71 143.48L190.87 144.54L190.42 144.82L190.26 144.96C190.42 144.96 190.99 145.12 190.99 145.27C190.99 145.39 190.78 145.48 190.78 145.48V145.62C190.78 145.62 190.8 145.69 190.8 145.71L190.49 145.9C190.49 145.9 190.61 145.95 190.68 145.95L190.7 146.07L190.86 146.33L191.24 146.54L192.39 146.63L192.3 146.91H193.8L194.48 147.07C194.48 147.07 194.64 147.09 194.69 147.09C194.83 146.88 195.42 146.88 195.42 146.88L195.82 147.11L196.43 147.2L197.06 147.32L197.34 147.46L197.88 147.37L198.28 147.6L198.02 148.14L197.08 148.09C197.08 148.09 196.99 148.11 196.94 148.14C196.78 148.19 196.56 148.26 196.42 148.26L195.93 148.1C195.93 148.1 195.74 148.12 195.65 148.15C195.39 148.2 195.04 148.27 194.92 148.27H193.89C193.54 148.27 192.86 148.11 192.86 148.11L192.53 147.83C192.44 147.88 192.23 147.97 192.13 147.99H191.08L191.13 147.68C190.94 147.66 189.25 147.45 189.25 147.33V147.19H188.9C188.76 147.19 188.74 147.03 188.71 146.84L188.62 145.78L188.85 145.69L188.62 145.6V144.97L188.76 144.78H188.62V142.32C188.62 142.23 188.74 141.92 188.74 141.92L188.88 141.64V141.26H188.74C188.67 141.21 188.65 141.12 188.65 141L188.7 140.11H188.93L188.84 139.34V138.94H189L189.33 138.59L189.35 138.58ZM197.58 126.29V127.65L197.53 128.12L197.72 128.54L197.67 130.74L197.51 131.26L197.6 131.68L197.53 132.15L197.67 132.69L197.6 133.44V134.33L197.65 134.45L197.74 135.22L197.62 135.38L197.97 135.68V136.38C197.97 136.57 197.9 136.78 197.9 136.78H197.38L197.15 136.52L197.13 136.4H196.85C196.73 136.38 196.66 136.1 196.66 136.1L196.73 135.65V135.23C196.73 135.23 196.71 135.18 196.71 135.14C196.66 134.91 196.57 134.34 196.57 133.97C196.57 133.88 196.62 133.66 196.62 133.66C196.62 133.61 196.67 133.52 196.67 133.47L196.6 133.21H196.51L196.46 132.72L196.6 132.39C196.37 132.27 196.15 132.06 196.15 131.9L196.45 131.74C196.45 131.74 196.43 131.67 196.43 131.65C196.38 131.51 196.34 131.27 196.34 131.16C196.34 131.14 196.32 131.11 196.32 131.07C196.32 131 196.37 130.91 196.37 130.91L196.02 130.6L196.68 130.08V129.28L196.84 128.97C196.84 128.97 196.51 128.31 196.51 128.22C196.51 128.22 196.51 128.2 196.53 128.15L196.37 127.31L196.7 127.05L196.61 126.46L197.08 126.27H197.6L197.58 126.29Z" fill="black" stroke="black" stroke-miterlimit="10"/>
<path d="M216.65 125.35V126.71L216.6 127.18L216.79 127.6L216.74 131.21L216.58 131.73L216.67 132.15L216.6 132.62L216.74 133.16L216.67 133.91V134.8L216.72 134.92L216.81 135.69L216.69 135.85L217.04 136.16V136.86C217.04 137.05 216.97 137.26 216.97 137.26H216.45L216.22 137L216.2 136.88H215.92C215.8 136.86 215.73 136.57 215.73 136.57L215.8 136.12V135.7C215.8 135.7 215.78 135.65 215.78 135.61C215.73 135.38 215.64 134.81 215.64 134.44C215.64 134.35 215.69 134.14 215.69 134.14C215.69 134.09 215.74 134 215.74 133.95L215.67 133.69H215.58L215.53 133.2L215.67 132.87C215.44 132.75 215.41 132.49 215.53 132.21C215.51 132.19 215.51 132.14 215.51 132.12C215.49 132.07 215.46 132.03 215.46 131.98H215.27C215.13 132.07 214.87 132.29 214.54 132.29C214.37 132.29 214.26 132.24 214.19 132.22C214.19 132.22 214.14 132.2 214.12 132.2C214.05 132.2 213.84 132.34 213.67 132.43C213.55 132.5 213.39 132.62 213.32 132.62C213.27 132.62 212.45 132.57 212.31 132.53C212.19 132.48 212.05 132.44 211.98 132.44C211.93 132.44 211.35 132.51 211.25 132.56L211.02 132.68V132.87C210.97 133.06 210.93 133.29 210.83 133.36C210.78 133.5 210.71 133.74 210.71 133.74C210.71 133.79 210.73 133.9 210.83 134.23L210.85 134.56L210.73 135.4C210.73 135.4 210.38 135.66 210.07 135.73C209.95 135.75 209.79 135.75 209.65 135.82C209.58 135.87 209.51 135.94 209.42 135.94C209.26 135.99 209.02 136.13 209.02 136.13L208.32 136.15L206.89 136.03L206.3 136.05C206.11 136.1 205.88 136.19 205.81 136.24C205.76 136.31 205.65 136.33 205.51 136.36C205.3 136.38 205.06 136.36 204.88 136.29C204.81 136.29 204.65 136.31 204.5 136.34C204.29 136.39 204.15 136.41 204.08 136.39C203.96 136.37 203.49 136.16 203.33 136.06L202.63 135.75C202.61 135.63 202.42 134.88 202.35 134.84C202.33 134.82 202.28 134.72 202.28 134.58C202.28 134.44 202.05 134.27 202.05 134.27L202.59 133.17L202.21 132.07L202.44 131.62C202.44 131.62 202.7 131.24 202.77 130.92L202.65 130.59L202.81 130.17L202.48 129.72L202.57 129.23L202.43 129.07C202.43 129.07 202.83 128.79 202.95 128.44C202.97 128.42 202.88 128.44 202.79 128.44C202.63 128.42 202.37 128.37 202.34 128.25C202.25 128.25 202.11 128.18 202.2 128.06V127.8C202.22 127.57 202.39 127.1 202.51 126.93C202.65 126.72 203.31 126.81 203.31 126.81L204.37 126.86C204.51 126.79 204.63 126.7 204.77 126.65L204.96 126.81L205.29 126.67L206.04 126.83L207.26 126.74L208.27 126.69C208.36 126.64 209.14 126.27 209.4 126.36L210.06 126.1L210.69 126.38L210.67 127.53C210.67 127.6 210.69 127.79 210.72 128C210.84 127.98 210.98 127.95 211.21 127.95H212.38C212.47 127.95 213.32 127.97 213.37 127.97C213.53 127.97 213.65 127.95 213.77 127.92C213.93 127.85 214.17 127.78 214.57 127.78C214.69 127.78 214.78 127.8 214.85 127.8H215.13L215.25 127.64C215.34 127.59 215.51 127.5 215.65 127.48C215.63 127.39 215.6 127.32 215.6 127.29C215.6 127.29 215.6 127.27 215.62 127.22L215.46 126.38L215.79 126.12L215.7 125.53L216.17 125.34H216.69L216.65 125.35ZM209.55 127.9L209.53 127.38L209.44 127.45C209.04 127.5 208.64 127.38 208.64 127.38L207.87 127.87L207.21 127.92L206.72 127.76L206.46 128.16L205.69 128.14L205.36 128.42L204.75 128.16L203.98 128.47C204.05 128.68 204.17 128.87 204.24 129.1V129.59C204.24 129.59 203.91 130.18 203.79 130.32C203.91 130.58 204.07 130.93 204.07 130.93C204.07 130.93 203.88 131.59 203.79 131.99L204.14 133.75L203.67 134.36C203.76 134.52 203.88 134.69 203.95 134.83L204.77 134.69C205.05 134.62 205.15 134.57 205.15 134.57L205.81 135.02L206.16 134.81C206.16 134.81 206.58 134.72 206.82 134.67C207.03 134.6 207.29 134.58 207.29 134.58L208.49 134.6L208.82 134.41C208.82 134.41 209.62 134.46 209.69 134.41C209.71 134.22 209.76 133.47 209.76 133.47L209.92 132.95C209.9 132.86 209.92 132.74 209.9 132.65L209.69 131.85L209.99 131.43L209.87 130.8C209.82 130.49 209.75 130.17 209.71 130.1C209.64 130.08 209.64 129.98 209.69 129.89C209.74 129.77 209.74 129.61 209.71 129.51C209.73 129.44 209.85 128.62 209.85 128.62L209.57 127.92L209.55 127.9ZM212.06 145.8L211.71 146.06L210.65 145.83C210.51 145.83 210.09 145.67 209.92 145.48C209.92 145.48 209.9 145.43 209.87 145.43L209.78 145.38L209.15 144.75C209.01 144.56 208.89 144.23 208.85 143.91L208.52 143.14C208.52 143.07 208.5 143 208.47 142.93C208.47 142.91 208.45 142.86 208.45 142.84C208.43 142.77 208.38 142.58 208.38 142.58L208.47 141.95L208.7 141.41L208.47 140.59L208.89 139.82L209.24 139.56L209.83 139.02L210 138.93V138.74H211.62L211.97 139.21L212.67 139.28L213.28 140.03L213.54 140.9L213.49 140.92C213.54 140.99 213.72 141.15 213.72 141.15C213.86 141.24 214.28 141.6 214.28 141.83C214.28 141.9 214.26 141.95 214.23 141.99C214.21 142.06 214.18 142.15 214.18 142.22C214.18 142.22 214.23 142.29 214.23 142.34L214.35 142.5C214.42 142.66 214.42 143.02 214.33 143.41L214.17 143.74C214.17 143.74 214.22 143.86 214.24 143.88C214.26 143.93 214.29 144 214.29 144V144.14C214.29 144.14 214.15 144.61 214.06 144.77V145.22C214.04 145.6 213.94 145.88 213.61 145.95C213.52 146.09 212.6 146.21 212.34 146.21L212.08 145.95L212.06 145.81V145.8ZM212.25 145.28L212.7 145.19C212.75 145.12 212.84 145.03 212.89 144.93C213.01 144.6 213.01 143.99 213.01 143.45C213.01 143.33 212.99 142.96 212.99 142.96L213.01 142.65V142.53C213.01 142.41 213.01 142.23 212.96 142.13C212.89 142.06 212.7 141.71 212.58 141.5L212.72 141.38L212.58 141.19C212.49 141.05 212.39 140.91 212.39 140.79C212.39 140.77 212.11 140.53 211.9 140.44L211.78 140.3L211.57 140.02L211.12 139.93C210.98 139.93 210.6 139.98 210.58 140.07L210.44 140.3C210.32 140.44 210.3 140.49 210.04 140.49C209.92 140.49 209.9 140.54 209.9 140.56C209.9 140.58 209.92 140.65 209.92 140.65L209.87 141.05C209.82 141.14 209.73 141.43 209.73 141.54C209.73 141.75 209.82 142.03 209.82 142.03L209.77 142.78L209.93 143.16C209.95 143.32 210.12 143.65 210.26 143.86C210.33 144.05 210.47 144.24 210.59 144.28C210.71 144.4 211.13 144.47 211.32 144.54C211.34 144.56 211.84 144.8 211.88 144.8L212.26 145.22L212.24 145.27L212.25 145.28ZM210.88 131.26C210.97 131.24 211.07 131.24 211.18 131.24H212.35C212.44 131.24 213.29 131.26 213.34 131.26C213.5 131.26 213.62 131.24 213.74 131.21C213.9 131.14 214.14 131.07 214.54 131.07C214.66 131.07 214.75 131.09 214.82 131.09H215.1L215.22 130.93L215.38 130.84L215.31 129.67L215.73 129.15V128.7H215.26C215.12 128.79 214.86 129 214.53 129C214.36 129 214.25 128.95 214.18 128.93C214.18 128.93 214.13 128.91 214.11 128.91C214.04 128.91 213.83 129.05 213.66 129.14C213.54 129.21 213.38 129.33 213.31 129.33C213.26 129.33 212.44 129.28 212.3 129.24C212.18 129.19 212.04 129.15 211.97 129.15C211.92 129.15 211.34 129.22 211.24 129.27C211.15 129.34 211.03 129.39 210.94 129.39H210.89V129.41L210.61 129.6L211.06 129.9L211.11 130.11C211.11 130.11 210.97 130.37 210.88 130.56C210.9 130.75 210.9 131.03 210.88 131.26Z" fill="black" stroke="black" stroke-miterlimit="10"/>
<path d="M230.99 140.9C230.99 141.2 230.64 141.51 230.12 141.63L229.18 141.77C229.18 141.77 229.06 141.77 229.01 141.79H228.92C228.92 141.79 228.83 141.81 228.78 141.81C228.69 141.81 228.59 141.83 228.5 141.83C228.12 141.88 227.7 141.92 227.49 141.85C227.35 141.8 226.97 141.9 226.79 141.97C226.77 141.97 226.74 141.99 226.72 141.99H226.63L225.29 142.29H221.37C221.25 142.29 221.14 142.27 221.04 142.24L220.78 142.17C220.57 142.1 220.45 141.61 220.45 141.58C220.54 141.39 221.01 140.88 221.25 140.76C221.44 140.64 222.28 140.92 222.28 140.92L222.7 140.78L222.89 140.71L222.98 140.66L223.52 140.8C223.52 140.8 223.66 140.85 223.71 140.85L224.25 140.83L224.23 140.48C224.21 140.22 224.11 139.85 224.11 139.85C224.09 139.78 224.02 139.64 224.02 139.59L224.16 138.39C224.09 137.94 224.07 137.15 224.25 136.19C224.25 136.19 224.7 135.86 225.07 136L225.59 136.33C225.61 136.75 225.47 137.31 225.33 137.88C225.47 138.37 225.52 139.99 225.52 140.74C226.46 140.62 227.28 140.55 227.44 140.53C227.98 140.48 228.54 140.39 229.08 140.34H229.97C230.67 140.34 230.98 140.62 230.98 140.88L230.99 140.9ZM222.33 129.12C222.05 128.6 221.95 128.28 222.03 128.09C222.1 127.93 222.31 127.9 222.69 128.02L222.92 128.23C222.92 128.23 222.97 128.42 223.2 128.63C223.22 128.68 223.27 128.75 223.34 128.82C223.39 128.66 223.41 128.52 223.41 128.52L223.86 127.91C223.86 127.91 223.86 127.79 223.84 127.7C223.84 127.68 223.91 127.23 223.91 127.21C223.91 127.21 223.98 127.07 224.07 127.07C224.12 127.09 224.42 127.05 224.47 127.02L224.68 126.93C224.68 126.93 225.8 127.4 225.71 127.54C225.69 127.56 225.71 127.63 225.66 127.7C225.61 127.86 225.54 128.01 225.36 128.1C225.22 128.17 225.1 128.5 225.1 128.5L224.89 129.06C224.89 129.06 224.73 129.18 224.59 129.46C224.52 129.55 224.47 129.67 224.42 129.76C224.87 130.16 225.29 130.49 225.29 130.49L225.71 130.77C225.71 130.77 225.83 130.89 225.87 130.98C225.87 130.98 226.2 130.98 226.36 131.14C226.43 131.3 226.55 131.49 226.55 131.56L226.83 131.91L227.04 131.84C227.04 131.84 227.39 132.31 227.58 132.47C227.67 132.52 227.77 132.61 227.86 132.7C227.91 132.77 227.95 132.79 228.07 132.84C228.23 132.91 228.35 133.17 228.35 133.17L228.44 133.24C228.44 133.24 228.82 133.43 229.1 133.71L229.31 133.9C229.36 133.97 229.69 134.16 230.01 134.25C230.13 134.58 230.17 134.95 230.13 135.14C230.08 135.35 229.87 135.4 229.33 135.23L229.05 134.95L228.32 134.6L228.13 134.22L227.61 133.63L227.42 133.49C227.33 133.4 227.14 133.21 227.04 133.09C227.04 133.09 226.76 133.04 226.66 133C226.47 132.95 226.24 132.77 226.24 132.77C226.1 132.58 225.98 132.32 225.86 132.14L225.79 132.02L224.97 131.67L224.57 131.36C224.57 131.36 224.31 131.08 224.01 130.77C224.01 130.79 223.99 130.79 223.99 130.79C223.99 130.79 224.11 131.12 223.99 131.31C223.87 131.45 223.73 131.62 223.66 131.64L223.43 132.02L223.57 132.21C223.57 132.21 223.22 132.68 223.15 132.91C223.13 133.03 223.08 133.14 223.01 133.26C222.96 133.33 222.96 133.38 222.94 133.49C222.92 133.68 222.73 133.89 222.73 133.89L222.68 133.98C222.68 133.98 222.63 134.4 222.47 134.75L222.35 135.01C222.3 135.08 222.23 135.46 222.26 135.81C222 136.02 221.18 136.07 220.99 136.09C220.78 136.11 220.66 135.95 220.64 135.34L220.83 135.01L220.9 134.19L221.2 133.89L221.58 133.23L221.65 133C221.72 132.88 221.81 132.65 221.91 132.53C221.91 132.53 221.86 132.25 221.86 132.13C221.86 131.94 221.95 131.66 221.95 131.66C222.09 131.47 222.3 131.26 222.44 131.1L222.51 130.98L222.58 130.09L222.74 129.62C222.74 129.62 222.79 129.57 222.83 129.55L222.6 129.32L222.3 129.11L222.33 129.12Z" fill="black" stroke="black" stroke-miterlimit="10"/>
<path d="M0.89999 0.9C1.49999 0.3 2.34999 0 3.44999 0H19.37C20.47 0 21.32 0.3 21.92 0.9C22.52 1.5 22.82 2.35 22.82 3.45V47.16C22.82 48.26 22.52 49.11 21.92 49.71C21.32 50.31 20.47 50.61 19.37 50.61H18.54C17.53 50.61 16.7 50.33 16.06 49.78H6.74999C6.14999 50.33 5.32999 50.61 4.26999 50.61H3.43999C2.33999 50.61 1.48999 50.31 0.88999 49.71C0.28999 49.11 -0.0100098 48.26 -0.0100098 47.16V3.45C-9.76585e-06 2.34 0.29999 1.49 0.89999 0.9ZM7.71999 8.41V41.36H15.1V8.41H7.71999ZM30.88 0.9C31.48 0.3 32.33 0 33.43 0H34.81C35.91 0 36.76 0.3 37.36 0.9C37.96 1.5 38.26 2.35 38.26 3.45V24.27C38.26 23.17 38.55 22.32 39.12 21.72C39.69 21.12 40.53 20.82 41.64 20.82C42.75 20.82 43.51 21.12 44.09 21.72C44.66 22.32 44.95 23.17 44.95 24.27V25.65C44.95 26.75 44.66 27.6 44.09 28.2C43.51 28.8 42.7 29.1 41.64 29.1C40.58 29.1 39.76 28.8 39.16 28.2C38.56 27.6 38.26 26.75 38.26 25.65V47.16C38.26 48.26 37.96 49.11 37.36 49.71C36.76 50.31 35.91 50.61 34.81 50.61H33.43C32.33 50.61 31.48 50.31 30.88 49.71C30.28 49.11 29.98 48.26 29.98 47.16V3.45C29.98 2.35 30.28 1.5 30.88 0.9Z" fill="black"/>
<path d="M48.63 10.69C49.25 7.15 50.3799 4.5 52.0099 2.73C53.6399 0.96 56 0.08 59.08 0.08C62.16 0.08 64.5 0.95 66.11 2.7C67.72 4.45 68.8099 7.08 69.3799 10.59C69.9499 14.11 70.2399 18.94 70.2399 25.1C70.2399 31.26 69.9499 36.2 69.3799 39.78C68.7999 43.36 67.71 46.08 66.11 47.91C64.5 49.75 62.16 50.67 59.08 50.67C56 50.67 53.6499 49.77 52.0099 47.98C50.3799 46.19 49.25 43.48 48.63 39.85C48.01 36.22 47.7 31.3 47.7 25.1C47.7 18.9 48.01 14.23 48.63 10.69ZM56.63 38.67C57.07 41.61 57.88 43.08 59.08 43.08C60.18 43.08 60.94 41.61 61.36 38.67C61.77 35.73 61.9799 31.2 61.9799 25.09C61.9799 18.98 61.77 14.77 61.36 11.92C60.95 9.07 60.19 7.65 59.08 7.65C57.88 7.65 57.07 9.09 56.63 11.96C56.19 14.83 55.9799 19.21 55.9799 25.09C55.9799 30.97 56.2 35.73 56.63 38.67ZM78.4499 0.9C79.0499 0.3 79.9 0 81 0H82.3799C83.4799 0 84.33 0.3 84.93 0.9C85.5299 1.5 85.83 2.35 85.83 3.45V47.16C85.83 48.26 85.5299 49.11 84.93 49.71C84.33 50.31 83.4799 50.61 82.3799 50.61H81C79.9 50.61 79.0499 50.31 78.4499 49.71C77.8499 49.11 77.55 48.26 77.55 47.16V3.45C77.55 2.35 77.8499 1.5 78.4499 0.9Z" fill="black"/>
<path d="M112.78 46.46C112.78 44.94 114.36 43.5 117.54 42.12C120.66 40.83 123.18 39.51 125.09 38.16C127 36.81 128.37 35.32 129.19 33.71C129.69 32.74 130.23 32.04 130.81 31.61C131.38 31.17 132.15 30.96 133.12 30.96H135.19C136.15 30.96 136.94 31.19 137.53 31.65C138.13 32.11 138.43 32.75 138.43 33.58C138.43 33.9 138.36 34.32 138.22 34.82C137.81 36.15 137.16 37.49 136.29 38.82L136.91 38.75C137.09 38.75 137.46 38.8 138.01 38.89L146.35 40.41L146.97 40.55C147.52 40.73 147.94 40.89 148.21 41.03C149.08 41.49 149.76 42.13 150.24 42.96C150.72 43.79 150.96 44.66 150.96 45.58C150.96 46.5 150.78 47.23 150.41 47.92C149.95 48.84 149.31 49.54 148.48 50.02C147.65 50.5 146.76 50.74 145.79 50.74C144.92 50.74 144.14 50.56 143.45 50.19C142.85 49.87 142.3 49.43 141.8 48.88L141.46 48.54L135.95 42.82C135.31 42.18 134.92 41.51 134.78 40.82C133.12 42.66 131.18 44.21 128.95 45.47C126.72 46.73 123.88 48.12 120.44 49.64L119.2 50.19C118.51 50.47 117.89 50.6 117.34 50.6C116.24 50.6 115.27 50.12 114.44 49.15L113.41 47.98C113 47.52 112.79 47.01 112.79 46.46H112.78ZM146.14 0H147.45C148.46 0 149.26 0.24 149.86 0.72C150.46 1.2 150.76 1.86 150.76 2.68C150.76 3 150.74 3.26 150.69 3.44L148.76 12.2C148.53 13.26 148.13 14.04 147.55 14.54C146.97 15.05 146.16 15.3 145.1 15.3H143.79C142.78 15.3 141.97 15.06 141.38 14.58C140.78 14.1 140.48 13.44 140.48 12.62C140.48 12.25 140.5 11.98 140.55 11.79L141.45 7.86H116.77C115.67 7.86 114.82 7.57 114.22 7C113.62 6.43 113.32 5.61 113.32 4.55V3.24C113.32 2.18 113.62 1.38 114.22 0.83C114.82 0.28 115.67 0 116.77 0L146.14 0ZM114.23 17.58C114.83 16.98 115.68 16.68 116.78 16.68H147.66C148.76 16.68 149.61 16.98 150.21 17.58C150.81 18.18 151.11 19.03 151.11 20.13V21.51C151.11 22.61 150.81 23.46 150.21 24.06C149.61 24.66 148.76 24.96 147.66 24.96H136.29V26.55C136.29 27.65 135.99 28.5 135.39 29.1C134.79 29.7 133.94 30 132.84 30H131.46C130.36 30 129.51 29.7 128.91 29.1C128.31 28.5 128.01 27.65 128.01 26.55V24.96H116.77C115.67 24.96 114.82 24.66 114.22 24.06C113.62 23.46 113.32 22.61 113.32 21.51V20.13C113.32 19.03 113.62 18.18 114.22 17.58H114.23Z" fill="black"/>
<path d="M176.82 0.83C177.42 0.28 178.27 0 179.37 0H210.25C211.35 0 212.2 0.28 212.8 0.83C213.4 1.38 213.7 2.16 213.7 3.17V3.79C213.7 4.8 213.4 5.58 212.8 6.13C212.2 6.68 211.35 6.96 210.25 6.96H179.37C178.27 6.96 177.42 6.68 176.82 6.13C176.22 5.58 175.92 4.8 175.92 3.79V3.17C175.92 2.16 176.22 1.38 176.82 0.83ZM176.82 13.72C177.42 13.17 178.27 12.89 179.37 12.89H182.47L182.13 11.03C182.08 10.85 182.06 10.57 182.06 10.2C182.06 9.37 182.34 8.73 182.89 8.27C183.44 7.81 184.22 7.58 185.23 7.58H186.54C188.65 7.58 189.89 8.52 190.26 10.41L190.74 12.89H198.87L199.35 10.41C199.67 8.53 200.91 7.58 203.07 7.58H204.38C205.39 7.58 206.17 7.81 206.72 8.27C207.27 8.73 207.55 9.37 207.55 10.2C207.55 10.57 207.53 10.84 207.48 11.03L207.14 12.89H210.24C211.34 12.89 212.19 13.17 212.79 13.72C213.39 14.27 213.69 15.05 213.69 16.06V16.68C213.69 17.69 213.39 18.47 212.79 19.02C212.19 19.57 211.34 19.85 210.24 19.85H179.36C178.26 19.85 177.41 19.57 176.81 19.02C176.21 18.47 175.91 17.69 175.91 16.68V16.06C175.91 15.05 176.21 14.27 176.81 13.72H176.82ZM176.82 21.61C177.42 21.08 178.27 20.82 179.37 20.82H210.25C211.35 20.82 212.2 21.08 212.8 21.61C213.4 22.14 213.7 22.91 213.7 23.92V25.16C213.7 26.17 213.4 26.95 212.8 27.5C212.2 28.05 211.35 28.33 210.25 28.33H179.37C178.27 28.33 177.42 28.05 176.82 27.5C176.22 26.95 175.92 26.17 175.92 25.16V23.92C175.92 22.91 176.22 22.14 176.82 21.61ZM212.8 45.12C213.4 45.65 213.7 46.42 213.7 47.43C213.7 48.44 213.4 49.22 212.8 49.77C212.2 50.32 211.35 50.6 210.25 50.6H179.37C178.27 50.6 177.42 50.32 176.82 49.77C176.22 49.22 175.92 48.44 175.92 47.43V41.36C175.92 40.99 175.94 40.72 175.99 40.53C175.94 40.44 175.92 40.23 175.92 39.91C175.92 39.13 176.22 38.52 176.82 38.08C177.42 37.64 178.27 37.43 179.37 37.43H205.43V35.57H179.37C178.27 35.57 177.42 35.29 176.82 34.74C176.22 34.19 175.92 33.41 175.92 32.4C175.92 31.39 176.22 30.62 176.82 30.09C177.42 29.56 178.27 29.3 179.37 29.3H210.25C211.35 29.3 212.2 29.57 212.8 30.09C213.4 30.62 213.7 31.39 213.7 32.4L213.63 33.02C213.68 33.16 213.7 33.36 213.7 33.64V39.91C213.7 41.56 212.55 42.39 210.25 42.39H184.19V44.32H210.25C211.35 44.32 212.2 44.58 212.8 45.11V45.12Z" fill="black"/>
<path d="M222.94 20.16C223.54 19.59 224.39 19.3 225.49 19.3H230.73C230.27 18.79 230.04 18.04 230.04 17.03V8.40999H225.49C224.39 8.40999 223.54 8.10999 222.94 7.50999C222.34 6.90999 222.04 6.05999 222.04 4.95999V3.43999C222.04 2.33999 222.34 1.48999 222.94 0.88999C223.54 0.28999 224.39 -0.0100098 225.49 -0.0100098H235C236.1 -0.0100098 236.95 0.28999 237.55 0.88999C238.15 1.48999 238.45 2.33999 238.45 3.43999V17.02C238.45 18.31 238.04 19.27 237.21 19.92C238.04 20.47 238.45 21.41 238.45 22.75V24.13C238.45 25.23 238.15 26.08 237.55 26.68C236.95 27.28 236.1 27.58 235 27.58H230.24V40.26L236.86 38.54C237.14 38.45 237.53 38.4 238.03 38.4C238.86 38.4 239.51 38.67 239.99 39.19C240.47 39.72 240.71 40.49 240.71 41.5V42.74C240.71 44.72 239.72 45.98 237.75 46.53L225.82 49.63C225.54 49.72 225.18 49.77 224.72 49.77C223.85 49.77 223.17 49.49 222.69 48.94C222.21 48.39 221.97 47.61 221.97 46.6L222.04 22.75C222.04 21.6 222.34 20.74 222.94 20.16ZM239.41 21.72C240.01 21.12 240.86 20.82 241.96 20.82H243.55V3.44999C243.55 2.34999 243.85 1.49999 244.45 0.89999C245.05 0.29999 245.9 -9.76585e-06 247 -9.76585e-06H248.38C249.48 -9.76585e-06 250.33 0.29999 250.93 0.89999C251.53 1.49999 251.83 2.34999 251.83 3.44999V47.16C251.83 48.26 251.53 49.11 250.93 49.71C250.33 50.31 249.48 50.61 248.38 50.61H247C245.9 50.61 245.05 50.31 244.45 49.71C243.85 49.11 243.55 48.26 243.55 47.16V29.1H241.96C240.86 29.1 240.01 28.8 239.41 28.2C238.81 27.6 238.51 26.75 238.51 25.65V24.27C238.51 23.17 238.81 22.32 239.41 21.72ZM254.79 0.89999C255.39 0.29999 256.24 -9.76585e-06 257.34 -9.76585e-06H258.72C259.82 -9.76585e-06 260.67 0.29999 261.27 0.89999C261.87 1.49999 262.17 2.34999 262.17 3.44999V47.16C262.17 48.26 261.87 49.11 261.27 49.71C260.67 50.31 259.82 50.61 258.72 50.61H257.34C256.24 50.61 255.39 50.31 254.79 49.71C254.19 49.11 253.89 48.26 253.89 47.16V3.44999C253.89 2.34999 254.19 1.49999 254.79 0.89999Z" fill="black"/>
<path d="M269.3 10.69C269.92 7.15 271.05 4.5 272.68 2.73C274.31 0.96 276.67 0.08 279.75 0.08C282.83 0.08 285.17 0.95 286.78 2.7C288.39 4.45 289.48 7.08 290.05 10.59C290.62 14.11 290.91 18.94 290.91 25.1C290.91 31.26 290.62 36.2 290.05 39.78C289.47 43.36 288.38 46.08 286.78 47.91C285.17 49.75 282.83 50.67 279.75 50.67C276.67 50.67 274.32 49.77 272.68 47.98C271.05 46.19 269.92 43.48 269.3 39.85C268.68 36.22 268.37 31.3 268.37 25.1C268.37 18.9 268.68 14.23 269.3 10.69ZM277.29 38.67C277.73 41.61 278.54 43.08 279.74 43.08C280.84 43.08 281.6 41.61 282.02 38.67C282.43 35.73 282.64 31.2 282.64 25.09C282.64 18.98 282.43 14.77 282.02 11.92C281.61 9.07 280.85 7.65 279.74 7.65C278.54 7.65 277.73 9.09 277.29 11.96C276.85 14.83 276.64 19.21 276.64 25.09C276.64 30.97 276.86 35.73 277.29 38.67ZM299.11 0.9C299.71 0.3 300.56 0 301.66 0H303.04C304.14 0 304.99 0.3 305.59 0.9C306.19 1.5 306.49 2.35 306.49 3.45V47.16C306.49 48.26 306.19 49.11 305.59 49.71C304.99 50.31 304.14 50.61 303.04 50.61H301.66C300.56 50.61 299.71 50.31 299.11 49.71C298.51 49.11 298.21 48.26 298.21 47.16V3.45C298.21 2.35 298.51 1.5 299.11 0.9Z" fill="black"/>
<path d="M312.69 25.16C312.69 24.47 313.05 23.75 313.76 22.99C314.47 22.23 315.49 21.49 316.83 20.75C321.38 18.22 324.85 15.52 327.24 12.65C329.63 9.78 331.4 6.53 332.55 2.9C333.1 0.97 334.37 0 336.34 0H338.34C339.35 0 340.13 0.23 340.68 0.69C341.23 1.15 341.51 1.82 341.51 2.69C341.51 3.2 341.46 3.59 341.37 3.86C340.22 8.13 338.38 12.04 335.86 15.58H336.27C336.68 15.58 337.17 15.65 337.72 15.79L348.34 19.17C348.71 19.26 348.94 19.38 349.03 19.51L349.44 19.79C350.17 20.34 350.75 21.01 351.16 21.79C351.57 22.57 351.78 23.4 351.78 24.27C351.78 25.42 351.44 26.48 350.75 27.44C350.2 28.18 349.52 28.75 348.72 29.16C347.92 29.57 347.08 29.78 346.2 29.78C345.05 29.78 344.02 29.46 343.1 28.82C342.73 28.59 342.39 28.27 342.07 27.85L342 27.78L335.45 19.03C334.94 18.39 334.69 17.79 334.69 17.24C331.01 21.84 326 25.83 319.66 29.24C319.02 29.56 318.37 29.72 317.73 29.72C316.72 29.72 315.8 29.28 314.97 28.41L313.45 26.82C312.94 26.31 312.69 25.76 312.69 25.17V25.16ZM316 50.26C315.4 49.66 315.1 48.81 315.1 47.71V46.33C315.1 45.23 315.4 44.38 316 43.78C316.6 43.18 317.45 42.88 318.55 42.88H349.43C350.53 42.88 351.38 43.18 351.98 43.78C352.58 44.38 352.88 45.23 352.88 46.33V47.71C352.88 48.81 352.58 49.66 351.98 50.26C351.38 50.86 350.53 51.16 349.43 51.16H318.55C317.45 51.16 316.6 50.86 316 50.26Z" fill="black"/>
</g>
<defs>
<clipPath id="clip0_247_914">
<rect width="352.88" height="148.76" fill="white"/>
</clipPath>
</defs>
</svg>