<svg xmlns="http://www.w3.org/2000/svg" id="_레이어_1" viewBox="0 0 340.99 363.72"><defs><style>.cls-1,.cls-2{stroke-width:0px;}.cls-1,.cls-3{fill:#e5e5e5;}.cls-3{stroke:#000;stroke-miterlimit:10;stroke-width:.5px;}.cls-4{fill:#f0734b;font-family:NanumSquareB, NanumSquare;font-size:10px;}</style></defs><path class="cls-3" d="m141.17,29.34c-.1.47-.04.96.16,1.39.34.74,1.09,1.89,2.65,2.92.5.33.61,1.04.23,1.51-.13.16-.3.34-.51.54,0,0-2.19,1.69-1.85,3.43.11.54.57.93,1.1,1.07,1.04.28,3.14,1.1,3.39,3.26,0,0,.47,1.9,1.45,3.04.34.4.3,1.03-.1,1.37-.42.35-1.06.56-3,.79,0,0-1.51.26.85,1.52.39.21.49.73.18,1.05-.35.36-1.05.85-2.36,1.5-.28.14-.39.44-.54.71-.84,1.4,1.18,2.2,2.14,3.94,0,0,2.16,2.8-.79,3.13-.34.04-.67.21-.92.46l-2.47,2.66c-.25.27-.39.62-.4.98v.7c0,.48-.24.92-.61,1.21l-1.19.92c-.25.2-.42.5-.43.83,0,.4.07,1.18.52,1.68,0,0,4.47,4.6,4.53,10.29,0,0,.29,3.02-4.14.95-.08-.03-.17-.06-.26-.06l-2.07-.07c-.27,0-.53.09-.72.28-.95.94-4.33,4.02-11.4,7.82-.49.26-.81.78-.74,1.33.07.49.36,1.12,1.18,1.81,0,0,.83,1-1.64,1-.46,0-.93.18-1.2.32-1.1.56-3.16,2.13-3.7.55,0,0-.99-6.39-4.69-.64-.28.44-.41.96-.39,1.49.04.89.07,2.5-.13,4.22-4.9-4.36-12.66-5.7-12.66-5.7-1.6-.21-2.96-.97-3.61-2.49-.57-1.33-.57-2.85-.34-4.26.18-1.13.5-2.22.88-3.3.59-1.65,1.19-3.37,1.89-4.96,1.22-2.77,2.8-5.4,4.46-7.93,1.54-2.36,3.16-4.67,4.85-6.93.75-1,1.5-2,2.28-2.96.53-.7,1.02-1.43,1.46-2.19.68-1.2,1.26-2.49,1.07-3.89-.05-.44-.13-.87-.22-1.3-.35-1.72-.94-3.38-1.76-4.94-.68-1.29-1.51-2.48-2.47-3.57-.75-.84-1.57-1.62-2.45-2.3-.89-.69-1.85-1.39-2.84-1.89-1.28-.65-2.82-.75-4.23-.77-.82,0-1.65.02-2.46.12-.71.02-1.42.18-2.09.38-1.63.49-3.16,1.26-4.63,2.08-.62.34-1.22.71-1.82,1.08-.28.17-.56.33-.83.53-.25.19-.5.39-.8.5-.58.2-1.31.06-1.9-.02-1.83-.25-3.61-.8-5.26-1.63-1.26-.64-2.43-1.43-3.48-2.35-.71-.63-1.37-1.32-1.93-2.07-.16-.22-.44-.14-.68-.14h-.85c-.55,0-1.11,0-1.66,0h-5.73c-3.67,0-5.18-2.95-5.18-2.95,0,0,.1-.16.17-.46.25-.98-.21-1.99-1.05-2.54-.52-.36-1.02-.78-1.43-1.27-.43-.5-.96-1.18-.9-1.89.04-.38.24-.76.58-.95.33-.18.74-.19,1.11-.14.67.09,1.35.13,2.02,0,1.74-.37,3.8-1.44.11-5.48-.26-.28-.31-.71-.1-1.03.42-.65,1-.98,4.37.9.77.42,1.68.41,2.46.03.97-.47,2.18-.73,1.95-4.5,0-.17-.05-.33-.07-.49-.05-.43-.07-.86-.07-1.29,0-1.28.22-2.57.75-3.75.38-.84.98-1.62,1.55-2.34.57-.71,1.22-1.38,1.95-1.93.82-.61,1.8-1.09,2.83-1.12.88-.03,1.73.27,2.43.78.35.24.8.32,1.17.11.33-.19.73-.52,1.12-1.11.22-.32.59-.52.98-.52h1.45c.57,0,.95-.1,1.3-.28l3.96-2.14c.75-.41,1.58-.62,2.42-.62l1.4-.05c.27,0,.55-.06.81-.14,1.03-.34,3.76-1.29,5.42-2.5.34-.24.75-.35,1.16-.35h3.81c.9,0,1.42.21,1.81.6,1.78,1.73,7.01,6.66,9.54,6.73l2.14-.07c.32,0,.62-.14.85-.38,1.02-1.07,4.27-3.26,4.3,3.18,0,.34.2.65.52.78.22.09.76.22,1.07.26.47.06.92-.2,1.14-.61.97-1.9,4-7.4,5.82,1.47.07.31.2.6.4.84.33.4,1.14,1.19,1.93,1.14,1.23-.09,1.34-.5,1.12-1.31-.22-.8-.59-2.11-.95-2.88-.13-.29-.2-.59-.2-.91l-.06-1.74c0-.61.33-1.17.87-1.42.72-.33,1.72-.24,2.01,1.78,0,0,.43,3.57,2.85.05,0,0,.55-.76,1.52.53.21.29.49.51.82.66,1.02.46,2.99,1.59.66,2.68-.54.26-.99.7-1.18,1.28-.13.41-.2,1.12-.35,1.86-.08.41-.29.78-.61,1.06-.31.29-.66.55-.97.84-.36.34-.73.65-.72,1.17v.58c0,.16-.04.35,0,.51.1.59,1,.05,1.23-.1.56-.38,1.14-.7,1.81-.85.5-.11,1.04-.11,1.53.09.28.11.52.28.73.49.25.25.43.54.71.76.14.1.27.22.39.34.34.33.64.71.87,1.13.59,1.07.56,2.29.02,3.39,0,0-1.19,2.88.54,4.4,0,0,4.5,2.69,1.91,4.18,0,0-1.87,1.11-3.87-3.6,0,0-2.25-3.05-2.95.2Z"/><text class="cls-4" transform="translate(102.97 33.81)"><tspan x="0" y="0">설천면</tspan></text><path class="cls-3" d="m115.36,127.5c-.6.28-1.13.71-1.55,1.22-.44.54-.53,1.1-.65,1.77-.34,1.83-1.93,3.12-3.45,3.99-.45.25-.95.4-1.46.43-1.56.1-3.12.12-4.67-.04-1.96-.21-4.95-.71-5.82-2.79-.26-.63-.46-1.14-1.04-1.57-1.1-.81-2.57-1.07-3.9-1.18-1.39-.11-2.78-.03-4.17.1-1.11.09-2.2.24-3.3.42-1.22.19-2.52.34-3.68.78-.68.25-1.28.68-1.92,1.02-1.29.68-2.63,1.26-4.01,1.71-2.15.71-4.43,1.14-6.69,1.17-.94.02-1.84-.24-2.67-.66-2.82-1.4-7.45-1.49-7.45-1.49-.32-2.56.16-5.22.79-7.7.35-1.35.76-2.67,1.22-3.98.23-.66.48-1.31.74-1.96.23-.56.43-1.15.74-1.69.26-.46.64-.74.99-1.12,1.07-1.15,2-2.52,2.27-4.09.29-1.59,0-3.23-.41-4.78-.4-1.52-1.04-2.96-1.88-4.28-1.15-1.8-2.64-3.36-4.31-4.68-1.42-1.13-2.95-2.09-4.56-2.89-.6-.3-1.22-.59-1.84-.85-.99-.41-1.99-.67-3.04-.87-.84-.15-1.67-.35-2.48-.55-1.64-.4-3.25-.86-4.87-1.35-1.14-.35-2.27-.71-3.41-1.09-.74-.24-1.45-.59-2.21-.71-.78-.13-1.57-.1-2.34-.1h-7.24c.04-.44.04-.89.02-1.32,0-.28.34-.66.48-.89.25-.38.5-.76.75-1.15.51-.79,1.02-1.59,1.53-2.37.13-.2.27-.4.4-.6,0,0,1.6-2.27-3.47-2.76h-2.47c-.32,0-.66.07-.97-.03-.18-.06-.35-.18-.51-.27-.37-.2-.73-.41-1.08-.64-.84-.53-1.69-1.15-2.29-1.94-.52-.68-.79-1.53-.2-2.25.04-.05.09-.11.14-.16.19-.18.53-.2.76-.13.31.09.55.34.73.59.36.51.58,1.12.76,1.71.04.13.07.25.1.38,0,0,0,.02.02.03,0,0,.03,0,.04,0,1,0,2.01,0,3,0,.43,0,.85,0,1.28,0,.03,0,.06,0,.08,0,.02,0,.04-.03.05-.04.44-.44.76-.98.8-1.61.06-1.06-.71-1.94-1.49-2.55-.24-.19-.49-.35-.74-.52-.02,0-.03-.02-.04-.04,0,0,0-.03,0-.04.11-.44.23-.87.26-1.32.04-.55,0-1.26-.54-1.57-.03,0-.05-.03-.08-.05-.14-.11-.24-.31-.38-.45-.1-.1-.21-.19-.34-.26-.29-.15-.6-.12-.85.1-.38.32-.57.86-.72,1.33,0,.04-.24.08-.28.09-.16.04-.36.07-.52,0-.22-.11-.27-.36-.26-.58,0-.55.26-1.11.49-1.6.06-.13.12-.26.18-.38.06-.13-.12-.44-.17-.57-.07-.22-.14-.45-.19-.68-.1-.49-.12-1.06.13-1.52.34-.61,1.08-.77,1.73-.77.35,0,.71.04,1.06.1.18.03.35.07.53.11.17.04.32.03.43.18.13.17.21.39.33.57.15.22.31.43.49.63.25.27.53.52.84.73.15.11.31.21.47.29.12.06.4.08.44.22,0,.03,0,.06,0,.08-.02.45-.08.9-.19,1.34-.06.23-.12.45-.2.66-.07.21-.21.43-.19.65.06.82.12,1.66.35,2.45.11.39.4,1.18.91.74.21-.17.36-.43.49-.67.24-.44.43-.9.61-1.37.13-.35.54-.66.85-.81.96-.45,1.99.14,2.7.75.12.1.23.21.34.31.09.08.2.25.31.28.03,0,.05,0,.08,0,.84.05,1.69.07,2.52.04,1.02-.03,2.06-.12,3.04-.36.76-.19,1.68-.5,2.12-1.2.09-.14.18-.3.15-.48,0-.07-.05-.15-.08-.23-.05-.17-.11-.35-.17-.52-.19-.52-.39-1.04-.61-1.55-.24-.55-.5-1.09-.79-1.61-.2-.37-.45-.71-.69-1.05-.07-.09-.3-.34-.23-.42,0-.02.08-.04.1-.05.26-.11.51-.26.74-.42.66-.47,1.19-1.18,1.07-2.03-.09-.61-.46-1.11-.84-1.57,0,0-.03-.03-.04-.04-.08-.16.03-.56.1-.72.07-.17.18-.33.36-.37.28-.07.57.13.78.29.27.2.51.44.74.7.11.13.22.26.33.4.07.09.18.31.29.35.02,0,.03,0,.05,0,.67.08,1.62.23,1.96.91.2.41.06.87-.16,1.25-.11.2-.25.38-.4.56-.15.17-.33.31-.37.55-.07.51-.1,1.07.07,1.57.17.5.56.84,1.08.93.97.18,2.02-.26,2.87-.66.4-.18.78-.39,1.17-.6.1-.05.18-.09.29-.11.2-.05.4-.1.61-.14.78-.17,1.58-.31,2.36-.43,1.16-.17,2.32-.29,3.5-.36,1.37-.07,2.74-.07,4.11.04,1.43.11,2.85.34,4.23.75.24.07.49.15.74.24.28.1.53.19.84.2.12,0,.24,0,.36,0,.31-.02.61-.07.91-.16.73-.21,1.34-.69,1.6-1.43.23-.65.18-1.37.04-2.05,0-.02,0-.04-.02-.05,0-.02-.03-.03-.05-.04-.69-.32-1.36-.68-2.03-1.05-.98-.55-1.94-1.15-2.84-1.82-.91-.67-1.8-1.42-2.48-2.31-.2-.26-.38-.52-.52-.81-.17-.35-.25-.64-.25-1.03v-2.14s0-.04,0-.05-.02,0-.03-.02c-.17-.04-.35,0-.52,0-.22,0-.44.02-.66.04-.21.02-.41.05-.61.09-.19.03-.4.12-.59.12-.58.14-1.15.33-1.71.55-.29.11-.57.23-.84.36-.15.07-.28.16-.42.22-.15.06-.27.05-.43.05-.24,0-.48,0-.71-.02-.45-.04-1.08-.07-1.43-.38-.46-.42.3-.99.6-1.21.35-.26.72-.48,1.1-.68.25-.14.5-.26.75-.39.6-.31,1.29-.34,1.92-.58.49-.18,1.04-.46,1.29-.95.33-.65-.07-1.36-.48-1.86-.54-.66-1.24-1.27-1.96-1.72-.02-.02-.05-.03-.07-.04-.18-.08-.5-.04-.71-.05-.25,0-.5-.02-.76-.03-.52-.03-1.04-.05-1.57-.08-.11,0-.22,0-.33-.02-.09,0-.21.02-.3,0-.28-.11-.34-.62-.31-.87.08-.54.47-1,.85-1.37.87-.83,1.96-1.43,3.01-1.97.13-.06.25-.12.37-.18.11-.05.31-.1.39-.18l.35-.35s.04-.04.05-.06c.07-.12,0-.42,0-.56-.02-.21-.03-.42-.04-.63-.02-.24-.03-.49-.05-.73,0-.02,0-.03,0-.04,0,0-.02,0-.03,0-.28-.04-.55-.07-.81-.14-.27-.08-.55-.17-.78-.33-.62-.41-.54-1.05-.17-1.61.37-.55.88-.98,1.39-1.38,0,0,.03-.03.05-.03.13-.06.46.02.61.03.22,0,.44.02.66.02.52,0,1.04,0,1.55-.08.3-.04.61-.11.89-.25.11-.05.21-.12.29-.21.08-.08.09-.17.15-.27,0,0,1.51,2.95,5.18,2.95h5.73c.55,0,1.11,0,1.66,0h.85c.24,0,.52-.08.68.14.56.75,1.22,1.44,1.93,2.07,1.05.93,2.22,1.72,3.48,2.35,1.65.83,3.43,1.38,5.26,1.63.59.08,1.32.22,1.9.02.3-.11.55-.31.8-.5.27-.2.55-.36.83-.53.6-.37,1.2-.74,1.82-1.08,1.47-.82,3-1.59,4.63-2.08.67-.2,1.38-.36,2.09-.38.82-.1,1.65-.12,2.46-.12,1.41.02,2.95.12,4.23.77,1,.5,1.96,1.2,2.84,1.89.89.69,1.71,1.47,2.45,2.3.97,1.09,1.8,2.28,2.47,3.57.82,1.56,1.41,3.22,1.76,4.94.09.43.17.86.22,1.3.19,1.4-.39,2.69-1.07,3.89-.44.77-.93,1.5-1.46,2.19-.79.97-1.54,1.97-2.28,2.96-1.69,2.26-3.31,4.57-4.85,6.93-1.66,2.53-3.24,5.16-4.46,7.93-.7,1.59-1.3,3.31-1.89,4.96-.38,1.08-.7,2.17-.88,3.3-.23,1.41-.23,2.93.34,4.26.65,1.53,2.02,2.28,3.61,2.49,0,0,7.76,1.34,12.66,5.7-.31,2.75-1.2,5.75-3.51,6.36-.38.1-.71.36-.78.75-.11.66-.06,2.02,1.12,4.36.1.2.18.41.23.62.32,1.27,1.61,6.06,3.37,8.04.3.34.48.75.55,1.19.15.97.24,2.71.37,4.62.02.32.08.63.16.93.1.36.27.86.54,1.45Z"/><text class="cls-4" transform="translate(65.1 98.2)"><tspan x="0" y="0">고현면</tspan></text><path class="cls-3" d="m88.66,215.65c-.09.88-.31,1.74-.66,2.55-.29.67-.66,1.31-1.09,1.9-.44.6-.9,1.25-1.63,1.49-1.6.52-3.48.23-5.08-.13-1.48-.32-2.92-.79-4.33-1.35-1.42-.55-2.73-1.37-4.27-1.58-.62-.09-1.25-.11-1.87-.06-1.78.14-3.43.9-4.73,2.11-.84.79-1.52,1.74-2.07,2.74-.32.6-.55,1.25-.93,1.82-.12.18-.36.44-.52.59-.8.69-1.79,1.09-2.82,1.29-1.12.2-2.26.14-3.37-.08-.61-.11-1.22-.27-1.81-.49-.39-.16-.78-.33-1.2-.42-.28-.06-.57-.05-.85-.02-1.16.12-2.27.37-3.33.76-2.05.76-3.91,1.98-5.49,3.48-1.28,1.23-2.37,2.63-3.3,4.14-.02-.02-.05-.03-.07-.05-.64-.45-1.22-1.01-1.63-1.69-.1-.17-.2-.35-.28-.54-.06-.15-.1-.42-.23-.52-.41-.32-.87-.59-1.3-.88-.47-.32-.94-.63-1.41-.95-.03-.03.07-.59.07-.68.02-.24.04-.48.04-.72.02-.6,0-1.2-.08-1.79-.09-.73-.27-1.43-.65-2.05,0-.02-.03-.04-.03-.06-.02-.09.1-.31.13-.41.05-.14.1-.28.15-.42.19-.58.33-1.16.47-1.76.2-.92.36-1.85.41-2.79.07-1.32-.04-2.68-.47-3.94-.09-.26-.19-.52-.31-.76-.1-.22-.21-.42-.31-.63-.02-.03-.03-.06-.06-.08-.12-.1-.45-.15-.61-.21-.2-.07-.4-.16-.59-.25-.59-.29-1.16-.7-1.45-1.32-.1-.21-.14-.45-.12-.68.07-.96.8-1.74,1.47-2.34.35-.31.71-.59,1.09-.86.22-.16.44-.31.67-.46.12-.08.24-.16.37-.23.12-.08.29-.15.39-.25.17-.16.26-.43.12-.64-.14-.23-.45-.33-.69-.4-.6-.17-1.23-.18-1.85-.2-.05,0-.07-.95-.07-1.02,0-.25-.02-.51-.03-.76,0-.31.03-.57-.19-.81-.1-.12-.22-.23-.35-.31-.43-.26-.93-.25-1.4-.11-.19.07-.37.15-.55.25-.22.12-.38.19-.63.2h-.29c-.25,0-.5,0-.76-.04-.81-.09-1.62-.35-2.23-1-.16-.17-.29-.37-.37-.59-.32-.81-.27-1.67-.05-2.48.09-.36.18-.72.35-1.06.1-.23.26-.41.38-.63.09-.16.16-.33.21-.51.13-.53.03-1.09-.2-1.58-.43-.9-1.22-1.6-2-2.18-.36-.27-.74-.51-1.12-.75-.19-.12-.39-.23-.59-.34-.31-.19-.7-.17-1.04-.32-.33-.14-.64-.33-.92-.55-.45-.35-.86-.76-1.23-1.2-.57-.65-1.07-1.35-1.54-2.08-.66-1.03-1.25-2.11-1.8-3.2-.64-1.28-1.23-2.57-1.78-3.89-.11-.26-.22-.52-.34-.79-.29-.67-.59-1.33-.9-2-.42-.9-.84-1.8-1.28-2.68-.47-.96-.95-1.92-1.46-2.84-.46-.85-.94-1.68-1.47-2.47-.21-.31-.43-.62-.67-.91-.12-.15-.25-.29-.38-.43-.1-.1-.31-.22-.35-.35,0-.03,0-.05,0-.07-.03-.47,0-.95,0-1.42v-3.74c-.03-.06-.1-.12-.14-.17-.08-.08-.14-.18-.21-.27-.27-.38-.51-.79-.7-1.21-.54-1.2-.7-2.54-.19-3.77.07-.17.18-.31.23-.48.09-.31,0-.6-.02-.91-.02-.37-.05-.74-.07-1.11-.06-.96-.12-1.92-.18-2.87-.05-.95-.11-1.89-.17-2.83-.03-.37-.05-.74-.07-1.11-.02-.38-.04-.68-.22-1.02-.1-.18-.2-.37-.3-.55-.3-.52-.63-1.01-1-1.48-.5-.61-1.07-1.18-1.77-1.56-.1-.06-.2-.17-.28-.24-.23-.21-.45-.42-.65-.65-.51-.56-1.01-1.22-1.18-1.97-.19-.89.29-1.6,1.04-2.04.27-.15.54-.31.84-.4.26-.07.53-.03.8-.02.22,0,.45.02.68.02.11,0,.23,0,.35,0,.16,0,.19.02.2-.15.03-.49.03-.98.03-1.48,0-.44.07-.86-.11-1.28-.15-.39-.41-.76-.78-.96-.24-.14-.52-.17-.8-.11-.18.04-.34.11-.5.19-.25.14-.42.28-.71.3-.09,0-.17,0-.26,0-.19,0-.38,0-.57-.05-.42-.11-.67-.41-.63-.85.04-.36.21-.71.38-1.02.32-.56.73-1.08,1.15-1.57.23-.27.49-.5.73-.75.06-.06.11-.13.16-.2.14-.21.26-.45.35-.69.37-.9.49-1.89.55-2.84.02-.38.03-.75.03-1.13,0-.35.05-.74-.04-1.09-.06-.24-.22-.47-.32-.7-.11-.25-.21-.51-.28-.78-.05-.2-.13-.6.17-.64.19-.02.41.1.57.19.36.2.69.46,1.01.72.41.33.8.67,1.19,1.02.27.25.57.49.79.79.11.16.2.33.31.49.12.19.27.37.43.53.32.33.75.63,1.24.58.73-.08,1.22-.81,1.55-1.39.41-.72.68-1.51.94-2.28.02-.05.03-.09.04-.14.02-.21-.02-.45,0-.67,0-.21,0-.42.02-.64.04-.54.11-1.09.23-1.63.13-.57.31-1.14.56-1.67.13-.27.27-.52.44-.77.13-.19.31-.35.43-.56.14-.24.08-.48.05-.74-.03-.23-.08-.46-.16-.69-.08-.26-.21-.51-.37-.73-.08-.12-.18-.23-.28-.33-.09-.09-.25-.27-.37-.3-.27-.07-.53-.18-.78-.28-.45-.18-.91-.39-1.3-.69-.26-.21-.53-.54-.24-.85.19-.21.5-.32.76-.41.53-.18,1.08-.27,1.62-.36.48-.07.97-.12,1.45-.17.04,0,.03-.76.03-.82,0-.5.02-.99.04-1.49,0-.3,0-.6.02-.9,0-.02,0-.04,0-.07.03-.15.23-.32.33-.44.11-.12.21-.24.32-.36.27-.29.56-.57.86-.83.53-.45,1.27-.99,2.02-.87.33.06.61.27.8.54.14.19.24.4.32.61.06.17.11.33.15.5.02.09,0,.34.12.38.02,0,.04,0,.06,0,.96,0,1.91,0,2.86,0,.46,0,.92,0,1.38,0,.23,0,.46,0,.69,0,.16,0,.45.05.59-.03.17-.1.23-.41.31-.58.14-.28.28-.56.42-.84.31-.63.6-1.27.85-1.92.39-1.01.77-2.04.98-3.1.16-.74.27-1.55.08-2.28-.15-.62-.57-1.08-1.2-1.22-.09-.02-.19-.04-.29-.04-.32,0-.65-.05-.96-.12-.55-.12-1.14-.33-1.49-.79-.5-.64-.22-1.49.14-2.12.11-.19.23-.38.35-.56.18-.24.36-.39.38-.7.02-.23.04-.46.06-.69.03-.34.06-.68.09-1.02,0-.11.41-.13.52-.15.24-.05.48-.09.72-.14.43-.08.86-.16,1.29-.24.03,0,.07,0,.11-.02.36-.07.58-.54.69-.84.13-.35.2-.72.23-1.1h7.24c.72,0,1.45-.03,2.18.07.36.05.72.16,1.06.28,1.69.59,3.38,1.12,5.07,1.64,1.5.46,3.01.87,4.53,1.24.81.2,1.63.4,2.46.54.89.16,1.77.36,2.61.69.77.3,1.55.66,2.29,1.03,1.61.81,3.14,1.77,4.56,2.89,1.67,1.32,3.16,2.88,4.31,4.68.84,1.32,1.48,2.76,1.88,4.28.42,1.55.7,3.19.41,4.78-.28,1.57-1.21,2.94-2.27,4.09-.35.38-.73.66-.99,1.12-.31.54-.51,1.13-.74,1.69-.26.65-.51,1.3-.74,1.96-.46,1.31-.87,2.63-1.22,3.98-.63,2.48-1.11,5.14-.79,7.7-.23,1.27-.37,2.58-.5,3.84-.15,1.58-.22,3.16-.19,4.74.04,1.95.19,4.03.98,5.85.17.4.38.8.65,1.15.63.84,1.72,1.17,2.63,1.63.83.42,1.65.86,2.45,1.32,1.99,1.13,3.91,2.39,5.61,3.93,1.05.94,2.04,1.99,2.7,3.23.78,1.46.68,2.98.62,4.58-.04,1.06-.12,2.12-.17,3.17-.12,2.41-.23,4.83-.24,7.24,0,.91-.12,1.68.32,2.51.93,1.78,1.88,3.54,2.73,5.37,1.4,2.97,2.69,6.03,3.57,9.18.28,1.02.47,2.08.56,3.14.05.53.06,1.03,0,1.53-.04.3-.17.56-.13.87.06.46.3.91.45,1.35.19.55.4,1.1.6,1.64.42,1.11.85,2.21,1.3,3.3.5,1.25,1.03,2.49,1.62,3.7.34.7.77,1.36,1.24,1.98,1.42,1.88,2.61,3.9,2.91,6.29.07.58.07,1.17.02,1.75Z"/><text class="cls-4" transform="translate(30.84 167.6)"><tspan x="0" y="0">서면</tspan></text><path class="cls-3" d="m145.39,178.94c-.64,1.88-3.08,3.36-4.64,4.42-1.52,1.02-3.33,1.47-4.83,2.52-1.43,1.01-2.54,2.39-3.97,3.41-1.55,1.11-3.18,2.05-4.98,2.68-1.24.43-2.54.52-3.77.99-1.62.62-3.06,1.63-4.29,2.84-2.4,2.37-4.12,5.64-4.55,8.98-.19,1.49-.07,3.03.43,4.46.54,1.52,1.51,2.84,2.12,4.33,1.59,3.92,1.23,8.73-.99,12.34-.13-.06-.27-.09-.45-.09-.49,0-.98,0-1.47-.02-.96,0-1.91-.03-2.86-.04-1.42,0-2.84.11-4.26.02-4-.23-7.58-2.29-9.52-5.86-.45-.85-.78-1.88-1.44-2.57-.59-.63-1.29-1.09-2.1-1.41-1.62-.63-3.49-.63-5.18-.3.05-.58.05-1.17-.02-1.75-.31-2.5-1.6-4.59-3.1-6.54-.53-.69-.9-1.42-1.27-2.19-.5-1.06-.96-2.14-1.4-3.23-.45-1.09-.88-2.19-1.3-3.3-.2-.54-.41-1.09-.6-1.64-.15-.44-.39-.89-.45-1.35-.04-.31.09-.57.13-.87.04-.32.05-.64.04-.97-.04-2.11-.69-4.22-1.38-6.21-.79-2.27-1.76-4.5-2.78-6.67-.86-1.83-1.81-3.59-2.73-5.37-.44-.84-.32-1.61-.32-2.51,0-2.41.12-4.83.24-7.24.05-1.06.13-2.12.17-3.17.06-1.6.16-3.12-.62-4.58-.67-1.25-1.66-2.29-2.7-3.23-1.7-1.54-3.62-2.8-5.61-3.93-.81-.46-1.63-.9-2.45-1.32-.92-.46-2.01-.79-2.63-1.63-.27-.35-.48-.75-.65-1.15-.79-1.82-.94-3.89-.98-5.84-.04-1.98.09-3.95.31-5.91.1-.9.22-1.81.38-2.69,0,0,4.63.09,7.45,1.49.84.42,1.74.68,2.67.66,2.26-.03,4.54-.46,6.69-1.17,1.38-.45,2.72-1.03,4.01-1.71.64-.34,1.24-.77,1.92-1.02,1.16-.44,2.46-.59,3.68-.78,1.1-.18,2.19-.33,3.3-.42,1.39-.13,2.78-.21,4.17-.1,1.33.11,2.8.37,3.9,1.18.58.43.78.94,1.04,1.57.87,2.09,3.86,2.58,5.82,2.79,1.55.16,3.11.14,4.67.04.51-.03,1.01-.18,1.46-.43,1.53-.87,3.11-2.16,3.45-3.99.12-.67.21-1.23.65-1.77.42-.51.95-.94,1.55-1.22h0c.56,1.23,1.57,2.83,3.34,4.21.33.25.59.56.73.94.4,1.06,1.34,3.35,2.53,4.98.21.28.33.6.33.95v1.75c0,.4.1.6.29.74.71.5,2.6,1.78,4.3,2.22.13.03.26.03.4,0,.66-.19,2.86-.66,3.05,1.48.03.34.18.65.44.87.7.59,1.48,1.92-.08,2.91-.14.09-.26.23-.29.4-.13.73-.81,2.82-4.19,2.81-.21,0-.4.19-.36.4.12.8-.65,2.09-2.49,2.42-.22.04-.36.24-.29.44.13.43,1.72,1.98-.16,1.8-.07,0-.16-.06-.23-.07-.09-.02-.18-.03-.27-.03-.15,0-.33.03-.43.17-.13.17-.05.43.03.61.14.31.33.6.55.86.11.13.23.26.35.39.13.15.34.25.26.49-.06.18-.13.35-.19.53-.06.17-.14.34-.12.52.12.93,1.32.59,1.9.41.15-.05.33-.18.5-.13.18.06.31.32.44.46.14.15.29.29.46.41.28.18.59.32.92.38.98.18,1.89-.33,2.59-.95.18-.15.49-.24.7-.33.52-.24,1.05-.46,1.59-.65.55-.19,1.13-.37,1.71-.4.38-.02.88.02,1.06.41.26.55-.12,1.3-.36,1.78-.1.2-.21.4-.33.59-.11.2-.24.4-.39.58-.05.06-.1.13-.12.21-.08.32.39.36.59.44.31.12.62.21.94.29.66.17,1.34.32,2.01.45.34.06.68.12,1.02.18.18.03.35.07.53.08.12.02.27,0,.37.09.12.1.15.26.18.4.05.17.1.35.16.51.1.26.22.51.36.75.29.49.67.91,1.15,1.2.16.1.44.12.52.31.06.15.05.33.09.48.05.19.11.37.19.55.14.34.32.67.53.97.52.75,1.31,1.25,2.23,1.26.42,0,.8-.06,1.16-.19,0,1.14,0,2.28,0,3.42,0,1.48.32,3.34-.16,4.74Z"/><text class="cls-4" transform="translate(86.31 171.18)"><tspan x="0" y="0">남해읍</tspan></text><path class="cls-3" d="m136.96,264.04c-.14.15-.3.28-.47.39-.23.16-.49.24-.76.34-.46.16-.93.31-1.4.43-1.25.33-2.59.55-3.88.36-.56-.08-1.11-.24-1.59-.54-.24-.15-.46-.33-.65-.54-.2-.22-.26-.62-.56-.72-.16-.05-.32,0-.47.04-.21.03-.41.05-.62.09-.43.08-.86.19-1.29.33-1.1.35-2.13.88-3.06,1.57-1.23.91-2.23,2.08-2.98,3.4-.19.34-.37.68-.54,1.03-.15.31-.36.66-.4,1-.04.35.28.53.49.74.18.19.36.38.54.58.34.38.66.78.96,1.2.84,1.22,1.5,2.56,1.82,4.01.38,1.76.2,3.57-.52,5.21-.13.3-.28.59-.44.88-.08.14-.16.28-.25.42-.12.19-.25.4-.23.63.02.27.11.53.2.78.19.52.48,1,.82,1.44.53.7,1.19,1.31,1.88,1.84.3.23.6.45.92.66.17.11.34.22.51.33.09.05.18.11.28.16.2.12.3.25.29.5-.03,1.49-.06,2.99-.16,4.48-.06.82-.13,1.64-.22,2.45-.04.41-.09.83-.14,1.24-.03.21-.06.41-.09.62-.02.14-.1.36-.05.49,0,.04.04.07.06.1.25.24.44.58.65.85.25.32.5.65.74.97.49.63.97,1.27,1.42,1.93.14.19.27.38.4.57.09.14.15.34.3.44.16.1.38.09.56.13.21.05.42.11.62.18.31.12.6.27.88.45.31.21.6.47.84.77.28.34.5.74.65,1.17.18.53.26,1.09.27,1.66,0,.75-.1,1.5-.28,2.22-.24,1-.59,1.96-1,2.89-.54,1.25-1.19,2.45-1.89,3.63-.91,1.54-1.91,3.02-2.95,4.46-.58.81-1.18,1.61-1.8,2.39-.3.39-.6.78-.91,1.16-.24.3-.44.65-.72.92-.32.31-.73.42-1.13.59-.33.15-.67.3-1.01.45-.28.13-.57.26-.85.38-.11.05-.2.15-.33.15-.14,0-.28-.08-.41-.12-.19-.07-.38-.12-.57-.17-.37-.08-.74-.14-1.11-.17-1.04-.1-2.08,0-3.09.21-1.48.33-2.88.93-4.18,1.7-.93.54-1.82,1.16-2.64,1.84-.42.34-.83.7-1.22,1.06-.4.36-.84.65-1.35.81-.24.08-.49.15-.73.22-.68.18-1.37.33-2.06.45-1.94.32-3.92.37-5.86.11-2.48-.33-4.88-1.19-6.98-2.52-.68-.43-1.32-.91-1.94-1.43-.3-.25-.6-.52-.89-.8-.22-.21-.55-.39-.7-.68-.21-.38.14-.7.16-1.09.02-.32-.03-.65-.15-.95-.35-.84-1.25-1.24-2.07-1.44-1.98-.48-4.13-.21-6.11.09-.46.07-.92.15-1.38.23-.32.06-.62.16-.94.23-.41.09-.73.19-1.1.38-.2.1-.41.2-.62.29-.55.24-1.13.43-1.72.57-1.51.36-3.11.35-4.55-.27-1.08-.46-1.98-1.26-2.69-2.18-.36-.47-.68-.97-.96-1.49-.14-.27-.28-.53-.41-.8-.08-.18-.47-.61-.25-.81.03-.03.08-.04.12-.05.12-.03.25-.04.37-.08.12-.03.25-.08.37-.11.32-.1.62-.22.92-.35.65-.3,1.26-.69,1.73-1.23,1.46-1.71.47-3.97-.66-5.56-.36-.52-.73-.9-1.27-1.22-.6-.36-1.26-.6-1.94-.77-1.1-.3-2.24-.42-3.38-.45-.5-.02-1,0-1.5,0-.26,0-.51.02-.77.03-.21,0-.46.11-.65,0-.2-.12-.32-.36-.45-.55-.17-.23-.32-.46-.46-.71-.3-.55-.52-1.17-.54-1.8-.02-.75.27-1.44.78-1.98.42-.45.94-.79,1.49-1.06.28-.13.57-.25.86-.35.14-.05.28-.1.43-.15.19-.06.42-.11.58-.26.18-.17.31-.42.44-.63.16-.29.29-.59.38-.91.11-.41.16-.83.15-1.25,0-.54-.11-1.07-.28-1.58-.22-.67-.55-1.31-.94-1.9-.52-.8-1.14-1.53-1.8-2.21-.89-.91-1.87-1.75-2.87-2.51-.56-.43-1.13-.84-1.71-1.24-.62-.43-1.24-.86-1.89-1.25-.02,0-.03,0-.04,0-.09-.02-.17.18-.21.23-.09.12-.18.24-.27.36-.18.23-.36.46-.55.68-.45.53-.94,1.04-1.48,1.48-.46.38-1.01.76-1.61.84-.6.08-1.05-.27-1.33-.78-.23-.44-.37-.93-.45-1.43-.04-.24-.05-.48-.07-.72,0-.17.09-.58-.05-.7-.14-.11-.36.02-.49.07-.2.1-.4.13-.6.2-.5.18-1,.34-1.51.48-.58.16-1.18.29-1.78.38-.58.08-1.17.12-1.75.05-.49-.06-1-.19-1.41-.49-.41-.31-.66-.77-.76-1.27-.15-.74,0-1.53.19-2.24.14-.53.32-1.04.53-1.54.1-.25.21-.5.32-.74.11-.23.22-.47.41-.64.05-.06.1-.12.13-.19.09-.17.03-.34-.12-.46-.17-.15-.41-.23-.62-.29-.41-.12-.83-.18-1.25-.23,0,0-.03,0-.05-.02,0,0,0-.03,0-.05-.02-.29-.04-.58-.02-.88.02-.33.08-.65.21-.96.36-.84,1.18-1.25,2.06-1.32.29-.02.58,0,.87.02,0,0,4.14-.06,4.15-.06.63,0,.52-1.03.49-1.43,0-.17-.13-.16-.25-.22-.1-.06-.2-.12-.29-.19-.17-.13-.33-.29-.46-.46-.34-.45-.42-1.02-.3-1.56.22-1.03.98-1.91,1.7-2.63.32-.33.66-.63,1.01-.93,0-.02.03-.03.03-.05,0-.02,0-.04,0-.06-.36-.99-.74-1.98-1.21-2.92-.46-.94-.98-1.87-1.62-2.7-.07-.09-.12-.21-.15-.33-.06-.29.07-.55.27-.76.45-.46,1.17-.66,1.78-.81.5-.12,1.01-.21,1.52-.28.32-.04.65-.07.98-.1.18-.02.37-.03.55-.05.14,0,.28.02.41-.02.22-.06.41-.28.61-.39.22-.12.46-.2.71-.22.65-.05,1.22.3,1.66.74,0,0,.02.02.04.03.02,0,.04,0,.07,0h1.22c.14,0,.25.03.38-.03.2-.1.4-.28.59-.41.16-.11.31-.22.47-.33.39-.28.78-.57,1.18-.85.84-.6,1.69-1.21,2.52-1.81.42-.3.83-.6,1.25-.89.02,0,.03-.03.05-.05,0-.02,0-.04,0-.07,0-.75.13-1.5.57-2.13.24-.35.59-.61.99-.77.19-.08.4-.13.61-.16.1-.02.21-.03.31-.03.08,0,.23.03.3-.02,0,0,.03-.03.04-.05.44-.62.79-1.35.66-2.13-.07-.38-.25-.72-.51-1.01-.13-.14-.27-.27-.43-.39-.1-.09-.3-.16-.37-.28-.08-.11.03-.16.11-.26.09-.11.18-.22.25-.35.13-.21.24-.46.16-.71-.07-.22-.33-.26-.52-.26-.53,0-1.06.17-1.55.34-.31.1-.56.22-.84.41-.06.05-.14.09-.21.13-.23.11-.48.2-.74.26-.99.26-2.05.26-3.06.21-.61-.03-1.22-.08-1.82-.17-.04,0-.11-1.03-.12-1.1-.03-.41-.07-.82-.1-1.23,0,0,0-.02-.02-.05-.37-.31-.73-.63-1.09-.94-.1-.09-.2-.17-.29-.26l-.15-.15s-.11-.09-.12-.14c-.03-.07.02-.14.05-.2.12-.2.19-.42.27-.63.07-.21.15-.42.22-.64.1-.31.2-.62.28-.93.06-.24.12-.5.12-.75,0-.12,0-.31-.16-.33-.21-.02-.44.23-.58.35-.4.38-.76.83-1.1,1.27-.08.1-.16.2-.24.3-.08.1-.14.18-.25.24-.03,0-.07.03-.1.04-.09.05-.18.09-.27.13-.24.11-.48.21-.73.31-.25.1-.51.19-.77.25-.19.04-.41.08-.6.03-.16-.05-.22-.18-.19-.34.05-.31.26-.61.44-.86.44-.61.97-1.14,1.46-1.7,0,0,.02-.03.02-.04s0-.02,0-.03c-.1-.15-.2-.3-.29-.46-.12-.24-.22-.49-.3-.75-.2-.68-.21-1.41.06-2.07.07-.19.17-.37.28-.54.07-.11.15-.21.21-.32.15-.28.25-.59.29-.9.06-.48,0-.96-.16-1.41-.23-.68-.64-1.29-1.11-1.82-.75-.85-1.65-1.54-2.58-2.16-.17-.11-.42-.12-.63-.16-.23-.04-.45-.09-.68-.15-.63-.16-1.25-.35-1.86-.6-.68-.27-1.35-.6-1.96-1.03.93-1.51,2.03-2.91,3.3-4.14,1.58-1.51,3.44-2.72,5.49-3.48.71-.26,1.44-.46,2.18-.6.54-.1,1.09-.23,1.64-.2.55.04,1.06.27,1.56.47.59.22,1.2.38,1.81.49,1.11.22,2.25.28,3.37.08.78-.15,1.54-.42,2.2-.84.46-.29.87-.62,1.16-1.07.37-.57.59-1.21.91-1.8.55-1.01,1.23-1.96,2.07-2.74,1.3-1.21,2.95-1.97,4.73-2.11.62-.05,1.25-.03,1.87.06,1.54.21,2.85,1.03,4.27,1.58,1.41.56,2.85,1.03,4.33,1.35,1.6.36,3.48.65,5.08.13.73-.24,1.19-.89,1.63-1.49.43-.59.8-1.23,1.09-1.9.35-.82.57-1.68.66-2.55,1.69-.33,3.56-.33,5.18.3.81.32,1.51.78,2.1,1.41.66.7.99,1.73,1.44,2.57,1.94,3.56,5.52,5.63,9.52,5.86,1.42.09,2.84-.03,4.26-.02.96,0,1.91.03,2.86.04.49,0,.98.03,1.47.02.18,0,.32.03.45.09.21.09.38.24.59.42,1.68,1.41,3.51,2.59,5.46,3.58.97.5,1.99.89,2.97,1.35,1.06.48,2.18.71,3.15,1.38.88.61,1.62,1.43,2.13,2.36,1.1,2.08.88,4.46.23,6.63-.22.77-.51,1.52-.83,2.24-.29.67-.77,1.16-.91,1.91-.11.59-.1,1.2-.1,1.79.03,2.29-.23,4.66.05,6.93.18,1.48,1.08,2.73,1.94,3.9,1.7,2.28,3.93,4.19,6.37,5.63Z"/><text class="cls-4" transform="translate(78.64 277.67)"><tspan x="0" y="0">남면</tspan></text><path class="cls-3" d="m237.21,257.91v3.52c0,4.27-2.42,5.72-2.42,5.72-1.25.65-1.35,2.51-1.34,3.73,0,.79.05,1.55.32,2.29.31.87.78,1.68.92,2.59.2,1.42-.05,2.87-.78,4.11-.62,1.08-1.49,2.02-2.47,2.78-.22.17-.45.33-.68.48-1.42.94-2.63.89-4.27.89h-3.2c-1.18,0-2.42.12-3.58-.05-1.05-.16-2.04-.67-3-1.02-1.06-.39-2.14-.7-3.23-.98-1.35-.35-2.72-.55-4.06-.91-1.28-.34-2.54-.75-3.87-.59-1.48.18-2.85.82-4.04,1.7-1.34,1-2.45,2.26-3.39,3.64-.45.66-.94,1.18-1.14,1.97-.2.79-.25,1.6-.65,2.31-.44.8-1.1,1.45-1.84,1.96-1.51,1.03-3.37,1.52-5.17,1.65-.71.05-1.37-.52-2.06-.68-.76-.18-1.56-.17-2.31-.03-1.26.23-2.07.85-3.09,1.55-.67.45-1.37.85-2.09,1.21-1.21.6-2.47,1.06-3.77,1.37-.65.15-1.31.27-1.98.34-.45.05-1.17.23-1.61.11-.53-.15-1.04-.77-1.51-1.08-.52-.34-1.07-.64-1.66-.86-.47-.18-.98-.33-1.49-.33-.04-.93.07-1.87.29-2.77.14-.52.31-1.04.51-1.54.17-.39.41-.77.6-1.16.21-.45.22-.87.28-1.35.03-.3.07-.61.12-.91.11-.78.24-1.55.4-2.3.16-.74.35-1.47.59-2.17.12-.33.24-.66.39-.98.12-.25.3-.49.39-.76.1-.29.06-.58.06-.88v-.84c0-.32-.07-.64,0-.96.07-.35.34-.61.52-.91.19-.31.38-.62.57-.94l.57-.93c.15-.24.36-.5.46-.78.09-.26.02-.55.02-.82v-2.87c0-.56,0-1.12,0-1.69,0-.38-.07-.79-.06-1.18.02-.47.19-.73.45-1.1.11-.15.22-.31.33-.47.29-.42.59-.84.88-1.26.75-1.07,1.51-2.14,2.25-3.22.73-1.04,1.46-2.08,2.18-3.12.28-.42.59-.83.87-1.25.26-.39.5-.74.59-1.2.03-.13.05-.27.07-.4.04-.33.04-.67,0-1-.07-.89-.41-1.74-.96-2.43-.85-1.1-2.11-1.81-3.38-2.29-.39-.15-.8-.28-1.2-.39-.45-.13-.87-.24-1.33-.2-.28.03-.55.05-.82.08-.89.1-1.77.24-2.63.41-.71.14-1.37.38-2.1.37h-.79c-.14,0-.32.05-.46-.02-.16-.08-.19-.29-.31-.42-.14-.16-.33-.29-.54-.34-.56-.12-1.02.4-1.31.81-.27.38-.43.81-.78,1.13-.24.23-.49.44-.76.64-.74.53-1.62.92-2.53.96-.06,0-.12,0-.19,0h-12.16c-.33,0-.7-.11-.98.14-.34.3-.66.61-1.01.9-.74.6-1.53,1.14-2.35,1.6-.66.35-1.34.65-2.05.88-.36.12-.73.21-1.1.29-.19.04-.37.07-.56.1-.09,0-.36,0-.43.07-.02.02-.03.04-.04.06-.1.27-.19.55-.3.82-.13.3-.25.59-.38.89-.33.73-.69,1.45-1.09,2.13-.33.58-.67,1.15-1.08,1.67-.17.21-.35.43-.54.62-2.43-1.44-4.67-3.34-6.37-5.63-.86-1.17-1.76-2.42-1.94-3.9-.28-2.27-.02-4.64-.05-6.93,0-.59,0-1.2.1-1.79.14-.75.62-1.24.91-1.91.32-.73.61-1.48.83-2.24.65-2.17.87-4.56-.23-6.63-.51-.94-1.25-1.76-2.13-2.36-.97-.67-2.1-.9-3.15-1.38-.99-.46-2.01-.85-2.97-1.35-1.95-.99-3.78-2.17-5.46-3.58-.21-.18-.38-.33-.59-.42,2.21-3.61,2.57-8.42.99-12.34-.61-1.49-1.58-2.81-2.12-4.33-.5-1.43-.62-2.97-.43-4.46.43-3.34,2.14-6.6,4.55-8.98,1.23-1.22,2.67-2.22,4.29-2.84,1.23-.47,2.53-.56,3.77-.99,1.8-.64,3.43-1.58,4.98-2.68,1.43-1.02,2.54-2.4,3.97-3.41,1.5-1.06,3.31-1.51,4.83-2.52,1.56-1.06,4-2.54,4.64-4.42.48-1.4.16-3.26.16-4.74,0-1.14,0-2.28,0-3.42.27-.1.52-.23.76-.4.22-.16.45-.3.68-.44.68-.41,1.4-.76,2.13-1.04.94-.35,1.93-.59,2.92-.66,1.14-.09,2.28.05,3.36.43,1.32.47,2.49,1.28,3.47,2.26.17.16.35.33.48.53.15.22.21.48.3.73.21.58.48,1.14.83,1.65.47.68,1.15,1.31,2.03,1.33.56,0,1.08-.21,1.54-.52.23-.16.44-.34.65-.53.22-.22.41-.42.69-.57.1-.05.19-.1.29-.15.23-.11.47-.2.72-.26.48-.12,1.03-.08,1.28.42.15.3.17.66.15.99,0,.31-.05.62-.12.93-.03.15-.06.29-.1.44-.06.22-.15.42-.32.57-.22.19-.44.4-.62.63-.27.34-.49.7-.67,1.08-.56,1.16-.76,2.46-.72,3.74,0,.15,0,.31.02.47.04.63.04,1.27-.04,1.89-.09.63-.42,1.24-.42,1.88,0,.31.03.62.04.94,0,.47,0,.94.02,1.41.02,1.06.03,2.12.05,3.17,0,.45.02.9.02,1.35,0,.22,0,.44,0,.66,0,.28.03.5.22.72.22.26.42.53.61.81.4.57.76,1.17,1.09,1.79.62,1.17,1.13,2.45,1.21,3.79,0,.26,0,.51-.02.76-.02.18-.08.35-.1.53-.02.17.08.23.21.31.11.07.22.14.34.21.15.09.31.18.47.27.43.24.87.46,1.33.66,1.3.58,2.65,1,4.05,1.27.27.05.56.08.83.14.29.07.55.21.81.34.49.24.98.51,1.45.8.39.26.78.54,1.12.86.14.14.29.29.39.45.09.14.09.33.2.44.1.1.22.06.35.06h6.66c.23,0,.48.03.7-.04.26-.09.51-.28.75-.42.54-.31,1.08-.64,1.61-.96.9-.55,1.8-1.09,2.66-1.68.33-.22.65-.44.95-.68.15-.13.3-.2.36-.4.09-.3,0-.67,0-.99v-1.66c0-.33.05-.63-.16-.88h1.29c.65,0,1.5-.29,2.05.18.66.56,1.13,1.43,1.77,2.05.67.64,1.43,1.2,2.3,1.51.2.07.41.11.62.14,1.55.27,3.03.56,4.47,1.21.52.24,1.1.77,1.63.93.09.02.17.06.26.09,1.84.76,3.46,2.38,4.93,3.68.89.78,1.76,1.58,2.62,2.38.35.33.7.67,1.05,1,.73.69,1.22,1.19,2.19,1.5.86.28,1.75.4,2.6.67,1.58.48,3.13,1.03,4.64,1.7.78.34,1.55.71,2.28,1.12.62.34,1.48.7,1.79,1.35.08.17.16.35.22.54.91,2.63.7,5.57-.24,8.16-.32.88-.72,1.75-1.21,2.55-.17.29-.48.6-.6.92-3.07,7.95,4,7.6,4,7.6,1.38-.19,4.68.25,4.64,2.24-.03,1.53-.02,3.05-.02,4.59,0,1,0,2.01,0,3,0,1.54.67,2.88.85,4.38.18,1.42.04,2.84.04,4.26Z"/><text class="cls-4" transform="translate(158.73 233.27)"><tspan x="0" y="0">이동면</tspan></text><path class="cls-3" d="m316.32,189.92c0,.44-.34.79-.66,1.06-.17.14-.35.27-.54.38-.23.15-.5.23-.71.41-.22.19-.4.4-.56.63-.32.48-.52,1.04-.59,1.61-.11.89.06,1.8.39,2.63.19.49.43.96.69,1.41.13.22.27.44.42.66.09.14.21.27.22.44,0,.12-.05.24-.12.33-.15.18-.34.29-.55.38-.18.08-.45.08-.58.25-.17.22-.16.65-.21.91-.08.36-.14.71-.2,1.07-.12.7-.21,1.4-.27,2.11-.13,1.7-.1,3.46.38,5.12.35,1.2.47,2.58.41,3.82-.03.76-.13,1.67-.68,2.23-.62.67-1.59.46-2.33.14-.41-.18-.76-.46-1.2-.56-.24-.05-.5-.07-.74-.1-.7-.11-1.4-.2-2.1-.28-1.01-.11-2.03-.2-3.03-.25-.51-.03-1.02-.05-1.53-.05s-.91-.05-1.34.21c-.2.12-.39.26-.58.4-.53.39-1.04.82-1.48,1.31-.57.63-1.07,1.44-1.07,2.31s.71,1.37.99,2.11c.21.58.42,1.14.7,1.7.82,1.6,1.95,2.94,3.59,3.72.04.02.08.04.11.08.02.03.03.06.05.1.27.89.54,1.72,1,2.55.18.33.31.69.42,1.05.3,1.07.23,2.19-.17,3.23-.34.89-.9,1.68-1.55,2.36-.65.69-1.29,1.41-2.2,1.73-.24.09-.48.17-.72.28-.67.32-1.28.76-1.78,1.3-1.81,1.95-1.76,4.77-1.13,7.18.1.35.2.7.31,1.04.15.46.39.87.4,1.36,0,.25-.02.5-.02.75,0,.49.03.99.06,1.49.07,1.25.21,2.49.51,3.7.21.85.5,1.73,1.06,2.41.26.33.59.6.98.75.36.14,1.17-.04,1.39.23.97,1.25,1.77,2.58,2.37,4.02-.39.06-.77.16-1.15.27-4.03,1.18-7.86,3.35-11.52,5.36-2.1,1.14-4.17,2.13-5.95,3.75-2.01,1.83-3.55,4.12-4.57,6.62-.62,1.55-1.07,3.15-1.37,4.78-.11.57-.19,1.13-.25,1.7-.11.96.19,1.68.38,2.61.14.66.21,1.34.19,2.03,0,.36,0,.8-.1,1.15-.14.52-.54.94-.75,1.43-.23.52-.38,1.09-.5,1.65-.25,1.24-.28,2.51-.29,3.78,0,1.03.12,2.04-.2,3.03-.38,1.23-1.21,2.4-2.36,3-1.35.7-2.96.65-4.42.37-2.18-.42-4.76-1.34-6.57-2.67-3.91-2.89-10.94-3.09-10.94-3.09-.3-.96-1.3-1.65-2.1-2.15-.37-.23-.76-.51-1.18-.6-.57-.12-1.16,0-1.73,0h-5.05c-.97.03-1.93-.21-2.68-.81-.77-.61-.77-1.51-1.06-2.36-.25-.7-.55-1.38-.93-2.02-.77-1.3-1.9-2.48-3.36-2.93-2.96-.91-4.11-3.45-4.27-3.82.99-.77,1.86-1.71,2.47-2.78.73-1.24.98-2.69.78-4.11-.14-.92-.61-1.73-.92-2.59-.27-.75-.31-1.51-.32-2.29,0-1.22.09-3.08,1.34-3.73,0,0,2.42-1.45,2.42-5.72v-3.52c0-1.42.14-2.84-.04-4.26-.18-1.5-.86-2.84-.85-4.38,0-1,0-2.01,0-3,0-1.54,0-3.06.02-4.59.04-2-3.26-2.43-4.64-2.24,0,0-7.07.35-4-7.6.12-.32.43-.63.6-.92.49-.81.89-1.68,1.21-2.55.94-2.59,1.15-5.53.24-8.16-.06-.19-.14-.37-.22-.54-.31-.65-1.17-1.01-1.79-1.35-.74-.41-1.51-.78-2.28-1.12-1.51-.67-3.06-1.22-4.64-1.7-.86-.27-1.75-.39-2.6-.67-.98-.31-1.47-.81-2.19-1.5-.35-.33-.7-.67-1.05-1-.87-.81-1.74-1.61-2.62-2.38-1.47-1.3-3.09-2.92-4.93-3.68-.09-.03-.17-.07-.26-.09-.53-.16-1.11-.69-1.63-.93-1.44-.65-2.92-.94-4.47-1.21-.21-.03-.42-.07-.62-.14-.88-.31-1.64-.87-2.3-1.51-.64-.62-1.11-1.49-1.77-2.05-.55-.47-1.4-.18-2.05-.18h-1.29s-.04-.05-.06-.07c-.25-.26-.56-.44-.86-.63-.64-.43-1.32-.79-2.01-1.12-.21-.1-.42-.19-.64-.29-.18-.08-.35-.18-.53-.24-.2-.06-.39-.04-.59-.04-.34,0-.67.02-1.01.03-.22,0-.44,0-.66.02-.21.02-.43.11-.64.07-.2-.04-.17-.22-.19-.39-.02-.28-.21-.75.04-.97.13-.11.33-.19.48-.28.54-.31,1.08-.62,1.61-.93.35-.2.69-.4,1.03-.6.19-.11.36-.24.58-.27.12,0,.24,0,.36-.02.33-.02.65-.03.98-.05.32-.02.63-.04.95-.06.25,0,.63.08.76-.17.16-.3.2-.68.33-1.01.19-.47.42-.93.7-1.35.57-.85,1.44-1.6,2.52-1.31.87.23,1.57.95,2.13,1.62.7.85,1.55.22,2.09-.52.25-.34.46-.71.65-1.09.26-.5.39-.91.87-1.25.24-.18.48-.34.74-.49.89-.54,1.84-.98,2.8-1.38.55-.23,1.11-.44,1.67-.64.77-.27,1.57-.44,1.94-1.24.27-.59.06-1.2-.34-1.67-.26-.31-.58-.57-.91-.79-.27-.19-.55-.35-.84-.5-.19-.1-.61-.16-.69-.41-.09-.3.35-.77.49-1.01.21-.37.43-.73.69-1.06.5-.67,1.11-1.25,1.82-1.69.77-.47,1.63-.78,2.51-.96.44-.08.89-.14,1.34-.16.32-.02.85.13,1.09-.15.19-.22.31-.61.45-.87.19-.33.38-.66.58-.98.8-1.27,1.74-2.46,2.88-3.42.39-.32.61-.5,1.12-.5.35,0,.71-.04,1.06-.11.69-.14,1.35-.4,1.96-.75.3-.17.59-.36.86-.57s.4-.39.76-.36c.15,0,.3.03.46.04.38.02.77.04,1.15.05,1.07.02,2.14-.02,3.2-.15.93-.12,1.86-.29,2.73-.59.44-.15.88-.34,1.28-.56.4-.23.83-.76,1.3-.74.91.04,1.94.43,2.81.67,1,.29,2,.61,2.98.94,1.07.36,2.13.75,3.17,1.18.73.29,1.39.73,2.13.95.59.18,1.25.17,1.87.16.69,0,1.39-.06,2.06-.21.34-.08.67-.18.98-.33.63-.3.92-.5,1.65-.51.59-.02,1.18-.04,1.78-.06.67-.03,1.39.08,2.07-.02.73-.11,1.22-.57,1.81-.98.72-.5,1.38-1.12,2.11-1.59.74-.48,1.46-.44,2.3-.46.72-.03,1.44-.05,2.15-.08.59,0,1.27.12,1.82-.14.37-.18.73-.53,1.06-.76.49-.35.86-.9,1.43-1.13.5-.2,1.13-.04,1.65,0,.8.06,1.73-.15,2.49.16.78.32.9,1.71,1.19,2.43.39.98.78,1.96,1.17,2.93.36.89.71,1.78,1.06,2.65.42,1.05.57,1.78,1.55,2.42.76.5,1.53.97,2.32,1.4,2.46,1.35,5.12,2.4,7.87,2.97.62.13,1.26.37,1.9.32.64-.04,1.12-.54,1.63-.88.71-.48,1.4-.99,2.13-1.44.4-.25.92-.39,1.23-.76.23-.27.32-.66.48-.98.26-.51.57-1.06,1.01-1.43,1.56-1.32,2.44,1.62,2.74,2.64.24.85.78,1.7,1.29,2.39.38.5.8.97,1.28,1.37.25.21.52.4.81.57.4.24.73.36,1.2.35.26,0,.52,0,.78,0,.69,0,1.39,0,2.08-.02.51,0,1.01,0,1.52,0,.25,0,.51,0,.77,0,.15,0,.29-.02.39.09.14.15.25.36.37.52.27.38.54.76.8,1.15.34.51.67,1.03.97,1.56.13.25.27.5.39.76.1.22.11.5.28.68.2.21.66.29.94.4.41.15.84.37,1.27.48.74.18,1.53.49,2.13.96.3.23.55.57.54.95Z"/><text class="cls-4" transform="translate(249.51 225.92)"><tspan x="0" y="0">삼동면</tspan></text><path class="cls-3" d="m251.83,325.3c.5,1.19,1.22,2.53,1.36,3.84-.37.02-.73.06-1.09.13-2.13.42-3.85,1.82-4.99,3.63-.24.39-.46.8-.66,1.22-.35.74-.52,1.66.04,2.35.38.47.96.72,1.54.85.3.07.61.11.91.13.27.02.67-.12.89.11.26.27.18.88.23,1.23.05.41.07.84.05,1.26-.03.52-.13,1.05-.36,1.53-.24.49-.69.82-.93,1.31-.19.41-.38.81-.55,1.23-.2.49-.41.99-.53,1.51-.07.27-.11.54-.11.82,0,.3.08.59-.28.71-.3.09-.62.12-.93.16-.54.05-1.1.1-1.64.06-.61-.05-1.21-.17-1.77-.39-.31-.12-.67-.21-.95-.42-.36-.27-.39-.64-.52-1.04-.19-.57-.43-1.12-.71-1.65-.68-1.28-1.71-2.53-3.17-2.88-.81-.2-1.66-.09-2.43.19-.51.18-1,.43-1.46.72-.59.37-1.08.87-1.65,1.25-.49.33-1,.62-1.53.88-.94.46-2,.88-3.05.87-1.16-.02-1.95-.73-2.22-1.84-.18-.68-.18-1.4-.14-2.1.04-.47.1-.95.18-1.42.11-.66.33-1.26.23-1.93-.03-.23-.07-.44-.13-.66-.15-.53-.39-1.04-.77-1.45-1.35-1.42-3.58-.62-5.06.12-.44.21-.9.43-1.29.71-1.14.82-1.06,2.58-.65,3.73.15.42.35.82.58,1.2.15.25.37.5.45.79.1.36.02.75.02,1.11s-.1.77-.02,1.14c.1.5.56.61.93.88.87.62,2.03,1.7,1.53,2.88-.2.5-.63.86-1.09,1.14-.41.25-1.01.3-1.3.72-.16.23-.28.48-.46.7-.48.59-1.11,1.06-1.83,1.31-.64.23-1.34.29-2.01.21-.44-.04-.88-.15-1.3-.28-.23-.08-.47-.17-.7-.27-.31-.13-.6-.25-.88-.47-.06-.06-.12-.1-.2-.15-.12-.07-.26-.14-.39-.19-.48-.21-1-.34-1.51-.45-2.3-.5-4.73-.55-7.08-.56-.54,0-1.04-.06-1.58-.14-.54-.08-.98-.03-1.35-.47-.19-.22-.41-.42-.64-.6-.58-.45-1.32-.75-2.07-.56-1.03.28-1.71,1.32-2.17,2.21-.09.17-.18.58-.36.67-.28.14-.83,0-1.14,0h-4.46c-.56,0-.94-.1-1.38.31-.19.17-.39.33-.61.46-.47.31-1.07.57-1.65.42-.62-.17-1-.74-1.22-1.31-.12-.31-.21-.63-.28-.96-.08-.37-.12-.66-.35-.98-.17-.21-.3-.5-.53-.68-.14-.11-.31-.16-.47-.25-.23-.12-.45-.26-.66-.41-.59-.41-1.12-.92-1.52-1.52-1.33-1.95-.96-4.35,0-6.38.05-.1.09-.24.17-.34.13-.16.65-.1.85-.1.41,0,.83.02,1.24.06,1.06.11,2.07.42,3.04.85,0,0,.04.02.06,0,0,0,.02-.02.03-.04.14-.33.22-.7.23-1.06,0-.33-.06-.66-.18-.97-.4-1.07-1.31-1.87-2.22-2.49-.23-.16-.68-.33-.85-.56-.22-.29.02-.97.15-1.26.11-.25.27-.47.45-.67.11-.13.23-.25.36-.36.1-.08.39-.22.44-.33.13-.27.17-.62.09-.91-.21-.8-1.21-.91-1.9-.9-.37,0-.73.08-1.09.1-.35.02-.78-.28-1.09-.44-.45-.22-.88-.46-1.31-.71-.72-.43-1.42-.88-2.09-1.37-.73-.53-1.61-.94-1.7-1.94-.05-.59.17-1.16.52-1.63.34-.47.79-.84,1.27-1.16.33-.23.68-.43,1.04-.61.21-.11.43-.21.64-.3.27-.12.58-.18.78-.41.13-.14.22-.33.32-.49.16-.26.31-.52.44-.79.19-.41.48-1.08.15-1.49-.35-.43-1.02-.33-1.49-.23-.66.15-1.16.34-1.67.79-.14.13-.31.25-.47.36-.41.27-.86.5-1.34.62-1.41.35-2.54-.5-3.27-1.65-.39-.63-.69-1.31-.93-2.01-.13-.4-.28-.82-.38-1.24-.1-.45-.1-.88-.1-1.34v-4.83c0-.2,0-.41.06-.6.07-.2.22-.39.32-.59.18-.37.33-.76.44-1.15.34-1.16.39-2.38.12-3.55-.23-1.01-.66-2.01-1.31-2.82-.36-.44-.67-.91-.94-1.41-.72-1.35-1.15-2.84-1.2-4.37.51,0,1.02.15,1.49.33.59.22,1.14.52,1.66.86.47.31.98.93,1.51,1.08.44.12,1.16-.06,1.61-.11.67-.07,1.33-.19,1.98-.34,1.3-.31,2.56-.77,3.77-1.37.72-.36,1.42-.76,2.09-1.21,1.03-.7,1.84-1.32,3.09-1.55.76-.14,1.56-.15,2.31.03.69.16,1.35.73,2.06.68,1.8-.13,3.66-.62,5.17-1.65.74-.51,1.4-1.16,1.84-1.96.4-.72.45-1.53.65-2.31.2-.79.69-1.31,1.14-1.97.94-1.38,2.06-2.64,3.39-3.64,1.19-.88,2.56-1.52,4.04-1.7,1.33-.16,2.59.25,3.87.59,1.34.36,2.71.56,4.06.91,1.09.28,2.17.59,3.23.98.97.35,1.96.86,3,1.02,1.16.17,2.4.05,3.58.05h3.2c1.64,0,2.85.05,4.27-.89.23-.15.46-.31.68-.48.16.37,1.31,2.91,4.27,3.82,1.47.45,2.59,1.64,3.36,2.93.38.64.68,1.32.93,2.02.29.86.29,1.76,1.06,2.36.76.6,1.72.84,2.68.81h5.05c.57,0,1.16-.11,1.73,0,.42.09.81.37,1.18.6.8.51,1.8,1.2,2.1,2.15-.02-.06-.75.61-.78.65-.67.83-.96,1.93-1.1,2.96-.14,1.06-.06,2.13-.06,3.19,0,1.01-.13,1.98-.31,2.96-.17.92-.35,1.84-.61,2.74-.13.46-.28.91-.47,1.36-.16.36-.43.71-.44,1.1-.04,1.33.03,2.65,0,3.98,0,.69-.05,1.38-.14,2.06-.05.34-.11.68-.19,1.01-.05.24-.23.58-.17.83,0,.05.03.1.06.15.78,1.64,1.54,3.27,2.25,4.94Z"/><text class="cls-4" transform="translate(198.27 316.31)"><tspan x="0" y="0">상주면</tspan></text><path class="cls-3" d="m311.67,349.67c-.29.26-.68.41-1.04.53-.27.09-.54.16-.82.22-.17.04-.35.07-.52.1-.33.06-.52.08-.79.27-.11.08-.23.15-.35.22-.29.17-.61.31-.94.38-.96.17-1.45-.57-1.61-1.43-.02-.11-.03-.22-.04-.33.07.13-2-7.95-2.89-.63-.13,1.09-.15,2.42-.99,3.25-.22.21-.49.35-.8.36-.18,0-.36-.03-.52-.08-.2-.06-.36-.21-.56-.26-.18-.04-.37,0-.55.03-.21.02-.45,0-.66.05-.26.06-.39.21-.58.37-.22.18-.5.33-.77.4-.92.24-1.42-.6-1.65-1.37,0,0-1.34-5.69-2.31-.4-.07.36-.39.75-.61,1.02-.74.91-1.75,1.58-2.78,2.08-.31.14-.75.23-1.01.44-.49.38.33.98.61,1.16.58.38,1.22.65,1.87.88.8.29,1.75.34,1.68,1.42-.07,1.09-1.04,2.02-1.81,2.68-.02.02-.05.05-.08.07,0,0-3.73,2.71-8.36.36-1.15-.59-2.43-1.82-2.36-3.2,0-.31.1-.6.22-.88.14-.29.42-.53.47-.86.02-.14,0-.31-.02-.46-.03-.32-.09-.64-.2-.94-.31-.87-.96-1.54-1.81-1.89-1.07-.44-2.25-.32-3.37-.32h-1.57c-.58,0-1.14-.05-1.71.12-.28.08-.55.17-.82.28-.68.26-1.36.61-1.87,1.14-.46.48-.7,1.11-.54,1.78.1.44.34.84.61,1.19.19.23.39.45.6.66.21.21.67.46.81.71,0,0,1.2,2.24-2.13,3.63,0,0-1.56,2.73-6.71-.56-1-.64-2.27-1.17-2.84-2.29-.19-.37-.19-.78.07-1.12.13-.16.3-.3.47-.41s.39-.19.51-.37c.15-.23.16-.54.3-.78.15-.26.34-.49.56-.69.22-.2.46-.38.72-.53.22-.13.55-.17.72-.37.24-.28.08-.78.1-1.12.05-.46.1-.93.16-1.4.18-1.23.44-2.44.83-3.62.22-.68.48-1.35.8-1.99.14-.29.3-.6.47-.87.2-.31.35-.51.38-.89,0-.19.03-.38.05-.57.06-.54.14-1.08.24-1.62.14-.75.31-1.5.56-2.21.13-.36.28-.72.45-1.06.22-.44.37-.8.41-1.29.02-.25.03-.51.03-.76,0-.68-.05-1.36-.18-2.03-.31-1.68-1.12-3.25-2.5-4.29-.56-.42-1.2-.74-1.86-.97-.33-.12-.67-.21-1.01-.29-.32-.07-.63-.19-.96-.1-.13.04-.26.11-.4.14-.4.12-.82.18-1.24.2-.59.02-1.18-.05-1.75-.21-.36-.1-.7-.24-1.04-.4-.53-.25-.94-.62-1.55-.73-.23-.04-.47-.08-.71-.1-.34-.02-.68-.03-1.01,0-.14-1.31-.86-2.65-1.36-3.84-.72-1.67-1.48-3.3-2.25-4.94-.03-.05-.05-.1-.06-.15-.06-.25.12-.59.17-.83.08-.33.14-.67.19-1.01.09-.68.13-1.37.14-2.06.03-1.33-.04-2.65,0-3.98,0-.39.28-.74.44-1.1.19-.45.34-.9.47-1.36.26-.91.44-1.83.61-2.74.18-.99.32-1.96.31-2.96,0-1.07-.08-2.13.06-3.19.14-1.04.43-2.13,1.1-2.96.03-.04.76-.71.78-.65,0,0,7.03.2,10.94,3.09,1.82,1.34,4.39,2.25,6.57,2.67,1.46.28,3.07.33,4.42-.37,1.16-.6,1.99-1.78,2.36-3,.32-1,.19-2.01.2-3.03,0-1.27.04-2.54.29-3.78.12-.56.27-1.13.5-1.65.21-.49.61-.91.75-1.43.09-.35.09-.79.1-1.15.02-.69-.05-1.37-.19-2.03-.19-.94-.49-1.66-.38-2.61.06-.57.14-1.13.25-1.7.3-1.63.75-3.23,1.37-4.78,1.02-2.5,2.56-4.8,4.57-6.62,1.78-1.63,3.85-2.61,5.95-3.75,3.66-2.01,7.49-4.18,11.52-5.36.38-.11.76-.21,1.15-.27.36.85.66,1.74.88,2.65.36,1.49.54,3.01.55,4.55.03,2.01-.03,4.04-.32,6.03-.09.67-.18,1.35-.41,1.98-.14.38-.49.67-.58,1.07-.1.4.17.84.26,1.23.08.32.16.64.25.96.21.77.44,1.53.7,2.27.29.82.59,1.64,1.01,2.39.21.39.46.76.75,1.1.22.25.56.51.65.86.11.42-.2.9-.31,1.29-.15.51-.34,1.01-.57,1.49-.28.58-.63,1.13-1.07,1.61-.22.24-.47.46-.73.66-.2.16-.53.25-.62.52-.47,1.41,1.21,2.07,1.54,3.28.33,1.2-.35,2.03-1.09,2.88-.2.23-.52.38-.78.51-.98.47-2.08.67-3.14.8-.71.08-1.42.13-2.13.14-.37,0-.74,0-1.11,0-.28,0-.67-.09-.95-.02-.27.07-.48.65-.59.87-.18.39-.31.8-.32,1.22-.02,1.01.83,1.47,1.72,1.6,0,0,4.05,1.06-4.35,2.76-.7.06-1.39.21-2.06.4-1.05.29-2.54.64-3.03,1.74-.33.72-.82,1.34-1.42,1.86-.45.38-1.32.59-1.45,1.24-.1.53-.03,1.17-.05,1.72-.02.35-.03.7-.05,1.05,0,.17,0,.34-.02.51,0,.16.04.36-.09.49-.14.13-.41.13-.59.19-.26.09-.52.17-.79.25-.37.12-.77.22-1.13.37-.69.28-1.48.55-1.98,1.13-.39.45-.51,1.16-.65,1.72-.36,1.39-.66,2.97-.27,4.37.07.25.16.49.3.71.18.31.46.51.49.91.05.44-.05.89-.15,1.32-.09.41-.25.81-.45,1.19-.27.47-.65.73-.7,1.3-.03.36-.04.72,0,1.08.09,1.1.52,2.14,1.27,2.95.41.45.8.74,1.39.95.32.12.64.25.96.38.98.4,1.94.86,2.86,1.36.95.52,1.89,1.08,2.73,1.74.44.33.85.69,1.23,1.09.22.22.5.44.66.73.2.35.13.71.13,1.09v.99c0,.27-.09.57.12.8.33.36.83.63,1.22.93.44.34.88.69,1.32,1.02.4.29.81.59,1.22.86.19.12.36.27.57.34.02,0,.04,0,.05,0,.02,0,.02-.02.02-.04.17-1.33.7-2.86,2.33-2.67.53.06,1.05.24,1.55.45.38.18.73.51,1.17.53.3,0,.82.08,1.06-.14.22-.2.37-.46.62-.66.2-.16.42-.3.66-.4.64-.27,1.34-.24,1.98,0,.57.21,1.08.56,1.53.95.31.26.6.55.87.85.35.39.74.75.96,1.24.12.28.24.88.5,1.05.6.38,1.3.61,1.91.99.56.34,1.18.74,1.57,1.3.29.42.32.88-.07,1.24Z"/><text class="cls-4" transform="translate(253.78 320.81)"><tspan x="0" y="0">미조면</tspan></text><path class="cls-3" d="m339.6,174.71c-.58.63-1.39.95-2.23,1.02-1.35.12-2.71-.29-3.95-.77-.24-.1-.5-.23-.76-.29-.3-.08-.58-.02-.86-.14-.46-.19-.84-.57-1.16-.94-.65-.77-1.14-1.68-1.58-2.58-.78-1.62-1.38-3.32-1.92-5.03-.11-.34-.21-.69-.31-1.03-.02-.07-.04-.14-.09-.19-.14-.13-.37-.07-.54-.09-.22-.02-.45-.03-.67-.03-.79,0-1.63.23-2.25.74-.32.25-.57.58-.73.95-.14.33-.18.69-.41.98-.27.32-.54.64-.82.94-.71.76-1.5,1.45-2.37,1.98-.98.59-2.11.99-3.26.92-1.45-.08-2.7-.88-3.68-1.91-.44-.46-.84-.99-1.18-1.54-.36-.59-.61-1.23-.99-1.8-.54-.83-1.21-1.57-1.93-2.23-1.62-1.54-3.52-2.8-5.46-3.91-.35-.2-.91-.65-1.33-.62-.28.02-.5.25-.74.38-.3.17-.62.31-.94.45-.83.35-1.7.63-2.58.76-.41.07-.82.09-1.23.08-.35,0-.71-.14-1.05-.13-.37,0-.45.39-.67.61-.16.16-.35.3-.54.43-.44.28-.95.45-1.48.39-.42-.05-.81-.24-1.15-.49-.43-.32-.8-.74-1.07-1.2-.04-.07-.08-.13-.13-.18-.11-.1-.24-.07-.38-.08-.11,0-.22-.02-.33-.02-.33-.03-.66-.05-.99-.06-.28-.02-.67.09-.82-.23-.13-.26-.17-.57-.3-.85-.17-.36-.38-.71-.63-1.03-.67-.88-1.64-1.46-2.75-1.52-.04,0-.08,0-.12,0-.5,0-1,0-1.49,0-.39,0-.93.16-1.29,0-.17-.08-.17-.31-.16-.47,0-.22.03-.41-.02-.63-.11-.53-.41-1.02-.79-1.4-.35-.36-.78-.63-1.23-.84-.23-.11-.46-.2-.7-.28-.16-.05-.5-.07-.61-.19-.19-.2-.09-.67-.11-.92-.02-.21-.03-.41-.04-.62,0-.15.02-.46-.07-.58-.08-.1-.39-.02-.5-.02-.22.02-.43.04-.65.04-1.03,0-2.06-.17-3.05-.43-.95-.24-1.87-.58-2.74-1.01-.42-.2-.83-.42-1.23-.65-.41-.24-.78-.51-1.06-.91-.25-.35-.53-.7-.84-1-.68-.65-1.72-1.13-2.57-.52-.75.53-1.14,1.45-1.42,2.28-.08.21-.14.43-.21.65-.15.66-.31,1.33-.45,1.99-.13.6-.22,1.21.03,1.79.37.86.65,1.77.9,2.67.11.39.35.89.28,1.3,0,.05-.04.1-.09.12-.36.14-.97-1.23-1.11-1.48-.4-.69-.74-1.42-1.13-2.12-.37-.67-.74-1.06-1.38-1.48-.52-.34-1.26-.63-1.65.04-1.29,2.2,1.5,4.74,0,6.87-.39.55-1.03.85-1.68,1-.48.11-.97.13-1.46.13-.31,0-.62-.03-.92-.06-.26-.03-.54-.03-.8-.09-.3-.06-.51-.25-.78-.38-.2-.1-.4-.18-.61-.24-.59-.17-1.22-.21-1.82-.12-.65.09-1.27.32-1.84.62-.29.14-.56.31-.82.49-.2.13-.33.29-.57.3-.2,0-.39-.06-.58-.09-.25-.03-.52,0-.76.04-.71.09-1.4.31-2.06.6-.42.18-.82.39-1.21.62-.46.27-.86.56-1.38.69-.21.05-.41.09-.62.13-.68.12-1.37.19-2.05.25-1.13.08-2.25.11-3.38.11-1.66,0-3.31-.06-4.97-.17-1.03-.06-2.06-.14-3.08-.23-1.07-.09-2.13-.2-3.17-.43-.51-.11-1.02-.23-1.53-.36-1.38-.34-2.75-.73-4.1-1.18-1.48-.49-2.93-1.05-4.31-1.76-.67-.34-1.33-.71-1.93-1.17-.3-.22-.58-.47-.84-.74-.13-.14-.26-.29-.38-.44-.14-.18-.21-.4-.46-.44-.59-.1-1.21.03-1.81.02-.39,0-.78.04-1.16,0-.37-.05-.53-.3-.81-.51-.62-.46-1.28-.89-2-1.18-1.08-.44-2.28-.3-3.41-.5-.75-.13-1.88-.34-2.25-1.1-.61-1.24,1.09-2.31,1.89-2.93.45-.35.59-.76.69-1.31.06-.3.08-.6.07-.91-.05-.93-.49-1.82-1.14-2.47-.48-.47-1.09-.79-1.65-1.17-1.23-.83-2.44-1.7-3.59-2.64-.5-.42-1-.85-1.46-1.33-.39-.41-.91-.89-1.07-1.45,0-.03,0-.05-.02-.08-.08-.33-.03-.67-.02-1,.02-.52-.03-1.06-.03-1.59s.12-1.02.26-1.55c.5-1.84.64-3.94-.62-5.52-.22-.27-.45-.54-.64-.83-.23-.36-.45-.74-.64-1.12-.51-1.02-.88-2.1-1.11-3.2-.31-1.47-.36-2.97-.21-4.46.24-2.28.97-4.5,1.97-6.57.1-.22.22-.45.33-.68.05-.1.11-.2.19-.29.21-.24.57-.41.83-.6.34-.25.67-.51.99-.77.64-.54,1.26-1.11,1.83-1.72.74-.78,1.41-1.62,1.98-2.51.46-.69.97-1.35,1.51-1.99.98-1.18,2.08-2.33,3.37-3.15.58-.36,1.22-.67,1.91-.72.27,0,.55,0,.81-.05.27-.05.51-.19.76-.3.32-.14.64-.29.95-.45.62-.32,1.21-.69,1.74-1.14.58-.49,1.13-1.16,1.16-1.95.03-.84-.6-1.56-1.26-2.01-.06-.04-.13-.08-.16-.15-.03-.04-.03-.09-.04-.15-.05-.5-.12-.99-.14-1.5,0-.54.03-1.09.15-1.62.22-.99.85-1.77,1.95-1.61.27.03.54.12.8.23.14.05.26.14.4.21.09.05.18.08.28.06.19-.03.41-.22.56-.34.2-.15.39-.32.57-.5.36-.35.67-.75.96-1.17.65-.92,1.16-1.92,1.59-2.95.43-1.06.72-2.13,1.08-3.21.07-.24.17-.47.31-.67.14-.21.35-.32.54-.48.26-.2.52-.38.8-.54.33-.19.69-.35,1.05-.49.3-.11.6-.18.91-.25.4-.08.59-.26.83-.58.51-.69,1.02-1.37,1.45-2.1.47-.79.87-1.61,1.19-2.46.33-.9.55-1.86.58-2.81.03-.92-.17-1.79-.51-2.63-.55-1.42.26-2.82,1.1-3.93.2-.28.42-.56.65-.81.21-.22.47-.42.6-.72.11-.26.1-.57.16-.85.06-.27.13-.55.21-.82.18-.6.42-1.19.74-1.73.29-.5.66-.95,1.11-1.31.41-.32.82-.5,1.31-.64.7-.21.92-.81,1-1.49.03-.35,0-.7-.09-1.04-.07-.26-.17-.51-.29-.76-.11-.22-.29-.4-.24-.66.02-.17.11-.32.21-.46.33-.46.78-.81,1.27-1.08.92-.5,1.98-.8,2.98-1.03.56-.12,1.07-.43,1.52-.78,1.65-1.27,2.62-3.26,3.19-5.22.02-.06.04-.13.09-.18.04-.04.1-.06.15-.07,1.32-.44,2.62-.92,3.85-1.58,1-.54,1.94-1.17,2.77-1.92.1-.09.2-.18.32-.25.28-.15.61-.12.92-.17.34-.06.68-.13,1.02-.21.76-.16,1.5-.36,2.23-.6.95-.32,1.9-.7,2.74-1.22.63-.38,1.17-.9,1.68-1.44.45-.48.94-.89,1.63-.97.85-.1,1.75.02,2.56.28.71.23,1.29.82,2.06.89.44.04.87-.11,1.3-.21.45-.09.9-.13,1.35-.24.9-.21,1.79-.48,2.63-.85.42-.19.86-.39,1.25-.64,1.14-.72,3.01-.34,4.01.49.8.67,1.19,1.65,1.32,2.65.07.5.08,1.01.06,1.52-.03.44-.11.88-.08,1.32.02.31.05.59,0,.91-.06.38-.19.75-.38,1.09-.17.29-.5.53-.62.83-.11.29-.04.65-.04.95,0,.36,0,.72,0,1.07,0,.39,0,.78,0,1.16,0,.33.09.68,0,1-.16.57-.61,1.1-.91,1.6-.33.57-.66,1.14-.95,1.73-.28.57-.53,1.16-.72,1.77-.1.3-.18.61-.24.93-.07.32-.06.63-.16.95-.2.6-.55,1.19-.85,1.75-.17.31-.34.61-.52.9-.26.42-.54.58-.51,1.11.05,1.06-.06,2.15-.44,3.16-.18.5-.44.98-.8,1.38-.18.2-.38.38-.61.53-.25.17-.55.24-.78.45-.73.64-1.31,1.51-1.85,2.3-.29.43-.56.87-.82,1.31-.16.26-.31.52-.46.78-.24.43-.27.85-.82.91-.6.07-1.19.29-1.68.66-.52.39-.91.95-1.13,1.57-.11.31-.18.63-.22.96-.04.37-.04.64-.33.9-.36.3-.71.63-1.05.95-.25.24-.51.48-.77.71-.21.2-.43.35-.56.62-.2.41-.21.91-.3,1.36-.1.5-.21,1.01-.31,1.51-.25,1.25-.49,2.48-.71,3.74-.14.73-.26,1.47-.38,2.2-.06.38-.12.77-.15,1.15-.02.23-.05.47-.12.69-.08.23-.25.41-.35.63-.14.28-.25.57-.34.87-.33,1.05-.46,2.15-.51,3.25-.03.45-.05.91-.04,1.36.03.8-.62,1.5-1.05,2.14-.16.28-.35.54-.52.81-.67,1.04-.36,2.29-.34,3.47,0,.73.15,1.44-.18,2.12-.37.78-.85,1.49-1.26,2.24-.23.44-.53.88-.71,1.36-.21.53-.15,1.01-.15,1.56,0,.46,0,.92,0,1.38,0,1.1-.02,2.19-.02,3.3,0,.72,0,1.43,0,2.14,0,.35,0,.7,0,1.05,0,.22-.09.69.02.89.02.04.06.07.09.1,1.62,1.41,3.62,2.99,5.91,2.76.52-.05,1.02-.22,1.45-.51.72-.48,1.46-.74,2.26-.22.59.38,1.01.95,1.31,1.58.15.31.3.64.44.96.07.16.14.32.2.48.04.08.11.35.19.39.1.05.24-.02.33-.06.13-.05.25-.09.38-.13.34-.09.68-.16,1.02-.28.68-.23,1.34-.51,1.96-.87,1.3-.75,2.42-1.94,2.41-3.52,0-1.19-.57-2.28-1.25-3.23-.21-.29-.44-.57-.68-.84-.12-.15-.26-.29-.36-.46-.11-.18-.13-.38-.19-.58-.06-.22-.12-.45-.18-.68-.18-.62-.35-1.25-.52-1.88-.2-.72-.4-1.45-.6-2.17-.18-.67-.37-1.35-.55-2.02-.13-.47-.26-.93-.39-1.4-.16-.61-.08-1.27.2-1.83.14-.29.33-.55.56-.77.24-.22.54-.32.79-.52.16-.13.08-.31.07-.48,0-.21,0-.41-.02-.61-.02-.41-.06-.82-.13-1.22-.06-.34-.13-.69-.26-1.01-.06-.14-.13-.3-.23-.43-.11-.14-.32-.25-.34-.45-.03-.25.21-.49.31-.7.14-.28.3-.56.47-.83.17-.25.35-.48.56-.7.12-.12.48-.53.67-.53.08,0,.25-.13.33-.16.13-.05.26-.08.4-.1.25-.04.52-.02.77.05.27.07.53.19.76.34.16.1.4.53.62.47.23-.07.27-.73.31-.93.09-.35.15-.72.15-1.08.02-.36.03-.72,0-1.08-.04-.7-.1-1.46-.43-2.09-.06-.12-.41-.67-.14-.74.14-.03.32,0,.47,0,.31.02.62.05.93.09.23.03.46.12.7.11.16,0,.14-.02.18-.14.04-.12.04-.26.06-.39.09-.42.21-.84.37-1.24.43-1.03,1.2-1.93,2.34-2.12.21-.03.41-.04.61-.03.32,0,.64.24.81-.11.09-.18.16-.38.19-.58.1-.51.02-1.04-.16-1.52-.09-.25-.21-.48-.35-.7-.13-.19-.32-.38-.31-.63,0-.3.14-.65.26-.92.25-.62.66-1.17,1.18-1.59.51-.42,1.13-.68,1.77-.82.33-.07.65-.11.98-.13.25,0,.57.08.81-.02.03-.02.06-.04.08-.06.05-.07.03-.17,0-.25-.16-.31-.21-.66-.26-1.01-.04-.4-.05-.83.08-1.23.06-.19.15-.38.29-.53.13-.13.29-.19.45-.27.19-.1.25-.34.35-.52.13-.24.26-.47.41-.7.28-.44.62-.85,1.04-1.17.31-.24.71-.43,1.11-.35.54.11.9.6,1.15,1.05.16.28.29.57.4.87.14.36.26.76.17,1.15-.09.41-.29.82-.46,1.2-.14.32-.3.63-.5.92-.12.18-.29.32-.37.53-.09.22,0,.49.04.72.03.2.09.41.18.59.22.43.61.67,1.1.64.27,0,.54-.09.79-.2.29-.12.61-.24.84-.47.29-.29.24-.67.33-1.05.08-.3.19-.59.33-.87.63-1.21,1.8-2,3.07-2.39.31-.1.64-.16.94-.28.31-.13.56-.34.84-.52.43-.29.89-.55,1.36-.75.83-.36,2.02-.62,2.45.42.17.41.19.87.17,1.3,0,.33-.13.63-.3.91-.56.89-1.57,1.45-2.5,1.86-.53.23-1.09.42-1.65.58-.34.1-.68.2-1.03.27-.69.14-1.12.46-1.45,1.08-.21.41-.36.86-.45,1.32-.05.22-.09.45-.12.69-.03.22,0,.43-.1.63-.17.35-.5.6-.74.9-.23.29-.45.6-.66.92-.22.35-.8,1.1-.36,1.49.23.2.58.09.84.03.69-.15,1.34-.46,1.97-.75.35-.17.75-.32,1.07-.54.46-.3.97-.55,1.48-.73.79-.29,1.81-.48,2.52.08.43.34.64.85.73,1.37.05.27.07.54.09.81,0,.15,0,.34.07.47.1.15.33.2.48.29.23.13.45.25.69.36.23.11.49.23.74.3.22.05.57.03.7.25.12.19-.02.5-.05.69-.03.2-.08.4-.14.6-.19.62-.46,1.21-.76,1.79-.2.36-.41.72-.63,1.07-.26.42-.68.79-.78,1.29-.12.6.33,1.2.69,1.62.33.4.8.64,1.33.57.98-.15,1.63-.92,2.18-1.67.34-.45.71-.89,1.11-1.3.71-.72,2-1.87,3.06-1.16.2.13.36.32.5.52.22.32.4.72.37,1.13-.04.44-.29.85-.39,1.28-.13.53-.21,1.07-.18,1.61.02.3.09.68.41.79.44.15.99-.25,1.32-.49.45-.32.87-.7,1.27-1.08.28-.27.6-.52.95-.7.51-.27,1.16-.42,1.56.11.29.37.36.89.4,1.35.03.39.03.79,0,1.18-.02.29-.04.6-.11.89-.09.32-.27.58-.38.88-.08.22-.15.45-.2.68-.1.41-.15.9.04,1.3.15.3.43.47.75.54.23.05.47.05.7.03.41-.03.78-.18,1.05-.52.31-.41.49-.9,1.06-1.02.41-.09.81.1,1.14.33.41.29.76.67,1.07,1.08.32.42.62.74.51,1.3-.05.28-.14.55-.26.81-.3.69-.77,1.3-1.28,1.84-.38.39-.97.79-.91,1.4.03.32.27.45.55.52,1.03.25,2.27-.16,3.25-.43.25-.08.52-.12.79-.13.3,0,.77.04.73.45-.07.73-.72,1.3-1.23,1.75-.33.28-.7.52-.97.86-.32.4-.35.86-.29,1.35.05.46.24.89.53,1.25.17.21.36.38.56.54.12.09.25.17.37.24.17.1.38.14.45.35.04.11.03.23.02.34-.05.45-.03.89-.03,1.34v4.53c0,1.75-.35,3.29-1.42,4.71-1.31,1.72-3.24,2.81-5.27,3.46-.92.3-2.57.17-2.85,1.37-.1.42,0,.86-.07,1.29-.09.57-.5,1.06-.82,1.52-.29.42-.6.83-.93,1.22-.4.47-.82.91-1.27,1.32-.24.22-.5.43-.76.63-.47.35-.83.39-.85,1.06,0,.33-.02.65.02.98.07.65.32,1.42,1.05,1.58.42.09.85-.03,1.23-.2.55-.23.87-.49,1.48-.31.3.08.58.27.73.55.21.4.23.68.65.92.17.09.37.16.57.13.97-.19.8-1.67,1.05-2.35.2-.56.44-1.11.77-1.61.3-.47.75-1.01,1.35-1.05.84-.06,1.46.84,1.84,1.47.13.22.26.45.37.68.2.38.38.77.39,1.21,0,1.01.03,2.03.03,3.03v1.39c0,.31.02.61.04.92.02.33-.16.41-.43.51-.19.07-.39.14-.58.22-.3.13-.6.27-.89.43-.58.31-1.12.72-1.54,1.23-.48.56-.72,1.28-.67,2.01.06.91.53,1.72.98,2.47.25.44.53.85.86,1.23.74.86,1.76,1.58,2.93,1.52.58-.04,1.13-.26,1.63-.56.32-.19.62-.43.89-.68.24-.21.46-.45.66-.7.2-.24.35-.56.6-.75.27-.2.6-.3.92-.35.76-.12,1.53-.05,2.27.08.38.07.75.16,1.12.25.23.06.47.17.72.2.16.02.37.03.53,0,.06-.02.13-.06.16-.12.04-.11,0-.26,0-.37v-.59c0-.33,0-.66-.02-.99,0-.03,0-.06,0-.09.06-.11.33-.09.44-.11.2-.02.4-.05.61-.06.58-.04,1.16,0,1.73.09.71.11,1.4.35,2.03.71.74.43,1.36,1.05,1.83,1.77.57.89.94,1.91,1.12,2.94.14.76.2,1.52,0,2.27-.12.48-.32.94-.6,1.36-.21.31-.45.57-.75.79-.64.46-.14,1.12.38,1.41.62.35,1.33.5,2.03.57.35.03.7.05,1.06.06.58,0,1.07.17,1.59.44.39.2.78.43,1.16.68,1.74,1.15,3.2,2.7,4.18,4.54.71,1.31,1.12,2.73,1.38,4.19.1.59.17,1.2.2,1.8.06,1.47-.09,3.21-1.14,4.36Z"/><text class="cls-4" transform="translate(219.37 135.5)"><tspan x="0" y="0">창선면</tspan></text><rect class="cls-1" x="232.84" y="162.68" width="2.69" height="5.27"/><path class="cls-2" d="m235.78,168.2h-3.19v-5.77h3.19v5.77Zm-2.69-.5h2.19v-4.77h-2.19v4.77Z"/><rect class="cls-1" x="233.09" y="162.14" width="2.19" height="6.56"/></svg>