<svg xmlns="http://www.w3.org/2000/svg" width="79" height="42" viewBox="0 0 79 42" fill="none">
<path d="M21.5 3L10.5 7.5L8 11.5L5 13.5L1 21C1.4 22.6 4.5 26 6 27.5L7.5 31.5H11.5C12.7 33.9 16 36.5 17.5 37.5H21.5L25 39L29 37.5L32.5 39L36.5 38.5L40.5 40L44 39L47.5 40.5H51.5C51.9 39.7 55.6667 37.1667 57.5 36H63L65.5 35H70.5L72 30L75 27.5C75.4 25.1 76.5 22.5 77 21.5L78 17C78 17 74 12.8333 73 11L69.5 10C69.3333 10 68.6 9.3 67 6.5C65.4 3.7 58.3333 4.66667 55 5.5L51.5 1.5L44 1L40 2.5L36.5 1L28.5 3.5L25 2.5L21.5 3Z" fill="#EFEFEF"/>
<path d="M21.5 3L10.5 7.5L8 11.5L5 13.5L1 21C1.4 22.6 4.5 26 6 27.5L7.5 31.5H11.5C12.7 33.9 16 36.5 17.5 37.5H21.5L25 39L29 37.5L32.5 39L36.5 38.5L40.5 40L44 39L47.5 40.5H51.5C51.9 39.7 55.6667 37.1667 57.5 36H63L65.5 35H70.5L72 30L75 27.5C75.4 25.1 76.5 22.5 77 21.5L78 17C78 17 74 12.8333 73 11L69.5 10C69.3333 10 68.6 9.3 67 6.5C65.4 3.7 58.3333 4.66667 55 5.5L51.5 1.5L44 1L40 2.5L36.5 1L28.5 3.5L25 2.5L21.5 3Z" stroke="#1F1412" stroke-width="2" stroke-linejoin="round"/>
<path d="M33.8295 21.7273C33.8295 23.3277 33.5218 24.6842 32.9062 25.7969C32.2907 26.9096 31.4574 27.7547 30.4062 28.3324C29.3598 28.91 28.1856 29.1989 26.8835 29.1989C25.5767 29.1989 24.4001 28.9077 23.3537 28.3253C22.3073 27.7429 21.4763 26.8977 20.8608 25.7898C20.25 24.6771 19.9446 23.3229 19.9446 21.7273C19.9446 20.1269 20.25 18.7704 20.8608 17.6577C21.4763 16.545 22.3073 15.6998 23.3537 15.1222C24.4001 14.5445 25.5767 14.2557 26.8835 14.2557C28.1856 14.2557 29.3598 14.5445 30.4062 15.1222C31.4574 15.6998 32.2907 16.545 32.9062 17.6577C33.5218 18.7704 33.8295 20.1269 33.8295 21.7273ZM30.2358 21.7273C30.2358 20.7803 30.1009 19.9801 29.831 19.3267C29.5658 18.6733 29.1823 18.1785 28.6804 17.8423C28.1832 17.5062 27.5843 17.3381 26.8835 17.3381C26.1875 17.3381 25.5885 17.5062 25.0866 17.8423C24.5848 18.1785 24.1989 18.6733 23.929 19.3267C23.6638 19.9801 23.5312 20.7803 23.5312 21.7273C23.5312 22.6742 23.6638 23.4744 23.929 24.1278C24.1989 24.7812 24.5848 25.276 25.0866 25.6122C25.5885 25.9484 26.1875 26.1165 26.8835 26.1165C27.5843 26.1165 28.1832 25.9484 28.6804 25.6122C29.1823 25.276 29.5658 24.7812 29.831 24.1278C30.1009 23.4744 30.2358 22.6742 30.2358 21.7273ZM35.8821 29V14.4545H45.8111V17.3097H39.3977V20.2926H45.179V23.1548H39.3977V29H35.8821ZM47.5813 29V14.4545H57.5103V17.3097H51.0969V20.2926H56.8782V23.1548H51.0969V29H47.5813Z" fill="black"/>
</svg>