<svg xmlns="http://www.w3.org/2000/svg" width="79" height="42" viewBox="0 0 79 42" fill="none">
<path d="M21.5 3L10.5 7.5L8 11.5L5 13.5L1 21C1.4 22.6 4.5 26 6 27.5L7.5 31.5H11.5C12.7 33.9 16 36.5 17.5 37.5H21.5L25 39L29 37.5L32.5 39L36.5 38.5L40.5 40L44 39L47.5 40.5H51.5C51.9 39.7 55.6667 37.1667 57.5 36H63L65.5 35H70.5L72 30L75 27.5C75.4 25.1 76.5 22.5 77 21.5L78 17C78 17 74 12.8333 73 11L69.5 10C69.3333 10 68.6 9.3 67 6.5C65.4 3.7 58.3333 4.66667 55 5.5L51.5 1.5L44 1L40 2.5L36.5 1L28.5 3.5L25 2.5L21.5 3Z" fill="#00CCE8"/>
<path d="M21.5 3L10.5 7.5L8 11.5L5 13.5L1 21C1.4 22.6 4.5 26 6 27.5L7.5 31.5H11.5C12.7 33.9 16 36.5 17.5 37.5H21.5L25 39L29 37.5L32.5 39L36.5 38.5L40.5 40L44 39L47.5 40.5H51.5C51.9 39.7 55.6667 37.1667 57.5 36H63L65.5 35H70.5L72 30L75 27.5C75.4 25.1 76.5 22.5 77 21.5L78 17C78 17 74 12.8333 73 11L69.5 10C69.3333 10 68.6 9.3 67 6.5C65.4 3.7 58.3333 4.66667 55 5.5L51.5 1.5L44 1L40 2.5L36.5 1L28.5 3.5L25 2.5L21.5 3Z" stroke="#1F1412" stroke-width="2" stroke-linejoin="round"/>
<path d="M38.8295 21.7273C38.8295 23.3277 38.5218 24.6842 37.9062 25.7969C37.2907 26.9096 36.4574 27.7547 35.4062 28.3324C34.3598 28.91 33.1856 29.1989 31.8835 29.1989C30.5767 29.1989 29.4001 28.9077 28.3537 28.3253C27.3073 27.7429 26.4763 26.8977 25.8608 25.7898C25.25 24.6771 24.9446 23.3229 24.9446 21.7273C24.9446 20.1269 25.25 18.7704 25.8608 17.6577C26.4763 16.545 27.3073 15.6998 28.3537 15.1222C29.4001 14.5445 30.5767 14.2557 31.8835 14.2557C33.1856 14.2557 34.3598 14.5445 35.4062 15.1222C36.4574 15.6998 37.2907 16.545 37.9062 17.6577C38.5218 18.7704 38.8295 20.1269 38.8295 21.7273ZM35.2358 21.7273C35.2358 20.7803 35.1009 19.9801 34.831 19.3267C34.5658 18.6733 34.1823 18.1785 33.6804 17.8423C33.1832 17.5062 32.5843 17.3381 31.8835 17.3381C31.1875 17.3381 30.5885 17.5062 30.0866 17.8423C29.5848 18.1785 29.1989 18.6733 28.929 19.3267C28.6638 19.9801 28.5312 20.7803 28.5312 21.7273C28.5312 22.6742 28.6638 23.4744 28.929 24.1278C29.1989 24.7812 29.5848 25.276 30.0866 25.6122C30.5885 25.9484 31.1875 26.1165 31.8835 26.1165C32.5843 26.1165 33.1832 25.9484 33.6804 25.6122C34.1823 25.276 34.5658 24.7812 34.831 24.1278C35.1009 23.4744 35.2358 22.6742 35.2358 21.7273ZM53.2614 14.4545V29H50.2784L44.4901 20.6051H44.3977V29H40.8821V14.4545H43.9077L49.6321 22.8352H49.7528V14.4545H53.2614Z" fill="#1F1412"/>
</svg>