<svg xmlns="http://www.w3.org/2000/svg" width="966" height="94" viewBox="0 0 966 94" fill="none">
<g clip-path="url(#clip0_247_996)">
<path d="M960.747 3.24964C954.28 -0.678201 953.145 1.45135 943.932 1.45135C934.719 1.45135 934.719 1.84571 925.507 1.84571C916.294 1.84571 916.294 1.34093 907.082 1.34093C897.869 1.34093 897.869 2.11388 888.657 2.11388C879.444 2.11388 879.444 0.662628 870.205 0.662628C860.966 0.662628 860.993 2.42937 851.754 2.42937C842.515 2.42937 842.541 3.29696 833.328 3.29696C824.116 3.29696 824.116 0.473334 814.903 0.473334C805.691 0.473334 805.691 2.53979 796.452 2.53979C787.213 2.53979 787.239 1.81416 778 1.81416C768.761 1.81416 768.788 1.49867 759.575 1.49867C750.363 1.49867 750.363 3.73865 741.124 3.73865C731.885 3.73865 731.911 3.5178 722.672 3.5178C713.433 3.5178 713.459 1.81416 704.221 1.81416C694.982 1.81416 695.008 3.65977 685.769 3.65977C676.53 3.65977 676.556 1.78261 667.317 1.78261C658.078 1.78261 658.105 2.41359 648.866 2.41359C639.627 2.41359 639.653 1.32515 630.414 1.32515C621.175 1.32515 621.202 2.82373 611.963 2.82373C602.724 2.82373 602.75 1.08854 593.511 1.08854C584.272 1.08854 584.299 1.49867 575.06 1.49867C565.821 1.49867 565.847 4.21188 556.608 4.21188C547.369 4.21188 547.396 3.48626 538.157 3.48626C528.918 3.48626 528.944 1.13586 519.732 1.13586C510.519 1.13586 510.519 2.55556 501.306 2.55556C492.094 2.55556 492.094 2.38204 482.881 2.38204C473.669 2.38204 473.669 0.709951 464.43 0.709951C455.191 0.709951 455.217 3.99104 446.005 3.99104C436.792 3.99104 436.792 2.06655 427.579 2.06655C418.367 2.06655 418.367 4.00681 409.128 4.00681C399.889 4.00681 399.915 3.40738 390.703 3.40738C381.49 3.40738 381.49 3.81752 372.251 3.81752C363.012 3.81752 363.039 4.02259 353.8 4.02259C344.561 4.02259 344.587 4.00681 335.348 4.00681C326.109 4.00681 326.136 4.03836 316.897 4.03836C307.658 4.03836 307.684 2.1612 298.445 2.1612C289.206 2.1612 289.232 3.94371 279.994 3.94371C270.755 3.94371 270.781 2.05078 261.542 2.05078C252.303 2.05078 252.329 1.56177 243.09 1.56177C233.851 1.56177 233.878 3.37583 224.639 3.37583C215.4 3.37583 215.426 1.37248 206.187 1.37248C196.948 1.37248 196.975 3.88062 187.736 3.88062C178.497 3.88062 178.497 3.04457 169.284 3.04457C160.072 3.04457 160.072 0.788823 150.833 0.788823C141.594 0.788823 141.62 2.24007 132.381 2.24007C123.142 2.24007 123.169 1.95613 113.93 1.95613C104.691 1.95613 104.717 1.75107 95.4782 1.75107C86.2392 1.75107 86.2392 1.84571 77.0266 1.84571C67.8141 1.84571 67.8141 2.41359 58.5751 2.41359C49.3361 2.41359 49.3361 0.489109 40.1236 0.489109C30.911 0.489109 30.8846 1.67219 21.6456 1.67219C12.4067 1.67219 8.89585 -2.14523 2.40218 1.78261C-4.0915 5.71045 4.8571 7.88733 4.8571 13.4715C4.8571 19.0556 3.35247 19.0556 3.35247 24.6556C3.35247 30.2555 6.04497 30.2397 6.04497 35.8397C6.04497 41.4396 3.986 41.4238 3.986 47.0238C3.986 52.6237 5.25306 52.6079 5.25306 58.1921C5.25306 63.7762 5.14747 63.7762 5.14747 69.3762C5.14747 74.9761 2.61335 74.9761 2.61335 80.5602C2.61335 86.1444 -1.10863 86.4914 5.46424 90.4666C12.0371 94.4418 12.5122 90.9398 21.7248 90.9398C30.9374 90.9398 30.9374 92.186 40.15 92.186C49.3625 92.186 49.3625 92.3753 58.5751 92.3753C67.7877 92.3753 67.7877 93.1798 77.0002 93.1798C86.2128 93.1798 86.2128 91.7443 95.4518 91.7443C104.691 91.7443 104.664 92.6908 113.903 92.6908C123.142 92.6908 123.116 92.0125 132.328 92.0125C141.541 92.0125 141.541 90.3877 150.754 90.3877C159.966 90.3877 159.966 90.2458 169.205 90.2458C178.444 90.2458 178.418 93.6531 187.657 93.6531C196.896 93.6531 196.869 93.0852 206.082 93.0852C215.294 93.0852 215.294 90.1353 224.533 90.1353C233.772 90.1353 233.746 92.3595 242.985 92.3595C252.224 92.3595 252.197 93.2745 261.436 93.2745C270.675 93.2745 270.649 92.5646 279.888 92.5646C289.127 92.5646 289.1 92.959 298.339 92.959C307.578 92.959 307.552 93.6531 316.791 93.6531C326.03 93.6531 326.004 93.1325 335.243 93.1325C344.482 93.1325 344.455 91.1765 353.694 91.1765C362.933 91.1765 362.907 90.5455 372.146 90.5455C381.385 90.5455 381.358 90.3246 390.597 90.3246C399.836 90.3246 399.81 91.5235 409.049 91.5235C418.288 91.5235 418.261 90.1669 427.5 90.1669C436.739 90.1669 436.713 92.2964 445.925 92.2964C455.138 92.2964 455.138 92.0283 464.35 92.0283C473.563 92.0283 473.563 89.9145 482.776 89.9145C491.988 89.9145 491.988 89.883 501.227 89.883C510.466 89.883 510.44 92.3438 519.652 92.3438C528.865 92.3438 528.865 91.208 538.077 91.208C547.29 91.208 547.29 91.3973 556.529 91.3973C565.768 91.3973 565.742 90.577 574.954 90.577C584.167 90.577 584.167 90.9872 593.406 90.9872C602.645 90.9872 602.618 93.4795 611.857 93.4795C621.096 93.4795 621.07 90.6875 630.309 90.6875C639.548 90.6875 639.521 89.9461 648.76 89.9461C657.999 89.9461 657.973 91.3973 667.212 91.3973C676.451 91.3973 676.424 93.5742 685.663 93.5742C694.902 93.5742 694.876 92.8959 704.115 92.8959C713.354 92.8959 713.328 93.2587 722.566 93.2587C731.805 93.2587 731.779 92.0283 741.018 92.0283C750.257 92.0283 750.231 93.6215 759.469 93.6215C768.708 93.6215 768.682 90.5297 777.921 90.5297C787.16 90.5297 787.16 91.9336 796.373 91.9336C805.585 91.9336 805.585 93.1325 814.824 93.1325C824.063 93.1325 824.037 91.1134 833.276 91.1134C842.515 91.1134 842.488 90.3877 851.727 90.3877C860.966 90.3877 860.94 92.3438 870.179 92.3438C879.418 92.3438 879.418 90.7505 888.63 90.7505C897.843 90.7505 897.843 90.2931 907.082 90.2931C916.321 90.2931 916.321 92.5646 925.533 92.5646C934.746 92.5646 934.772 92.2491 944.011 92.2491C953.25 92.2491 956.867 96.2243 963.36 92.2964C969.854 88.3686 962.753 86.1917 962.753 80.6076C962.753 75.0234 959.48 75.0234 959.48 69.4235C959.48 63.8236 961.09 63.8393 961.09 58.2394C961.09 52.6395 965.314 52.6552 965.314 47.0553C965.314 41.4554 962.436 41.4711 962.436 35.887C962.436 30.3028 962.7 30.3028 962.7 24.7029C962.7 19.103 961.803 19.1187 963.387 13.6135C964.971 8.10817 967.425 7.27213 960.853 3.28119L960.747 3.24964Z" fill="#5ED1FF"/>
<mask id="path-2-outside-1_247_996" maskUnits="userSpaceOnUse" x="402" y="29" width="162" height="35" fill="black">
<rect fill="white" x="402" y="29" width="162" height="35"/>
<path d="M429.492 62.5859H423.762V29.9609H429.492V62.5859ZM411.598 32.123C413.262 32.123 414.756 32.6035 416.08 33.5645C417.416 34.5137 418.453 35.8789 419.191 37.6602C419.941 39.4297 420.316 41.4922 420.316 43.8477C420.316 46.2266 419.941 48.3066 419.191 50.0879C418.453 51.8574 417.416 53.2285 416.08 54.2012C414.756 55.1621 413.262 55.6426 411.598 55.6426C409.922 55.6426 408.416 55.1621 407.08 54.2012C405.756 53.2285 404.713 51.8574 403.951 50.0879C403.201 48.3066 402.826 46.2266 402.826 43.8477C402.826 41.4922 403.201 39.4297 403.951 37.6602C404.713 35.8789 405.756 34.5137 407.08 33.5645C408.416 32.6035 409.922 32.123 411.598 32.123ZM411.598 37.2383C410.93 37.2148 410.344 37.4434 409.84 37.9238C409.336 38.4043 408.949 39.1484 408.68 40.1562C408.422 41.1523 408.293 42.3828 408.293 43.8477C408.293 45.3359 408.422 46.5781 408.68 47.5742C408.949 48.5586 409.336 49.291 409.84 49.7715C410.344 50.252 410.93 50.4922 411.598 50.4922C412.277 50.4922 412.857 50.252 413.338 49.7715C413.83 49.291 414.211 48.5586 414.48 47.5742C414.75 46.5781 414.885 45.3359 414.885 43.8477C414.885 42.3828 414.75 41.1523 414.48 40.1562C414.211 39.1484 413.83 38.4043 413.338 37.9238C412.857 37.4434 412.277 37.2148 411.598 37.2383ZM461.273 54.5H455.93V29.9609H461.273V54.5ZM450.463 43.1797H445.84V38.6973H450.463V43.1797ZM454.4 53.4453H449.109V30.4004H454.4V53.4453ZM439.406 37.0449H442.025V32.4219H447.211V49.1562H434.062V32.4219H439.406V37.0449ZM442.025 44.709V41.2812H439.406V44.709H442.025ZM461.994 62.041H438.791V57.541H461.994V62.041ZM444.416 60.248H438.791V51.3008H444.416V60.248ZM490.857 50.6855H467.549V46.3086H490.857V50.6855ZM493.969 59H464.297V54.4648H493.969V59ZM490.682 36.6406H473.279V47.4336H467.549V32.1055H490.682V36.6406ZM489.873 43.5312H471.645V39.1719H489.873V43.5312ZM529.23 53.498H523.57V30.0312H529.23V53.498ZM533.291 43.6016H527.666V38.9961H533.291V43.6016ZM530.18 62.041H507.662V57.541H530.18V62.041ZM513.322 59.6328H507.662V51.002H513.322V59.6328ZM512.338 31.9473C514.014 31.9473 515.543 32.3105 516.926 33.0371C518.32 33.752 519.416 34.7539 520.213 36.043C521.021 37.3203 521.426 38.7617 521.426 40.3672C521.426 41.9609 521.021 43.4023 520.213 44.6914C519.416 45.9688 518.32 46.9766 516.926 47.7148C515.543 48.4414 514.014 48.8047 512.338 48.8047C510.674 48.8047 509.139 48.4414 507.732 47.7148C506.326 46.9766 505.213 45.9629 504.393 44.6738C503.584 43.373 503.18 41.9375 503.18 40.3672C503.18 38.7617 503.584 37.3203 504.393 36.043C505.213 34.7539 506.32 33.752 507.715 33.0371C509.109 32.3105 510.65 31.9473 512.338 31.9473ZM512.338 36.8516C511.682 36.8398 511.072 36.9688 510.51 37.2383C509.959 37.4961 509.52 37.8945 509.191 38.4336C508.863 38.9609 508.699 39.6055 508.699 40.3672C508.699 41.1172 508.863 41.7559 509.191 42.2832C509.52 42.7988 509.959 43.1973 510.51 43.4785C511.072 43.748 511.682 43.8828 512.338 43.8828C513.029 43.8828 513.645 43.7539 514.184 43.4961C514.734 43.2266 515.162 42.8281 515.467 42.3008C515.771 41.7617 515.924 41.1172 515.924 40.3672C515.924 39.6055 515.771 38.9609 515.467 38.4336C515.162 37.8945 514.734 37.4961 514.184 37.2383C513.645 36.9688 513.029 36.8398 512.338 36.8516ZM562.541 62.4805H557.145V29.9609H562.541V62.4805ZM558.551 46.6074H553.594V42.125H558.551V46.6074ZM555.158 60.9863H549.867V30.4355H555.158V60.9863ZM541.078 52.1621H535.436V33.3711H541.078V52.1621ZM537.738 50.0352C539.555 50.0352 541.336 49.9707 543.082 49.8418C544.828 49.7129 546.598 49.4844 548.391 49.1562L548.936 53.9727C546.955 54.3008 545.039 54.5352 543.188 54.6758C541.336 54.8164 539.52 54.8867 537.738 54.8867H535.436V50.0352H537.738Z"/>
</mask>
<path d="M429.492 62.5859H423.762V29.9609H429.492V62.5859ZM411.598 32.123C413.262 32.123 414.756 32.6035 416.08 33.5645C417.416 34.5137 418.453 35.8789 419.191 37.6602C419.941 39.4297 420.316 41.4922 420.316 43.8477C420.316 46.2266 419.941 48.3066 419.191 50.0879C418.453 51.8574 417.416 53.2285 416.08 54.2012C414.756 55.1621 413.262 55.6426 411.598 55.6426C409.922 55.6426 408.416 55.1621 407.08 54.2012C405.756 53.2285 404.713 51.8574 403.951 50.0879C403.201 48.3066 402.826 46.2266 402.826 43.8477C402.826 41.4922 403.201 39.4297 403.951 37.6602C404.713 35.8789 405.756 34.5137 407.08 33.5645C408.416 32.6035 409.922 32.123 411.598 32.123ZM411.598 37.2383C410.93 37.2148 410.344 37.4434 409.84 37.9238C409.336 38.4043 408.949 39.1484 408.68 40.1562C408.422 41.1523 408.293 42.3828 408.293 43.8477C408.293 45.3359 408.422 46.5781 408.68 47.5742C408.949 48.5586 409.336 49.291 409.84 49.7715C410.344 50.252 410.93 50.4922 411.598 50.4922C412.277 50.4922 412.857 50.252 413.338 49.7715C413.83 49.291 414.211 48.5586 414.48 47.5742C414.75 46.5781 414.885 45.3359 414.885 43.8477C414.885 42.3828 414.75 41.1523 414.48 40.1562C414.211 39.1484 413.83 38.4043 413.338 37.9238C412.857 37.4434 412.277 37.2148 411.598 37.2383ZM461.273 54.5H455.93V29.9609H461.273V54.5ZM450.463 43.1797H445.84V38.6973H450.463V43.1797ZM454.4 53.4453H449.109V30.4004H454.4V53.4453ZM439.406 37.0449H442.025V32.4219H447.211V49.1562H434.062V32.4219H439.406V37.0449ZM442.025 44.709V41.2812H439.406V44.709H442.025ZM461.994 62.041H438.791V57.541H461.994V62.041ZM444.416 60.248H438.791V51.3008H444.416V60.248ZM490.857 50.6855H467.549V46.3086H490.857V50.6855ZM493.969 59H464.297V54.4648H493.969V59ZM490.682 36.6406H473.279V47.4336H467.549V32.1055H490.682V36.6406ZM489.873 43.5312H471.645V39.1719H489.873V43.5312ZM529.23 53.498H523.57V30.0312H529.23V53.498ZM533.291 43.6016H527.666V38.9961H533.291V43.6016ZM530.18 62.041H507.662V57.541H530.18V62.041ZM513.322 59.6328H507.662V51.002H513.322V59.6328ZM512.338 31.9473C514.014 31.9473 515.543 32.3105 516.926 33.0371C518.32 33.752 519.416 34.7539 520.213 36.043C521.021 37.3203 521.426 38.7617 521.426 40.3672C521.426 41.9609 521.021 43.4023 520.213 44.6914C519.416 45.9688 518.32 46.9766 516.926 47.7148C515.543 48.4414 514.014 48.8047 512.338 48.8047C510.674 48.8047 509.139 48.4414 507.732 47.7148C506.326 46.9766 505.213 45.9629 504.393 44.6738C503.584 43.373 503.18 41.9375 503.18 40.3672C503.18 38.7617 503.584 37.3203 504.393 36.043C505.213 34.7539 506.32 33.752 507.715 33.0371C509.109 32.3105 510.65 31.9473 512.338 31.9473ZM512.338 36.8516C511.682 36.8398 511.072 36.9688 510.51 37.2383C509.959 37.4961 509.52 37.8945 509.191 38.4336C508.863 38.9609 508.699 39.6055 508.699 40.3672C508.699 41.1172 508.863 41.7559 509.191 42.2832C509.52 42.7988 509.959 43.1973 510.51 43.4785C511.072 43.748 511.682 43.8828 512.338 43.8828C513.029 43.8828 513.645 43.7539 514.184 43.4961C514.734 43.2266 515.162 42.8281 515.467 42.3008C515.771 41.7617 515.924 41.1172 515.924 40.3672C515.924 39.6055 515.771 38.9609 515.467 38.4336C515.162 37.8945 514.734 37.4961 514.184 37.2383C513.645 36.9688 513.029 36.8398 512.338 36.8516ZM562.541 62.4805H557.145V29.9609H562.541V62.4805ZM558.551 46.6074H553.594V42.125H558.551V46.6074ZM555.158 60.9863H549.867V30.4355H555.158V60.9863ZM541.078 52.1621H535.436V33.3711H541.078V52.1621ZM537.738 50.0352C539.555 50.0352 541.336 49.9707 543.082 49.8418C544.828 49.7129 546.598 49.4844 548.391 49.1562L548.936 53.9727C546.955 54.3008 545.039 54.5352 543.188 54.6758C541.336 54.8164 539.52 54.8867 537.738 54.8867H535.436V50.0352H537.738Z" fill="black"/>
<path d="M429.492 62.5859V63.0859H429.992V62.5859H429.492ZM423.762 62.5859H423.262V63.0859H423.762V62.5859ZM423.762 29.9609V29.4609H423.262V29.9609H423.762ZM429.492 29.9609H429.992V29.4609H429.492V29.9609ZM416.08 33.5645L415.786 33.9692L415.79 33.972L416.08 33.5645ZM419.191 37.6602L418.729 37.8516L418.731 37.8553L419.191 37.6602ZM419.191 50.0879L418.731 49.8939L418.73 49.8954L419.191 50.0879ZM416.08 54.2012L416.374 54.6059L416.374 54.6054L416.08 54.2012ZM407.08 54.2012L406.784 54.6042L406.788 54.6071L407.08 54.2012ZM403.951 50.0879L403.49 50.2819L403.492 50.2856L403.951 50.0879ZM403.951 37.6602L403.491 37.4636L403.491 37.465L403.951 37.6602ZM407.08 33.5645L407.371 33.9708L407.372 33.9704L407.08 33.5645ZM411.598 37.2383L411.58 37.738L411.598 37.7386L411.615 37.738L411.598 37.2383ZM408.68 40.1562L408.197 40.0271L408.196 40.031L408.68 40.1562ZM408.68 47.5742L408.196 47.6995L408.197 47.7063L408.68 47.5742ZM413.338 49.7715L412.989 49.4137L412.984 49.4179L413.338 49.7715ZM414.48 47.5742L414.963 47.7063L414.963 47.7048L414.48 47.5742ZM414.48 40.1562L413.997 40.2854L413.998 40.2868L414.48 40.1562ZM413.338 37.9238L412.984 38.2774L412.989 38.2816L413.338 37.9238ZM429.492 62.0859H423.762V63.0859H429.492V62.0859ZM424.262 62.5859V29.9609H423.262V62.5859H424.262ZM423.762 30.4609H429.492V29.4609H423.762V30.4609ZM428.992 29.9609V62.5859H429.992V29.9609H428.992ZM411.598 32.623C413.158 32.623 414.549 33.0713 415.786 33.9691L416.374 33.1598C414.963 32.1358 413.365 31.623 411.598 31.623V32.623ZM415.79 33.972C417.037 34.8578 418.021 36.1416 418.73 37.8516L419.653 37.4687C418.885 35.6162 417.795 34.1695 416.37 33.1569L415.79 33.972ZM418.731 37.8553C419.45 39.5508 419.816 41.5445 419.816 43.8477H420.816C420.816 41.4399 420.433 39.3085 419.652 37.465L418.731 37.8553ZM419.816 43.8477C419.816 46.1749 419.449 48.1865 418.731 49.8939L419.652 50.2819C420.433 48.4268 420.816 46.2783 420.816 43.8477H419.816ZM418.73 49.8954C418.021 51.5941 417.036 52.8864 415.786 53.797L416.374 54.6054C417.796 53.5707 418.885 52.1207 419.653 50.2804L418.73 49.8954ZM415.786 53.7965C414.549 54.6943 413.158 55.1426 411.598 55.1426V56.1426C413.365 56.1426 414.963 55.6299 416.374 54.6059L415.786 53.7965ZM411.598 55.1426C410.025 55.1426 408.621 54.6938 407.372 53.7953L406.788 54.6071C408.211 55.6304 409.819 56.1426 411.598 56.1426V55.1426ZM407.376 53.7982C406.135 52.8867 405.143 51.5922 404.41 49.8902L403.492 50.2856C404.283 52.1226 405.377 53.5703 406.784 54.6041L407.376 53.7982ZM404.412 49.8939C403.693 48.1865 403.326 46.1749 403.326 43.8477H402.326C402.326 46.2783 402.709 48.4268 403.49 50.2819L404.412 49.8939ZM403.326 43.8477C403.326 41.5445 403.693 39.5508 404.412 37.8553L403.491 37.465C402.709 39.3085 402.326 41.4399 402.326 43.8477H403.326ZM404.411 37.8568C405.144 36.1435 406.134 34.8575 407.371 33.9708L406.789 33.1581C405.377 34.1698 404.282 35.6143 403.491 37.4636L404.411 37.8568ZM407.372 33.9704C408.621 33.0718 410.025 32.623 411.598 32.623V31.623C409.819 31.623 408.211 32.1352 406.788 33.1586L407.372 33.9704ZM411.615 36.7386C410.807 36.7102 410.092 36.993 409.495 37.562L410.185 38.2857C410.596 37.8938 411.053 37.7195 411.58 37.738L411.615 36.7386ZM409.495 37.562C408.899 38.1299 408.479 38.9717 408.197 40.0271L409.163 40.2854C409.42 39.3252 409.773 38.6787 410.185 38.2857L409.495 37.562ZM408.196 40.031C407.924 41.0812 407.793 42.3568 407.793 43.8477H408.793C408.793 42.4088 408.92 41.2235 409.164 40.2815L408.196 40.031ZM407.793 43.8477C407.793 45.3612 407.924 46.6488 408.196 47.6995L409.164 47.4489C408.92 46.5075 408.793 45.3107 408.793 43.8477H407.793ZM408.197 47.7063C408.48 48.74 408.901 49.5675 409.495 50.1334L410.185 49.4096C409.771 49.0145 409.418 48.3772 409.162 47.4422L408.197 47.7063ZM409.495 50.1334C410.087 50.6983 410.795 50.9922 411.598 50.9922V49.9922C411.064 49.9922 410.6 49.8056 410.185 49.4096L409.495 50.1334ZM411.598 50.9922C412.41 50.9922 413.117 50.6993 413.691 50.125L412.984 49.4179C412.598 49.8046 412.145 49.9922 411.598 49.9922V50.9922ZM413.687 50.1293C414.267 49.5637 414.68 48.7378 414.963 47.7063L413.998 47.4422C413.742 48.3794 413.394 49.0183 412.989 49.4137L413.687 50.1293ZM414.963 47.7048C415.248 46.6519 415.385 45.3624 415.385 43.8477H414.385C414.385 45.3095 414.252 46.5043 413.998 47.4436L414.963 47.7048ZM415.385 43.8477C415.385 42.3555 415.248 41.078 414.963 40.0257L413.998 40.2868C414.252 41.2267 414.385 42.4101 414.385 43.8477H415.385ZM414.963 40.0271C414.682 38.9739 414.269 38.1337 413.687 37.566L412.989 38.2816C413.391 38.6749 413.74 39.323 413.997 40.2854L414.963 40.0271ZM413.691 37.5703C413.113 36.9917 412.398 36.7104 411.58 36.7386L411.615 37.738C412.156 37.7193 412.602 37.895 412.984 38.2774L413.691 37.5703ZM461.273 54.5V55H461.773V54.5H461.273ZM455.93 54.5H455.43V55H455.93V54.5ZM455.93 29.9609V29.4609H455.43V29.9609H455.93ZM461.273 29.9609H461.773V29.4609H461.273V29.9609ZM450.463 43.1797V43.6797H450.963V43.1797H450.463ZM445.84 43.1797H445.34V43.6797H445.84V43.1797ZM445.84 38.6973V38.1973H445.34V38.6973H445.84ZM450.463 38.6973H450.963V38.1973H450.463V38.6973ZM454.4 53.4453V53.9453H454.9V53.4453H454.4ZM449.109 53.4453H448.609V53.9453H449.109V53.4453ZM449.109 30.4004V29.9004H448.609V30.4004H449.109ZM454.4 30.4004H454.9V29.9004H454.4V30.4004ZM439.406 37.0449H438.906V37.5449H439.406V37.0449ZM442.025 37.0449V37.5449H442.525V37.0449H442.025ZM442.025 32.4219V31.9219H441.525V32.4219H442.025ZM447.211 32.4219H447.711V31.9219H447.211V32.4219ZM447.211 49.1562V49.6562H447.711V49.1562H447.211ZM434.062 49.1562H433.562V49.6562H434.062V49.1562ZM434.062 32.4219V31.9219H433.562V32.4219H434.062ZM439.406 32.4219H439.906V31.9219H439.406V32.4219ZM442.025 44.709V45.209H442.525V44.709H442.025ZM442.025 41.2812H442.525V40.7812H442.025V41.2812ZM439.406 41.2812V40.7812H438.906V41.2812H439.406ZM439.406 44.709H438.906V45.209H439.406V44.709ZM461.994 62.041V62.541H462.494V62.041H461.994ZM438.791 62.041H438.291V62.541H438.791V62.041ZM438.791 57.541V57.041H438.291V57.541H438.791ZM461.994 57.541H462.494V57.041H461.994V57.541ZM444.416 60.248V60.748H444.916V60.248H444.416ZM438.791 60.248H438.291V60.748H438.791V60.248ZM438.791 51.3008V50.8008H438.291V51.3008H438.791ZM444.416 51.3008H444.916V50.8008H444.416V51.3008ZM461.273 54H455.93V55H461.273V54ZM456.43 54.5V29.9609H455.43V54.5H456.43ZM455.93 30.4609H461.273V29.4609H455.93V30.4609ZM460.773 29.9609V54.5H461.773V29.9609H460.773ZM450.463 42.6797H445.84V43.6797H450.463V42.6797ZM446.34 43.1797V38.6973H445.34V43.1797H446.34ZM445.84 39.1973H450.463V38.1973H445.84V39.1973ZM449.963 38.6973V43.1797H450.963V38.6973H449.963ZM454.4 52.9453H449.109V53.9453H454.4V52.9453ZM449.609 53.4453V30.4004H448.609V53.4453H449.609ZM449.109 30.9004H454.4V29.9004H449.109V30.9004ZM453.9 30.4004V53.4453H454.9V30.4004H453.9ZM439.406 37.5449H442.025V36.5449H439.406V37.5449ZM442.525 37.0449V32.4219H441.525V37.0449H442.525ZM442.025 32.9219H447.211V31.9219H442.025V32.9219ZM446.711 32.4219V49.1562H447.711V32.4219H446.711ZM447.211 48.6562H434.062V49.6562H447.211V48.6562ZM434.562 49.1562V32.4219H433.562V49.1562H434.562ZM434.062 32.9219H439.406V31.9219H434.062V32.9219ZM438.906 32.4219V37.0449H439.906V32.4219H438.906ZM442.525 44.709V41.2812H441.525V44.709H442.525ZM442.025 40.7812H439.406V41.7812H442.025V40.7812ZM438.906 41.2812V44.709H439.906V41.2812H438.906ZM439.406 45.209H442.025V44.209H439.406V45.209ZM461.994 61.541H438.791V62.541H461.994V61.541ZM439.291 62.041V57.541H438.291V62.041H439.291ZM438.791 58.041H461.994V57.041H438.791V58.041ZM461.494 57.541V62.041H462.494V57.541H461.494ZM444.416 59.748H438.791V60.748H444.416V59.748ZM439.291 60.248V51.3008H438.291V60.248H439.291ZM438.791 51.8008H444.416V50.8008H438.791V51.8008ZM443.916 51.3008V60.248H444.916V51.3008H443.916ZM490.857 50.6855V51.1855H491.357V50.6855H490.857ZM467.549 50.6855H467.049V51.1855H467.549V50.6855ZM467.549 46.3086V45.8086H467.049V46.3086H467.549ZM490.857 46.3086H491.357V45.8086H490.857V46.3086ZM493.969 59V59.5H494.469V59H493.969ZM464.297 59H463.797V59.5H464.297V59ZM464.297 54.4648V53.9648H463.797V54.4648H464.297ZM493.969 54.4648H494.469V53.9648H493.969V54.4648ZM490.682 36.6406V37.1406H491.182V36.6406H490.682ZM473.279 36.6406V36.1406H472.779V36.6406H473.279ZM473.279 47.4336V47.9336H473.779V47.4336H473.279ZM467.549 47.4336H467.049V47.9336H467.549V47.4336ZM467.549 32.1055V31.6055H467.049V32.1055H467.549ZM490.682 32.1055H491.182V31.6055H490.682V32.1055ZM489.873 43.5312V44.0312H490.373V43.5312H489.873ZM471.645 43.5312H471.145V44.0312H471.645V43.5312ZM471.645 39.1719V38.6719H471.145V39.1719H471.645ZM489.873 39.1719H490.373V38.6719H489.873V39.1719ZM490.857 50.1855H467.549V51.1855H490.857V50.1855ZM468.049 50.6855V46.3086H467.049V50.6855H468.049ZM467.549 46.8086H490.857V45.8086H467.549V46.8086ZM490.357 46.3086V50.6855H491.357V46.3086H490.357ZM493.969 58.5H464.297V59.5H493.969V58.5ZM464.797 59V54.4648H463.797V59H464.797ZM464.297 54.9648H493.969V53.9648H464.297V54.9648ZM493.469 54.4648V59H494.469V54.4648H493.469ZM490.682 36.1406H473.279V37.1406H490.682V36.1406ZM472.779 36.6406V47.4336H473.779V36.6406H472.779ZM473.279 46.9336H467.549V47.9336H473.279V46.9336ZM468.049 47.4336V32.1055H467.049V47.4336H468.049ZM467.549 32.6055H490.682V31.6055H467.549V32.6055ZM490.182 32.1055V36.6406H491.182V32.1055H490.182ZM489.873 43.0312H471.645V44.0312H489.873V43.0312ZM472.145 43.5312V39.1719H471.145V43.5312H472.145ZM471.645 39.6719H489.873V38.6719H471.645V39.6719ZM489.373 39.1719V43.5312H490.373V39.1719H489.373ZM529.23 53.498V53.998H529.73V53.498H529.23ZM523.57 53.498H523.07V53.998H523.57V53.498ZM523.57 30.0312V29.5312H523.07V30.0312H523.57ZM529.23 30.0312H529.73V29.5312H529.23V30.0312ZM533.291 43.6016V44.1016H533.791V43.6016H533.291ZM527.666 43.6016H527.166V44.1016H527.666V43.6016ZM527.666 38.9961V38.4961H527.166V38.9961H527.666ZM533.291 38.9961H533.791V38.4961H533.291V38.9961ZM530.18 62.041V62.541H530.68V62.041H530.18ZM507.662 62.041H507.162V62.541H507.662V62.041ZM507.662 57.541V57.041H507.162V57.541H507.662ZM530.18 57.541H530.68V57.041H530.18V57.541ZM513.322 59.6328V60.1328H513.822V59.6328H513.322ZM507.662 59.6328H507.162V60.1328H507.662V59.6328ZM507.662 51.002V50.502H507.162V51.002H507.662ZM513.322 51.002H513.822V50.502H513.322V51.002ZM516.926 33.0371L516.693 33.4798L516.698 33.4821L516.926 33.0371ZM520.213 36.043L519.788 36.3059L519.79 36.3104L520.213 36.043ZM520.213 44.6914L519.789 44.4257L519.789 44.4268L520.213 44.6914ZM516.926 47.7148L517.158 48.1575L517.16 48.1567L516.926 47.7148ZM507.732 47.7148L507.5 48.1576L507.503 48.1591L507.732 47.7148ZM504.393 44.6738L503.968 44.9378L503.971 44.9423L504.393 44.6738ZM504.393 36.043L503.971 35.7745L503.97 35.7755L504.393 36.043ZM507.715 33.0371L507.943 33.4821L507.946 33.4805L507.715 33.0371ZM512.338 36.8516L512.329 37.3515L512.338 37.3516L512.346 37.3515L512.338 36.8516ZM510.51 37.2383L510.722 37.6911L510.726 37.6892L510.51 37.2383ZM509.191 38.4336L509.616 38.6978L509.619 38.6936L509.191 38.4336ZM509.191 42.2832L508.767 42.5474L508.77 42.5516L509.191 42.2832ZM510.51 43.4785L510.282 43.924L510.294 43.9294L510.51 43.4785ZM514.184 43.4961L514.399 43.9472L514.403 43.9452L514.184 43.4961ZM515.467 42.3008L515.9 42.5509L515.902 42.5468L515.467 42.3008ZM515.467 38.4336L515.031 38.6796L515.034 38.6837L515.467 38.4336ZM514.184 37.2383L513.96 37.6856L513.972 37.6911L514.184 37.2383ZM529.23 52.998H523.57V53.998H529.23V52.998ZM524.07 53.498V30.0312H523.07V53.498H524.07ZM523.57 30.5312H529.23V29.5312H523.57V30.5312ZM528.73 30.0312V53.498H529.73V30.0312H528.73ZM533.291 43.1016H527.666V44.1016H533.291V43.1016ZM528.166 43.6016V38.9961H527.166V43.6016H528.166ZM527.666 39.4961H533.291V38.4961H527.666V39.4961ZM532.791 38.9961V43.6016H533.791V38.9961H532.791ZM530.18 61.541H507.662V62.541H530.18V61.541ZM508.162 62.041V57.541H507.162V62.041H508.162ZM507.662 58.041H530.18V57.041H507.662V58.041ZM529.68 57.541V62.041H530.68V57.541H529.68ZM513.322 59.1328H507.662V60.1328H513.322V59.1328ZM508.162 59.6328V51.002H507.162V59.6328H508.162ZM507.662 51.502H513.322V50.502H507.662V51.502ZM512.822 51.002V59.6328H513.822V51.002H512.822ZM512.338 32.4473C513.939 32.4473 515.387 32.7936 516.693 33.4797L517.158 32.5945C515.699 31.8275 514.089 31.4473 512.338 31.4473V32.4473ZM516.698 33.4821C518.014 34.1568 519.04 35.0971 519.788 36.3059L520.638 35.7801C519.792 34.4108 518.627 33.3471 517.154 32.5922L516.698 33.4821ZM519.79 36.3104C520.545 37.5027 520.926 38.8503 520.926 40.3672H521.926C521.926 38.6732 521.498 37.1379 520.635 35.7755L519.79 36.3104ZM520.926 40.3672C520.926 41.8716 520.546 43.2201 519.789 44.4257L520.636 44.9571C521.497 43.5845 521.926 42.0503 521.926 40.3672H520.926ZM519.789 44.4268C519.041 45.6256 518.012 46.5739 516.692 47.2729L517.16 48.1567C518.628 47.3793 519.791 46.3119 520.637 44.9561L519.789 44.4268ZM516.693 47.2722C515.387 47.9584 513.939 48.3047 512.338 48.3047V49.3047C514.089 49.3047 515.699 48.9244 517.158 48.1575L516.693 47.2722ZM512.338 48.3047C510.749 48.3047 509.294 47.9586 507.962 47.2706L507.503 48.1591C508.984 48.9242 510.598 49.3047 512.338 49.3047V48.3047ZM507.965 47.2721C506.633 46.5728 505.586 45.6179 504.814 44.4054L503.971 44.9423C504.84 46.3079 506.02 47.3804 507.5 48.1575L507.965 47.2721ZM504.817 44.4099C504.059 43.1904 503.68 41.8467 503.68 40.3672H502.68C502.68 42.0283 503.109 43.5557 503.968 44.9378L504.817 44.4099ZM503.68 40.3672C503.68 38.8503 504.06 37.5027 504.815 36.3104L503.97 35.7755C503.108 37.1379 502.68 38.6732 502.68 40.3672H503.68ZM504.814 36.3114C505.586 35.0994 506.625 34.1574 507.943 33.4821L507.487 32.5922C506.015 33.3465 504.84 34.4085 503.971 35.7745L504.814 36.3114ZM507.946 33.4805C509.264 32.7938 510.725 32.4473 512.338 32.4473V31.4473C510.576 31.4473 508.955 31.8273 507.484 32.5937L507.946 33.4805ZM512.347 36.3516C511.617 36.3386 510.93 36.4825 510.294 36.7874L510.726 37.6892C511.214 37.455 511.746 37.3411 512.329 37.3515L512.347 36.3516ZM510.298 36.7854C509.654 37.0866 509.142 37.5539 508.764 38.1736L509.619 38.6936C509.898 38.2352 510.264 37.9056 510.722 37.6911L510.298 36.7854ZM508.767 38.1694C508.379 38.7923 508.199 39.5333 508.199 40.3672H509.199C509.199 39.6777 509.347 39.1296 509.616 38.6977L508.767 38.1694ZM508.199 40.3672C508.199 41.1911 508.38 41.9257 508.767 42.5474L509.616 42.0191C509.347 41.5861 509.199 41.0433 509.199 40.3672H508.199ZM508.77 42.5516C509.146 43.1434 509.653 43.6025 510.282 43.9238L510.737 43.0332C510.265 42.792 509.893 42.4542 509.613 42.0148L508.77 42.5516ZM510.294 43.9294C510.927 44.233 511.611 44.3828 512.338 44.3828V43.3828C511.752 43.3828 511.217 43.2631 510.726 43.0276L510.294 43.9294ZM512.338 44.3828C513.092 44.3828 513.783 44.2419 514.399 43.9472L513.968 43.045C513.506 43.2659 512.966 43.3828 512.338 43.3828V44.3828ZM514.403 43.9452C515.043 43.6323 515.545 43.1649 515.9 42.5509L515.034 42.0506C514.779 42.4913 514.426 42.8208 513.964 43.047L514.403 43.9452ZM515.902 42.5468C516.257 41.9183 516.424 41.1853 516.424 40.3672H515.424C515.424 41.0491 515.286 41.6051 515.032 42.0548L515.902 42.5468ZM516.424 40.3672C516.424 39.5394 516.258 38.8037 515.9 38.1835L515.034 38.6837C515.285 39.1182 515.424 39.6715 515.424 40.3672H516.424ZM515.902 38.1876C515.547 37.5598 515.042 37.0882 514.396 36.7854L513.972 37.6911C514.426 37.904 514.777 38.2293 515.032 38.6796L515.902 38.1876ZM514.407 36.7911C513.786 36.4806 513.089 36.3388 512.329 36.3516L512.346 37.3515C512.969 37.3409 513.503 37.4569 513.96 37.6855L514.407 36.7911ZM562.541 62.4805V62.9805H563.041V62.4805H562.541ZM557.145 62.4805H556.645V62.9805H557.145V62.4805ZM557.145 29.9609V29.4609H556.645V29.9609H557.145ZM562.541 29.9609H563.041V29.4609H562.541V29.9609ZM558.551 46.6074V47.1074H559.051V46.6074H558.551ZM553.594 46.6074H553.094V47.1074H553.594V46.6074ZM553.594 42.125V41.625H553.094V42.125H553.594ZM558.551 42.125H559.051V41.625H558.551V42.125ZM555.158 60.9863V61.4863H555.658V60.9863H555.158ZM549.867 60.9863H549.367V61.4863H549.867V60.9863ZM549.867 30.4355V29.9355H549.367V30.4355H549.867ZM555.158 30.4355H555.658V29.9355H555.158V30.4355ZM541.078 52.1621V52.6621H541.578V52.1621H541.078ZM535.436 52.1621H534.936V52.6621H535.436V52.1621ZM535.436 33.3711V32.8711H534.936V33.3711H535.436ZM541.078 33.3711H541.578V32.8711H541.078V33.3711ZM548.391 49.1562L548.887 49.1L548.827 48.568L548.301 48.6644L548.391 49.1562ZM548.936 53.9727L549.017 54.4659L549.486 54.3883L549.432 53.9164L548.936 53.9727ZM535.436 54.8867H534.936V55.3867H535.436V54.8867ZM535.436 50.0352V49.5352H534.936V50.0352H535.436ZM562.541 61.9805H557.145V62.9805H562.541V61.9805ZM557.645 62.4805V29.9609H556.645V62.4805H557.645ZM557.145 30.4609H562.541V29.4609H557.145V30.4609ZM562.041 29.9609V62.4805H563.041V29.9609H562.041ZM558.551 46.1074H553.594V47.1074H558.551V46.1074ZM554.094 46.6074V42.125H553.094V46.6074H554.094ZM553.594 42.625H558.551V41.625H553.594V42.625ZM558.051 42.125V46.6074H559.051V42.125H558.051ZM555.158 60.4863H549.867V61.4863H555.158V60.4863ZM550.367 60.9863V30.4355H549.367V60.9863H550.367ZM549.867 30.9355H555.158V29.9355H549.867V30.9355ZM554.658 30.4355V60.9863H555.658V30.4355H554.658ZM541.078 51.6621H535.436V52.6621H541.078V51.6621ZM535.936 52.1621V33.3711H534.936V52.1621H535.936ZM535.436 33.8711H541.078V32.8711H535.436V33.8711ZM540.578 33.3711V52.1621H541.578V33.3711H540.578ZM537.738 50.5352C539.567 50.5352 541.36 50.4703 543.119 50.3404L543.045 49.3432C541.312 49.4711 539.543 49.5352 537.738 49.5352V50.5352ZM543.119 50.3404C544.883 50.2102 546.671 49.9793 548.481 49.6481L548.301 48.6644C546.525 48.9895 544.773 49.2156 543.045 49.3432L543.119 50.3404ZM547.894 49.2125L548.439 54.0289L549.432 53.9164L548.887 49.1L547.894 49.2125ZM548.854 53.4794C546.887 53.8053 544.985 54.0378 543.15 54.1772L543.225 55.1743C545.093 55.0325 547.023 54.7963 549.017 54.4659L548.854 53.4794ZM543.15 54.1772C541.31 54.3169 539.506 54.3867 537.738 54.3867V55.3867C539.533 55.3867 541.362 55.3159 543.225 55.1743L543.15 54.1772ZM537.738 54.3867H535.436V55.3867H537.738V54.3867ZM535.936 54.8867V50.0352H534.936V54.8867H535.936ZM535.436 50.5352H537.738V49.5352H535.436V50.5352Z" fill="white" mask="url(#path-2-outside-1_247_996)"/>
</g>
<defs>
<clipPath id="clip0_247_996">
<rect width="966" height="94" fill="white"/>
</clipPath>
</defs>
</svg>