<svg xmlns="http://www.w3.org/2000/svg" id="_레이어_1" viewBox="0 0 1668.12 2489.16"><defs><style>.cls-1{fill:#5ed1ff;}.cls-1,.cls-2,.cls-3{stroke-width:0px;}.cls-2{fill:#3f3f3f;}.cls-3{fill:#b1b1b1;}</style></defs><path class="cls-3" d="m839.76,1637.06c-16.3,0-29.52-13.22-29.52-29.52s13.22-29.52,29.52-29.52c334.17,0,627.3-316.85,627.3-678.07,0-226.03-89.68-420.65-246.05-533.94-13.21-9.57-16.15-28.02-6.59-41.23,9.58-13.21,28.04-16.15,41.23-6.59,171.88,124.53,270.45,336.58,270.45,581.76,0,392.67-320.72,737.12-686.35,737.12Z"/><path class="cls-2" d="m832.48,2489.16c-20.38,0-36.91-16.52-36.91-36.91v-64.66h-90.35c-20.38,0-36.91-16.52-36.91-36.91v-101.55c0-20.38,16.52-36.91,36.91-36.91h501.21v-27.74H408.29c-20.38,0-36.91-16.52-36.91-36.91v-101.58c0-9.79,3.89-19.18,10.82-26.1,6.92-6.92,16.3-10.8,26.09-10.8h.02l903.58.54v-28.58l-981.04,3.24h-.12c-9.77,0-19.14-3.87-26.05-10.77-6.95-6.92-10.86-16.33-10.86-26.14v-104.33c0-9.82,3.91-19.24,10.88-26.17,6.91-6.88,16.27-10.74,26.02-10.74h.21l464.64,2.59v-67.04c0-20.38,16.52-36.91,36.91-36.91s36.91,16.52,36.91,36.91v104.16c0,9.82-3.91,19.24-10.88,26.17-6.96,6.93-15.81,11.11-26.23,10.74l-464.64-2.59v30.19l981.04-3.24c9.9.7,19.23,3.84,26.17,10.77,6.95,6.92,10.86,16.33,10.86,26.14v102.53c0,9.79-3.89,19.18-10.82,26.1-6.92,6.92-16.3,10.8-26.09,10.8h-.02l-903.58-.54v27.74h798.14c20.38,0,36.91,16.52,36.91,36.91v101.55c0,20.38-16.52,36.91-36.91,36.91h-501.21v27.74h90.35c20.38,0,36.91,16.52,36.91,36.91v101.56c0,20.38-16.52,36.91-36.91,36.91Z"/><circle class="cls-1" cx="834.06" cy="410.49" r="100.39"/><circle class="cls-1" cx="834.06" cy="415.95" r="100.25"/><circle class="cls-1" cx="834.06" cy="421.41" r="100.12"/><circle class="cls-1" cx="834.06" cy="426.87" r="99.98"/><circle class="cls-1" cx="834.06" cy="432.34" r="99.84"/><circle class="cls-1" cx="834.06" cy="437.8" r="99.7"/><circle class="cls-1" cx="834.06" cy="443.26" r="99.56"/><circle class="cls-1" cx="834.06" cy="448.72" r="99.42"/><circle class="cls-1" cx="834.06" cy="454.18" r="99.28"/><circle class="cls-1" cx="834.06" cy="459.64" r="99.14"/><circle class="cls-1" cx="834.06" cy="465.1" r="99"/><circle class="cls-1" cx="834.06" cy="470.57" r="98.86"/><circle class="cls-1" cx="834.06" cy="476.03" r="98.73"/><circle class="cls-1" cx="834.06" cy="481.49" r="98.59"/><circle class="cls-1" cx="834.06" cy="486.95" r="98.45"/><circle class="cls-1" cx="834.06" cy="492.41" r="98.31"/><circle class="cls-1" cx="834.06" cy="497.87" r="98.17"/><circle class="cls-1" cx="834.06" cy="503.33" r="98.03"/><circle class="cls-1" cx="834.06" cy="508.8" r="97.89"/><circle class="cls-1" cx="834.06" cy="514.26" r="97.75"/><circle class="cls-1" cx="834.06" cy="519.72" r="97.61"/><circle class="cls-1" cx="834.06" cy="525.18" r="97.48"/><circle class="cls-1" cx="834.06" cy="530.64" r="97.34"/><circle class="cls-1" cx="834.06" cy="536.1" r="97.2"/><circle class="cls-1" cx="834.06" cy="541.56" r="97.06"/><circle class="cls-1" cx="834.06" cy="547.03" r="96.92"/><circle class="cls-1" cx="834.06" cy="552.49" r="96.78"/><circle class="cls-1" cx="834.06" cy="557.95" r="96.64"/><circle class="cls-1" cx="834.06" cy="563.41" r="96.5"/><circle class="cls-1" cx="834.06" cy="568.87" r="96.36"/><circle class="cls-1" cx="834.06" cy="574.33" r="96.23"/><circle class="cls-1" cx="834.06" cy="579.79" r="96.09"/><circle class="cls-1" cx="834.06" cy="585.26" r="95.95"/><circle class="cls-1" cx="834.06" cy="590.72" r="95.81"/><circle class="cls-1" cx="834.06" cy="596.18" r="95.67"/><circle class="cls-1" cx="834.06" cy="601.64" r="95.53"/><circle class="cls-1" cx="834.06" cy="607.1" r="95.39"/><circle class="cls-1" cx="834.06" cy="612.56" r="95.25"/><circle class="cls-1" cx="834.06" cy="618.02" r="95.11"/><circle class="cls-1" cx="834.06" cy="623.49" r="94.97"/><circle class="cls-1" cx="834.06" cy="628.95" r="94.84"/><circle class="cls-1" cx="834.06" cy="634.41" r="94.7"/><circle class="cls-1" cx="834.06" cy="639.87" r="94.56"/><circle class="cls-1" cx="834.06" cy="645.33" r="94.42"/><circle class="cls-1" cx="834.06" cy="650.79" r="94.28"/><circle class="cls-1" cx="834.06" cy="656.25" r="94.14"/><circle class="cls-1" cx="834.06" cy="661.72" r="94"/><circle class="cls-1" cx="834.06" cy="667.18" r="93.86"/><circle class="cls-1" cx="834.06" cy="672.64" r="93.72"/><circle class="cls-1" cx="834.06" cy="678.1" r="93.59"/><circle class="cls-1" cx="834.06" cy="683.56" r="93.45"/><circle class="cls-1" cx="834.06" cy="689.02" r="93.31"/><circle class="cls-1" cx="834.06" cy="694.48" r="93.17"/><circle class="cls-1" cx="834.06" cy="699.95" r="93.03"/><circle class="cls-1" cx="834.06" cy="705.41" r="92.89"/><circle class="cls-1" cx="834.06" cy="710.87" r="92.75"/><circle class="cls-1" cx="834.06" cy="716.33" r="92.61"/><circle class="cls-1" cx="834.06" cy="721.79" r="92.47"/><circle class="cls-1" cx="834.06" cy="727.25" r="92.34"/><circle class="cls-1" cx="834.06" cy="732.71" r="92.2"/><circle class="cls-1" cx="834.06" cy="738.18" r="92.06"/><circle class="cls-1" cx="834.06" cy="743.64" r="91.92"/><circle class="cls-1" cx="834.06" cy="749.1" r="91.78"/><circle class="cls-1" cx="834.06" cy="754.56" r="91.64"/><circle class="cls-1" cx="834.06" cy="760.02" r="91.5"/><circle class="cls-1" cx="834.06" cy="765.48" r="91.36"/><circle class="cls-1" cx="834.06" cy="770.95" r="91.22"/><circle class="cls-1" cx="834.06" cy="776.41" r="91.09"/><circle class="cls-1" cx="834.06" cy="781.87" r="90.95"/><circle class="cls-1" cx="834.06" cy="787.33" r="90.81"/><circle class="cls-1" cx="834.06" cy="792.79" r="90.67"/><circle class="cls-1" cx="834.06" cy="798.25" r="90.53"/><circle class="cls-1" cx="834.06" cy="803.71" r="90.39"/><circle class="cls-1" cx="834.06" cy="809.18" r="90.25"/><circle class="cls-1" cx="834.06" cy="814.64" r="90.11"/><circle class="cls-1" cx="834.06" cy="820.1" r="89.97"/><circle class="cls-1" cx="834.06" cy="825.56" r="89.83"/><circle class="cls-1" cx="834.06" cy="831.02" r="89.7"/><circle class="cls-1" cx="834.06" cy="836.48" r="89.56"/><circle class="cls-1" cx="834.06" cy="841.94" r="89.42"/><circle class="cls-1" cx="834.06" cy="847.41" r="89.28"/><circle class="cls-1" cx="834.06" cy="852.87" r="89.14"/><circle class="cls-1" cx="834.06" cy="858.33" r="89"/><circle class="cls-1" cx="834.06" cy="863.79" r="88.86"/><circle class="cls-1" cx="834.06" cy="869.25" r="88.72"/><circle class="cls-1" cx="834.06" cy="874.71" r="88.58"/><circle class="cls-1" cx="834.06" cy="880.17" r="88.45"/><circle class="cls-1" cx="834.06" cy="885.64" r="88.31"/><circle class="cls-1" cx="834.06" cy="891.1" r="88.17"/><circle class="cls-1" cx="834.06" cy="896.56" r="88.03"/><circle class="cls-1" cx="834.06" cy="902.02" r="87.89"/><circle class="cls-1" cx="834.06" cy="907.48" r="87.75"/><circle class="cls-1" cx="834.06" cy="912.94" r="87.61"/><circle class="cls-1" cx="834.06" cy="918.4" r="87.47"/><circle class="cls-1" cx="834.06" cy="923.87" r="87.33"/><circle class="cls-1" cx="834.06" cy="929.33" r="87.2"/><circle class="cls-1" cx="834.06" cy="934.79" r="87.06"/><circle class="cls-1" cx="834.06" cy="940.25" r="86.92"/><circle class="cls-1" cx="834.06" cy="945.71" r="86.78"/><circle class="cls-1" cx="834.06" cy="951.17" r="86.64"/><circle class="cls-1" cx="834.06" cy="956.63" r="86.5"/><circle class="cls-1" cx="834.06" cy="962.1" r="86.36"/><circle class="cls-1" cx="834.06" cy="1302.14" r="107.85"/><path class="cls-2" d="m834.06,1778.62c-219.18,0-429.25-102.6-591.5-288.89C88.41,1312.75,0,1082.87,0,859.07,0,393.41,381.96,0,834.06,0s834.06,393.41,834.06,859.07c0,223.81-88.41,453.68-242.55,630.66-162.26,186.29-372.33,288.89-591.51,288.89Zm0-1704.81c-412.1,0-760.25,359.6-760.25,785.26,0,399.23,325.13,845.74,760.25,845.74s760.25-446.51,760.25-845.74c0-425.66-348.15-785.26-760.25-785.26Z"/></svg>