<svg xmlns="http://www.w3.org/2000/svg" id="_레이어_1" viewBox="0 0 417.73 628.59"><defs><style>.cls-1{fill:none;stroke:#231815;stroke-miterlimit:10;stroke-width:3.46px;}</style></defs><path class="cls-1" d="m0,623.5c3.28,0,3.29.65,6.57.65s3.29.93,6.57.93,3.29.09,6.57.09,3.29-1.98,6.57-1.98,3.29,3.08,6.57,3.08,3.29-3.07,6.57-3.07,3.29.49,6.57.49,3.29-.22,6.57-.22,3.29,3.25,6.57,3.25,3.29-2.19,6.57-2.19,3.29-.77,6.57-.77,3.29-.37,6.57-.37,3.29-.3,6.57-.3,3.29,2.24,6.57,2.24,3.29-.11,6.57-.11,3.29,1.02,6.59,1.02,3.29-.44,6.57-.44,3.29-1.03,6.57-1.03,3.29-.85,6.57-.85,3.29-.79,6.59-.79,3.29.97,6.57.97,3.29-.99,6.57-.99,3.29,2.25,6.57,2.25,3.29-.87,6.57-.87,3.29-.26,6.57-.26,3.29.97,6.57.97,3.29.14,6.57.14,3.29-.06,6.57-.06,3.29-1.61,6.57-1.61,3.29,3.18,6.57,3.18,3.29-.07,6.57-.07,3.28-.54,6.57-.54,3.29-.06,6.57-.06,3.29-1.68,6.59-1.68,3.29,1.92,6.57,1.92,3.29-1.56,6.57-1.56,3.29,1.16,6.57,1.16,3.29-.29,6.59-.29,3.29-1.48,6.57-1.48,3.29,1.45,6.57,1.45,3.29-.21,6.59-.21,3.29-1.29,6.57-1.29,3.29,1.55,6.59,1.55,3.29-1.43,6.57-1.43,3.29,2.18,6.59,2.18,3.29-.9,6.59-.9,3.29-.43,6.59-.43,3.29,1.13,6.59,1.13,3.29-2.39,6.59-2.39,3.29-.17,6.59-.17,3.29,1.23,6.59,1.23,3.29-1.2,6.59-1.2,3.29,2.55,6.59,2.55,3.29-.87,6.57-.87,3.29,1.41,6.59,1.41,3.29-.17,6.59-.17,3.29-.1,6.59-.1,3.29-3.47,6.59-3.47,3.29,2.15,6.59,2.15,3.29-2.14,6.59-2.14,3.29,1.83,6.59,1.83,3.29,1.07,6.6,1.07,3.74,1.03,6.07-1.83c2.34-2.87,1.94-3.38,1.94-7.41s-2.96-4.03-2.96-8.06,1.7-4.03,1.7-8.06.15-4.03.15-8.06-1.33-4.03-1.33-8.06,1.94-4.03,1.94-8.06-.27-4.03-.27-8.07-.41-4.03-.41-8.07-.83-4.03-.83-8.06,1.28-4.03,1.28-8.06-1.01-4.03-1.01-8.06-.1-4.03-.1-8.06.19-4.03.19-8.06-.3-4.03-.3-8.07-.56-4.03-.56-8.07-.23-4.03-.23-8.06,1-4.03,1-8.06,1.55-4.03,1.55-8.06-.44-4.03-.44-8.06-1.61-4.03-1.61-8.07.26-4.03.26-8.07,1.98-4.03,1.98-8.06-.02-4.03-.02-8.06.15-4.03.15-8.06-2.34-4.03-2.34-8.07.93-4.03.93-8.07-1.34-4.03-1.34-8.07,1.47-4.03,1.47-8.06-1.63-4.03-1.63-8.07,2.68-4.03,2.68-8.07-2.15-4.03-2.15-8.07,1.13-4.03,1.13-8.07.48-4.03.48-8.07-.26-4.03-.26-8.07.16-4.03.16-8.07.14-4.03.14-8.07-1-4.03-1-8.07-1.02-4.03-1.02-8.07.8-4.03.8-8.07-.45-4.03-.45-8.07v-8.07c0-4.04-.09-4.03-.09-8.06s-.66-4.03-.66-8.07,1.72-4.03,1.72-8.07-.27-4.03-.27-8.06-.19-4.03-.19-8.06,1.72-4.03,1.72-8.06-2.48-4.03-2.48-8.07.81-4.03.81-8.06,1.06-4.03,1.06-8.06.17-4.03.17-8.07.1-4.03.1-8.07-2.49-4.03-2.49-8.06-.08-4.03-.08-8.07-.07-4.03-.07-8.07-.07-4.03-.07-8.07,2.34-4.03,2.34-8.07-1.63-4.03-1.63-8.07,1.49-4.03,1.49-8.07.16-4.03.16-8.07-.27-4.03-.27-8.07-1.93-4.03-1.93-8.07,1.29-4.03,1.29-8.07.2-4.04.2-8.07.99-4.03.99-8.07-1.59-4.03-1.59-8.07,1.05-4.03,1.05-8.07-1.97-4.03-1.97-8.07.92-4.03.92-8.07.65-4.04.65-8.07.21-4.04.21-8.07.73-4.04.73-8.07.41-4.04.41-8.07-2.79-4.03-2.79-8.07,1.36-4.04,1.36-8.07-1.94-4.54-1.11-8.46c1-4.66,4.19-5.76,1.86-8.62h.01c-2.33-2.87-4.01,1.16-7.29,1.16"/></svg>