<svg width="972" height="102" viewBox="0 0 972 102" fill="none" xmlns="http://www.w3.org/2000/svg">
<mask id="path-1-inside-1_487_3" fill="white">
<path d="M966.354 7.93931C962.123 3.81446 961.245 6.82017 955.384 6.82017C949.522 6.82017 949.522 6.53239 943.661 6.53239C937.799 6.53239 937.799 8.99451 931.938 8.99451C926.076 8.99451 926.076 7.71548 920.214 7.71548C914.353 7.71548 914.353 5.92485 908.491 5.92485C902.63 5.92485 902.63 6.50041 896.768 6.50041C890.907 6.50041 890.907 7.93931 885.045 7.93931C879.184 7.93931 879.184 7.65153 873.322 7.65153C867.461 7.65153 867.461 5.38127 861.599 5.38127C855.737 5.38127 855.737 6.56436 849.876 6.56436C844.014 6.56436 844.014 8.93056 838.153 8.93056C832.291 8.93056 832.291 5.9888 826.43 5.9888C820.568 5.9888 820.568 5.70102 814.706 5.70102C808.845 5.70102 808.845 5.02953 802.983 5.02953C797.122 5.02953 797.122 8.16314 791.26 8.16314C785.399 8.16314 785.399 7.97129 779.537 7.97129C773.676 7.97129 773.676 7.20387 767.814 7.20387C761.953 7.20387 761.953 5.25336 756.091 5.25336C750.23 5.25336 750.229 7.10795 744.368 7.10795C738.506 7.10795 738.506 8.67475 732.645 8.67475C726.783 8.67475 726.783 5.41324 720.922 5.41324C715.06 5.41324 715.06 6.46844 709.199 6.46844C703.337 6.46844 703.337 9.05846 697.476 9.05846C691.614 9.05846 691.614 6.72424 685.753 6.72424C679.891 6.72424 679.891 5.02953 674.029 5.02953C668.168 5.02953 668.168 7.20387 662.306 7.20387C656.445 7.20387 656.445 9.05846 650.583 9.05846C644.722 9.05846 644.722 7.81141 638.86 7.81141C632.999 7.81141 632.999 8.25907 627.137 8.25907C621.275 8.25907 621.275 6.30856 615.414 6.30856C609.552 6.30856 609.552 6.24461 603.691 6.24461C597.829 6.24461 597.829 9.02648 591.968 9.02648C586.106 9.02648 586.106 8.54685 580.245 8.54685C574.383 8.54685 574.383 6.02078 568.521 6.02078C562.66 6.02078 562.66 6.34053 556.767 6.34053C550.874 6.34053 550.906 7.07597 545.044 7.07597C539.182 7.07597 539.182 8.99451 533.321 8.99451C527.459 8.99451 527.459 6.94807 521.598 6.94807C515.736 6.94807 515.736 5.92485 509.875 5.92485C504.013 5.92485 504.013 8.96253 498.152 8.96253C492.29 8.96253 492.29 7.01202 486.428 7.01202C480.567 7.01202 480.567 7.45968 474.705 7.45968C468.844 7.45968 468.844 6.27658 462.951 6.27658C457.058 6.27658 457.089 7.49165 451.228 7.49165C445.366 7.49165 445.366 7.1719 439.505 7.1719C433.643 7.1719 433.643 5.47719 427.782 5.47719C421.92 5.47719 421.92 5.70102 416.059 5.70102C410.197 5.70102 410.197 5.82892 404.304 5.82892C398.411 5.82892 398.443 7.77943 392.55 7.77943C386.657 7.77943 386.688 7.39573 380.827 7.39573C374.965 7.39573 374.965 6.02078 369.104 6.02078C363.242 6.02078 363.242 7.39573 357.38 7.39573C351.519 7.39573 351.519 6.59634 345.626 6.59634C339.733 6.59634 339.764 7.81141 333.903 7.81141C328.041 7.81141 328.041 7.58758 322.18 7.58758C316.318 7.58758 316.318 8.29104 310.425 8.29104C304.532 8.29104 304.564 9.12241 298.671 9.12241C292.778 9.12241 292.809 8.19512 286.916 8.19512C281.024 8.19512 281.055 6.72424 275.162 6.72424C269.269 6.72424 269.3 6.46844 263.408 6.46844C257.515 6.46844 257.546 8.51487 251.653 8.51487C245.76 8.51487 245.792 9.15439 239.899 9.15439C234.006 9.15439 234.037 8.4829 228.144 8.4829C222.251 8.4829 222.283 9.12241 216.39 9.12241C210.497 9.12241 210.528 5.47719 204.635 5.47719C198.742 5.47719 198.774 5.60509 192.881 5.60509C186.988 5.60509 187.019 5.15744 181.126 5.15744C175.234 5.15744 175.265 6.30856 169.372 6.30856C163.479 6.30856 163.51 7.52363 157.649 7.52363C151.787 7.52363 151.787 8.86661 145.894 8.86661C140.002 8.86661 140.033 5.41324 134.14 5.41324C128.247 5.41324 128.278 7.01202 122.386 7.01202C116.493 7.01202 116.524 8.00326 110.631 8.00326C104.738 8.00326 104.77 6.27658 98.8767 6.27658C92.9838 6.27658 93.0152 9.12241 87.1223 9.12241C81.2294 9.12241 81.2607 7.26783 75.3678 7.26783C69.4749 7.26783 69.5063 7.26783 63.6134 7.26783C57.7205 7.26783 57.7518 4.99756 51.8589 4.99756C45.9661 4.99756 45.9974 8.54685 40.1045 8.54685C34.2116 8.54685 34.2116 8.32302 28.3501 8.32302C22.4885 8.32302 22.4572 8.6108 16.5643 8.6108C10.6714 8.6108 9.13547 3.3668 4.87252 7.49165C0.609576 11.6165 6.47113 12.8316 6.47113 18.5552C6.47113 24.2788 3.27392 24.2469 3.27392 29.9705C3.27392 35.6941 6.37709 35.6621 6.37709 41.3858C6.37709 47.1094 3.46199 47.0774 3.46199 52.8011C3.46199 58.5247 2.64701 58.4927 2.64701 64.2164C2.64701 69.94 4.87252 69.908 4.87252 75.6316C4.87252 81.3553 3.30526 81.3553 3.30526 87.0789C3.30526 92.8025 0.734957 94.2734 4.77848 98.2384C8.82201 102.203 10.3893 98.4302 16.2508 98.4302C22.1124 98.4302 22.1124 100.413 27.9739 100.413C33.8355 100.413 33.8355 98.8139 39.697 98.8139C45.5586 98.8139 45.5586 96.5437 51.4201 96.5437C57.2817 96.5437 57.2817 98.2384 63.1432 98.2384C69.0048 98.2384 69.0048 99.3895 74.8663 99.3895C80.7279 99.3895 80.7279 97.7268 86.5894 97.7268C92.451 97.7268 92.451 99.1657 98.3125 99.1657C104.174 99.1657 104.174 98.718 110.036 98.718C115.897 98.718 115.897 100.253 121.759 100.253C127.62 100.253 127.62 98.3023 133.482 98.3023C139.343 98.3023 139.343 96.7355 145.205 96.7355C151.066 96.7355 151.066 96.7995 156.928 96.7995C162.79 96.7995 162.79 97.1192 168.651 97.1192C174.513 97.1192 174.513 96.7675 180.374 96.7675C186.236 96.7675 186.236 99.6773 192.097 99.6773C197.959 99.6773 197.959 100.509 203.82 100.509C209.682 100.509 209.682 99.4854 215.543 99.4854C221.405 99.4854 221.405 96.7995 227.267 96.7995C233.128 96.7995 233.128 98.9418 238.99 98.9418C244.851 98.9418 244.851 97.6948 250.713 97.6948C256.574 97.6948 256.574 99.1337 262.436 99.1337C268.297 99.1337 268.297 100.061 274.159 100.061C280.021 100.061 280.021 98.5262 285.882 98.5262C291.744 98.5262 291.744 97.6308 297.605 97.6308C303.467 97.6308 303.467 99.0058 309.328 99.0058C315.19 99.0058 315.19 96.5117 321.051 96.5117C326.913 96.5117 326.913 98.3343 332.774 98.3343C338.636 98.3343 338.636 97.3431 344.498 97.3431C350.359 97.3431 350.359 99.5494 356.221 99.5494C362.082 99.5494 362.082 96.9274 367.944 96.9274C373.805 96.9274 373.805 99.7412 379.667 99.7412C385.528 99.7412 385.528 98.2064 391.39 98.2064C397.251 98.2064 397.251 100.157 403.113 100.157C408.975 100.157 408.975 98.2703 414.867 98.2703C420.76 98.2703 420.729 97.439 426.591 97.439C432.452 97.439 432.452 96.7675 438.314 96.7675C444.175 96.7675 444.175 99.8052 450.037 99.8052C455.898 99.8052 455.898 100.061 461.76 100.061C467.621 100.061 467.621 99.9011 473.483 99.9011C479.344 99.9011 479.344 99.2616 485.206 99.2616C491.068 99.2616 491.068 100.221 496.929 100.221C502.791 100.221 502.791 97.2471 508.684 97.2471C514.576 97.2471 514.545 99.8052 520.407 99.8052C526.268 99.8052 526.268 100.253 532.13 100.253C537.991 100.253 537.991 99.2936 543.853 99.2936C549.714 99.2936 549.714 99.2936 555.576 99.2936C561.438 99.2936 561.438 100.445 567.33 100.445C573.223 100.445 573.192 96.6076 579.085 96.6076C584.978 96.6076 584.946 99.6133 590.808 99.6133C596.669 99.6133 596.669 96.8634 602.531 96.8634C608.393 96.8634 608.393 98.4302 614.254 98.4302C620.116 98.4302 620.116 98.3663 626.009 98.3663C631.901 98.3663 631.87 98.3663 637.732 98.3663C643.593 98.3663 643.593 97.9506 649.455 97.9506C655.316 97.9506 655.316 98.3343 661.209 98.3343C667.102 98.3343 667.071 96.6716 672.964 96.6716C678.857 96.6716 678.825 100.509 684.718 100.509C690.611 100.509 690.58 99.3575 696.473 99.3575C702.365 99.3575 702.334 98.2703 708.227 98.2703C714.12 98.2703 714.089 99.7732 719.981 99.7732C725.874 99.7732 725.843 100.605 731.736 100.605C737.629 100.605 737.597 99.3895 743.49 99.3895C749.383 99.3895 749.352 97.0872 755.245 97.0872C761.138 97.0872 761.106 99.5494 766.999 99.5494C772.892 99.5494 772.861 100.125 778.754 100.125C784.647 100.125 784.615 97.1192 790.508 97.1192C796.401 97.1192 796.37 99.2296 802.262 99.2296C808.155 99.2296 808.124 100.189 813.986 100.189C819.847 100.189 819.847 97.6628 825.74 97.6628C831.633 97.6628 831.602 99.7732 837.495 99.7732C843.387 99.7732 843.356 96.5117 849.249 96.5117C855.142 96.5117 855.111 97.1832 861.003 97.1832C866.896 97.1832 866.865 96.9274 872.758 96.9274C878.651 96.9274 878.619 100.573 884.512 100.573C890.405 100.573 890.374 100.573 896.267 100.573C902.16 100.573 902.128 100.509 908.021 100.509C913.914 100.509 913.883 100.509 919.776 100.509C925.669 100.509 925.637 99.2936 931.53 99.2936C937.423 99.2936 937.423 98.6221 943.284 98.6221C949.146 98.6221 949.177 98.0785 955.07 98.0785C960.963 98.0785 963.408 103.674 967.671 99.5174C971.934 95.3606 966.981 92.8985 966.981 87.2068C966.981 81.5151 968.298 81.5151 968.298 75.7915C968.298 70.0679 968.549 70.0999 968.549 64.3762C968.549 58.6526 965.665 58.6846 965.665 52.9609C965.665 47.2373 966.01 47.2693 966.01 41.5457C966.01 35.822 968.329 35.854 968.329 30.1304C968.329 24.4067 965.665 24.2788 966.699 18.6831C967.734 13.0874 970.147 12.0322 966.072 8.06721L966.354 7.93931Z"/>
</mask>
<path d="M966.354 7.93931C962.123 3.81446 961.245 6.82017 955.384 6.82017C949.522 6.82017 949.522 6.53239 943.661 6.53239C937.799 6.53239 937.799 8.99451 931.938 8.99451C926.076 8.99451 926.076 7.71548 920.214 7.71548C914.353 7.71548 914.353 5.92485 908.491 5.92485C902.63 5.92485 902.63 6.50041 896.768 6.50041C890.907 6.50041 890.907 7.93931 885.045 7.93931C879.184 7.93931 879.184 7.65153 873.322 7.65153C867.461 7.65153 867.461 5.38127 861.599 5.38127C855.737 5.38127 855.737 6.56436 849.876 6.56436C844.014 6.56436 844.014 8.93056 838.153 8.93056C832.291 8.93056 832.291 5.9888 826.43 5.9888C820.568 5.9888 820.568 5.70102 814.706 5.70102C808.845 5.70102 808.845 5.02953 802.983 5.02953C797.122 5.02953 797.122 8.16314 791.26 8.16314C785.399 8.16314 785.399 7.97129 779.537 7.97129C773.676 7.97129 773.676 7.20387 767.814 7.20387C761.953 7.20387 761.953 5.25336 756.091 5.25336C750.23 5.25336 750.229 7.10795 744.368 7.10795C738.506 7.10795 738.506 8.67475 732.645 8.67475C726.783 8.67475 726.783 5.41324 720.922 5.41324C715.06 5.41324 715.06 6.46844 709.199 6.46844C703.337 6.46844 703.337 9.05846 697.476 9.05846C691.614 9.05846 691.614 6.72424 685.753 6.72424C679.891 6.72424 679.891 5.02953 674.029 5.02953C668.168 5.02953 668.168 7.20387 662.306 7.20387C656.445 7.20387 656.445 9.05846 650.583 9.05846C644.722 9.05846 644.722 7.81141 638.86 7.81141C632.999 7.81141 632.999 8.25907 627.137 8.25907C621.275 8.25907 621.275 6.30856 615.414 6.30856C609.552 6.30856 609.552 6.24461 603.691 6.24461C597.829 6.24461 597.829 9.02648 591.968 9.02648C586.106 9.02648 586.106 8.54685 580.245 8.54685C574.383 8.54685 574.383 6.02078 568.521 6.02078C562.66 6.02078 562.66 6.34053 556.767 6.34053C550.874 6.34053 550.906 7.07597 545.044 7.07597C539.182 7.07597 539.182 8.99451 533.321 8.99451C527.459 8.99451 527.459 6.94807 521.598 6.94807C515.736 6.94807 515.736 5.92485 509.875 5.92485C504.013 5.92485 504.013 8.96253 498.152 8.96253C492.29 8.96253 492.29 7.01202 486.428 7.01202C480.567 7.01202 480.567 7.45968 474.705 7.45968C468.844 7.45968 468.844 6.27658 462.951 6.27658C457.058 6.27658 457.089 7.49165 451.228 7.49165C445.366 7.49165 445.366 7.1719 439.505 7.1719C433.643 7.1719 433.643 5.47719 427.782 5.47719C421.92 5.47719 421.92 5.70102 416.059 5.70102C410.197 5.70102 410.197 5.82892 404.304 5.82892C398.411 5.82892 398.443 7.77943 392.55 7.77943C386.657 7.77943 386.688 7.39573 380.827 7.39573C374.965 7.39573 374.965 6.02078 369.104 6.02078C363.242 6.02078 363.242 7.39573 357.38 7.39573C351.519 7.39573 351.519 6.59634 345.626 6.59634C339.733 6.59634 339.764 7.81141 333.903 7.81141C328.041 7.81141 328.041 7.58758 322.18 7.58758C316.318 7.58758 316.318 8.29104 310.425 8.29104C304.532 8.29104 304.564 9.12241 298.671 9.12241C292.778 9.12241 292.809 8.19512 286.916 8.19512C281.024 8.19512 281.055 6.72424 275.162 6.72424C269.269 6.72424 269.3 6.46844 263.408 6.46844C257.515 6.46844 257.546 8.51487 251.653 8.51487C245.76 8.51487 245.792 9.15439 239.899 9.15439C234.006 9.15439 234.037 8.4829 228.144 8.4829C222.251 8.4829 222.283 9.12241 216.39 9.12241C210.497 9.12241 210.528 5.47719 204.635 5.47719C198.742 5.47719 198.774 5.60509 192.881 5.60509C186.988 5.60509 187.019 5.15744 181.126 5.15744C175.234 5.15744 175.265 6.30856 169.372 6.30856C163.479 6.30856 163.51 7.52363 157.649 7.52363C151.787 7.52363 151.787 8.86661 145.894 8.86661C140.002 8.86661 140.033 5.41324 134.14 5.41324C128.247 5.41324 128.278 7.01202 122.386 7.01202C116.493 7.01202 116.524 8.00326 110.631 8.00326C104.738 8.00326 104.77 6.27658 98.8767 6.27658C92.9838 6.27658 93.0152 9.12241 87.1223 9.12241C81.2294 9.12241 81.2607 7.26783 75.3678 7.26783C69.4749 7.26783 69.5063 7.26783 63.6134 7.26783C57.7205 7.26783 57.7518 4.99756 51.8589 4.99756C45.9661 4.99756 45.9974 8.54685 40.1045 8.54685C34.2116 8.54685 34.2116 8.32302 28.3501 8.32302C22.4885 8.32302 22.4572 8.6108 16.5643 8.6108C10.6714 8.6108 9.13547 3.3668 4.87252 7.49165C0.609576 11.6165 6.47113 12.8316 6.47113 18.5552C6.47113 24.2788 3.27392 24.2469 3.27392 29.9705C3.27392 35.6941 6.37709 35.6621 6.37709 41.3858C6.37709 47.1094 3.46199 47.0774 3.46199 52.8011C3.46199 58.5247 2.64701 58.4927 2.64701 64.2164C2.64701 69.94 4.87252 69.908 4.87252 75.6316C4.87252 81.3553 3.30526 81.3553 3.30526 87.0789C3.30526 92.8025 0.734957 94.2734 4.77848 98.2384C8.82201 102.203 10.3893 98.4302 16.2508 98.4302C22.1124 98.4302 22.1124 100.413 27.9739 100.413C33.8355 100.413 33.8355 98.8139 39.697 98.8139C45.5586 98.8139 45.5586 96.5437 51.4201 96.5437C57.2817 96.5437 57.2817 98.2384 63.1432 98.2384C69.0048 98.2384 69.0048 99.3895 74.8663 99.3895C80.7279 99.3895 80.7279 97.7268 86.5894 97.7268C92.451 97.7268 92.451 99.1657 98.3125 99.1657C104.174 99.1657 104.174 98.718 110.036 98.718C115.897 98.718 115.897 100.253 121.759 100.253C127.62 100.253 127.62 98.3023 133.482 98.3023C139.343 98.3023 139.343 96.7355 145.205 96.7355C151.066 96.7355 151.066 96.7995 156.928 96.7995C162.79 96.7995 162.79 97.1192 168.651 97.1192C174.513 97.1192 174.513 96.7675 180.374 96.7675C186.236 96.7675 186.236 99.6773 192.097 99.6773C197.959 99.6773 197.959 100.509 203.82 100.509C209.682 100.509 209.682 99.4854 215.543 99.4854C221.405 99.4854 221.405 96.7995 227.267 96.7995C233.128 96.7995 233.128 98.9418 238.99 98.9418C244.851 98.9418 244.851 97.6948 250.713 97.6948C256.574 97.6948 256.574 99.1337 262.436 99.1337C268.297 99.1337 268.297 100.061 274.159 100.061C280.021 100.061 280.021 98.5262 285.882 98.5262C291.744 98.5262 291.744 97.6308 297.605 97.6308C303.467 97.6308 303.467 99.0058 309.328 99.0058C315.19 99.0058 315.19 96.5117 321.051 96.5117C326.913 96.5117 326.913 98.3343 332.774 98.3343C338.636 98.3343 338.636 97.3431 344.498 97.3431C350.359 97.3431 350.359 99.5494 356.221 99.5494C362.082 99.5494 362.082 96.9274 367.944 96.9274C373.805 96.9274 373.805 99.7412 379.667 99.7412C385.528 99.7412 385.528 98.2064 391.39 98.2064C397.251 98.2064 397.251 100.157 403.113 100.157C408.975 100.157 408.975 98.2703 414.867 98.2703C420.76 98.2703 420.729 97.439 426.591 97.439C432.452 97.439 432.452 96.7675 438.314 96.7675C444.175 96.7675 444.175 99.8052 450.037 99.8052C455.898 99.8052 455.898 100.061 461.76 100.061C467.621 100.061 467.621 99.9011 473.483 99.9011C479.344 99.9011 479.344 99.2616 485.206 99.2616C491.068 99.2616 491.068 100.221 496.929 100.221C502.791 100.221 502.791 97.2471 508.684 97.2471C514.576 97.2471 514.545 99.8052 520.407 99.8052C526.268 99.8052 526.268 100.253 532.13 100.253C537.991 100.253 537.991 99.2936 543.853 99.2936C549.714 99.2936 549.714 99.2936 555.576 99.2936C561.438 99.2936 561.438 100.445 567.33 100.445C573.223 100.445 573.192 96.6076 579.085 96.6076C584.978 96.6076 584.946 99.6133 590.808 99.6133C596.669 99.6133 596.669 96.8634 602.531 96.8634C608.393 96.8634 608.393 98.4302 614.254 98.4302C620.116 98.4302 620.116 98.3663 626.009 98.3663C631.901 98.3663 631.87 98.3663 637.732 98.3663C643.593 98.3663 643.593 97.9506 649.455 97.9506C655.316 97.9506 655.316 98.3343 661.209 98.3343C667.102 98.3343 667.071 96.6716 672.964 96.6716C678.857 96.6716 678.825 100.509 684.718 100.509C690.611 100.509 690.58 99.3575 696.473 99.3575C702.365 99.3575 702.334 98.2703 708.227 98.2703C714.12 98.2703 714.089 99.7732 719.981 99.7732C725.874 99.7732 725.843 100.605 731.736 100.605C737.629 100.605 737.597 99.3895 743.49 99.3895C749.383 99.3895 749.352 97.0872 755.245 97.0872C761.138 97.0872 761.106 99.5494 766.999 99.5494C772.892 99.5494 772.861 100.125 778.754 100.125C784.647 100.125 784.615 97.1192 790.508 97.1192C796.401 97.1192 796.37 99.2296 802.262 99.2296C808.155 99.2296 808.124 100.189 813.986 100.189C819.847 100.189 819.847 97.6628 825.74 97.6628C831.633 97.6628 831.602 99.7732 837.495 99.7732C843.387 99.7732 843.356 96.5117 849.249 96.5117C855.142 96.5117 855.111 97.1832 861.003 97.1832C866.896 97.1832 866.865 96.9274 872.758 96.9274C878.651 96.9274 878.619 100.573 884.512 100.573C890.405 100.573 890.374 100.573 896.267 100.573C902.16 100.573 902.128 100.509 908.021 100.509C913.914 100.509 913.883 100.509 919.776 100.509C925.669 100.509 925.637 99.2936 931.53 99.2936C937.423 99.2936 937.423 98.6221 943.284 98.6221C949.146 98.6221 949.177 98.0785 955.07 98.0785C960.963 98.0785 963.408 103.674 967.671 99.5174C971.934 95.3606 966.981 92.8985 966.981 87.2068C966.981 81.5151 968.298 81.5151 968.298 75.7915C968.298 70.0679 968.549 70.0999 968.549 64.3762C968.549 58.6526 965.665 58.6846 965.665 52.9609C965.665 47.2373 966.01 47.2693 966.01 41.5457C966.01 35.822 968.329 35.854 968.329 30.1304C968.329 24.4067 965.665 24.2788 966.699 18.6831C967.734 13.0874 970.147 12.0322 966.072 8.06721L966.354 7.93931Z" fill="#F4BC1B" stroke="white" stroke-width="14" mask="url(#path-1-inside-1_487_3)"/>
<path d="M966.354 5.94175C962.123 1.8169 961.245 4.82261 955.384 4.82261C949.522 4.82261 949.522 4.53483 943.661 4.53483C937.799 4.53483 937.799 6.99695 931.938 6.99695C926.076 6.99695 926.076 5.71792 920.214 5.71792C914.353 5.71792 914.353 3.92729 908.491 3.92729C902.63 3.92729 902.63 4.50285 896.768 4.50285C890.907 4.50285 890.907 5.94175 885.045 5.94175C879.184 5.94175 879.184 5.65397 873.322 5.65397C867.461 5.65397 867.461 3.38371 861.599 3.38371C855.737 3.38371 855.737 4.5668 849.876 4.5668C844.014 4.5668 844.014 6.933 838.153 6.933C832.291 6.933 832.291 3.99124 826.43 3.99124C820.568 3.99124 820.568 3.70346 814.706 3.70346C808.845 3.70346 808.845 3.03198 802.983 3.03198C797.122 3.03198 797.122 6.16558 791.26 6.16558C785.399 6.16558 785.399 5.97373 779.537 5.97373C773.676 5.97373 773.676 5.20632 767.814 5.20632C761.953 5.20632 761.953 3.2558 756.091 3.2558C750.23 3.2558 750.229 5.11039 744.368 5.11039C738.506 5.11039 738.506 6.67719 732.645 6.67719C726.783 6.67719 726.783 3.41568 720.922 3.41568C715.06 3.41568 715.06 4.47088 709.199 4.47088C703.337 4.47088 703.337 7.0609 697.476 7.0609C691.614 7.0609 691.614 4.72668 685.753 4.72668C679.891 4.72668 679.891 3.03198 674.029 3.03198C668.168 3.03198 668.168 5.20632 662.306 5.20632C656.445 5.20632 656.445 7.0609 650.583 7.0609C644.722 7.0609 644.722 5.81385 638.86 5.81385C632.999 5.81385 632.999 6.26151 627.137 6.26151C621.275 6.26151 621.275 4.311 615.414 4.311C609.552 4.311 609.552 4.24705 603.691 4.24705C597.829 4.24705 597.829 7.02892 591.968 7.02892C586.106 7.02892 586.106 6.54929 580.245 6.54929C574.383 6.54929 574.383 4.02322 568.521 4.02322C562.66 4.02322 562.66 4.34297 556.767 4.34297C550.874 4.34297 550.906 5.07841 545.044 5.07841C539.182 5.07841 539.182 6.99695 533.321 6.99695C527.459 6.99695 527.459 4.95051 521.598 4.95051C515.736 4.95051 515.736 3.92729 509.875 3.92729C504.013 3.92729 504.013 6.96497 498.152 6.96497C492.29 6.96497 492.29 5.01446 486.428 5.01446C480.567 5.01446 480.567 5.46212 474.705 5.46212C468.844 5.46212 468.844 4.27902 462.951 4.27902C457.058 4.27902 457.089 5.4941 451.228 5.4941C445.366 5.4941 445.366 5.17434 439.505 5.17434C433.643 5.17434 433.643 3.47963 427.782 3.47963C421.92 3.47963 421.92 3.70346 416.059 3.70346C410.197 3.70346 410.197 3.83137 404.304 3.83137C398.411 3.83137 398.443 5.78188 392.55 5.78188C386.657 5.78188 386.688 5.39817 380.827 5.39817C374.965 5.39817 374.965 4.02322 369.104 4.02322C363.242 4.02322 363.242 5.39817 357.38 5.39817C351.519 5.39817 351.519 4.59878 345.626 4.59878C339.733 4.59878 339.764 5.81385 333.903 5.81385C328.041 5.81385 328.041 5.59002 322.18 5.59002C316.318 5.59002 316.318 6.29349 310.425 6.29349C304.532 6.29349 304.564 7.12485 298.671 7.12485C292.778 7.12485 292.809 6.19756 286.916 6.19756C281.024 6.19756 281.055 4.72668 275.162 4.72668C269.269 4.72668 269.3 4.47088 263.408 4.47088C257.515 4.47088 257.546 6.51731 251.653 6.51731C245.76 6.51731 245.792 7.15683 239.899 7.15683C234.006 7.15683 234.037 6.48534 228.144 6.48534C222.251 6.48534 222.283 7.12485 216.39 7.12485C210.497 7.12485 210.528 3.47963 204.635 3.47963C198.742 3.47963 198.774 3.60754 192.881 3.60754C186.988 3.60754 187.019 3.15988 181.126 3.15988C175.234 3.15988 175.265 4.311 169.372 4.311C163.479 4.311 163.51 5.52607 157.649 5.52607C151.787 5.52607 151.787 6.86905 145.894 6.86905C140.002 6.86905 140.033 3.41568 134.14 3.41568C128.247 3.41568 128.278 5.01446 122.386 5.01446C116.493 5.01446 116.524 6.00571 110.631 6.00571C104.738 6.00571 104.77 4.27902 98.8767 4.27902C92.9838 4.27902 93.0152 7.12485 87.1223 7.12485C81.2294 7.12485 81.2607 5.27027 75.3678 5.27027C69.4749 5.27027 69.5063 5.27027 63.6134 5.27027C57.7205 5.27027 57.7518 3 51.8589 3C45.9661 3 45.9974 6.54929 40.1045 6.54929C34.2116 6.54929 34.2116 6.32546 28.3501 6.32546C22.4885 6.32546 22.4572 6.61324 16.5643 6.61324C10.6714 6.61324 9.13547 1.36925 4.87252 5.4941C0.609576 9.61895 6.47113 10.834 6.47113 16.5577C6.47113 22.2813 3.27392 22.2493 3.27392 27.9729C3.27392 33.6966 6.37709 33.6646 6.37709 39.3882C6.37709 45.1119 3.46199 45.0799 3.46199 50.8035C3.46199 56.5271 2.64701 56.4952 2.64701 62.2188C2.64701 67.9424 4.87252 67.9104 4.87252 73.6341C4.87252 79.3577 3.30526 79.3577 3.30526 85.0813C3.30526 90.805 0.734957 92.2758 4.77848 96.2408C8.82201 100.206 10.3893 96.4327 16.2508 96.4327C22.1124 96.4327 22.1124 98.4152 27.9739 98.4152C33.8355 98.4152 33.8355 96.8164 39.697 96.8164C45.5586 96.8164 45.5586 94.5461 51.4201 94.5461C57.2817 94.5461 57.2817 96.2408 63.1432 96.2408C69.0048 96.2408 69.0048 97.3919 74.8663 97.3919C80.7279 97.3919 80.7279 95.7292 86.5894 95.7292C92.451 95.7292 92.451 97.1681 98.3125 97.1681C104.174 97.1681 104.174 96.7205 110.036 96.7205C115.897 96.7205 115.897 98.2553 121.759 98.2553C127.62 98.2553 127.62 96.3048 133.482 96.3048C139.343 96.3048 139.343 94.738 145.205 94.738C151.066 94.738 151.066 94.8019 156.928 94.8019C162.79 94.8019 162.79 95.1217 168.651 95.1217C174.513 95.1217 174.513 94.7699 180.374 94.7699C186.236 94.7699 186.236 97.6797 192.097 97.6797C197.959 97.6797 197.959 98.5111 203.82 98.5111C209.682 98.5111 209.682 97.4879 215.543 97.4879C221.405 97.4879 221.405 94.8019 227.267 94.8019C233.128 94.8019 233.128 96.9443 238.99 96.9443C244.851 96.9443 244.851 95.6972 250.713 95.6972C256.574 95.6972 256.574 97.1361 262.436 97.1361C268.297 97.1361 268.297 98.0634 274.159 98.0634C280.021 98.0634 280.021 96.5286 285.882 96.5286C291.744 96.5286 291.744 95.6333 297.605 95.6333C303.467 95.6333 303.467 97.0082 309.328 97.0082C315.19 97.0082 315.19 94.5141 321.051 94.5141C326.913 94.5141 326.913 96.3367 332.774 96.3367C338.636 96.3367 338.636 95.3455 344.498 95.3455C350.359 95.3455 350.359 97.5518 356.221 97.5518C362.082 97.5518 362.082 94.9298 367.944 94.9298C373.805 94.9298 373.805 97.7437 379.667 97.7437C385.528 97.7437 385.528 96.2088 391.39 96.2088C397.251 96.2088 397.251 98.1594 403.113 98.1594C408.975 98.1594 408.975 96.2728 414.867 96.2728C420.76 96.2728 420.729 95.4414 426.591 95.4414C432.452 95.4414 432.452 94.7699 438.314 94.7699C444.175 94.7699 444.175 97.8076 450.037 97.8076C455.898 97.8076 455.898 98.0634 461.76 98.0634C467.621 98.0634 467.621 97.9035 473.483 97.9035C479.344 97.9035 479.344 97.264 485.206 97.264C491.068 97.264 491.068 98.2233 496.929 98.2233C502.791 98.2233 502.791 95.2496 508.684 95.2496C514.576 95.2496 514.545 97.8076 520.407 97.8076C526.268 97.8076 526.268 98.2553 532.13 98.2553C537.991 98.2553 537.991 97.296 543.853 97.296C549.714 97.296 549.714 97.296 555.576 97.296C561.438 97.296 561.438 98.4471 567.33 98.4471C573.223 98.4471 573.192 94.6101 579.085 94.6101C584.978 94.6101 584.946 97.6158 590.808 97.6158C596.669 97.6158 596.669 94.8659 602.531 94.8659C608.393 94.8659 608.393 96.4327 614.254 96.4327C620.116 96.4327 620.116 96.3687 626.009 96.3687C631.901 96.3687 631.87 96.3687 637.732 96.3687C643.593 96.3687 643.593 95.953 649.455 95.953C655.316 95.953 655.316 96.3367 661.209 96.3367C667.102 96.3367 667.071 94.674 672.964 94.674C678.857 94.674 678.825 98.5111 684.718 98.5111C690.611 98.5111 690.58 97.36 696.473 97.36C702.365 97.36 702.334 96.2728 708.227 96.2728C714.12 96.2728 714.089 97.7756 719.981 97.7756C725.874 97.7756 725.843 98.607 731.736 98.607C737.629 98.607 737.597 97.3919 743.49 97.3919C749.383 97.3919 749.352 95.0897 755.245 95.0897C761.138 95.0897 761.106 97.5518 766.999 97.5518C772.892 97.5518 772.861 98.1274 778.754 98.1274C784.647 98.1274 784.615 95.1217 790.508 95.1217C796.401 95.1217 796.37 97.2321 802.262 97.2321C808.155 97.2321 808.124 98.1913 813.986 98.1913C819.847 98.1913 819.847 95.6653 825.74 95.6653C831.633 95.6653 831.602 97.7756 837.495 97.7756C843.387 97.7756 843.356 94.5141 849.249 94.5141C855.142 94.5141 855.111 95.1856 861.003 95.1856C866.896 95.1856 866.865 94.9298 872.758 94.9298C878.651 94.9298 878.619 98.575 884.512 98.575C890.405 98.575 890.374 98.575 896.267 98.575C902.16 98.575 902.128 98.5111 908.021 98.5111C913.914 98.5111 913.883 98.5111 919.776 98.5111C925.669 98.5111 925.637 97.296 931.53 97.296C937.423 97.296 937.423 96.6245 943.284 96.6245C949.146 96.6245 949.177 96.0809 955.07 96.0809C960.963 96.0809 963.408 101.677 967.671 97.5198C971.934 93.363 966.981 90.9009 966.981 85.2092C966.981 79.5176 968.298 79.5176 968.298 73.794C968.298 68.0703 968.549 68.1023 968.549 62.3787C968.549 56.655 965.665 56.687 965.665 50.9634C965.665 45.2398 966.01 45.2717 966.01 39.5481C966.01 33.8245 968.329 33.8564 968.329 28.1328C968.329 22.4092 965.665 22.2813 966.699 16.6856C967.734 11.0898 970.147 10.0346 966.072 6.06966L966.354 5.94175Z" fill="#F4BC1B" stroke="white" stroke-width="5" stroke-miterlimit="10"/>
<mask id="path-3-outside-2_487_3" maskUnits="userSpaceOnUse" x="422" y="35.2471" width="130" height="34" fill="black">
<rect fill="white" x="422" y="35.2471" width="130" height="34"/>
<path d="M448.037 68.7275H442.377V36.208H448.037V68.7275ZM452.449 52.626H446.807V47.9854H452.449V52.626ZM428.561 46.1748H433.553V38.7217H439.178V61.3975H422.918V38.7217H428.561V46.1748ZM433.553 56.8623V50.5166H428.561V56.8623H433.553ZM482.912 65.3877H453.24V60.8174H482.912V65.3877ZM470.801 62.6982H465.246V55.1924H470.801V62.6982ZM479.695 49.5146H462.082V54.4189H456.457V45.1729H474.123V42.6416H456.422V38.1592H479.695V49.5146ZM480.469 56.6689H456.457V52.1162H480.469V56.6689ZM518.104 68.6572H512.443V36.208H518.104V68.6572ZM522.27 52.8193H516.627V48.2139H522.27V52.8193ZM509.244 39.46C509.244 42.9873 508.787 46.2041 507.873 49.1104C506.959 52.0166 505.424 54.6768 503.268 57.0908C501.111 59.5049 498.234 61.6025 494.637 63.3838L491.473 59.1123C494.309 57.6592 496.623 56.0596 498.416 54.3135C500.209 52.5674 501.539 50.5752 502.406 48.3369C503.285 46.0869 503.725 43.4795 503.725 40.5146V39.46H509.244ZM506.555 44.0303H493.477V39.46H506.555V44.0303ZM550.869 68.7275H545.139V36.208H550.869V68.7275ZM541.061 39.5479C541.061 43.2041 540.633 46.4619 539.777 49.3213C538.922 52.1807 537.398 54.8057 535.207 57.1963C533.016 59.5869 529.98 61.6963 526.102 63.5244L523.184 59.042C526.301 57.5654 528.75 55.96 530.531 54.2256C532.312 52.4912 533.578 50.5342 534.328 48.3545C535.078 46.1748 535.453 43.5791 535.453 40.5674V39.5479H541.061ZM538.143 43.9248H525.064V39.5479H538.143V43.9248Z"/>
</mask>
<path d="M448.037 68.7275H442.377V36.208H448.037V68.7275ZM452.449 52.626H446.807V47.9854H452.449V52.626ZM428.561 46.1748H433.553V38.7217H439.178V61.3975H422.918V38.7217H428.561V46.1748ZM433.553 56.8623V50.5166H428.561V56.8623H433.553ZM482.912 65.3877H453.24V60.8174H482.912V65.3877ZM470.801 62.6982H465.246V55.1924H470.801V62.6982ZM479.695 49.5146H462.082V54.4189H456.457V45.1729H474.123V42.6416H456.422V38.1592H479.695V49.5146ZM480.469 56.6689H456.457V52.1162H480.469V56.6689ZM518.104 68.6572H512.443V36.208H518.104V68.6572ZM522.27 52.8193H516.627V48.2139H522.27V52.8193ZM509.244 39.46C509.244 42.9873 508.787 46.2041 507.873 49.1104C506.959 52.0166 505.424 54.6768 503.268 57.0908C501.111 59.5049 498.234 61.6025 494.637 63.3838L491.473 59.1123C494.309 57.6592 496.623 56.0596 498.416 54.3135C500.209 52.5674 501.539 50.5752 502.406 48.3369C503.285 46.0869 503.725 43.4795 503.725 40.5146V39.46H509.244ZM506.555 44.0303H493.477V39.46H506.555V44.0303ZM550.869 68.7275H545.139V36.208H550.869V68.7275ZM541.061 39.5479C541.061 43.2041 540.633 46.4619 539.777 49.3213C538.922 52.1807 537.398 54.8057 535.207 57.1963C533.016 59.5869 529.98 61.6963 526.102 63.5244L523.184 59.042C526.301 57.5654 528.75 55.96 530.531 54.2256C532.312 52.4912 533.578 50.5342 534.328 48.3545C535.078 46.1748 535.453 43.5791 535.453 40.5674V39.5479H541.061ZM538.143 43.9248H525.064V39.5479H538.143V43.9248Z" fill="black"/>
<path d="M448.037 68.7275V69.2275H448.537V68.7275H448.037ZM442.377 68.7275H441.877V69.2275H442.377V68.7275ZM442.377 36.208V35.708H441.877V36.208H442.377ZM448.037 36.208H448.537V35.708H448.037V36.208ZM452.449 52.626V53.126H452.949V52.626H452.449ZM446.807 52.626H446.307V53.126H446.807V52.626ZM446.807 47.9854V47.4854H446.307V47.9854H446.807ZM452.449 47.9854H452.949V47.4854H452.449V47.9854ZM428.561 46.1748H428.061V46.6748H428.561V46.1748ZM433.553 46.1748V46.6748H434.053V46.1748H433.553ZM433.553 38.7217V38.2217H433.053V38.7217H433.553ZM439.178 38.7217H439.678V38.2217H439.178V38.7217ZM439.178 61.3975V61.8975H439.678V61.3975H439.178ZM422.918 61.3975H422.418V61.8975H422.918V61.3975ZM422.918 38.7217V38.2217H422.418V38.7217H422.918ZM428.561 38.7217H429.061V38.2217H428.561V38.7217ZM433.553 56.8623V57.3623H434.053V56.8623H433.553ZM433.553 50.5166H434.053V50.0166H433.553V50.5166ZM428.561 50.5166V50.0166H428.061V50.5166H428.561ZM428.561 56.8623H428.061V57.3623H428.561V56.8623ZM448.037 68.7275V68.2275H442.377V68.7275V69.2275H448.037V68.7275ZM442.377 68.7275H442.877V36.208H442.377H441.877V68.7275H442.377ZM442.377 36.208V36.708H448.037V36.208V35.708H442.377V36.208ZM448.037 36.208H447.537V68.7275H448.037H448.537V36.208H448.037ZM452.449 52.626V52.126H446.807V52.626V53.126H452.449V52.626ZM446.807 52.626H447.307V47.9854H446.807H446.307V52.626H446.807ZM446.807 47.9854V48.4854H452.449V47.9854V47.4854H446.807V47.9854ZM452.449 47.9854H451.949V52.626H452.449H452.949V47.9854H452.449ZM428.561 46.1748V46.6748H433.553V46.1748V45.6748H428.561V46.1748ZM433.553 46.1748H434.053V38.7217H433.553H433.053V46.1748H433.553ZM433.553 38.7217V39.2217H439.178V38.7217V38.2217H433.553V38.7217ZM439.178 38.7217H438.678V61.3975H439.178H439.678V38.7217H439.178ZM439.178 61.3975V60.8975H422.918V61.3975V61.8975H439.178V61.3975ZM422.918 61.3975H423.418V38.7217H422.918H422.418V61.3975H422.918ZM422.918 38.7217V39.2217H428.561V38.7217V38.2217H422.918V38.7217ZM428.561 38.7217H428.061V46.1748H428.561H429.061V38.7217H428.561ZM433.553 56.8623H434.053V50.5166H433.553H433.053V56.8623H433.553ZM433.553 50.5166V50.0166H428.561V50.5166V51.0166H433.553V50.5166ZM428.561 50.5166H428.061V56.8623H428.561H429.061V50.5166H428.561ZM428.561 56.8623V57.3623H433.553V56.8623V56.3623H428.561V56.8623ZM482.912 65.3877V65.8877H483.412V65.3877H482.912ZM453.24 65.3877H452.74V65.8877H453.24V65.3877ZM453.24 60.8174V60.3174H452.74V60.8174H453.24ZM482.912 60.8174H483.412V60.3174H482.912V60.8174ZM470.801 62.6982V63.1982H471.301V62.6982H470.801ZM465.246 62.6982H464.746V63.1982H465.246V62.6982ZM465.246 55.1924V54.6924H464.746V55.1924H465.246ZM470.801 55.1924H471.301V54.6924H470.801V55.1924ZM479.695 49.5146V50.0146H480.195V49.5146H479.695ZM462.082 49.5146V49.0146H461.582V49.5146H462.082ZM462.082 54.4189V54.9189H462.582V54.4189H462.082ZM456.457 54.4189H455.957V54.9189H456.457V54.4189ZM456.457 45.1729V44.6729H455.957V45.1729H456.457ZM474.123 45.1729V45.6729H474.623V45.1729H474.123ZM474.123 42.6416H474.623V42.1416H474.123V42.6416ZM456.422 42.6416H455.922V43.1416H456.422V42.6416ZM456.422 38.1592V37.6592H455.922V38.1592H456.422ZM479.695 38.1592H480.195V37.6592H479.695V38.1592ZM480.469 56.6689V57.1689H480.969V56.6689H480.469ZM456.457 56.6689H455.957V57.1689H456.457V56.6689ZM456.457 52.1162V51.6162H455.957V52.1162H456.457ZM480.469 52.1162H480.969V51.6162H480.469V52.1162ZM482.912 65.3877V64.8877H453.24V65.3877V65.8877H482.912V65.3877ZM453.24 65.3877H453.74V60.8174H453.24H452.74V65.3877H453.24ZM453.24 60.8174V61.3174H482.912V60.8174V60.3174H453.24V60.8174ZM482.912 60.8174H482.412V65.3877H482.912H483.412V60.8174H482.912ZM470.801 62.6982V62.1982H465.246V62.6982V63.1982H470.801V62.6982ZM465.246 62.6982H465.746V55.1924H465.246H464.746V62.6982H465.246ZM465.246 55.1924V55.6924H470.801V55.1924V54.6924H465.246V55.1924ZM470.801 55.1924H470.301V62.6982H470.801H471.301V55.1924H470.801ZM479.695 49.5146V49.0146H462.082V49.5146V50.0146H479.695V49.5146ZM462.082 49.5146H461.582V54.4189H462.082H462.582V49.5146H462.082ZM462.082 54.4189V53.9189H456.457V54.4189V54.9189H462.082V54.4189ZM456.457 54.4189H456.957V45.1729H456.457H455.957V54.4189H456.457ZM456.457 45.1729V45.6729H474.123V45.1729V44.6729H456.457V45.1729ZM474.123 45.1729H474.623V42.6416H474.123H473.623V45.1729H474.123ZM474.123 42.6416V42.1416H456.422V42.6416V43.1416H474.123V42.6416ZM456.422 42.6416H456.922V38.1592H456.422H455.922V42.6416H456.422ZM456.422 38.1592V38.6592H479.695V38.1592V37.6592H456.422V38.1592ZM479.695 38.1592H479.195V49.5146H479.695H480.195V38.1592H479.695ZM480.469 56.6689V56.1689H456.457V56.6689V57.1689H480.469V56.6689ZM456.457 56.6689H456.957V52.1162H456.457H455.957V56.6689H456.457ZM456.457 52.1162V52.6162H480.469V52.1162V51.6162H456.457V52.1162ZM480.469 52.1162H479.969V56.6689H480.469H480.969V52.1162H480.469ZM518.104 68.6572V69.1572H518.604V68.6572H518.104ZM512.443 68.6572H511.943V69.1572H512.443V68.6572ZM512.443 36.208V35.708H511.943V36.208H512.443ZM518.104 36.208H518.604V35.708H518.104V36.208ZM522.27 52.8193V53.3193H522.77V52.8193H522.27ZM516.627 52.8193H516.127V53.3193H516.627V52.8193ZM516.627 48.2139V47.7139H516.127V48.2139H516.627ZM522.27 48.2139H522.77V47.7139H522.27V48.2139ZM509.244 39.46H509.744V38.96H509.244V39.46ZM494.637 63.3838L494.235 63.6814L494.484 64.0174L494.859 63.8319L494.637 63.3838ZM491.473 59.1123L491.245 58.6673L490.72 58.9362L491.071 59.4099L491.473 59.1123ZM502.406 48.3369L501.941 48.155L501.94 48.1563L502.406 48.3369ZM503.725 39.46V38.96H503.225V39.46H503.725ZM506.555 44.0303V44.5303H507.055V44.0303H506.555ZM493.477 44.0303H492.977V44.5303H493.477V44.0303ZM493.477 39.46V38.96H492.977V39.46H493.477ZM506.555 39.46H507.055V38.96H506.555V39.46ZM518.104 68.6572V68.1572H512.443V68.6572V69.1572H518.104V68.6572ZM512.443 68.6572H512.943V36.208H512.443H511.943V68.6572H512.443ZM512.443 36.208V36.708H518.104V36.208V35.708H512.443V36.208ZM518.104 36.208H517.604V68.6572H518.104H518.604V36.208H518.104ZM522.27 52.8193V52.3193H516.627V52.8193V53.3193H522.27V52.8193ZM516.627 52.8193H517.127V48.2139H516.627H516.127V52.8193H516.627ZM516.627 48.2139V48.7139H522.27V48.2139V47.7139H516.627V48.2139ZM522.27 48.2139H521.77V52.8193H522.27H522.77V48.2139H522.27ZM509.244 39.46H508.744C508.744 42.9443 508.293 46.1096 507.396 48.9603L507.873 49.1104L508.35 49.2604C509.282 46.2986 509.744 43.0303 509.744 39.46H509.244ZM507.873 49.1104L507.396 48.9603C506.505 51.7947 505.007 54.3933 502.895 56.7577L503.268 57.0908L503.64 57.4239C505.841 54.9603 507.413 52.2385 508.35 49.2604L507.873 49.1104ZM503.268 57.0908L502.895 56.7577C500.79 59.1142 497.969 61.1762 494.415 62.9357L494.637 63.3838L494.859 63.8319C498.5 62.0289 501.433 59.8955 503.64 57.4239L503.268 57.0908ZM494.637 63.3838L495.038 63.0862L491.874 58.8147L491.473 59.1123L491.071 59.4099L494.235 63.6814L494.637 63.3838ZM491.473 59.1123L491.701 59.5573C494.569 58.0873 496.928 56.4606 498.765 54.6717L498.416 54.3135L498.067 53.9553C496.318 55.6586 494.048 57.231 491.245 58.6673L491.473 59.1123ZM498.416 54.3135L498.765 54.6717C500.607 52.8777 501.978 50.8256 502.872 48.5175L502.406 48.3369L501.94 48.1563C501.1 50.3248 499.811 52.2571 498.067 53.9553L498.416 54.3135ZM502.406 48.3369L502.872 48.5188C503.778 46.1993 504.225 43.528 504.225 40.5146H503.725H503.225C503.225 43.431 502.792 45.9745 501.941 48.155L502.406 48.3369ZM503.725 40.5146H504.225V39.46H503.725H503.225V40.5146H503.725ZM503.725 39.46V39.96H509.244V39.46V38.96H503.725V39.46ZM506.555 44.0303V43.5303H493.477V44.0303V44.5303H506.555V44.0303ZM493.477 44.0303H493.977V39.46H493.477H492.977V44.0303H493.477ZM493.477 39.46V39.96H506.555V39.46V38.96H493.477V39.46ZM506.555 39.46H506.055V44.0303H506.555H507.055V39.46H506.555ZM550.869 68.7275V69.2275H551.369V68.7275H550.869ZM545.139 68.7275H544.639V69.2275H545.139V68.7275ZM545.139 36.208V35.708H544.639V36.208H545.139ZM550.869 36.208H551.369V35.708H550.869V36.208ZM541.061 39.5479H541.561V39.0479H541.061V39.5479ZM526.102 63.5244L525.683 63.7972L525.92 64.1626L526.315 63.9767L526.102 63.5244ZM523.184 59.042L522.97 58.5901L522.452 58.8351L522.765 59.3148L523.184 59.042ZM535.453 39.5479V39.0479H534.953V39.5479H535.453ZM538.143 43.9248V44.4248H538.643V43.9248H538.143ZM525.064 43.9248H524.564V44.4248H525.064V43.9248ZM525.064 39.5479V39.0479H524.564V39.5479H525.064ZM538.143 39.5479H538.643V39.0479H538.143V39.5479ZM550.869 68.7275V68.2275H545.139V68.7275V69.2275H550.869V68.7275ZM545.139 68.7275H545.639V36.208H545.139H544.639V68.7275H545.139ZM545.139 36.208V36.708H550.869V36.208V35.708H545.139V36.208ZM550.869 36.208H550.369V68.7275H550.869H551.369V36.208H550.869ZM541.061 39.5479H540.561C540.561 43.166 540.137 46.3742 539.298 49.178L539.777 49.3213L540.256 49.4646C541.128 46.5497 541.561 43.2422 541.561 39.5479H541.061ZM539.777 49.3213L539.298 49.178C538.466 51.9589 536.983 54.5186 534.838 56.8584L535.207 57.1963L535.576 57.5342C537.814 55.0928 539.377 52.4024 540.256 49.4646L539.777 49.3213ZM535.207 57.1963L534.838 56.8584C532.703 59.1885 529.726 61.2632 525.888 63.0721L526.102 63.5244L526.315 63.9767C530.234 62.1293 533.329 59.9854 535.576 57.5342L535.207 57.1963ZM526.102 63.5244L526.521 63.2516L523.603 58.7692L523.184 59.042L522.765 59.3148L525.683 63.7972L526.102 63.5244ZM523.184 59.042L523.398 59.4939C526.547 58.0022 529.047 56.3683 530.88 54.5838L530.531 54.2256L530.182 53.8673C528.453 55.5516 526.055 57.1287 522.97 58.5901L523.184 59.042ZM530.531 54.2256L530.88 54.5838C532.713 52.7992 534.023 50.7766 534.801 48.5172L534.328 48.3545L533.855 48.1918C533.133 50.2918 531.912 52.1832 530.182 53.8673L530.531 54.2256ZM534.328 48.3545L534.801 48.5172C535.573 46.2719 535.953 43.6184 535.953 40.5674H535.453H534.953C534.953 43.5398 534.583 46.0777 533.855 48.1918L534.328 48.3545ZM535.453 40.5674H535.953V39.5479H535.453H534.953V40.5674H535.453ZM535.453 39.5479V40.0479H541.061V39.5479V39.0479H535.453V39.5479ZM538.143 43.9248V43.4248H525.064V43.9248V44.4248H538.143V43.9248ZM525.064 43.9248H525.564V39.5479H525.064H524.564V43.9248H525.064ZM525.064 39.5479V40.0479H538.143V39.5479V39.0479H525.064V39.5479ZM538.143 39.5479H537.643V43.9248H538.143H538.643V39.5479H538.143Z" fill="white" mask="url(#path-3-outside-2_487_3)"/>
</svg>
