<svg width="357" height="46" viewBox="0 0 357 46" fill="none" xmlns="http://www.w3.org/2000/svg">
<path d="M353.887 4.28627C352.342 2.4827 352.022 3.79693 349.882 3.79693C347.742 3.79693 347.742 3.6711 345.602 3.6711C343.462 3.6711 343.462 4.74764 341.322 4.74764C339.182 4.74764 339.182 4.1884 337.042 4.1884C334.902 4.1884 334.902 3.40545 332.762 3.40545C330.623 3.40545 330.623 3.65711 328.483 3.65711C326.343 3.65711 326.343 4.28627 324.203 4.28627C322.063 4.28627 322.063 4.16044 319.923 4.16044C317.783 4.16044 317.783 3.16777 315.643 3.16777C313.503 3.16777 313.503 3.68508 311.363 3.68508C309.223 3.68508 309.223 4.71968 307.083 4.71968C304.943 4.71968 304.943 3.43342 302.803 3.43342C300.663 3.43342 300.663 3.30759 298.523 3.30759C296.383 3.30759 296.383 3.01398 294.243 3.01398C292.103 3.01398 292.103 4.38413 289.963 4.38413C287.823 4.38413 287.823 4.30025 285.683 4.30025C283.544 4.30025 283.544 3.9647 281.404 3.9647C279.264 3.9647 279.264 3.11185 277.124 3.11185C274.984 3.11185 274.984 3.92276 272.844 3.92276C270.704 3.92276 270.704 4.60783 268.564 4.60783C266.424 4.60783 266.424 3.18175 264.284 3.18175C262.144 3.18175 262.144 3.64313 260.004 3.64313C257.864 3.64313 257.864 4.77561 255.724 4.77561C253.584 4.77561 253.584 3.75498 251.444 3.75498C249.304 3.75498 249.304 3.01398 247.164 3.01398C245.024 3.01398 245.024 3.9647 242.884 3.9647C240.744 3.9647 240.744 4.77561 238.604 4.77561C236.465 4.77561 236.465 4.23034 234.325 4.23034C232.185 4.23034 232.185 4.42608 230.045 4.42608C227.905 4.42608 227.905 3.57323 225.765 3.57323C223.625 3.57323 223.625 3.54526 221.485 3.54526C219.345 3.54526 219.345 4.76162 217.205 4.76162C215.065 4.76162 215.065 4.55191 212.925 4.55191C210.785 4.55191 210.785 3.4474 208.645 3.4474C206.505 3.4474 206.505 3.58721 204.354 3.58721C202.202 3.58721 202.214 3.90877 200.074 3.90877C197.934 3.90877 197.934 4.74764 195.794 4.74764C193.654 4.74764 193.654 3.85285 191.514 3.85285C189.374 3.85285 189.374 3.40545 187.234 3.40545C185.094 3.40545 185.094 4.73366 182.954 4.73366C180.814 4.73366 180.814 3.88081 178.674 3.88081C176.534 3.88081 176.534 4.07655 174.394 4.07655C172.254 4.07655 172.254 3.55925 170.103 3.55925C167.952 3.55925 167.963 4.09053 165.823 4.09053C163.683 4.09053 163.683 3.95072 161.543 3.95072C159.403 3.95072 159.403 3.20972 157.263 3.20972C155.123 3.20972 155.123 3.30759 152.983 3.30759C150.843 3.30759 150.843 3.36351 148.692 3.36351C146.541 3.36351 146.552 4.21636 144.401 4.21636C142.249 4.21636 142.261 4.04859 140.121 4.04859C137.981 4.04859 137.981 3.4474 135.841 3.4474C133.701 3.4474 133.701 4.04859 131.561 4.04859C129.421 4.04859 129.421 3.69906 127.27 3.69906C125.118 3.69906 125.13 4.23034 122.99 4.23034C120.85 4.23034 120.85 4.13247 118.71 4.13247C116.57 4.13247 116.57 4.44006 114.418 4.44006C112.267 4.44006 112.279 4.80357 110.127 4.80357C107.976 4.80357 107.987 4.39811 105.836 4.39811C103.684 4.39811 103.696 3.75498 101.544 3.75498C99.393 3.75498 99.4044 3.64313 97.253 3.64313C95.1016 3.64313 95.1131 4.53793 92.9617 4.53793C90.8103 4.53793 90.8217 4.81755 88.6703 4.81755C86.5189 4.81755 86.5304 4.52395 84.379 4.52395C82.2276 4.52395 82.239 4.80357 80.0876 4.80357C77.9362 4.80357 77.9477 3.20972 75.7963 3.20972C73.6449 3.20972 73.6563 3.26564 71.5049 3.26564C69.3535 3.26564 69.365 3.06991 67.2136 3.06991C65.0622 3.06991 65.0736 3.57323 62.9222 3.57323C60.7708 3.57323 60.7823 4.10451 58.6423 4.10451C56.5024 4.10451 56.5024 4.69172 54.351 4.69172C52.1996 4.69172 52.211 3.18175 50.0596 3.18175C47.9082 3.18175 47.9197 3.88081 45.7683 3.88081C43.6169 3.88081 43.6283 4.31423 41.4769 4.31423C39.3255 4.31423 39.3369 3.55925 37.1856 3.55925C35.0341 3.55925 35.0456 4.80357 32.8942 4.80357C30.7428 4.80357 30.7542 3.99266 28.6028 3.99266C26.4514 3.99266 26.4629 3.99266 24.3115 3.99266C22.1601 3.99266 22.1715 3 20.0201 3C17.8687 3 17.8802 4.55191 15.7288 4.55191C13.5774 4.55191 13.5774 4.45404 11.4374 4.45404C9.29748 4.45404 9.28603 4.57987 7.13463 4.57987C4.98324 4.57987 4.4225 2.28696 2.86617 4.09053C1.30984 5.8941 3.44979 6.42538 3.44979 8.92801C3.44979 11.4306 2.28254 11.4167 2.28254 13.9193C2.28254 16.4219 3.41546 16.4079 3.41546 18.9105C3.41546 21.4132 2.35121 21.3992 2.35121 23.9018C2.35121 26.4044 2.05367 26.3905 2.05367 28.8931C2.05367 31.3957 2.86617 31.3817 2.86617 33.8844C2.86617 36.387 2.29399 36.387 2.29399 38.8896C2.29399 41.3922 1.35561 42.0354 2.83184 43.769C4.30806 45.5027 4.88024 43.8529 7.0202 43.8529C9.16015 43.8529 9.16015 44.7198 11.3001 44.7198C13.4401 44.7198 13.4401 44.0207 15.58 44.0207C17.72 44.0207 17.72 43.028 19.8599 43.028C21.9999 43.028 21.9999 43.769 24.1398 43.769C26.2798 43.769 26.2798 44.2724 28.4197 44.2724C30.5597 44.2724 30.5597 43.5453 32.6997 43.5453C34.8396 43.5453 34.8396 44.1745 36.9796 44.1745C39.1195 44.1745 39.1195 43.9788 41.2595 43.9788C43.3994 43.9788 43.3994 44.6498 45.5394 44.6498C47.6793 44.6498 47.6793 43.797 49.8193 43.797C51.9592 43.797 51.9592 43.1119 54.0992 43.1119C56.2392 43.1119 56.2392 43.1399 58.3791 43.1399C60.5191 43.1399 60.5191 43.2797 62.659 43.2797C64.799 43.2797 64.799 43.1259 66.9389 43.1259C69.0789 43.1259 69.0789 44.3982 71.2188 44.3982C73.3588 44.3982 73.3588 44.7617 75.4987 44.7617C77.6387 44.7617 77.6387 44.3143 79.7787 44.3143C81.9186 44.3143 81.9186 43.1399 84.0586 43.1399C86.1985 43.1399 86.1985 44.0766 88.3385 44.0766C90.4784 44.0766 90.4784 43.5314 92.6184 43.5314C94.7583 43.5314 94.7583 44.1605 96.8983 44.1605C99.0382 44.1605 99.0382 44.566 101.178 44.566C103.318 44.566 103.318 43.8949 105.458 43.8949C107.598 43.8949 107.598 43.5034 109.738 43.5034C111.878 43.5034 111.878 44.1046 114.018 44.1046C116.158 44.1046 116.158 43.014 118.298 43.014C120.438 43.014 120.438 43.811 122.578 43.811C124.718 43.811 124.718 43.3776 126.858 43.3776C128.998 43.3776 128.998 44.3423 131.138 44.3423C133.278 44.3423 133.278 43.1958 135.417 43.1958C137.557 43.1958 137.557 44.4261 139.697 44.4261C141.837 44.4261 141.837 43.7551 143.977 43.7551C146.117 43.7551 146.117 44.6079 148.257 44.6079C150.397 44.6079 150.397 43.783 152.549 43.783C154.7 43.783 154.689 43.4195 156.828 43.4195C158.968 43.4195 158.968 43.1259 161.108 43.1259C163.248 43.1259 163.248 44.4541 165.388 44.4541C167.528 44.4541 167.528 44.566 169.668 44.566C171.808 44.566 171.808 44.4961 173.948 44.4961C176.088 44.4961 176.088 44.2164 178.228 44.2164C180.368 44.2164 180.368 44.6359 182.508 44.6359C184.648 44.6359 184.648 43.3356 186.799 43.3356C188.951 43.3356 188.939 44.4541 191.079 44.4541C193.219 44.4541 193.219 44.6498 195.359 44.6498C197.499 44.6498 197.499 44.2304 199.639 44.2304C201.779 44.2304 201.779 44.2304 203.919 44.2304C206.059 44.2304 206.059 44.7337 208.21 44.7337C210.362 44.7337 210.35 43.056 212.502 43.056C214.653 43.056 214.642 44.3702 216.782 44.3702C218.921 44.3702 218.921 43.1678 221.061 43.1678C223.201 43.1678 223.201 43.8529 225.341 43.8529C227.481 43.8529 227.481 43.825 229.633 43.825C231.784 43.825 231.773 43.825 233.913 43.825C236.053 43.825 236.053 43.6432 238.193 43.6432C240.332 43.6432 240.332 43.811 242.484 43.811C244.635 43.811 244.624 43.084 246.775 43.084C248.927 43.084 248.915 44.7617 251.067 44.7617C253.218 44.7617 253.207 44.2584 255.358 44.2584C257.509 44.2584 257.498 43.783 259.649 43.783C261.801 43.783 261.789 44.4401 263.941 44.4401C266.092 44.4401 266.081 44.8036 268.232 44.8036C270.383 44.8036 270.372 44.2724 272.523 44.2724C274.675 44.2724 274.663 43.2657 276.815 43.2657C278.966 43.2657 278.955 44.3423 281.106 44.3423C283.257 44.3423 283.246 44.5939 285.397 44.5939C287.549 44.5939 287.537 43.2797 289.689 43.2797C291.84 43.2797 291.829 44.2024 293.98 44.2024C296.131 44.2024 296.12 44.6219 298.26 44.6219C300.4 44.6219 300.4 43.5174 302.551 43.5174C304.703 43.5174 304.691 44.4401 306.843 44.4401C308.994 44.4401 308.983 43.014 311.134 43.014C313.285 43.014 313.274 43.3077 315.425 43.3077C317.577 43.3077 317.565 43.1958 319.717 43.1958C321.868 43.1958 321.857 44.7897 324.008 44.7897C326.16 44.7897 326.148 44.7897 328.299 44.7897C330.451 44.7897 330.439 44.7617 332.591 44.7617C334.742 44.7617 334.731 44.7617 336.882 44.7617C339.034 44.7617 339.022 44.2304 341.174 44.2304C343.325 44.2304 343.325 43.9368 345.465 43.9368C347.605 43.9368 347.616 43.6991 349.768 43.6991C351.919 43.6991 352.812 46.1458 354.368 44.3283C355.924 42.5107 354.116 41.4342 354.116 38.9455C354.116 36.4569 354.597 36.4569 354.597 33.9543C354.597 31.4516 354.688 31.4656 354.688 28.963C354.688 26.4604 353.636 26.4744 353.636 23.9717C353.636 21.4691 353.762 21.4831 353.762 18.9805C353.762 16.4778 354.608 16.4918 354.608 13.9892C354.608 11.4866 353.636 11.4306 354.013 8.98393C354.391 6.53723 355.272 6.07585 353.784 4.34219L353.887 4.28627Z" fill="#F4BC1B"/>
<path d="M353.887 3.28627C352.342 1.4827 352.022 2.79693 349.882 2.79693C347.742 2.79693 347.742 2.6711 345.602 2.6711C343.462 2.6711 343.462 3.74764 341.322 3.74764C339.182 3.74764 339.182 3.1884 337.042 3.1884C334.902 3.1884 334.902 2.40545 332.763 2.40545C330.623 2.40545 330.623 2.65711 328.483 2.65711C326.343 2.65711 326.343 3.28627 324.203 3.28627C322.063 3.28627 322.063 3.16044 319.923 3.16044C317.783 3.16044 317.783 2.16777 315.643 2.16777C313.503 2.16777 313.503 2.68508 311.363 2.68508C309.223 2.68508 309.223 3.71968 307.083 3.71968C304.943 3.71968 304.943 2.43342 302.803 2.43342C300.663 2.43342 300.663 2.30759 298.523 2.30759C296.383 2.30759 296.383 2.01398 294.243 2.01398C292.103 2.01398 292.103 3.38413 289.963 3.38413C287.823 3.38413 287.823 3.30025 285.684 3.30025C283.544 3.30025 283.544 2.9647 281.404 2.9647C279.264 2.9647 279.264 2.11185 277.124 2.11185C274.984 2.11185 274.984 2.92276 272.844 2.92276C270.704 2.92276 270.704 3.60783 268.564 3.60783C266.424 3.60783 266.424 2.18175 264.284 2.18175C262.144 2.18175 262.144 2.64313 260.004 2.64313C257.864 2.64313 257.864 3.77561 255.724 3.77561C253.584 3.77561 253.584 2.75498 251.444 2.75498C249.304 2.75498 249.304 2.01398 247.164 2.01398C245.024 2.01398 245.024 2.9647 242.884 2.9647C240.744 2.9647 240.744 3.77561 238.605 3.77561C236.465 3.77561 236.465 3.23034 234.325 3.23034C232.185 3.23034 232.185 3.42608 230.045 3.42608C227.905 3.42608 227.905 2.57323 225.765 2.57323C223.625 2.57323 223.625 2.54526 221.485 2.54526C219.345 2.54526 219.345 3.76162 217.205 3.76162C215.065 3.76162 215.065 3.55191 212.925 3.55191C210.785 3.55191 210.785 2.4474 208.645 2.4474C206.505 2.4474 206.505 2.58721 204.354 2.58721C202.202 2.58721 202.214 2.90877 200.074 2.90877C197.934 2.90877 197.934 3.74764 195.794 3.74764C193.654 3.74764 193.654 2.85285 191.514 2.85285C189.374 2.85285 189.374 2.40545 187.234 2.40545C185.094 2.40545 185.094 3.73366 182.954 3.73366C180.814 3.73366 180.814 2.88081 178.674 2.88081C176.534 2.88081 176.534 3.07655 174.394 3.07655C172.254 3.07655 172.254 2.55925 170.103 2.55925C167.952 2.55925 167.963 3.09053 165.823 3.09053C163.683 3.09053 163.683 2.95072 161.543 2.95072C159.403 2.95072 159.403 2.20972 157.263 2.20972C155.123 2.20972 155.123 2.30759 152.983 2.30759C150.843 2.30759 150.843 2.36351 148.692 2.36351C146.541 2.36351 146.552 3.21636 144.401 3.21636C142.249 3.21636 142.261 3.04859 140.121 3.04859C137.981 3.04859 137.981 2.4474 135.841 2.4474C133.701 2.4474 133.701 3.04859 131.561 3.04859C129.421 3.04859 129.421 2.69906 127.27 2.69906C125.118 2.69906 125.13 3.23034 122.99 3.23034C120.85 3.23034 120.85 3.13247 118.71 3.13247C116.57 3.13247 116.57 3.44006 114.418 3.44006C112.267 3.44006 112.279 3.80357 110.127 3.80357C107.976 3.80357 107.987 3.39811 105.836 3.39811C103.684 3.39811 103.696 2.75498 101.544 2.75498C99.393 2.75498 99.4044 2.64313 97.2531 2.64313C95.1017 2.64313 95.1131 3.53793 92.9617 3.53793C90.8103 3.53793 90.8217 3.81755 88.6703 3.81755C86.5189 3.81755 86.5304 3.52395 84.379 3.52395C82.2276 3.52395 82.239 3.80357 80.0876 3.80357C77.9362 3.80357 77.9477 2.20972 75.7963 2.20972C73.6449 2.20972 73.6563 2.26564 71.5049 2.26564C69.3535 2.26564 69.365 2.06991 67.2136 2.06991C65.0622 2.06991 65.0736 2.57323 62.9222 2.57323C60.7708 2.57323 60.7823 3.10451 58.6423 3.10451C56.5024 3.10451 56.5024 3.69172 54.351 3.69172C52.1996 3.69172 52.211 2.18175 50.0596 2.18175C47.9082 2.18175 47.9197 2.88081 45.7683 2.88081C43.6169 2.88081 43.6283 3.31423 41.4769 3.31423C39.3255 3.31423 39.3369 2.55925 37.1856 2.55925C35.0341 2.55925 35.0456 3.80357 32.8942 3.80357C30.7428 3.80357 30.7542 2.99266 28.6028 2.99266C26.4514 2.99266 26.4629 2.99266 24.3115 2.99266C22.1601 2.99266 22.1715 2 20.0201 2C17.8687 2 17.8802 3.55191 15.7288 3.55191C13.5774 3.55191 13.5774 3.45404 11.4374 3.45404C9.29748 3.45404 9.28603 3.57987 7.13463 3.57987C4.98324 3.57987 4.4225 1.28696 2.86617 3.09053C1.30984 4.8941 3.44979 5.42538 3.44979 7.92801C3.44979 10.4306 2.28254 10.4167 2.28254 12.9193C2.28254 15.4219 3.41546 15.4079 3.41546 17.9105C3.41546 20.4132 2.35121 20.3992 2.35121 22.9018C2.35121 25.4044 2.05367 25.3905 2.05367 27.8931C2.05367 30.3957 2.86617 30.3817 2.86617 32.8844C2.86617 35.387 2.29399 35.387 2.29399 37.8896C2.29399 40.3922 1.35561 41.0354 2.83184 42.769C4.30806 44.5027 4.88024 42.8529 7.0202 42.8529C9.16015 42.8529 9.16015 43.7198 11.3001 43.7198C13.4401 43.7198 13.4401 43.0207 15.58 43.0207C17.72 43.0207 17.72 42.028 19.8599 42.028C21.9999 42.028 21.9999 42.769 24.1398 42.769C26.2798 42.769 26.2798 43.2724 28.4197 43.2724C30.5597 43.2724 30.5597 42.5453 32.6997 42.5453C34.8396 42.5453 34.8396 43.1745 36.9796 43.1745C39.1195 43.1745 39.1195 42.9788 41.2595 42.9788C43.3994 42.9788 43.3994 43.6498 45.5394 43.6498C47.6793 43.6498 47.6793 42.797 49.8193 42.797C51.9593 42.797 51.9592 42.1119 54.0992 42.1119C56.2392 42.1119 56.2392 42.1399 58.3791 42.1399C60.5191 42.1399 60.5191 42.2797 62.659 42.2797C64.799 42.2797 64.799 42.1259 66.9389 42.1259C69.0789 42.1259 69.0789 43.3982 71.2188 43.3982C73.3588 43.3982 73.3588 43.7617 75.4988 43.7617C77.6387 43.7617 77.6387 43.3143 79.7787 43.3143C81.9186 43.3143 81.9186 42.1399 84.0586 42.1399C86.1985 42.1399 86.1985 43.0766 88.3385 43.0766C90.4784 43.0766 90.4784 42.5314 92.6184 42.5314C94.7583 42.5314 94.7583 43.1605 96.8983 43.1605C99.0383 43.1605 99.0383 43.566 101.178 43.566C103.318 43.566 103.318 42.8949 105.458 42.8949C107.598 42.8949 107.598 42.5034 109.738 42.5034C111.878 42.5034 111.878 43.1046 114.018 43.1046C116.158 43.1046 116.158 42.014 118.298 42.014C120.438 42.014 120.438 42.811 122.578 42.811C124.718 42.811 124.718 42.3776 126.858 42.3776C128.998 42.3776 128.998 43.3423 131.138 43.3423C133.278 43.3423 133.278 42.1958 135.417 42.1958C137.557 42.1958 137.557 43.4261 139.697 43.4261C141.837 43.4261 141.837 42.7551 143.977 42.7551C146.117 42.7551 146.117 43.6079 148.257 43.6079C150.397 43.6079 150.397 42.783 152.549 42.783C154.7 42.783 154.689 42.4195 156.828 42.4195C158.968 42.4195 158.968 42.1259 161.108 42.1259C163.248 42.1259 163.248 43.4541 165.388 43.4541C167.528 43.4541 167.528 43.566 169.668 43.566C171.808 43.566 171.808 43.4961 173.948 43.4961C176.088 43.4961 176.088 43.2164 178.228 43.2164C180.368 43.2164 180.368 43.6359 182.508 43.6359C184.648 43.6359 184.648 42.3356 186.799 42.3356C188.951 42.3356 188.939 43.4541 191.079 43.4541C193.219 43.4541 193.219 43.6498 195.359 43.6498C197.499 43.6498 197.499 43.2304 199.639 43.2304C201.779 43.2304 201.779 43.2304 203.919 43.2304C206.059 43.2304 206.059 43.7337 208.21 43.7337C210.362 43.7337 210.35 42.056 212.502 42.056C214.653 42.056 214.642 43.3702 216.782 43.3702C218.921 43.3702 218.921 42.1678 221.061 42.1678C223.201 42.1678 223.201 42.8529 225.341 42.8529C227.481 42.8529 227.481 42.825 229.633 42.825C231.784 42.825 231.773 42.825 233.913 42.825C236.053 42.825 236.053 42.6432 238.193 42.6432C240.332 42.6432 240.332 42.811 242.484 42.811C244.635 42.811 244.624 42.084 246.775 42.084C248.927 42.084 248.915 43.7617 251.067 43.7617C253.218 43.7617 253.207 43.2584 255.358 43.2584C257.509 43.2584 257.498 42.783 259.649 42.783C261.801 42.783 261.789 43.4401 263.941 43.4401C266.092 43.4401 266.081 43.8036 268.232 43.8036C270.383 43.8036 270.372 43.2724 272.523 43.2724C274.675 43.2724 274.663 42.2657 276.815 42.2657C278.966 42.2657 278.955 43.3423 281.106 43.3423C283.257 43.3423 283.246 43.5939 285.397 43.5939C287.549 43.5939 287.537 42.2797 289.689 42.2797C291.84 42.2797 291.829 43.2024 293.98 43.2024C296.132 43.2024 296.12 43.6219 298.26 43.6219C300.4 43.6219 300.4 42.5174 302.551 42.5174C304.703 42.5174 304.691 43.4401 306.843 43.4401C308.994 43.4401 308.983 42.014 311.134 42.014C313.285 42.014 313.274 42.3077 315.425 42.3077C317.577 42.3077 317.565 42.1958 319.717 42.1958C321.868 42.1958 321.857 43.7897 324.008 43.7897C326.16 43.7897 326.148 43.7897 328.299 43.7897C330.451 43.7897 330.439 43.7617 332.591 43.7617C334.742 43.7617 334.731 43.7617 336.882 43.7617C339.034 43.7617 339.022 43.2304 341.174 43.2304C343.325 43.2304 343.325 42.9368 345.465 42.9368C347.605 42.9368 347.616 42.6991 349.768 42.6991C351.919 42.6991 352.812 45.1458 354.368 43.3283C355.924 41.5107 354.116 40.4342 354.116 37.9455C354.116 35.4569 354.597 35.4569 354.597 32.9543C354.597 30.4516 354.688 30.4656 354.688 27.963C354.688 25.4604 353.636 25.4743 353.636 22.9717C353.636 20.4691 353.762 20.4831 353.762 17.9805C353.762 15.4778 354.608 15.4918 354.608 12.9892C354.608 10.4866 353.636 10.4306 354.013 7.98393C354.391 5.53723 355.272 5.07585 353.784 3.34219L353.887 3.28627Z" fill="#F4BC1B" stroke="#231815" stroke-width="3" stroke-miterlimit="10"/>
<path d="M162.703 30.5469H160.188V16.0938H162.703V30.5469ZM164.664 23.3906H162.156V21.3281H164.664V23.3906ZM154.047 20.5234H156.266V17.2109H158.766V27.2891H151.539V17.2109H154.047V20.5234ZM156.266 25.2734V22.4531H154.047V25.2734H156.266ZM178.203 29.0625H165.016V27.0312H178.203V29.0625ZM172.82 27.8672H170.352V24.5312H172.82V27.8672ZM176.773 22.0078H168.945V24.1875H166.445V20.0781H174.297V18.9531H166.43V16.9609H176.773V22.0078ZM177.117 25.1875H166.445V23.1641H177.117V25.1875ZM190.359 30.5156H187.844V16.0938H190.359V30.5156ZM192.211 23.4766H189.703V21.4297H192.211V23.4766ZM186.422 17.5391C186.417 19.1068 186.211 20.5365 185.805 21.8281C185.404 23.1198 184.724 24.3047 183.766 25.3828C182.807 26.4557 181.529 27.3854 179.93 28.1719L178.523 26.2734C179.779 25.6328 180.805 24.9245 181.602 24.1484C182.404 23.3672 182.997 22.4766 183.383 21.4766C183.773 20.4766 183.969 19.3203 183.969 18.0078V17.5391H186.422ZM185.227 19.5703H179.414V17.5391H185.227V19.5703ZM204.922 30.5469H202.375V16.0938H204.922V30.5469ZM200.562 17.5781C200.557 19.2031 200.365 20.651 199.984 21.9219C199.609 23.1927 198.932 24.362 197.953 25.4297C196.979 26.4922 195.633 27.4271 193.914 28.2344L192.617 26.2422C194.003 25.5859 195.091 24.8724 195.883 24.1016C196.674 23.3307 197.237 22.4609 197.57 21.4922C197.904 20.5234 198.07 19.3698 198.07 18.0312V17.5781H200.562ZM199.266 19.5234H193.453V17.5781H199.266V19.5234Z" fill="black"/>
</svg>
