<svg width="966" height="94" viewBox="0 0 966 94" fill="none" xmlns="http://www.w3.org/2000/svg">
<g clip-path="url(#clip0_498_8)">
<mask id="mask0_498_8" style="mask-type:luminance" maskUnits="userSpaceOnUse" x="0" y="0" width="966" height="94">
<path d="M966 0H0V94H966V0Z" fill="white"/>
</mask>
<g mask="url(#mask0_498_8)">
<path d="M960.747 3.24964C954.28 -0.678197 953.145 1.45135 943.932 1.45135C934.719 1.45135 934.719 1.84571 925.507 1.84571C916.294 1.84571 916.294 1.34093 907.082 1.34093C897.869 1.34093 897.869 2.11388 888.657 2.11388C879.444 2.11388 879.444 0.662632 870.205 0.662632C860.966 0.662632 860.993 2.42937 851.754 2.42937C842.515 2.42937 842.541 3.29696 833.328 3.29696C824.116 3.29696 824.116 0.473338 814.903 0.473338C805.691 0.473338 805.691 2.53979 796.452 2.53979C787.213 2.53979 787.239 1.81416 778 1.81416C768.761 1.81416 768.788 1.49867 759.575 1.49867C750.363 1.49867 750.363 3.73865 741.124 3.73865C731.885 3.73865 731.911 3.5178 722.672 3.5178C713.433 3.5178 713.459 1.81416 704.221 1.81416C694.982 1.81416 695.008 3.65977 685.769 3.65977C676.53 3.65977 676.556 1.78261 667.317 1.78261C658.078 1.78261 658.105 2.41359 648.866 2.41359C639.627 2.41359 639.653 1.32515 630.414 1.32515C621.175 1.32515 621.202 2.82373 611.963 2.82373C602.724 2.82373 602.75 1.08854 593.511 1.08854C584.272 1.08854 584.299 1.49867 575.06 1.49867C565.821 1.49867 565.847 4.21188 556.608 4.21188C547.369 4.21188 547.396 3.48626 538.157 3.48626C528.918 3.48626 528.944 1.13586 519.732 1.13586C510.519 1.13586 510.519 2.55556 501.306 2.55556C492.094 2.55556 492.094 2.38204 482.881 2.38204C473.669 2.38204 473.669 0.709955 464.43 0.709955C455.191 0.709955 455.217 3.99104 446.005 3.99104C436.792 3.99104 436.792 2.06655 427.579 2.06655C418.367 2.06655 418.367 4.00681 409.128 4.00681C399.889 4.00681 399.915 3.40738 390.703 3.40738C381.49 3.40738 381.49 3.81752 372.251 3.81752C363.012 3.81752 363.039 4.02259 353.8 4.02259C344.561 4.02259 344.587 4.00681 335.348 4.00681C326.109 4.00681 326.136 4.03836 316.897 4.03836C307.658 4.03836 307.684 2.1612 298.445 2.1612C289.206 2.1612 289.232 3.94371 279.994 3.94371C270.755 3.94371 270.781 2.05078 261.542 2.05078C252.303 2.05078 252.329 1.56177 243.09 1.56177C233.851 1.56177 233.878 3.37583 224.639 3.37583C215.4 3.37583 215.426 1.37248 206.187 1.37248C196.948 1.37248 196.975 3.88062 187.736 3.88062C178.497 3.88062 178.497 3.04457 169.284 3.04457C160.072 3.04457 160.072 0.788827 150.833 0.788827C141.594 0.788827 141.62 2.24007 132.381 2.24007C123.142 2.24007 123.169 1.95613 113.93 1.95613C104.691 1.95613 104.717 1.75107 95.4782 1.75107C86.2392 1.75107 86.2392 1.84571 77.0266 1.84571C67.8141 1.84571 67.8141 2.41359 58.5751 2.41359C49.3361 2.41359 49.3361 0.489113 40.1236 0.489113C30.911 0.489113 30.8846 1.67219 21.6456 1.67219C12.4067 1.67219 8.89585 -2.14523 2.40218 1.78261C-4.0915 5.71045 4.8571 7.88733 4.8571 13.4715C4.8571 19.0556 3.35247 19.0556 3.35247 24.6556C3.35247 30.2555 6.04497 30.2397 6.04497 35.8397C6.04497 41.4396 3.986 41.4238 3.986 47.0238C3.986 52.6237 5.25306 52.6079 5.25306 58.1921C5.25306 63.7762 5.14747 63.7762 5.14747 69.3762C5.14747 74.9761 2.61335 74.9761 2.61335 80.5602C2.61335 86.1444 -1.10863 86.4914 5.46424 90.4666C12.0371 94.4418 12.5122 90.9398 21.7248 90.9398C30.9374 90.9398 30.9374 92.186 40.15 92.186C49.3625 92.186 49.3625 92.3753 58.5751 92.3753C67.7877 92.3753 67.7877 93.1798 77.0002 93.1798C86.2128 93.1798 86.2128 91.7443 95.4518 91.7443C104.691 91.7443 104.664 92.6908 113.903 92.6908C123.142 92.6908 123.116 92.0125 132.328 92.0125C141.541 92.0125 141.541 90.3877 150.754 90.3877C159.966 90.3877 159.966 90.2458 169.205 90.2458C178.444 90.2458 178.418 93.6531 187.657 93.6531C196.896 93.6531 196.869 93.0852 206.082 93.0852C215.294 93.0852 215.294 90.1353 224.533 90.1353C233.772 90.1353 233.746 92.3595 242.985 92.3595C252.224 92.3595 252.197 93.2745 261.436 93.2745C270.675 93.2745 270.649 92.5646 279.888 92.5646C289.127 92.5646 289.1 92.959 298.339 92.959C307.578 92.959 307.552 93.6531 316.791 93.6531C326.03 93.6531 326.004 93.1325 335.243 93.1325C344.482 93.1325 344.455 91.1765 353.694 91.1765C362.933 91.1765 362.907 90.5455 372.146 90.5455C381.385 90.5455 381.358 90.3246 390.597 90.3246C399.836 90.3246 399.81 91.5235 409.049 91.5235C418.288 91.5235 418.261 90.1669 427.5 90.1669C436.739 90.1669 436.713 92.2964 445.925 92.2964C455.138 92.2964 455.138 92.0283 464.35 92.0283C473.563 92.0283 473.563 89.9145 482.776 89.9145C491.988 89.9145 491.988 89.883 501.227 89.883C510.466 89.883 510.44 92.3438 519.652 92.3438C528.865 92.3438 528.865 91.208 538.077 91.208C547.29 91.208 547.29 91.3973 556.529 91.3973C565.768 91.3973 565.742 90.577 574.954 90.577C584.167 90.577 584.167 90.9872 593.406 90.9872C602.645 90.9872 602.618 93.4795 611.857 93.4795C621.096 93.4795 621.07 90.6875 630.309 90.6875C639.548 90.6875 639.521 89.9461 648.76 89.9461C657.999 89.9461 657.973 91.3973 667.212 91.3973C676.451 91.3973 676.424 93.5742 685.663 93.5742C694.902 93.5742 694.876 92.8959 704.115 92.8959C713.354 92.8959 713.328 93.2587 722.566 93.2587C731.805 93.2587 731.779 92.0283 741.018 92.0283C750.257 92.0283 750.231 93.6215 759.469 93.6215C768.708 93.6215 768.682 90.5297 777.921 90.5297C787.16 90.5297 787.16 91.9336 796.373 91.9336C805.585 91.9336 805.585 93.1325 814.824 93.1325C824.063 93.1325 824.037 91.1134 833.276 91.1134C842.515 91.1134 842.488 90.3877 851.727 90.3877C860.966 90.3877 860.94 92.3438 870.179 92.3438C879.418 92.3438 879.418 90.7505 888.63 90.7505C897.843 90.7505 897.843 90.2931 907.082 90.2931C916.321 90.2931 916.321 92.5646 925.533 92.5646C934.746 92.5646 934.772 92.2491 944.011 92.2491C953.25 92.2491 956.867 96.2243 963.36 92.2964C969.854 88.3686 962.753 86.1917 962.753 80.6076C962.753 75.0234 959.48 75.0234 959.48 69.4235C959.48 63.8236 961.09 63.8393 961.09 58.2394C961.09 52.6395 965.314 52.6552 965.314 47.0553C965.314 41.4554 962.436 41.4711 962.436 35.887C962.436 30.3028 962.7 30.3028 962.7 24.7029C962.7 19.103 961.803 19.1187 963.387 13.6135C964.971 8.10817 967.425 7.27213 960.853 3.28119L960.747 3.24964Z" fill="#5ED1FF"/>
</g>
<mask id="path-3-outside-1_498_8" maskUnits="userSpaceOnUse" x="422" y="30" width="122" height="34" fill="black">
<rect fill="white" x="422" y="30" width="122" height="34"/>
<path d="M447.957 63.4805H442.297V30.9609H447.957V63.4805ZM452.369 47.3789H446.727V42.7383H452.369V47.3789ZM428.48 40.9277H433.473V33.4746H439.098V56.1504H422.838V33.4746H428.48V40.9277ZM433.473 51.6152V45.2695H428.48V51.6152H433.473ZM482.832 60.1406H453.16V55.5703H482.832V60.1406ZM470.721 57.4512H465.166V49.9453H470.721V57.4512ZM479.615 44.2676H462.002V49.1719H456.377V39.9258H474.043V37.3945H456.342V32.9121H479.615V44.2676ZM480.389 51.4219H456.377V46.8691H480.389V51.4219ZM510.184 63.4102H504.523V30.9609H510.184V63.4102ZM514.35 47.5723H508.707V42.9668H514.35V47.5723ZM501.324 34.2129C501.312 37.7402 500.85 40.957 499.936 43.8633C499.033 46.7695 497.504 49.4355 495.348 51.8613C493.191 54.2754 490.314 56.3672 486.717 58.1367L483.553 53.8652C486.377 52.4238 488.686 50.8301 490.479 49.084C492.283 47.3262 493.619 45.3223 494.486 43.0723C495.365 40.8223 495.805 38.2207 495.805 35.2676V34.2129H501.324ZM498.635 38.7832H485.557V34.2129H498.635V38.7832ZM542.949 63.4805H537.219V30.9609H542.949V63.4805ZM533.141 34.3008C533.129 37.957 532.695 41.2148 531.84 44.0742C530.996 46.9336 529.473 49.5645 527.27 51.9668C525.078 54.3574 522.049 56.4609 518.182 58.2773L515.264 53.7949C518.381 52.3184 520.83 50.7129 522.611 48.9785C524.393 47.2441 525.658 45.2871 526.408 43.1074C527.158 40.9277 527.533 38.332 527.533 35.3203V34.3008H533.141ZM530.223 38.6777H517.145V34.3008H530.223V38.6777Z"/>
</mask>
<path d="M447.957 63.4805H442.297V30.9609H447.957V63.4805ZM452.369 47.3789H446.727V42.7383H452.369V47.3789ZM428.48 40.9277H433.473V33.4746H439.098V56.1504H422.838V33.4746H428.48V40.9277ZM433.473 51.6152V45.2695H428.48V51.6152H433.473ZM482.832 60.1406H453.16V55.5703H482.832V60.1406ZM470.721 57.4512H465.166V49.9453H470.721V57.4512ZM479.615 44.2676H462.002V49.1719H456.377V39.9258H474.043V37.3945H456.342V32.9121H479.615V44.2676ZM480.389 51.4219H456.377V46.8691H480.389V51.4219ZM510.184 63.4102H504.523V30.9609H510.184V63.4102ZM514.35 47.5723H508.707V42.9668H514.35V47.5723ZM501.324 34.2129C501.312 37.7402 500.85 40.957 499.936 43.8633C499.033 46.7695 497.504 49.4355 495.348 51.8613C493.191 54.2754 490.314 56.3672 486.717 58.1367L483.553 53.8652C486.377 52.4238 488.686 50.8301 490.479 49.084C492.283 47.3262 493.619 45.3223 494.486 43.0723C495.365 40.8223 495.805 38.2207 495.805 35.2676V34.2129H501.324ZM498.635 38.7832H485.557V34.2129H498.635V38.7832ZM542.949 63.4805H537.219V30.9609H542.949V63.4805ZM533.141 34.3008C533.129 37.957 532.695 41.2148 531.84 44.0742C530.996 46.9336 529.473 49.5645 527.27 51.9668C525.078 54.3574 522.049 56.4609 518.182 58.2773L515.264 53.7949C518.381 52.3184 520.83 50.7129 522.611 48.9785C524.393 47.2441 525.658 45.2871 526.408 43.1074C527.158 40.9277 527.533 38.332 527.533 35.3203V34.3008H533.141ZM530.223 38.6777H517.145V34.3008H530.223V38.6777Z" fill="black"/>
<path d="M447.957 63.4805V63.9805H448.457V63.4805H447.957ZM442.297 63.4805H441.797V63.9805H442.297V63.4805ZM442.297 30.9609V30.4609H441.797V30.9609H442.297ZM447.957 30.9609H448.457V30.4609H447.957V30.9609ZM452.369 47.3789V47.8789H452.869V47.3789H452.369ZM446.727 47.3789H446.227V47.8789H446.727V47.3789ZM446.727 42.7383V42.2383H446.227V42.7383H446.727ZM452.369 42.7383H452.869V42.2383H452.369V42.7383ZM428.48 40.9277H427.98V41.4277H428.48V40.9277ZM433.473 40.9277V41.4277H433.973V40.9277H433.473ZM433.473 33.4746V32.9746H432.973V33.4746H433.473ZM439.098 33.4746H439.598V32.9746H439.098V33.4746ZM439.098 56.1504V56.6504H439.598V56.1504H439.098ZM422.838 56.1504H422.338V56.6504H422.838V56.1504ZM422.838 33.4746V32.9746H422.338V33.4746H422.838ZM428.48 33.4746H428.98V32.9746H428.48V33.4746ZM433.473 51.6152V52.1152H433.973V51.6152H433.473ZM433.473 45.2695H433.973V44.7695H433.473V45.2695ZM428.48 45.2695V44.7695H427.98V45.2695H428.48ZM428.48 51.6152H427.98V52.1152H428.48V51.6152ZM447.957 63.4805V62.9805H442.297V63.4805V63.9805H447.957V63.4805ZM442.297 63.4805H442.797V30.9609H442.297H441.797V63.4805H442.297ZM442.297 30.9609V31.4609H447.957V30.9609V30.4609H442.297V30.9609ZM447.957 30.9609H447.457V63.4805H447.957H448.457V30.9609H447.957ZM452.369 47.3789V46.8789H446.727V47.3789V47.8789H452.369V47.3789ZM446.727 47.3789H447.227V42.7383H446.727H446.227V47.3789H446.727ZM446.727 42.7383V43.2383H452.369V42.7383V42.2383H446.727V42.7383ZM452.369 42.7383H451.869V47.3789H452.369H452.869V42.7383H452.369ZM428.48 40.9277V41.4277H433.473V40.9277V40.4277H428.48V40.9277ZM433.473 40.9277H433.973V33.4746H433.473H432.973V40.9277H433.473ZM433.473 33.4746V33.9746H439.098V33.4746V32.9746H433.473V33.4746ZM439.098 33.4746H438.598V56.1504H439.098H439.598V33.4746H439.098ZM439.098 56.1504V55.6504H422.838V56.1504V56.6504H439.098V56.1504ZM422.838 56.1504H423.338V33.4746H422.838H422.338V56.1504H422.838ZM422.838 33.4746V33.9746H428.48V33.4746V32.9746H422.838V33.4746ZM428.48 33.4746H427.98V40.9277H428.48H428.98V33.4746H428.48ZM433.473 51.6152H433.973V45.2695H433.473H432.973V51.6152H433.473ZM433.473 45.2695V44.7695H428.48V45.2695V45.7695H433.473V45.2695ZM428.48 45.2695H427.98V51.6152H428.48H428.98V45.2695H428.48ZM428.48 51.6152V52.1152H433.473V51.6152V51.1152H428.48V51.6152ZM482.832 60.1406V60.6406H483.332V60.1406H482.832ZM453.16 60.1406H452.66V60.6406H453.16V60.1406ZM453.16 55.5703V55.0703H452.66V55.5703H453.16ZM482.832 55.5703H483.332V55.0703H482.832V55.5703ZM470.721 57.4512V57.9512H471.221V57.4512H470.721ZM465.166 57.4512H464.666V57.9512H465.166V57.4512ZM465.166 49.9453V49.4453H464.666V49.9453H465.166ZM470.721 49.9453H471.221V49.4453H470.721V49.9453ZM479.615 44.2676V44.7676H480.115V44.2676H479.615ZM462.002 44.2676V43.7676H461.502V44.2676H462.002ZM462.002 49.1719V49.6719H462.502V49.1719H462.002ZM456.377 49.1719H455.877V49.6719H456.377V49.1719ZM456.377 39.9258V39.4258H455.877V39.9258H456.377ZM474.043 39.9258V40.4258H474.543V39.9258H474.043ZM474.043 37.3945H474.543V36.8945H474.043V37.3945ZM456.342 37.3945H455.842V37.8945H456.342V37.3945ZM456.342 32.9121V32.4121H455.842V32.9121H456.342ZM479.615 32.9121H480.115V32.4121H479.615V32.9121ZM480.389 51.4219V51.9219H480.889V51.4219H480.389ZM456.377 51.4219H455.877V51.9219H456.377V51.4219ZM456.377 46.8691V46.3691H455.877V46.8691H456.377ZM480.389 46.8691H480.889V46.3691H480.389V46.8691ZM482.832 60.1406V59.6406H453.16V60.1406V60.6406H482.832V60.1406ZM453.16 60.1406H453.66V55.5703H453.16H452.66V60.1406H453.16ZM453.16 55.5703V56.0703H482.832V55.5703V55.0703H453.16V55.5703ZM482.832 55.5703H482.332V60.1406H482.832H483.332V55.5703H482.832ZM470.721 57.4512V56.9512H465.166V57.4512V57.9512H470.721V57.4512ZM465.166 57.4512H465.666V49.9453H465.166H464.666V57.4512H465.166ZM465.166 49.9453V50.4453H470.721V49.9453V49.4453H465.166V49.9453ZM470.721 49.9453H470.221V57.4512H470.721H471.221V49.9453H470.721ZM479.615 44.2676V43.7676H462.002V44.2676V44.7676H479.615V44.2676ZM462.002 44.2676H461.502V49.1719H462.002H462.502V44.2676H462.002ZM462.002 49.1719V48.6719H456.377V49.1719V49.6719H462.002V49.1719ZM456.377 49.1719H456.877V39.9258H456.377H455.877V49.1719H456.377ZM456.377 39.9258V40.4258H474.043V39.9258V39.4258H456.377V39.9258ZM474.043 39.9258H474.543V37.3945H474.043H473.543V39.9258H474.043ZM474.043 37.3945V36.8945H456.342V37.3945V37.8945H474.043V37.3945ZM456.342 37.3945H456.842V32.9121H456.342H455.842V37.3945H456.342ZM456.342 32.9121V33.4121H479.615V32.9121V32.4121H456.342V32.9121ZM479.615 32.9121H479.115V44.2676H479.615H480.115V32.9121H479.615ZM480.389 51.4219V50.9219H456.377V51.4219V51.9219H480.389V51.4219ZM456.377 51.4219H456.877V46.8691H456.377H455.877V51.4219H456.377ZM456.377 46.8691V47.3691H480.389V46.8691V46.3691H456.377V46.8691ZM480.389 46.8691H479.889V51.4219H480.389H480.889V46.8691H480.389ZM510.184 63.4102V63.9102H510.684V63.4102H510.184ZM504.523 63.4102H504.023V63.9102H504.523V63.4102ZM504.523 30.9609V30.4609H504.023V30.9609H504.523ZM510.184 30.9609H510.684V30.4609H510.184V30.9609ZM514.35 47.5723V48.0723H514.85V47.5723H514.35ZM508.707 47.5723H508.207V48.0723H508.707V47.5723ZM508.707 42.9668V42.4668H508.207V42.9668H508.707ZM514.35 42.9668H514.85V42.4668H514.35V42.9668ZM501.324 34.2129L501.824 34.2146L501.826 33.7129H501.324V34.2129ZM499.936 43.8633L499.459 43.7133L499.458 43.715L499.936 43.8633ZM495.348 51.8613L495.721 52.1944L495.721 52.1935L495.348 51.8613ZM486.717 58.1367L486.315 58.4343L486.563 58.7694L486.937 58.5854L486.717 58.1367ZM483.553 53.8652L483.325 53.4199L482.799 53.6883L483.151 54.1628L483.553 53.8652ZM490.479 49.084L490.827 49.4422L490.827 49.4422L490.479 49.084ZM494.486 43.0723L494.021 42.8903L494.02 42.8925L494.486 43.0723ZM495.805 34.2129V33.7129H495.305V34.2129H495.805ZM498.635 38.7832V39.2832H499.135V38.7832H498.635ZM485.557 38.7832H485.057V39.2832H485.557V38.7832ZM485.557 34.2129V33.7129H485.057V34.2129H485.557ZM498.635 34.2129H499.135V33.7129H498.635V34.2129ZM510.184 63.4102V62.9102H504.523V63.4102V63.9102H510.184V63.4102ZM504.523 63.4102H505.023V30.9609H504.523H504.023V63.4102H504.523ZM504.523 30.9609V31.4609H510.184V30.9609V30.4609H504.523V30.9609ZM510.184 30.9609H509.684V63.4102H510.184H510.684V30.9609H510.184ZM514.35 47.5723V47.0723H508.707V47.5723V48.0723H514.35V47.5723ZM508.707 47.5723H509.207V42.9668H508.707H508.207V47.5723H508.707ZM508.707 42.9668V43.4668H514.35V42.9668V42.4668H508.707V42.9668ZM514.35 42.9668H513.85V47.5723H514.35H514.85V42.9668H514.35ZM501.324 34.2129L500.824 34.2112C500.813 37.696 500.355 40.8619 499.459 43.7133L499.936 43.8633L500.413 44.0133C501.344 41.0522 501.812 37.7845 501.824 34.2146L501.324 34.2129ZM499.936 43.8633L499.458 43.715C498.578 46.5488 497.086 49.153 494.974 51.5291L495.348 51.8613L495.721 52.1935C497.922 49.7181 499.488 46.9902 500.413 44.0115L499.936 43.8633ZM495.348 51.8613L494.975 51.5282C492.87 53.8844 490.049 55.9404 486.496 57.6881L486.717 58.1367L486.937 58.5854C490.58 56.794 493.513 54.6664 495.721 52.1944L495.348 51.8613ZM486.717 58.1367L487.119 57.8391L483.955 53.5676L483.553 53.8652L483.151 54.1628L486.315 58.4343L486.717 58.1367ZM483.553 53.8652L483.78 54.3106C486.638 52.8522 488.99 51.2311 490.827 49.4422L490.479 49.084L490.13 48.7258C488.381 50.429 486.116 51.9955 483.325 53.4199L483.553 53.8652ZM490.479 49.084L490.827 49.4422C492.681 47.6364 494.059 45.5723 494.953 43.2521L494.486 43.0723L494.02 42.8925C493.18 45.0722 491.885 47.016 490.13 48.7258L490.479 49.084ZM494.486 43.0723L494.952 43.2542C495.858 40.9349 496.305 38.2695 496.305 35.2676H495.805H495.305C495.305 38.1719 494.872 40.7096 494.021 42.8903L494.486 43.0723ZM495.805 35.2676H496.305V34.2129H495.805H495.305V35.2676H495.805ZM495.805 34.2129V34.7129H501.324V34.2129V33.7129H495.805V34.2129ZM498.635 38.7832V38.2832H485.557V38.7832V39.2832H498.635V38.7832ZM485.557 38.7832H486.057V34.2129H485.557H485.057V38.7832H485.557ZM485.557 34.2129V34.7129H498.635V34.2129V33.7129H485.557V34.2129ZM498.635 34.2129H498.135V38.7832H498.635H499.135V34.2129H498.635ZM542.949 63.4805V63.9805H543.449V63.4805H542.949ZM537.219 63.4805H536.719V63.9805H537.219V63.4805ZM537.219 30.9609V30.4609H536.719V30.9609H537.219ZM542.949 30.9609H543.449V30.4609H542.949V30.9609ZM533.141 34.3008L533.641 34.3024L533.642 33.8008H533.141V34.3008ZM531.84 44.0742L531.361 43.9309L531.36 43.9327L531.84 44.0742ZM527.27 51.9668L526.901 51.6289L526.901 51.6289L527.27 51.9668ZM518.182 58.2773L517.763 58.5501L518 58.915L518.394 58.7299L518.182 58.2773ZM515.264 53.7949L515.05 53.3431L514.532 53.5881L514.845 54.0677L515.264 53.7949ZM527.533 34.3008V33.8008H527.033V34.3008H527.533ZM530.223 38.6777V39.1777H530.723V38.6777H530.223ZM517.145 38.6777H516.645V39.1777H517.145V38.6777ZM517.145 34.3008V33.8008H516.645V34.3008H517.145ZM530.223 34.3008H530.723V33.8008H530.223V34.3008ZM542.949 63.4805V62.9805H537.219V63.4805V63.9805H542.949V63.4805ZM537.219 63.4805H537.719V30.9609H537.219H536.719V63.4805H537.219ZM537.219 30.9609V31.4609H542.949V30.9609V30.4609H537.219V30.9609ZM542.949 30.9609H542.449V63.4805H542.949H543.449V30.9609H542.949ZM533.141 34.3008L532.641 34.2992C532.629 37.9178 532.2 41.1265 531.361 43.9309L531.84 44.0742L532.319 44.2175C533.191 41.3032 533.629 37.9963 533.641 34.3024L533.141 34.3008ZM531.84 44.0742L531.36 43.9327C530.54 46.7124 529.058 49.2773 526.901 51.6289L527.27 51.9668L527.638 52.3047C529.888 49.8516 531.452 47.1548 532.319 44.2157L531.84 44.0742ZM527.27 51.9668L526.901 51.6289C524.765 53.9589 521.795 56.0277 517.969 57.8248L518.182 58.2773L518.394 58.7299C522.303 56.8941 525.391 54.7559 527.638 52.3047L527.27 51.9668ZM518.182 58.2773L518.601 58.0046L515.683 53.5221L515.264 53.7949L514.845 54.0677L517.763 58.5501L518.182 58.2773ZM515.264 53.7949L515.478 54.2468C518.627 52.7551 521.127 51.1212 522.96 49.3368L522.611 48.9785L522.263 48.6203C520.533 50.3045 518.135 51.8816 515.05 53.3431L515.264 53.7949ZM522.611 48.9785L522.96 49.3368C524.793 47.5522 526.104 45.5295 526.881 43.2701L526.408 43.1074L525.935 42.9447C525.213 45.0447 523.992 46.9361 522.263 48.6203L522.611 48.9785ZM526.408 43.1074L526.881 43.2701C527.654 41.0248 528.033 38.3714 528.033 35.3203H527.533H527.033C527.033 38.2927 526.663 40.8307 525.935 42.9447L526.408 43.1074ZM527.533 35.3203H528.033V34.3008H527.533H527.033V35.3203H527.533ZM527.533 34.3008V34.8008H533.141V34.3008V33.8008H527.533V34.3008ZM530.223 38.6777V38.1777H517.145V38.6777V39.1777H530.223V38.6777ZM517.145 38.6777H517.645V34.3008H517.145H516.645V38.6777H517.145ZM517.145 34.3008V34.8008H530.223V34.3008V33.8008H517.145V34.3008ZM530.223 34.3008H529.723V38.6777H530.223H530.723V34.3008H530.223Z" fill="white" mask="url(#path-3-outside-1_498_8)"/>
</g>
<defs>
<clipPath id="clip0_498_8">
<rect width="966" height="94" fill="white"/>
</clipPath>
</defs>
</svg>
