<svg width="972" height="102" viewBox="0 0 972 102" fill="none" xmlns="http://www.w3.org/2000/svg">
<g clip-path="url(#clip0_498_4)">
<path d="M966.854 6.94175C962.623 2.8169 961.745 5.82261 955.884 5.82261C950.022 5.82261 950.022 5.53483 944.161 5.53483C938.299 5.53483 938.299 7.99695 932.438 7.99695C926.576 7.99695 926.576 6.71792 920.714 6.71792C914.853 6.71792 914.853 4.92729 908.991 4.92729C903.13 4.92729 903.13 5.50285 897.268 5.50285C891.407 5.50285 891.407 6.94175 885.545 6.94175C879.684 6.94175 879.684 6.65397 873.822 6.65397C867.961 6.65397 867.961 4.38371 862.099 4.38371C856.237 4.38371 856.237 5.5668 850.376 5.5668C844.514 5.5668 844.514 7.933 838.653 7.933C832.791 7.933 832.791 4.99124 826.93 4.99124C821.068 4.99124 821.068 4.70346 815.206 4.70346C809.345 4.70346 809.345 4.03197 803.483 4.03197C797.622 4.03197 797.622 7.16558 791.76 7.16558C785.899 7.16558 785.899 6.97373 780.037 6.97373C774.176 6.97373 774.176 6.20631 768.314 6.20631C762.453 6.20631 762.453 4.2558 756.591 4.2558C750.73 4.2558 750.729 6.11039 744.868 6.11039C739.006 6.11039 739.006 7.67719 733.145 7.67719C727.283 7.67719 727.283 4.41568 721.422 4.41568C715.56 4.41568 715.56 5.47088 709.699 5.47088C703.837 5.47088 703.837 8.0609 697.976 8.0609C692.114 8.0609 692.114 5.72668 686.253 5.72668C680.391 5.72668 680.391 4.03197 674.529 4.03197C668.668 4.03197 668.668 6.20631 662.806 6.20631C656.945 6.20631 656.945 8.0609 651.083 8.0609C645.222 8.0609 645.222 6.81385 639.36 6.81385C633.499 6.81385 633.499 7.26151 627.637 7.26151C621.775 7.26151 621.775 5.311 615.914 5.311C610.052 5.311 610.052 5.24705 604.191 5.24705C598.329 5.24705 598.329 8.02892 592.468 8.02892C586.606 8.02892 586.606 7.54929 580.745 7.54929C574.883 7.54929 574.883 5.02322 569.021 5.02322C563.16 5.02322 563.16 5.34297 557.267 5.34297C551.374 5.34297 551.406 6.07841 545.544 6.07841C539.682 6.07841 539.682 7.99695 533.821 7.99695C527.959 7.99695 527.959 5.95051 522.098 5.95051C516.236 5.95051 516.236 4.92729 510.375 4.92729C504.513 4.92729 504.513 7.96497 498.652 7.96497C492.79 7.96497 492.79 6.01446 486.928 6.01446C481.067 6.01446 481.067 6.46212 475.205 6.46212C469.344 6.46212 469.344 5.27902 463.451 5.27902C457.558 5.27902 457.589 6.49409 451.728 6.49409C445.866 6.49409 445.866 6.17434 440.005 6.17434C434.143 6.17434 434.143 4.47963 428.282 4.47963C422.42 4.47963 422.42 4.70346 416.559 4.70346C410.697 4.70346 410.697 4.83136 404.804 4.83136C398.911 4.83136 398.943 6.78187 393.05 6.78187C387.157 6.78187 387.188 6.39817 381.327 6.39817C375.465 6.39817 375.465 5.02322 369.604 5.02322C363.742 5.02322 363.742 6.39817 357.88 6.39817C352.019 6.39817 352.019 5.59878 346.126 5.59878C340.233 5.59878 340.264 6.81385 334.403 6.81385C328.541 6.81385 328.541 6.59002 322.68 6.59002C316.818 6.59002 316.818 7.29348 310.925 7.29348C305.032 7.29348 305.064 8.12485 299.171 8.12485C293.278 8.12485 293.309 7.19756 287.416 7.19756C281.524 7.19756 281.555 5.72668 275.662 5.72668C269.769 5.72668 269.8 5.47088 263.908 5.47088C258.015 5.47088 258.046 7.51731 252.153 7.51731C246.26 7.51731 246.292 8.15682 240.399 8.15682C234.506 8.15682 234.537 7.48534 228.644 7.48534C222.751 7.48534 222.783 8.12485 216.89 8.12485C210.997 8.12485 211.028 4.47963 205.135 4.47963C199.242 4.47963 199.274 4.60753 193.381 4.60753C187.488 4.60753 187.519 4.15988 181.626 4.15988C175.734 4.15988 175.765 5.311 169.872 5.311C163.979 5.311 164.01 6.52607 158.149 6.52607C152.287 6.52607 152.287 7.86904 146.394 7.86904C140.502 7.86904 140.533 4.41568 134.64 4.41568C128.747 4.41568 128.778 6.01446 122.886 6.01446C116.993 6.01446 117.024 7.0057 111.131 7.0057C105.238 7.0057 105.27 5.27902 99.3767 5.27902C93.4838 5.27902 93.5152 8.12485 87.6223 8.12485C81.7294 8.12485 81.7607 6.27027 75.8678 6.27027C69.9749 6.27027 70.0063 6.27027 64.1134 6.27027C58.2205 6.27027 58.2518 4 52.3589 4C46.4661 4 46.4974 7.54929 40.6045 7.54929C34.7116 7.54929 34.7116 7.32546 28.8501 7.32546C22.9885 7.32546 22.9572 7.61324 17.0643 7.61324C11.1714 7.61324 9.63547 2.36924 5.37252 6.49409C1.10958 10.6189 6.97113 11.834 6.97113 17.5576C6.97113 23.2813 3.77392 23.2493 3.77392 28.9729C3.77392 34.6966 6.87709 34.6646 6.87709 40.3882C6.87709 46.1118 3.96199 46.0799 3.96199 51.8035C3.96199 57.5271 3.14701 57.4952 3.14701 63.2188C3.14701 68.9424 5.37252 68.9104 5.37252 74.6341C5.37252 80.3577 3.80526 80.3577 3.80526 86.0813C3.80526 91.805 1.23496 93.2758 5.27848 97.2408C9.32201 101.206 10.8893 97.4327 16.7508 97.4327C22.6124 97.4327 22.6124 99.4155 28.4739 99.4155C34.3355 99.4155 34.3355 97.8164 40.197 97.8164C46.0586 97.8164 46.0586 95.5461 51.9201 95.5461C57.7817 95.5461 57.7817 97.2408 63.6432 97.2408C69.5048 97.2408 69.5048 98.3919 75.3663 98.3919C81.2279 98.3919 81.2279 96.7292 87.0894 96.7292C92.951 96.7292 92.951 98.1681 98.8125 98.1681C104.674 98.1681 104.674 97.7204 110.536 97.7204C116.397 97.7204 116.397 99.2555 122.259 99.2555C128.12 99.2555 128.12 97.3048 133.982 97.3048C139.843 97.3048 139.843 95.738 145.705 95.738C151.566 95.738 151.566 95.8019 157.428 95.8019C163.29 95.8019 163.29 96.1217 169.151 96.1217C175.013 96.1217 175.013 95.7699 180.874 95.7699C186.736 95.7699 186.736 98.6797 192.597 98.6797C198.459 98.6797 198.459 99.5115 204.32 99.5115C210.182 99.5115 210.182 98.4878 216.043 98.4878C221.905 98.4878 221.905 95.8019 227.767 95.8019C233.628 95.8019 233.628 97.9443 239.49 97.9443C245.351 97.9443 245.351 96.6972 251.213 96.6972C257.074 96.6972 257.074 98.1361 262.936 98.1361C268.797 98.1361 268.797 99.0634 274.659 99.0634C280.521 99.0634 280.521 97.5286 286.382 97.5286C292.244 97.5286 292.244 96.6333 298.105 96.6333C303.967 96.6333 303.967 98.0082 309.828 98.0082C315.69 98.0082 315.69 95.5141 321.551 95.5141C327.413 95.5141 327.413 97.3367 333.274 97.3367C339.136 97.3367 339.136 96.3455 344.998 96.3455C350.859 96.3455 350.859 98.5518 356.721 98.5518C362.582 98.5518 362.582 95.9298 368.444 95.9298C374.305 95.9298 374.305 98.7437 380.167 98.7437C386.028 98.7437 386.028 97.2088 391.89 97.2088C397.751 97.2088 397.751 99.1593 403.613 99.1593C409.475 99.1593 409.475 97.2728 415.367 97.2728C421.26 97.2728 421.229 96.4414 427.091 96.4414C432.952 96.4414 432.952 95.7699 438.814 95.7699C444.675 95.7699 444.675 98.8076 450.537 98.8076C456.398 98.8076 456.398 99.0634 462.26 99.0634C468.121 99.0634 468.121 98.9035 473.983 98.9035C479.844 98.9035 479.844 98.264 485.706 98.264C491.568 98.264 491.568 99.2233 497.429 99.2233C503.291 99.2233 503.291 96.2496 509.184 96.2496C515.076 96.2496 515.045 98.8076 520.907 98.8076C526.768 98.8076 526.768 99.2555 532.63 99.2555C538.491 99.2555 538.491 98.296 544.353 98.296C550.214 98.296 550.214 98.296 556.076 98.296C561.938 98.296 561.938 99.4475 567.83 99.4475C573.723 99.4475 573.692 95.61 579.585 95.61C585.478 95.61 585.446 98.6158 591.308 98.6158C597.169 98.6158 597.169 95.8659 603.031 95.8659C608.893 95.8659 608.893 97.4327 614.754 97.4327C620.616 97.4327 620.616 97.3687 626.509 97.3687C632.401 97.3687 632.37 97.3687 638.232 97.3687C644.093 97.3687 644.093 96.953 649.955 96.953C655.816 96.953 655.816 97.3367 661.709 97.3367C667.602 97.3367 667.571 95.674 673.464 95.674C679.357 95.674 679.325 99.5115 685.218 99.5115C691.111 99.5115 691.08 98.36 696.973 98.36C702.865 98.36 702.834 97.2728 708.727 97.2728C714.62 97.2728 714.589 98.7756 720.481 98.7756C726.374 98.7756 726.343 99.6065 732.236 99.6065C738.129 99.6065 738.097 98.3919 743.99 98.3919C749.883 98.3919 749.852 96.0897 755.745 96.0897C761.638 96.0897 761.606 98.5518 767.499 98.5518C773.392 98.5518 773.361 99.1274 779.254 99.1274C785.147 99.1274 785.115 96.1217 791.008 96.1217C796.901 96.1217 796.87 98.232 802.762 98.232C808.655 98.232 808.624 99.1913 814.486 99.1913C820.347 99.1913 820.347 96.6652 826.24 96.6652C832.133 96.6652 832.102 98.7756 837.995 98.7756C843.887 98.7756 843.856 95.5141 849.749 95.5141C855.642 95.5141 855.611 96.1856 861.503 96.1856C867.396 96.1856 867.365 95.9298 873.258 95.9298C879.151 95.9298 879.119 99.5755 885.012 99.5755C890.905 99.5755 890.874 99.5755 896.767 99.5755C902.66 99.5755 902.628 99.5115 908.521 99.5115C914.414 99.5115 914.383 99.5115 920.276 99.5115C926.169 99.5115 926.137 98.296 932.03 98.296C937.923 98.296 937.923 97.6245 943.784 97.6245C949.646 97.6245 949.677 97.0809 955.57 97.0809C961.463 97.0809 963.908 102.677 968.171 98.5198C972.434 94.363 967.481 91.9009 967.481 86.2092C967.481 80.5176 968.798 80.5176 968.798 74.7939C968.798 69.0703 969.049 69.1023 969.049 63.3787C969.049 57.655 966.165 57.687 966.165 51.9634C966.165 46.2397 966.51 46.2717 966.51 40.5481C966.51 34.8245 968.829 34.8564 968.829 29.1328C968.829 23.4092 966.165 23.2813 967.199 17.6855C968.234 12.0898 970.647 11.0346 966.572 7.06965L966.854 6.94175Z" fill="#F4BC1B"/>
<path d="M966.854 6.94175C962.623 2.8169 961.745 5.82261 955.884 5.82261C950.022 5.82261 950.022 5.53483 944.161 5.53483C938.299 5.53483 938.299 7.99695 932.438 7.99695C926.576 7.99695 926.576 6.71792 920.714 6.71792C914.853 6.71792 914.853 4.92729 908.991 4.92729C903.13 4.92729 903.13 5.50285 897.268 5.50285C891.407 5.50285 891.407 6.94175 885.545 6.94175C879.684 6.94175 879.684 6.65397 873.822 6.65397C867.961 6.65397 867.961 4.38371 862.099 4.38371C856.237 4.38371 856.237 5.5668 850.376 5.5668C844.514 5.5668 844.514 7.933 838.653 7.933C832.791 7.933 832.791 4.99124 826.93 4.99124C821.068 4.99124 821.068 4.70346 815.206 4.70346C809.345 4.70346 809.345 4.03198 803.483 4.03198C797.622 4.03198 797.622 7.16558 791.76 7.16558C785.899 7.16558 785.899 6.97373 780.037 6.97373C774.176 6.97373 774.176 6.20632 768.314 6.20632C762.453 6.20632 762.453 4.2558 756.591 4.2558C750.73 4.2558 750.729 6.11039 744.868 6.11039C739.006 6.11039 739.006 7.67719 733.145 7.67719C727.283 7.67719 727.283 4.41568 721.422 4.41568C715.56 4.41568 715.56 5.47088 709.699 5.47088C703.837 5.47088 703.837 8.0609 697.976 8.0609C692.114 8.0609 692.114 5.72668 686.253 5.72668C680.391 5.72668 680.391 4.03198 674.529 4.03198C668.668 4.03198 668.668 6.20632 662.806 6.20632C656.945 6.20632 656.945 8.0609 651.083 8.0609C645.222 8.0609 645.222 6.81385 639.36 6.81385C633.499 6.81385 633.499 7.26151 627.637 7.26151C621.775 7.26151 621.775 5.311 615.914 5.311C610.052 5.311 610.052 5.24705 604.191 5.24705C598.329 5.24705 598.329 8.02892 592.468 8.02892C586.606 8.02892 586.606 7.54929 580.745 7.54929C574.883 7.54929 574.883 5.02322 569.021 5.02322C563.16 5.02322 563.16 5.34297 557.267 5.34297C551.374 5.34297 551.406 6.07841 545.544 6.07841C539.682 6.07841 539.682 7.99695 533.821 7.99695C527.959 7.99695 527.959 5.95051 522.098 5.95051C516.236 5.95051 516.236 4.92729 510.375 4.92729C504.513 4.92729 504.513 7.96497 498.652 7.96497C492.79 7.96497 492.79 6.01446 486.928 6.01446C481.067 6.01446 481.067 6.46212 475.205 6.46212C469.344 6.46212 469.344 5.27902 463.451 5.27902C457.558 5.27902 457.589 6.4941 451.728 6.4941C445.866 6.4941 445.866 6.17434 440.005 6.17434C434.143 6.17434 434.143 4.47963 428.282 4.47963C422.42 4.47963 422.42 4.70346 416.559 4.70346C410.697 4.70346 410.697 4.83137 404.804 4.83137C398.911 4.83137 398.943 6.78188 393.05 6.78188C387.157 6.78188 387.188 6.39817 381.327 6.39817C375.465 6.39817 375.465 5.02322 369.604 5.02322C363.742 5.02322 363.742 6.39817 357.88 6.39817C352.019 6.39817 352.019 5.59878 346.126 5.59878C340.233 5.59878 340.264 6.81385 334.403 6.81385C328.541 6.81385 328.541 6.59002 322.68 6.59002C316.818 6.59002 316.818 7.29349 310.925 7.29349C305.032 7.29349 305.064 8.12485 299.171 8.12485C293.278 8.12485 293.309 7.19756 287.416 7.19756C281.524 7.19756 281.555 5.72668 275.662 5.72668C269.769 5.72668 269.8 5.47088 263.908 5.47088C258.015 5.47088 258.046 7.51731 252.153 7.51731C246.26 7.51731 246.292 8.15683 240.399 8.15683C234.506 8.15683 234.537 7.48534 228.644 7.48534C222.751 7.48534 222.783 8.12485 216.89 8.12485C210.997 8.12485 211.028 4.47963 205.135 4.47963C199.242 4.47963 199.274 4.60754 193.381 4.60754C187.488 4.60754 187.519 4.15988 181.626 4.15988C175.734 4.15988 175.765 5.311 169.872 5.311C163.979 5.311 164.01 6.52607 158.149 6.52607C152.287 6.52607 152.287 7.86905 146.394 7.86905C140.502 7.86905 140.533 4.41568 134.64 4.41568C128.747 4.41568 128.778 6.01446 122.886 6.01446C116.993 6.01446 117.024 7.00571 111.131 7.00571C105.238 7.00571 105.27 5.27902 99.3767 5.27902C93.4838 5.27902 93.5152 8.12485 87.6223 8.12485C81.7294 8.12485 81.7607 6.27027 75.8678 6.27027C69.9749 6.27027 70.0063 6.27027 64.1134 6.27027C58.2205 6.27027 58.2518 4 52.3589 4C46.4661 4 46.4974 7.54929 40.6045 7.54929C34.7116 7.54929 34.7116 7.32546 28.8501 7.32546C22.9885 7.32546 22.9572 7.61324 17.0643 7.61324C11.1714 7.61324 9.63547 2.36924 5.37252 6.4941C1.10958 10.6189 6.97113 11.834 6.97113 17.5577C6.97113 23.2813 3.77392 23.2493 3.77392 28.973C3.77392 34.6966 6.87709 34.6646 6.87709 40.3883C6.87709 46.1119 3.96199 46.0799 3.96199 51.8035C3.96199 57.5272 3.14701 57.4952 3.14701 63.2188C3.14701 68.9425 5.37252 68.9105 5.37252 74.6341C5.37252 80.3577 3.80526 80.3577 3.80526 86.0814C3.80526 91.805 1.23496 93.2759 5.27848 97.2408C9.32201 101.206 10.8893 97.4327 16.7508 97.4327C22.6124 97.4327 22.6124 99.4152 28.4739 99.4152C34.3355 99.4152 34.3355 97.8164 40.197 97.8164C46.0586 97.8164 46.0586 95.5461 51.9201 95.5461C57.7817 95.5461 57.7817 97.2408 63.6432 97.2408C69.5048 97.2408 69.5048 98.392 75.3663 98.392C81.2279 98.392 81.2279 96.7292 87.0894 96.7292C92.951 96.7292 92.951 98.1681 98.8125 98.1681C104.674 98.1681 104.674 97.7205 110.536 97.7205C116.397 97.7205 116.397 99.2553 122.259 99.2553C128.12 99.2553 128.12 97.3048 133.982 97.3048C139.843 97.3048 139.843 95.738 145.705 95.738C151.566 95.738 151.566 95.8019 157.428 95.8019C163.29 95.8019 163.29 96.1217 169.151 96.1217C175.013 96.1217 175.013 95.77 180.874 95.77C186.736 95.77 186.736 98.6797 192.597 98.6797C198.459 98.6797 198.459 99.5111 204.32 99.5111C210.182 99.5111 210.182 98.4879 216.043 98.4879C221.905 98.4879 221.905 95.8019 227.767 95.8019C233.628 95.8019 233.628 97.9443 239.49 97.9443C245.351 97.9443 245.351 96.6973 251.213 96.6973C257.074 96.6973 257.074 98.1362 262.936 98.1362C268.797 98.1362 268.797 99.0635 274.659 99.0635C280.521 99.0635 280.521 97.5286 286.382 97.5286C292.244 97.5286 292.244 96.6333 298.105 96.6333C303.967 96.6333 303.967 98.0083 309.828 98.0083C315.69 98.0083 315.69 95.5142 321.551 95.5142C327.413 95.5142 327.413 97.3368 333.274 97.3368C339.136 97.3368 339.136 96.3455 344.998 96.3455C350.859 96.3455 350.859 98.5518 356.721 98.5518C362.582 98.5518 362.582 95.9298 368.444 95.9298C374.305 95.9298 374.305 98.7437 380.167 98.7437C386.028 98.7437 386.028 97.2089 391.89 97.2089C397.751 97.2089 397.751 99.1594 403.613 99.1594C409.475 99.1594 409.475 97.2728 415.367 97.2728C421.26 97.2728 421.229 96.4415 427.091 96.4415C432.952 96.4415 432.952 95.77 438.814 95.77C444.675 95.77 444.675 98.8076 450.537 98.8076C456.398 98.8076 456.398 99.0635 462.26 99.0635C468.121 99.0635 468.121 98.9036 473.983 98.9036C479.844 98.9036 479.844 98.2641 485.706 98.2641C491.568 98.2641 491.568 99.2233 497.429 99.2233C503.291 99.2233 503.291 96.2496 509.184 96.2496C515.076 96.2496 515.045 98.8076 520.907 98.8076C526.768 98.8076 526.768 99.2553 532.63 99.2553C538.491 99.2553 538.491 98.296 544.353 98.296C550.214 98.296 550.214 98.296 556.076 98.296C561.938 98.296 561.938 99.4472 567.83 99.4472C573.723 99.4472 573.692 95.6101 579.585 95.6101C585.478 95.6101 585.446 98.6158 591.308 98.6158C597.169 98.6158 597.169 95.8659 603.031 95.8659C608.893 95.8659 608.893 97.4327 614.754 97.4327C620.616 97.4327 620.616 97.3687 626.509 97.3687C632.401 97.3687 632.37 97.3687 638.232 97.3687C644.093 97.3687 644.093 96.9531 649.955 96.9531C655.816 96.9531 655.816 97.3368 661.709 97.3368C667.602 97.3368 667.571 95.674 673.464 95.674C679.357 95.674 679.325 99.5111 685.218 99.5111C691.111 99.5111 691.08 98.36 696.973 98.36C702.865 98.36 702.834 97.2728 708.727 97.2728C714.62 97.2728 714.589 98.7757 720.481 98.7757C726.374 98.7757 726.343 99.607 732.236 99.607C738.129 99.607 738.097 98.392 743.99 98.392C749.883 98.392 749.852 96.0897 755.745 96.0897C761.638 96.0897 761.606 98.5518 767.499 98.5518C773.392 98.5518 773.361 99.1274 779.254 99.1274C785.147 99.1274 785.115 96.1217 791.008 96.1217C796.901 96.1217 796.87 98.2321 802.762 98.2321C808.655 98.2321 808.624 99.1914 814.486 99.1914C820.347 99.1914 820.347 96.6653 826.24 96.6653C832.133 96.6653 832.102 98.7757 837.995 98.7757C843.887 98.7757 843.856 95.5142 849.749 95.5142C855.642 95.5142 855.611 96.1857 861.503 96.1857C867.396 96.1857 867.365 95.9298 873.258 95.9298C879.151 95.9298 879.119 99.5751 885.012 99.5751C890.905 99.5751 890.874 99.5751 896.767 99.5751C902.66 99.5751 902.628 99.5111 908.521 99.5111C914.414 99.5111 914.383 99.5111 920.276 99.5111C926.169 99.5111 926.137 98.296 932.03 98.296C937.923 98.296 937.923 97.6245 943.784 97.6245C949.646 97.6245 949.677 97.081 955.57 97.081C961.463 97.081 963.908 102.677 968.171 98.5199C972.434 94.363 967.481 91.9009 967.481 86.2093C967.481 80.5176 968.798 80.5176 968.798 74.794C968.798 69.0703 969.049 69.1023 969.049 63.3787C969.049 57.6551 966.165 57.687 966.165 51.9634C966.165 46.2398 966.51 46.2718 966.51 40.5481C966.51 34.8245 968.829 34.8565 968.829 29.1328C968.829 23.4092 966.165 23.2813 967.199 17.6856C968.234 12.0899 970.647 11.0346 966.572 7.06966L966.854 6.94175Z" fill="#F4BC1B" stroke="#231815" stroke-width="5" stroke-miterlimit="10"/>
<path d="M449.957 67.4805H444.297V34.9609H449.957V67.4805ZM454.369 51.3789H448.727V46.7383H454.369V51.3789ZM430.48 44.9277H435.473V37.4746H441.098V60.1504H424.838V37.4746H430.48V44.9277ZM435.473 55.6152V49.2695H430.48V55.6152H435.473ZM484.832 64.1406H455.16V59.5703H484.832V64.1406ZM472.721 61.4512H467.166V53.9453H472.721V61.4512ZM481.615 48.2676H464.002V53.1719H458.377V43.9258H476.043V41.3945H458.342V36.9121H481.615V48.2676ZM482.389 55.4219H458.377V50.8691H482.389V55.4219ZM512.184 67.4102H506.523V34.9609H512.184V67.4102ZM516.35 51.5723H510.707V46.9668H516.35V51.5723ZM503.324 38.2129C503.312 41.7402 502.85 44.957 501.936 47.8633C501.033 50.7695 499.504 53.4355 497.348 55.8613C495.191 58.2754 492.314 60.3672 488.717 62.1367L485.553 57.8652C488.377 56.4238 490.686 54.8301 492.479 53.084C494.283 51.3262 495.619 49.3223 496.486 47.0723C497.365 44.8223 497.805 42.2207 497.805 39.2676V38.2129H503.324ZM500.635 42.7832H487.557V38.2129H500.635V42.7832ZM544.949 67.4805H539.219V34.9609H544.949V67.4805ZM535.141 38.3008C535.129 41.957 534.695 45.2148 533.84 48.0742C532.996 50.9336 531.473 53.5645 529.27 55.9668C527.078 58.3574 524.049 60.4609 520.182 62.2773L517.264 57.7949C520.381 56.3184 522.83 54.7129 524.611 52.9785C526.393 51.2441 527.658 49.2871 528.408 47.1074C529.158 44.9277 529.533 42.332 529.533 39.3203V38.3008H535.141ZM532.223 42.6777H519.145V38.3008H532.223V42.6777Z" fill="black"/>
</g>
<defs>
<clipPath id="clip0_498_4">
<rect width="972" height="102" fill="white"/>
</clipPath>
</defs>
</svg>
