<svg width="686" height="70" viewBox="0 0 686 70" fill="none" xmlns="http://www.w3.org/2000/svg">
<g clip-path="url(#clip0_18_230)">
<path d="M681.668 4.06468C678.684 1.2304 678.066 3.29569 673.933 3.29569C669.8 3.29569 669.8 3.09795 665.667 3.09795C661.534 3.09795 661.534 4.78973 657.401 4.78973C653.268 4.78973 653.268 3.91088 649.135 3.91088C645.002 3.91088 645.002 2.6805 640.869 2.6805C636.736 2.6805 636.736 3.07598 632.603 3.07598C628.47 3.07598 628.47 4.06468 624.337 4.06468C620.205 4.06468 620.205 3.86694 616.072 3.86694C611.939 3.86694 611.939 2.30699 607.806 2.30699C603.673 2.30699 603.673 3.11992 599.54 3.11992C595.407 3.11992 595.407 4.74578 591.274 4.74578C587.141 4.74578 587.141 2.72444 583.008 2.72444C578.875 2.72444 578.875 2.5267 574.742 2.5267C570.609 2.5267 570.609 2.06531 566.477 2.06531C562.344 2.06531 562.344 4.21848 558.211 4.21848C554.078 4.21848 554.078 4.08665 549.945 4.08665C545.812 4.08665 545.812 3.55934 541.679 3.55934C537.546 3.55934 537.546 2.2191 533.413 2.2191C529.28 2.2191 529.28 3.49343 525.147 3.49343C521.014 3.49343 521.014 4.57001 516.881 4.57001C512.748 4.57001 512.748 2.32896 508.616 2.32896C504.483 2.32896 504.483 3.05401 500.35 3.05401C496.217 3.05401 496.217 4.83367 492.084 4.83367C487.951 4.83367 487.951 3.22978 483.818 3.22978C479.685 3.22978 479.685 2.06531 475.552 2.06531C471.419 2.06531 471.419 3.55934 467.286 3.55934C463.153 3.55934 463.153 4.83367 459.02 4.83367C454.887 4.83367 454.887 3.97679 450.754 3.97679C446.622 3.97679 446.622 4.28439 442.489 4.28439C438.356 4.28439 438.356 2.94415 434.223 2.94415C430.09 2.94415 430.09 2.90021 425.957 2.90021C421.824 2.90021 421.824 4.8117 417.691 4.8117C413.558 4.8117 413.558 4.48213 409.425 4.48213C405.292 4.48213 405.292 2.74641 401.159 2.74641C397.026 2.74641 397.026 2.96612 392.871 2.96612C388.716 2.96612 388.738 3.47146 384.606 3.47146C380.473 3.47146 380.473 4.78973 376.34 4.78973C372.207 4.78973 372.207 3.38357 368.074 3.38357C363.941 3.38357 363.941 2.6805 359.808 2.6805C355.675 2.6805 355.675 4.76775 351.542 4.76775C347.409 4.76775 347.409 3.42752 343.276 3.42752C339.143 3.42752 339.143 3.73511 335.01 3.73511C330.877 3.73511 330.877 2.92218 326.722 2.92218C322.567 2.92218 322.589 3.75708 318.457 3.75708C314.324 3.75708 314.324 3.53737 310.191 3.53737C306.058 3.53737 306.058 2.3729 301.925 2.3729C297.792 2.3729 297.792 2.5267 293.659 2.5267C289.526 2.5267 289.526 2.61458 285.371 2.61458C281.216 2.61458 281.238 3.95482 277.083 3.95482C272.928 3.95482 272.95 3.69117 268.817 3.69117C264.684 3.69117 264.684 2.74641 260.551 2.74641C256.418 2.74641 256.418 3.69117 252.285 3.69117C248.153 3.69117 248.153 3.14189 243.998 3.14189C239.842 3.14189 239.865 3.97679 235.732 3.97679C231.599 3.97679 231.599 3.823 227.466 3.823C223.333 3.823 223.333 4.30636 219.178 4.30636C215.023 4.30636 215.045 4.87761 210.89 4.87761C206.735 4.87761 206.757 4.24045 202.602 4.24045C198.447 4.24045 198.469 3.22978 194.314 3.22978C190.159 3.22978 190.181 3.05401 186.026 3.05401C181.871 3.05401 181.893 4.46016 177.738 4.46016C173.583 4.46016 173.605 4.89958 169.45 4.89958C165.295 4.89958 165.317 4.43819 161.162 4.43819C157.007 4.43819 157.029 4.87761 152.874 4.87761C148.719 4.87761 148.741 2.3729 144.586 2.3729C140.431 2.3729 140.453 2.46079 136.298 2.46079C132.143 2.46079 132.165 2.15319 128.01 2.15319C123.855 2.15319 123.877 2.94415 119.722 2.94415C115.567 2.94415 115.589 3.77905 111.456 3.77905C107.324 3.77905 107.324 4.70184 103.169 4.70184C99.0135 4.70184 99.0356 2.32896 94.8806 2.32896C90.7255 2.32896 90.7476 3.42752 86.5926 3.42752C82.4376 3.42752 82.4597 4.10862 78.3046 4.10862C74.1496 4.10862 74.1717 2.92218 70.0167 2.92218C65.8616 2.92218 65.8838 4.87761 61.7287 4.87761C57.5737 4.87761 57.5958 3.60328 53.4408 3.60328C49.2857 3.60328 49.3078 3.60328 45.1528 3.60328C40.9978 3.60328 41.0199 2.04333 36.8648 2.04333C32.7098 2.04333 32.7319 4.48213 28.5769 4.48213C24.4218 4.48213 24.4218 4.32833 20.2889 4.32833C16.156 4.32833 16.1339 4.52607 11.9789 4.52607C7.82383 4.52607 6.74087 0.922808 3.7351 3.75708C0.729334 6.59136 4.86226 7.42626 4.86226 11.3591C4.86226 15.2919 2.60794 15.27 2.60794 19.2028C2.60794 23.1356 4.79596 23.1136 4.79596 27.0465C4.79596 30.9793 2.74055 30.9573 2.74055 34.8902C2.74055 38.823 2.16591 38.801 2.16591 42.7339C2.16591 46.6667 3.7351 46.6447 3.7351 50.5775C3.7351 54.5104 2.63004 54.5104 2.63004 58.4432C2.63004 62.376 0.817739 63.3867 3.6688 66.1111C6.51985 68.8355 7.62492 66.243 11.7578 66.243C15.8908 66.243 15.8908 67.6052 20.0237 67.6052C24.1566 67.6052 24.1566 66.5066 28.2896 66.5066C32.4225 66.5066 32.4225 64.9467 36.5554 64.9467C40.6884 64.9467 40.6884 66.1111 44.8213 66.1111C48.9542 66.1111 48.9542 66.9021 53.0871 66.9021C57.2201 66.9021 57.2201 65.7596 61.353 65.7596C65.4859 65.7596 65.4859 66.7483 69.6189 66.7483C73.7518 66.7483 73.7518 66.4407 77.8847 66.4407C82.0176 66.4407 82.0176 67.4953 86.1506 67.4953C90.2835 67.4953 90.2835 66.1551 94.4164 66.1551C98.5494 66.1551 98.5494 65.0785 102.682 65.0785C106.815 65.0785 106.815 65.1224 110.948 65.1224C115.081 65.1224 115.081 65.3421 119.214 65.3421C123.347 65.3421 123.347 65.1005 127.48 65.1005C131.613 65.1005 131.613 67.0998 135.746 67.0998C139.879 67.0998 139.879 67.6711 144.012 67.6711C148.145 67.6711 148.145 66.968 152.277 66.968C156.41 66.968 156.41 65.1224 160.543 65.1224C164.676 65.1224 164.676 66.5945 168.809 66.5945C172.942 66.5945 172.942 65.7376 177.075 65.7376C181.208 65.7376 181.208 66.7263 185.341 66.7263C189.474 66.7263 189.474 67.3635 193.607 67.3635C197.74 67.3635 197.74 66.3089 201.873 66.3089C206.006 66.3089 206.006 65.6937 210.138 65.6937C214.271 65.6937 214.271 66.6384 218.404 66.6384C222.537 66.6384 222.537 64.9247 226.67 64.9247C230.803 64.9247 230.803 66.177 234.936 66.177C239.069 66.177 239.069 65.4959 243.202 65.4959C247.335 65.4959 247.335 67.0119 251.468 67.0119C255.601 67.0119 255.601 65.2103 259.734 65.2103C263.867 65.2103 263.867 67.1438 267.999 67.1438C272.132 67.1438 272.132 66.0892 276.265 66.0892C280.398 66.0892 280.398 67.4294 284.531 67.4294C288.664 67.4294 288.664 66.1331 292.819 66.1331C296.974 66.1331 296.952 65.5619 301.085 65.5619C305.218 65.5619 305.218 65.1005 309.351 65.1005C313.484 65.1005 313.484 67.1877 317.617 67.1877C321.75 67.1877 321.75 67.3635 325.883 67.3635C330.015 67.3635 330.016 67.2536 334.148 67.2536C338.281 67.2536 338.281 66.8142 342.414 66.8142C346.547 66.8142 346.547 67.4733 350.68 67.4733C354.813 67.4733 354.813 65.43 358.968 65.43C363.123 65.43 363.101 67.1877 367.234 67.1877C371.367 67.1877 371.367 67.4953 375.5 67.4953C379.633 67.4953 379.633 66.8362 383.766 66.8362C387.899 66.8362 387.899 66.8362 392.032 66.8362C396.164 66.8362 396.164 67.6271 400.319 67.6271C404.475 67.6271 404.452 64.9906 408.607 64.9906C412.762 64.9906 412.74 67.0559 416.873 67.0559C421.006 67.0559 421.006 65.1664 425.139 65.1664C429.272 65.1664 429.272 66.243 433.405 66.243C437.538 66.243 437.538 66.199 441.693 66.199C445.848 66.199 445.826 66.199 449.959 66.199C454.092 66.199 454.092 65.9134 458.225 65.9134C462.358 65.9134 462.358 66.177 466.513 66.177C470.668 66.177 470.646 65.0345 474.801 65.0345C478.956 65.0345 478.934 67.6711 483.089 67.6711C487.244 67.6711 487.221 66.8801 491.377 66.8801C495.532 66.8801 495.509 66.1331 499.664 66.1331C503.82 66.1331 503.797 67.1657 507.952 67.1657C512.107 67.1657 512.085 67.737 516.24 67.737C520.395 67.737 520.373 66.9021 524.528 66.9021C528.683 66.9021 528.661 65.3202 532.816 65.3202C536.971 65.3202 536.949 67.0119 541.104 67.0119C545.259 67.0119 545.237 67.4074 549.392 67.4074C553.547 67.4074 553.525 65.3421 557.68 65.3421C561.835 65.3421 561.813 66.7922 565.968 66.7922C570.123 66.7922 570.101 67.4514 574.234 67.4514C578.367 67.4514 578.367 65.7156 582.522 65.7156C586.677 65.7156 586.655 67.1657 590.81 67.1657C594.965 67.1657 594.943 64.9247 599.098 64.9247C603.253 64.9247 603.231 65.3861 607.386 65.3861C611.541 65.3861 611.519 65.2103 615.674 65.2103C619.829 65.2103 619.807 67.715 623.962 67.715C628.117 67.715 628.095 67.715 632.25 67.715C636.405 67.715 636.383 67.6711 640.538 67.6711C644.693 67.6711 644.671 67.6711 648.826 67.6711C652.981 67.6711 652.959 66.8362 657.114 66.8362C661.269 66.8362 661.269 66.3748 665.402 66.3748C669.535 66.3748 669.557 66.0013 673.712 66.0013C677.867 66.0013 679.591 69.8462 682.596 66.99C685.602 64.1337 682.11 62.442 682.11 58.5311C682.11 54.6202 683.038 54.6202 683.038 50.6874C683.038 46.7546 683.215 46.7765 683.215 42.8437C683.215 38.9109 681.182 38.9328 681.182 35C681.182 31.0672 681.425 31.0892 681.425 27.1563C681.425 23.2235 683.06 23.2455 683.06 19.3126C683.06 15.3798 681.182 15.2919 681.911 11.447C682.641 7.60203 684.342 6.87698 681.469 4.15256L681.668 4.06468Z" fill="white"/>
<path d="M681.668 4.06468C678.684 1.2304 678.066 3.29569 673.933 3.29569C669.8 3.29569 669.8 3.09795 665.667 3.09795C661.534 3.09795 661.534 4.78973 657.401 4.78973C653.268 4.78973 653.268 3.91088 649.135 3.91088C645.002 3.91088 645.002 2.6805 640.869 2.6805C636.736 2.6805 636.736 3.07598 632.603 3.07598C628.47 3.07598 628.47 4.06468 624.337 4.06468C620.205 4.06468 620.205 3.86694 616.072 3.86694C611.939 3.86694 611.939 2.30699 607.806 2.30699C603.673 2.30699 603.673 3.11992 599.54 3.11992C595.407 3.11992 595.407 4.74578 591.274 4.74578C587.141 4.74578 587.141 2.72444 583.008 2.72444C578.875 2.72444 578.875 2.5267 574.742 2.5267C570.609 2.5267 570.609 2.06531 566.476 2.06531C562.344 2.06531 562.344 4.21848 558.211 4.21848C554.078 4.21848 554.078 4.08665 549.945 4.08665C545.812 4.08665 545.812 3.55934 541.679 3.55934C537.546 3.55934 537.546 2.2191 533.413 2.2191C529.28 2.2191 529.28 3.49343 525.147 3.49343C521.014 3.49343 521.014 4.57001 516.881 4.57001C512.748 4.57001 512.748 2.32896 508.615 2.32896C504.483 2.32896 504.483 3.05401 500.35 3.05401C496.217 3.05401 496.217 4.83367 492.084 4.83367C487.951 4.83367 487.951 3.22978 483.818 3.22978C479.685 3.22978 479.685 2.06531 475.552 2.06531C471.419 2.06531 471.419 3.55934 467.286 3.55934C463.153 3.55934 463.153 4.83367 459.02 4.83367C454.887 4.83367 454.887 3.97679 450.754 3.97679C446.622 3.97679 446.622 4.28439 442.489 4.28439C438.356 4.28439 438.356 2.94415 434.223 2.94415C430.09 2.94415 430.09 2.90021 425.957 2.90021C421.824 2.90021 421.824 4.8117 417.691 4.8117C413.558 4.8117 413.558 4.48213 409.425 4.48213C405.292 4.48213 405.292 2.74641 401.159 2.74641C397.026 2.74641 397.026 2.96612 392.871 2.96612C388.716 2.96612 388.738 3.47146 384.606 3.47146C380.473 3.47146 380.473 4.78973 376.34 4.78973C372.207 4.78973 372.207 3.38357 368.074 3.38357C363.941 3.38357 363.941 2.6805 359.808 2.6805C355.675 2.6805 355.675 4.76775 351.542 4.76775C347.409 4.76775 347.409 3.42752 343.276 3.42752C339.143 3.42752 339.143 3.73511 335.01 3.73511C330.877 3.73511 330.877 2.92218 326.722 2.92218C322.567 2.92218 322.589 3.75708 318.457 3.75708C314.324 3.75708 314.324 3.53737 310.191 3.53737C306.058 3.53737 306.058 2.3729 301.925 2.3729C297.792 2.3729 297.792 2.5267 293.659 2.5267C289.526 2.5267 289.526 2.61458 285.371 2.61458C281.216 2.61458 281.238 3.95482 277.083 3.95482C272.928 3.95482 272.95 3.69117 268.817 3.69117C264.684 3.69117 264.684 2.74641 260.551 2.74641C256.418 2.74641 256.418 3.69117 252.285 3.69117C248.153 3.69117 248.153 3.14189 243.998 3.14189C239.843 3.14189 239.865 3.97679 235.732 3.97679C231.599 3.97679 231.599 3.823 227.466 3.823C223.333 3.823 223.333 4.30636 219.178 4.30636C215.023 4.30636 215.045 4.87761 210.89 4.87761C206.735 4.87761 206.757 4.24045 202.602 4.24045C198.447 4.24045 198.469 3.22978 194.314 3.22978C190.159 3.22978 190.181 3.05401 186.026 3.05401C181.871 3.05401 181.893 4.46016 177.738 4.46016C173.583 4.46016 173.605 4.89958 169.45 4.89958C165.295 4.89958 165.317 4.43819 161.162 4.43819C157.007 4.43819 157.029 4.87761 152.874 4.87761C148.719 4.87761 148.741 2.3729 144.586 2.3729C140.431 2.3729 140.453 2.46079 136.298 2.46079C132.143 2.46079 132.165 2.15319 128.01 2.15319C123.855 2.15319 123.877 2.94415 119.722 2.94415C115.567 2.94415 115.589 3.77905 111.456 3.77905C107.324 3.77905 107.324 4.70184 103.169 4.70184C99.0135 4.70184 99.0356 2.32896 94.8806 2.32896C90.7255 2.32896 90.7476 3.42752 86.5926 3.42752C82.4376 3.42752 82.4597 4.10862 78.3046 4.10862C74.1496 4.10862 74.1717 2.92218 70.0167 2.92218C65.8616 2.92218 65.8838 4.87761 61.7287 4.87761C57.5737 4.87761 57.5958 3.60328 53.4408 3.60328C49.2857 3.60328 49.3078 3.60328 45.1528 3.60328C40.9978 3.60328 41.0199 2.04333 36.8648 2.04333C32.7098 2.04333 32.7319 4.48213 28.5769 4.48213C24.4218 4.48213 24.4218 4.32833 20.2889 4.32833C16.156 4.32833 16.1339 4.52607 11.9789 4.52607C7.82383 4.52607 6.74087 0.922808 3.7351 3.75708C0.729334 6.59136 4.86226 7.42626 4.86226 11.3591C4.86226 15.2919 2.60794 15.27 2.60794 19.2028C2.60794 23.1356 4.79596 23.1136 4.79596 27.0465C4.79596 30.9793 2.74055 30.9573 2.74055 34.8902C2.74055 38.823 2.16591 38.801 2.16591 42.7339C2.16591 46.6667 3.7351 46.6447 3.7351 50.5775C3.7351 54.5104 2.63004 54.5104 2.63004 58.4432C2.63004 62.376 0.817739 63.3867 3.6688 66.1111C6.51985 68.8355 7.62492 66.243 11.7578 66.243C15.8908 66.243 15.8908 67.6052 20.0237 67.6052C24.1566 67.6052 24.1566 66.5066 28.2896 66.5066C32.4225 66.5066 32.4225 64.9467 36.5554 64.9467C40.6884 64.9467 40.6884 66.1111 44.8213 66.1111C48.9542 66.1111 48.9542 66.9021 53.0871 66.9021C57.2201 66.9021 57.2201 65.7596 61.353 65.7596C65.4859 65.7596 65.4859 66.7483 69.6189 66.7483C73.7518 66.7483 73.7518 66.4407 77.8847 66.4407C82.0176 66.4407 82.0176 67.4953 86.1506 67.4953C90.2835 67.4953 90.2835 66.1551 94.4164 66.1551C98.5494 66.1551 98.5494 65.0785 102.682 65.0785C106.815 65.0785 106.815 65.1224 110.948 65.1224C115.081 65.1224 115.081 65.3421 119.214 65.3421C123.347 65.3421 123.347 65.1005 127.48 65.1005C131.613 65.1005 131.613 67.0998 135.746 67.0998C139.879 67.0998 139.879 67.6711 144.012 67.6711C148.145 67.6711 148.145 66.968 152.277 66.968C156.41 66.968 156.41 65.1224 160.543 65.1224C164.676 65.1224 164.676 66.5945 168.809 66.5945C172.942 66.5945 172.942 65.7376 177.075 65.7376C181.208 65.7376 181.208 66.7263 185.341 66.7263C189.474 66.7263 189.474 67.3635 193.607 67.3635C197.74 67.3635 197.74 66.3089 201.873 66.3089C206.006 66.3089 206.006 65.6937 210.138 65.6937C214.271 65.6937 214.271 66.6384 218.404 66.6384C222.537 66.6384 222.537 64.9247 226.67 64.9247C230.803 64.9247 230.803 66.177 234.936 66.177C239.069 66.177 239.069 65.4959 243.202 65.4959C247.335 65.4959 247.335 67.0119 251.468 67.0119C255.601 67.0119 255.601 65.2103 259.734 65.2103C263.867 65.2103 263.867 67.1438 267.999 67.1438C272.132 67.1438 272.132 66.0892 276.265 66.0892C280.398 66.0892 280.398 67.4294 284.531 67.4294C288.664 67.4294 288.664 66.1331 292.819 66.1331C296.974 66.1331 296.952 65.5619 301.085 65.5619C305.218 65.5619 305.218 65.1005 309.351 65.1005C313.484 65.1005 313.484 67.1877 317.617 67.1877C321.75 67.1877 321.75 67.3635 325.883 67.3635C330.015 67.3635 330.015 67.2536 334.148 67.2536C338.281 67.2536 338.281 66.8142 342.414 66.8142C346.547 66.8142 346.547 67.4733 350.68 67.4733C354.813 67.4733 354.813 65.43 358.968 65.43C363.123 65.43 363.101 67.1877 367.234 67.1877C371.367 67.1877 371.367 67.4953 375.5 67.4953C379.633 67.4953 379.633 66.8362 383.766 66.8362C387.899 66.8362 387.899 66.8362 392.032 66.8362C396.164 66.8362 396.164 67.6271 400.319 67.6271C404.475 67.6271 404.452 64.9906 408.607 64.9906C412.762 64.9906 412.74 67.0559 416.873 67.0559C421.006 67.0559 421.006 65.1664 425.139 65.1664C429.272 65.1664 429.272 66.243 433.405 66.243C437.538 66.243 437.538 66.199 441.693 66.199C445.848 66.199 445.826 66.199 449.959 66.199C454.092 66.199 454.092 65.9134 458.225 65.9134C462.358 65.9134 462.358 66.177 466.513 66.177C470.668 66.177 470.646 65.0345 474.801 65.0345C478.956 65.0345 478.934 67.6711 483.089 67.6711C487.244 67.6711 487.222 66.8801 491.377 66.8801C495.532 66.8801 495.509 66.1331 499.664 66.1331C503.82 66.1331 503.797 67.1657 507.952 67.1657C512.107 67.1657 512.085 67.737 516.24 67.737C520.395 67.737 520.373 66.9021 524.528 66.9021C528.683 66.9021 528.661 65.3202 532.816 65.3202C536.971 65.3202 536.949 67.0119 541.104 67.0119C545.259 67.0119 545.237 67.4074 549.392 67.4074C553.547 67.4074 553.525 65.3421 557.68 65.3421C561.835 65.3421 561.813 66.7922 565.968 66.7922C570.123 66.7922 570.101 67.4514 574.234 67.4514C578.367 67.4514 578.367 65.7156 582.522 65.7156C586.677 65.7156 586.655 67.1657 590.81 67.1657C594.965 67.1657 594.943 64.9247 599.098 64.9247C603.253 64.9247 603.231 65.3861 607.386 65.3861C611.541 65.3861 611.519 65.2103 615.674 65.2103C619.829 65.2103 619.807 67.715 623.962 67.715C628.117 67.715 628.095 67.715 632.25 67.715C636.405 67.715 636.383 67.6711 640.538 67.6711C644.693 67.6711 644.671 67.6711 648.826 67.6711C652.981 67.6711 652.959 66.8362 657.114 66.8362C661.269 66.8362 661.269 66.3748 665.402 66.3748C669.535 66.3748 669.557 66.0013 673.712 66.0013C677.867 66.0013 679.591 69.8462 682.596 66.99C685.602 64.1337 682.11 62.442 682.11 58.5311C682.11 54.6202 683.038 54.6202 683.038 50.6874C683.038 46.7546 683.215 46.7765 683.215 42.8437C683.215 38.9109 681.182 38.9329 681.182 35C681.182 31.0672 681.425 31.0892 681.425 27.1563C681.425 23.2235 683.06 23.2455 683.06 19.3126C683.06 15.3798 681.182 15.2919 681.911 11.447C682.641 7.60203 684.342 6.87698 681.469 4.15256L681.668 4.06468Z" stroke="#231815" stroke-width="4" stroke-miterlimit="10"/>
<path d="M44.4014 46.0514C44.5782 45.2605 44.8434 44.5135 45.1749 43.8543C45.5285 43.1952 45.9485 42.558 46.4789 41.9648C47.0093 41.3716 47.6282 40.7784 48.3796 40.1852L51.5401 37.6145C51.9821 37.263 52.3578 36.9115 52.6893 36.5599C53.0209 36.2084 53.3082 35.8349 53.5292 35.4174C53.7502 35 53.927 34.5825 54.0375 34.1431C54.148 33.7037 54.2143 33.1764 54.2143 32.6051C54.2143 32.1218 54.148 31.6823 54.0375 31.2649C53.9049 30.8474 53.706 30.4959 53.4408 30.1883C53.1756 29.8807 52.7999 29.661 52.3799 29.4852C51.9379 29.3094 51.4075 29.2216 50.8107 29.2216C50.214 29.2216 49.6836 29.3094 49.2416 29.4852C48.7995 29.661 48.4238 29.9466 48.1365 30.3421C47.8492 30.7376 47.6282 31.2429 47.4956 31.8581C47.3629 32.4733 47.2745 33.2203 47.2524 34.1211H44.1583C44.1583 32.9567 44.313 31.924 44.5782 31.0012C44.8434 30.0784 45.2412 29.3095 45.7717 28.6723C46.3021 28.0351 46.9872 27.5518 47.8271 27.2002C48.6669 26.8707 49.6615 26.6949 50.8107 26.6949C51.96 26.6949 52.9988 26.8487 53.8386 27.1783C54.6564 27.5078 55.3415 27.9472 55.8498 28.4965C56.3581 29.0458 56.7339 29.683 56.9549 30.408C57.198 31.1331 57.3085 31.8801 57.3085 32.693C57.3085 33.5059 57.2422 34.187 57.0875 34.8022C56.9328 35.4174 56.6897 36.0106 56.336 36.5599C55.9824 37.1092 55.5183 37.6804 54.8995 38.2737C54.2806 38.8669 53.5513 39.5041 52.6451 40.2511L50.3466 42.0966C50.0372 42.3383 49.7499 42.58 49.4626 42.8217C49.1752 43.0853 48.8879 43.371 48.6448 43.7005C48.4017 44.0301 48.1586 44.4036 47.9376 44.8211C47.7387 45.2385 47.5619 45.7219 47.4293 46.2712H57.6621V48.7978H44.1362C44.1804 47.7872 44.2688 46.8863 44.4456 46.0734L44.4014 46.0514Z" fill="#040000"/>
<path d="M67.3866 49.0175C66.4142 49.0175 65.5301 48.9077 64.7345 48.666C63.9388 48.4243 63.2316 48.0508 62.657 47.5235C62.0823 46.9962 61.6403 46.3151 61.3088 45.4582C60.9994 44.6014 60.8226 43.5687 60.8226 42.3383V33.3741C60.8226 32.1657 60.9773 31.1331 61.3088 30.2762C61.6182 29.4193 62.0823 28.7382 62.657 28.2109C63.2316 27.6836 63.9167 27.3101 64.7345 27.0684C65.5301 26.8267 66.4142 26.7169 67.3866 26.7169C68.3591 26.7169 69.2431 26.8487 70.0388 27.0684C70.8344 27.3101 71.5196 27.6836 72.0942 28.2109C72.6688 28.7382 73.1109 29.4193 73.4203 30.2762C73.7297 31.1331 73.9065 32.1657 73.9065 33.3741V42.3383C73.9065 43.5687 73.7518 44.6014 73.4203 45.4582C73.1109 46.3151 72.6688 46.9962 72.0942 47.5235C71.5196 48.0508 70.8344 48.4243 70.0388 48.666C69.2431 48.9077 68.3591 49.0175 67.3866 49.0175ZM67.3866 46.4909C68.6464 46.4909 69.5305 46.1393 70.0388 45.4363C70.5471 44.7332 70.8123 43.6786 70.8123 42.2724V33.3961C70.8123 31.9899 70.5471 30.9353 70.0388 30.2322C69.5305 29.5292 68.6464 29.1776 67.3866 29.1776C66.1269 29.1776 65.2428 29.5292 64.7345 30.2322C64.2262 30.9353 63.9609 31.9899 63.9609 33.3961V42.2724C63.9609 43.6786 64.2262 44.7332 64.7345 45.4363C65.2428 46.1393 66.1269 46.4909 67.3866 46.4909Z" fill="#040000"/>
<path d="M77.4869 46.0514C77.6637 45.2605 77.9289 44.5135 78.2604 43.8543C78.6141 43.1952 79.034 42.558 79.5644 41.9648C80.0948 41.3716 80.7137 40.7784 81.4651 40.1852L84.6256 37.6145C85.0676 37.263 85.4433 36.9115 85.7749 36.5599C86.1064 36.2084 86.3937 35.8349 86.6147 35.4174C86.8357 35 87.0125 34.5825 87.123 34.1431C87.2335 33.7037 87.2998 33.1764 87.2998 32.6051C87.2998 32.1218 87.2335 31.6823 87.123 31.2649C86.9904 30.8474 86.7915 30.4959 86.5263 30.1883C86.2611 29.8807 85.8854 29.661 85.4654 29.4852C85.0234 29.3094 84.493 29.2216 83.8963 29.2216C83.2995 29.2216 82.7691 29.3094 82.3271 29.4852C81.885 29.661 81.5093 29.9466 81.222 30.3421C80.9347 30.7376 80.7137 31.2429 80.5811 31.8581C80.4485 32.4733 80.3601 33.2203 80.338 34.1211H77.2438C77.2438 32.9567 77.3985 31.924 77.6637 31.0012C77.9289 30.0784 78.3267 29.3095 78.8572 28.6723C79.3876 28.0351 80.0727 27.5518 80.9126 27.2002C81.7524 26.8707 82.747 26.6949 83.8963 26.6949C85.0455 26.6949 86.0843 26.8487 86.9241 27.1783C87.7419 27.5078 88.427 27.9472 88.9353 28.4965C89.4437 29.0458 89.8194 29.683 90.0404 30.408C90.2835 31.1331 90.394 31.8801 90.394 32.693C90.394 33.5059 90.3277 34.187 90.173 34.8022C90.0183 35.4174 89.7752 36.0106 89.4216 36.5599C89.0679 37.1092 88.6038 37.6804 87.985 38.2737C87.3661 38.8669 86.6368 39.5041 85.7307 40.2511L83.4321 42.0966C83.1227 42.3383 82.8354 42.58 82.5481 42.8217C82.2608 43.0853 81.9734 43.371 81.7303 43.7005C81.4872 44.0301 81.2441 44.4036 81.0231 44.8211C80.8242 45.2385 80.6474 45.7219 80.5148 46.2712H90.7476V48.7978H77.2217C77.2659 47.7872 77.3543 46.8863 77.5311 46.0734L77.4869 46.0514Z" fill="#040000"/>
<path d="M98.9914 34.3189C99.6103 34.1431 100.229 34.0552 100.804 34.0552C101.754 34.0552 102.616 34.209 103.412 34.4947C104.207 34.7803 104.87 35.2417 105.445 35.8569C106.02 36.4721 106.462 37.263 106.771 38.2297C107.08 39.1965 107.235 40.339 107.235 41.6792C107.235 42.6679 107.103 43.5907 106.837 44.4915C106.572 45.3704 106.152 46.1613 105.578 46.8424C105.003 47.5235 104.296 48.0508 103.412 48.4463C102.55 48.8418 101.511 49.0395 100.295 49.0395C99.4556 49.0395 98.6599 48.9077 97.8864 48.666C97.1128 48.4243 96.4277 48.0289 95.8089 47.4796C95.19 46.9303 94.7038 46.2272 94.306 45.3704C93.9082 44.5135 93.6872 43.4589 93.6208 42.2285H96.715C96.8476 43.7225 97.2013 44.7991 97.7759 45.4582C98.3505 46.1174 99.2346 46.4469 100.428 46.4469C101.688 46.4469 102.638 46.0295 103.235 45.1946C103.832 44.3597 104.141 43.1073 104.141 41.4595C104.141 40.7784 104.075 40.1412 103.942 39.57C103.81 38.9987 103.589 38.4934 103.323 38.054C103.036 37.6365 102.682 37.307 102.218 37.0653C101.776 36.8236 101.224 36.7137 100.605 36.7137C98.9914 36.7137 97.8422 37.3729 97.2012 38.6911H94.1734V27.0025H106.506V29.5951H97.2897V35.2197C97.798 34.8462 98.3726 34.5606 99.0135 34.3628L98.9914 34.3189Z" fill="#040000"/>
<path d="M125.469 46.2053V36.4941H128.585V46.2053H139.923V48.732H117.181V46.2053H125.469ZM118.971 28.936V26.4532H138.177V41.9209H135.083V28.936H118.971Z" fill="#040000"/>
<path d="M142.023 32.0778V29.5951H155.526V32.0778H142.023ZM142.973 36.7357C142.973 35.5712 143.437 34.6485 144.365 33.9674C145.293 33.2862 146.752 32.9567 148.763 32.9567C150.775 32.9567 152.255 33.2862 153.184 33.9454C154.112 34.6045 154.576 35.5493 154.576 36.7357C154.576 37.9222 154.112 38.8669 153.184 39.526C152.255 40.1852 150.775 40.5147 148.763 40.5147C146.752 40.5147 145.293 40.1852 144.365 39.4821C143.437 38.801 142.973 37.8782 142.973 36.7137V36.7357ZM148.189 49.2153C146.421 49.2153 145.117 48.9077 144.277 48.3145C143.437 47.7213 143.017 46.6886 143.017 45.2825C143.017 43.8763 143.437 42.8876 144.277 42.2944C145.117 41.7012 146.421 41.4156 148.189 41.4156H156.83C158.598 41.4156 159.902 41.7012 160.742 42.2944C161.582 42.8876 162.002 43.8763 162.002 45.2825C162.002 46.6886 161.582 47.6993 160.742 48.3145C159.902 48.9297 158.598 49.2153 156.83 49.2153H148.189ZM144.785 28.6723V26.1896H152.764V28.6723H144.785ZM151.526 36.7357C151.526 36.538 151.482 36.3622 151.393 36.2084C151.305 36.0546 151.172 35.9008 150.951 35.791C150.753 35.6591 150.465 35.5712 150.112 35.5053C149.758 35.4394 149.316 35.3955 148.763 35.3955C147.725 35.3955 147.017 35.5273 146.62 35.769C146.222 36.0107 146.023 36.3402 146.023 36.7137C146.023 37.0872 146.222 37.4388 146.62 37.7024C147.017 37.9661 147.725 38.0979 148.763 38.0979C149.316 38.0979 149.758 38.054 150.112 37.9881C150.465 37.9222 150.753 37.8343 150.951 37.7024C151.15 37.5706 151.305 37.4388 151.393 37.285C151.482 37.1312 151.526 36.9554 151.526 36.7577V36.7357ZM146.045 45.2825C146.045 45.7878 146.2 46.1613 146.531 46.381C146.863 46.6227 147.504 46.7326 148.498 46.7326H156.543C157.538 46.7326 158.179 46.6227 158.51 46.381C158.842 46.1394 158.996 45.7658 158.996 45.2825C158.996 44.7991 158.842 44.4256 158.51 44.2059C158.179 43.9862 157.538 43.8763 156.543 43.8763H148.498C147.504 43.8763 146.863 43.9862 146.531 44.2059C146.2 44.4256 146.045 44.7771 146.045 45.2825ZM165.096 31.9021H161.538V34.6265H165.096V37.1532H161.538V40.4488H158.444V26.1456H161.538V29.4193H165.096V31.946V31.9021Z" fill="#040000"/>
<path d="M179.064 48.688C177.937 47.941 176.898 47.0402 175.904 45.9636C174.909 44.909 174.091 43.7225 173.45 42.4262C172.787 43.7445 171.925 44.9529 170.887 46.0954C169.848 47.2379 168.765 48.1827 167.594 48.9297L165.759 46.8864C167.682 45.6999 169.185 44.2279 170.268 42.5141C171.351 40.8004 171.881 38.8889 171.881 36.7797V26.3214H175.02V36.7797C175.02 38.9328 175.528 40.8223 176.523 42.4482C177.517 44.0521 178.976 45.4582 180.899 46.6667L179.064 48.71V48.688ZM189.651 37.7244H186.092V49.2153H182.998V26.1237H186.092V35.1977H189.651V37.7464V37.7244Z" fill="#040000"/>
<path d="M191.64 38.5593V31.2649H201.077V29.0019H191.596V26.4532H204.215V33.8135H194.756V36.0766H205.564V38.5593H191.64ZM197.32 49.2153C195.552 49.2153 194.248 48.8638 193.408 48.1387C192.568 47.4137 192.148 46.2931 192.148 44.7771C192.148 43.2611 192.568 42.1626 193.408 41.4595C194.248 40.7564 195.552 40.4049 197.32 40.4049H205.961C207.729 40.4049 209.033 40.7564 209.873 41.4595C210.713 42.1626 211.133 43.2611 211.133 44.7771C211.133 46.2931 210.713 47.4137 209.873 48.1387C209.033 48.8638 207.729 49.2153 205.961 49.2153H197.32ZM195.176 44.7771C195.176 45.3704 195.353 45.8537 195.728 46.2053C196.104 46.5568 196.789 46.7326 197.828 46.7326H205.475C206.492 46.7326 207.199 46.5568 207.575 46.2053C207.95 45.8537 208.149 45.3704 208.149 44.7771C208.149 44.1839 207.95 43.7225 207.575 43.371C207.199 43.0414 206.492 42.8657 205.475 42.8657H197.828C196.789 42.8657 196.082 43.0414 195.728 43.371C195.353 43.7006 195.176 44.1619 195.176 44.7771ZM214.227 33.484H210.669V39.2844H207.575V26.1017H210.669V30.9573H214.227V33.484Z" fill="#040000"/>
<path d="M223.731 38.4275V26.4313H226.825V30.1663H233.212V26.4313H236.306V38.4275H223.753H223.731ZM229.411 49.2153C227.643 49.2153 226.339 48.8638 225.499 48.1387C224.659 47.4137 224.239 46.2931 224.239 44.7771C224.239 43.2611 224.659 42.1626 225.499 41.4595C226.339 40.7564 227.643 40.4049 229.411 40.4049H238.052C239.82 40.4049 241.124 40.7564 241.964 41.4595C242.804 42.1626 243.224 43.2611 243.224 44.7771C243.224 46.2931 242.804 47.4137 241.964 48.1387C241.124 48.8638 239.82 49.2153 238.052 49.2153H229.411ZM226.803 32.693V35.9667H233.19V32.693H226.803ZM227.267 44.7771C227.267 45.3704 227.444 45.8537 227.819 46.2053C228.195 46.5568 228.88 46.7326 229.919 46.7326H237.566C238.583 46.7326 239.29 46.5568 239.666 46.2053C240.041 45.8537 240.24 45.3704 240.24 44.7771C240.24 44.1839 240.041 43.7225 239.666 43.371C239.29 43.0414 238.583 42.8657 237.566 42.8657H229.919C228.88 42.8657 228.173 43.0414 227.819 43.371C227.444 43.7006 227.267 44.1619 227.267 44.7771ZM246.318 33.484H242.76V39.2844H239.666V26.1017H242.76V30.9573H246.318V33.484Z" fill="#040000"/>
<path d="M247.534 40.339V37.8123H270.254V40.339H260.419V44.2059H257.302V40.339H247.534ZM252.286 41.9649V46.7106H268.928V49.2373H249.169V41.9868H252.286V41.9649ZM268.552 26.4313V35.747H249.302V26.4313H268.552ZM252.396 33.2643H265.436V28.958H252.396V33.2643Z" fill="#040000"/>
<path d="M289.747 48.1168C288.465 48.2486 287.095 48.3584 285.614 48.4683C284.133 48.5781 282.675 48.6441 281.172 48.71C279.669 48.7759 278.166 48.8198 276.685 48.8418C275.204 48.8857 273.79 48.8857 272.464 48.8857L272.066 46.403C273.37 46.403 274.762 46.3591 276.243 46.3371C277.724 46.2931 279.205 46.2712 280.708 46.2053C282.211 46.1613 283.691 46.0954 285.172 46.0075C286.653 45.9196 288.023 45.8318 289.327 45.6999L289.725 48.1168H289.747ZM287.426 35.5053C287.426 37.7244 286.852 39.3283 285.725 40.3609C284.597 41.3936 282.896 41.8989 280.663 41.8989C278.431 41.8989 276.729 41.3936 275.58 40.3609C274.431 39.3283 273.856 37.7024 273.856 35.5053V32.5832C273.856 30.3641 274.431 28.7602 275.58 27.7275C276.729 26.6949 278.409 26.1896 280.663 26.1896C282.918 26.1896 284.597 26.6949 285.725 27.7275C286.852 28.7602 287.426 30.3861 287.426 32.5832V35.5053ZM284.31 32.4953C284.31 31.7702 284.222 31.177 284.045 30.6937C283.868 30.2103 283.625 29.8148 283.294 29.5292C282.962 29.2436 282.586 29.0238 282.144 28.914C281.702 28.7822 281.194 28.7382 280.663 28.7382C280.133 28.7382 279.603 28.8041 279.161 28.914C278.719 29.0238 278.321 29.2436 277.989 29.5292C277.658 29.8148 277.415 30.2103 277.238 30.6937C277.061 31.177 276.973 31.7922 276.973 32.4953V35.6152C276.973 36.3402 277.061 36.9554 277.238 37.4388C277.415 37.9222 277.658 38.3176 277.989 38.6033C278.321 38.8889 278.696 39.1086 279.161 39.2184C279.625 39.3283 280.111 39.3942 280.663 39.3942C281.216 39.3942 281.702 39.3283 282.144 39.2184C282.586 39.0866 282.962 38.8889 283.294 38.6033C283.625 38.3176 283.868 37.9222 284.045 37.4388C284.222 36.9554 284.31 36.3402 284.31 35.6152V32.4953ZM290.565 26.1237H293.659V49.2153H290.565V26.1237Z" fill="#040000"/>
<path d="M304.555 32.8688V30.3201H316.578V32.8688H304.555ZM315.849 42.7338C315.849 43.7225 315.76 44.6233 315.606 45.3923C315.451 46.1613 315.164 46.8424 314.744 47.3697C314.346 47.919 313.793 48.3145 313.108 48.6001C312.423 48.8857 311.561 49.0176 310.544 49.0176C309.528 49.0176 308.644 48.8857 307.981 48.6001C307.295 48.3365 306.765 47.919 306.367 47.3697C305.969 46.8205 305.682 46.1613 305.505 45.3923C305.328 44.6233 305.262 43.7225 305.262 42.7338V40.4708C305.262 39.4821 305.351 38.5813 305.505 37.8123C305.66 37.0433 305.947 36.3622 306.367 35.8349C306.765 35.2856 307.318 34.8901 307.981 34.6045C308.666 34.3409 309.506 34.1871 310.544 34.1871C311.583 34.1871 312.423 34.3189 313.108 34.6045C313.793 34.8682 314.346 35.2856 314.744 35.8349C315.141 36.3842 315.429 37.0433 315.606 37.8123C315.782 38.5813 315.849 39.4821 315.849 40.4708V42.7338ZM307.052 28.7382V26.1896H314.036V28.7382H307.052ZM312.821 40.4708C312.821 39.8556 312.777 39.3063 312.732 38.8449C312.666 38.3835 312.556 37.9881 312.379 37.7024C312.202 37.4168 311.981 37.1751 311.694 37.0213C311.406 36.8675 311.031 36.8016 310.589 36.8016C309.66 36.8016 309.064 37.1092 308.754 37.7024C308.445 38.2957 308.312 39.2184 308.312 40.4708V42.7338C308.312 43.9862 308.467 44.909 308.754 45.5022C309.064 46.0954 309.66 46.403 310.589 46.403C311.031 46.403 311.406 46.3371 311.694 46.1833C311.981 46.0295 312.224 45.8098 312.379 45.5022C312.533 45.1946 312.666 44.8211 312.732 44.3597C312.799 43.8983 312.821 43.349 312.821 42.7338V40.4708ZM323.23 26.1237H326.258V49.2153H323.23V37.7244H320.777V48.8857H317.771V26.2994H320.777V35.1977H323.23V26.1017V26.1237Z" fill="#040000"/>
<path d="M396.651 40.4708V49.3252H393.557V42.9755H376.892V40.4928H385.313V37.9222H375.5V35.3955H393.402V28.936H377.29V26.4532H396.496V35.3955H398.22V37.9222H388.407V40.4928H396.629L396.651 40.4708Z" fill="#040000"/>
<path d="M413.647 26.4313V38.6692H401.093V26.4313H413.647ZM405.204 40.9102V46.4469H422.001V48.9736H402.088V40.9322H405.204V40.9102ZM404.187 36.2084H410.575V28.914H404.187V36.2084ZM418.553 26.1237H421.647V43.327H418.553V26.1237Z" fill="#040000"/>
<path d="M432.963 46.2053V36.4941H436.079V46.2053H447.417V48.732H424.675V46.2053H432.963ZM426.443 28.936V26.4532H445.649V41.9209H442.555V28.936H426.443Z" fill="#040000"/>
<path d="M449.495 32.0778V29.5951H462.999V32.0778H449.495ZM450.467 36.7357C450.467 35.5712 450.931 34.6485 451.86 33.9674C452.788 33.2862 454.247 32.9567 456.258 32.9567C458.269 32.9567 459.75 33.2862 460.678 33.9454C461.606 34.6045 462.07 35.5493 462.07 36.7357C462.07 37.9222 461.606 38.8669 460.678 39.526C459.75 40.1852 458.269 40.5147 456.258 40.5147C454.247 40.5147 452.788 40.1852 451.86 39.4821C450.931 38.801 450.467 37.8782 450.467 36.7137V36.7357ZM455.661 49.2153C453.893 49.2153 452.589 48.9077 451.749 48.3145C450.909 47.7213 450.489 46.6886 450.489 45.2825C450.489 43.8763 450.909 42.8876 451.749 42.2944C452.589 41.7012 453.893 41.4156 455.661 41.4156H464.303C466.071 41.4156 467.375 41.7012 468.215 42.2944C469.054 42.8876 469.474 43.8763 469.474 45.2825C469.474 46.6886 469.054 47.6993 468.215 48.3145C467.375 48.9297 466.071 49.2153 464.303 49.2153H455.661ZM452.257 28.6723V26.1896H460.236V28.6723H452.257ZM458.998 36.7357C458.998 36.538 458.954 36.3622 458.866 36.2084C458.777 36.0546 458.645 35.9008 458.424 35.791C458.225 35.6591 457.937 35.5712 457.584 35.5053C457.23 35.4394 456.788 35.3955 456.236 35.3955C455.197 35.3955 454.49 35.5273 454.092 35.769C453.694 36.0107 453.495 36.3402 453.495 36.7137C453.495 37.0872 453.694 37.4388 454.092 37.7024C454.49 37.9661 455.197 38.0979 456.236 38.0979C456.788 38.0979 457.23 38.054 457.584 37.9881C457.937 37.9222 458.225 37.8343 458.424 37.7024C458.623 37.5706 458.777 37.4388 458.866 37.285C458.954 37.1312 458.998 36.9554 458.998 36.7577V36.7357ZM453.517 45.2825C453.517 45.7878 453.672 46.1613 454.003 46.381C454.335 46.6227 454.976 46.7326 455.97 46.7326H464.015C465.01 46.7326 465.651 46.6227 465.982 46.381C466.314 46.1394 466.469 45.7658 466.469 45.2825C466.469 44.7991 466.314 44.4256 465.982 44.2059C465.651 43.9862 465.01 43.8763 464.015 43.8763H455.97C454.976 43.8763 454.335 43.9862 454.003 44.2059C453.672 44.4256 453.517 44.7771 453.517 45.2825ZM472.568 31.9021H469.01V34.6265H472.568V37.1532H469.01V40.4488H465.916V26.1456H469.01V29.4193H472.568V31.946V31.9021Z" fill="#040000"/>
<path d="M478.624 50.182C478.492 50.6434 478.293 51.0389 477.983 51.4124C477.674 51.7639 477.298 52.0715 476.812 52.3352C476.326 52.5988 475.729 52.7746 475 52.9064V50.8192C475.442 50.7752 475.795 50.6434 476.083 50.4017C476.37 50.16 476.525 49.7865 476.569 49.2812H475.11V45.8098H478.823V48.7759C478.823 49.2812 478.757 49.7426 478.646 50.204L478.624 50.182Z" fill="#040000"/>
<path d="M503.532 35.9228V38.4055H489.852V26.4093H492.968V35.9008H503.554L503.532 35.9228ZM508.859 40.4269V49.2153H490.824V40.4269H508.859ZM493.94 46.7545H505.764V42.8876H493.94V46.7545ZM512.417 33.484H508.859V39.2844H505.764V26.1017H508.859V30.9573H512.417V33.484Z" fill="#040000"/>
<path d="M514.008 32.8688V30.3201H526.031V32.8688H514.008ZM525.302 42.7338C525.302 43.7225 525.214 44.6233 525.059 45.3923C524.904 46.1613 524.617 46.8424 524.197 47.3697C523.799 47.919 523.247 48.3145 522.561 48.6001C521.876 48.8857 521.014 49.0176 519.998 49.0176C518.981 49.0176 518.097 48.8857 517.434 48.6001C516.749 48.3365 516.218 47.919 515.821 47.3697C515.423 46.8205 515.135 46.1613 514.959 45.3923C514.782 44.6233 514.716 43.7225 514.716 42.7338V40.4708C514.716 39.4821 514.804 38.5813 514.959 37.8123C515.113 37.0433 515.401 36.3622 515.821 35.8349C516.218 35.2856 516.771 34.8901 517.434 34.6045C518.119 34.3409 518.959 34.1871 519.998 34.1871C521.036 34.1871 521.876 34.3189 522.561 34.6045C523.247 34.8682 523.799 35.2856 524.197 35.8349C524.595 36.3842 524.882 37.0433 525.059 37.8123C525.236 38.5813 525.302 39.4821 525.302 40.4708V42.7338ZM516.506 28.7382V26.1896H523.49V28.7382H516.506ZM522.274 40.4708C522.274 39.8556 522.23 39.3063 522.186 38.8449C522.119 38.3835 522.009 37.9881 521.832 37.7024C521.655 37.4168 521.434 37.1751 521.147 37.0213C520.86 36.8675 520.484 36.8016 520.042 36.8016C519.114 36.8016 518.517 37.1092 518.208 37.7024C517.898 38.2957 517.766 39.2184 517.766 40.4708V42.7338C517.766 43.9862 517.92 44.909 518.208 45.5022C518.517 46.0954 519.114 46.403 520.042 46.403C520.484 46.403 520.86 46.3371 521.147 46.1833C521.434 46.0295 521.677 45.8098 521.832 45.5022C521.987 45.1946 522.119 44.8211 522.186 44.3597C522.252 43.8983 522.274 43.349 522.274 42.7338V40.4708ZM532.684 26.1237H535.712V49.2153H532.684V37.7244H530.231V48.8857H527.225V26.2994H530.231V35.1977H532.684V26.1017V26.1237Z" fill="#040000"/>
<path d="M548.044 46.2053V41.9209H551.16V46.2053H560.973V48.732H538.231V46.2053H548.066H548.044ZM556.111 32.3854V28.936H539.955V26.4093H559.205V34.8902H543.093V38.3616H559.714V40.8883H539.955V32.3854H556.111Z" fill="#040000"/>
<path d="M580.135 46.2053V41.6792H583.251V46.2053H593.064V48.732H570.322V46.2053H580.157H580.135ZM579.163 40.6686C577.66 40.6686 576.422 40.4269 575.472 39.9655C574.521 39.5041 573.77 38.9109 573.24 38.2298C572.709 37.5267 572.333 36.7577 572.134 35.9228C571.936 35.0879 571.825 34.2969 571.825 33.5499C571.825 32.8029 571.936 32.0119 572.134 31.177C572.333 30.3421 572.709 29.5731 573.24 28.8701C573.77 28.167 574.521 27.5738 575.472 27.1344C576.422 26.673 577.66 26.4532 579.163 26.4532H584.224C585.727 26.4532 586.964 26.673 587.915 27.1344C588.865 27.5957 589.617 28.167 590.147 28.8701C590.677 29.5731 591.053 30.3421 591.252 31.177C591.451 32.0119 591.561 32.8029 591.561 33.5499C591.561 34.2969 591.451 35.0879 591.252 35.9228C591.053 36.7577 590.677 37.5267 590.147 38.2298C589.617 38.9328 588.865 39.5041 587.915 39.9655C586.964 40.4269 585.727 40.6686 584.224 40.6686H579.163ZM574.875 33.5499C574.875 34.1431 574.941 34.7364 575.074 35.2856C575.207 35.8349 575.45 36.3403 575.803 36.7577C576.157 37.1971 576.621 37.5487 577.218 37.8123C577.815 38.076 578.566 38.2078 579.494 38.2078H583.914C584.843 38.2078 585.594 38.076 586.191 37.8123C586.788 37.5487 587.252 37.1971 587.605 36.7577C587.959 36.3183 588.202 35.8349 588.335 35.2856C588.467 34.7364 588.534 34.1431 588.534 33.5499C588.534 32.9567 588.467 32.3854 588.335 31.8142C588.202 31.2649 587.959 30.7596 587.605 30.3421C587.252 29.9247 586.788 29.5731 586.191 29.3095C585.594 29.0458 584.843 28.914 583.914 28.914H579.494C578.566 28.914 577.815 29.0458 577.218 29.3095C576.621 29.5731 576.157 29.9027 575.803 30.3421C575.45 30.7816 575.207 31.2649 575.074 31.8142C574.941 32.3635 574.875 32.9567 574.875 33.5499Z" fill="#040000"/>
<path d="M607.894 48.688C606.767 47.941 605.706 47.0402 604.712 45.9636C603.717 44.887 602.899 43.7225 602.259 42.4262C601.595 43.7445 600.734 44.9529 599.695 46.0954C598.656 47.2379 597.573 48.1827 596.402 48.9297L594.567 46.8864C596.49 45.6999 597.993 44.2279 599.076 42.5141C600.159 40.8004 600.689 38.8889 600.689 36.7797V26.3214H603.828V36.7797C603.828 38.9328 604.314 40.8223 605.308 42.4482C606.303 44.0521 607.762 45.4582 609.684 46.6667L607.85 48.71L607.894 48.688ZM613.331 26.1237H616.425V49.2153H613.331V26.1237Z" fill="#040000"/>
<path d="M620.205 26.4313H633.377V28.9579H623.321V46.2712H633.885V48.7539H620.227V26.4313H620.205ZM642.792 37.7244H639.234V49.2153H636.14V26.1237H639.234V35.1977H642.792V37.7464V37.7244Z" fill="#040000"/>
</g>
<defs>
<clipPath id="clip0_18_230">
<rect width="686" height="70" fill="white"/>
</clipPath>
</defs>
</svg>
