<svg xmlns="http://www.w3.org/2000/svg" id="_레이어_1" viewBox="0 0 965.49 14.72"><defs><style>.cls-1{fill:none;stroke:#231815;stroke-miterlimit:10;stroke-width:5.46px;}</style></defs><path class="cls-1" d="m959.6,14.14c1.17-5.47,4.92-6.77,2.19-10.12v-.02c-2.72-3.35-4.7,1.38-8.55,1.38s-3.85.08-7.72.08-3.85,1.04-7.72,1.04-3.85-.79-7.72-.79-3.85.1-7.72.1-3.85-1.82-7.72-1.82-3.85.44-7.72.44-3.87,1.87-7.72,1.87-3.87-2.93-7.72-2.93-3.86,3.48-7.72,3.48-3.87-1.89-7.72-1.89-3.85-.15-7.72-.15-3.85.07-7.72.07-3.85-.07-7.72-.07-3.85.56-7.72.56-3.85,1.3-7.72,1.3-3.85.61-7.72.61-3.85-2.93-7.72-2.93-3.85-.76-7.72-.76-3.85,3.18-7.72,3.18-3.85-2.63-7.72-2.63-3.87,2.63-7.72,2.63-3.86.1-7.72.1-3.87.08-7.72.08-3.87-.88-7.72-.88-3.86-2.63-7.72-2.63-3.85,3.74-7.72,3.74-3.85-3.89-7.72-3.89-3.85-.59-7.72-.59-3.85,1.85-7.72,1.85h-7.72c-3.86,0-3.85.59-7.72.59s-3.85.99-7.72.99-3.87-2.78-7.72-2.78-3.87,2.39-7.72,2.39-3.86-2.69-7.72-2.69-3.87,1.38-7.72,1.38-3.87-1.53-7.72-1.53-3.86.93-7.72.93-3.85.45-7.72.45-3.85-1.41-7.72-1.41-3.85,4.17-7.72,4.17-3.87-3.97-7.72-3.97-3.87,2.59-7.72,2.59-3.86-.57-7.72-.57-3.87-2.02-7.72-2.02-3.87,1.95-7.72,1.95-3.86-1.57-7.72-1.57-3.87-.69-7.72-.69-3.87.77-7.72.77-3.86,2.26-7.72,2.26-3.87-.89-7.72-.89-3.87,1.55-7.72,1.55-3.86-2-7.72-2-3.86,1.26-7.72,1.26-3.87-2.12-7.72-2.12-3.87,2.09-7.72,2.09-3.87-2.84-7.72-2.84-3.87,2.96-7.72,2.96-3.87.79-7.72.79-3.87-1.72-7.72-1.72-3.87,1.78-7.72,1.78-3.87-.71-7.72-.71-3.86-1.62-7.72-1.62h-7.72c-3.85,0-3.87.81-7.72.81s-3.87-1.57-7.72-1.57-3.87.91-7.72.91-3.87,1.9-7.72,1.9-3.86,1.03-7.72,1.03-3.87-.35-7.72-.35-3.87-.71-7.72-.71-3.87-.56-7.72-.56-3.86-1.9-7.72-1.9-3.87,2.26-7.72,2.26-3.87-2-7.72-2-3.87,2.9-7.73,2.9-3.87-1.16-7.72-1.16-3.87-2.04-7.72-2.04-3.87.74-7.72.74-3.87-.96-7.73-.96-3.87-.17-7.72-.17-3.87.67-7.72.67-3.86.61-7.72.61-3.87-.24-7.72-.24-3.87,2-7.72,2-3.86-2.95-7.72-2.95-3.87,2.46-7.72,2.46-3.87-.71-7.72-.71-3.86-.88-7.72-.88-3.87-.39-7.72-.39-3.87,1.11-7.72,1.11-3.85-1.94-7.72-1.94-3.87,1.33-7.72,1.33-3.87.49-7.73.49-3.86.12-7.72.12-3.87.49-7.72.49-3.87-2.02-7.72-2.02-3.86,2.91-7.73,2.91-3.87-.66-7.72-.66-3.87-2.39-7.72-2.39-3.87,1.83-7.73,1.83-3.87-.67-7.72-.67-3.87-1.72-7.73-1.72-3.86,2.93-7.72,2.93-3.87-1.7-7.73-1.7-3.87,2.58-7.73,2.58-3.87.15-7.73.15-3.87-3.77-7.73-3.77-3.86,3.06-7.73,3.06-3.87-1.16-7.73-1.16-3.87,2.05-7.73,2.05-3.87-.03-7.73-.03-3.87.07-7.73.07-3.87-.32-7.72-.32-3.87-.91-7.73-.91-3.87.69-7.73.69-3.87.82-7.73.82-3.87-4.19-7.73-4.19-3.87,1.62-7.73,1.62-3.87,2-7.73,2-3.87-2.88-7.73-2.88-3.87-.71-7.75-.71-3.92-.17-6.67,3.18c-2.75,3.35-1.79,3.4-1.79,8.13"/></svg>